<svg width="24" height="24" viewBox="0 0 24 24" fill="none" xmlns="http://www.w3.org/2000/svg">
<path fill-rule="evenodd" clip-rule="evenodd" d="M17.531 9.2916C17.5916 9.74942 17.601 10.2116 17.5595 10.6697H18.4595C18.6598 10.6687 18.8577 10.7131 19.0384 10.7995C19.2197 10.8782 19.3777 11.0019 19.4976 11.159C19.6288 11.3087 19.7244 11.4862 19.7772 11.6782C19.8223 11.872 19.8223 12.0736 19.7772 12.2673L19.4578 13.4356C19.4091 13.5846 19.316 13.715 19.1911 13.8096C19.0662 13.9042 18.9154 13.9584 18.7589 13.9649H18.5593C18.3691 13.9113 18.2077 13.7846 18.1105 13.6125C18.0132 13.4404 17.988 13.2369 18.0402 13.0462L18.2897 12.1675H5.2124L5.45197 13.0362C5.50456 13.2255 5.48068 13.4279 5.38544 13.5998C5.2902 13.7716 5.13122 13.8992 4.94284 13.9549C4.75094 14.0074 4.54607 13.9824 4.37242 13.8852C4.19877 13.7881 4.07018 13.6267 4.0144 13.4356L3.70499 12.3472C3.64879 12.1278 3.64879 11.8977 3.70499 11.6782C3.75417 11.4869 3.84637 11.3093 3.97455 11.159C4.10251 11.0035 4.26253 10.8774 4.44371 10.7895C4.62623 10.7096 4.82342 10.6688 5.02266 10.6697H6.70975L10.0139 6.78528C10.5082 6.27554 11.1176 5.89199 11.7909 5.66692C12.4334 5.4528 13.117 5.39127 13.7874 5.48719L14.636 5.60701L17.8604 2.39174C17.9831 2.261 18.1331 2.15875 18.2997 2.09218C18.6203 1.96537 18.9772 1.96537 19.2979 2.09218C19.4618 2.16364 19.6107 2.26525 19.7371 2.39174L20.6056 3.26046C20.7321 3.38686 20.8337 3.5359 20.9051 3.69982C20.9726 3.86453 21.0065 4.04105 21.0049 4.21905C21.0076 4.40038 20.9737 4.58038 20.9051 4.74827C20.8325 4.91153 20.731 5.06035 20.6056 5.18763C19.5361 6.27744 18.4893 7.3442 17.4112 8.44285L17.531 9.2916ZM11.0622 7.84373L8.63244 10.6697H16.0904C16.1321 10.2852 16.13 9.89653 16.0835 9.51127L15.9138 8.30305C15.8965 8.18908 15.9065 8.07264 15.9429 7.96329C15.9793 7.85393 16.0412 7.75478 16.1234 7.67397L17.7821 6.01481L17.0876 5.31611L15.4146 6.96502C15.3323 7.04851 15.2318 7.1118 15.121 7.14991C15.0101 7.18803 14.8919 7.19993 14.7757 7.18469L13.5579 7.00496C13.1053 6.94431 12.645 6.98525 12.2102 7.12478C11.7777 7.27359 11.3849 7.51953 11.0622 7.84373ZM18.8576 4.93906L19.5175 4.27896L18.8288 3.59996L18.1611 4.258L18.8576 4.93906Z" fill="#1B1A16"/>
<path d="M3.25572 18.1187C3.39004 18.2386 3.56504 18.3028 3.74499 18.2984C3.85315 18.3001 3.96024 18.2777 4.05866 18.2328C4.15708 18.1879 4.24432 18.1216 4.31395 18.0388L7.38859 14.4641C7.45303 14.3894 7.50212 14.3028 7.53299 14.2091C7.56387 14.1154 7.576 14.0166 7.56857 13.9183C7.56115 13.8199 7.53431 13.724 7.48973 13.636C7.44515 13.548 7.38368 13.4698 7.30877 13.4056C7.23497 13.3415 7.14911 13.2926 7.05628 13.2618C6.96345 13.2311 6.86546 13.2191 6.76796 13.2265C6.67045 13.2339 6.57539 13.2607 6.48829 13.3051C6.40119 13.3496 6.32376 13.4109 6.26054 13.4855L3.17591 17.0702C3.11175 17.1441 3.06285 17.2299 3.03211 17.3227C3.00137 17.4156 2.98947 17.5136 2.9969 17.6112C3.00432 17.7087 3.03092 17.8038 3.07537 17.8909C3.11982 17.978 3.18113 18.0555 3.25572 18.1187Z" fill="#1B1A16"/>
<path d="M19.6473 18.2984C19.5391 18.3001 19.4319 18.2777 19.3335 18.2327C19.2351 18.1878 19.148 18.1216 19.0783 18.0388L16.0036 14.464C15.8759 14.3122 15.8128 14.1164 15.8277 13.9185C15.8426 13.7207 15.9345 13.5366 16.0835 13.4056C16.2353 13.2779 16.431 13.2148 16.6288 13.2297C16.8266 13.2446 17.0107 13.3364 17.1416 13.4855L20.2164 17.0702C20.2805 17.144 20.3293 17.2298 20.36 17.3227C20.3908 17.4156 20.4028 17.5136 20.3954 17.6111C20.3879 17.7087 20.3612 17.8037 20.3168 17.8909C20.2723 17.978 20.211 18.0554 20.1364 18.1187C20.0032 18.2403 19.8276 18.3049 19.6473 18.2984Z" fill="#1B1A16"/>
<path d="M8.12735 22.003H15.4148C15.8791 21.9988 16.3274 21.8328 16.6826 21.5337C17.0255 21.2573 17.2591 20.868 17.3415 20.4353L18.0203 18.0488C18.0478 17.9544 18.0564 17.8555 18.0457 17.7577C18.0351 17.6599 18.0053 17.5652 17.958 17.479C17.9107 17.3928 17.8469 17.3167 17.7702 17.2551C17.6935 17.1935 17.6055 17.1477 17.5111 17.1201C17.3192 17.0676 17.1144 17.0927 16.9407 17.1898C16.7671 17.2869 16.6386 17.4484 16.5828 17.6394L15.884 20.1058C15.8671 20.2155 15.8103 20.3151 15.7243 20.3853C15.6392 20.4617 15.5291 20.5043 15.4148 20.5052H8.12735C8.01305 20.5043 7.90307 20.4617 7.81795 20.3853C7.76635 20.3419 7.72389 20.2886 7.69305 20.2286C7.6622 20.1686 7.64352 20.1031 7.63821 20.0359L6.95945 17.6394C6.90367 17.4484 6.77508 17.2869 6.60143 17.1898C6.42778 17.0927 6.22291 17.0676 6.031 17.1201C5.93588 17.1465 5.847 17.1916 5.76962 17.2529C5.69223 17.3142 5.62795 17.3904 5.58049 17.477C5.53303 17.5635 5.50342 17.6587 5.49336 17.7569C5.4833 17.8552 5.49295 17.9544 5.52188 18.0488L6.18077 20.3654C6.25866 20.824 6.49982 21.2389 6.85965 21.5337C7.21484 21.8328 7.66305 21.9988 8.12735 22.003Z" fill="#1B1A16"/>
</svg>
