<svg width="24" height="24" viewBox="0 0 24 24" fill="none" xmlns="http://www.w3.org/2000/svg">
<path d="M2.58 8.748C2.949 8.378 3.461 8.166 3.983 8.166H7.563C7.596 7.53 7.859 6.914 8.312 6.46C9.287 5.486 11.013 5.487 11.988 6.461C12.447 6.92 12.704 7.523 12.737 8.166H13.85C14.379 8.166 14.877 8.372 15.252 8.747C15.442 8.937 15.588 9.159 15.687 9.4H17.821C18.262 9.4 18.696 9.55 19.043 9.822C19.39 10.094 19.638 10.481 19.751 10.954L20.081 12.786L21.113 13.472C21.386 13.653 21.612 13.901 21.764 14.188C21.918 14.475 22 14.799 22 15.125V18.783C22 19.312 21.793 19.81 21.419 20.185C21.045 20.56 20.546 20.766 20.017 20.766H17.903C17.443 21.504 16.631 22 15.7 22C14.769 22 13.957 21.504 13.498 20.767H8.652C8.193 21.504 7.381 22 6.45 22C5.519 22 4.707 21.504 4.247 20.767H3.983C3.46 20.767 2.948 20.555 2.581 20.186C2.206 19.811 2 19.312 2 18.783V10.15C2 9.62 2.206 9.122 2.58 8.748ZM10.928 7.522C10.516 7.11 9.784 7.112 9.372 7.522C9.199 7.696 9.088 7.925 9.058 8.167H11.243C11.212 7.925 11.101 7.695 10.928 7.522ZM20.358 19.125C20.45 19.033 20.5 18.912 20.5 18.783V15.125C20.5 15.045 20.48 14.966 20.441 14.894C20.404 14.826 20.35 14.766 20.284 14.722L18.985 13.859C18.815 13.746 18.698 13.568 18.662 13.367L18.285 11.265C18.26 11.161 18.2 11.068 18.117 11.003C18.033 10.936 17.928 10.9 17.821 10.9H15.833V16.814C17.158 16.882 18.217 17.942 18.286 19.267H20.016C20.146 19.267 20.267 19.216 20.358 19.125ZM15.7 20.5C16.306 20.5 16.8 20.007 16.8 19.4C16.8 18.793 16.307 18.3 15.7 18.3C15.093 18.3 14.6 18.794 14.6 19.401C14.6 20.008 15.094 20.5 15.7 20.5ZM6.45 20.5C7.056 20.5 7.55 20.007 7.55 19.4C7.55 18.793 7.057 18.299 6.45 18.299C5.843 18.299 5.349 18.793 5.349 19.4C5.349 20.007 5.844 20.5 6.45 20.5ZM3.5 18.783C3.5 18.912 3.551 19.033 3.643 19.126C3.704 19.188 3.783 19.222 3.866 19.243C3.948 17.884 5.07 16.8 6.45 16.8C7.838 16.8 8.965 17.897 9.036 19.267H13.114C13.159 18.393 13.633 17.635 14.334 17.199V10.15C14.334 10.021 14.284 9.9 14.193 9.809C14.101 9.717 13.98 9.667 13.851 9.667H3.984C3.857 9.667 3.732 9.718 3.642 9.809C3.551 9.9 3.5 10.022 3.5 10.151V18.783Z" fill="#1B1A16"/>
<path d="M7.066 13.1H8.166V12C8.166 11.586 8.502 11.25 8.916 11.25C9.33 11.25 9.666 11.586 9.666 12V13.1H10.767C11.181 13.1 11.517 13.436 11.517 13.85C11.517 14.264 11.181 14.6 10.767 14.6H9.666V15.7C9.666 16.114 9.33 16.45 8.916 16.45C8.502 16.45 8.166 16.114 8.166 15.7V14.6H7.066C6.652 14.6 6.316 14.264 6.316 13.85C6.316 13.436 6.652 13.1 7.066 13.1Z" fill="#1B1A16"/>
<path d="M10.15 4.733C9.736 4.733 9.4 4.397 9.4 3.983V2.75C9.4 2.336 9.736 2 10.15 2C10.564 2 10.9 2.336 10.9 2.75V3.983C10.9 4.397 10.564 4.733 10.15 4.733Z" fill="#1B1A16"/>
<path d="M7.401 5.888C7.294 5.942 7.179 5.967 7.067 5.967C6.792 5.967 6.526 5.815 6.395 5.552L5.779 4.319C5.593 3.949 5.744 3.498 6.115 3.313C6.484 3.129 6.936 3.279 7.121 3.649L7.737 4.882C7.923 5.252 7.772 5.703 7.401 5.888Z" fill="#1B1A16"/>
<path d="M13.904 5.552C13.773 5.815 13.508 5.967 13.233 5.967C13.12 5.967 13.006 5.942 12.898 5.888C12.527 5.702 12.377 5.252 12.563 4.882L13.18 3.649C13.365 3.279 13.814 3.13 14.186 3.314C14.556 3.498 14.706 3.948 14.521 4.319L13.904 5.552Z" fill="#1B1A16"/>
</svg>
