<svg width="24" height="24" viewBox="0 0 24 24" fill="none" xmlns="http://www.w3.org/2000/svg">
<path fill-rule="evenodd" clip-rule="evenodd" d="M2.5809 5.04758C2.95285 4.67563 3.45732 4.46667 3.98333 4.46667H20.0167C20.5427 4.46667 21.0471 4.67563 21.4191 5.04758C21.791 5.41953 22 5.924 22 6.45001C22 6.86422 21.6642 7.20001 21.25 7.20001C20.8358 7.20001 20.5 6.86422 20.5 6.45001C20.5 6.32182 20.4491 6.19888 20.3584 6.10824C20.2678 6.0176 20.1449 5.96667 20.0167 5.96667H3.98333C3.85515 5.96667 3.73221 6.0176 3.64157 6.10824C3.55092 6.19888 3.5 6.32182 3.5 6.45001C3.5 6.86422 3.16421 7.20001 2.75 7.20001C2.33579 7.20001 2 6.86422 2 6.45001C2 5.924 2.20896 5.41953 2.5809 5.04758ZM17.4431 8.85165C17.8196 8.67906 18.2648 8.84441 18.4374 9.22096L18.8861 10.2001L19.3349 9.22096C19.5075 8.84441 19.9526 8.67906 20.3292 8.85165C20.7057 9.02423 20.871 9.46939 20.6985 9.84594L19.7111 12.0001L20.6985 14.1543C20.871 14.5308 20.7057 14.976 20.3292 15.1486C19.9526 15.3212 19.5075 15.1558 19.3349 14.7793L18.8861 13.8002L18.4374 14.7793C18.2648 15.1558 17.8196 15.3212 17.4431 15.1486C17.0665 14.976 16.9012 14.5308 17.0738 14.1543L18.0611 12.0001L17.0738 9.84594C16.9012 9.46939 17.0665 9.02423 17.4431 8.85165ZM8.51538 8.80944C8.84246 8.72101 9.18822 8.86287 9.35895 9.15554L10.15 10.5116L10.9411 9.15554C11.1118 8.86287 11.4575 8.72101 11.7846 8.80944C12.1117 8.89787 12.3389 9.19462 12.3389 9.53345V14.4668C12.3389 14.881 12.0031 15.2168 11.5889 15.2168C11.1747 15.2168 10.8389 14.881 10.8389 14.4668V12.3076L10.7978 12.378C10.6634 12.6084 10.4168 12.7501 10.15 12.7501C9.88325 12.7501 9.63657 12.6084 9.50217 12.378L9.46111 12.3076V14.4668C9.46111 14.881 9.12533 15.2168 8.71111 15.2168C8.2969 15.2168 7.96111 14.881 7.96111 14.4668V9.53345C7.96111 9.19462 8.18829 8.89787 8.51538 8.80944ZM3.81424 9.36435C4.18619 8.9924 4.69065 8.78345 5.21667 8.78345C5.74268 8.78345 6.24715 8.9924 6.6191 9.36435C6.99104 9.7363 7.2 10.2408 7.2 10.7668V14.4668C7.2 14.881 6.86421 15.2168 6.45 15.2168C6.03579 15.2168 5.7 14.881 5.7 14.4668V13.3668H4.73333V14.4668C4.73333 14.881 4.39755 15.2168 3.98333 15.2168C3.56912 15.2168 3.23333 14.881 3.23333 14.4668V12.6172V10.7668C3.23333 10.2408 3.44229 9.7363 3.81424 9.36435ZM4.73333 11.8668H5.7V10.7668C5.7 10.6386 5.64908 10.5157 5.55843 10.425C5.46779 10.3344 5.34486 10.2834 5.21667 10.2834C5.08848 10.2834 4.96554 10.3344 4.8749 10.425C4.78426 10.5157 4.73333 10.6386 4.73333 10.7668V11.8668ZM14.8367 10.2834C14.7739 10.2834 14.7137 10.3084 14.6693 10.3528C14.6249 10.3971 14.6 10.4573 14.6 10.5201V11.8668H15.4944C15.9087 11.8668 16.2444 12.2026 16.2444 12.6168C16.2444 13.031 15.9087 13.3668 15.4944 13.3668H14.6V13.4801C14.6 13.5429 14.6249 13.6031 14.6693 13.6475C14.7137 13.6918 14.7739 13.7168 14.8367 13.7168H15.4944C15.9087 13.7168 16.2444 14.0526 16.2444 14.4668C16.2444 14.881 15.9087 15.2168 15.4944 15.2168H14.8367C14.3761 15.2168 13.9343 15.0338 13.6087 14.7081C13.283 14.3824 13.1 13.9407 13.1 13.4801V10.5201C13.1 10.0595 13.283 9.61779 13.6087 9.2921C13.9343 8.96642 14.3761 8.78345 14.8367 8.78345H15.4944C15.9087 8.78345 16.2444 9.11923 16.2444 9.53345C16.2444 9.94766 15.9087 10.2834 15.4944 10.2834H14.8367ZM2.75 16.8001C3.16421 16.8001 3.5 17.1359 3.5 17.5501C3.5 17.6783 3.55092 17.8012 3.64157 17.8919C3.73221 17.9825 3.85515 18.0334 3.98333 18.0334H20.0167C20.1449 18.0334 20.2678 17.9825 20.3584 17.8919C20.4491 17.8012 20.5 17.6783 20.5 17.5501C20.5 17.1359 20.8358 16.8001 21.25 16.8001C21.6642 16.8001 22 17.1359 22 17.5501C22 18.0761 21.791 18.5806 21.4191 18.9525C21.0471 19.3245 20.5427 19.5334 20.0167 19.5334H3.98333C3.45732 19.5334 2.95285 19.3245 2.5809 18.9525C2.20896 18.5806 2 18.0761 2 17.5501C2 17.1359 2.33579 16.8001 2.75 16.8001Z" fill="#1B1A16"/>
</svg>
