<svg width="24" height="24" viewBox="0 0 24 24" fill="none" xmlns="http://www.w3.org/2000/svg">
<path d="M7.067 10.017C5.633 10.017 4.467 11.184 4.467 12.618C4.467 14.052 5.634 15.218 7.067 15.218C8.5 15.218 9.667 14.052 9.667 12.618C9.666 11.183 8.5 10.017 7.067 10.017ZM7.067 13.717C6.461 13.717 5.967 13.224 5.967 12.617C5.967 12.01 6.461 11.516 7.067 11.516C7.673 11.516 8.167 12.01 8.167 12.617C8.166 13.224 7.673 13.717 7.067 13.717Z" fill="#1B1A16"/>
<path d="M7.066 9.05C8.16 9.05 9.049 8.16 9.049 7.067C9.049 5.973 8.159 5.084 7.066 5.084C5.973 5.084 5.083 5.974 5.083 7.067C5.083 8.16 5.973 9.05 7.066 9.05ZM7.066 6.583C7.333 6.583 7.549 6.8 7.549 7.066C7.549 7.332 7.332 7.549 7.066 7.549C6.8 7.549 6.583 7.332 6.583 7.066C6.583 6.8 6.8 6.583 7.066 6.583Z" fill="#1B1A16"/>
<path d="M9.739 2H4.395C3.075 2 2 3.074 2 4.395V15.29C2 16.61 3.074 17.685 4.395 17.685H6.317V20.5H5.217C4.803 20.5 4.467 20.836 4.467 21.25C4.467 21.664 4.803 22 5.217 22H8.917C9.331 22 9.667 21.664 9.667 21.25C9.667 20.836 9.331 20.5 8.916 20.5H7.816V17.684H9.738C11.058 17.684 12.133 16.61 12.133 15.289V4.395C12.133 3.074 11.059 2 9.739 2ZM10.633 15.289C10.633 15.782 10.232 16.184 9.738 16.184H4.395C3.902 16.184 3.5 15.783 3.5 15.289V4.395C3.5 3.901 3.901 3.5 4.395 3.5H9.739C10.232 3.5 10.634 3.901 10.634 4.395V15.289H10.633Z" fill="#1B1A16"/>
<path d="M16.934 15.217C18.368 15.217 19.534 14.051 19.534 12.617C19.534 11.183 18.368 10.016 16.934 10.016C15.5 10.016 14.334 11.183 14.334 12.617C14.334 14.051 15.5 15.217 16.934 15.217ZM16.934 11.517C17.54 11.517 18.034 12.011 18.034 12.618C18.034 13.224 17.541 13.718 16.934 13.718C16.327 13.718 15.834 13.225 15.834 12.618C15.834 12.01 16.327 11.517 16.934 11.517Z" fill="#1B1A16"/>
<path d="M16.934 9.05C18.027 9.05 18.916 8.16 18.916 7.067C18.916 5.973 18.026 5.084 16.934 5.084C15.84 5.084 14.951 5.974 14.951 7.067C14.95 8.16 15.84 9.05 16.934 9.05ZM16.934 6.583C17.2 6.583 17.416 6.8 17.416 7.066C17.416 7.332 17.199 7.549 16.934 7.549C16.667 7.549 16.451 7.332 16.451 7.066C16.45 6.8 16.667 6.583 16.934 6.583Z" fill="#1B1A16"/>
<path d="M21.058 2.942C20.45 2.334 19.643 2 18.783 2H15.085C14.684 2.004 14.246 2.082 13.852 2.245C13.459 2.408 13.108 2.643 12.809 2.944C12.517 3.237 12.517 3.713 12.811 4.005C13.104 4.297 13.579 4.297 13.872 4.003C14.031 3.843 14.218 3.718 14.427 3.631C14.636 3.544 14.857 3.501 15.082 3.501H18.784C19.242 3.501 19.674 3.68 19.998 4.004C20.322 4.328 20.501 4.759 20.501 5.217V14.467C20.501 14.925 20.322 15.357 19.998 15.681C19.674 16.005 19.242 16.184 18.784 16.184H15.085C14.857 16.184 14.636 16.14 14.427 16.054C14.22 15.967 14.032 15.842 13.871 15.681C13.578 15.388 13.103 15.388 12.81 15.681C12.517 15.974 12.517 16.449 12.81 16.742C13.111 17.043 13.461 17.277 13.852 17.44C14.245 17.602 14.659 17.684 15.084 17.684H16.184V20.5H15.084C14.67 20.5 14.334 20.836 14.334 21.25C14.334 21.664 14.67 22 15.084 22H18.783C19.197 22 19.533 21.664 19.533 21.25C19.533 20.836 19.197 20.5 18.783 20.5H17.683V17.684H18.783C19.642 17.684 20.45 17.349 21.057 16.742C21.664 16.135 21.999 15.327 21.999 14.468V5.218C22 4.357 21.665 3.549 21.058 2.942Z" fill="#1B1A16"/>
</svg>
