<svg width="24" height="24" viewBox="0 0 24 24" fill="none" xmlns="http://www.w3.org/2000/svg">
<path fill-rule="evenodd" clip-rule="evenodd" d="M2.6167 3.98333C2.6167 2.88797 3.50467 2 4.60003 2H19.4001C20.4954 2 21.3834 2.88796 21.3834 3.98333V20.0167C21.3834 21.112 20.4954 22 19.4001 22H4.60003C3.50466 22 2.6167 21.112 2.6167 20.0167V3.98333ZM4.60003 3.5C4.33309 3.5 4.1167 3.71639 4.1167 3.98333V20.0167C4.1167 20.2836 4.3331 20.5 4.60003 20.5H19.4001C19.667 20.5 19.8834 20.2836 19.8834 20.0167V3.98333C19.8834 3.7164 19.667 3.5 19.4001 3.5H4.60003ZM5.08305 5.525C5.08305 4.94048 5.5569 4.46667 6.14138 4.46667C6.7259 4.46667 7.19971 4.9405 7.19971 5.525C7.19971 6.10945 6.72593 6.58333 6.14138 6.58333C5.5569 6.58333 5.08305 6.10952 5.08305 5.525ZM16.8 5.525C16.8 4.94048 17.2739 4.46667 17.8584 4.46667C18.4428 4.46667 18.9167 4.94048 18.9167 5.525C18.9167 6.10952 18.4428 6.58333 17.8584 6.58333C17.2739 6.58333 16.8 6.10952 16.8 5.525ZM5.70002 12C5.70002 8.52061 8.52063 5.7 12 5.7C15.4794 5.7 18.3 8.52061 18.3 12C18.3 15.4794 15.4794 18.3 12 18.3C8.52063 18.3 5.70002 15.4794 5.70002 12ZM12 7.2C9.34905 7.2 7.20002 9.34904 7.20002 12C7.20002 14.6509 9.34905 16.8 12 16.8C14.651 16.8 16.8 14.6509 16.8 12C16.8 9.34904 14.651 7.2 12 7.2ZM9.40002 12C9.40002 10.5641 10.5641 9.4 12 9.4C13.4359 9.4 14.6 10.5641 14.6 12C14.6 13.4359 13.4359 14.6 12 14.6C10.5641 14.6 9.40002 13.4359 9.40002 12ZM12 10.9C11.3925 10.9 10.9 11.3925 10.9 12C10.9 12.6075 11.3925 13.1 12 13.1C12.6075 13.1 13.1 12.6075 13.1 12C13.1 11.3925 12.6075 10.9 12 10.9ZM5.08305 18.475C5.08305 17.8905 5.55689 17.4167 6.14138 17.4167C6.7259 17.4167 7.19972 17.8905 7.19972 18.475C7.19972 19.0595 6.72589 19.5333 6.14138 19.5333C5.55689 19.5333 5.08305 19.0595 5.08305 18.475ZM16.8 18.475C16.8 17.8905 17.2739 17.4167 17.8584 17.4167C18.4429 17.4167 18.9167 17.8905 18.9167 18.475C18.9167 19.0595 18.4429 19.5333 17.8584 19.5333C17.2739 19.5333 16.8 19.0595 16.8 18.475Z" fill="#1B1A16"/>
</svg>
