<svg width="24" height="24" viewBox="0 0 24 24" fill="none" xmlns="http://www.w3.org/2000/svg">
<path d="M8.34897 12.5L9.80797 11.042C10.067 10.783 10.101 10.374 9.88797 10.076L9.06597 8.92395C8.92497 8.72695 8.69798 8.60995 8.45598 8.60995H5.16697C4.92497 8.60995 4.69697 8.72695 4.55697 8.92395L3.73497 10.075C3.52197 10.373 3.55597 10.782 3.81497 11.041L5.27297 12.5C3.34797 13.148 1.94897 14.949 1.94897 17.089C1.94897 19.77 4.12997 21.95 6.80997 21.95C9.48997 21.95 11.671 19.769 11.671 17.089C11.672 14.949 10.273 13.148 8.34897 12.5ZM5.55297 10.11H8.06997L8.29897 10.43L6.81197 11.917L5.32397 10.43L5.55297 10.11ZM6.81097 20.45C4.95697 20.45 3.44997 18.942 3.44997 17.089C3.44997 15.236 4.95797 13.728 6.81097 13.728C8.66397 13.728 10.172 15.236 10.172 17.089C10.172 18.942 8.66497 20.45 6.81097 20.45Z" fill="#1B1A16"/>
<path d="M21.2 1.94995H11.004C10.59 1.94995 10.254 2.28595 10.254 2.69995V7.13995C10.254 7.55395 10.59 7.88995 11.004 7.88995C11.418 7.88995 11.754 7.55395 11.754 7.13995V3.44995H20.45V15.27H14.293C13.879 15.27 13.543 15.606 13.543 16.02C13.543 16.434 13.879 16.77 14.293 16.77H21.2C21.614 16.77 21.95 16.434 21.95 16.02V2.69995C21.95 2.28595 21.614 1.94995 21.2 1.94995Z" fill="#1B1A16"/>
<path d="M18.404 6.90295C18.818 6.90295 19.154 6.56695 19.154 6.15295C19.154 5.73895 18.818 5.40295 18.404 5.40295H16.513C16.099 5.40295 15.763 5.73895 15.763 6.15295C15.763 6.56695 16.099 6.90295 16.513 6.90295H18.404Z" fill="#1B1A16"/>
<path d="M13.05 9.03095C13.05 9.44495 13.386 9.78095 13.8 9.78095H18.404C18.818 9.78095 19.154 9.44495 19.154 9.03095C19.154 8.61695 18.818 8.28095 18.404 8.28095H13.8C13.386 8.28095 13.05 8.61695 13.05 9.03095Z" fill="#1B1A16"/>
<path d="M18.404 12.658C18.818 12.658 19.154 12.323 19.154 11.908C19.154 11.493 18.818 11.158 18.404 11.158H13.8C13.386 11.158 13.05 11.494 13.05 11.908C13.05 12.322 13.386 12.658 13.8 12.658H18.404Z" fill="#1B1A16"/>
</svg>
