<svg width="24" height="24" viewBox="0 0 24 24" fill="none" xmlns="http://www.w3.org/2000/svg">
<path fill-rule="evenodd" clip-rule="evenodd" d="M6.60153 2.41459C6.72857 2.1605 6.98827 2 7.27235 2H10.5612C10.8453 2 11.105 2.1605 11.2321 2.41459L12.0543 4.05904C12.1987 4.34778 12.1421 4.69652 11.9138 4.92479L10.5154 6.3231C11.5355 6.59979 12.4496 7.13467 13.1821 7.85255C13.4779 8.14246 13.4828 8.61731 13.1928 8.91315C12.9029 9.209 12.4281 9.2138 12.1322 8.92389C11.3028 8.11103 10.1689 7.6111 8.91671 7.6111C6.37927 7.6111 4.32227 9.66811 4.32227 12.2056C4.32227 14.2098 5.60604 15.9162 7.39844 16.5435C7.7894 16.6803 7.99541 17.1082 7.85858 17.4991C7.72175 17.8901 7.29389 18.0961 6.90293 17.9593C4.52765 17.128 2.82227 14.8669 2.82227 12.2056C2.82227 9.39292 4.72759 7.02529 7.31794 6.32296L5.91979 4.92477C5.69152 4.6965 5.63494 4.34777 5.7793 4.05904L6.60153 2.41459ZM8.91673 5.80045L7.36269 4.24636L7.73587 3.5H10.0977L10.4709 4.24635L8.91673 5.80045ZM5.08346 12.2056C5.08346 10.0884 6.7997 8.37224 8.91679 8.37224C9.83315 8.37224 10.6762 8.69472 11.3357 9.23172C11.6569 9.49325 11.7053 9.96566 11.4438 10.2869C11.1822 10.6081 10.7098 10.6564 10.3886 10.3949C9.9869 10.0678 9.4757 9.87224 8.91679 9.87224C7.62812 9.87224 6.58346 10.9169 6.58346 12.2056C6.58346 13.1429 7.13614 13.9527 7.9366 14.3238C8.31237 14.4981 8.47574 14.944 8.30149 15.3198C8.12724 15.6955 7.68135 15.8589 7.30558 15.6847C5.99493 15.0769 5.08346 13.7484 5.08346 12.2056ZM8.98894 15.9056C8.98894 12.5396 11.7175 9.81111 15.0834 9.81111C18.4493 9.81111 21.1778 12.5396 21.1778 15.9056C21.1778 19.2715 18.4493 22 15.0834 22C11.7175 22 8.98894 19.2715 8.98894 15.9056ZM15.0834 11.3111C12.5459 11.3111 10.4889 13.3681 10.4889 15.9056C10.4889 18.443 12.5459 20.5 15.0834 20.5C17.6209 20.5 19.6778 18.443 19.6778 15.9056C19.6778 13.3681 17.6209 11.3111 15.0834 11.3111ZM11.353 15.9056C11.353 13.8453 13.0232 12.175 15.0835 12.175C17.1438 12.175 18.8141 13.8453 18.8141 15.9056C18.8141 17.9659 17.1438 19.6361 15.0835 19.6361C13.0232 19.6361 11.353 17.9659 11.353 15.9056ZM15.0835 13.675C13.8517 13.675 12.853 14.6737 12.853 15.9056C12.853 17.1374 13.8517 18.1361 15.0835 18.1361C16.3154 18.1361 17.3141 17.1374 17.3141 15.9056C17.3141 14.6737 16.3154 13.675 15.0835 13.675Z" fill="#1B1A16"/>
</svg>
