<svg width="24" height="24" viewBox="0 0 24 24" fill="none" xmlns="http://www.w3.org/2000/svg">
<path d="M12.1639 8.91504C12.1639 8.50104 11.8279 8.16504 11.4139 8.16504C10.9209 8.16504 10.5189 7.76404 10.5189 7.27004C10.5189 6.87504 10.4689 3.38504 8.72788 2.30904C8.25488 2.01804 7.46788 1.78404 6.39088 2.32304C5.20988 2.91404 4.66288 4.30204 5.11088 5.53404L5.58788 6.95904C5.67988 7.32504 5.72988 7.64004 5.72988 7.84604C5.72988 8.26004 6.06588 8.59604 6.47988 8.59604C6.89388 8.59604 7.22988 8.26004 7.22988 7.84604C7.22988 7.51104 7.16688 7.08904 7.02688 6.53904L6.52688 5.04004C6.33288 4.50604 6.56188 3.91504 7.06188 3.66504C7.61688 3.38604 7.85088 3.53104 7.93888 3.58604C8.60588 3.99804 9.01888 5.81904 9.01888 7.27104C9.01888 8.59104 10.0929 9.66604 11.4139 9.66604C11.8279 9.66504 12.1639 9.32904 12.1639 8.91504Z" fill="#1B1A16"/>
<path d="M20.9739 8.16504C20.4809 8.16504 20.0789 7.76404 20.0789 7.27004C20.0789 6.87504 20.0289 3.38504 18.2879 2.30904C17.8159 2.01704 17.0279 1.78504 15.9519 2.32304C14.7699 2.91304 14.2219 4.30204 14.6699 5.53404L15.1479 6.95804C15.2389 7.32504 15.2899 7.64104 15.2899 7.84604C15.2899 8.26004 15.6259 8.59604 16.0399 8.59604C16.4539 8.59604 16.7899 8.26004 16.7899 7.84604C16.7899 7.51204 16.7279 7.09104 16.5879 6.53904L16.0879 5.04004C15.8939 4.50504 16.1229 3.91404 16.6229 3.66504C17.1789 3.38904 17.4129 3.53204 17.4999 3.58504C18.1669 3.99704 18.5799 5.81904 18.5799 7.27004C18.5799 8.59004 19.6539 9.66504 20.9749 9.66504C21.3889 9.66504 21.7249 9.32904 21.7249 8.91504C21.7249 8.50104 21.3879 8.16504 20.9739 8.16504Z" fill="#1B1A16"/>
<path d="M8.37188 11.865H5.08188C3.50888 11.865 2.27588 13.097 2.27588 14.672V19.194C2.27588 20.768 3.50888 22 5.08188 22H8.37188C9.94488 22 11.1779 20.768 11.1779 19.194V14.672C11.1769 13.098 9.94488 11.865 8.37188 11.865ZM7.20988 18.033H6.24288V15.832H7.20988V18.033ZM8.70988 18.473V15.383L9.62788 14.424C9.64388 14.507 9.67688 14.583 9.67688 14.672V19.194C9.67688 19.267 9.64788 19.33 9.63588 19.399L8.70988 18.473ZM8.37188 13.365C8.42988 13.365 8.47888 13.39 8.53488 13.397L7.63988 14.332H5.81288L4.91888 13.397C4.97488 13.39 5.02288 13.365 5.08188 13.365H8.37188ZM3.77588 19.194V14.672C3.77588 14.583 3.80888 14.507 3.82488 14.424L4.74288 15.383V18.473L3.81688 19.4C3.80588 19.33 3.77588 19.268 3.77588 19.194ZM5.08188 20.5C5.00888 20.5 4.94688 20.471 4.87688 20.46L5.80288 19.533H7.64988L8.57588 20.46C8.50688 20.471 8.44488 20.5 8.37088 20.5H5.08188Z" fill="#1B1A16"/>
<path d="M17.9319 11.865H14.6419C13.0689 11.865 11.8359 13.097 11.8359 14.672V19.194C11.8359 20.767 13.0679 22 14.6419 22H17.9319C19.5039 22 20.7369 20.768 20.7369 19.194V14.672C20.7359 13.098 19.5039 11.865 17.9319 11.865ZM16.7699 18.033H15.8029V15.832H16.7699V18.033ZM18.2699 18.473V15.383L19.1879 14.424C19.2039 14.507 19.2369 14.584 19.2369 14.672V19.194C19.2369 19.267 19.2079 19.33 19.1969 19.399L18.2699 18.473ZM17.9319 13.365C17.9899 13.365 18.0379 13.39 18.0939 13.397L17.1989 14.332H15.3729L14.4789 13.397C14.5349 13.39 14.5829 13.365 14.6409 13.365H17.9319ZM13.3359 19.194V14.672C13.3359 14.583 13.3689 14.507 13.3849 14.424L14.3029 15.383V18.473L13.3759 19.4C13.3649 19.33 13.3359 19.268 13.3359 19.194ZM14.6419 20.5C14.5689 20.5 14.5059 20.471 14.4369 20.46L15.3639 19.533H17.2099L18.1369 20.46C18.0679 20.471 18.0049 20.5 17.9329 20.5H14.6419Z" fill="#1B1A16"/>
<path d="M6.47988 11.474C6.58388 11.474 6.68188 11.453 6.77188 11.415C7.26788 11.282 7.64088 10.85 7.64088 10.313C7.64088 9.77604 7.26788 9.34404 6.77188 9.21104C6.68188 9.17304 6.58288 9.15204 6.47988 9.15204C6.37688 9.15204 6.27788 9.17304 6.18788 9.21104C5.69188 9.34404 5.31888 9.77604 5.31888 10.313C5.31888 10.85 5.69288 11.282 6.18788 11.415C6.27788 11.453 6.37588 11.474 6.47988 11.474Z" fill="#1B1A16"/>
<path d="M16.0389 11.474C16.1429 11.474 16.2409 11.453 16.3309 11.415C16.8269 11.283 17.2009 10.85 17.2009 10.313C17.2009 9.77604 16.8269 9.34304 16.3309 9.21104C16.2409 9.17304 16.1429 9.15204 16.0389 9.15204C15.9349 9.15204 15.8369 9.17304 15.7469 9.21104C15.2519 9.34404 14.8789 9.77604 14.8789 10.313C14.8789 10.85 15.2519 11.282 15.7469 11.415C15.8369 11.453 15.9359 11.474 16.0389 11.474Z" fill="#1B1A16"/>
</svg>
