<svg width="24" height="24" viewBox="0 0 24 24" fill="none" xmlns="http://www.w3.org/2000/svg">
<path fill-rule="evenodd" clip-rule="evenodd" d="M7.88308 2.73549C8.96443 2.26968 10.406 2 11.9589 2C13.5118 2 14.9534 2.26968 16.0347 2.7355C16.5741 2.96785 17.0583 3.26382 17.4185 3.63064C17.7658 3.98434 18.0291 4.43957 18.0517 4.9768L20.2632 17.3445C20.4633 18.5453 20.1586 19.6807 19.3439 20.5972C18.5526 21.4874 17.4482 22 16.3167 22H7.68332C6.49726 22 5.37195 21.5069 4.63987 20.5788C3.83672 19.6637 3.53651 18.4522 3.73809 17.3373L5.86592 4.97955C5.88783 4.44112 6.15139 3.98494 6.49928 3.63063C6.85945 3.26382 7.34368 2.96785 7.88308 2.73549ZM7.05292 6.92552L5.80572 14.1689H18.1716L16.8752 6.91863C16.6203 7.08944 16.3361 7.23912 16.0347 7.36895C14.9534 7.83476 13.5118 8.10444 11.9589 8.10444C10.406 8.10444 8.96443 7.83476 7.88308 7.36895C7.58575 7.24087 7.30519 7.09346 7.05292 6.92552ZM18.4398 15.6689H5.54744L5.21459 17.6019C5.08997 18.2874 5.27787 19.0389 5.77721 19.6006C5.78811 19.6129 5.7986 19.6255 5.80867 19.6384C6.22814 20.1778 6.90431 20.5 7.68332 20.5H16.3167C16.994 20.5 17.6986 20.1904 18.2228 19.6006C18.7228 19.0381 18.9116 18.366 18.7842 17.5952L18.4398 15.6689ZM7.56959 4.68155C7.39214 4.86228 7.36444 4.98661 7.36444 5.05222C7.36444 5.11784 7.39214 5.24216 7.56959 5.42289C7.75031 5.60694 8.04876 5.80707 8.47651 5.99133C9.32946 6.35876 10.5601 6.60444 11.9589 6.60444C13.3577 6.60444 14.5883 6.35875 15.4413 5.99133C15.869 5.80707 16.1675 5.60695 16.3482 5.42289C16.5256 5.24217 16.5533 5.11784 16.5533 5.05222C16.5533 4.9866 16.5256 4.86228 16.3482 4.68155C16.1675 4.4975 15.869 4.29738 15.4413 4.11311C14.5883 3.74569 13.3577 3.5 11.9589 3.5C10.5601 3.5 9.32946 3.74569 8.47651 4.11311C8.04876 4.29738 7.75031 4.4975 7.56959 4.68155Z" fill="#1B1A16"/>
</svg>
