<svg width="24" height="24" viewBox="0 0 24 24" fill="none" xmlns="http://www.w3.org/2000/svg">
<path fill-rule="evenodd" clip-rule="evenodd" d="M7.75334 3.01532C8.86751 2.37321 10.3569 2 11.9614 2C13.5659 2 15.0554 2.37321 16.1695 3.01532C17.2362 3.63002 18.0891 4.58034 18.1313 5.78105L20.3419 17.2435L20.3453 17.2623C20.5433 18.4501 20.249 19.6714 19.4261 20.5972C18.628 21.495 17.5205 22 16.3166 22H7.68331C6.47941 22 5.37196 21.495 4.57387 20.5972C3.75095 19.6714 3.45667 18.4501 3.65463 17.2623L3.65691 17.2486L5.79294 5.74764C5.84964 4.56271 6.69663 3.62431 7.75334 3.01532ZM6.88089 8.10448L5.75464 14.1689H18.2213L17.0503 8.09692C16.7862 8.33744 16.4874 8.55041 16.1695 8.73357C15.0554 9.37568 13.5659 9.74889 11.9614 9.74889C10.3569 9.74889 8.86751 9.37568 7.75334 8.73357C7.43885 8.55233 7.14293 8.3419 6.88089 8.10448ZM18.5106 15.6689H5.47606L5.13316 17.5153C5.0044 18.2985 5.2037 19.0479 5.69499 19.6006C6.21245 20.1828 6.91389 20.5 7.68331 20.5H16.3166C17.0861 20.5 17.7875 20.1828 18.305 19.6006C18.7957 19.0485 18.9951 18.3 18.8672 17.5177L18.5106 15.6689ZM8.50233 4.31494C7.63426 4.81521 7.28991 5.39373 7.28991 5.87445C7.28991 6.35516 7.63426 6.93368 8.50233 7.43395C9.35036 7.92267 10.5717 8.24889 11.9614 8.24889C13.3512 8.24889 14.5725 7.92267 15.4206 7.43395C16.2886 6.93368 16.633 6.35516 16.633 5.87445C16.633 5.39373 16.2886 4.81521 15.4206 4.31494C14.5725 3.82622 13.3512 3.5 11.9614 3.5C10.5717 3.5 9.35036 3.82622 8.50233 4.31494ZM9.04025 5.87444C9.04025 5.28996 9.51407 4.81611 10.0986 4.81611C10.6831 4.81611 11.1569 5.28996 11.1569 5.87444C11.1569 6.45895 10.6831 6.93278 10.0986 6.93278C9.51408 6.93278 9.04025 6.45895 9.04025 5.87444ZM12.843 5.87444C12.843 5.28995 13.3169 4.81611 13.9014 4.81611C14.4859 4.81611 14.9597 5.28994 14.9597 5.87444C14.9597 6.45896 14.4858 6.93278 13.9014 6.93278C13.3169 6.93278 12.843 6.45896 12.843 5.87444Z" fill="#1B1A16"/>
</svg>
