<svg width="24" height="24" viewBox="0 0 24 24" fill="none" xmlns="http://www.w3.org/2000/svg">
<path fill-rule="evenodd" clip-rule="evenodd" d="M5.86146 11.3323C4.32905 12.3634 3.5 13.6998 3.5 15.0576C3.5 15.2477 3.51539 15.4364 3.54587 15.6231H20.4541C20.4846 15.4364 20.5 15.2477 20.5 15.0576C20.5 13.7059 19.6572 12.369 18.101 11.3347C16.5528 10.3057 14.3783 9.64092 11.9589 9.64092C9.5398 9.64092 7.38756 10.3055 5.86146 11.3323ZM19.8568 17.1231H4.14316C4.6176 17.8506 5.34798 18.5172 6.31246 19.0835C6.52921 19.1888 6.73909 19.2409 7.02556 19.2409H16.9744C17.2609 19.2409 17.4708 19.1888 17.6875 19.0835C18.652 18.5172 19.3824 17.8506 19.8568 17.1231ZM5.0241 10.0878C6.82799 8.87409 9.2802 8.14092 11.9589 8.14092C14.6372 8.14092 17.1083 8.87388 18.9313 10.0855C20.7461 11.2917 22 13.0381 22 15.0576C22 17.3112 20.5282 19.163 18.4212 20.3921C18.4073 20.4002 18.3932 20.4079 18.3787 20.4151C17.945 20.6319 17.5012 20.7409 16.9744 20.7409H7.02556C6.49877 20.7409 6.05495 20.6319 5.62125 20.4151C5.60684 20.4079 5.59267 20.4002 5.57876 20.3921C3.47183 19.163 2 17.3112 2 15.0576C2 13.0443 3.2265 11.2973 5.0241 10.0878Z" fill="#1B1A16"/>
<path fill-rule="evenodd" clip-rule="evenodd" d="M5.77707 4.31731C5.77707 3.73279 6.25092 3.25897 6.8354 3.25897C7.41986 3.25897 7.89375 3.73275 7.89375 4.31731C7.89375 4.90186 7.41986 5.37564 6.8354 5.37564C6.25092 5.37564 5.77707 4.90182 5.77707 4.31731ZM9.22013 4.31731C9.22013 3.73279 9.69398 3.25897 10.2785 3.25897C10.8632 3.25897 11.3368 3.73298 11.3368 4.31731C11.3368 4.90163 10.8632 5.37564 10.2785 5.37564C9.69398 5.37564 9.22013 4.90182 9.22013 4.31731ZM12.6632 4.31731C12.6632 3.73292 13.1369 3.25897 13.7216 3.25897C14.306 3.25897 14.7799 3.73279 14.7799 4.31731C14.7799 4.90182 14.306 5.37564 13.7216 5.37564C13.1369 5.37564 12.6632 4.90169 12.6632 4.31731ZM16.1063 4.31731C16.1063 3.73279 16.5801 3.25897 17.1646 3.25897C17.7491 3.25897 18.223 3.73278 18.223 4.31731C18.223 4.90183 17.7491 5.37564 17.1646 5.37564C16.5801 5.37564 16.1063 4.90182 16.1063 4.31731Z" fill="#1B1A16"/>
</svg>
