<svg width="24" height="24" viewBox="0 0 24 24" fill="none" xmlns="http://www.w3.org/2000/svg">
<path fill-rule="evenodd" clip-rule="evenodd" d="M4.92893 4.94859C6.8043 3.07322 9.34784 2.01965 12 2.01965C14.6522 2.01965 17.1957 3.07322 19.0711 4.94859C20.9464 6.82395 22 9.36749 22 12.0197C22 14.3538 21.304 16.7647 20.6308 18.5598C20.2917 19.4641 19.9527 20.227 19.6979 20.7648C19.5704 21.034 19.4637 21.2474 19.3882 21.3948C19.3505 21.4685 19.3205 21.5257 19.2997 21.5651L19.2753 21.6107L19.2686 21.6233L19.2666 21.6269L19.266 21.6281C19.2659 21.6282 19.2656 21.6288 18.6071 21.2697L19.266 21.6281C19.0676 21.9917 18.6116 22.1264 18.248 21.9281C17.8844 21.7298 17.7504 21.2743 17.9486 20.9107L17.9496 20.909L17.9541 20.9005L17.974 20.8632C17.9918 20.8295 18.0186 20.7784 18.0532 20.7109C18.1222 20.5761 18.222 20.3766 18.3423 20.1227C18.583 19.6144 18.9047 18.8906 19.2263 18.0331C19.8746 16.3044 20.5 14.0902 20.5 12.0197C20.5 9.76531 19.6045 7.6033 18.0104 6.00925C16.4163 4.41519 14.2543 3.51965 12 3.51965C9.74566 3.51965 7.58365 4.41519 5.98959 6.00925C4.39553 7.6033 3.5 9.76531 3.5 12.0197C3.5 14.0902 4.12541 16.3044 4.77368 18.0331C5.09525 18.8906 5.41695 19.6144 5.65771 20.1227C5.77799 20.3766 5.87777 20.5761 5.94683 20.7109C5.98135 20.7784 6.00818 20.8295 6.02602 20.8632L6.04587 20.9005L6.05044 20.909L6.05128 20.9105C6.24948 21.2741 6.11557 21.7298 5.752 21.9281C5.38836 22.1264 4.93278 21.9924 4.73444 21.6288L5.39262 21.2698C4.73444 21.6288 4.73452 21.629 4.73444 21.6288L4.73144 21.6233L4.72468 21.6107L4.70034 21.5651C4.67946 21.5257 4.64951 21.4685 4.61176 21.3948C4.5363 21.2474 4.4296 21.034 4.30211 20.7648C4.04734 20.227 3.70832 19.4641 3.36918 18.5598C2.69601 16.7647 2 14.3538 2 12.0197C2 9.36749 3.05357 6.82395 4.92893 4.94859ZM7.35996 14.9039C7.3331 14.8368 7.25689 14.8041 7.18974 14.831L6.37179 15.1582C6.30464 15.185 6.27198 15.2612 6.29884 15.3284L8.09829 19.8271C8.12514 19.8942 8.20135 19.9269 8.26851 19.9L9.08645 19.5729C9.1536 19.546 9.18626 19.4698 9.1594 19.4027L7.35996 14.9039ZM6.63266 13.4383C7.46899 13.1038 8.41816 13.5105 8.75268 14.3469L10.5521 18.8456C10.8866 19.6819 10.4799 20.6311 9.64353 20.9656L8.82558 21.2928C7.98925 21.6273 7.04009 21.2205 6.70557 20.3842L4.90612 15.8855C4.5716 15.0491 4.97839 14.1 5.81472 13.7655L6.63266 13.4383ZM15.2676 14.3469C15.6021 13.5105 16.5513 13.1038 17.3876 13.4383L18.2056 13.7655C19.0419 14.1 19.4487 15.0491 19.1142 15.8855L17.3147 20.3842C16.9802 21.2205 16.031 21.6273 15.1947 21.2928L14.3768 20.9656C13.5404 20.6311 13.1336 19.6819 13.4682 18.8456L15.2676 14.3469ZM16.8305 14.831C16.7634 14.8041 16.6872 14.8368 16.6603 14.9039L14.8609 19.4027C14.834 19.4698 14.8667 19.546 14.9338 19.5729L15.7518 19.9C15.8189 19.9269 15.8951 19.8942 15.922 19.8271L17.7214 15.3284C17.7483 15.2612 17.7156 15.185 17.6485 15.1582L16.8305 14.831Z" fill="#1B1A16"/>
</svg>
