<svg width="24" height="24" viewBox="0 0 24 24" fill="none" xmlns="http://www.w3.org/2000/svg">
<path fill-rule="evenodd" clip-rule="evenodd" d="M7.72242 5.2533C8.8569 4.11883 10.3956 3.48148 12 3.48148C13.6044 3.48148 15.1431 4.11883 16.2775 5.2533C17.2385 6.21427 17.8428 7.46527 18.0051 8.80055C17.7068 8.83767 17.4274 8.97309 17.2126 9.18792C16.9579 9.4426 16.8148 9.78802 16.8148 10.1482V16.321C16.8148 16.6812 16.9579 17.0266 17.2126 17.2813C17.437 17.5058 17.732 17.6435 18.0454 17.6731C18.0171 18.0885 17.8395 18.4814 17.5431 18.7777C17.219 19.1018 16.7794 19.2839 16.321 19.2839H15.0657C14.9673 19.0407 14.8205 18.8171 14.6313 18.628C14.2609 18.2576 13.7585 18.0494 13.2346 18.0494H12C11.4761 18.0494 10.9737 18.2576 10.6033 18.628C10.2328 18.9984 10.0247 19.5009 10.0247 20.0247C10.0247 20.5486 10.2328 21.0511 10.6033 21.4215C10.9737 21.7919 11.4761 22.0001 12 22.0001H13.2346C13.7585 22.0001 14.2609 21.7919 14.6313 21.4215C14.8205 21.2323 14.9674 21.0087 15.0658 20.7654H16.321C17.1723 20.7654 17.9887 20.4272 18.5907 19.8253C19.184 19.232 19.521 18.4304 19.5306 17.5925C20.105 17.4563 20.6357 17.1631 21.0599 16.7389C21.6618 16.1369 22 15.3205 22 14.4692V12C22 11.1487 21.6618 10.3323 21.0599 9.73031C20.6286 9.29904 20.0872 9.00316 19.5018 8.87004C19.3473 7.11494 18.5808 5.46145 17.3251 4.20574C15.9128 2.79343 13.9973 2 12 2C10.0027 2 8.08717 2.79343 6.67486 4.20574C5.41915 5.46145 4.65268 7.11495 4.49814 8.87005C3.91276 9.00318 3.37141 9.29905 2.94015 9.73031C2.33818 10.3323 2 11.1487 2 12V14.4692C2 15.3205 2.33818 16.1369 2.94015 16.7389C3.54212 17.3409 4.35856 17.6791 5.20988 17.6791H5.82716C6.18733 17.6791 6.53275 17.536 6.78743 17.2813C7.04211 17.0266 7.18518 16.6812 7.18518 16.321V10.1482C7.18518 9.78802 7.04211 9.4426 6.78743 9.18792C6.57259 8.97308 6.29318 8.83766 5.99482 8.80055C6.15718 7.46526 6.76145 6.21427 7.72242 5.2533ZM13.7284 20.0205L13.7284 20.0247L13.7284 20.0289C13.7273 20.1584 13.6754 20.2823 13.5838 20.3739C13.4912 20.4665 13.3656 20.5186 13.2346 20.5186H12C11.8691 20.5186 11.7435 20.4665 11.6508 20.3739C11.5582 20.2813 11.5062 20.1557 11.5062 20.0247C11.5062 19.8938 11.5582 19.7682 11.6508 19.6756C11.7435 19.5829 11.8691 19.5309 12 19.5309H13.2346C13.3656 19.5309 13.4912 19.5829 13.5838 19.6756C13.6754 19.7672 13.7273 19.8911 13.7284 20.0205ZM18.7901 16.1975L18.798 16.1976C19.2536 16.1955 19.69 16.0136 20.0123 15.6913C20.3364 15.3672 20.5185 14.9276 20.5185 14.4692V12C20.5185 11.5416 20.3364 11.102 20.0123 10.7779C19.6882 10.4537 19.2485 10.2716 18.7901 10.2716H18.2963V16.1976H18.7807L18.7901 16.1975ZM5.20988 10.2716C4.75148 10.2716 4.31185 10.4537 3.98772 10.7779C3.66358 11.102 3.48148 11.5416 3.48148 12V14.4692C3.48148 14.9276 3.66358 15.3672 3.98772 15.6913C4.31185 16.0155 4.75148 16.1976 5.20988 16.1976H5.7037V10.2716H5.20988Z" fill="#1B1A16"/>
</svg>
