<svg width="24" height="24" viewBox="0 0 24 24" fill="none" xmlns="http://www.w3.org/2000/svg">
<path fill-rule="evenodd" clip-rule="evenodd" d="M11.9724 3.5C11.0828 3.5 10.2023 3.68055 9.38445 4.03072C8.56658 4.38088 7.82827 4.89339 7.21424 5.5372C6.6002 6.18101 6.1232 6.94273 5.81212 7.77625C5.569 8.42768 5.43117 9.11236 5.40265 9.80465C5.66981 9.89361 5.92315 10.0263 6.15168 10.1997C6.69722 10.6137 7.05698 11.2265 7.15271 11.9044L7.63627 15.0598C7.73883 15.7411 7.56725 16.4352 7.1591 16.9902C6.75096 17.5452 6.13951 17.9158 5.45867 18.0209L5.44616 18.0228C4.77081 18.1155 4.08611 17.9386 3.54 17.5306C2.99389 17.1227 2.63017 16.5162 2.52743 15.8424L2.5271 15.8402L2.05186 12.661C1.99849 12.3246 2.01206 11.981 2.09179 11.6499C2.17185 11.3173 2.31706 11.0039 2.51902 10.7279C2.72097 10.4518 2.97565 10.2185 3.26834 10.0415C3.46702 9.92133 3.68054 9.82872 3.90301 9.76578C3.93593 8.90777 4.10554 8.05898 4.4068 7.25177C4.78885 6.2281 5.37466 5.29261 6.12878 4.50193C6.88289 3.71125 7.78962 3.08184 8.79407 2.65179C9.79852 2.22174 10.8798 2 11.9724 2C13.0651 2 14.1463 2.22174 15.1508 2.65179C16.1552 3.08184 17.062 3.71125 17.8161 4.50193C18.5702 5.29261 19.156 6.2281 19.5381 7.25177C19.8342 8.04536 20.0032 8.87914 20.0401 9.72236C20.2871 9.78558 20.5239 9.88522 20.7426 10.0184C21.0379 10.1983 21.294 10.4357 21.4957 10.7166C21.6974 10.9974 21.8405 11.316 21.9167 11.6533C21.9919 11.9865 22.0001 12.3314 21.941 12.6678L21.4696 15.8214C21.4346 16.1647 21.3312 16.4977 21.1655 16.8006C20.9962 17.1101 20.7654 17.3818 20.4872 17.5988C20.2091 17.8159 19.8895 17.9737 19.5481 18.0627C19.2067 18.1517 18.8507 18.17 18.502 18.1163C18.4801 18.1129 18.4583 18.1093 18.4366 18.1054C17.892 18.7534 17.2477 19.3126 16.5268 19.7615C15.742 20.2502 14.8797 20.5996 13.9783 20.7955C13.595 21.5114 12.8421 22 11.9724 22C10.7117 22 9.69659 20.9736 9.69659 19.716C9.69659 18.4584 10.7117 17.432 11.9724 17.432C13.0523 17.432 13.952 18.1852 14.1878 19.1917C14.7303 19.0256 15.2502 18.7894 15.734 18.4881C16.226 18.1818 16.6741 17.8123 17.0673 17.39C16.9556 17.2785 16.854 17.1567 16.7641 17.026C16.564 16.7354 16.4255 16.407 16.3571 16.0608C16.2902 15.7228 16.2916 15.3748 16.361 15.0374L16.8399 11.9127C16.8806 11.5747 16.9878 11.248 17.1555 10.9515C17.3257 10.6505 17.5547 10.3868 17.8288 10.1761C18.0449 10.0101 18.2855 9.87958 18.5416 9.78913C18.5116 9.10213 18.374 8.42281 18.1327 7.77625C17.8217 6.94273 17.3447 6.18101 16.7306 5.5372C16.1166 4.89339 15.3783 4.38088 14.5604 4.03072C13.7425 3.68055 12.8621 3.5 11.9724 3.5ZM19.182 11.1642C19.1642 11.1679 19.1465 11.172 19.129 11.1766C18.9889 11.213 18.8577 11.2772 18.7429 11.3654C18.6282 11.4536 18.5324 11.5639 18.4612 11.6899C18.39 11.8158 18.3448 11.9548 18.3284 12.0985C18.3273 12.108 18.326 12.1175 18.3246 12.1269L17.8406 15.2851C17.8383 15.3 17.8356 15.3149 17.8324 15.3296C17.8011 15.4746 17.7998 15.6244 17.8286 15.7699C17.8574 15.9153 17.9156 16.0534 17.9996 16.1755C18.0597 16.2628 18.1321 16.3406 18.2143 16.4067C18.3678 16.4047 18.5233 16.4497 18.6579 16.5455C18.6974 16.5736 18.7334 16.6048 18.7657 16.6386C18.9008 16.6549 19.0379 16.6456 19.1697 16.6112C19.3132 16.5738 19.4475 16.5075 19.5644 16.4163C19.6813 16.325 19.7783 16.2109 19.8495 16.0808C19.9207 15.9507 19.9645 15.8074 19.9782 15.6598C19.9795 15.646 19.9812 15.6322 19.9832 15.6185L20.459 12.4357C20.4601 12.4281 20.4614 12.4206 20.4627 12.4131C20.4885 12.2707 20.4853 12.1246 20.4535 11.9835C20.4216 11.8424 20.3617 11.7091 20.2773 11.5916C20.1929 11.474 20.0857 11.3747 19.9622 11.2994C19.8386 11.2241 19.7012 11.1745 19.558 11.1534C19.5348 11.15 19.5114 11.1473 19.4881 11.1454C19.4138 11.1657 19.3352 11.1749 19.2541 11.1711C19.2297 11.1699 19.2057 11.1676 19.182 11.1642ZM4.44106 11.1809C4.30078 11.2026 4.16609 11.2515 4.0446 11.325C3.92159 11.3994 3.81455 11.4975 3.72967 11.6135C3.64479 11.7295 3.58376 11.8612 3.55011 12.001C3.51646 12.1408 3.51085 12.2858 3.53362 12.4278L3.53488 12.4356L4.01029 15.6163C4.01024 15.6159 4.01034 15.6166 4.01029 15.6163C4.05386 15.9003 4.20745 16.1569 4.43772 16.3289C4.66655 16.4999 4.95301 16.5746 5.23605 16.5375C5.52218 16.4916 5.77891 16.3351 5.95069 16.1015C6.12356 15.8664 6.19632 15.5725 6.15311 15.284C6.15307 15.2837 6.15315 15.2843 6.15311 15.284L5.66771 12.1166C5.62781 11.8294 5.47581 11.5698 5.24489 11.3946C5.0154 11.2204 4.72661 11.1437 4.44106 11.1809ZM11.9724 18.932C11.5477 18.932 11.1966 19.2792 11.1966 19.716C11.1966 20.1528 11.5477 20.5 11.9724 20.5C12.397 20.5 12.7481 20.1528 12.7481 19.716C12.7481 19.2792 12.397 18.932 11.9724 18.932Z" fill="#1B1A16"/>
</svg>
