<svg width="24" height="24" viewBox="0 0 24 24" fill="none" xmlns="http://www.w3.org/2000/svg">
<path fill-rule="evenodd" clip-rule="evenodd" d="M8.34753 5.96661C8.12347 5.96632 7.90467 6.03451 7.72045 6.16204C7.53623 6.28957 7.39538 6.47036 7.31678 6.68017L6.29836 9.39993H17.6992L16.6808 6.68017C16.6022 6.47059 16.4616 6.28997 16.2777 6.16246C16.0938 6.03495 15.8753 5.96662 15.6515 5.96662C15.6515 5.96662 15.6515 5.96662 15.6515 5.96662M8.349 4.46662C7.81935 4.46602 7.30216 4.62725 6.86667 4.92873C6.43105 5.2303 6.09799 5.65779 5.91211 6.15394L4.92296 8.79556L4.51366 8.38627C4.37301 8.24562 4.18225 8.1666 3.98333 8.1666H2.75C2.33579 8.1666 2 8.50239 2 8.9166C2 9.33082 2.33579 9.6666 2.75 9.6666H3.67267L4.15601 10.1499L2.65545 11.6505C2.4733 11.8328 2.32562 12.0434 2.21702 12.2717C2.20518 12.2946 2.19447 12.3181 2.18498 12.3422C2.06429 12.6204 2.00019 12.9229 2 13.232L2 15.0833C2 15.6093 2.20896 16.1137 2.58091 16.4857C2.76921 16.674 2.99149 16.8205 3.23333 16.9193L3.23333 17.5499C3.23333 18.0759 3.44229 18.5804 3.81424 18.9523C4.18619 19.3243 4.69065 19.5332 5.21667 19.5332C5.74268 19.5332 6.24715 19.3243 6.61909 18.9523C6.99104 18.5804 7.2 18.0759 7.2 17.5499V17.0666H16.8V17.5499C16.8 18.0759 17.009 18.5804 17.3809 18.9523C17.7529 19.3243 18.2573 19.5332 18.7833 19.5332C19.3093 19.5332 19.8138 19.3243 20.1858 18.9523C20.5577 18.5804 20.7667 18.0759 20.7667 17.5499V16.9193C21.0085 16.8205 21.2308 16.674 21.4191 16.4857C21.791 16.1137 22 15.6093 22 15.0833V13.2324C21.9998 12.9234 21.9357 12.6206 21.8151 12.3424C21.8056 12.3182 21.7948 12.2945 21.7829 12.2715C21.6743 12.0433 21.5268 11.8329 21.3447 11.6507L19.844 10.1499L20.3273 9.6666H21.25C21.6642 9.6666 22 9.33082 22 8.9166C22 8.50239 21.6642 8.1666 21.25 8.1666H20.0167C19.8178 8.1666 19.627 8.24562 19.4863 8.38627L19.0753 8.79736L18.0855 6.15405C17.8998 5.65846 17.5672 5.23124 17.1323 4.92972C16.6974 4.6282 16.1807 4.46663 15.6515 4.46662H8.349ZM18.4727 10.8999H5.52733L4.56066 11.8666H5.93941C6.46506 11.8667 6.96932 12.0755 7.34113 12.447L8.21367 13.3196C8.50657 13.6125 8.50657 14.0874 8.21367 14.3803C7.92078 14.6731 7.44591 14.6731 7.15301 14.3803L6.28081 13.508C6.28075 13.508 6.28086 13.5081 6.28081 13.508C6.19025 13.4176 6.06737 13.3667 5.93941 13.3666C5.93936 13.3666 5.93946 13.3666 5.93941 13.3666H3.5V15.0833C3.5 15.2114 3.55092 15.3344 3.64156 15.425C3.73221 15.5157 3.85514 15.5666 3.98333 15.5666H20.0167C20.1449 15.5666 20.2678 15.5157 20.3584 15.425C20.4491 15.3344 20.5 15.2114 20.5 15.0833V13.3666H18.0608C18.0607 13.3666 18.0608 13.3666 18.0608 13.3666C17.9328 13.3667 17.8099 13.4175 17.7194 13.5079C17.7193 13.5079 17.7194 13.5078 17.7194 13.5079L16.847 14.3803C16.5541 14.6731 16.0792 14.6731 15.7863 14.3803C15.4934 14.0874 15.4934 13.6125 15.7863 13.3196L16.6587 12.4472C17.0305 12.0756 17.5348 11.8667 18.0604 11.8666H19.4393L18.4727 10.8999ZM4.73333 17.0666L5.7 17.0666V17.5499C5.7 17.6781 5.64908 17.801 5.55844 17.8917C5.46779 17.9823 5.34485 18.0332 5.21667 18.0332C5.08848 18.0332 4.96554 17.9823 4.8749 17.8917C4.78425 17.801 4.73333 17.6781 4.73333 17.5499V17.0666ZM19.2667 17.0666V17.5499C19.2667 17.6781 19.2157 17.801 19.1251 17.8917C19.0345 17.9823 18.9115 18.0332 18.7833 18.0332C18.6551 18.0332 18.5322 17.9823 18.4416 17.8917C18.3509 17.801 18.3 17.6781 18.3 17.5499V17.0666H19.2667Z" fill="#1B1A16"/>
</svg>
