<svg width="24" height="24" viewBox="0 0 24 24" fill="none" xmlns="http://www.w3.org/2000/svg">
<path fill-rule="evenodd" clip-rule="evenodd" d="M14.3211 5.69995C14.6894 5.69988 15.0505 5.80237 15.3638 5.99593C15.6772 6.18954 15.9305 6.4666 16.0953 6.79607L18.0136 10.6333H18.7833C19.6364 10.6333 20.4546 10.9722 21.0579 11.5754C21.6611 12.1787 22 12.9968 22 13.85V15.0833C22 15.6093 21.791 16.1138 21.4191 16.4857C21.0471 16.8577 20.5427 17.0666 20.0167 17.0666L19.386 17.0666C19.2873 17.3084 19.1407 17.5307 18.9524 17.719C18.5805 18.0909 18.076 18.2999 17.55 18.2999C17.024 18.2999 16.5195 18.0909 16.1476 17.719C15.9593 17.5307 15.8127 17.3084 15.7139 17.0665H9.51939C9.4206 17.3084 9.27407 17.5307 9.08576 17.719C8.71382 18.0909 8.20935 18.2999 7.68333 18.2999C7.15732 18.2999 6.65285 18.0909 6.2809 17.719C6.0926 17.5307 5.94607 17.3084 5.84728 17.0666L3.98336 17.0666C3.45734 17.0666 2.95285 16.8577 2.5809 16.4857C2.20896 16.1138 2 15.6093 2 15.0833V12.6166C2 12.0906 2.20896 11.5861 2.5809 11.2142C2.95285 10.8422 3.45732 10.6333 3.98333 10.6333H9.4V7.68328C9.4 7.15727 9.60896 6.6528 9.9809 6.28086C10.3529 5.90891 10.8573 5.69995 11.3833 5.69995H14.3211C14.3212 5.69995 14.3211 5.69995 14.3211 5.69995ZM10.9 10.6333H16.3366L14.7538 7.46707C14.7136 7.38678 14.6519 7.31926 14.5755 7.27208C14.4991 7.2249 14.4111 7.19992 14.3214 7.19995H11.3833C11.2551 7.19995 11.1322 7.25087 11.0416 7.34152C10.9509 7.43216 10.9 7.5551 10.9 7.68328V10.6333ZM5.84727 15.5666C5.94606 15.3247 6.09259 15.1024 6.2809 14.9141C6.65285 14.5422 7.15732 14.3332 7.68333 14.3332C8.20935 14.3332 8.71382 14.5422 9.08576 14.9141C9.27407 15.1024 9.4206 15.3247 9.51939 15.5665H15.7139C15.8127 15.3247 15.9593 15.1024 16.1476 14.9141C16.5195 14.5422 17.024 14.3332 17.55 14.3332C18.076 14.3332 18.5805 14.5422 18.9524 14.9141C19.1407 15.1024 19.2873 15.3247 19.3861 15.5666L20.0167 15.5666C20.0167 15.5666 20.0167 15.5666 20.0167 15.5666C20.1448 15.5666 20.2678 15.5157 20.3584 15.4251C20.4491 15.3344 20.5 15.2115 20.5 15.0833V13.85C20.5 13.3947 20.3191 12.958 19.9972 12.6361C19.6753 12.3141 19.2386 12.1333 18.7833 12.1333H3.98333C3.85514 12.1333 3.73221 12.1842 3.64157 12.2748C3.55092 12.3655 3.5 12.4884 3.5 12.6166V15.0833C3.5 15.2115 3.55092 15.3344 3.64157 15.4251C3.7322 15.5157 3.85514 15.5666 3.98332 15.5666C3.98331 15.5666 3.98332 15.5666 3.98332 15.5666L5.84727 15.5666ZM7.68333 15.8332C7.55515 15.8332 7.43221 15.8841 7.34157 15.9748C7.25092 16.0654 7.2 16.1884 7.2 16.3165C7.2 16.4447 7.25092 16.5677 7.34157 16.6583C7.43221 16.749 7.55515 16.7999 7.68333 16.7999C7.81152 16.7999 7.93446 16.749 8.0251 16.6583C8.11574 16.5677 8.16667 16.4447 8.16667 16.3165C8.16667 16.1884 8.11574 16.0654 8.0251 15.9748C7.93446 15.8841 7.81152 15.8332 7.68333 15.8332ZM17.55 15.8332C17.4218 15.8332 17.2989 15.8841 17.2082 15.9748C17.1176 16.0654 17.0667 16.1884 17.0667 16.3165C17.0667 16.4447 17.1176 16.5677 17.2082 16.6583C17.2989 16.749 17.4218 16.7999 17.55 16.7999C17.6782 16.7999 17.8011 16.749 17.8918 16.6583C17.9824 16.5677 18.0333 16.4447 18.0333 16.3165C18.0333 16.1884 17.9824 16.0654 17.8918 15.9748C17.8011 15.8841 17.6782 15.8332 17.55 15.8332Z" fill="#1B1A16"/>
</svg>
