<svg width="24" height="24" viewBox="0 0 24 24" fill="none" xmlns="http://www.w3.org/2000/svg">
<path d="M2.175 10.481C2.177 10.478 2.178 10.474 2.179 10.47C2.268 10.211 2.383 9.96104 2.537 9.72904L3.906 7.67204C4.185 7.25404 4.567 6.90904 5.008 6.67504C5.448 6.44004 5.945 6.31604 6.443 6.31604C6.446 6.31604 6.448 6.31604 6.451 6.31604H12.33C12.7 6.31604 13.06 6.41904 13.373 6.61204C13.665 6.79304 13.905 7.04604 14.069 7.34504L16.137 10.097L19.414 10.867C20.141 11.013 20.8 11.409 21.27 11.982C21.741 12.554 22 13.278 22 14.021V14.466C22 14.995 21.793 15.493 21.419 15.868C21.045 16.242 20.547 16.448 20.017 16.448H18.154C18.055 16.689 17.909 16.912 17.718 17.103C17.342 17.477 16.844 17.682 16.317 17.682C15.796 17.682 15.285 17.47 14.917 17.102C14.727 16.913 14.58 16.69 14.481 16.448H8.287C8.188 16.689 8.043 16.911 7.852 17.102C7.476 17.476 6.979 17.682 6.451 17.682C5.929 17.682 5.418 17.47 5.049 17.101C4.859 16.911 4.713 16.689 4.614 16.448H3.984C3.46 16.448 2.948 16.236 2.582 15.868C2.206 15.494 2 14.996 2 14.467V11.515C1.999 11.16 2.062 10.813 2.175 10.481ZM5.153 8.50504L4.147 10.017H5.7V8.00804C5.481 8.12704 5.292 8.29804 5.153 8.50504ZM8.783 10.017V7.81704H7.2V10.017H8.783ZM12.832 8.19904C12.805 8.16204 12.78 8.12304 12.76 8.08204C12.721 8.00304 12.66 7.93604 12.582 7.88904C12.506 7.84204 12.419 7.81704 12.329 7.81704H10.283V10.017H14.198L12.832 8.19904ZM20.358 14.809C20.45 14.717 20.5 14.596 20.5 14.467V14.022C20.5 13.626 20.362 13.24 20.11 12.934C19.859 12.628 19.507 12.417 19.095 12.334L15.614 11.517H10.283V14.95H14.483C14.582 14.707 14.728 14.484 14.914 14.3C15.654 13.557 16.971 13.554 17.72 14.299C17.907 14.486 18.052 14.708 18.151 14.95H20.017C20.146 14.949 20.268 14.899 20.358 14.809ZM15.976 16.042C16.157 16.223 16.479 16.222 16.659 16.043C16.75 15.951 16.8 15.83 16.8 15.701V15.699V15.697C16.8 15.57 16.748 15.447 16.66 15.359C16.568 15.267 16.446 15.216 16.316 15.216C16.189 15.216 16.066 15.267 15.973 15.36C15.884 15.448 15.833 15.572 15.833 15.699C15.834 15.829 15.884 15.95 15.976 16.042ZM6.108 16.042C6.288 16.222 6.613 16.221 6.791 16.043C6.883 15.95 6.934 15.828 6.934 15.699C6.934 15.572 6.882 15.448 6.792 15.358C6.7 15.267 6.579 15.216 6.45 15.216C6.322 15.216 6.198 15.267 6.107 15.359C6.017 15.448 5.966 15.572 5.966 15.699C5.967 15.829 6.018 15.95 6.108 16.042ZM3.643 14.81C3.732 14.899 3.856 14.95 3.984 14.95H4.617C4.716 14.708 4.861 14.485 5.048 14.3C5.788 13.556 7.108 13.553 7.854 14.299C8.041 14.486 8.186 14.708 8.286 14.95H8.785V11.517H3.5V14.467C3.5 14.596 3.551 14.717 3.643 14.81Z" fill="#1B1A16"/>
</svg>
