<svg width="24" height="24" viewBox="0 0 24 24" fill="none" xmlns="http://www.w3.org/2000/svg">
<path fill-rule="evenodd" clip-rule="evenodd" d="M6.8 9.75L10.7219 6.48178C10.9016 6.33202 11.1281 6.25 11.3621 6.25H19.1802C19.6569 6.25 20.0673 6.58646 20.1608 7.05388L20.7731 10.1157C20.9149 10.2883 21 10.5092 21 10.75V14.75C21 15.3023 20.5523 15.75 20 15.75H18.9499C18.7181 16.8907 17.7088 17.75 16.5 17.75C15.2912 17.75 14.2819 16.8907 14.0501 15.75H9.94992C9.71808 16.8907 8.70878 17.75 7.5 17.75C6.29122 17.75 5.28192 16.8907 5.05008 15.75H4C3.44772 15.75 3 15.3023 3 14.75V10.75C3 10.1977 3.44772 9.75 4 9.75H6.8ZM18.77 7.75L19.17 9.75H17.7L17.7 7.75H18.77ZM16.2 9.75L16.2 7.75H14.405L14.264 9.75H16.2ZM12.7603 9.75H9.14L11.54 7.75H12.9013L12.7603 9.75ZM4.5 11.25V14.25H5.20826C5.59427 13.3673 6.47549 12.75 7.5 12.75C8.52451 12.75 9.40573 13.3673 9.79174 14.25H14.2083C14.5943 13.3673 15.4755 12.75 16.5 12.75C17.5245 12.75 18.4057 13.3673 18.7917 14.25H19.5V11.25H4.5ZM8.5 15.25C8.5 14.7 8.05 14.25 7.5 14.25C6.95 14.25 6.5 14.7 6.5 15.25C6.5 15.8 6.95 16.25 7.5 16.25C8.05 16.25 8.5 15.8 8.5 15.25ZM17.5 15.25C17.5 14.7 17.05 14.25 16.5 14.25C15.95 14.25 15.5 14.7 15.5 15.25C15.5 15.8 15.95 16.25 16.5 16.25C17.05 16.25 17.5 15.8 17.5 15.25Z" fill="#1B1A16"/>
</svg>
