<svg width="24" height="24" viewBox="0 0 24 24" fill="none" xmlns="http://www.w3.org/2000/svg">
<path fill-rule="evenodd" clip-rule="evenodd" d="M12.6167 2.30847C12.2025 2.30847 11.8667 2.64426 11.8667 3.05847V4.77514H10.9V3.05847C10.9 2.64426 10.5642 2.30847 10.15 2.30847C9.73579 2.30847 9.4 2.64426 9.4 3.05847V4.77514H8.91667C8.50245 4.77514 8.16667 5.11093 8.16667 5.52514C8.16667 6.37826 8.50556 7.19643 9.10881 7.79967C9.53194 8.22281 10.0608 8.51588 10.6333 8.65317V12.3085C10.6333 12.7227 10.9691 13.0585 11.3833 13.0585C11.7975 13.0585 12.1333 12.7227 12.1333 12.3085V8.65317C12.7058 8.51588 13.2347 8.22281 13.6579 7.79967C14.2611 7.19643 14.6 6.37826 14.6 5.52514C14.6 5.11093 14.2642 4.77514 13.85 4.77514H13.3667V3.05847C13.3667 2.64426 13.0309 2.30847 12.6167 2.30847ZM12.9275 6.27514C12.8448 6.4455 12.7337 6.60256 12.5972 6.73901C12.2753 7.06095 11.8386 7.24182 11.3833 7.24182C10.928 7.24182 10.4914 7.06095 10.1695 6.73901C10.033 6.60256 9.9219 6.4455 9.83917 6.27514H12.9275ZM14.3209 10.3252C14.321 10.3252 14.3208 10.3252 14.3209 10.3252H13.85C13.4358 10.3252 13.1 10.6609 13.1 11.0752C13.1 11.4894 13.4358 11.8252 13.85 11.8252H14.3211C14.4109 11.8251 14.4991 11.8501 14.5755 11.8973C14.6518 11.9444 14.7135 12.0119 14.7537 12.0921L15.72 14.0252H6.43005L7.39622 12.0923C7.39625 12.0922 7.39619 12.0923 7.39622 12.0923C7.43638 12.0121 7.49816 11.9444 7.57449 11.8973C7.65086 11.8501 7.73887 11.8251 7.82864 11.8252H8.91667C9.33088 11.8252 9.66667 11.4894 9.66667 11.0752C9.66667 10.6609 9.33088 10.3252 8.91667 10.3252H7.82909C7.82917 10.3252 7.82902 10.3252 7.82909 10.3252C7.46078 10.3251 7.09951 10.4276 6.78616 10.6211C6.47276 10.8147 6.21946 11.0918 6.05467 11.4213L4.73496 14.0614C4.06013 14.1636 3.43066 14.4788 2.94214 14.9673C2.3389 15.5705 2 16.3887 2 17.2418V18.4752C2 19.0012 2.20896 19.5057 2.58091 19.8776C2.95285 20.2495 3.45732 20.4585 3.98334 20.4585L4.61394 20.4585C4.71273 20.7004 4.85926 20.9226 5.04757 21.1109C5.41952 21.4829 5.92399 21.6918 6.45 21.6918C6.97601 21.6918 7.48048 21.4829 7.85243 21.1109C8.04074 20.9226 8.18727 20.7004 8.28606 20.4585H14.4806C14.5794 20.7004 14.7259 20.9226 14.9142 21.1109C15.2862 21.4829 15.7907 21.6918 16.3167 21.6918C16.8427 21.6918 17.3471 21.4829 17.7191 21.1109C17.9074 20.9226 18.0539 20.7003 18.1527 20.4585L20.0167 20.4585C20.5427 20.4585 21.0471 20.2495 21.4191 19.8776C21.791 19.5057 22 19.0012 22 18.4752V17.2418C22 16.3887 21.6611 15.5705 21.0579 14.9673C20.4546 14.3641 19.6364 14.0252 18.7833 14.0252H17.3969L16.0954 11.4214C15.9306 11.092 15.6772 10.8147 15.3638 10.6211C15.0505 10.4276 14.6892 10.3251 14.3209 10.3252ZM18.1527 18.9585C18.0539 18.7167 17.9074 18.4944 17.7191 18.3061C17.3471 17.9341 16.8427 17.7252 16.3167 17.7252C15.7907 17.7252 15.2862 17.9341 14.9142 18.3061C14.7259 18.4944 14.5794 18.7167 14.4806 18.9585H8.28606C8.18727 18.7167 8.04074 18.4944 7.85243 18.3061C7.48048 17.9341 6.97601 17.7252 6.45 17.7252C5.92398 17.7252 5.41952 17.9341 5.04757 18.3061C4.85926 18.4944 4.71273 18.7167 4.61394 18.9585L3.98334 18.9585C3.85515 18.9585 3.73221 18.9076 3.64157 18.8169C3.55092 18.7263 3.5 18.6034 3.5 18.4752V17.2418C3.5 16.7865 3.68086 16.3499 4.0028 16.028C4.32474 15.706 4.76138 15.5252 5.21667 15.5252H18.7833C19.2386 15.5252 19.6753 15.706 19.9972 16.028C20.3191 16.3499 20.5 16.7865 20.5 17.2418V18.4752C20.5 18.6034 20.4491 18.7263 20.3584 18.8169C20.2678 18.9076 20.1449 18.9585 20.0167 18.9585L18.1527 18.9585ZM16.3167 19.2252C16.4449 19.2252 16.5678 19.2761 16.6584 19.3667C16.7491 19.4574 16.8 19.5803 16.8 19.7085C16.8 19.8367 16.7491 19.9596 16.6584 20.0503C16.5678 20.1409 16.4449 20.1918 16.3167 20.1918C16.1885 20.1918 16.0655 20.1409 15.9749 20.0503C15.8843 19.9596 15.8333 19.8367 15.8333 19.7085C15.8333 19.5803 15.8843 19.4574 15.9749 19.3667C16.0655 19.2761 16.1885 19.2252 16.3167 19.2252ZM6.45 19.2252C6.57819 19.2252 6.70112 19.2761 6.79177 19.3667C6.88241 19.4574 6.93333 19.5803 6.93333 19.7085C6.93333 19.8367 6.88241 19.9596 6.79177 20.0503C6.70113 20.1409 6.57819 20.1918 6.45 20.1918C6.32181 20.1918 6.19888 20.1409 6.10823 20.0503C6.01759 19.9596 5.96667 19.8367 5.96667 19.7085C5.96667 19.5803 6.01759 19.4574 6.10823 19.3667C6.19888 19.2761 6.32181 19.2252 6.45 19.2252Z" fill="#1B1A16"/>
</svg>
