<svg width="24" height="24" viewBox="0 0 24 24" fill="none" xmlns="http://www.w3.org/2000/svg">
<path fill-rule="evenodd" clip-rule="evenodd" d="M12.6931 6.74799C13.0166 6.48924 13.4885 6.54168 13.7473 6.86513L16.0108 9.69457L18.7613 9.69457C19.6202 9.69457 20.444 10.0358 21.0514 10.6432C21.6588 11.2506 22 12.0743 22 12.9333C22 13.7923 21.6588 14.6161 21.0514 15.2234C20.594 15.6808 20.014 15.9872 19.3886 16.1107C19.2898 16.3793 19.1334 16.626 18.9271 16.8323C18.5531 17.2063 18.0458 17.4164 17.5169 17.4164C16.988 17.4164 16.4807 17.2063 16.1067 16.8323C15.9162 16.6418 15.7683 16.4168 15.6689 16.172H9.40997C9.31061 16.4168 9.16267 16.6418 8.97223 16.8323C8.59821 17.2063 8.09094 17.4164 7.562 17.4164C7.03306 17.4164 6.52579 17.2063 6.15177 16.8323C5.96133 16.6418 5.81339 16.4168 5.71403 16.172L3.99401 16.172C3.71128 16.172 3.43158 16.1118 3.17388 15.9954C2.91618 15.8791 2.68616 15.7093 2.49907 15.4974C2.31198 15.2854 2.1721 15.036 2.08871 14.7659C2.00533 14.4957 1.98034 14.211 2.01539 13.9304C2.01539 13.9304 2.01539 13.9304 2.01539 13.9304L2.15393 12.8213C2.26213 11.9583 2.68166 11.1641 3.33367 10.5885C3.82503 10.1546 4.423 9.86724 5.06009 9.75178C5.11735 9.4999 5.21089 9.18662 5.37013 8.86631C5.56728 8.46977 5.87329 8.0466 6.34871 7.72405C6.82964 7.39776 7.43806 7.20583 8.18419 7.20583H8.80638C9.22059 7.20583 9.55638 7.54162 9.55638 7.95583V9.96878C11.3843 10.7746 13.1151 10.8224 14.5075 10.2166L12.576 7.80217C12.3172 7.47872 12.3697 7.00675 12.6931 6.74799ZM15.8696 11.1946C13.7507 12.4956 11.0521 12.406 8.47096 11.1154C8.21688 10.9883 8.05638 10.7286 8.05638 10.4446V8.70878C7.65 8.72795 7.37868 8.83791 7.19086 8.96534C6.97847 9.10943 6.82547 9.30844 6.71329 9.53408C6.59982 9.76232 6.53664 10.0012 6.49941 10.1963C6.48139 10.2907 6.47027 10.3699 6.46079 10.4374L6.45941 10.4472C6.45555 10.4748 6.44937 10.5189 6.44227 10.5564C6.43929 10.5721 6.42942 10.6242 6.40917 10.6827C6.40063 10.7074 6.37387 10.7831 6.31681 10.8665C6.2803 10.9198 6.08388 11.1944 5.69582 11.1946C5.19145 11.1948 4.70452 11.3791 4.32642 11.7129C3.94841 12.0467 3.70518 12.5069 3.64236 13.0072L3.50382 14.1163C3.49513 14.1859 3.50132 14.2565 3.52199 14.3235C3.54266 14.3905 3.57734 14.4523 3.62371 14.5048C3.67009 14.5574 3.7271 14.5994 3.79098 14.6283C3.8548 14.6571 3.924 14.672 3.99401 14.672C3.99394 14.672 3.99408 14.672 3.99401 14.672H5.71403C5.81339 14.4272 5.96133 14.2023 6.15177 14.0118C6.52579 13.6378 7.03306 13.4277 7.562 13.4277C8.09094 13.4277 8.59821 13.6378 8.97223 14.0118C9.16267 14.2023 9.31061 14.4272 9.40997 14.672H15.6689C15.7683 14.4272 15.9162 14.2023 16.1067 14.0118C16.4807 13.6378 16.988 13.4277 17.5169 13.4277C18.0458 13.4277 18.5531 13.6378 18.9271 14.0118C19.093 14.1777 19.2267 14.3698 19.3241 14.5784C19.5728 14.4933 19.8014 14.3522 19.9907 14.1628C20.3168 13.8367 20.5 13.3944 20.5 12.9333C20.5 12.4722 20.3168 12.0299 19.9907 11.7038C19.6647 11.3778 19.2224 11.1946 18.7613 11.1946L15.8696 11.1946ZM7.562 14.9277C7.43089 14.9277 7.30515 14.9798 7.21243 15.0725C7.11972 15.1652 7.06764 15.2909 7.06764 15.422C7.06764 15.5532 7.11972 15.6789 7.21243 15.7716C7.30515 15.8643 7.43089 15.9164 7.562 15.9164C7.69311 15.9164 7.81885 15.8643 7.91157 15.7716C8.00428 15.6789 8.05636 15.5532 8.05636 15.422C8.05636 15.2909 8.00428 15.1652 7.91157 15.0725C7.81885 14.9798 7.69311 14.9277 7.562 14.9277ZM17.5169 14.9277C17.3858 14.9277 17.26 14.9798 17.1673 15.0725C17.0746 15.1652 17.0225 15.2909 17.0225 15.422C17.0225 15.5532 17.0746 15.6789 17.1673 15.7716C17.26 15.8643 17.3858 15.9164 17.5169 15.9164C17.648 15.9164 17.7738 15.8643 17.8665 15.7716C17.9592 15.6789 18.0113 15.5532 18.0113 15.422C18.0113 15.2909 17.9592 15.1652 17.8665 15.0725C17.7738 14.9798 17.648 14.9277 17.5169 14.9277Z" fill="#1B1A16"/>
</svg>
