<svg width="24" height="24" viewBox="0 0 24 24" fill="none" xmlns="http://www.w3.org/2000/svg">
<path fill-rule="evenodd" clip-rule="evenodd" d="M6.30887 5.86865C6.75479 5.75749 7.21611 5.69995 7.68337 5.69995H10.4757C11.0729 5.69997 11.6585 5.86629 12.1665 6.18028C12.6746 6.49426 13.0853 6.94352 13.3525 7.47771L14.9303 10.6333H18.3595L18.0719 9.77052C17.941 9.37756 18.1533 8.95282 18.5463 8.82183C18.9392 8.69085 19.364 8.90321 19.495 9.29617L19.9684 10.7165C20.2033 10.7868 20.4247 10.9005 20.6205 11.0534C20.9691 11.3255 21.2167 11.7064 21.324 12.1354L21.9407 14.6021C21.9407 14.602 21.9407 14.6021 21.9407 14.6021C22.0138 14.8945 22.0194 15.1997 21.9569 15.4946C21.8944 15.7894 21.7655 16.0662 21.5801 16.3038C21.3946 16.5413 21.1575 16.7335 20.8866 16.8658C20.6157 16.998 20.3183 17.0667 20.0169 17.0667L16.9195 17.0667C16.8207 17.3086 16.6742 17.5309 16.4859 17.7192C16.1139 18.0911 15.6094 18.3001 15.0834 18.3001C14.5574 18.3001 14.0529 18.0911 13.681 17.7192C13.4927 17.5309 13.3461 17.3086 13.2474 17.0667H8.2861C8.18731 17.3086 8.04077 17.5309 7.85246 17.7192C7.48052 18.0911 6.97604 18.3001 6.45003 18.3001C5.92401 18.3001 5.41954 18.0911 5.04759 17.7192C4.85928 17.5309 4.71274 17.3086 4.61395 17.0667L3.98334 17.0667C3.98334 17.0667 3.98335 17.0667 3.98334 17.0667C3.45733 17.0667 2.95285 16.8578 2.58091 16.4858C2.20896 16.1139 2 15.6094 2 15.0834V11.3833C2 9.87601 2.59878 8.43042 3.66462 7.36458C4.37701 6.65218 5.25905 6.14844 6.21578 5.89269C6.24601 5.88276 6.27708 5.8747 6.30887 5.86865ZM5.70003 7.69998C5.3447 7.8913 5.01582 8.13469 4.72528 8.42524C4.11985 9.03066 3.71916 9.80256 3.56776 10.6333H5.70003V7.69998ZM7.20003 10.6333V7.22795C7.35968 7.20939 7.52104 7.19995 7.68337 7.19995H10.4756C10.4756 7.19995 10.4756 7.19995 10.4756 7.19995C10.7944 7.19997 11.1069 7.28873 11.378 7.45629C11.6491 7.62384 11.8683 7.86357 12.0109 8.14862C12.0109 8.14859 12.0109 8.14865 12.0109 8.14862L13.2532 10.6333H7.20003ZM6.44319 12.1333C6.44547 12.1334 6.44775 12.1334 6.45003 12.1334C6.45231 12.1334 6.45459 12.1334 6.45686 12.1333H19.4C19.4 12.1333 19.4001 12.1333 19.4 12.1333C19.5078 12.1334 19.6125 12.1694 19.6974 12.2357C19.7824 12.302 19.8427 12.3948 19.8689 12.4993C19.8688 12.4993 19.8689 12.4993 19.8689 12.4993L20.4855 14.966C20.5034 15.0372 20.5047 15.1117 20.4895 15.1836C20.4743 15.2554 20.4429 15.3229 20.3977 15.3808C20.3525 15.4387 20.2947 15.4855 20.2287 15.5177C20.1627 15.5499 20.0902 15.5667 20.0168 15.5667C20.0168 15.5667 20.0168 15.5667 20.0168 15.5667L16.9195 15.5667C16.8207 15.3249 16.6742 15.1026 16.4859 14.9143C16.1139 14.5424 15.6094 14.3334 15.0834 14.3334C14.5574 14.3334 14.0529 14.5424 13.681 14.9143C13.4927 15.1026 13.3461 15.3249 13.2474 15.5667H8.2861C8.18731 15.3249 8.04077 15.1026 7.85246 14.9143C7.48052 14.5424 6.97604 14.3334 6.45003 14.3334C5.92401 14.3334 5.41954 14.5424 5.04759 14.9143C4.85928 15.1026 4.71275 15.3249 4.61396 15.5667L3.98336 15.5667C3.85517 15.5667 3.73221 15.5158 3.64157 15.4251C3.55092 15.3345 3.5 15.2116 3.5 15.0834V12.1333H6.44319ZM6.45003 15.8334C6.32184 15.8334 6.1989 15.8843 6.10825 15.975C6.01761 16.0656 5.96668 16.1886 5.96668 16.3167C5.96668 16.4449 6.01761 16.5679 6.10825 16.6585C6.1989 16.7492 6.32184 16.8001 6.45003 16.8001C6.57822 16.8001 6.70116 16.7492 6.7918 16.6585C6.88245 16.5679 6.93337 16.4449 6.93337 16.3167C6.93337 16.1886 6.88245 16.0656 6.7918 15.975C6.70116 15.8843 6.57822 15.8334 6.45003 15.8334ZM15.0834 15.8334C14.9552 15.8334 14.8323 15.8843 14.7416 15.975C14.651 16.0656 14.6001 16.1886 14.6001 16.3167C14.6001 16.4449 14.651 16.5679 14.7416 16.6585C14.8323 16.7492 14.9552 16.8001 15.0834 16.8001C15.2116 16.8001 15.3346 16.7492 15.4252 16.6585C15.5158 16.5679 15.5668 16.4449 15.5668 16.3167C15.5668 16.1886 15.5158 16.0656 15.4252 15.975C15.3346 15.8843 15.2116 15.8334 15.0834 15.8334Z" fill="#1B1A16"/>
</svg>
