<svg width="24" height="24" viewBox="0 0 24 24" fill="none" xmlns="http://www.w3.org/2000/svg">
<path fill-rule="evenodd" clip-rule="evenodd" d="M11.9999 6.00848C12.4142 6.00848 12.7499 6.34427 12.7499 6.75848L12.7499 8.5388C13.6518 8.69301 14.491 9.12293 15.1466 9.77854C15.8198 10.4518 16.2551 11.3186 16.3982 12.2481L21.3328 12.7964C21.7444 12.8422 22.0411 13.213 21.9954 13.6247C21.9496 14.0363 21.5788 14.333 21.1671 14.2873L19.5333 14.1057V14.1725C19.7751 14.2712 19.9974 14.4178 20.1857 14.6061C20.5577 14.978 20.7666 15.4825 20.7666 16.0085C20.7666 16.5345 20.5576 17.039 20.1857 17.4109C19.8138 17.7829 19.3093 17.9919 18.7833 17.9919C18.2573 17.9919 17.7528 17.7829 17.3808 17.4109C17.0089 17.039 16.7999 16.5345 16.7999 16.0085C16.7999 15.4825 17.0089 14.978 17.3808 14.6061C17.5692 14.4178 17.7914 14.2712 18.0333 14.1725V13.939L16.372 13.7545C16.2066 14.6262 15.7829 15.4354 15.1466 16.0718C14.312 16.9063 13.1802 17.3752 11.9999 17.3752C10.8197 17.3752 9.68785 16.9063 8.85332 16.0718C8.21696 15.4354 7.79324 14.6262 7.62788 13.7545L5.96661 13.939V14.1725C6.20845 14.2712 6.43073 14.4178 6.61904 14.6061C6.99099 14.978 7.19994 15.4825 7.19994 16.0085C7.19994 16.5345 6.99099 17.039 6.61904 17.4109C6.24709 17.7829 5.74262 17.9919 5.21661 17.9919C4.6906 17.9919 4.18613 17.7829 3.81418 17.4109C3.44223 17.039 3.23328 16.5345 3.23328 16.0085C3.23328 15.4825 3.44223 14.978 3.81418 14.6061C4.00249 14.4178 4.22477 14.2712 4.46661 14.1725V14.1057L2.83277 14.2873C2.42109 14.333 2.05027 14.0363 2.00453 13.6247C1.95879 13.213 2.25544 12.8422 2.66712 12.7964L7.60173 12.2481C7.74481 11.3186 8.18006 10.4518 8.85332 9.77854C9.50893 9.12293 10.348 8.69301 11.2499 8.5388L11.2499 6.75848C11.2499 6.34427 11.5857 6.00848 11.9999 6.00848ZM11.9999 9.97516C11.2176 9.97516 10.4672 10.286 9.91398 10.8392C9.36075 11.3924 9.04994 12.1428 9.04994 12.9252C9.04994 13.7076 9.36075 14.4579 9.91398 15.0111C10.4672 15.5644 11.2176 15.8752 11.9999 15.8752C12.7823 15.8752 13.5327 15.5644 14.0859 15.0111C14.6391 14.4579 14.9499 13.7076 14.9499 12.9252C14.9499 12.1428 14.6391 11.3924 14.0859 10.8392C13.5327 10.286 12.7823 9.97516 11.9999 9.97516ZM10.0166 11.6918C10.0166 11.2776 10.3524 10.9418 10.7666 10.9418H13.2333C13.6475 10.9418 13.9833 11.2776 13.9833 11.6918C13.9833 12.106 13.6475 12.4418 13.2333 12.4418H10.7666C10.3524 12.4418 10.0166 12.106 10.0166 11.6918ZM5.21661 15.5252C5.08842 15.5252 4.96548 15.5761 4.87484 15.6667C4.7842 15.7574 4.73328 15.8803 4.73328 16.0085C4.73328 16.1367 4.7842 16.2596 4.87484 16.3503C4.96549 16.4409 5.08842 16.4919 5.21661 16.4919C5.3448 16.4919 5.46773 16.4409 5.55838 16.3503C5.64902 16.2596 5.69994 16.1367 5.69994 16.0085C5.69994 15.8803 5.64902 15.7574 5.55838 15.6667C5.46774 15.5761 5.3448 15.5252 5.21661 15.5252ZM18.7833 15.5252C18.6551 15.5252 18.5321 15.5761 18.4415 15.6667C18.3509 15.7574 18.2999 15.8803 18.2999 16.0085C18.2999 16.1367 18.3509 16.2596 18.4415 16.3503C18.5322 16.4409 18.6551 16.4919 18.7833 16.4919C18.9115 16.4919 19.0344 16.4409 19.125 16.3503C19.2157 16.2596 19.2666 16.1367 19.2666 16.0085C19.2666 15.8803 19.2157 15.7574 19.125 15.6667C19.0344 15.5761 18.9115 15.5252 18.7833 15.5252Z" fill="#1B1A16"/>
</svg>
