<svg width="24" height="24" viewBox="0 0 24 24" fill="none" xmlns="http://www.w3.org/2000/svg">
<path fill-rule="evenodd" clip-rule="evenodd" d="M22 3.74549C22 3.52808 21.9057 3.32137 21.7415 3.17892C21.5772 3.03647 21.3593 2.97229 21.1441 3.00302L18.5357 3.3754C18.2544 3.41556 18.02 3.61122 17.9302 3.88078L17.3563 5.603H9.39954C9.38389 5.603 9.36836 5.60347 9.35296 5.60442C9.32292 5.60076 9.29234 5.59888 9.26132 5.59888C8.22239 5.59888 7.226 6.01159 6.49136 6.74623C5.93603 7.30156 5.56466 8.00646 5.41645 8.76624H4.73303V5.16846C4.73303 4.75424 4.39725 4.41846 3.98303 4.41846C3.56882 4.41846 3.23303 4.75424 3.23303 5.16846V8.76624H2.75C2.33579 8.76624 2 9.10202 2 9.51624C2 9.93045 2.33579 10.2662 2.75 10.2662H3.23303V13.864C3.23303 14.2782 3.56882 14.614 3.98303 14.614C4.39725 14.614 4.73303 14.2782 4.73303 13.864V10.2662H5.37888C5.41767 10.5245 5.48361 10.7787 5.57607 11.0246C5.76295 11.5215 6.05384 11.9728 6.42926 12.3483C6.80468 12.7237 7.25598 13.0146 7.75293 13.2014C8.24894 13.388 8.77902 13.4666 9.30779 13.4321C9.33786 13.4357 9.36848 13.4376 9.39954 13.4376H12.1206C12.3961 13.4376 12.6714 13.4288 12.9463 13.4114L13.3448 14.209C13.6425 14.8031 14.0997 15.3026 14.6652 15.6516C15.2306 16.0005 15.8819 16.1851 16.5463 16.1849C17.0034 16.1851 17.4524 16.064 17.8474 15.8339C18.2425 15.6037 18.5694 15.2727 18.7946 14.8749C19.0199 14.477 19.1355 14.0264 19.1296 13.5692C19.1237 13.112 18.9964 12.6645 18.761 12.2726L17.4354 10.0619C17.2999 9.83587 17.0557 9.69757 16.7922 9.69757H12.3038C12.0439 9.69757 11.8026 9.83212 11.6659 10.0532C11.5292 10.2742 11.5168 10.5503 11.6329 10.7828L12.2097 11.9373C12.18 11.9375 12.1502 11.9376 12.1204 11.9376H10.1495V7.103H17.897C18.2198 7.103 18.5064 6.89638 18.6085 6.59009L19.2067 4.79482L20.5 4.61017V9.83557C20.3648 9.93742 20.1507 10.0685 19.8714 10.2142C19.5042 10.4059 19.3619 10.8589 19.5535 11.2261C19.7451 11.5933 20.1982 11.7357 20.5654 11.544C20.8836 11.378 21.1831 11.2005 21.4136 11.0253C21.527 10.9391 21.6485 10.8351 21.7488 10.7152C21.8294 10.6188 22 10.3924 22 10.0752V3.74549ZM6.84174 9.57561C6.82244 9.88889 6.86957 10.2027 6.98007 10.4966C7.09175 10.7936 7.26558 11.0632 7.48992 11.2876C7.71427 11.5119 7.98395 11.6858 8.28092 11.7974C8.40092 11.8426 8.52426 11.8771 8.64954 11.9009V7.17757C8.23782 7.28529 7.85811 7.50081 7.55202 7.80689C7.10044 8.25848 6.84597 8.87034 6.84402 9.50878C6.84404 9.51126 6.84406 9.51375 6.84406 9.51624C6.84406 9.53622 6.84327 9.55602 6.84174 9.57561ZM13.517 11.1976L14.6858 13.537C14.8588 13.882 15.1245 14.1724 15.4529 14.3751C15.7815 14.5778 16.16 14.6851 16.546 14.6849C16.7376 14.685 16.9267 14.6342 17.0923 14.5378C17.2579 14.4413 17.3949 14.3026 17.4893 14.1358C17.5838 13.969 17.6322 13.7802 17.6297 13.5886C17.6273 13.3969 17.5739 13.2094 17.4752 13.0451L16.3674 11.1976H13.517Z" fill="#1B1A16"/>
<path d="M12.418 14.8715C12.8322 14.8715 13.168 15.2073 13.168 15.6215V19.5045H17.0419C17.4561 19.5045 17.7919 19.8403 17.7919 20.2545C17.7919 20.6687 17.4561 21.0045 17.0419 21.0045H12.4228L12.418 21.0045L12.4131 21.0045H7.79395C7.37973 21.0045 7.04395 20.6687 7.04395 20.2545C7.04395 19.8403 7.37973 19.5045 7.79395 19.5045H11.668V15.6215C11.668 15.2073 12.0038 14.8715 12.418 14.8715Z" fill="#1B1A16"/>
</svg>
