<svg width="24" height="24" viewBox="0 0 24 24" fill="none" xmlns="http://www.w3.org/2000/svg">
<path fill-rule="evenodd" clip-rule="evenodd" d="M2 3.75C2 3.33579 2.33579 3 2.75 3H5.25C5.51867 3 5.76682 3.14371 5.90053 3.37675L7.43436 6.05H19.05C20.6792 6.05 22 7.37076 22 9C22 10.6292 20.6792 11.95 19.05 11.95H15.2584L10.9315 15.3328C10.0452 16.0257 8.75 15.3943 8.75 14.2693V11.95H6.5C4.01472 11.95 2 9.93528 2 7.45V3.75ZM3.5 4.5V7.45C3.5 9.10685 4.84315 10.45 6.5 10.45H9.5C9.91421 10.45 10.25 10.7858 10.25 11.2V13.9616L14.5381 10.6091C14.67 10.506 14.8326 10.45 15 10.45H19.05C19.8508 10.45 20.5 9.80081 20.5 9C20.5 8.19919 19.8508 7.55 19.05 7.55H7C6.73133 7.55 6.48318 7.40629 6.34947 7.17325L4.81564 4.5H3.5ZM18.155 16.2C17.3691 16.2 16.7042 16.7262 16.4969 17.4471C16.4236 17.7021 16.221 17.8993 15.9642 17.9659C15.7074 18.0324 15.4345 17.9583 15.2466 17.771C15.0468 17.5718 14.7734 17.45 14.47 17.45C13.8625 17.45 13.37 17.9425 13.37 18.55C13.37 19.1575 13.8625 19.65 14.47 19.65H18.155C19.1077 19.65 19.88 18.8777 19.88 17.925C19.88 16.9723 19.1077 16.2 18.155 16.2ZM15.4642 16.1471C16.0412 15.2753 17.0304 14.7 18.155 14.7C19.9362 14.7 21.38 16.1439 21.38 17.925C21.38 19.7061 19.9362 21.15 18.155 21.15H14.47C13.0341 21.15 11.87 19.986 11.87 18.55C11.87 17.1141 13.0341 15.95 14.47 15.95C14.8219 15.95 15.1579 16.0202 15.4642 16.1471Z" fill="#1B1A16"/>
</svg>
