<svg width="24" height="24" viewBox="0 0 24 24" fill="none" xmlns="http://www.w3.org/2000/svg">
<path fill-rule="evenodd" clip-rule="evenodd" d="M7.06252 3.5C6.77036 3.5 6.49017 3.61606 6.28358 3.82265C6.077 4.02923 5.96094 4.30942 5.96094 4.60158C5.96094 4.89374 6.077 5.17393 6.28358 5.38052C6.49017 5.5871 6.77036 5.70316 7.06252 5.70316H16.9376C17.2298 5.70316 17.51 5.5871 17.7166 5.38052C17.9231 5.17393 18.0392 4.89374 18.0392 4.60158C18.0392 4.30942 17.9231 4.02923 17.7166 3.82265C17.51 3.61606 17.2298 3.5 16.9376 3.5H7.06252ZM12.75 7.20316H16.9376C17.6276 7.20316 18.2893 6.92907 18.7772 6.44118C19.2651 5.95329 19.5392 5.29156 19.5392 4.60158C19.5392 3.9116 19.2651 3.24988 18.7772 2.76199C18.2893 2.27409 17.6276 2 16.9376 2H7.06252C6.37254 2 5.71081 2.27409 5.22292 2.76199C4.73503 3.24988 4.46094 3.9116 4.46094 4.60158C4.46094 5.29156 4.73503 5.95329 5.22292 6.44118C5.71081 6.92907 6.37254 7.20316 7.06252 7.20316H11.25L11.25 9.30139L10.1878 9.90838C9.82813 10.1139 9.70318 10.572 9.90869 10.9317C10.1142 11.2913 10.5723 11.4162 10.932 11.2107L11.25 11.029L11.25 11.7784L10.1878 12.3854C9.82813 12.5909 9.70318 13.049 9.90869 13.4087C10.1142 13.7683 10.5723 13.8932 10.932 13.6877L11.25 13.506L11.25 14.99C10.1495 15.1084 9.09282 15.5061 8.18287 16.1508C7.06583 16.9423 6.22671 18.0657 5.78477 19.3614C5.77997 19.3755 5.77559 19.3897 5.77164 19.404C5.68687 19.7113 5.6749 20.034 5.73667 20.3467C5.79844 20.6594 5.93225 20.9533 6.12749 21.2052C6.32272 21.4571 6.57399 21.6601 6.86136 21.7979C7.14324 21.9331 7.45223 22.002 7.76468 21.9995C8.18082 22.0089 8.59015 21.8915 8.93813 21.6626C9.2912 21.4303 9.56386 21.0946 9.71879 20.7014C9.7227 20.6914 9.7264 20.6814 9.72988 20.6714C9.89304 20.1991 10.1994 19.7896 10.6063 19.4997C11.0132 19.2097 11.5004 19.0539 12 19.0539C12.4996 19.0539 12.9868 19.2097 13.3937 19.4997C13.8006 19.7896 14.1069 20.1991 14.2701 20.6714C14.2715 20.6754 14.273 20.6795 14.2744 20.6836C14.2766 20.6895 14.2789 20.6955 14.2812 20.7014C14.4361 21.0946 14.7088 21.4303 15.0618 21.6626C15.4149 21.8949 15.8311 22.0123 16.2536 21.999C16.3369 21.9963 16.4166 21.9802 16.4908 21.9527C16.715 21.9264 16.934 21.8631 17.1386 21.765C17.426 21.6272 17.6773 21.4242 17.8725 21.1723C18.0677 20.9204 18.2015 20.6264 18.2633 20.3138C18.3251 20.0011 18.3131 19.6783 18.2283 19.3711C18.224 19.3553 18.2191 19.3397 18.2137 19.3242C17.7655 18.0355 16.9237 16.9201 15.8072 16.1357C14.8987 15.4975 13.8458 15.1047 12.75 14.9886L12.75 12.6489L13.8122 12.0419C14.1719 11.8364 14.2968 11.3782 14.0913 11.0186C13.8858 10.659 13.4276 10.534 13.068 10.7395L12.75 10.9212L12.75 10.1719L13.8122 9.56489C14.1719 9.35938 14.2968 8.90124 14.0913 8.54161C13.8858 8.18197 13.4276 8.05702 13.068 8.26253L12.75 8.44425L12.75 7.20316ZM16.0625 20.4853C16.1211 20.4719 16.1815 20.4655 16.2426 20.4665C16.3281 20.468 16.4128 20.4495 16.4899 20.4125C16.567 20.3755 16.6345 20.3211 16.6869 20.2535C16.7393 20.1858 16.7752 20.107 16.7918 20.023C16.807 19.9457 16.8055 19.8661 16.7874 19.7896C16.4401 18.8094 15.7962 17.9612 14.9449 17.3631C14.0856 16.7595 13.0584 16.441 12.0084 16.4528L11.993 16.4528C10.9395 16.4431 9.90972 16.7657 9.05004 17.3748C8.19753 17.9788 7.55534 18.8341 7.21302 19.8207C7.1945 19.8978 7.19283 19.9781 7.20822 20.056C7.2248 20.1399 7.26071 20.2188 7.31311 20.2864C7.3655 20.354 7.43294 20.4084 7.51006 20.4454C7.58718 20.4824 7.67186 20.5009 7.75738 20.4995C7.76955 20.4993 7.78172 20.4993 7.79389 20.4997C7.90725 20.5033 8.01896 20.4718 8.11371 20.4094C8.20517 20.3493 8.27653 20.2632 8.31877 20.1624C8.58545 19.4033 9.08037 18.7451 9.7359 18.278C10.3969 17.807 11.1884 17.5539 12 17.5539C12.8116 17.5539 13.6031 17.807 14.2641 18.278C14.9196 18.7451 15.4145 19.4033 15.6812 20.1624C15.7235 20.2632 15.7948 20.3493 15.8863 20.4094C15.9404 20.4451 16.0001 20.4706 16.0625 20.4853Z" fill="#1B1A16"/>
</svg>
