<svg width="24" height="24" viewBox="0 0 24 24" fill="none" xmlns="http://www.w3.org/2000/svg">
<path fill-rule="evenodd" clip-rule="evenodd" d="M11.9999 1.94995C11.2498 1.94995 10.5084 2.11629 9.83741 2.43752C9.16627 2.75883 8.58233 3.22719 8.13829 3.8079C7.69399 4.38897 7.40343 5.06492 7.2961 5.77975C7.18874 6.49478 7.26871 7.22249 7.52757 7.90027C7.59929 8.08803 7.74109 8.23461 7.91638 8.3148V11.9367C7.91622 11.9457 7.91622 11.9547 7.91638 11.9638V15.0202C7.91622 15.0292 7.91622 15.0382 7.91638 15.0473V17.9832H7.33301C6.91879 17.9832 6.58301 18.3189 6.58301 18.7332V20.3777C6.58301 20.8144 6.77108 21.2201 7.08409 21.5097C7.39513 21.7974 7.80532 21.9499 8.22194 21.9499H15.7778C16.1945 21.9499 16.6046 21.7974 16.9157 21.5097C17.2287 21.2201 17.4168 20.8144 17.4168 20.3777V18.7332C17.4168 18.3189 17.081 17.9832 16.6668 17.9832H16.0834V8.31486C16.2587 8.23469 16.4006 8.08809 16.4723 7.90027C16.7312 7.22249 16.8111 6.49478 16.7038 5.77975C16.5965 5.06492 16.3059 4.38897 15.8616 3.8079C15.4176 3.22719 14.8336 2.75883 14.1625 2.43752C13.4915 2.11629 12.7501 1.94995 11.9999 1.94995ZM10.4851 3.79047C10.9507 3.56759 11.4704 3.44995 11.9999 3.44995C12.5295 3.44995 13.0492 3.56759 13.5148 3.79047C13.9802 4.01328 14.3751 4.33329 14.67 4.71902C14.9647 5.10441 15.1517 5.54479 15.2204 6.00247C15.2644 6.29536 15.2594 6.59206 15.2063 6.88267H8.79361C8.74043 6.59206 8.7355 6.29536 8.77947 6.00247C8.84819 5.54479 9.03519 5.10441 9.32987 4.71902C9.62482 4.33329 10.0197 4.01328 10.4851 3.79047ZM14.5834 12.0953V13.3918L9.41638 16.7374V15.4409L14.5834 12.0953ZM14.5834 15.1787L10.2522 17.9832H14.5834V15.1787ZM14.5834 10.3083V9.01175L9.41638 12.3574V13.6539L14.5834 10.3083ZM9.41638 10.5704L12.7951 8.38269H9.41638V10.5704ZM8.65837 19.4832L8.66638 19.4832H15.3334L15.3414 19.4832H15.9168V20.3777C15.9168 20.3777 15.9166 20.3812 15.9146 20.3858C15.9125 20.3905 15.9077 20.3988 15.8971 20.4085C15.8748 20.4292 15.8327 20.4499 15.7778 20.4499H8.22194C8.16704 20.4499 8.12502 20.4292 8.10265 20.4085C8.09212 20.3988 8.08728 20.3905 8.08518 20.3858C8.08313 20.3812 8.08301 20.3777 8.08301 20.3777V19.4832H8.65837Z" fill="#1B1A16"/>
</svg>
