<svg width="24" height="24" viewBox="0 0 24 24" fill="none" xmlns="http://www.w3.org/2000/svg">
<path fill-rule="evenodd" clip-rule="evenodd" d="M7.23141 16.7124C7.83466 17.3221 8.58738 18.0324 9.3463 18.6153C9.76723 18.9386 10.2065 19.2355 10.636 19.4546C11.0534 19.6674 11.5268 19.841 11.9993 19.8411C12.5909 19.8418 13.1728 19.6909 13.6895 19.4029C13.9146 19.2774 14.1241 19.1277 14.3145 18.9571C14.505 19.1269 14.7143 19.2759 14.9391 19.4009C15.4556 19.688 16.0368 19.8387 16.6278 19.8387C17.2188 19.8387 17.8 19.688 18.3165 19.4009C18.5413 19.2759 18.7506 19.1269 18.9411 18.9571C19.1298 19.1262 19.3373 19.2748 19.5602 19.3996C20.0744 19.6875 20.6536 19.8395 21.243 19.8411C21.6572 19.8422 21.9939 19.5074 21.995 19.0932C21.9961 18.6789 21.6612 18.3422 21.247 18.3411C20.9129 18.3402 20.5846 18.2541 20.2931 18.0908C20.0016 17.9276 19.7565 17.6926 19.5812 17.4082C19.4448 17.1872 19.2038 17.0523 18.9441 17.0519C18.6844 17.0514 18.4429 17.1854 18.3058 17.406C18.1285 17.6913 17.8813 17.9267 17.5877 18.0899C17.2941 18.2531 16.9637 18.3387 16.6278 18.3387C16.2919 18.3387 15.9615 18.2531 15.6679 18.0899C15.3743 17.9267 15.1272 17.6913 14.9498 17.406C14.8127 17.1854 14.5712 17.0514 14.3115 17.0519C14.0518 17.0523 13.8108 17.1872 13.6744 17.4082C13.4984 17.6937 13.2521 17.9294 12.9592 18.0927C12.6662 18.256 12.3363 18.3415 12.0008 18.3411C11.8733 18.3411 11.6481 18.287 11.3175 18.1183C10.9989 17.9559 10.6399 17.7175 10.26 17.4257C9.50095 16.8427 8.724 16.0974 8.1137 15.4698C7.93517 15.2859 7.70842 15.156 7.45945 15.0951C7.21049 15.0342 6.94939 15.0447 6.70612 15.1254C6.46284 15.2061 6.24725 15.3537 6.08407 15.5514C5.92089 15.749 5.81672 15.9887 5.78353 16.2428L5.78154 16.2595C5.74629 16.5863 5.66902 16.8174 5.57476 16.9498C5.53324 17.0081 5.49286 17.0413 5.45233 17.0624C5.41403 17.0823 5.3485 17.1055 5.23588 17.1076C4.84361 17.0849 4.46658 16.947 4.152 16.7111C3.83225 16.4713 3.59171 16.1411 3.46142 15.7633C3.3264 15.3717 2.89949 15.1637 2.5079 15.2988C2.11632 15.4338 1.90833 15.8607 2.04336 16.2523C2.2714 16.9136 2.69239 17.4914 3.252 17.9111C3.81162 18.3308 4.48417 18.5732 5.18288 18.6069C5.19493 18.6075 5.20699 18.6078 5.21906 18.6078C5.92346 18.6078 6.45604 18.2984 6.79682 17.8196C7.04035 17.4775 7.16594 17.0787 7.23141 16.7124Z" fill="#1B1A16"/>
<path fill-rule="evenodd" clip-rule="evenodd" d="M3.84001 4.15869C3.5981 4.15832 3.36044 4.2222 3.15131 4.34381C2.94188 4.4656 2.76861 4.6409 2.64927 4.85174C2.52994 5.06257 2.46882 5.30135 2.4722 5.5436C2.47558 5.78547 2.54313 6.0221 2.66793 6.22929L2.66851 6.23025L3.92584 8.32555L4.80199 10.5159L2.60279 10.9557C2.19662 11.037 1.93321 11.4321 2.01444 11.8383C2.09567 12.2444 2.49079 12.5078 2.89696 12.4266L5.96517 11.813C5.97471 11.8113 5.98425 11.8094 5.99377 11.8073L19.8227 9.04148L17.9275 12.516C17.6507 13.0234 17.2717 13.468 16.8145 13.8216C16.3573 14.1753 15.8318 14.4303 15.2711 14.5707L12.4345 15.2803C12.0327 15.3808 11.7884 15.788 11.889 16.1898C11.9895 16.5917 12.3967 16.8359 12.7985 16.7354L15.6352 16.0258C16.397 15.8351 17.1111 15.4886 17.7322 15.0081C18.3534 14.5277 18.8682 13.9237 19.2443 13.2343L21.9083 8.35033C22.0478 8.09461 22.0266 7.78126 21.8539 7.54665C21.6813 7.31205 21.3884 7.19863 21.1028 7.25575L16.9509 8.08613L12.9519 6.08701C12.813 6.01758 12.656 5.99297 12.5025 6.01658L9.07814 6.5434L6.30164 4.32296C6.16868 4.21662 6.00348 4.15869 5.83322 4.15869H3.84001ZM9.00533 8.07225C8.98945 8.07522 8.97349 8.07767 8.95746 8.07962L5.64676 8.58895L6.29787 10.2167L14.5549 8.56533L12.4947 7.53543L9.00533 8.07225ZM4.98375 7.17331L7.06394 6.85328L5.57021 5.65869H4.07487L4.98375 7.17331Z" fill="#1B1A16"/>
</svg>
