<svg width="24" height="24" viewBox="0 0 24 24" fill="none" xmlns="http://www.w3.org/2000/svg">
<path fill-rule="evenodd" clip-rule="evenodd" d="M8.83184 2.49756C8.9385 2.19916 9.22119 2 9.53808 2C10.39 2 11.207 2.33842 11.8094 2.9408C12.4118 3.54319 12.7502 4.3602 12.7502 5.2121V16.7726H19.6212C19.8539 16.7726 20.0827 16.8321 20.286 16.9454C20.4892 17.0587 20.6602 17.222 20.7825 17.4199C20.9049 17.6178 20.9747 17.8437 20.9853 18.0761C20.9959 18.3086 20.9468 18.5399 20.8429 18.7481L19.9981 20.4383C20.3741 20.5072 20.7595 20.5186 21.141 20.4714C21.552 20.4206 21.9265 20.7126 21.9774 21.1236C22.0283 21.5347 21.7363 21.9092 21.3252 21.9601C20.5459 22.0565 19.755 21.9777 19.0101 21.7294C18.9388 21.7056 18.868 21.6804 18.7979 21.6536C18.7262 21.6416 18.6551 21.6188 18.5866 21.5846C18.5493 21.566 18.5143 21.5446 18.4816 21.521C18.1596 21.3735 17.8534 21.194 17.5677 20.9853C17.2693 21.2237 16.941 21.4236 16.5902 21.5795C16.0172 21.8341 15.3971 21.9657 14.7701 21.9657C14.143 21.9657 13.5229 21.8341 12.9499 21.5795C12.61 21.4284 12.2911 21.236 12.0002 21.0073C11.7093 21.236 11.3904 21.4284 11.0505 21.5795C10.4774 21.8341 9.85737 21.9657 9.23031 21.9657C8.60326 21.9657 7.98319 21.8341 7.41017 21.5795C7.0594 21.4236 6.73104 21.2237 6.4327 20.9853C6.14687 21.194 5.84065 21.3736 5.51863 21.521C5.48595 21.5447 5.45093 21.566 5.41368 21.5846C5.34529 21.6188 5.27417 21.6415 5.20251 21.6536C5.13238 21.6803 5.06162 21.7056 4.99026 21.7294C4.24536 21.9777 3.45441 22.0565 2.67517 21.9601C2.26409 21.9092 1.97209 21.5347 2.02297 21.1236C2.07385 20.7126 2.44833 20.4206 2.85941 20.4714C3.24085 20.5186 3.62621 20.5072 4.00225 20.4383L3.15756 18.7484C3.05363 18.5402 3.00446 18.3086 3.01502 18.0761C3.02558 17.8437 3.09537 17.6178 3.21776 17.4199C3.34015 17.222 3.51108 17.0586 3.71433 16.9454C3.91758 16.8321 4.14641 16.7726 4.37909 16.7726H11.2502V15.195H3.99834C3.68924 15.195 3.4118 15.0053 3.29954 14.7173C3.18729 14.4293 3.26323 14.102 3.4908 13.8928C4.59733 12.8757 5.61135 10.9848 6.52578 8.79533C7.19907 7.18321 7.78715 5.49076 8.31133 3.9822C8.49214 3.46182 8.66535 2.96333 8.83184 2.49756ZM11.2502 13.695V5.2121C11.2502 4.75802 11.0698 4.32254 10.7487 4.00146C10.5494 3.80219 10.3061 3.65711 10.0416 3.57571C9.94467 3.85216 9.84449 4.14047 9.74109 4.43808C9.21385 5.95558 8.60267 7.7147 7.90992 9.37341C7.25874 10.9326 6.50657 12.4787 5.63432 13.695H11.2502ZM4.59669 18.2726L5.39886 19.8775C5.59162 19.7504 5.77289 19.6056 5.94016 19.4445C6.08644 19.3036 6.28362 19.2281 6.48661 19.2352C6.68959 19.2422 6.88102 19.3314 7.01713 19.4821C7.2967 19.7918 7.63813 20.0393 8.01936 20.2087C8.40059 20.3782 8.81313 20.4657 9.23031 20.4657C9.6475 20.4657 10.06 20.3782 10.4413 20.2087C10.8225 20.0393 11.1639 19.7918 11.4435 19.4821C11.5857 19.3246 11.788 19.2347 12.0002 19.2347C12.2124 19.2347 12.4147 19.3246 12.5569 19.4821C12.8364 19.7918 13.1779 20.0393 13.5591 20.2087C13.9403 20.3782 14.3529 20.4657 14.7701 20.4657C15.1872 20.4657 15.5998 20.3782 15.981 20.2087C16.3622 20.0393 16.7037 19.7918 16.9832 19.4821C17.1193 19.3314 17.3108 19.2422 17.5138 19.2352C17.7167 19.2281 17.9139 19.3036 18.0602 19.4445C18.2275 19.6056 18.4087 19.7504 18.6015 19.8774L19.4036 18.2726H4.59669ZM13.9146 4.08423C14.1975 3.78173 14.6721 3.76589 14.9746 4.04885C15.5442 4.58165 16.0722 5.33248 16.5619 6.1541C17.0563 6.98367 17.5375 7.93048 18.0019 8.88444C18.2149 9.32203 18.4235 9.75889 18.6283 10.1878C19.3331 11.6638 19.993 13.0456 20.6326 14.039C20.7812 14.2697 20.7919 14.5632 20.6604 14.8041C20.529 15.0451 20.2765 15.195 20.002 15.195H15.0778C14.6636 15.195 14.3278 14.8592 14.3278 14.445C14.3278 14.0308 14.6636 13.695 15.0778 13.695H18.6961C18.2151 12.8057 17.7281 11.7852 17.244 10.7709C17.0464 10.3568 16.8493 9.94371 16.6532 9.54097C16.1933 8.59614 15.7343 7.6955 15.2734 6.92201C14.8077 6.14058 14.3652 5.53274 13.9499 5.1443C13.6474 4.86134 13.6316 4.38673 13.9146 4.08423Z" fill="#1B1A16"/>
</svg>
