<svg width="24" height="24" viewBox="0 0 24 24" fill="none" xmlns="http://www.w3.org/2000/svg">
<path d="M8.92818 5.90921C8.73112 5.90663 8.54285 5.82734 8.40349 5.68821C8.26414 5.54909 8.18471 5.36113 8.18213 5.1644C8.18213 4.14319 9.08396 3.66217 9.7284 3.31845L9.82347 3.26761C10.1318 3.11865 10.6392 2.86045 10.6392 2.71149C10.6392 2.51395 10.7178 2.3245 10.8577 2.18483C10.9976 2.04515 11.1874 1.96667 11.3853 1.96667C11.5823 1.96925 11.7706 2.04854 11.91 2.18767C12.0493 2.32679 12.1287 2.51475 12.1313 2.71149C12.1313 3.74504 11.2075 4.22526 10.5618 4.56096L10.49 4.59834C10.4538 4.61761 10.4144 4.6382 10.373 4.65978C10.0737 4.81614 9.67423 5.02478 9.67423 5.1644C9.67423 5.36193 9.5957 5.55138 9.45579 5.69106C9.31587 5.83074 9.12605 5.90921 8.92818 5.90921Z" fill="#1B1A16"/>
<path d="M7.70468 14.5093H8.92818C9.12605 14.5093 9.31587 14.4308 9.45579 14.2911C9.5957 14.1515 9.67423 13.962 9.67423 13.7645C9.67423 13.5669 9.5957 13.3775 9.45579 13.2378C9.31587 13.0981 9.12605 13.0197 8.92818 13.0197H7.70468C7.50681 13.0197 7.31711 13.0981 7.17719 13.2378C7.03728 13.3775 6.95862 13.5669 6.95862 13.7645C6.95862 13.962 7.03728 14.1515 7.17719 14.2911C7.31711 14.4308 7.50681 14.5093 7.70468 14.5093Z" fill="#1B1A16"/>
<path d="M16.2893 14.5093H15.0657C14.8679 14.5093 14.6781 14.4308 14.5381 14.2911C14.3982 14.1515 14.3197 13.962 14.3197 13.7645C14.3197 13.5669 14.3982 13.3775 14.5381 13.2378C14.6781 13.0981 14.8679 13.0197 15.0657 13.0197H16.2893C16.4871 13.0197 16.6769 13.0981 16.8169 13.2378C16.9568 13.3775 17.0353 13.5669 17.0353 13.7645C17.0353 13.962 16.9568 14.1515 16.8169 14.2911C16.6769 14.4308 16.4871 14.5093 16.2893 14.5093Z" fill="#1B1A16"/>
<path d="M11.3853 14.5093H12.6088C12.8066 14.5093 12.9963 14.4308 13.1363 14.2911C13.2762 14.1515 13.3548 13.962 13.3548 13.7645C13.3548 13.5669 13.2762 13.3775 13.1363 13.2378C12.9963 13.0981 12.8066 13.0197 12.6088 13.0197H11.3853C11.1874 13.0197 10.9976 13.0981 10.8577 13.2378C10.7178 13.3775 10.6392 13.5669 10.6392 13.7645C10.6392 13.962 10.7178 14.1515 10.8577 14.2911C10.9976 14.4308 11.1874 14.5093 11.3853 14.5093Z" fill="#1B1A16"/>
<path fill-rule="evenodd" clip-rule="evenodd" d="M6.95857 8.04436V10.5671C6.48568 10.5748 6.03059 10.7506 5.67539 11.0633C5.31829 11.3826 5.08878 11.8199 5.02891 12.2948L4.63072 15.4826H3.35772C3.16999 15.4833 2.98415 15.5204 2.81057 15.5918C2.63609 15.6712 2.48026 15.7862 2.35303 15.9294C2.2266 16.0662 2.13152 16.2289 2.07447 16.4061C2.01249 16.5811 1.9888 16.7674 2.00489 16.9523C2.07345 17.7257 2.26479 18.4833 2.57184 19.1967C2.60977 19.289 2.66589 19.3727 2.73686 19.4429C2.80783 19.5132 2.89228 19.5685 2.98506 19.6055C3.07784 19.6426 3.17706 19.6606 3.27697 19.6586C3.37688 19.6566 3.47535 19.6346 3.56658 19.5939C3.65815 19.555 3.74117 19.4983 3.81077 19.4273C3.88037 19.3562 3.93517 19.2722 3.97214 19.1799C4.00911 19.0876 4.0275 18.989 4.02618 18.8896C4.02486 18.7902 4.0039 18.6921 3.96449 18.6008C3.73555 18.0802 3.588 17.5276 3.52687 16.9622H20.4374C20.3674 17.6108 20.1857 18.2425 19.9002 18.8292C19.8565 18.917 19.8308 19.0127 19.8247 19.1105C19.8185 19.2084 19.8322 19.3065 19.8646 19.399C19.8971 19.4916 19.9477 19.5767 20.0136 19.6494C20.0795 19.7221 20.1593 19.7809 20.2483 19.8223C20.3468 19.873 20.4559 19.9002 20.5667 19.9018C20.6986 19.893 20.8258 19.8499 20.9357 19.7767C21.0457 19.7035 21.1346 19.6028 21.1934 19.4847C21.577 18.6931 21.8129 17.8383 21.8897 16.9622C21.9108 16.7707 21.887 16.5769 21.8201 16.3962C21.763 16.219 21.668 16.0563 21.5415 15.9195C21.4131 15.7801 21.2574 15.6685 21.084 15.5918C20.9104 15.5204 20.7246 15.4833 20.5368 15.4826H19.4428L19.0447 12.2948C18.9848 11.8199 18.7552 11.3826 18.3981 11.0633C18.0354 10.744 17.5687 10.5675 17.0851 10.5668H17.0054V8.04435C17.0042 7.7391 16.8827 7.44658 16.6672 7.23003C16.4491 7.01666 16.1569 6.89568 15.8516 6.89238H14.2202C13.9144 6.89359 13.6214 7.01488 13.4044 7.23003C13.2968 7.33662 13.2115 7.4635 13.1535 7.6033C13.0954 7.74309 13.0658 7.89302 13.0663 8.04435V10.5668H10.9076V8.04436C10.9027 7.73791 10.7778 7.44557 10.5595 7.23003C10.4543 7.12335 10.3288 7.03857 10.1905 6.98062C10.0522 6.92266 9.90383 6.89267 9.75384 6.89238H8.1125C7.96091 6.8919 7.81077 6.9215 7.67074 6.97947C7.53071 7.03743 7.40352 7.1226 7.29675 7.23003C7.08124 7.44658 6.95978 7.7391 6.95857 8.04436ZM8.45068 10.5668H9.44541V8.38201H8.45068V10.5668ZM6.13305 15.4726H17.9406L17.5626 12.4934C17.551 12.3742 17.494 12.2639 17.4034 12.1855C17.3146 12.1097 17.2019 12.0675 17.0851 12.0663H6.98851C6.87213 12.0699 6.76014 12.1118 6.67012 12.1855C6.57948 12.2639 6.52258 12.3742 6.51105 12.4934L6.13305 15.4726ZM15.583 10.5668H14.5882V8.382H15.583V10.5668Z" fill="#1B1A16"/>
<path d="M2.70116 21.8978H3.34776C3.85733 21.891 4.36324 21.8107 4.84982 21.6595C5.36608 21.4912 5.85272 21.2432 6.29214 20.9246C6.59389 21.1665 6.92889 21.3638 7.28688 21.5105C7.85615 21.7659 8.47325 21.898 9.09736 21.898C9.72148 21.898 10.3385 21.7659 10.9077 21.5105C11.2626 21.366 11.597 21.1757 11.9025 20.9445C12.206 21.1786 12.5408 21.3691 12.8972 21.5105C13.4665 21.7659 14.0836 21.898 14.7077 21.898C15.3318 21.898 15.9488 21.7659 16.5181 21.5105C16.8773 21.3663 17.2126 21.1688 17.5128 20.9246C17.9522 21.2432 18.439 21.4912 18.9552 21.6595C19.6978 21.9065 20.4855 21.9878 21.263 21.8978C21.4585 21.8706 21.6356 21.7681 21.7565 21.6122C21.8773 21.4563 21.9322 21.2595 21.9096 21.0637C21.8973 20.9664 21.866 20.8726 21.8173 20.7875C21.7686 20.7024 21.7035 20.6278 21.6259 20.5678C21.5483 20.5078 21.4596 20.4638 21.3648 20.4381C21.2701 20.4124 21.1714 20.4056 21.074 20.4182C20.5179 20.4815 19.9545 20.4239 19.4227 20.2493C18.8942 20.073 18.4116 19.7812 18.0102 19.3953C17.8621 19.2571 17.6658 19.1822 17.4631 19.1867C17.3634 19.187 17.2648 19.2084 17.1739 19.2495C17.083 19.2906 17.0019 19.3504 16.9359 19.4251C16.6622 19.7373 16.3224 19.9849 15.9412 20.15C15.5632 20.3218 15.1528 20.4107 14.7376 20.4107C14.3223 20.4107 13.9118 20.3218 13.5338 20.15C13.1526 19.9849 12.8128 19.7373 12.5391 19.4251C12.4689 19.3504 12.3842 19.2907 12.2902 19.2497C12.1961 19.2087 12.0947 19.1873 11.9921 19.1867C11.8878 19.186 11.7844 19.2067 11.6885 19.2477C11.5926 19.2888 11.5063 19.3491 11.435 19.4251C11.1602 19.7361 10.8207 19.9835 10.4402 20.15C10.0606 20.322 9.64856 20.411 9.23166 20.411C8.81477 20.411 8.40272 20.322 8.02309 20.15C7.64326 19.9824 7.30401 19.7352 7.02836 19.4251C6.96274 19.3499 6.88169 19.2898 6.79072 19.2486C6.69976 19.2075 6.60097 19.1864 6.50112 19.1867C6.30188 19.1848 6.10951 19.2595 5.96392 19.3953C5.55742 19.7796 5.07211 20.071 4.54152 20.2493C4.00974 20.4239 3.44639 20.4815 2.89022 20.4182C2.79288 20.4056 2.69399 20.4124 2.59928 20.4381C2.50456 20.4638 2.41583 20.5078 2.33821 20.5678C2.26059 20.6278 2.19563 20.7024 2.14696 20.7875C2.09829 20.8726 2.06696 20.9664 2.05467 21.0637C2.032 21.2595 2.08685 21.4563 2.20767 21.6122C2.3285 21.7681 2.50562 21.8706 2.70116 21.8978Z" fill="#1B1A16"/>
<path d="M14.5381 5.69106C14.6781 5.83074 14.8679 5.90921 15.0657 5.90921C15.2628 5.90663 15.4511 5.82734 15.5904 5.68821C15.7298 5.54909 15.8092 5.36113 15.8118 5.1644C15.8118 5.01639 16.2519 4.79085 16.5614 4.63222C16.5842 4.62054 16.6063 4.60923 16.6274 4.59834C16.6509 4.58607 16.6749 4.57362 16.6992 4.56096C17.345 4.22526 18.2688 3.74504 18.2688 2.71149C18.2662 2.51475 18.1868 2.32679 18.0474 2.18767C17.908 2.04854 17.7198 1.96925 17.5227 1.96667C17.3249 1.96667 17.1351 2.04515 16.9952 2.18483C16.8553 2.3245 16.7767 2.51395 16.7767 2.71149C16.7767 2.86045 16.2595 3.11865 15.961 3.26761C15.9301 3.28424 15.8984 3.30117 15.866 3.31845C15.2215 3.66217 14.3197 4.14319 14.3197 5.1644C14.3197 5.36193 14.3982 5.55138 14.5381 5.69106Z" fill="#1B1A16"/>
</svg>
