<svg width="24" height="24" viewBox="0 0 24 24" fill="none" xmlns="http://www.w3.org/2000/svg">
<path fill-rule="evenodd" clip-rule="evenodd" d="M18.167 2.00073C18.5812 2.00073 18.917 2.33652 18.917 2.75073V4.47152C19.3942 4.50368 19.8455 4.70754 20.1859 5.04788C20.5578 5.41979 20.7667 5.92421 20.7667 6.45018V15.5766C20.8962 15.5935 21.0228 15.6291 21.1427 15.6826C21.3215 15.7624 21.4808 15.8802 21.6096 16.0278C21.6167 16.036 21.6236 16.0443 21.6304 16.0527C21.7533 16.2066 21.8407 16.3857 21.8861 16.5773C21.9286 16.7564 21.9336 16.9422 21.9008 17.123L21.6902 18.8323C21.6395 19.2434 21.2652 19.5356 20.8541 19.4849C20.443 19.4343 20.1508 19.0599 20.2015 18.6488L20.3966 17.0654H20.0192C20.0183 17.0654 20.0175 17.0654 20.0167 17.0654L8.92209 17.0654C8.92086 17.0654 8.91963 17.0654 8.91839 17.0654C8.91716 17.0654 8.91593 17.0654 8.9147 17.0654L3.9858 17.0654C3.9838 17.0654 3.98181 17.0654 3.97981 17.0654H3.51479C3.57531 17.5816 3.70277 18.0879 3.89411 18.5715C4.04648 18.9567 3.85776 19.3925 3.47259 19.5448C3.08742 19.6972 2.65166 19.5085 2.49929 19.1233C2.23767 18.462 2.07157 17.7668 2.00596 17.0587C1.98785 16.866 2.01111 16.6717 2.0742 16.4887C2.13753 16.3051 2.23952 16.1371 2.37329 15.9963C2.50038 15.8617 2.65333 15.7541 2.823 15.6801C2.95439 15.6228 3.09369 15.5864 3.2358 15.5722V10.5607C3.2358 10.0347 3.44474 9.53031 3.81665 9.1584C4.18856 8.78649 4.69298 8.57755 5.21895 8.57755H14.3341V6.45018C14.3341 5.92422 14.5431 5.41979 14.915 5.04788C15.2869 4.67597 15.7913 4.46703 16.3173 4.46703H17.417V2.75073C17.417 2.33652 17.7528 2.00073 18.167 2.00073ZM16.3173 5.96703C16.1891 5.96703 16.0663 6.01793 15.9756 6.10854C15.885 6.19915 15.8341 6.32204 15.8341 6.45018V7.3444H17.5504C17.9647 7.3444 18.3004 7.68018 18.3004 8.0944C18.3004 8.50861 17.9647 8.8444 17.5504 8.8444H15.8341V9.32635C15.8341 9.32675 15.8341 9.32715 15.8341 9.32755L15.8341 15.5654H19.2667V6.45018C19.2667 6.32204 19.2158 6.19915 19.1252 6.10854C19.0346 6.01793 18.9117 5.96703 18.7836 5.96703H16.3173ZM14.3341 15.5654V13.5714H9.66839V15.5654H14.3341ZM8.16839 15.5654V13.5714H4.7358V15.5654H8.16839ZM4.7358 12.0714H8.16839V10.0775H5.21895C5.09081 10.0775 4.96792 10.1285 4.87731 10.2191C4.7867 10.3097 4.7358 10.4326 4.7358 10.5607V12.0714ZM9.66839 10.0775V12.0714H14.3341V10.0775H9.66839ZM6.42385 18.8543C6.63242 18.8464 6.83484 18.9258 6.98242 19.0734C7.14012 19.2311 7.28098 19.3753 7.40733 19.5048L7.44162 19.54C7.55482 19.6561 7.65415 19.758 7.74672 19.8506C7.95323 20.0571 8.09702 20.1873 8.22394 20.278C8.42149 20.4191 8.61445 20.4979 9.12392 20.4979C9.63776 20.4979 9.9017 20.4169 10.1651 20.2523C10.4867 20.0513 10.8295 19.7149 11.4709 19.0734C11.6116 18.9328 11.8024 18.8538 12.0013 18.8538C12.2002 18.8538 12.3909 18.9328 12.5316 19.0734C13.1731 19.7149 13.5158 20.0513 13.8374 20.2523C14.1008 20.4169 14.3648 20.4979 14.8786 20.4979C15.3881 20.4979 15.581 20.4191 15.7786 20.278C15.9055 20.1873 16.0493 20.0571 16.2558 19.8506C16.3484 19.758 16.4477 19.6561 16.561 19.54L16.5952 19.5048C16.7215 19.3753 16.8624 19.2311 17.0201 19.0734C17.1677 18.9258 17.3701 18.8464 17.5787 18.8543C17.7873 18.8621 17.9831 18.9566 18.1192 19.1148C18.5032 19.5615 18.9816 19.9173 19.5198 20.1566C20.0581 20.3958 20.6428 20.5125 21.2317 20.4982C21.6458 20.4881 21.9896 20.8156 21.9997 21.2297C22.0097 21.6438 21.6822 21.9877 21.2681 21.9977C20.4571 22.0174 19.6519 21.8567 18.9106 21.5273C18.418 21.3083 17.9618 21.0185 17.5559 20.6681C17.4727 20.7534 17.3927 20.835 17.3165 20.9112C17.0991 21.1286 16.8832 21.3323 16.6505 21.4986C16.1287 21.8713 15.6023 21.9979 14.8786 21.9979C14.1593 21.9979 13.6011 21.8735 13.0424 21.5243C12.6997 21.3101 12.367 21.0148 12.0013 20.66C11.6356 21.0148 11.3028 21.3101 10.9601 21.5243C10.4014 21.8735 9.84322 21.9979 9.12392 21.9979C8.40023 21.9979 7.87386 21.8713 7.35208 21.4986C7.11933 21.3323 6.90345 21.1286 6.68606 20.9112C6.60985 20.835 6.52987 20.7534 6.44659 20.6681C6.04075 21.0185 5.58453 21.3083 5.0919 21.5273C4.35061 21.8567 3.5454 22.0174 2.73443 21.9977C2.32034 21.9877 1.99281 21.6438 2.00287 21.2297C2.01293 20.8156 2.35677 20.4881 2.77086 20.4982C3.35973 20.5125 3.94442 20.3958 4.48269 20.1566C5.02096 19.9173 5.49937 19.5615 5.88335 19.1148C6.01941 18.9566 6.21528 18.8621 6.42385 18.8543Z" fill="#1B1A16"/>
</svg>
