<svg width="24" height="24" viewBox="0 0 24 24" fill="none" xmlns="http://www.w3.org/2000/svg">
<path fill-rule="evenodd" clip-rule="evenodd" d="M10.8446 3.50002L10.3344 10.1328C11.4406 9.97775 12.5633 9.97794 13.6694 10.1334L13.1592 3.50002H10.8446ZM14.2676 11.7645C14.3054 11.7764 14.3445 11.7854 14.3845 11.7911C14.8958 11.9104 15.4002 12.0685 15.8934 12.2656C16.2867 12.4234 16.6072 12.7217 16.7929 13.1026C16.9786 13.4837 17.016 13.9203 16.8978 14.3275L16.8969 14.3305L15.2346 20.1497C15.2057 20.2507 15.1447 20.3394 15.0609 20.4026C14.977 20.4658 14.8749 20.5 14.7699 20.5H9.22984C9.12487 20.5 9.02274 20.4658 8.93892 20.4026C8.85516 20.3395 8.79422 20.2508 8.76529 20.15L7.10283 14.3305L7.10193 14.3275C6.98372 13.9203 7.02113 13.4837 7.20688 13.1026C7.39256 12.7217 7.71319 12.4233 8.1065 12.2655C8.60052 12.0682 9.10578 11.9098 9.61786 11.7905C9.6587 11.7847 9.69858 11.7756 9.73718 11.7634C11.2291 11.434 12.7757 11.4344 14.2676 11.7645ZM8.80564 10.4497L9.35852 3.26148C9.38525 2.91669 9.54174 2.59439 9.79637 2.36039C10.0502 2.1271 10.3828 1.9984 10.7275 2.00002H13.2834C13.6276 2.0004 13.9598 2.13066 14.2122 2.36477C14.4645 2.59888 14.6192 2.91959 14.6454 3.26282L15.1983 10.4509C15.621 10.5678 16.039 10.7085 16.4501 10.8727C17.1891 11.1689 17.7924 11.7297 18.1413 12.4454C18.4899 13.1607 18.5603 13.9799 18.3388 14.7441L18.3384 14.7457L16.6767 20.5623C16.5581 20.9764 16.3078 21.3411 15.9638 21.6004C15.6198 21.8597 15.2007 22 14.7699 22H9.22982C8.79904 22 8.37998 21.8597 8.03599 21.6004C7.692 21.3411 7.44179 20.9769 7.32318 20.5627L5.66141 14.7457L5.66093 14.744C5.43952 13.9799 5.50992 13.1606 5.85851 12.4454C6.20735 11.7297 6.80985 11.1692 7.54891 10.873C7.96135 10.7082 8.38145 10.5669 8.80564 10.4497ZM8.97097 13.3537C9.11334 13.1924 9.3181 13.1 9.53323 13.1H14.4665C14.6817 13.1 14.8864 13.1924 15.0288 13.3537C15.1712 13.5149 15.2374 13.7296 15.2107 13.943L14.5941 18.8764C14.5472 19.2517 14.2281 19.5333 13.8499 19.5333H10.1499C9.77165 19.5333 9.4526 19.2517 9.40568 18.8764L8.78902 13.943C8.76233 13.7296 8.8286 13.5149 8.97097 13.3537ZM10.3828 14.6L10.812 18.0333H13.1878L13.6169 14.6H10.3828Z" fill="#1B1A16"/>
</svg>
