<svg width="24" height="24" viewBox="0 0 24 24" fill="none" xmlns="http://www.w3.org/2000/svg">
<path fill-rule="evenodd" clip-rule="evenodd" d="M3.36667 2C2.61188 2 2 2.61188 2 3.36667V5.83333C2 6.58812 2.61188 7.2 3.36667 7.2H20.6333C21.3881 7.2 22 6.58812 22 5.83333V3.36667C22 2.61188 21.3881 2 20.6333 2H3.36667ZM3.5 3.5V5.7H8.16663V3.5H3.5ZM20.5 5.7H15.8334V3.5H20.5V5.7ZM14.3334 5.7V3.5H9.66663V5.7H14.3334Z" fill="#1B1A16"/>
<path fill-rule="evenodd" clip-rule="evenodd" d="M15.4018 12.6888H11.9582C12.4689 12.0231 12.75 11.2039 12.75 10.3556C12.75 9.94138 12.4143 9.60559 12 9.60559H5.83337C5.41916 9.60559 5.08337 9.94138 5.08337 10.3556C5.08337 11.2039 5.36453 12.0231 5.87524 12.6888H3.98333C2.88797 12.6888 2 13.5768 2 14.6722V20.0166C2 21.112 2.88797 22 3.98333 22H8.90791L8.91663 22L8.92534 22H15.0747L15.0834 22L15.0921 22H20.0167C21.112 22 22 21.112 22 20.0166V14.6722C22 13.5768 21.112 12.6888 20.0167 12.6888H19.6982L20.1354 10.5027C20.1795 10.2823 20.1224 10.0539 19.98 9.8801C19.8375 9.70633 19.6247 9.60559 19.4 9.60559H15.7C15.4753 9.60559 15.2624 9.70633 15.12 9.8801C14.9775 10.0539 14.9205 10.2823 14.9645 10.5027L15.4018 12.6888ZM3.98333 14.1888C3.7164 14.1888 3.5 14.4052 3.5 14.6722V15.9778H20.5V14.6722C20.5 14.4052 20.2836 14.1888 20.0167 14.1888H18.7944C18.7907 14.1889 18.787 14.1889 18.7833 14.1889H16.3166C16.3129 14.1889 16.3092 14.1889 16.3055 14.1888H8.94165L8.91671 14.1889L8.89176 14.1888H3.98333ZM18.1685 12.6888H16.9315L16.6148 11.1056H18.4851L18.1685 12.6888ZM10.5666 12.0055C10.1336 12.4385 9.54798 12.6837 8.93617 12.6888H8.89724C8.28544 12.6837 7.69979 12.4385 7.26679 12.0055C7.0113 11.75 6.82118 11.4414 6.70719 11.1056H11.1262C11.0122 11.4414 10.8221 11.75 10.5666 12.0055ZM14.3334 17.4778H9.66663V20.5H14.3334V17.4778ZM15.8334 20.5V17.4778H20.5V20.0166C20.5 20.2836 20.2836 20.5 20.0167 20.5H15.8334ZM3.5 17.4778H8.16663V20.5H3.98333C3.7164 20.5 3.5 20.2836 3.5 20.0166V17.4778Z" fill="#1B1A16"/>
</svg>
