<svg width="24" height="24" viewBox="0 0 24 24" fill="none" xmlns="http://www.w3.org/2000/svg">
<path fill-rule="evenodd" clip-rule="evenodd" d="M3.5 2.75C3.5 2.33579 3.16421 2 2.75 2C2.33579 2 2 2.33579 2 2.75V21.25C2 21.6642 2.33579 22 2.75 22C3.16421 22 3.5 21.6642 3.5 21.25V10.4888H19.2667V21.2499C19.2667 21.6642 19.6025 21.9999 20.0167 21.9999C20.4309 21.9999 20.7667 21.6642 20.7667 21.2499V10.1885C20.9602 10.0812 21.1395 9.94672 21.2987 9.78752C21.7477 9.33848 22 8.72944 22 8.0944C22 7.45935 21.7477 6.85031 21.2987 6.40127C20.8496 5.95222 20.2406 5.69995 19.6056 5.69995H18.4354L18.9065 2.8733C18.9427 2.65583 18.8814 2.43344 18.7389 2.26522C18.5964 2.097 18.3871 2 18.1667 2H14.4667C14.2462 2 14.0369 2.097 13.8944 2.26522C13.7519 2.43344 13.6906 2.65583 13.7269 2.8733L14.198 5.69995H3.5V2.75ZM16.9147 5.69995H15.7187L15.352 3.5H17.2813L16.9147 5.69995ZM15.0747 7.19995H3.5V8.98884H19.6056C19.6595 8.98884 19.7129 8.98397 19.7653 8.97447C19.8063 8.95989 19.8489 8.94877 19.8928 8.94147C20.0216 8.89778 20.14 8.82487 20.238 8.72686C20.4058 8.55912 20.5 8.33162 20.5 8.0944C20.5 7.85717 20.4058 7.62967 20.238 7.46193C20.0703 7.29419 19.8428 7.19995 19.6056 7.19995H17.5586C17.5558 7.19998 17.5529 7.2 17.55 7.2H15.0833C15.0805 7.2 15.0776 7.19998 15.0747 7.19995Z" fill="#1B1A16"/>
<path fill-rule="evenodd" clip-rule="evenodd" d="M6.93335 15.8334H6.45001C5.924 15.8334 5.41953 15.6244 5.04758 15.2525C4.67563 14.8805 4.46667 14.376 4.46667 13.85C4.46667 13.324 4.67563 12.8196 5.04758 12.4476C5.41953 12.0757 5.924 11.8667 6.45001 11.8667H8.91667C9.44269 11.8667 9.94716 12.0757 10.3191 12.4476C10.6911 12.8196 10.9 13.324 10.9 13.85C10.9 14.376 10.6911 14.8805 10.3191 15.2525C9.94716 15.6244 9.44269 15.8334 8.91667 15.8334H8.43335V21.25C8.43335 21.6643 8.09756 22 7.68335 22C7.26914 22 6.93335 21.6643 6.93335 21.25V15.8334ZM6.10824 13.5083C6.19888 13.4176 6.32182 13.3667 6.45001 13.3667H8.91667C9.04486 13.3667 9.1678 13.4176 9.25844 13.5083C9.34909 13.5989 9.40001 13.7218 9.40001 13.85C9.40001 13.9782 9.34909 14.1012 9.25844 14.1918C9.1678 14.2824 9.04486 14.3334 8.91667 14.3334H6.45001C6.32182 14.3334 6.19888 14.2824 6.10824 14.1918C6.0176 14.1012 5.96667 13.9782 5.96667 13.85C5.96667 13.7218 6.0176 13.5989 6.10824 13.5083Z" fill="#1B1A16"/>
<path fill-rule="evenodd" clip-rule="evenodd" d="M13.85 15.8334H14.3334V21.25C14.3334 21.6643 14.6692 22 15.0834 22C15.4976 22 15.8334 21.6643 15.8334 21.25V15.8334H16.3167C16.8427 15.8334 17.3472 15.6244 17.7191 15.2525C18.0911 14.8805 18.3 14.376 18.3 13.85C18.3 13.324 18.0911 12.8196 17.7191 12.4476C17.3472 12.0757 16.8427 11.8667 16.3167 11.8667H13.85C13.324 11.8667 12.8196 12.0757 12.4476 12.4476C12.0757 12.8196 11.8667 13.324 11.8667 13.85C11.8667 14.376 12.0757 14.8805 12.4476 15.2525C12.8196 15.6244 13.324 15.8334 13.85 15.8334ZM13.85 13.3667C13.7218 13.3667 13.5989 13.4176 13.5083 13.5083C13.4176 13.5989 13.3667 13.7218 13.3667 13.85C13.3667 13.9782 13.4176 14.1012 13.5083 14.1918C13.5989 14.2824 13.7218 14.3334 13.85 14.3334H16.3167C16.4449 14.3334 16.5678 14.2824 16.6585 14.1918C16.7491 14.1012 16.8 13.9782 16.8 13.85C16.8 13.7218 16.7491 13.5989 16.6585 13.5083C16.5678 13.4176 16.4449 13.3667 16.3167 13.3667H13.85Z" fill="#1B1A16"/>
</svg>
