<svg width="24" height="24" viewBox="0 0 24 24" fill="none" xmlns="http://www.w3.org/2000/svg">
<path d="M12.284 13.157C12.196 13.121 12.101 13.1 12 13.1C11.9 13.1 11.805 13.121 11.718 13.157C10.981 13.219 10.264 13.504 9.72602 14.043C9.11802 14.65 8.78402 15.458 8.78402 16.317C8.78402 17.176 9.11802 17.984 9.72602 18.591C10.334 19.198 11.14 19.533 12 19.533C12.859 19.533 13.667 19.198 14.274 18.591C14.881 17.984 15.216 17.176 15.216 16.317C15.216 15.458 14.881 14.65 14.274 14.043C13.736 13.504 13.02 13.219 12.284 13.157ZM13.214 17.53C12.566 18.178 11.435 18.178 10.786 17.53C10.462 17.206 10.283 16.774 10.283 16.316C10.283 15.858 10.462 15.426 10.786 15.102C10.922 14.965 11.081 14.861 11.249 14.779V15.7C11.249 16.114 11.585 16.45 11.999 16.45C12.413 16.45 12.749 16.114 12.749 15.7V14.779C12.918 14.861 13.076 14.966 13.213 15.102C13.537 15.426 13.716 15.858 13.716 16.316C13.716 16.774 13.538 17.206 13.214 17.53Z" fill="#1B1A16"/>
<path d="M21.294 19.423L18.98 12.021C18.852 11.616 18.604 11.269 18.261 11.018C17.918 10.767 17.512 10.634 17.087 10.634H15.217V9.073C15.909 8.819 16.581 8.505 17.203 8.09C18.749 7.059 19.944 5.608 20.659 3.892C20.745 3.684 20.78 3.457 20.758 3.235C20.737 3.014 20.66 2.799 20.536 2.61C20.413 2.424 20.243 2.269 20.048 2.164C19.852 2.058 19.629 2.001 19.4 2H4.60002C4.37402 2 4.15002 2.057 3.95502 2.162C3.75702 2.268 3.58602 2.423 3.46202 2.61C3.33802 2.796 3.26102 3.013 3.24002 3.235C3.21902 3.458 3.25302 3.685 3.33902 3.893C4.05302 5.608 5.24902 7.06 6.79602 8.091C7.41802 8.506 8.09102 8.82 8.78302 9.074V10.634H6.91202C6.49302 10.634 6.07602 10.77 5.73902 11.018C5.39702 11.269 5.14802 11.616 5.01902 12.024L2.70702 19.424C2.61402 19.72 2.59202 20.038 2.64302 20.343C2.69302 20.646 2.81702 20.94 3.00002 21.19C3.18302 21.439 3.42602 21.645 3.70202 21.786C3.97802 21.926 4.28902 22 4.60002 22H19.4C19.712 22 20.023 21.926 20.296 21.786C20.573 21.646 20.817 21.439 20.998 21.191C21.184 20.94 21.308 20.645 21.356 20.342C21.408 20.039 21.387 19.721 21.294 19.423ZM4.80302 3.5H19.195C18.588 4.861 17.615 6.013 16.372 6.842C13.774 8.574 10.226 8.574 7.62802 6.843C6.38302 6.014 5.41002 4.861 4.80302 3.5ZM10.283 9.49C10.847 9.595 11.418 9.667 12 9.667C12.581 9.667 13.152 9.595 13.717 9.49V10.634H10.283V9.49ZM19.789 20.304C19.744 20.365 19.686 20.413 19.615 20.45C19.551 20.482 19.477 20.5 19.4 20.5H4.60002C4.52402 20.5 4.44802 20.482 4.38202 20.448C4.31402 20.414 4.25402 20.363 4.20902 20.302C4.16402 20.24 4.13402 20.171 4.12202 20.096C4.11002 20.021 4.11502 19.946 4.13902 19.87L6.45102 12.473C6.48202 12.373 6.54302 12.288 6.62702 12.227C6.70902 12.167 6.81102 12.134 6.91302 12.134H17.088C17.192 12.134 17.291 12.166 17.375 12.228C17.458 12.289 17.519 12.374 17.55 12.471L19.863 19.87C19.885 19.944 19.891 20.02 19.878 20.099C19.865 20.172 19.836 20.24 19.789 20.304Z" fill="#1B1A16"/>
</svg>
