<svg width="24" height="24" viewBox="0 0 24 24" fill="none" xmlns="http://www.w3.org/2000/svg">
<path d="M20.4289 12.4C20.2559 12.059 19.9918 11.772 19.6679 11.568C19.3428 11.365 18.9689 11.255 18.5759 11.25H17.0679V10.282H19.2469C19.6129 10.282 19.9719 10.18 20.2869 9.98497C20.6009 9.78897 20.8529 9.50997 21.0369 9.13197L21.9029 6.99597C21.9749 6.83797 22.0079 6.66297 21.9979 6.47897C21.9839 6.30197 21.9289 6.13097 21.8329 5.98097C21.7369 5.83297 21.6049 5.70997 21.4589 5.62797C21.3029 5.53997 21.1269 5.49197 20.9409 5.49097H3.05185C2.87585 5.49397 2.70085 5.54097 2.54485 5.62697C2.39085 5.71397 2.25985 5.83797 2.16085 5.99497C2.06785 6.14597 2.01285 6.31797 2.00385 6.48597C1.99185 6.66297 2.02585 6.84097 2.08585 6.96897L2.98585 9.18097C3.14885 9.51297 3.40185 9.79097 3.71585 9.98597C4.02785 10.18 4.38685 10.282 4.75885 10.282H6.93085V11.25H5.42085C5.03285 11.251 4.65385 11.359 4.32385 11.562C3.99485 11.766 3.72785 12.055 3.53385 12.441L2.21985 15.474C2.06085 15.793 1.98585 16.151 2.00285 16.507C2.01985 16.862 2.12785 17.211 2.31585 17.515C2.50385 17.819 2.76785 18.071 3.07985 18.244C3.39185 18.417 3.74485 18.508 4.09985 18.508H19.8989C20.2549 18.508 20.6089 18.416 20.9189 18.244C21.2309 18.071 21.4959 17.819 21.6849 17.515C21.8729 17.211 21.9809 16.863 21.9969 16.507C22.0139 16.153 21.9389 15.797 21.7949 15.506L20.4289 12.4ZM4.75385 8.78197C4.66785 8.78197 4.58185 8.75797 4.50685 8.71097C4.43185 8.66497 4.37085 8.59797 4.35385 8.56697L3.71385 6.99197H20.2869L19.6679 8.51997C19.6299 8.59897 19.5689 8.66497 19.4969 8.70997C19.4209 8.75697 19.3339 8.78197 19.2469 8.78197H4.75385ZM8.43185 10.282H15.5689V11.25H8.43185V10.282ZM20.4079 16.724C20.3539 16.811 20.2799 16.882 20.1899 16.932C20.1009 16.981 20.0009 17.007 19.8979 17.007H4.09885C3.99685 17.007 3.89585 16.981 3.80685 16.931C3.71885 16.882 3.64385 16.811 3.58985 16.724C3.53585 16.638 3.50485 16.539 3.49985 16.437C3.49585 16.335 3.51685 16.233 3.57885 16.107L4.89085 13.079C4.94085 12.98 5.01685 12.897 5.11185 12.839C5.20585 12.781 5.31385 12.751 5.42285 12.75H7.67685C7.67885 12.75 7.67985 12.751 7.68185 12.751C7.68385 12.751 7.68485 12.75 7.68685 12.75H16.3138C16.3158 12.75 16.3169 12.751 16.3189 12.751C16.3209 12.751 16.3218 12.75 16.3238 12.75H18.5659C18.6739 12.752 18.7809 12.783 18.8729 12.841C18.9669 12.9 19.0419 12.982 19.0739 13.042L20.4349 16.141C20.4809 16.234 20.5028 16.337 20.4979 16.438C20.4929 16.539 20.4619 16.638 20.4079 16.724Z" fill="#1B1A16"/>
<path d="M10.1489 14.541H6.44785C6.03385 14.541 5.69785 14.877 5.69785 15.291C5.69785 15.705 6.03385 16.041 6.44785 16.041H10.1489C10.5628 16.041 10.8989 15.705 10.8989 15.291C10.8989 14.877 10.5628 14.541 10.1489 14.541Z" fill="#1B1A16"/>
<path d="M14.1589 16.049C14.7437 16.049 15.2179 15.5748 15.2179 14.99C15.2179 14.4051 14.7437 13.931 14.1589 13.931C13.574 13.931 13.0999 14.4051 13.0999 14.99C13.0999 15.5748 13.574 16.049 14.1589 16.049Z" fill="#1B1A16"/>
<path d="M17.2519 16.049C17.8367 16.049 18.3109 15.5748 18.3109 14.99C18.3109 14.4051 17.8367 13.931 17.2519 13.931C16.667 13.931 16.1929 14.4051 16.1929 14.99C16.1929 15.5748 16.667 16.049 17.2519 16.049Z" fill="#1B1A16"/>
</svg>
