<svg width="24" height="24" viewBox="0 0 24 24" fill="none" xmlns="http://www.w3.org/2000/svg">
<path d="M21.978 15.523L19.512 5.044C19.512 5.042 19.51 5.041 19.509 5.039C19.509 5.039 19.509 5.036 19.509 5.034C19.167 3.666 18.131 2.043 15.176 2.007C15.171 2.006 15.167 2.007 15.162 2.006C15.134 2.005 15.111 2 15.082 2H8.91696C8.88596 2 8.86196 2.006 8.83196 2.006C8.82996 2.006 8.82796 2.006 8.82596 2.006C5.87096 2.042 4.83296 3.665 4.49096 5.034C4.49096 5.036 4.49096 5.038 4.49096 5.04C4.49096 5.04 4.48996 5.042 4.48896 5.044L2.02296 15.523C1.93996 15.876 2.12096 16.238 2.45396 16.382L4.81496 17.41C4.62396 18.465 4.50296 19.532 4.46996 20.602C4.45896 20.967 4.71196 21.288 5.06996 21.361C7.14596 21.785 9.27196 22 11.391 22C11.599 22 11.807 21.998 11.985 21.994C12.193 21.998 12.401 22 12.609 22C14.728 22 16.855 21.785 18.931 21.361C19.288 21.289 19.541 20.968 19.531 20.603C19.498 19.533 19.377 18.465 19.185 17.411L21.546 16.383C21.879 16.238 22.061 15.876 21.978 15.523ZM17.99 5.174L15.807 10.631H14.285L12.864 8.144L15.504 3.525C17.196 3.644 17.76 4.457 17.99 5.174ZM10.21 3.5H13.789L12 6.632L10.21 3.5ZM8.49596 3.524L12.557 10.63H8.19196L6.00996 5.174C6.23996 4.457 6.80396 3.644 8.49596 3.524ZM3.62596 15.258L5.40496 7.7L6.85996 11.338C6.11496 12.791 5.53696 14.33 5.13396 15.914L3.62596 15.258ZM11.985 20.494C9.97796 20.534 7.96996 20.372 5.99796 20.014C6.16996 17.278 6.91096 14.576 8.14796 12.131H9.39996V15.08C9.39996 15.494 9.73596 15.83 10.15 15.83C10.564 15.83 10.9 15.494 10.9 15.08V12.13H13.1V20.489C12.937 20.491 12.773 20.5 12.61 20.5C12.411 20.5 12.213 20.498 11.985 20.494ZM14.6 20.427V12.13H15.853C17.088 14.575 17.831 17.277 18.002 20.013C16.878 20.218 15.74 20.351 14.6 20.427ZM18.865 15.914C18.463 14.33 17.885 12.791 17.139 11.338L18.595 7.7L20.374 15.258L18.865 15.914Z" fill="#1B1A16"/>
</svg>
