<svg width="24" height="24" viewBox="0 0 24 24" fill="none" xmlns="http://www.w3.org/2000/svg">
<path fill-rule="evenodd" clip-rule="evenodd" d="M15.9056 5.34985C15.8864 5.34985 15.868 5.35746 15.8545 5.37101C15.8409 5.38455 15.8333 5.40292 15.8333 5.42208V6.31652H18.0333V5.42208C18.0333 5.40292 18.0257 5.38455 18.0122 5.37101C17.9986 5.35746 17.9803 5.34985 17.9611 5.34985H15.9056ZM19.5333 6.31652V5.42208C19.5333 5.0051 19.3677 4.6052 19.0728 4.31035C18.778 4.0155 18.3781 3.84985 17.9611 3.84985H15.9056C15.4886 3.84985 15.0887 4.0155 14.7938 4.31035C14.499 4.6052 14.3333 5.0051 14.3333 5.42208V6.31652H9.66667V5.42208C9.66667 5.0051 9.50102 4.6052 9.20617 4.31035C8.91132 4.0155 8.51142 3.84985 8.09444 3.84985H6.03889C5.62191 3.84985 5.22201 4.0155 4.92716 4.31035C4.63231 4.6052 4.46667 5.0051 4.46667 5.42208V6.31652H3.57222C2.70391 6.31652 2 7.02043 2 7.88874V18.5776C2 19.4459 2.70391 20.1499 3.57222 20.1499H20.4278C21.2961 20.1499 22 19.4459 22 18.5776V7.88874C22 7.02043 21.2961 6.31652 20.4278 6.31652H19.5333ZM5.96667 6.31652H8.16667V5.42208C8.16667 5.40292 8.15906 5.38455 8.14551 5.37101C8.13197 5.35746 8.1136 5.34985 8.09444 5.34985H6.03889C6.01973 5.34985 6.00137 5.35746 5.98782 5.37101C5.97428 5.38455 5.96667 5.40292 5.96667 5.42208V6.31652ZM3.57222 7.81652C3.53234 7.81652 3.5 7.84886 3.5 7.88874V18.5776C3.5 18.6175 3.53233 18.6499 3.57222 18.6499H20.4278C20.4677 18.6499 20.5 18.6175 20.5 18.5776V7.88874C20.5 7.84886 20.4677 7.81652 20.4278 7.81652H3.57222ZM17.55 11.2499C17.9642 11.2499 18.3 11.5856 18.3 11.9999V12.4832H18.7833C19.1975 12.4832 19.5333 12.819 19.5333 13.2332C19.5333 13.6474 19.1975 13.9832 18.7833 13.9832H18.3V14.4665C18.3 14.8807 17.9642 15.2165 17.55 15.2165C17.1358 15.2165 16.8 14.8807 16.8 14.4665V13.9832H16.3167C15.9025 13.9832 15.5667 13.6474 15.5667 13.2332C15.5667 12.819 15.9025 12.4832 16.3167 12.4832H16.8V11.9999C16.8 11.5856 17.1358 11.2499 17.55 11.2499ZM4.46667 13.2332C4.46667 12.819 4.80245 12.4832 5.21667 12.4832H7.68333C8.09755 12.4832 8.43333 12.819 8.43333 13.2332C8.43333 13.6474 8.09755 13.9832 7.68333 13.9832H5.21667C4.80245 13.9832 4.46667 13.6474 4.46667 13.2332Z" fill="#1B1A16"/>
</svg>
