<svg width="24" height="24" viewBox="0 0 24 24" fill="none" xmlns="http://www.w3.org/2000/svg">
<path d="M19.232 8.31899C18.874 7.44999 18.354 6.67199 17.689 6.00599C17.024 5.33999 16.246 4.81899 15.377 4.45999C14.509 4.09999 13.591 3.91699 12.65 3.91699H10L9.53 2.51199C9.398 2.11999 8.975 1.90799 8.58 2.03899C8.188 2.16999 7.976 2.59499 8.107 2.98799L8.43 3.95199C7.962 3.98999 7.502 4.07899 7.065 4.25799C6.505 4.48699 6.003 4.81999 5.574 5.24799C5.146 5.67499 4.811 6.17499 4.579 6.73399C4.347 7.29299 4.229 7.88299 4.229 8.48899V11.046C4.229 11.314 4.281 11.574 4.383 11.821C4.486 12.068 4.633 12.289 4.821 12.477C5.01 12.667 5.232 12.814 5.478 12.916C5.726 13.019 5.986 13.07 6.252 13.07H7.426V13.62C5.519 14.283 4.343 17.325 4.343 18.7C4.343 20.519 6.062 21.999 8.176 21.999C10.294 21.999 12.018 20.52 12.018 18.7C12.018 17.324 10.838 14.281 8.926 13.62V13.07H17.763C17.766 13.07 17.77 13.07 17.773 13.07C18.309 13.063 18.811 12.849 19.187 12.469C19.564 12.088 19.771 11.583 19.771 11.048C19.773 10.107 19.592 9.18899 19.232 8.31899ZM5.844 18.701C5.844 17.73 6.593 16.054 7.427 15.334V20.396C6.509 20.154 5.844 19.49 5.844 18.701ZM10.519 18.701C10.519 19.49 9.85 20.155 8.927 20.396V15.331C9.766 16.049 10.519 17.729 10.519 18.701ZM18.121 11.415C18.024 11.513 17.895 11.568 17.758 11.571H6.253C6.184 11.571 6.116 11.557 6.052 11.53C5.989 11.504 5.931 11.466 5.882 11.417C5.833 11.368 5.795 11.311 5.768 11.247C5.742 11.185 5.728 11.115 5.728 11.047V8.48899C5.728 8.08199 5.807 7.68499 5.963 7.30999C6.12 6.93399 6.345 6.59799 6.633 6.31099C6.921 6.02399 7.258 5.79999 7.635 5.64599C8.006 5.49299 8.398 5.41599 8.818 5.41599H12.65C13.392 5.41599 14.117 5.55999 14.802 5.84499C15.489 6.12899 16.102 6.53999 16.627 7.06599C17.152 7.59099 17.562 8.20599 17.845 8.89199C18.129 9.57899 18.273 10.303 18.271 11.047C18.271 11.186 18.218 11.316 18.121 11.415Z" fill="#1B1A16"/>
<path d="M15.84 8.60299H12.758V7.62599C12.758 7.21199 12.423 6.87599 12.008 6.87599C11.593 6.87599 11.258 7.21199 11.258 7.62599V9.35299C11.258 9.76699 11.594 10.103 12.008 10.103H15.84C16.254 10.103 16.59 9.76699 16.59 9.35299C16.59 8.93899 16.254 8.60299 15.84 8.60299Z" fill="#1B1A16"/>
<path d="M9.229 7.92799H7.955C7.541 7.92799 7.205 8.26399 7.205 8.67799C7.205 9.09199 7.541 9.42799 7.955 9.42799H9.23C9.644 9.42799 9.98 9.09199 9.98 8.67799C9.98 8.26399 9.644 7.92799 9.229 7.92799Z" fill="#1B1A16"/>
</svg>
