<svg width="24" height="24" viewBox="0 0 24 24" fill="none" xmlns="http://www.w3.org/2000/svg">
<path fill-rule="evenodd" clip-rule="evenodd" d="M11.1974 3.72197C10.0684 2.26645 8.34271 1.75898 6.77359 2.10366C4.84215 2.52792 3.20741 4.22805 3.20741 6.79114C3.20741 7.95105 3.73605 9.08674 4.42908 10.0919C5.12992 11.1084 6.0531 12.0693 6.96275 12.8956C8.73676 14.507 10.5416 15.6795 10.7753 15.8314C10.7812 15.8352 10.786 15.8384 10.7899 15.8409C11.3126 16.1832 12.0357 16.5479 12.6919 16.8017C12.9606 16.9056 13.2335 16.9969 13.4879 17.0599C13.4898 17.2918 13.5231 17.524 13.5884 17.7502C13.7616 18.3507 14.1483 18.8674 14.6756 19.2029L14.6757 19.203L18.7951 21.8228C18.9744 21.9368 19.1941 21.9683 19.3982 21.9093C19.6024 21.8503 19.7714 21.7065 19.8622 21.5144L20.2063 20.7868C20.3812 20.4169 20.2231 19.9754 19.8533 19.8005C19.4939 19.6306 19.0668 19.775 18.8824 20.1226L15.4709 17.953C15.4709 17.953 15.4708 17.9529 15.4708 17.9529C15.2482 17.8112 15.0849 17.5931 15.0118 17.3395C14.9386 17.0859 14.9606 16.8142 15.0736 16.5757L15.0741 16.5745C15.1868 16.3355 15.3833 16.1459 15.6263 16.0418C15.8694 15.9376 16.1421 15.9261 16.393 16.0094L16.3947 16.01L20.2312 17.2729C20.0788 17.6359 20.2378 18.0581 20.5971 18.2284C20.9668 18.4036 21.4085 18.246 21.5838 17.8763L21.9286 17.1487C22.0196 16.9567 22.0238 16.7348 21.9401 16.5395C21.8563 16.3442 21.6927 16.1943 21.4909 16.1279L16.8597 14.6033C16.8593 14.6032 16.8589 14.6031 16.8586 14.603C16.2642 14.406 15.6183 14.4334 15.0428 14.6801C14.5751 14.8805 14.1802 15.2144 13.9052 15.6363C13.7235 15.5957 13.4906 15.5221 13.2262 15.4199C12.6539 15.1986 12.0256 14.8793 11.601 14.6011L11.5995 14.6002C11.596 14.5979 11.5913 14.5949 11.5857 14.5912C11.3682 14.4499 9.64385 13.3296 7.95886 11.799C7.09371 11.0131 6.26057 10.1384 5.64877 9.251C5.02917 8.35232 4.68889 7.51601 4.68889 6.79114C4.68889 4.9386 5.82493 3.82885 7.09143 3.55064C8.35457 3.27318 9.80678 3.80752 10.5168 5.4755C10.6332 5.74895 10.9017 5.92636 11.1989 5.92612C11.4961 5.92589 11.7644 5.74807 11.8804 5.47444C12.5869 3.80732 14.0367 3.27325 15.2987 3.55062C16.5643 3.82878 17.7004 4.93851 17.7004 6.79114C17.7004 7.72633 17.1043 8.85496 16.1136 10.0378C15.1467 11.1922 13.9102 12.2742 12.8589 13.1011C12.5374 13.354 12.4817 13.8197 12.7346 14.1413C12.9876 14.4628 13.4533 14.5184 13.7748 14.2655C14.8635 13.4093 16.1891 12.255 17.2494 10.9891C18.2858 9.7516 19.1819 8.27571 19.1819 6.79114C19.1819 4.22813 17.5472 2.52799 15.6167 2.10368C14.0484 1.75898 12.3239 2.26641 11.1974 3.72197ZM2 18.4413C2 16.4759 3.59335 14.8825 5.55885 14.8825C6.59501 14.8825 7.52774 15.3253 8.17814 16.032C8.47885 15.9104 8.77392 15.7751 9.06243 15.6264C9.42611 15.4391 9.87281 15.5821 10.0602 15.9457C10.2475 16.3094 10.1045 16.7561 9.74086 16.9435C9.47773 17.079 9.20982 17.2048 8.93767 17.3207C9.05447 17.6731 9.1177 18.0498 9.1177 18.4413C9.1177 20.4068 7.52434 22.0002 5.55885 22.0002C3.59335 22.0002 2 20.4068 2 18.4413ZM7.28818 17.2899C7.29955 17.3095 7.31175 17.3284 7.3247 17.3466C7.52217 17.6645 7.63621 18.0396 7.63621 18.4413C7.63621 19.5886 6.70614 20.5187 5.55885 20.5187C4.41155 20.5187 3.48148 19.5886 3.48148 18.4413C3.48148 17.2941 4.41156 16.364 5.55885 16.364C6.28025 16.364 6.91577 16.7317 7.28818 17.2899ZM5.5679 18.7615C5.74976 18.7615 5.89712 18.6141 5.89712 18.4323C5.89712 18.2505 5.74976 18.1031 5.5679 18.1031C5.38604 18.1031 5.23868 18.2505 5.23868 18.4323C5.23868 18.6141 5.38604 18.7615 5.5679 18.7615ZM4.41564 18.4323C4.41564 17.796 4.93149 17.28 5.5679 17.28C6.20432 17.28 6.72016 17.796 6.72016 18.4323C6.72016 19.0686 6.20432 19.5845 5.5679 19.5845C4.93149 19.5845 4.41564 19.0686 4.41564 18.4323Z" fill="#1B1A16"/>
</svg>
