<svg width="24" height="24" viewBox="0 0 24 24" fill="none" xmlns="http://www.w3.org/2000/svg">
<path fill-rule="evenodd" clip-rule="evenodd" d="M15.5615 4.73322C15.5786 4.73321 15.5953 4.73932 15.6083 4.75047C15.6214 4.76162 15.6301 4.77728 15.6328 4.79424L16.292 8.90613L15.8202 9.9041C15.57 10.4333 15.1747 10.8806 14.6801 11.1938C14.4335 11.3499 14.1674 11.4696 13.8899 11.5503C13.9351 11.3746 13.9582 11.1934 13.9582 11.0111C13.9582 10.7227 13.9005 10.4373 13.7885 10.1715C13.6766 9.90574 13.5126 9.66506 13.3062 9.46361C13.0998 9.26217 12.8553 9.10404 12.5869 8.99852C12.3216 8.89422 12.0383 8.8434 11.7534 8.84896H10.3878L9.79358 6.66256C9.63943 6.0715 9.25996 5.56422 8.73633 5.24944C8.21122 4.93378 7.58316 4.83697 6.98738 4.97984C6.39159 5.12271 5.87575 5.49385 5.55092 6.01333C5.22699 6.53136 5.11887 7.15558 5.24955 7.75227L6.21629 12.3939L5.89081 13.5204C5.80394 13.5142 5.71623 13.511 5.62777 13.511C3.62421 13.511 2 15.1352 2 17.1388C2 19.1423 3.62421 20.7665 5.62777 20.7665C7.63134 20.7665 9.25555 19.1423 9.25555 17.1388C9.25555 15.7513 8.47663 14.5457 7.33222 13.9355L7.55245 13.1733H11.7534C11.7818 13.1738 11.8103 13.1738 11.8386 13.1733H13.0269C13.8964 13.1733 14.7481 12.9263 15.4827 12.461C15.9484 12.1661 16.3549 11.7911 16.6848 11.3559L17.0689 13.7522C15.7093 14.2758 14.7445 15.5946 14.7445 17.1388C14.7445 19.1423 16.3687 20.7665 18.3723 20.7665C20.3758 20.7665 22.0001 19.1423 22.0001 17.1388C22.0001 15.1948 20.4711 13.608 18.5501 13.5153L18.2573 11.6892H20.1301C20.5199 11.6892 20.8958 11.5444 21.1848 11.2829C21.4736 11.0218 21.6551 10.6628 21.6944 10.2755L21.6945 10.2742L21.996 7.35151C22.0178 7.14032 21.9491 6.9298 21.8069 6.77216C21.6647 6.61452 21.4623 6.52454 21.25 6.52454H17.4294L17.1139 4.55681C17.0548 4.18752 16.8659 3.8514 16.5813 3.60881C16.2967 3.36627 15.9348 3.23311 15.5609 3.23322H13.4586C13.0444 3.23322 12.7086 3.569 12.7086 3.98322C12.7086 4.39743 13.0444 4.73322 13.4586 4.73322L15.5615 4.73322ZM11.8194 11.6733H7.5984L6.71724 7.44227L6.71522 7.43314C6.6678 7.21891 6.70642 6.99463 6.82274 6.8086C6.93907 6.62256 7.12381 6.48965 7.33717 6.43849C7.55053 6.38732 7.77546 6.42199 7.96351 6.53504C8.15156 6.64808 8.28763 6.83047 8.34254 7.0429L9.09074 9.79567C9.17952 10.1223 9.47603 10.349 9.81449 10.349H11.7615L11.7796 10.3487C11.8679 10.3466 11.9558 10.3622 12.038 10.3945C12.1203 10.4268 12.1952 10.4753 12.2584 10.537C12.3216 10.5987 12.3719 10.6725 12.4062 10.7539C12.4405 10.8353 12.4582 10.9228 12.4582 11.0111C12.4582 11.0995 12.4405 11.1869 12.4062 11.2684C12.3719 11.3498 12.3216 11.4235 12.2584 11.4852C12.1952 11.547 12.1203 11.5954 12.038 11.6277C11.9682 11.6552 11.8942 11.6706 11.8194 11.6733ZM20.1301 10.1892H18.0169L17.6699 8.02454H20.4186L20.2022 10.1222L20.202 10.1242C20.2002 10.142 20.1919 10.1585 20.1786 10.1705C20.1653 10.1825 20.1481 10.1892 20.1301 10.1892ZM17.3157 15.2915L17.6308 17.2575C17.6964 17.6664 18.0811 17.9448 18.4901 17.8793C18.8991 17.8137 19.1775 17.429 19.1119 17.02L18.7966 15.0533C19.7685 15.25 20.5001 16.1089 20.5001 17.1388C20.5001 18.3139 19.5474 19.2665 18.3723 19.2665C17.1971 19.2665 16.2445 18.3139 16.2445 17.1388C16.2445 16.3482 16.6757 15.6583 17.3157 15.2915ZM4.90552 16.9305L5.4582 15.0176C4.36234 15.1041 3.5 16.0207 3.5 17.1388C3.5 18.3139 4.45264 19.2665 5.62777 19.2665C6.80291 19.2665 7.75555 18.3139 7.75555 17.1388C7.75555 16.4405 7.41917 15.8207 6.89962 15.4328L6.34658 17.3469C6.2316 17.7448 5.8158 17.9742 5.41787 17.8592C5.01993 17.7443 4.79055 17.3285 4.90552 16.9305Z" fill="#1B1A16"/>
</svg>
