<svg width="24" height="24" viewBox="0 0 24 24" fill="none" xmlns="http://www.w3.org/2000/svg">
<path fill-rule="evenodd" clip-rule="evenodd" d="M17.6226 4.8833C17.7422 5.27987 17.5177 5.69831 17.1211 5.81792L14.8134 6.51394L17.3116 12.08C17.5899 12.0163 17.8766 11.9834 18.1667 11.9834C19.1834 11.9834 20.1584 12.3873 20.8773 13.1062C21.5962 13.825 22 14.8001 22 15.8167C22 16.8334 21.5962 17.8084 20.8773 18.5273C20.1584 19.2462 19.1834 19.6501 18.1667 19.6501C17.15 19.6501 16.175 19.2462 15.4561 18.5273C14.7372 17.8084 14.3334 16.8334 14.3334 15.8167C14.3334 14.8001 14.7372 13.825 15.4561 13.1062C15.6077 12.9545 15.7708 12.8169 15.9431 12.6942L15.0098 10.6146L9.58063 12.0875L8.6939 13.2649C9.31873 13.9653 9.66667 14.8731 9.66667 15.8167C9.66667 16.8334 9.2628 17.8084 8.54391 18.5273C7.82502 19.2462 6.85 19.6501 5.83333 19.6501C4.81667 19.6501 3.84165 19.2462 3.12276 18.5273C2.40387 17.8084 2 16.8334 2 15.8167C2 14.8001 2.40387 13.825 3.12276 13.1062C3.84165 12.3873 4.81667 11.9834 5.83333 11.9834C6.41439 11.9834 6.98185 12.1153 7.49567 12.3626L8.24032 11.3738L6.63086 8.55005H5.21667C4.80246 8.55005 4.46667 8.21426 4.46667 7.80005C4.46667 7.38584 4.80246 7.05005 5.21667 7.05005H7.05244C7.06147 7.04989 7.07048 7.04989 7.07948 7.05005H9.53334C9.94756 7.05005 10.2833 7.38584 10.2833 7.80005C10.2833 8.21426 9.94756 8.55005 9.53334 8.55005H8.35741L9.50022 10.5551L14.3879 9.2291L13.3833 6.99083C13.3036 6.81373 13.2623 6.62104 13.2627 6.42682C13.2631 6.23237 13.305 6.04025 13.3856 5.8633C13.4662 5.68635 13.5837 5.52866 13.7302 5.40076C13.8765 5.27297 14.0485 5.17787 14.2345 5.12182L16.688 4.38182C17.0846 4.26221 17.503 4.48673 17.6226 4.8833ZM6.56337 13.6005C6.32994 13.5236 6.08371 13.4834 5.83333 13.4834C5.21449 13.4834 4.621 13.7292 4.18342 14.1668C3.74583 14.6044 3.5 15.1979 3.5 15.8167C3.5 16.4356 3.74583 17.0291 4.18342 17.4666C4.621 17.9042 5.21449 18.1501 5.83333 18.1501C6.45217 18.1501 7.04566 17.9042 7.48325 17.4666C7.92083 17.0291 8.16667 16.4356 8.16667 15.8167C8.16667 15.3447 8.02365 14.8875 7.76162 14.5029L6.4324 16.2679C6.18322 16.5988 5.71299 16.665 5.38211 16.4158C5.05123 16.1666 4.985 15.6964 5.23419 15.3655L6.56337 13.6005ZM17.4824 16.1238L16.5777 14.1081C16.5571 14.1272 16.5368 14.1468 16.5168 14.1668C16.0792 14.6044 15.8334 15.1979 15.8334 15.8167C15.8334 16.4356 16.0792 17.0291 16.5168 17.4666C16.9544 17.9042 17.5479 18.1501 18.1667 18.1501C18.7855 18.1501 19.379 17.9042 19.8166 17.4666C20.2542 17.0291 20.5 16.4356 20.5 15.8167C20.5 15.1979 20.2542 14.6044 19.8166 14.1668C19.379 13.7292 18.7855 13.4834 18.1667 13.4834C18.0928 13.4834 18.0192 13.4869 17.9462 13.4938L18.8509 15.5096C19.0205 15.8875 18.8517 16.3313 18.4738 16.5009C18.0959 16.6706 17.6521 16.5017 17.4824 16.1238Z" fill="#1B1A16"/>
</svg>
0.1918 10.1586 20.1785 10.1707C20.1652 10.1827 20.1479 10.1893 20.13 10.1893H18.0169ZM17.3157 15.2915L17.6309 17.2576C17.6964 17.6666 18.0811 17.945 18.4901 17.8794C18.8991 17.8138 19.1775 17.4291 19.1119 17.0202L18.7967 15.0535C19.7684 15.2502 20.4999 16.1091 20.4999 17.1389C20.4999 18.314 19.5473 19.2667 18.3722 19.2667C17.197 19.2667 16.2444 18.314 16.2444 17.1389C16.2444 16.3483 16.6756 15.6583 17.3157 15.2915ZM4.90564 16.9307L5.45834 15.0178C4.36242 15.1041 3.5 16.0208 3.5 17.1389C3.5 18.314 4.45264 19.2667 5.62778 19.2667C6.80292 19.2667 7.75556 18.314 7.75556 17.1389C7.75556 16.4406 7.41923 15.8209 6.89973 15.433L6.3467 17.347C6.23172 17.745 5.81593 17.9744 5.41799 17.8594C5.02005 17.7444 4.79067 17.3286 4.90564 16.9307Z" fill="#1B1A16"/>
</svg>
