<svg width="24" height="24" viewBox="0 0 24 24" fill="none" xmlns="http://www.w3.org/2000/svg">
<path fill-rule="evenodd" clip-rule="evenodd" d="M6.71488 5.19334C6.31303 5.0929 5.90584 5.33723 5.8054 5.73909C5.70496 6.14094 5.9493 6.54813 6.35115 6.64857L7.74494 6.99695L9.83938 12.2724L8.91142 12.711C8.80017 12.5612 8.67748 12.4187 8.54391 12.2852C7.82502 11.5663 6.85 11.1624 5.83333 11.1624C4.81667 11.1624 3.84165 11.5663 3.12276 12.2852C2.40387 13.0041 2 13.9791 2 14.9957C2 16.0124 2.40387 16.9874 3.12276 17.7063C3.84165 18.4252 4.81667 18.8291 5.83333 18.8291C6.85 18.8291 7.82502 18.4252 8.54391 17.7063C9.2628 16.9874 9.66667 16.0124 9.66667 14.9957C9.66667 14.6801 9.62773 14.3684 9.5525 14.0671L11.0941 13.3384C11.1099 13.3315 11.1254 13.3242 11.1404 13.3165L15.8592 11.0857L16.1172 11.7563C15.8798 11.9065 15.6579 12.0834 15.4561 12.2852C14.7372 13.0041 14.3334 13.9791 14.3334 14.9957C14.3334 16.0124 14.7372 16.9874 15.4561 17.7063C16.175 18.4252 17.15 18.8291 18.1667 18.8291C19.1834 18.8291 20.1584 18.4252 20.8773 17.7063C21.5962 16.9874 22 16.0124 22 14.9957C22 13.9791 21.5962 13.0041 20.8773 12.2852C20.1584 11.5663 19.1834 11.1624 18.1667 11.1624C17.9475 11.1624 17.7303 11.1812 17.5172 11.2178L16.1754 7.72919H18.7833C18.9115 7.72919 19.0345 7.78011 19.1251 7.87075C19.2157 7.96139 19.2667 8.08433 19.2667 8.21252C19.2667 8.3407 19.2157 8.46364 19.1251 8.55428C19.0345 8.64493 18.9115 8.69585 18.7833 8.69585C18.3691 8.69585 18.0333 9.03164 18.0333 9.44585C18.0333 9.86006 18.3691 10.1958 18.7833 10.1958C19.3093 10.1958 19.8138 9.98689 20.1858 9.61495C20.5577 9.243 20.7667 8.73853 20.7667 8.21252C20.7667 7.6865 20.5577 7.18204 20.1858 6.81009C19.8138 6.43814 19.3093 6.22919 18.7833 6.22919H15.9812L15.9797 6.22919C15.7582 6.22965 15.5402 6.28387 15.3444 6.38719C15.1485 6.49052 14.9807 6.63986 14.8553 6.82237C14.7299 7.00489 14.6508 7.21513 14.6246 7.435C14.5984 7.65488 14.626 7.87782 14.705 8.08468L15.3193 9.68179L11.1982 11.63L9.53664 7.44479L10.5848 7.70677C10.9866 7.80721 11.3938 7.56287 11.4943 7.16102C11.5947 6.75917 11.3504 6.35198 10.9485 6.25154L8.49645 5.63864C8.48637 5.6359 8.47623 5.63336 8.46603 5.63104L6.71488 5.19334ZM7.51034 13.3734L5.51277 14.3177C5.13829 14.4947 4.97823 14.9418 5.15525 15.3163C5.33228 15.6908 5.77937 15.8508 6.15385 15.6738L8.15143 14.7295C8.16153 14.8174 8.16667 14.9063 8.16667 14.9957C8.16667 15.6146 7.92083 16.2081 7.48325 16.6457C7.04566 17.0832 6.45217 17.3291 5.83333 17.3291C5.21449 17.3291 4.621 17.0832 4.18342 16.6457C3.74583 16.2081 3.5 15.6146 3.5 14.9957C3.5 14.3769 3.74583 13.7834 4.18342 13.3458C4.621 12.9082 5.21449 12.6624 5.83333 12.6624C6.45217 12.6624 7.04566 12.9082 7.48325 13.3458C7.49236 13.3549 7.50139 13.3641 7.51034 13.3734ZM17.4667 15.2651L16.6735 13.2028C16.6193 13.2479 16.567 13.2956 16.5168 13.3458C16.0792 13.7834 15.8334 14.3769 15.8334 14.9957C15.8334 15.6146 16.0792 16.2081 16.5168 16.6457C16.9544 17.0832 17.5479 17.3291 18.1667 17.3291C18.7855 17.3291 19.379 17.0832 19.8166 16.6457C20.2542 16.2081 20.5 15.6146 20.5 14.9957C20.5 14.3769 20.2542 13.7834 19.8166 13.3458C19.379 12.9082 18.7855 12.6624 18.1667 12.6624C18.1356 12.6624 18.1045 12.663 18.0735 12.6643L18.8667 14.7266C19.0154 15.1132 18.8225 15.5472 18.4359 15.6959C18.0493 15.8445 17.6153 15.6517 17.4667 15.2651Z" fill="#1B1A16"/>
</svg>
