<svg width="24" height="24" viewBox="0 0 24 24" fill="none" xmlns="http://www.w3.org/2000/svg">
<path d="M18.057 22H5.98801C5.83201 22 5.68001 21.969 5.53501 21.907C5.37701 21.838 5.24801 21.745 5.14001 21.628C5.03601 21.52 4.95201 21.38 4.89801 21.224C4.84701 21.076 4.82701 20.921 4.83801 20.765L5.89001 13.054C6.01101 12.359 5.56001 11.666 5.08301 10.932C4.28001 9.697 3.18101 8.005 5.16601 6.102C5.67501 5.611 5.75301 5.121 5.90601 3.774L5.99601 3.008C6.03101 2.729 6.16601 2.473 6.37801 2.287C6.58801 2.102 6.85801 2 7.13801 2H8.40301C8.55701 2 8.70601 2.03 8.84701 2.089C8.98001 2.144 9.10501 2.227 9.21401 2.334C9.32801 2.449 9.41101 2.575 9.46801 2.713C9.52501 2.848 9.55501 2.998 9.55501 3.152C9.55501 5.424 9.90601 5.936 10.752 7.171C11.092 7.668 11.522 8.294 12.022 9.173C12.522 8.294 12.951 7.669 13.292 7.172C14.139 5.937 14.489 5.426 14.489 3.153C14.489 2.844 14.609 2.554 14.829 2.336C15.041 2.123 15.338 2 15.642 2H16.907C17.187 2 17.458 2.102 17.668 2.288C17.882 2.477 18.017 2.734 18.05 3.013L18.138 3.76C18.296 5.15 18.37 5.613 18.88 6.103C20.873 8.016 19.61 9.771 18.775 10.933C18.244 11.671 17.742 12.369 17.857 13.027L19.198 20.69C19.22 20.917 19.2 21.077 19.145 21.231C19.092 21.38 19.011 21.516 18.903 21.632C18.803 21.742 18.67 21.838 18.522 21.903C18.364 21.969 18.212 22 18.057 22ZM6.38701 20.5H17.643L16.378 13.284C16.154 12.004 16.899 10.969 17.557 10.055C18.485 8.765 18.852 8.154 17.84 7.183C16.915 6.295 16.809 5.353 16.647 3.927L16.597 3.5H15.987C15.946 5.849 15.471 6.647 14.53 8.02C14.045 8.728 13.44 9.61 12.693 11.103C12.566 11.357 12.307 11.518 12.023 11.518C11.739 11.518 11.479 11.357 11.352 11.103C10.604 9.609 10 8.728 9.51501 8.019C8.57401 6.646 8.09901 5.849 8.05801 3.5H7.44801L7.39601 3.942C7.23601 5.356 7.13101 6.291 6.20601 7.182C5.16001 8.186 5.49201 8.806 6.34201 10.114C6.92701 11.014 7.59101 12.035 7.37301 13.284L6.38701 20.5Z" fill="#1B1A16"/>
</svg>
