<svg width="24" height="24" viewBox="0 0 24 24" fill="none" xmlns="http://www.w3.org/2000/svg">
<path fill-rule="evenodd" clip-rule="evenodd" d="M7.81014 3.39082C8.23991 2.96105 8.82281 2.7196 9.43059 2.7196C10.0384 2.7196 10.6213 2.96105 11.051 3.39082C11.4808 3.82059 11.7223 4.40349 11.7223 5.01127C11.7223 5.61906 11.4808 6.20196 11.051 6.63173C10.6213 7.0615 10.0384 7.30294 9.43059 7.30294C8.82281 7.30294 8.23991 7.0615 7.81014 6.63173C7.38037 6.20196 7.13893 5.61906 7.13893 5.01127C7.13893 4.40348 7.38037 3.82059 7.81014 3.39082ZM9.43059 4.2196C9.22063 4.2196 9.01927 4.30301 8.8708 4.45148C8.72234 4.59995 8.63893 4.80131 8.63893 5.01127C8.63893 5.22124 8.72234 5.4226 8.8708 5.57107C9.01927 5.71953 9.22063 5.80294 9.43059 5.80294C9.64056 5.80294 9.84192 5.71953 9.99039 5.57107C10.1389 5.4226 10.2223 5.22124 10.2223 5.01127C10.2223 4.80131 10.1389 4.59994 9.99039 4.45148C9.84192 4.30301 9.64056 4.2196 9.43059 4.2196ZM12.7435 3.39082C13.1732 2.96105 13.7561 2.7196 14.3639 2.7196C14.9717 2.7196 15.5546 2.96105 15.9844 3.39082C16.4142 3.82059 16.6556 4.40348 16.6556 5.01127C16.6556 5.61906 16.4142 6.20196 15.9844 6.63173C15.5546 7.0615 14.9717 7.30294 14.3639 7.30294C13.7561 7.30294 13.1732 7.0615 12.7435 6.63173C12.3137 6.20196 12.0723 5.61906 12.0723 5.01127C12.0723 4.40349 12.3137 3.82059 12.7435 3.39082ZM14.3639 4.2196C14.154 4.2196 13.9526 4.30301 13.8041 4.45148C13.6557 4.59994 13.5723 4.80131 13.5723 5.01127C13.5723 5.22124 13.6557 5.4226 13.8041 5.57107C13.9526 5.71953 14.154 5.80294 14.3639 5.80294C14.5739 5.80294 14.7753 5.71953 14.9237 5.57107C15.0722 5.4226 15.1556 5.22124 15.1556 5.01127C15.1556 4.80131 15.0722 4.59995 14.9237 4.45148C14.7753 4.30301 14.5739 4.2196 14.3639 4.2196ZM4.6 8.94738C4.30826 8.94738 4.02847 9.06327 3.82218 9.26956C3.61589 9.47585 3.5 9.75564 3.5 10.0474C3.5 10.4616 3.16421 10.7974 2.75 10.7974C2.33579 10.7974 2 10.4616 2 10.0474C2 9.35782 2.27393 8.6965 2.76152 8.2089C3.24912 7.72131 3.91044 7.44738 4.6 7.44738H19.4C20.0896 7.44738 20.7509 7.72131 21.2385 8.2089C21.7261 8.6965 22 9.35782 22 10.0474C22 10.4616 21.6642 10.7974 21.25 10.7974C20.8358 10.7974 20.5 10.4616 20.5 10.0474C20.5 9.75564 20.3841 9.47585 20.1778 9.26956C19.9715 9.06327 19.6917 8.94738 19.4 8.94738H18.558L20.5394 15.5521C20.7387 16.2167 20.7799 16.9187 20.6596 17.6021C20.5394 18.2854 20.261 18.9312 19.8467 19.4878C19.4324 20.0444 18.8937 20.4964 18.2735 20.8077C17.6535 21.119 16.9693 21.281 16.2756 21.2807C16.2755 21.2807 16.2757 21.2807 16.2756 21.2807H7.72445C7.03075 21.2807 6.34663 21.1185 5.72678 20.807C5.10693 20.4956 4.56847 20.0436 4.15439 19.487C3.74031 18.9304 3.46209 18.2848 3.34192 17.6016C3.22176 16.9184 3.26297 16.2166 3.46226 15.5522C3.46224 15.5523 3.46227 15.5522 3.46226 15.5522L5.4422 8.94738H4.6ZM7.00815 8.94738L4.89909 15.983C4.76695 16.4234 4.73958 16.8888 4.81924 17.3417C4.8989 17.7947 5.08335 18.2227 5.35785 18.5916C5.63235 18.9606 5.9893 19.2602 6.40022 19.4667C6.81112 19.6732 7.2646 19.7807 7.72445 19.7807C7.72444 19.7807 7.72446 19.7807 7.72445 19.7807H16.2756C16.7355 19.7809 17.1895 19.6735 17.6006 19.4672C18.0116 19.2608 18.3688 18.9611 18.6434 18.5922C18.9181 18.2232 19.1026 17.7951 19.1824 17.3421C19.2621 16.8891 19.2348 16.4237 19.1026 15.9831L16.992 8.94738H7.00815Z" fill="#1B1A16"/>
</svg>
