<svg width="24" height="24" viewBox="0 0 24 24" fill="none" xmlns="http://www.w3.org/2000/svg">
<path d="M18.908 17.478C18.501 16.79 17.915 16.225 17.213 15.842L13.738 13.946C13.45 13.789 13.215 13.555 13.056 13.269C12.898 12.982 12.826 12.659 12.845 12.332L13.365 4.036C13.381 3.796 13.28 3.564 13.094 3.411C11.994 2.501 10.601 2 9.17299 2C9.07599 2 8.97899 2.002 8.95299 2.007C8.94499 2.007 8.93599 2.008 8.92799 2.008C8.92499 2.008 8.92099 2.006 8.91799 2.006C8.91199 2.006 8.90699 2.009 8.90199 2.009C7.38999 1.949 5.90199 2.45 4.74099 3.411C4.56799 3.554 4.46899 3.766 4.46899 3.989V16.318V20.017C4.46899 20.54 4.68099 21.051 5.04999 21.417C5.41799 21.788 5.92899 22 6.45199 22C6.98199 22 7.47999 21.794 7.85399 21.42C8.22299 21.051 8.43499 20.54 8.43499 20.018V19.366L11.581 21.465C12.11 21.814 12.725 22 13.358 22H13.363H17.277C17.572 22 17.862 21.942 18.14 21.829C18.413 21.715 18.66 21.551 18.87 21.34C19.082 21.128 19.247 20.881 19.357 20.611C19.471 20.336 19.53 20.045 19.53 19.746C19.531 18.948 19.315 18.163 18.908 17.478ZM6.93499 20.018C6.93499 20.145 6.88399 20.269 6.79399 20.359C6.61299 20.54 6.29399 20.542 6.10999 20.358C6.02099 20.269 5.96899 20.145 5.96899 20.018V17.72L6.93499 18.365V20.018ZM17.972 20.039C17.936 20.126 17.88 20.21 17.811 20.279C17.741 20.348 17.657 20.405 17.57 20.441C17.475 20.48 17.378 20.5 17.278 20.5H13.362H13.359C13.021 20.5 12.693 20.401 12.412 20.215L5.96999 15.917V4.359C6.61799 3.899 7.37899 3.624 8.16899 3.539V12.62C8.16899 13.034 8.50499 13.37 8.91899 13.37C9.33299 13.37 9.66899 13.034 9.66899 12.62V3.531C10.452 3.615 11.2 3.891 11.845 4.342L11.35 12.238C11.312 12.85 11.448 13.456 11.745 13.993C12.04 14.529 12.482 14.968 13.021 15.262L16.496 17.158C16.962 17.412 17.35 17.786 17.62 18.242C17.891 18.697 18.033 19.218 18.033 19.746C18.031 19.846 18.012 19.942 17.972 20.039Z" fill="#1B1A16"/>
</svg>
