<svg width="24" height="24" viewBox="0 0 24 24" fill="none" xmlns="http://www.w3.org/2000/svg">
<path fill-rule="evenodd" clip-rule="evenodd" d="M4.06 3.03188C4.95089 2.49735 6.31824 2 8.30004 2C10.2818 2 11.6492 2.49735 12.5401 3.03188C12.9826 3.29741 13.3003 3.56773 13.5132 3.78061C13.6195 3.88696 13.6996 3.97887 13.7561 4.04861C13.7843 4.08348 13.8066 4.11283 13.8234 4.1357C13.8318 4.14714 13.8388 4.15696 13.8445 4.16504L13.8519 4.17585L13.8549 4.18025L13.8562 4.1822L13.8568 4.18311L13.8574 4.18397C13.9814 4.36991 14.016 4.60145 13.9517 4.81549C13.7678 5.42857 13.4853 6.14995 13.1999 6.87874C13.098 7.13895 12.9957 7.40009 12.8974 7.6576C12.5104 8.67167 12.1694 9.66516 12.0296 10.5389C11.8868 11.4312 11.9816 12.031 12.2609 12.4017C12.522 12.7484 13.1052 13.1 14.4667 13.1C16.3011 13.1 18.0604 13.8287 19.3575 15.1258C20.3121 16.0805 20.9589 17.2854 21.2339 18.5864C21.2421 18.6166 21.2485 18.6476 21.2528 18.6792C21.3391 19.1166 21.3834 19.5643 21.3834 20.0167C21.3834 20.5427 21.1744 21.0471 20.8025 21.4191C20.4305 21.791 19.926 22 19.4 22H9.53337C9.11916 22 8.78337 21.6642 8.78337 21.25V20.0167C8.78337 19.7263 8.70979 19.4435 8.57297 19.1932C8.55802 19.1703 8.54429 19.1466 8.53186 19.1221C8.4616 19.007 8.37748 18.8997 8.28057 18.8028C8.14412 18.6663 7.98706 18.5552 7.81671 18.4725V21.25C7.81671 21.6642 7.48092 22 7.06671 22H4.60004C4.07403 22 3.56956 21.791 3.19761 21.4191C2.82566 21.0471 2.61671 20.5427 2.61671 20.0167V18.7869L2.6167 18.7833L2.61671 18.7798V4.6C2.61671 4.45193 2.66054 4.30718 2.74267 4.18398C2.74386 4.1822 2.74325 4.18311 2.74325 4.18311L2.74386 4.1822L2.74516 4.18025L2.74815 4.17585L2.75562 4.16504C2.76127 4.15696 2.76827 4.14714 2.77666 4.1357C2.79343 4.11283 2.81576 4.08348 2.84399 4.04861C2.90045 3.97887 2.98054 3.88696 3.0869 3.78061C3.29978 3.56773 3.61746 3.29741 4.06 3.03188ZM4.11671 4.87267V18.0333H6.31671V17.55C6.31671 17.3511 6.39572 17.1603 6.53638 17.0197C6.67703 16.879 6.86779 16.8 7.06671 16.8C7.91982 16.8 8.73799 17.1389 9.34123 17.7421C9.43348 17.8344 9.51955 17.9317 9.59918 18.0333H19.5072C19.2374 17.3477 18.828 16.7176 18.2969 16.1865C17.281 15.1707 15.9033 14.6 14.4667 14.6C12.8916 14.6 11.7328 14.1938 11.0627 13.3042C10.4107 12.4387 10.3849 11.3237 10.5484 10.3019C10.7149 9.26163 11.1071 8.14185 11.4961 7.1227C11.6082 6.82894 11.7192 6.54549 11.8259 6.27292C12.0384 5.73022 12.234 5.23067 12.388 4.77891C12.2513 4.65095 12.0486 4.48628 11.7683 4.31812C11.1176 3.92765 10.0182 3.5 8.30004 3.5C6.58184 3.5 5.48252 3.92765 4.83175 4.31812C4.50346 4.51509 4.28155 4.70727 4.14756 4.84127C4.1367 4.85212 4.12642 4.8626 4.11671 4.87267ZM19.8618 19.5333H10.2469C10.271 19.6923 10.2834 19.8539 10.2834 20.0167V20.5H19.4C19.5282 20.5 19.6512 20.4491 19.7418 20.3584C19.8324 20.2678 19.8834 20.1449 19.8834 20.0167C19.8834 19.8547 19.8761 19.6934 19.8618 19.5333ZM6.31671 19.5333H4.11671V20.0167C4.11671 20.1449 4.16763 20.2678 4.25827 20.3584C4.34891 20.4491 4.47185 20.5 4.60004 20.5H6.31671V19.5333Z" fill="#1B1A16"/>
</svg>
