<svg width="24" height="24" viewBox="0 0 24 24" fill="none" xmlns="http://www.w3.org/2000/svg">
<path fill-rule="evenodd" clip-rule="evenodd" d="M7.00337 3.30337C7.83791 2.46884 8.96979 2 10.15 2H16.3167C17.824 2 19.2696 2.59878 20.3354 3.66461C21.4012 4.73044 22 6.17602 22 7.68333V11.3833C22 12.9129 21.2112 13.8663 20.5772 14.5795L20.5221 14.6415C19.8719 15.3725 19.5333 15.7532 19.5333 16.3167V20.0167C19.5333 20.5427 19.3244 21.0471 18.9524 21.4191C18.5805 21.791 18.076 22 17.55 22H7.68333C7.15732 22 6.65285 21.791 6.2809 21.4191C5.90896 21.0471 5.7 20.5427 5.7 20.0167V18.792C5.69997 18.7891 5.69995 18.7862 5.69995 18.7833V17.003C4.79807 16.8488 3.95897 16.4189 3.30337 15.7633C2.46884 14.9288 2 13.7969 2 12.6167V9.53333C2 8.84377 2.27393 8.18245 2.76152 7.69486C3.24912 7.20726 3.91044 6.93333 4.6 6.93333C4.98377 6.93333 5.3588 7.01818 5.7 7.17749V6.45C5.7 5.26979 6.16884 4.13791 7.00337 3.30337ZM7.2 18.0333V17.0667H10.15C10.2781 17.0667 10.4011 17.1176 10.4917 17.2082C10.5824 17.2989 10.6333 17.4218 10.6333 17.55C10.6333 17.6782 10.5824 17.8011 10.4917 17.8918C10.4011 17.9824 10.2781 18.0333 10.15 18.0333H7.2ZM7.2 19.5333H10.15C10.676 19.5333 11.1804 19.3244 11.5524 18.9524C11.9243 18.5805 12.1333 18.076 12.1333 17.55C12.1333 17.024 11.9243 16.5195 11.5524 16.1476C11.1804 15.7756 10.676 15.5667 10.15 15.5667H6.44995C6.44847 15.5667 6.447 15.5667 6.44552 15.5667C5.66475 15.5655 4.91621 15.2548 4.36403 14.7026C3.8108 14.1494 3.5 13.3991 3.5 12.6167V9.53333C3.5 9.2416 3.61589 8.96181 3.82218 8.75552C4.02847 8.54923 4.30826 8.43333 4.6 8.43333C4.89174 8.43333 5.17153 8.54923 5.37782 8.75552C5.58254 8.96024 5.69823 9.23735 5.69998 9.52668L5.69995 9.53333V10.7667C5.69995 11.4562 5.97388 12.1175 6.46147 12.6051C6.94907 13.0927 7.61039 13.3667 8.29995 13.3667H13.85C14.7031 13.3667 15.5212 13.0278 16.1245 12.4245C16.7277 11.8213 17.0666 11.0031 17.0666 10.15C17.0666 9.73578 16.7308 9.39999 16.3166 9.39999C15.9024 9.39999 15.5666 9.73578 15.5666 10.15C15.5666 10.6053 15.3858 11.0419 15.0638 11.3639C14.7419 11.6858 14.3052 11.8667 13.85 11.8667H8.29995C8.00821 11.8667 7.72842 11.7508 7.52213 11.5445C7.31584 11.3382 7.19995 11.0584 7.19995 10.7667V9.54197L7.2 9.53333V6.45C7.2 5.66761 7.5108 4.91727 8.06403 4.36403C8.61727 3.8108 9.36761 3.5 10.15 3.5H16.3167C17.4262 3.5 18.4902 3.94074 19.2747 4.72527C20.0593 5.5098 20.5 6.57384 20.5 7.68333V11.3833C20.5 12.3204 20.0555 12.9087 19.4561 13.583C19.4091 13.6359 19.3596 13.6905 19.3085 13.747C18.7649 14.3473 18.0333 15.1552 18.0333 16.3167V20.0167C18.0333 20.1449 17.9824 20.2678 17.8918 20.3584C17.8011 20.4491 17.6782 20.5 17.55 20.5H7.68333C7.55515 20.5 7.43221 20.4491 7.34157 20.3584C7.25092 20.2678 7.2 20.1449 7.2 20.0167V19.5333Z" fill="#1B1A16"/>
</svg>
