<svg width="24" height="24" viewBox="0 0 24 24" fill="none" xmlns="http://www.w3.org/2000/svg">
<path fill-rule="evenodd" clip-rule="evenodd" d="M12.6263 19.372C13.3951 19.9382 14.3259 20.2431 15.2815 20.2416L15.592 20.2516C16.6562 20.1729 17.6577 19.7194 18.4176 18.9721C19.0693 18.3257 19.5065 17.4953 19.67 16.5931C20.0372 16.3948 20.3745 16.1458 20.672 15.8534C21.1924 15.3382 21.5778 14.7031 21.7942 14.0042C22.0137 13.3057 22.055 12.5636 21.9144 11.8451C21.7848 11.1125 21.4711 10.4247 21.0026 9.84593C20.6574 9.42322 20.2402 9.06454 19.7702 8.78637C19.7821 8.27775 19.7076 7.77079 19.5498 7.28699C19.3366 6.61917 18.9654 6.01234 18.4676 5.51773C17.9685 5.02535 17.3613 4.65574 16.6941 4.43818C16.2071 4.27527 15.6948 4.20079 15.1813 4.21827C14.8399 3.6229 14.3628 3.11609 13.7886 2.73889C13.0593 2.25266 12.2009 1.99506 11.3237 1.99919C10.4515 1.99766 9.5981 2.25136 8.86899 2.72889C8.26125 3.12618 7.7593 3.66471 7.40618 4.29824C6.50844 4.46981 5.68385 4.90896 5.04148 5.55771C4.29311 6.31228 3.83856 7.30801 3.75907 8.36654C3.67115 9.43588 3.97359 10.5009 4.61071 11.3653C5.03465 11.9511 5.59226 12.4206 6.2314 12.7387C5.40609 13.8599 4.27171 14.9546 2.7871 16.0832C2.55778 16.25 2.37226 16.4694 2.24613 16.723C2.1064 16.9716 2.02424 17.2482 2.00567 17.5326C1.99424 17.815 2.0385 18.0969 2.13593 18.3623C2.2391 18.6256 2.39214 18.8665 2.58675 19.072L4.94131 21.411C5.14286 21.6131 5.3855 21.7699 5.65278 21.8708C5.87729 21.9542 6.11454 21.9982 6.35409 22.0008L6.45426 21.9608C6.73808 21.9425 7.01479 21.8641 7.2659 21.7309C7.51641 21.5952 7.73504 21.4078 7.90716 21.1811C9.03953 19.713 10.1377 18.5813 11.2626 17.7556C11.5786 18.3912 12.0444 18.947 12.6263 19.372ZM15.7488 15.1752C15.8865 15.3378 16.0681 15.459 16.2733 15.5235C16.4632 15.5833 16.6216 15.7158 16.7136 15.892C16.8057 16.0682 16.8239 16.2736 16.7643 16.4631C16.7101 16.6095 16.6114 16.7354 16.4821 16.8232C16.3528 16.911 16.1993 16.9564 16.0429 16.9529C15.9697 16.9627 15.8955 16.9627 15.8224 16.9529C15.3661 16.81 14.9599 16.5466 14.6448 16.1938C13.9189 16.3491 13.2226 16.6004 12.5435 16.9537C12.751 17.4345 13.0823 17.8559 13.508 18.1725C14.0865 18.5947 14.7972 18.7967 15.5119 18.7422C16.2185 18.6851 16.8822 18.3806 17.3856 17.8826C17.8959 17.3871 18.2061 16.7219 18.2572 16.0134C18.27 15.878 18.3183 15.7485 18.3975 15.6378C18.4767 15.5272 18.5839 15.4395 18.7081 15.3836C19.0493 15.2422 19.3592 15.035 19.6199 14.7739C19.9697 14.4334 20.2281 14.0106 20.3713 13.5444C20.5126 13.0778 20.5401 12.5843 20.4515 12.105C20.3577 11.6253 20.1479 11.1758 19.8403 10.7955C19.5345 10.4214 19.1426 10.1265 18.698 9.93589C18.5439 9.86941 18.4162 9.75397 18.3347 9.60754C18.2531 9.46111 18.2224 9.29189 18.2472 9.12623C18.3172 8.66739 18.2795 8.19862 18.137 7.7568C17.9857 7.31876 17.7394 6.91942 17.4156 6.58728C17.0859 6.26015 16.6846 6.01379 16.2433 5.86758C15.8005 5.72545 15.3306 5.68782 14.8707 5.75763C14.7046 5.78241 14.5349 5.75174 14.3882 5.67039C14.2414 5.58904 14.1257 5.46157 14.059 5.30782C13.8295 4.77519 13.4502 4.32035 12.9669 3.99836C12.4829 3.67802 11.9146 3.50761 11.3337 3.50857C10.7503 3.50146 10.1781 3.66855 9.69053 3.98837C9.20585 4.31145 8.82355 4.76568 8.58842 5.29782C8.53407 5.42096 8.44793 5.5275 8.33878 5.60653C8.22964 5.68556 8.10141 5.73425 7.96721 5.74763C7.26634 5.81207 6.61039 6.11983 6.11363 6.61727C5.61811 7.12095 5.31656 7.78285 5.262 8.48649C5.19713 9.19896 5.39673 9.91039 5.82303 10.4857C6.13668 10.912 6.55578 11.2453 7.03537 11.4559C7.39361 10.7672 7.64653 10.0608 7.80297 9.32369C7.46801 9.00867 7.21962 8.61027 7.08528 8.1666C7.05434 8.07279 7.0425 7.97375 7.05054 7.87532C7.05858 7.77689 7.08636 7.68106 7.13212 7.59349C7.17788 7.50591 7.24077 7.42837 7.31705 7.36542C7.39333 7.30248 7.48142 7.25541 7.57622 7.22699C7.76622 7.16746 7.97215 7.18561 8.14875 7.27745C8.32534 7.36929 8.45823 7.52731 8.51812 7.71679C8.59132 7.95881 8.74728 8.16752 8.95892 8.30654L8.9682 8.31255C8.993 8.32544 9.01707 8.33967 9.0403 8.3552C9.23837 8.46307 9.4639 8.51246 9.69032 8.49646C9.80574 8.4857 9.91803 8.45757 10.0236 8.41365C10.0949 8.3531 10.1774 8.30587 10.2673 8.27511C10.3 8.25074 10.3315 8.22454 10.3617 8.19659C10.5478 8.02221 10.668 7.78926 10.7023 7.53686C10.7134 7.43944 10.744 7.3452 10.792 7.25962C10.8399 7.17404 10.9045 7.09883 10.9819 7.03837C11.0593 6.97791 11.1479 6.93341 11.2427 6.90744C11.3374 6.88148 11.4365 6.87458 11.534 6.88713C11.6317 6.89825 11.7261 6.92863 11.8119 6.97651C11.8977 7.02438 11.973 7.08879 12.0336 7.16599C12.0942 7.24319 12.1388 7.33165 12.1649 7.4262C12.1909 7.52076 12.1978 7.61954 12.1852 7.71679C12.1362 8.12588 11.9913 8.51488 11.7653 8.85359C12.0283 9.02509 12.2837 9.20696 12.5309 9.39865C12.5917 9.43302 12.6474 9.47585 12.6963 9.52597L12.706 9.53582L12.7115 9.54159C13.3403 10.0496 13.9136 10.6223 14.422 11.2502C14.4349 11.2614 14.4475 11.2731 14.4597 11.2853C14.5141 11.3396 14.5593 11.4015 14.5943 11.4683C14.7936 11.7271 14.9821 11.9946 15.1592 12.2703C15.4947 12.0487 15.879 11.9055 16.2833 11.8551C16.3821 11.8425 16.4824 11.8497 16.5784 11.8762C16.6743 11.9026 16.7642 11.9479 16.8425 12.0093C16.9209 12.0706 16.9861 12.1469 17.0346 12.2337C17.0831 12.3205 17.1138 12.4161 17.1249 12.5148C17.1375 12.612 17.1307 12.7108 17.1046 12.8054C17.0786 12.8999 17.034 12.9884 16.9734 13.0656C16.9128 13.1428 16.8373 13.2072 16.7515 13.2551C16.6658 13.3029 16.5713 13.3333 16.4737 13.3444C16.2189 13.3753 15.9823 13.4916 15.8024 13.6743C15.6239 13.8587 15.5142 14.0987 15.4918 14.354C15.4778 14.5145 15.4982 14.6749 15.5503 14.8252C15.647 14.9215 15.7158 15.0425 15.7488 15.1752ZM14.0059 14.7987C11.3754 15.466 9.03696 17.2275 6.71478 20.2715C6.67117 20.3283 6.61664 20.3759 6.55443 20.4114C6.49229 20.443 6.42382 20.4601 6.35409 20.4614C6.28818 20.4768 6.21966 20.4768 6.15375 20.4614C6.08524 20.4407 6.02311 20.4028 5.97335 20.3515L3.62882 18.0024C3.57768 17.9545 3.53678 17.8967 3.50859 17.8325C3.49965 17.7662 3.49965 17.6989 3.50859 17.6326C3.51797 17.56 3.53817 17.4893 3.56865 17.4227C3.60087 17.364 3.64528 17.3129 3.6989 17.2728C6.76925 14.9484 8.53739 12.6078 9.19398 9.97288C9.31154 9.98855 9.43049 9.99628 9.55003 9.99584L9.82058 10.0058C10.0702 9.98475 10.3135 9.92777 10.5434 9.83812C10.7054 9.93275 10.8644 10.0317 11.0204 10.135L9.89093 11.2552C9.75021 11.3958 9.67114 11.5864 9.67114 11.785C9.67114 11.9837 9.75021 12.1742 9.89093 12.3148C9.96183 12.3856 10.0462 12.4416 10.1391 12.4794C10.232 12.5171 10.3316 12.536 10.4319 12.5347C10.5306 12.5352 10.6285 12.516 10.7197 12.4782C10.8109 12.4404 10.8936 12.3849 10.963 12.3148L12.2165 11.0642C12.4615 11.2861 12.6952 11.5199 12.9169 11.7649L11.6644 13.0146C11.5236 13.1551 11.4446 13.3457 11.4446 13.5443C11.4446 13.743 11.5236 13.9336 11.6644 14.0741C11.7334 14.1447 11.816 14.2005 11.9073 14.2383C11.9985 14.2761 12.0965 14.2951 12.1953 14.294C12.294 14.2945 12.3919 14.2753 12.4831 14.2375C12.5743 14.1998 12.657 14.1442 12.7264 14.0741L13.8438 12.9593C13.9581 13.1322 14.0673 13.3089 14.171 13.4892C14.0799 13.7198 14.0215 13.9637 13.9989 14.2141C13.9788 14.4099 13.9814 14.606 14.0059 14.7987Z" fill="#1B1A16"/>
</svg>
