<svg width="24" height="24" viewBox="0 0 24 24" fill="none" xmlns="http://www.w3.org/2000/svg">
<path d="M18.783 2H5.217C3.443 2 2 3.443 2 5.217V18.783C2 20.557 3.443 22 5.217 22H18.783C20.557 22 22 20.557 22 18.783V5.217C22 3.443 20.557 2 18.783 2ZM20.5 18.783C20.5 19.729 19.729 20.5 18.783 20.5H5.217C4.27 20.5 3.5 19.729 3.5 18.783V5.217C3.5 4.27 4.27 3.5 5.217 3.5H18.783C19.729 3.5 20.5 4.27 20.5 5.217V18.783Z" fill="#1B1A16"/>
<path d="M9.887 4.909C9.188 4.638 8.454 4.489 7.661 4.467C6.912 4.489 6.179 4.637 5.494 4.903C5.168 5.022 4.902 5.258 4.744 5.566C4.586 5.873 4.551 6.226 4.645 6.565L5.7 10.253V17.549C5.7 18.071 5.912 18.583 6.281 18.951C6.656 19.326 7.154 19.532 7.683 19.532C8.206 19.532 8.717 19.32 9.084 18.952C9.454 18.584 9.666 18.072 9.666 17.549V10.255L10.723 6.56C10.816 6.227 10.78 5.874 10.623 5.567C10.465 5.258 10.199 5.022 9.887 4.909ZM7.661 5.966C8.204 5.982 8.736 6.084 9.246 6.27L8.351 9.4H7.016L6.121 6.27C6.63 6.084 7.16 5.982 7.661 5.966ZM8.167 17.55C8.167 17.678 8.116 17.802 8.025 17.893C7.844 18.072 7.524 18.073 7.341 17.891C7.251 17.802 7.2 17.677 7.2 17.55V10.9H8.167V17.55Z" fill="#1B1A16"/>
<path d="M16.316 5.7H13.85C13.328 5.7 12.817 5.912 12.45 6.28C12.075 6.654 11.868 7.152 11.868 7.683V16.317C11.868 16.848 12.075 17.346 12.448 17.718C12.816 18.088 13.328 18.3 13.85 18.3H16.317C16.845 18.3 17.343 18.094 17.721 17.718C18.094 17.343 18.3 16.845 18.3 16.317V7.683C18.3 7.162 18.089 6.651 17.718 6.279C17.343 5.906 16.845 5.7 16.316 5.7ZM13.367 10.9H16.8V13.1H13.367V10.9ZM13.367 7.683C13.367 7.554 13.417 7.433 13.51 7.341C13.599 7.251 13.723 7.2 13.85 7.2H16.317C16.446 7.2 16.569 7.251 16.659 7.34C16.749 7.43 16.801 7.555 16.801 7.683V9.4H13.368V7.683H13.367ZM16.8 16.316C16.8 16.445 16.749 16.567 16.66 16.657C16.567 16.749 16.445 16.8 16.316 16.8H13.85C13.723 16.8 13.599 16.749 13.508 16.657C13.417 16.566 13.367 16.446 13.367 16.316V14.6H16.8V16.316Z" fill="#1B1A16"/>
</svg>
