<svg width="24" height="24" viewBox="0 0 24 24" fill="none" xmlns="http://www.w3.org/2000/svg">
<path fill-rule="evenodd" clip-rule="evenodd" d="M8.90981 9.24968C9.20268 8.95681 9.67752 8.95679 9.97042 9.24964L14.7508 14.0292C14.8915 14.1698 14.9705 14.3606 14.9705 14.5595C14.9705 14.7585 14.8915 14.9492 14.7508 15.0899L9.00673 20.834C8.22834 21.5893 7.18405 22.008 6.0995 21.9999C5.01494 21.9918 3.9771 21.5574 3.21012 20.7905C2.44314 20.0237 2.00856 18.9859 2.00024 17.9013C1.99193 16.8168 2.41054 15.7725 3.16567 14.994L3.17364 14.9857L8.90981 9.24968ZM9.44019 10.8406L4.23866 16.0422C3.76011 16.5375 3.49492 17.2009 3.5002 17.8898C3.5055 18.5805 3.78225 19.2414 4.27069 19.7298C4.75913 20.2181 5.42006 20.4948 6.11074 20.4999C6.79965 20.5051 7.46302 20.2398 7.95832 19.7611L13.1598 14.5596L9.44019 10.8406Z" fill="#1B1A16"/>
<path fill-rule="evenodd" clip-rule="evenodd" d="M12.0536 3.50968C11.901 3.48176 11.7434 3.5148 11.6148 3.60182C11.4848 3.68977 11.395 3.82568 11.365 3.97975L11.3642 3.98375L10.1756 9.9271C10.0943 10.3333 9.69922 10.5967 9.29305 10.5154C8.88688 10.4342 8.62346 10.0391 8.7047 9.63292L9.89301 3.69135C9.99915 3.14837 10.316 2.66947 10.7743 2.35942C11.2332 2.04896 11.7965 1.93314 12.3407 2.03737L12.3526 2.03966C14.7146 2.53181 16.8789 3.70979 18.5747 5.42592C20.2904 7.12194 21.4681 9.28606 21.9607 11.6478L21.9635 11.662C22.0661 12.2061 21.949 12.7688 21.6377 13.2268C21.3269 13.684 20.848 13.9997 20.3054 14.1051L14.3676 15.2925C13.9614 15.3737 13.5663 15.1103 13.4851 14.7041C13.4038 14.298 13.6673 13.9029 14.0734 13.8216L20.0185 12.6328C20.1727 12.6031 20.3088 12.5135 20.3971 12.3836C20.4843 12.2553 20.5178 12.0981 20.4906 11.9456C20.0569 9.87451 19.0228 7.97692 17.5172 6.48978L17.5106 6.4832C16.0234 4.97708 14.1254 3.94279 12.0536 3.50968Z" fill="#1B1A16"/>
<path fill-rule="evenodd" clip-rule="evenodd" d="M6.99829 11.162C7.29119 10.8691 7.76606 10.8691 8.05895 11.162L12.8385 15.9416C13.1314 16.2344 13.1314 16.7093 12.8385 17.0022C12.5456 17.2951 12.0707 17.2951 11.7778 17.0022L6.99829 12.2227C6.7054 11.9298 6.7054 11.4549 6.99829 11.162Z" fill="#1B1A16"/>
<path fill-rule="evenodd" clip-rule="evenodd" d="M18.5747 5.42592C18.8675 5.71888 18.8675 6.19381 18.5745 6.48664L16.6622 8.39813C16.3692 8.69096 15.8943 8.69086 15.6015 8.3979C15.3087 8.10494 15.3088 7.63007 15.6017 7.33724L17.5141 5.42575C17.807 5.13292 18.2819 5.13297 18.5747 5.42592Z" fill="#1B1A16"/>
<path fill-rule="evenodd" clip-rule="evenodd" d="M14.8245 2.83597C15.195 3.02126 15.3451 3.47179 15.1598 3.84225L13.9347 6.2917C13.7494 6.66216 13.2988 6.81227 12.9284 6.62698C12.5579 6.44169 12.4078 5.99116 12.5931 5.6207L13.8182 3.17125C14.0035 2.80079 14.4541 2.65068 14.8245 2.83597Z" fill="#1B1A16"/>
<path fill-rule="evenodd" clip-rule="evenodd" d="M21.1646 9.17612C21.3498 9.54663 21.1995 9.99711 20.829 10.1823L18.3796 11.4066C18.0091 11.5918 17.5586 11.4416 17.3734 11.0711C17.1882 10.7006 17.3384 10.2501 17.7089 10.0649L20.1584 8.84057C20.5289 8.65538 20.9794 8.80561 21.1646 9.17612Z" fill="#1B1A16"/>
</svg>
