<svg width="24" height="24" viewBox="0 0 24 24" fill="none" xmlns="http://www.w3.org/2000/svg">
<path d="M20.5441 16.919C20.4011 16.311 20.1961 15.718 19.9151 15.15C19.4131 14.142 18.7211 13.264 17.8591 12.543C17.8041 12.496 17.7581 12.437 17.7291 12.373C17.7271 12.368 17.7281 12.362 17.7251 12.357C18.6321 12.965 19.6581 13.434 20.6761 13.434C20.9291 13.434 21.1821 13.406 21.4311 13.343C21.8331 13.242 22.0771 12.835 21.9771 12.433C21.8771 12.031 21.4661 11.79 21.0681 11.888C20.1791 12.109 18.9031 11.53 17.4731 10.257C17.3141 9.83196 17.0731 9.43896 16.7421 9.10796C16.3701 8.73596 15.9041 8.47796 15.4061 8.32396C15.3611 8.30196 15.3121 8.29296 15.2621 8.27996C15.0021 8.21296 14.7381 8.16596 14.4671 8.16596H13.6961L11.4601 3.69596C11.1801 3.02096 10.6321 2.49796 9.91908 2.22096C9.02208 1.87396 7.95708 1.94896 6.90608 2.40996C6.75008 2.43396 6.59708 2.47096 6.45108 2.53196L3.60308 3.71796C2.96908 3.98096 2.45708 4.49596 2.19808 5.12696C1.93608 5.76096 1.93708 6.48596 2.19808 7.11296C2.32808 7.43096 2.51808 7.71596 2.76208 7.95996C3.00508 8.20196 3.29008 8.39196 3.60808 8.52296C4.19808 8.76696 4.86808 8.78396 5.47608 8.56796L7.07008 12.385C7.10708 12.474 7.11608 12.573 7.09708 12.668C7.07708 12.765 7.02908 12.852 6.96008 12.918C6.09408 13.752 5.41208 14.788 4.98708 15.915C4.73708 16.58 4.58808 17.281 4.51908 17.99C4.08808 17.661 3.67108 17.313 3.28308 16.926C2.99008 16.633 2.51508 16.633 2.22208 16.926C1.92908 17.219 1.92908 17.694 2.22208 17.987C2.98208 18.748 3.82708 19.395 4.73208 19.952C4.80708 20.023 4.89808 20.075 4.99608 20.11C5.53308 20.423 6.08508 20.714 6.66608 20.955C6.68708 20.964 6.70808 20.97 6.73008 20.977C6.75708 20.992 6.78708 20.998 6.81608 21.008C8.44108 21.66 10.1531 21.998 11.9091 21.998C13.7181 21.998 15.4811 21.646 17.1501 20.955C17.5971 20.77 18.0291 20.559 18.4501 20.331C18.4731 20.318 18.4951 20.307 18.5161 20.292C19.6411 19.674 20.6751 18.905 21.5951 17.986C21.8881 17.693 21.8881 17.218 21.5951 16.925C21.3061 16.636 20.8381 16.634 20.5441 16.919ZM14.3331 9.66696V11.383C14.3331 11.512 14.2831 11.633 14.1891 11.726C14.1011 11.815 13.9781 11.866 13.8511 11.866H12.6181C12.4911 11.866 12.3671 11.815 12.2761 11.724C12.1851 11.633 12.1341 11.511 12.1341 11.382V9.66696H14.3331ZM10.0971 4.31896L12.0211 8.16596H11.2661C11.1711 8.16596 11.0781 8.13796 10.9991 8.08496C10.9191 8.03196 10.8581 7.95796 10.8211 7.86796L9.04408 3.59996C9.03408 3.57596 9.01808 3.55496 9.00708 3.53096C9.13608 3.55096 9.26208 3.57496 9.37708 3.61996C9.71008 3.74896 9.95108 3.97396 10.0971 4.31896ZM6.39008 16.443C6.73608 15.524 7.29308 14.678 8.00108 13.998C8.28908 13.72 8.48408 13.365 8.56608 12.972C8.64708 12.578 8.60808 12.176 8.45408 11.807L6.80608 7.85996C6.66308 7.52596 6.39908 7.26796 6.06508 7.13196C5.73108 6.99596 5.35008 6.99796 5.02308 7.13596C4.75408 7.24896 4.44808 7.24796 4.18108 7.13696C4.04608 7.08096 3.92508 7.00096 3.82308 6.89796C3.72008 6.79596 3.64108 6.67696 3.58408 6.53996C3.47108 6.26996 3.47108 5.97196 3.58408 5.69896C3.69308 5.43196 3.91008 5.21496 4.17908 5.10296L7.02808 3.91596C7.14508 3.86796 7.28008 3.86696 7.39608 3.91496C7.51608 3.96496 7.60908 4.05796 7.65908 4.17696L9.43508 8.44296C9.58408 8.80596 9.83708 9.11396 10.1641 9.33296C10.3101 9.43096 10.4701 9.49996 10.6341 9.55596V11.384C10.6341 11.914 10.8411 12.412 11.2151 12.785C11.5841 13.155 12.0951 13.367 12.6181 13.367H13.8511C14.3741 13.367 14.8851 13.155 15.2501 12.787C15.6251 12.413 15.8321 11.915 15.8321 11.384V10.355C16.0571 10.652 16.1841 11.007 16.1841 11.384V12.17C16.1841 12.459 16.2481 12.749 16.3701 13.009C16.4901 13.267 16.6701 13.501 16.8921 13.691C17.5971 14.282 18.1631 14.999 18.5711 15.82C18.9221 16.525 19.1331 17.275 19.2171 18.051C18.9971 18.216 18.7771 18.379 18.5461 18.529C18.1521 17.424 17.4611 16.442 16.5291 15.705C15.3171 14.745 13.8091 14.267 12.2561 14.353C10.7121 14.442 9.25908 15.093 8.16608 16.186C7.32608 17.024 6.75308 18.076 6.48808 19.215C6.31708 19.13 6.14708 19.046 5.98008 18.953C5.95808 18.101 6.09208 17.24 6.39008 16.443ZM16.5761 19.569C13.8201 20.711 10.7151 20.782 7.90908 19.807C8.07908 18.842 8.52408 17.946 9.22508 17.245C10.0581 16.412 11.1651 15.916 12.3411 15.849C13.5191 15.769 14.6741 16.147 15.5971 16.878C16.3741 17.493 16.9191 18.334 17.2001 19.274C16.9931 19.374 16.7901 19.481 16.5761 19.569Z" fill="#1B1A16"/>
<path d="M6.45108 6.68596C7.0354 6.68596 7.50908 6.21228 7.50908 5.62796C7.50908 5.04364 7.0354 4.56996 6.45108 4.56996C5.86676 4.56996 5.39308 5.04364 5.39308 5.62796C5.39308 6.21228 5.86676 6.68596 6.45108 6.68596Z" fill="#1B1A16"/>
</svg>
