<svg width="24" height="24" viewBox="0 0 24 24" fill="none" xmlns="http://www.w3.org/2000/svg">
<path fill-rule="evenodd" clip-rule="evenodd" d="M10.6564 5.48664C10.7717 5.63055 10.8612 5.74221 10.9425 5.83265C11.1433 6.05587 11.1916 6.3773 11.0653 6.64967L10.3821 8.12337L11.4047 9.10663C11.4512 9.15141 11.5133 9.17643 11.5779 9.17643H11.6755L11.6779 9.17642H13.6779L13.6803 9.17643H14.3803C14.3928 9.17643 14.4155 9.17468 14.442 9.16971C15.1723 9.03265 15.8096 9.00486 16.3577 9.08854C16.4072 8.94593 16.4699 8.7943 16.5495 8.641C16.9232 7.92069 17.6751 7.17642 19.0152 7.17642C20.241 7.17642 20.9369 7.97184 21.2921 8.72182C21.6375 9.45109 21.7303 10.2532 21.7575 10.6372C21.7795 10.9476 21.7045 11.2284 21.5947 11.4604C21.4712 11.7214 21.2565 12.1948 21.0742 12.6933C20.8813 13.2209 20.7652 13.6713 20.7652 13.9264C20.7652 13.9872 20.7644 14.0724 20.755 14.1491L20.7548 14.1504C20.7532 14.166 20.7388 14.3063 20.6598 14.4482C20.6214 14.5171 20.4624 14.7766 20.1105 14.8288C19.7535 14.8817 19.5244 14.6739 19.4654 14.615C19.3472 14.4968 19.2952 14.3612 19.2913 14.3509C19.2747 14.3109 19.262 14.2724 19.254 14.2471C19.2374 14.1947 19.2202 14.1321 19.2047 14.0746L19.1824 13.9911C19.1179 13.7495 19.0288 13.4159 18.8983 13.059C18.8101 12.8177 18.7099 12.5862 18.5982 12.3824L18.5952 12.4103C18.5388 12.9173 18.4175 13.373 18.3231 13.6744C18.2909 13.7769 18.2962 13.8595 18.3157 13.9156L19.4776 17.2692C19.488 17.2992 19.4975 17.3292 19.5062 17.3594C19.5433 17.3366 19.5805 17.3136 19.6176 17.2904C19.9689 17.0709 20.4316 17.1777 20.6511 17.5289C20.8706 17.8802 20.7639 18.3429 20.4126 18.5624C16.1971 21.1971 11.7342 21.1842 8.37346 20.5379C8.04474 20.4747 7.72599 20.4053 7.41835 20.3316C7.34104 20.3226 7.2626 20.3081 7.18322 20.2879C6.87566 20.2094 6.53468 20.1146 6.22264 20.0097C5.46549 19.7832 4.805 19.5425 4.26587 19.3251C3.76398 19.1228 3.3655 18.9399 3.09011 18.8063C2.95237 18.7395 2.84527 18.6849 2.77128 18.6463C2.73428 18.627 2.70554 18.6117 2.68537 18.6009L2.66158 18.5879L2.65457 18.5841C2.23821 18.3426 2.13057 17.9112 2.34876 17.5272C2.59571 17.0923 2.91965 17.0231 3.39694 17.2804C3.41132 17.2881 3.4341 17.3003 3.46497 17.3164C3.52672 17.3486 3.62079 17.3966 3.74477 17.4567C3.99282 17.577 4.35996 17.7457 4.82682 17.934C4.91102 17.9679 4.9984 18.0025 5.08885 18.0375C6.93171 13.9399 7.02238 11.9904 6.86533 11.1469L6.33635 11.6835C5.65442 12.3754 4.53948 12.3794 3.85256 11.6925L3.2694 11.1094C2.5877 10.4277 2.58574 9.32301 3.26501 8.63889L4.40014 7.49567L3.5075 6.98529C3.3091 6.87185 3.17324 6.67414 3.13849 6.44825C3.10374 6.22237 3.17387 5.99296 3.329 5.82513L3.46982 5.67268C4.09221 4.99871 4.64075 4.4047 5.14112 3.97416C5.67624 3.51372 6.27482 3.13213 6.98519 3.10374C8.09142 3.05952 8.98209 3.69819 9.5964 4.28666C9.9145 4.59138 10.1911 4.91429 10.4174 5.19076C10.5088 5.30245 10.5873 5.40045 10.6564 5.48664ZM8.95479 8.83654L7.18819 7.13457C7.08953 7.05499 6.94498 7.06157 6.85401 7.15318L4.32943 9.69578C4.23239 9.79351 4.23267 9.95132 4.33006 10.0487L4.91322 10.6319C5.01135 10.73 5.17063 10.7294 5.26805 10.6306L5.98617 9.90201C6.24568 9.63871 6.61697 9.44203 7.0281 9.44121C7.48807 9.4403 7.92203 9.6926 8.1305 10.1703C8.63345 11.3229 8.68769 13.6492 6.51529 18.5223L6.55952 18.5386C6.59761 18.5524 6.63694 18.5663 6.67732 18.58C6.97905 18.6698 7.297 18.7571 7.62934 18.8392C7.66829 18.8346 7.71243 18.8187 7.76161 18.7852C7.85106 18.7243 7.92985 18.6201 7.96468 18.4983C8.15917 17.8181 8.52161 16.9219 9.20113 16.1856C9.81621 15.5191 10.6732 15.0055 11.8214 14.8906L11.2143 13.6764H10.6779C10.4368 13.6764 10.2104 13.5605 10.0694 13.365C9.92847 13.1694 9.89011 12.918 9.96635 12.6893L10.7134 10.448C10.5879 10.3767 10.4708 10.2896 10.365 10.1879L9.00867 8.88372C8.99007 8.86894 8.97208 8.85321 8.95479 8.83654ZM11.7184 12.1764H13.6373L13.1373 10.6764H12.2184L11.7184 12.1764ZM14.1414 13.6764L13.4803 14.9985C14.1894 15.1696 14.763 15.4968 15.2172 15.9182C15.8814 16.5346 16.2414 17.307 16.4393 17.95C16.4857 18.1006 16.5964 18.2417 16.7313 18.3253C16.8616 18.406 16.9663 18.4075 17.0378 18.3825L17.9067 18.0781C18.0367 18.0325 18.1053 17.8904 18.0603 17.7603L16.8983 14.4066C16.7585 14.003 16.7784 13.5874 16.8918 13.2257C16.9689 12.9796 17.0622 12.6235 17.1044 12.2445C17.1474 11.8574 17.1305 11.5024 17.0354 11.2279C16.9676 11.0324 16.8613 10.8748 16.6804 10.7589C16.6108 10.736 16.5458 10.7033 16.487 10.6623C16.1685 10.5394 15.6226 10.4743 14.7187 10.644L14.7083 10.6459L15.3894 12.6893C15.4656 12.918 15.4273 13.1694 15.2863 13.365C15.1453 13.5605 14.9189 13.6764 14.6779 13.6764H14.1414ZM9.50506 6.44885L9.2385 7.02378L8.24436 6.06787C8.23055 6.0546 8.21658 6.04159 8.20246 6.02886L7.5355 5.38631C7.24113 5.1027 6.77386 5.10705 6.48482 5.3961L5.48999 6.39093L5.07164 6.15173C5.47569 5.72013 5.81258 5.37525 6.11947 5.11119C6.57819 4.71649 6.85156 4.61028 7.0451 4.60254C7.52523 4.58335 8.02968 4.86303 8.55877 5.36986C8.81237 5.61279 9.04456 5.88176 9.25658 6.1408C9.31835 6.21628 9.38243 6.29611 9.44624 6.37561L9.50506 6.44885ZM18.2023 10.2126C18.7766 10.3253 19.2115 10.6848 19.5183 11.0642C19.657 11.2356 19.7791 11.422 19.8865 11.6129C20.0229 11.284 20.1526 11.0012 20.2388 10.8189C20.2628 10.7682 20.2614 10.745 20.2613 10.7433C20.2383 10.4193 20.1617 9.83949 19.9365 9.36385C19.721 8.90892 19.445 8.67642 19.0152 8.67642C18.3553 8.67642 18.0571 8.99216 17.8809 9.33184C17.8199 9.4494 17.775 9.57031 17.7423 9.68211C17.9282 9.83966 18.0803 10.0192 18.2023 10.2126ZM15.3387 19.0451C13.2062 19.5218 11.1289 19.4651 9.30802 19.1788C9.34785 19.091 9.38099 19.0012 9.40688 18.9107C9.56789 18.3476 9.84492 17.6998 10.3035 17.2029C10.7414 16.7283 11.3645 16.3664 12.3146 16.3664C13.2277 16.3664 13.8074 16.6563 14.1968 17.0177C14.6029 17.3946 14.8543 17.8994 15.0057 18.3912C15.0788 18.6287 15.1932 18.8496 15.3387 19.0451Z" fill="#1B1A16"/>
</svg>
