<svg width="24" height="24" viewBox="0 0 24 24" fill="none" xmlns="http://www.w3.org/2000/svg">
<path fill-rule="evenodd" clip-rule="evenodd" d="M2 5.83325C2 5.41904 2.33579 5.08325 2.75 5.08325H21.25C21.6642 5.08325 22 5.41904 22 5.83325V13.2333C22 13.6475 21.6642 13.9833 21.25 13.9833H20.0167C19.2248 13.9831 18.4488 14.2076 17.7795 14.6308C17.1102 15.0541 16.5747 15.6586 16.2354 16.3741C15.8744 17.1349 15.3049 17.7778 14.5932 18.2278C13.8815 18.6778 13.0567 18.9167 12.2146 18.9166C12.2146 18.9166 12.2146 18.9166 12.2146 18.9166H11.7862C10.9444 18.9161 10.1194 18.677 9.40779 18.2272C9.00769 17.9743 8.65248 17.6605 8.35389 17.2992C8.3411 17.2847 8.32887 17.2697 8.31722 17.2542C8.10053 16.9849 7.91488 16.69 7.76496 16.3749C7.42563 15.6594 6.88981 15.0541 6.22048 14.6308C5.55116 14.2076 4.77545 13.9831 3.98355 13.9833L2.75 13.9833C2.33579 13.9833 2 13.6475 2 13.2333V5.83325ZM9.66667 16.5184C9.82869 16.6855 10.0107 16.8337 10.2093 16.9593C10.6813 17.2577 11.2283 17.4163 11.7867 17.4166H12.2146C12.7728 17.4167 13.3197 17.2583 13.7915 16.96C13.9899 16.8346 14.1716 16.6866 14.3333 16.5197V9.04998H9.66667V16.5184ZM8.16667 9.04998V14.318C7.83039 13.9526 7.44602 13.6311 7.02213 13.363C6.11287 12.7881 5.05911 12.483 3.98333 12.4833C3.98326 12.4833 3.98341 12.4833 3.98333 12.4833H3.5V9.04998H8.16667ZM20.5 7.54998V6.58325H3.5V7.54998H20.5ZM20.5 9.04998H15.8333V14.318C16.1696 13.9526 16.554 13.6311 16.9779 13.363C17.8871 12.7881 18.9409 12.483 20.0167 12.4833C20.0166 12.4833 20.0167 12.4833 20.0167 12.4833H20.5V9.04998Z" fill="#1B1A16"/>
</svg>
