<svg width="24" height="24" viewBox="0 0 24 24" fill="none" xmlns="http://www.w3.org/2000/svg">
<path fill-rule="evenodd" clip-rule="evenodd" d="M4.79902 2.59733C4.49844 2.62485 4.21008 2.72964 3.96196 2.90154C3.71384 3.07343 3.51441 3.30658 3.38302 3.57833C3.15002 4.05133 3.16702 3.38333 3.16702 12.0123C3.16702 18.8873 3.17302 19.8383 3.21702 20.0133C3.35502 20.5503 3.68902 20.9633 4.17502 21.1963C4.69202 21.4453 4.18102 21.4313 12.152 21.4203C18.806 21.4123 19.296 21.4073 19.475 21.3543C19.995 21.1973 20.395 20.8703 20.613 20.4233C20.851 19.9353 20.833 20.6213 20.833 11.9783C20.833 3.38633 20.849 4.01933 20.628 3.56533C20.43 3.15833 19.97 2.79733 19.45 2.64133C19.26 2.58333 18.894 2.58033 12.15 2.57533C8.24502 2.57233 4.93702 2.58233 4.79902 2.59733ZM19.053 4.09933C19.1348 4.11818 19.2095 4.16018 19.268 4.22033C19.331 4.30233 19.333 4.36333 19.333 6.33333V8.36233H18.517L18.528 7.47033C18.537 6.74133 18.529 6.53633 18.485 6.34833C18.334 5.69833 17.938 5.25633 17.275 5.00033L17.05 4.91333L15.569 4.90233C13.922 4.89033 13.798 4.90233 13.394 5.10333C13.0753 5.28171 12.8138 5.54702 12.64 5.86833C12.423 6.31133 12.392 6.52733 12.405 7.49833L12.417 8.36233H11.583L11.595 7.53833C11.603 7.01533 11.593 6.62833 11.568 6.47533C11.452 5.75333 11.054 5.27633 10.337 4.99833L10.117 4.91333L8.63302 4.90133C6.99602 4.88933 6.90602 4.89733 6.50902 5.08333C6.07202 5.28933 5.76102 5.64933 5.57302 6.16733C5.48502 6.41133 5.48502 6.41533 5.48402 7.38733L5.48302 8.36233H4.66702V6.35333C4.66702 4.41633 4.66902 4.34133 4.73202 4.23833C4.76703 4.17718 4.82381 4.13147 4.89102 4.11033C4.94202 4.09833 4.99802 4.08433 5.01702 4.07833C5.03502 4.07233 8.16702 4.06633 11.977 4.06433C17.006 4.06233 18.945 4.07233 19.053 4.09933ZM9.93502 6.47033C10.005 6.51733 10.057 6.58733 10.075 6.65933C10.092 6.72233 10.1 7.06733 10.094 7.42633C10.083 8.11333 10.055 8.24633 9.91002 8.31533C9.81202 8.36233 7.47902 8.37333 7.27302 8.32833C6.98202 8.26433 6.96702 8.21833 6.96702 7.40233C6.96702 6.67633 6.98802 6.55433 7.13702 6.44933C7.20602 6.40133 7.36702 6.39533 8.51902 6.39533C9.81702 6.39533 9.82402 6.39533 9.93502 6.47033ZM16.924 6.50433L17.017 6.59633L17.027 7.29533C17.036 7.93233 17.031 8.00733 16.971 8.14333C16.923 8.25233 16.879 8.30033 16.811 8.31933C16.759 8.33333 16.147 8.34533 15.45 8.34533C14.013 8.34533 14.002 8.34333 13.935 8.10333C13.89 7.94233 13.89 6.81633 13.935 6.65533C13.9578 6.5813 13.9999 6.51468 14.057 6.46233C14.143 6.39433 14.172 6.39333 15.488 6.40233L16.832 6.41233L16.924 6.50433ZM19.333 10.8453V11.8283H4.66702V9.86233H19.333V10.8453ZM19.333 16.4803C19.333 19.9753 19.346 19.7853 19.116 19.8813C19.019 19.9213 17.98 19.9283 12.03 19.9283C6.77402 19.9283 5.02502 19.9193 4.92702 19.8893C4.85236 19.8666 4.78484 19.8249 4.73102 19.7683C4.66802 19.6883 4.66702 19.5983 4.66702 16.5073V13.3283H19.333V16.4803Z" fill="#1B1A16"/>
</svg>
