<svg width="24" height="24" viewBox="0 0 24 24" fill="none" xmlns="http://www.w3.org/2000/svg">
<path fill-rule="evenodd" clip-rule="evenodd" d="M7.68333 5.04169C6.57384 5.04169 5.5098 5.48243 4.72527 6.26696C3.94074 7.05149 3.5 8.11554 3.5 9.22503C3.5 10.3345 3.94074 11.3986 4.72527 12.1831C5.5098 12.9676 6.57384 13.4084 7.68333 13.4084H10.2849C10.2976 13.408 10.3104 13.408 10.3232 13.4084H13.6777C13.6905 13.408 13.7032 13.408 13.716 13.4084H16.3167C17.4262 13.4084 18.4902 12.9676 19.2747 12.1831C20.0593 11.3986 20.5 10.3345 20.5 9.22503C20.5 8.11554 20.0593 7.05149 19.2747 6.26696C18.4902 5.48243 17.4262 5.04169 16.3167 5.04169H7.68333ZM14.6568 14.9084H16.3167C17.824 14.9084 19.2696 14.3096 20.3354 13.2438C21.4012 12.1779 22 10.7323 22 9.22503C22 7.71771 21.4012 6.27213 20.3354 5.2063C19.2696 4.14047 17.824 3.54169 16.3167 3.54169H7.68333C6.17602 3.54169 4.73044 4.14047 3.66461 5.2063C2.59878 6.27213 2 7.71771 2 9.22503C2 10.7323 2.59878 12.1779 3.66461 13.2438C4.73044 14.3096 6.17602 14.9084 7.68333 14.9084H9.34391L8.33113 18.9583H7.68333C7.26912 18.9583 6.93333 19.2941 6.93333 19.7083C6.93333 20.1225 7.26912 20.4583 7.68333 20.4583H8.90104C8.91186 20.4585 8.92266 20.4585 8.93342 20.4583H15.0666C15.0773 20.4585 15.0882 20.4585 15.099 20.4583H16.3167C16.7309 20.4583 17.0667 20.1225 17.0667 19.7083C17.0667 19.2941 16.7309 18.9583 16.3167 18.9583H15.669L14.6568 14.9084ZM13.1106 14.9084H10.8901L9.87732 18.9583H14.1228L13.1106 14.9084ZM9.72547 6.95043C10.3287 6.34719 11.1469 6.00829 12 6.00829C12.8531 6.00829 13.6713 6.34719 14.2745 6.95043C14.8778 7.55367 15.2167 8.37185 15.2167 9.22496C15.2167 10.0781 14.8778 10.8962 14.2745 11.4995C13.6713 12.1027 12.8531 12.4416 12 12.4416C11.1469 12.4416 10.3287 12.1027 9.72547 11.4995C9.12223 10.8962 8.78333 10.0781 8.78333 9.22496C8.78333 8.37184 9.12223 7.55367 9.72547 6.95043ZM12 7.50829C11.5447 7.50829 11.1081 7.68915 10.7861 8.01109C10.4642 8.33303 10.2833 8.76967 10.2833 9.22496C10.2833 9.68025 10.4642 10.1169 10.7861 10.4388C11.1081 10.7608 11.5447 10.9416 12 10.9416C12.4553 10.9416 12.8919 10.7608 13.2139 10.4388C13.5358 10.1169 13.7167 9.68025 13.7167 9.22496C13.7167 8.76967 13.5358 8.33303 13.2139 8.01109C12.8919 7.68915 12.4553 7.50829 12 7.50829Z" fill="#1B1A16"/>
</svg>
