<svg width="24" height="24" viewBox="0 0 24 24" fill="none" xmlns="http://www.w3.org/2000/svg">
<path fill-rule="evenodd" clip-rule="evenodd" d="M4.46667 3.98333C4.46667 2.88797 5.35464 2 6.45001 2H17.55C18.6454 2 19.5334 2.88796 19.5334 3.98333V10.15C19.5334 11.2453 18.6454 12.1333 17.55 12.1333H17.3562L16.316 17.981C16.2628 18.2986 16.0993 18.5874 15.8538 18.7963C15.6175 18.9975 15.3203 19.1118 15.0112 19.1215V20.6432C15.0065 21.0014 14.8621 21.3438 14.6086 21.5974C14.355 21.8509 14.0126 21.9952 13.6544 21.9999L13.6445 22.0001L10.3458 22C9.98755 21.9953 9.64513 21.8509 9.39161 21.5974C9.13817 21.3439 8.99372 21.0015 8.98903 20.6431L8.9889 20.6333L8.98897 19.1215C8.67981 19.1118 8.38254 18.9974 8.14626 18.7963C7.90089 18.5874 7.7373 18.2986 7.68419 17.981L6.64394 12.1333H6.45001C5.35463 12.1333 4.46667 11.2453 4.46667 10.15V3.98333ZM17.55 10.6333C17.8169 10.6333 18.0334 10.4169 18.0334 10.15V3.98333C18.0334 3.7164 17.817 3.5 17.55 3.5H6.45001C6.18307 3.5 5.96667 3.71639 5.96667 3.98333V10.15C5.96667 10.4169 6.18308 10.6333 6.45001 10.6333H17.55ZM8.16749 12.1333L9.14391 17.6222H9.73687L9.73897 17.6222H14.2612L14.2633 17.6222H14.8562L15.8327 12.1333H8.16749ZM10.489 19.1222V20.5H13.5112V19.1222H10.489ZM6.93341 5.21667C6.93341 4.80245 7.2692 4.46667 7.68341 4.46667H16.3168C16.731 4.46667 17.0668 4.80245 17.0668 5.21667V8.91667C17.0668 9.33088 16.731 9.66667 16.3168 9.66667H7.68341C7.2692 9.66667 6.93341 9.33088 6.93341 8.91667V5.21667ZM8.43341 5.96667V8.16667H15.5668V5.96667H8.43341ZM11.8709 15.3435C11.8709 14.759 12.3447 14.2852 12.9292 14.2852C13.5137 14.2852 13.9875 14.759 13.9875 15.3435C13.9875 15.928 13.5137 16.4018 12.9292 16.4018C12.3447 16.4018 11.8709 15.928 11.8709 15.3435Z" fill="#1B1A16"/>
</svg>
