<svg width="24" height="24" viewBox="0 0 24 24" fill="none" xmlns="http://www.w3.org/2000/svg">
<path fill-rule="evenodd" clip-rule="evenodd" d="M8.78319 3.36667C8.78319 2.61188 9.39507 2 10.1499 2H16.3165C17.0713 2 17.6832 2.61187 17.6832 3.36667V5.83333C17.6832 6.58813 17.0713 7.2 16.3165 7.2H16.3111L15.8157 9.60477C15.8718 9.63246 15.9268 9.66287 15.9803 9.69593C16.2935 9.88948 16.5471 10.1666 16.7119 10.4962L17.3968 11.8667H18.1665C18.6924 11.8667 19.197 12.0755 19.569 12.4475C19.941 12.8195 20.1499 13.3241 20.1499 13.85V20.0167C20.1499 20.5426 19.941 21.0471 19.569 21.4191C19.197 21.7911 18.6924 22 18.1665 22H5.83319C5.30723 22 4.80274 21.7911 4.43076 21.4191C4.0588 21.0472 3.84985 20.5426 3.84985 20.0167V13.85C3.84985 13.324 4.0588 12.8195 4.43076 12.4475C4.80274 12.0756 5.30723 11.8667 5.83319 11.8667H6.31652V11.3833C6.31652 10.9691 6.65231 10.6333 7.06652 10.6333C7.48073 10.6333 7.81652 10.9691 7.81652 11.3833V11.8667H9.06957L9.75442 10.4963C9.91924 10.1667 10.1727 9.88959 10.4859 9.69604C10.5394 9.66298 10.5945 9.63246 10.6507 9.60477L10.1553 7.2H10.1499C9.39507 7.2 8.78319 6.58812 8.78319 5.83333V3.36667ZM11.6868 7.2L12.14 9.4H14.3264L14.7796 7.2H11.6868ZM7.06481 13.3667L7.06652 13.3667L7.06823 13.3667H9.53319C9.81732 13.3667 10.077 13.2061 10.2041 12.952L11.0961 11.167C11.1362 11.087 11.1978 11.0194 11.2742 10.9722C11.3507 10.9249 11.4388 10.9 11.5285 10.9L14.9377 10.9C15.0273 10.9 15.1155 10.9249 15.192 10.9721C15.2684 11.0193 15.3301 11.0868 15.3702 11.1669L16.2623 12.952C16.3893 13.2061 16.6491 13.3667 16.9332 13.3667H18.1665C18.2948 13.3667 18.4177 13.4176 18.5083 13.5082C18.5989 13.5988 18.6499 13.7218 18.6499 13.85V20.0167C18.6499 20.1449 18.5989 20.2679 18.5083 20.3585C18.4177 20.4491 18.2948 20.5 18.1665 20.5H5.83319C5.70495 20.5 5.58202 20.4491 5.49142 20.3585C5.4008 20.2678 5.34985 20.1449 5.34985 20.0167V13.85C5.34985 13.7218 5.4008 13.5988 5.49142 13.5082C5.58202 13.4176 5.70495 13.3667 5.83319 13.3667H7.06481ZM10.2832 3.5V5.7H16.1832V3.5H10.2832ZM10.0165 16.3167C10.0165 14.5401 11.4566 13.1 13.2332 13.1C15.0097 13.1 16.4499 14.5401 16.4499 16.3167C16.4499 18.0932 15.0097 19.5333 13.2332 19.5333C11.4566 19.5333 10.0165 18.0932 10.0165 16.3167ZM13.2332 14.6C12.2851 14.6 11.5165 15.3685 11.5165 16.3167C11.5165 17.2648 12.2851 18.0333 13.2332 18.0333C14.1813 18.0333 14.9499 17.2648 14.9499 16.3167C14.9499 15.3685 14.1813 14.6 13.2332 14.6ZM6.31652 15.3917C6.31652 14.8072 6.79034 14.3333 7.37485 14.3333C7.95937 14.3333 8.43319 14.8072 8.43319 15.3917C8.43319 15.9761 7.95937 16.45 7.37485 16.45C6.79034 16.45 6.31652 15.9761 6.31652 15.3917Z" fill="#1B1A16"/>
</svg>
