<svg width="24" height="24" viewBox="0 0 24 24" fill="none" xmlns="http://www.w3.org/2000/svg">
<path fill-rule="evenodd" clip-rule="evenodd" d="M3.23334 10.7667C3.23334 5.92497 7.1583 2 12 2C16.8417 2 20.7667 5.92497 20.7667 10.7667C20.7667 13.5728 19.4483 16.0709 17.3971 17.6755L19.976 20.7698C20.2412 21.088 20.1982 21.5609 19.8801 21.8261C19.5619 22.0913 19.0889 22.0484 18.8237 21.7302L16.132 18.5005C14.9009 19.1596 13.4941 19.5333 12 19.5333C10.5059 19.5333 9.09906 19.1596 7.86794 18.5004L5.17612 21.7302C4.91093 22.0484 4.438 22.0913 4.11981 21.8261C3.80162 21.5609 3.75866 21.088 4.02385 20.7698L6.60281 17.6755C4.5517 16.0709 3.23334 13.5727 3.23334 10.7667ZM12 3.5C7.98673 3.5 4.73334 6.75339 4.73334 10.7667C4.73334 14.78 7.98673 18.0333 12 18.0333C16.0133 18.0333 19.2667 14.78 19.2667 10.7667C19.2667 6.75339 16.0133 3.5 12 3.5ZM10.9416 5.21667C10.9416 4.63215 11.4155 4.15833 12 4.15833C12.5845 4.15833 13.0583 4.63215 13.0583 5.21667C13.0583 5.80118 12.5845 6.275 12 6.275C11.4155 6.275 10.9416 5.80118 10.9416 5.21667ZM8.16665 10.7667C8.16665 8.64958 9.88289 6.93333 12 6.93333C14.1171 6.93333 15.8333 8.64958 15.8333 10.7667C15.8333 12.8838 14.1171 14.6 12 14.6C9.88289 14.6 8.16665 12.8838 8.16665 10.7667ZM12 8.43333C10.7113 8.43333 9.66665 9.478 9.66665 10.7667C9.66665 12.0554 10.7113 13.1 12 13.1C13.2887 13.1 14.3333 12.0554 14.3333 10.7667C14.3333 9.478 13.2887 8.43333 12 8.43333Z" fill="#1B1A16"/>
</svg>
ll="#1B1A16"/>
</svg>
