<svg width="24" height="24" viewBox="0 0 24 24" fill="none" xmlns="http://www.w3.org/2000/svg">
<path fill-rule="evenodd" clip-rule="evenodd" d="M5.86083 5.31474C5.58469 5.31474 5.36083 5.5386 5.36083 5.81474V7.62323C5.52064 7.5821 5.68818 7.56022 5.86083 7.56022H10.7499C11.2275 7.56022 11.666 7.72762 12.0099 8.00695C12.3538 7.72762 12.7923 7.56022 13.2699 7.56022H18.1499C18.3236 7.56022 18.4921 7.58236 18.6528 7.62398V5.81474C18.6528 5.5386 18.4289 5.31474 18.1528 5.31474L5.86083 5.31474ZM18.6499 10.6533V9.56022C18.6499 9.28408 18.426 9.06022 18.1499 9.06022H13.2699C12.9937 9.06022 12.7699 9.28408 12.7699 9.56022V10.6534L18.6499 10.6533ZM11.2499 10.6534L5.36083 10.6535V9.56022C5.36083 9.28408 5.58469 9.06022 5.86083 9.06022H10.7499C11.026 9.06022 11.2499 9.28408 11.2499 9.56022V10.6534ZM3.86083 10.7096V5.81474C3.86083 4.71017 4.75626 3.81474 5.86083 3.81474L18.1528 3.81474C19.2574 3.81474 20.1528 4.71017 20.1528 5.81474V10.7098C21.2283 10.9474 22.0328 11.9064 22.0328 13.0533V19.4095C22.0328 19.8237 21.697 20.1595 21.2828 20.1595C20.8686 20.1595 20.5328 19.8237 20.5328 19.4095V17.6794H3.479V19.4037C3.479 19.8179 3.14322 20.1537 2.729 20.1537C2.31479 20.1537 1.979 19.8179 1.979 19.4037V13.0535C1.979 11.906 2.78443 10.9465 3.86083 10.7096ZM3.479 16.1794H20.5328V13.0533C20.5328 12.5562 20.1298 12.1533 19.6328 12.1533L4.37899 12.1535C3.88194 12.1535 3.479 12.5565 3.479 13.0535V16.1794Z" fill="#1B1A16"/>
</svg>
