<svg width="24" height="24" viewBox="0 0 24 24" fill="none" xmlns="http://www.w3.org/2000/svg">
<path d="M21.597 6.719C21.343 6.465 21.004 6.322 20.633 6.316H19.328V3.572C19.328 3.152 19.164 2.758 18.867 2.46C18.57 2.164 18.176 2 17.756 2H6.245C5.825 2 5.43 2.164 5.133 2.46C4.836 2.756 4.673 3.152 4.673 3.572V6.316H3.355C2.995 6.321 2.657 6.464 2.402 6.719C2.147 6.975 2.004 7.314 2 7.684V9.542C2.004 9.904 2.148 10.243 2.403 10.497C2.658 10.752 2.997 10.895 3.367 10.9H4.673V17.622H3.778C3.364 17.622 3.028 17.958 3.028 18.372C3.028 18.786 3.364 19.122 3.778 19.122H4.673V19.605C4.673 20.235 4.928 20.852 5.375 21.299C6.28 22.2 7.853 22.203 8.76 21.298C9.206 20.853 9.461 20.236 9.461 19.605V19.122H14.539V19.605C14.539 20.236 14.795 20.853 15.241 21.299C15.694 21.75 16.295 21.999 16.933 21.999C17.571 21.999 18.171 21.75 18.625 21.298C19.071 20.852 19.327 20.235 19.327 19.605V19.122H20.222C20.636 19.122 20.972 18.786 20.972 18.372C20.972 17.958 20.636 17.622 20.222 17.622H19.327V10.9H20.64C21 10.896 21.34 10.753 21.594 10.498C21.85 10.243 21.994 9.903 21.998 9.533V7.675C21.996 7.314 21.853 6.975 21.597 6.719ZM4.672 9.4H3.5V7.816H4.672V9.4ZM7.961 19.605C7.961 19.84 7.866 20.072 7.7 20.237C7.363 20.574 6.769 20.572 6.434 20.238C6.267 20.071 6.172 19.841 6.172 19.605V19.122H7.961V19.605ZM11.25 17.622H9.05V15.422H11.25V17.622ZM10.9 13.922V11.722H13.1V13.922H10.9ZM14.95 17.622H12.75V15.422H14.95V17.622ZM17.828 19.605C17.828 19.84 17.732 20.071 17.566 20.237C17.227 20.574 16.635 20.571 16.3 20.238C16.134 20.072 16.038 19.841 16.038 19.605V19.122H17.827L17.828 19.605ZM17.828 17.622H16.45V15.275C16.443 14.916 16.301 14.578 16.048 14.325C15.792 14.069 15.453 13.927 15.084 13.922H14.6V11.589C14.6 10.836 13.987 10.222 13.234 10.222H10.767C10.014 10.222 9.4 10.835 9.4 11.589V13.922H8.908C8.548 13.926 8.209 14.069 7.953 14.325C7.699 14.579 7.556 14.918 7.55 15.289V17.622H6.172V9.255H17.828V17.622ZM17.828 7.755H6.172V6.378H17.828V7.755ZM17.828 4.878H6.172V3.572L6.245 3.5H17.756L17.828 3.572V4.878ZM20.5 9.4H19.328V7.816H20.5V9.4Z" fill="#1B1A16"/>
</svg>
