<svg width="24" height="24" viewBox="0 0 24 24" fill="none" xmlns="http://www.w3.org/2000/svg">
<path d="M20.303 3.69999C19.208 2.60499 17.753 2.00299 16.205 2.00299H14.522C14.108 2.00299 13.772 2.33899 13.772 2.75299C13.772 2.98599 13.726 3.21499 13.637 3.43099C13.547 3.64699 13.417 3.84099 13.252 4.00599C13.086 4.17199 12.893 4.30099 12.676 4.38999C12.247 4.56899 11.753 4.56899 11.321 4.38999C11.105 4.29999 10.911 4.17099 10.746 4.00599C10.581 3.83999 10.452 3.64699 10.362 3.43099C10.273 3.21499 10.227 2.98699 10.227 2.75299C10.227 2.33899 9.891 2.00299 9.477 2.00299H7.795C6.248 2.00299 4.793 2.60599 3.697 3.69999C2.603 4.79499 2 6.24999 2 7.79799V12.213C2 12.578 2.148 12.935 2.403 13.188C2.664 13.45 3.011 13.594 3.381 13.594H5.495V20.617C5.495 20.799 5.53 20.975 5.599 21.143C5.668 21.311 5.769 21.462 5.899 21.592C6.03 21.723 6.182 21.824 6.343 21.89C6.512 21.961 6.692 21.997 6.875 21.997H17.125C17.308 21.997 17.486 21.961 17.651 21.893C17.82 21.824 17.971 21.722 18.101 21.592C18.228 21.465 18.328 21.317 18.403 21.139C18.471 20.971 18.506 20.795 18.506 20.617V13.594H20.619C20.99 13.594 21.337 13.449 21.594 13.191C21.852 12.935 22 12.578 22 12.213V7.79799C22 6.24999 21.397 4.79399 20.303 3.69999ZM20.5 12.094H18.506V9.05899C18.506 8.64499 18.17 8.30899 17.756 8.30899C17.342 8.30899 17.006 8.64499 17.006 9.05899L17.008 12.833C17.008 12.837 17.006 12.84 17.006 12.844C17.006 12.848 17.008 12.851 17.008 12.856L17.013 20.499L6.995 20.509V9.05899C6.995 8.64499 6.659 8.30899 6.245 8.30899C5.831 8.30899 5.495 8.64499 5.495 9.05899V12.094H3.5V7.79799C3.5 6.65099 3.947 5.57199 4.758 4.75999C5.57 3.94899 6.648 3.50199 7.795 3.50199H8.814C8.855 3.67299 8.909 3.84099 8.977 4.00399C9.143 4.40299 9.381 4.75999 9.686 5.06599C9.991 5.37199 10.348 5.60999 10.748 5.77499C11.546 6.10599 12.458 6.10499 13.252 5.77499C13.65 5.60999 14.008 5.37099 14.314 5.06599C14.62 4.76099 14.858 4.40399 15.023 4.00399C15.091 3.83999 15.146 3.67199 15.186 3.50199H16.206C17.352 3.50199 18.432 3.94899 19.243 4.75999C20.054 5.57099 20.5 6.64999 20.5 7.79799V12.094Z" fill="#1B1A16"/>
<path d="M15.056 10.074C14.749 9.84999 14.391 9.69999 14.017 9.63899C13.638 9.57699 13.25 9.60799 12.891 9.72399C12.563 9.82999 12.258 10.008 12 10.244C11.745 10.01 11.438 9.82999 11.11 9.72499C10.747 9.60699 10.362 9.57699 9.983 9.63899C9.609 9.70099 9.25 9.85099 8.943 10.076C8.637 10.301 8.386 10.599 8.215 10.939C7.987 11.394 7.91 11.9 7.992 12.403C8.074 12.906 8.307 13.361 8.656 13.709L10.864 16.011C11.01 16.164 11.184 16.284 11.386 16.371C11.582 16.453 11.788 16.495 12 16.495C12.212 16.495 12.418 16.453 12.619 16.368C12.817 16.283 12.991 16.162 13.135 16.012L15.333 13.72C15.691 13.362 15.925 12.907 16.008 12.403C16.09 11.9 16.012 11.394 15.784 10.94C15.615 10.601 15.364 10.303 15.056 10.074ZM14.527 12.16C14.496 12.351 14.408 12.523 14.261 12.67L12.031 14.988C12.021 14.993 12.01 14.995 11.999 14.995L9.726 12.658C9.591 12.523 9.503 12.351 9.472 12.162C9.441 11.973 9.471 11.782 9.556 11.61C9.62 11.482 9.716 11.369 9.83 11.285C9.946 11.2 10.082 11.143 10.224 11.119C10.272 11.111 10.321 11.107 10.37 11.107C10.465 11.107 10.558 11.122 10.649 11.151C10.785 11.195 10.91 11.272 11.012 11.373L11.47 11.831C11.763 12.124 12.238 12.124 12.531 11.831L12.988 11.374C13.091 11.271 13.217 11.194 13.353 11.15C13.489 11.106 13.637 11.094 13.776 11.118C13.918 11.141 14.054 11.199 14.169 11.282C14.284 11.367 14.38 11.48 14.444 11.609C14.528 11.782 14.558 11.973 14.527 12.16Z" fill="#1B1A16"/>
</svg>
