<svg width="24" height="24" viewBox="0 0 24 24" fill="none" xmlns="http://www.w3.org/2000/svg">
<path fill-rule="evenodd" clip-rule="evenodd" d="M21.9215 2.43642C22.106 2.80726 21.955 3.25747 21.5841 3.44201L7.17397 10.6128H10.15C10.676 10.6128 11.1805 10.8218 11.5524 11.1937C11.9244 11.5657 12.1333 12.0701 12.1333 12.5961V13.0795H13.1V12.5961C13.1 12.0701 13.309 11.5657 13.6809 11.1937C14.0529 10.8218 14.5573 10.6128 15.0833 10.6128H17.5317C17.5316 10.6128 17.5317 10.6128 17.5317 10.6128C17.8473 10.6127 18.1587 10.688 18.4395 10.8324C18.7203 10.9769 18.9625 11.1862 19.1461 11.4432L21.6309 14.9221C21.871 15.2585 22.0001 15.6617 22 16.075C22 16.0749 22 16.0751 22 16.075V18.7628C22 19.2888 21.791 19.7933 21.4191 20.1652C21.0471 20.5372 20.5427 20.7461 20.0167 20.7461H19.3861C19.2873 20.988 19.1407 21.2103 18.9524 21.3986C18.5805 21.7705 18.076 21.9795 17.55 21.9795C17.024 21.9795 16.5195 21.7705 16.1476 21.3986C15.9593 21.2103 15.8127 20.988 15.7139 20.7461H8.28606C8.18727 20.988 8.04074 21.2103 7.85243 21.3986C7.48048 21.7705 6.97601 21.9795 6.45 21.9795C5.92399 21.9795 5.41952 21.7705 5.04757 21.3986C4.85926 21.2103 4.71273 20.988 4.61394 20.7461H3.98333C3.45732 20.7461 2.95285 20.5372 2.5809 20.1652C2.20896 19.7933 2 19.2888 2 18.7628V12.5961C2 12.0701 2.20896 11.5657 2.5809 11.1937C2.90643 10.8682 3.33345 10.6675 3.78759 10.6225L20.9159 2.09909C21.2867 1.91456 21.7369 2.06558 21.9215 2.43642ZM4.61394 19.2461C4.71273 19.0043 4.85926 18.782 5.04757 18.5937C5.41952 18.2218 5.92399 18.0128 6.45 18.0128C6.97601 18.0128 7.48048 18.2218 7.85243 18.5937C8.04074 18.782 8.18727 19.0043 8.28606 19.2461H10.6333V12.5961C10.6333 12.468 10.5824 12.345 10.4918 12.2544C10.4011 12.1637 10.2782 12.1128 10.15 12.1128H3.98333C3.85514 12.1128 3.73221 12.1637 3.64157 12.2544C3.55092 12.345 3.5 12.468 3.5 12.5961V18.7628C3.5 18.891 3.55092 19.0139 3.64157 19.1046C3.73221 19.1952 3.85514 19.2461 3.98333 19.2461H4.61394ZM12.1333 14.5795V19.2461H13.1V14.5795H12.1333ZM14.6 15.5461H20.2333L17.9256 12.3152C17.8809 12.2526 17.8218 12.2015 17.7534 12.1663C17.685 12.1311 17.6091 12.1128 17.5322 12.1128H15.0833C14.9551 12.1128 14.8322 12.1637 14.7416 12.2544C14.6509 12.345 14.6 12.468 14.6 12.5961V15.5461ZM20.5 17.0461H14.6V19.2461H15.7139C15.8127 19.0043 15.9593 18.782 16.1476 18.5937C16.5195 18.2218 17.024 18.0128 17.55 18.0128C18.076 18.0128 18.5805 18.2218 18.9524 18.5937C19.1407 18.782 19.2873 19.0043 19.3861 19.2461H20.0167C20.1449 19.2461 20.2678 19.1952 20.3584 19.1046C20.4491 19.0139 20.5 18.891 20.5 18.7628V17.0461ZM6.45 19.5128C6.32181 19.5128 6.19888 19.5637 6.10823 19.6544C6.01759 19.745 5.96667 19.868 5.96667 19.9961C5.96667 20.1243 6.01759 20.2473 6.10823 20.3379C6.19887 20.4286 6.32181 20.4795 6.45 20.4795C6.57819 20.4795 6.70113 20.4286 6.79177 20.3379C6.88241 20.2473 6.93333 20.1243 6.93333 19.9961C6.93333 19.868 6.88241 19.745 6.79177 19.6544C6.70113 19.5637 6.57819 19.5128 6.45 19.5128ZM17.55 19.5128C17.4218 19.5128 17.2989 19.5637 17.2082 19.6544C17.1176 19.745 17.0667 19.868 17.0667 19.9961C17.0667 20.1243 17.1176 20.2473 17.2082 20.3379C17.2989 20.4286 17.4218 20.4795 17.55 20.4795C17.6782 20.4795 17.8011 20.4286 17.8918 20.3379C17.9824 20.2473 18.0333 20.1243 18.0333 19.9961C18.0333 19.868 17.9824 19.745 17.8918 19.6544C17.8011 19.5637 17.6782 19.5128 17.55 19.5128Z" fill="#1B1A16"/>
</svg>
