<svg width="24" height="24" viewBox="0 0 24 24" fill="none" xmlns="http://www.w3.org/2000/svg">
<path fill-rule="evenodd" clip-rule="evenodd" d="M3.57998 5.12702C3.07098 5.22402 2.46098 5.68402 2.22498 6.14902C1.99998 6.59302 2.00098 6.57902 2.00098 10.111C1.99998 13.664 1.99098 13.521 2.23098 13.771C2.36998 13.916 2.68899 14.01 2.88799 13.964C2.99494 13.9415 3.09597 13.8967 3.18452 13.8326C3.27307 13.7686 3.34716 13.6866 3.40198 13.592L3.49998 13.42L3.51998 10.127L3.53998 6.83302L3.67098 6.71702L3.80099 6.60002H14.039L14.169 6.71702L14.3 6.83302L14.32 9.50702C14.343 12.514 14.327 12.369 14.648 12.601C14.7374 12.6667 14.8405 12.7115 14.9496 12.732C15.0587 12.7526 15.171 12.7483 15.2782 12.7196C15.3855 12.6909 15.4849 12.6385 15.5691 12.5662C15.6534 12.4939 15.7203 12.4036 15.765 12.302C15.832 12.153 15.838 12.005 15.839 10.524L15.84 8.90802L15.468 8.52402C14.634 7.66402 14.159 6.66602 14.034 5.51002L13.987 5.08002L8.88299 5.08402C5.84099 5.08702 3.69898 5.10402 3.57998 5.12702ZM21.34 9.40302C21.1262 9.51711 20.9058 9.6183 20.68 9.70602C20.5744 9.7428 20.4697 9.78215 20.366 9.82402C20.359 9.83002 20.381 9.96102 20.416 10.115C20.453 10.276 20.48 10.575 20.48 10.818V11.24H18.592L18.456 11.104L18.32 10.968V10.465C18.32 9.97502 18.318 9.96102 18.23 9.94302C17.783 9.85302 17.359 9.73202 17.105 9.62102L16.8 9.48802V10.222C16.8 10.626 16.82 11.051 16.844 11.168C16.95 11.675 17.325 12.203 17.767 12.469C18.161 12.707 18.487 12.76 19.546 12.76H20.48V14.315C20.48 15.849 20.479 15.871 20.393 15.979C20.258 16.151 20.09 16.2 19.634 16.2C19.307 16.2 19.192 16.216 19.06 16.28C18.9081 16.3552 18.7869 16.4806 18.717 16.635C18.6472 16.7895 18.6331 16.9633 18.677 17.127C18.74 17.34 19.015 17.617 19.199 17.654C19.449 17.704 20.256 17.682 20.498 17.619C20.8444 17.5274 21.1602 17.3452 21.4131 17.0913C21.666 16.8374 21.8468 16.5208 21.937 16.174C22.03 15.814 22.032 10.594 21.939 10.055C21.889 9.76302 21.732 9.19002 21.707 9.20402L21.34 9.40302ZM5.28298 13.782C4.90892 13.8778 4.55593 14.0422 4.24199 14.267C3.25399 15.047 2.96599 16.361 3.52799 17.512C3.72799 17.921 4.23898 18.419 4.67998 18.635C5.47598 19.025 6.33499 19.002 7.11999 18.57C7.45299 18.386 7.90599 17.933 8.08999 17.6C8.53199 16.799 8.53799 15.883 8.10699 15.06C7.90799 14.681 7.41299 14.21 6.99999 14.006C6.47035 13.7364 5.86406 13.6573 5.28298 13.782ZM15.147 13.785C14.6043 13.9076 14.1131 14.1955 13.741 14.609C13.53 14.848 13.232 15.435 13.159 15.755C13.092 16.049 13.102 16.649 13.179 16.94C13.416 17.831 14.021 18.48 14.9 18.785C15.181 18.883 15.279 18.896 15.7 18.896C16.121 18.896 16.219 18.883 16.5 18.785C17.386 18.478 17.994 17.821 18.223 16.922C18.301 16.616 18.309 16.113 18.242 15.78C18.176 15.45 17.883 14.863 17.659 14.609C17.35 14.2626 16.9549 14.0039 16.5138 13.8592C16.0727 13.7145 15.6012 13.6889 15.147 13.785ZM6.29999 15.334C6.99299 15.658 7.13598 16.594 6.57399 17.128C6.31298 17.376 5.86299 17.47 5.48399 17.356C5.25999 17.289 4.95199 17.01 4.84099 16.773C4.72427 16.484 4.7207 16.1616 4.83098 15.87C4.92898 15.65 5.13398 15.441 5.36398 15.327C5.61298 15.204 6.02699 15.207 6.29999 15.334ZM16.191 15.343C16.415 15.455 16.554 15.597 16.691 15.855C16.814 16.088 16.814 16.552 16.691 16.785C16.553 17.046 16.413 17.188 16.183 17.3C15.764 17.506 15.176 17.401 14.9 17.073C14.689 16.821 14.622 16.641 14.622 16.32C14.622 16.089 14.642 15.982 14.709 15.855C14.934 15.431 15.241 15.24 15.7 15.24C15.925 15.24 16.027 15.261 16.191 15.343ZM9.21899 16.256C9.04899 16.33 8.84899 16.572 8.81699 16.742C8.74499 17.128 8.90399 17.464 9.22599 17.607C9.38899 17.679 9.48999 17.683 10.836 17.672L12.273 17.66L12.426 17.538C12.606 17.395 12.76 17.117 12.76 16.936C12.76 16.718 12.563 16.399 12.363 16.293C12.189 16.201 12.178 16.2 10.764 16.202C9.67798 16.203 9.31099 16.216 9.21899 16.256Z" fill="#1B1A16"/>
<path d="M15 5C15 2.79086 16.7909 1 19 1C21.2091 1 23 2.79086 23 5C23 7.20914 21.2091 9 19 9C16.7909 9 15 7.20914 15 5Z" fill="#D3273E"/>
</svg>
