<svg width="24" height="24" viewBox="0 0 24 24" fill="none" xmlns="http://www.w3.org/2000/svg">
<path fill-rule="evenodd" clip-rule="evenodd" d="M7.33363 2.40029C7.58993 2.14399 7.93754 2 8.30001 2H9.53334C9.8958 2 10.2434 2.14399 10.4997 2.40029C10.756 2.65659 10.9 3.0042 10.9 3.36667V4.6C10.9 4.89174 11.0159 5.17153 11.2222 5.37782C11.4285 5.58411 11.7083 5.7 12 5.7C12.2917 5.7 12.5715 5.58411 12.7778 5.37782C12.9841 5.17153 13.1 4.89174 13.1 4.6V3.36667C13.1 3.0042 13.244 2.65659 13.5003 2.40029C13.7566 2.14399 14.1042 2 14.4667 2H15.7C16.0625 2 16.4101 2.14399 16.6664 2.40029C16.9227 2.65659 17.0667 3.00421 17.0667 3.36667V7.68333C17.0666 8.03839 17.1766 8.38487 17.3816 8.67479C17.5865 8.96471 17.8764 9.18394 18.2111 9.30229C18.598 9.43907 18.9329 9.69246 19.1697 10.0275C19.4064 10.3625 19.5335 10.7627 19.5333 11.1728C19.5333 11.1727 19.5333 11.173 19.5333 11.1728V20.6333C19.5333 20.9958 19.3893 21.3434 19.133 21.5997C18.8767 21.856 18.5291 22 18.1667 22H5.83334C5.47088 22 5.12326 21.856 4.86696 21.5997C4.61066 21.3434 4.46667 20.9958 4.46667 20.6333V11.173C4.46667 11.1729 4.46667 11.173 4.46667 11.173C4.46654 10.7628 4.59359 10.3625 4.83032 10.0275C5.06713 9.69246 5.40204 9.43907 5.7889 9.30229C6.12364 9.18394 6.41346 8.96471 6.61842 8.67479C6.82338 8.38487 6.93341 8.03853 6.93334 7.68348V3.36667C6.93334 3.0042 7.07733 2.65659 7.33363 2.40029ZM8.43334 3.5V7.68319C8.43334 7.68314 8.43334 7.68324 8.43334 7.68319C8.43344 8.34843 8.22728 8.99749 7.84325 9.5407C7.45919 10.0839 6.91614 10.4947 6.2889 10.7165C6.19462 10.7498 6.113 10.8116 6.0553 10.8932C5.99759 10.9749 5.96662 11.0725 5.96667 11.1725L5.96667 20.5H18.0333V11.1728C18.0334 11.0729 18.0024 10.9749 17.9447 10.8932C17.887 10.8116 17.8054 10.7498 17.7111 10.7165C17.0839 10.4947 16.5408 10.0839 16.1568 9.5407C15.7727 8.99749 15.5666 8.34858 15.5667 7.68333C15.5667 7.68329 15.5667 7.68338 15.5667 7.68333V3.5H14.6V4.6C14.6 5.28956 14.3261 5.95088 13.8385 6.43848C13.3509 6.92607 12.6896 7.2 12 7.2C11.3104 7.2 10.6491 6.92607 10.1615 6.43848C9.67393 5.95088 9.4 5.28956 9.4 4.6V3.5H8.43334Z" fill="#1B1A16"/>
</svg>
