<svg width="24" height="24" viewBox="0 0 24 24" fill="none" xmlns="http://www.w3.org/2000/svg">
<path d="M21.664 8.762C21.439 8.218 21.115 7.732 20.7 7.318C20.284 6.902 19.798 6.577 19.255 6.354C18.712 6.131 18.156 6.048 17.553 6.018H14.578C14.545 5.572 14.439 5.13 14.225 4.731C13.975 4.266 13.611 3.866 13.177 3.577L12.43 3.068C12.087 2.834 11.62 2.923 11.388 3.265C11.155 3.607 11.243 4.074 11.585 4.307L12.34 4.82C12.575 4.977 12.771 5.191 12.903 5.438C13.037 5.688 13.107 5.968 13.106 6.25V6.768V12.993H3.571C3.15 12.993 2.756 13.157 2.46 13.453C2.168 13.745 2 14.149 2 14.562V17.455C2 17.983 2.206 18.481 2.581 18.857C2.951 19.225 3.461 19.437 3.982 19.437H4.618C4.94 20.379 5.824 21.063 6.873 21.063C7.929 21.063 8.817 20.371 9.133 19.419H13.855H13.856H15.085C15.402 20.37 16.29 21.063 17.346 21.063C18.402 21.063 19.289 20.371 19.607 19.419H20.016C20.547 19.419 21.045 19.213 21.417 18.839C21.794 18.465 22 17.968 22 17.438V10.465C22.001 9.877 21.888 9.304 21.664 8.762ZM17.555 7.517C17.958 7.561 18.324 7.591 18.683 7.74C19.042 7.888 19.365 8.103 19.64 8.379C19.914 8.653 20.129 8.974 20.278 9.335C20.426 9.694 20.502 10.074 20.501 10.465V10.935L17.483 10.917V7.517H17.555ZM3.642 17.797C3.552 17.706 3.5 17.582 3.5 17.455V14.562L3.571 14.492H13.106V17.92H9.134C8.818 16.969 7.929 16.277 6.874 16.277C5.812 16.277 4.919 16.977 4.608 17.937H3.982C3.856 17.938 3.731 17.886 3.642 17.797ZM6.874 19.563C6.381 19.563 5.981 19.163 5.981 18.669C5.981 18.177 6.381 17.776 6.874 17.776C7.366 17.776 7.767 18.176 7.767 18.669C7.767 19.163 7.366 19.563 6.874 19.563ZM17.348 19.563C16.856 19.563 16.455 19.163 16.455 18.669C16.455 18.177 16.855 17.776 17.348 17.776C17.841 17.776 18.241 18.176 18.241 18.669C18.24 19.163 17.84 19.563 17.348 19.563ZM20.357 17.78C20.267 17.87 20.147 17.92 20.017 17.92H19.608C19.291 16.969 18.403 16.277 17.347 16.277C16.291 16.277 15.404 16.968 15.086 17.92H14.606V7.517H15.982L15.983 10.957C16.005 11.361 16.181 11.735 16.476 12.012C16.769 12.286 17.152 12.438 17.552 12.438H20.5V14.224H19.229C18.815 14.224 18.479 14.56 18.479 14.974C18.479 15.388 18.815 15.724 19.229 15.724H20.5V17.439C20.5 17.566 20.449 17.688 20.357 17.78Z" fill="#1B1A16"/>
</svg>
