<svg width="24" height="24" viewBox="0 0 24 24" fill="none" xmlns="http://www.w3.org/2000/svg">
<path fill-rule="evenodd" clip-rule="evenodd" d="M3.48 4.23198C3.1391 4.32634 2.82888 4.5084 2.58026 4.76001C2.33163 5.01161 2.15329 5.32398 2.063 5.66598C2.007 5.88398 2 6.49298 2 11.067C2 16.69 1.99 16.426 2.227 16.915C2.386 17.244 2.773 17.614 3.129 17.779C3.511 17.955 3.796 17.999 4.56 18L5.18 18.001L5.352 18.363C5.846 19.407 7.036 20.008 8.162 19.783C8.7 19.675 9.112 19.454 9.504 19.062C9.774 18.791 9.862 18.67 10.006 18.368L10.18 18.003L12.521 18.001L14.861 18L14.929 18.192C15.121 18.731 15.613 19.263 16.178 19.544C16.682 19.795 17.162 19.879 17.667 19.806C18.462 19.691 19.097 19.29 19.52 18.635C19.609 18.497 19.713 18.297 19.751 18.192L19.819 18H20.144C21.009 18 21.543 17.703 21.853 17.047L21.98 16.78L21.991 13.2C22.001 9.97398 21.985 9.17198 21.906 9.09298C21.897 9.08298 21.786 9.14098 21.661 9.22098C21.459 9.34998 21.101 9.52798 20.63 9.73298L20.48 9.79898V10.32H17.68V10.07L17.679 9.81998L17.432 9.74298C17.163 9.65898 16.533 9.36298 16.358 9.23798C16.152 9.09198 16.15 9.09898 16.169 9.90998C16.184 10.566 16.197 10.689 16.276 10.89C16.391 11.184 16.701 11.525 16.972 11.657C17.296 11.813 17.599 11.839 19.09 11.84H20.48V13.2H19.773C19.134 13.2 19.048 13.208 18.89 13.285C18.406 13.519 18.347 14.212 18.782 14.544L18.934 14.66L19.707 14.672L20.48 14.685V16.483L20.155 16.472L19.83 16.46L19.752 16.261C19.54 15.719 19.04 15.182 18.5 14.916C18.0144 14.67 17.4632 14.5847 16.9259 14.6725C16.3887 14.7602 15.8932 15.0163 15.511 15.404L15.2 15.715V11.988L15.199 8.25998L14.955 7.91998C14.276 6.97198 13.942 5.82998 14.019 4.71498L14.046 4.32898L13.853 4.25498C13.669 4.18298 13.437 4.17998 8.7 4.17198C4.132 4.16398 3.719 4.16898 3.48 4.23198ZM13.477 5.73798C13.728 5.86798 13.72 5.75498 13.72 9.21598V12.36H3.52V5.95198L3.656 5.81598L3.792 5.67998H8.578C12.69 5.67998 13.38 5.68798 13.477 5.73798ZM13.72 15.18V16.48H10.171L10.1 16.29C9.718 15.263 8.656 14.582 7.543 14.652C7.17732 14.6695 6.81958 14.7648 6.49366 14.9316C6.16774 15.0983 5.88114 15.3327 5.653 15.619C5.496 15.811 5.279 16.199 5.222 16.39C5.195 16.479 5.184 16.48 4.535 16.48C3.472 16.48 3.52 16.548 3.52 15.031V13.88H13.72V15.18ZM8.08 16.208C8.272 16.278 8.479 16.451 8.605 16.648C8.77 16.905 8.811 17.334 8.7 17.627C8.475 18.214 7.767 18.495 7.21 18.217C7.02456 18.131 6.86824 17.9927 6.76024 17.8192C6.65224 17.6456 6.59724 17.4443 6.602 17.24C6.59943 17.0448 6.64883 16.8525 6.74513 16.6827C6.84144 16.513 6.98117 16.3719 7.15 16.274C7.376 16.134 7.795 16.104 8.08 16.208ZM17.812 16.251C18.365 16.483 18.597 17.208 18.295 17.762C18.087 18.144 17.716 18.343 17.268 18.312C17.0751 18.304 16.888 18.2437 16.7268 18.1375C16.5656 18.0312 16.4364 17.8831 16.353 17.709C16.218 17.451 16.226 17.008 16.369 16.735C16.648 16.202 17.231 16.007 17.812 16.251Z" fill="#1B1A16"/>
<path d="M15 5C15 2.79086 16.7909 1 19 1C21.2091 1 23 2.79086 23 5C23 7.20914 21.2091 9 19 9C16.7909 9 15 7.20914 15 5Z" fill="#D3273E"/>
</svg>
