<svg width="24" height="24" viewBox="0 0 24 24" fill="none" xmlns="http://www.w3.org/2000/svg">
<path d="M19.719 3.665C18.661 2.607 17.197 2 15.7 2H14.467C14.436 2 14.408 2.014 14.377 2.018C14.347 2.021 14.316 2.014 14.285 2.022C14.264 2.027 14.251 2.041 14.231 2.047C14.183 2.063 14.14 2.086 14.097 2.111C14.055 2.135 14.015 2.159 13.979 2.191C13.943 2.222 13.916 2.257 13.886 2.294C13.856 2.333 13.827 2.37 13.805 2.414C13.784 2.455 13.771 2.498 13.758 2.543C13.743 2.592 13.732 2.64 13.728 2.692C13.726 2.712 13.716 2.729 13.716 2.75C13.716 3.208 13.537 3.64 13.213 3.964C12.565 4.612 11.434 4.612 10.785 3.964C10.465 3.644 10.282 3.202 10.282 2.75C10.282 2.73 10.272 2.713 10.27 2.693C10.266 2.641 10.254 2.593 10.24 2.544C10.226 2.499 10.214 2.455 10.192 2.414C10.17 2.371 10.142 2.334 10.112 2.296C10.083 2.258 10.054 2.223 10.018 2.192C9.98397 2.159 9.94497 2.136 9.90297 2.112C9.85897 2.086 9.81697 2.063 9.76797 2.047C9.74797 2.041 9.73397 2.026 9.71397 2.022C9.68197 2.014 9.65197 2.022 9.61997 2.018C9.58997 2.014 9.56397 2 9.53297 2H8.29997C6.78197 2 5.35397 2.591 4.28097 3.665C3.20797 4.739 2.61597 6.165 2.61597 7.684V12C2.61597 12.365 2.75797 12.708 3.01597 12.967C3.27397 13.225 3.61797 13.367 3.98197 13.367H6.31497V20.633C6.31497 20.996 6.45597 21.339 6.71397 21.599C6.97397 21.857 7.31697 22 7.68397 22H16.317C16.682 22 17.026 21.857 17.286 21.598C17.543 21.339 17.684 20.996 17.684 20.633V13.367H20.017C20.375 13.367 20.728 13.221 20.985 12.965C21.242 12.707 21.383 12.365 21.383 12V7.684C21.383 6.166 20.792 4.738 19.719 3.665ZM14.263 5.034L14.574 6.283L13.324 5.657C13.667 5.508 13.989 5.306 14.263 5.034ZM10.677 5.657L9.42697 6.283L9.73797 5.035C10.011 5.306 10.333 5.508 10.677 5.657ZM19.883 11.867H17.684V8.917C17.684 8.503 17.348 8.167 16.934 8.167C16.52 8.167 16.184 8.503 16.184 8.917V20.5H7.81697V8.917C7.81697 8.503 7.48097 8.167 7.06697 8.167C6.65297 8.167 6.31697 8.503 6.31697 8.917V11.868H4.11697V7.684C4.11697 6.566 4.55197 5.516 5.34197 4.726C6.13197 3.936 7.18297 3.5 8.29997 3.5H8.57297L7.90197 6.199C7.83697 6.454 7.84797 6.72 7.93197 6.968C8.01597 7.216 8.16697 7.434 8.37297 7.599C8.57697 7.762 8.82197 7.863 9.08097 7.891C9.12997 7.896 9.17897 7.898 9.22797 7.898C9.43897 7.898 9.64697 7.849 9.83797 7.754L11.25 7.047V8.916C11.25 9.33 11.586 9.666 12 9.666C12.414 9.666 12.75 9.33 12.75 8.916V7.048L14.163 7.755C14.352 7.85 14.56 7.899 14.771 7.899C14.821 7.899 14.87 7.897 14.919 7.891C15.177 7.863 15.421 7.763 15.628 7.598C15.833 7.432 15.985 7.214 16.068 6.966C16.151 6.716 16.161 6.449 16.097 6.202L15.426 3.5H15.7C16.802 3.5 17.88 3.946 18.658 4.725C19.448 5.515 19.883 6.566 19.883 7.683V11.867Z" fill="#1B1A16"/>
</svg>
