<svg width="24" height="24" viewBox="0 0 24 24" fill="none" xmlns="http://www.w3.org/2000/svg">
<path fill-rule="evenodd" clip-rule="evenodd" d="M13.2225 5.69997H3.98333C3.45732 5.69997 2.95285 5.90892 2.5809 6.28087C2.20896 6.65282 2 7.15729 2 7.6833V15.0833C2 15.6093 2.20896 16.1138 2.5809 16.4857C2.95285 16.8577 3.45732 17.0666 3.98333 17.0666L4.61396 17.0666C4.71275 17.3084 4.85927 17.5307 5.04757 17.719C5.41952 18.0909 5.92399 18.2999 6.45 18.2999C6.97601 18.2999 7.48048 18.0909 7.85243 17.719C8.04074 17.5307 8.18727 17.3084 8.28606 17.0666H13.2321C13.2325 17.0666 13.2329 17.0666 13.2333 17.0666C13.2337 17.0666 13.2341 17.0666 13.2345 17.0666H15.7139C15.8127 17.3084 15.9593 17.5307 16.1476 17.719C16.5195 18.0909 17.024 18.2999 17.55 18.2999C18.076 18.2999 18.5805 18.0909 18.9524 17.719C19.1407 17.5307 19.2873 17.3084 19.386 17.0666L20.0166 17.0666C20.5426 17.0666 21.0471 16.8577 21.4191 16.4857C21.791 16.1138 22 15.6093 22 15.0833V13.85C22 13.5265 21.9757 13.1803 21.8326 12.8517C21.6797 12.5006 21.4306 12.2547 21.1408 12.0534C20.8678 11.8637 20.5151 11.6846 20.1055 11.4862C19.96 11.4157 19.8054 11.342 19.6385 11.2624C19.3923 11.1449 19.1194 11.0147 18.8098 10.8636L18.128 8.13615C17.9539 7.44036 17.5523 6.8226 16.987 6.38121C16.4216 5.93983 15.725 5.70005 15.0078 5.69997H13.2442C13.2406 5.69992 13.237 5.69989 13.2333 5.69989C13.2297 5.69989 13.2261 5.69992 13.2225 5.69997ZM17.2061 10.6332L16.6728 8.50006C16.6728 8.50002 16.6728 8.50009 16.6728 8.50006C16.5799 8.12877 16.3655 7.79907 16.0639 7.56353C15.7622 7.32799 15.3904 7.20003 15.0077 7.19997C15.0077 7.19997 15.0077 7.19997 15.0077 7.19997H13.9833V10.6332H17.2061ZM12.4833 7.19997H3.98333C3.85515 7.19997 3.73221 7.25089 3.64157 7.34153C3.55092 7.43217 3.5 7.55511 3.5 7.6833V15.0833C3.5 15.2115 3.55092 15.3344 3.64157 15.4251C3.7322 15.5157 3.85512 15.5666 3.98329 15.5666L4.61393 15.5666C4.71272 15.3247 4.85925 15.1024 5.04757 14.9141C5.41952 14.5422 5.92399 14.3332 6.45 14.3332C6.97601 14.3332 7.48048 14.5422 7.85243 14.9141C8.04074 15.1024 8.18727 15.3247 8.28606 15.5666H12.4833V7.19997ZM13.9833 15.5666V12.1332H17.9918C18.3765 12.3222 18.7171 12.4847 19.009 12.624C19.172 12.7018 19.3198 12.7723 19.4516 12.8362C19.8713 13.0395 20.1219 13.172 20.285 13.2853C20.429 13.3854 20.45 13.4337 20.457 13.4498C20.4735 13.4877 20.5 13.581 20.5 13.85V15.0833C20.5 15.2115 20.4491 15.3344 20.3584 15.4251C20.2678 15.5157 20.1449 15.5666 20.0167 15.5666C20.0167 15.5666 20.0167 15.5666 20.0167 15.5666L19.3861 15.5666C19.2873 15.3247 19.1407 15.1024 18.9524 14.9141C18.5805 14.5422 18.076 14.3332 17.55 14.3332C17.024 14.3332 16.5195 14.5422 16.1476 14.9141C15.9593 15.1024 15.8127 15.3247 15.7139 15.5666H13.9833ZM4.46667 8.91656C4.46667 8.50234 4.80245 8.16656 5.21667 8.16656H10.7667C11.1809 8.16656 11.5167 8.50234 11.5167 8.91656V11.3832C11.5167 11.7974 11.1809 12.1332 10.7667 12.1332H5.21667C4.80245 12.1332 4.46667 11.7974 4.46667 11.3832V8.91656ZM5.96667 9.66656V10.6332H10.0167V9.66656H5.96667ZM6.45 15.8332C6.32181 15.8332 6.19888 15.8841 6.10823 15.9748C6.01759 16.0654 5.96667 16.1884 5.96667 16.3166C5.96667 16.4447 6.01759 16.5677 6.10823 16.6583C6.19888 16.749 6.32181 16.7999 6.45 16.7999C6.57819 16.7999 6.70113 16.749 6.79177 16.6583C6.88241 16.5677 6.93333 16.4447 6.93333 16.3166C6.93333 16.1884 6.88241 16.0654 6.79177 15.9748C6.70113 15.8841 6.57819 15.8332 6.45 15.8332ZM17.8918 15.9748C17.8011 15.8841 17.6782 15.8332 17.55 15.8332C17.4218 15.8332 17.2989 15.8841 17.2082 15.9748C17.1176 16.0654 17.0667 16.1884 17.0667 16.3166C17.0667 16.4447 17.1176 16.5677 17.2082 16.6583C17.2989 16.749 17.4218 16.7999 17.55 16.7999C17.6782 16.7999 17.8011 16.749 17.8918 16.6583C17.9824 16.5677 18.0333 16.4447 18.0333 16.3166C18.0333 16.1884 17.9824 16.0654 17.8918 15.9748Z" fill="#1B1A16"/>
</svg>
