<svg width="24" height="24" viewBox="0 0 24 24" fill="none" xmlns="http://www.w3.org/2000/svg">
<path fill-rule="evenodd" clip-rule="evenodd" d="M10.7592 3.87456C10.9889 3.52985 11.4545 3.4366 11.7992 3.66628L12.5507 4.16701C12.9919 4.46113 13.3537 4.85985 13.6036 5.32752C13.8187 5.72992 13.9453 6.17269 13.976 6.62622H16.4803C16.4803 6.62622 16.4803 6.62622 16.4803 6.62622C16.9577 6.62621 17.4192 6.79843 17.7799 7.11127C18.1405 7.4241 18.3763 7.85653 18.4438 8.32918C18.4437 8.32915 18.4438 8.3292 18.4438 8.32918L18.8478 11.1576L20.7531 11.9199C20.7531 11.9199 20.7532 11.9199 20.7531 11.9199C21.121 12.067 21.4365 12.321 21.6587 12.649C21.8809 12.9771 21.9998 13.3642 22 13.7604V17.2429C22 17.7689 21.791 18.2734 21.4191 18.6453C21.0471 19.0173 20.5427 19.2262 20.0167 19.2262L18.7694 19.2262C18.6706 19.468 18.5241 19.6903 18.3358 19.8786C17.9638 20.2506 17.4593 20.4595 16.9333 20.4595C16.4073 20.4595 15.9029 20.2506 15.5309 19.8786C15.3426 19.6903 15.1961 19.468 15.0973 19.2262H8.28606C8.18727 19.468 8.04074 19.6903 7.85243 19.8786C7.48048 20.2506 6.97601 20.4595 6.45 20.4595C5.92399 20.4595 5.41952 20.2506 5.04757 19.8786C4.85926 19.6903 4.71273 19.468 4.61394 19.2262H3.98333C3.45732 19.2262 2.95285 19.0173 2.58091 18.6453C2.20896 18.2734 2 17.7689 2 17.2429V15.5803C2 15.1682 2.16374 14.7729 2.4552 14.4814C2.74665 14.19 3.14195 14.0262 3.55413 14.0262H12.4833L12.4833 6.84671C12.4837 6.56372 12.4141 6.28409 12.2807 6.0345C12.1473 5.78492 11.9543 5.57218 11.7188 5.41521L10.9675 4.91457C10.6228 4.68489 10.5295 4.21926 10.7592 3.87456ZM13.9833 12.4429L13.9833 14.7752C13.9833 14.7749 13.9833 14.7756 13.9833 14.7752C13.9833 14.7756 13.9833 14.7769 13.9833 14.7772V17.7262H15.0973C15.1961 17.4844 15.3426 17.2621 15.5309 17.0738C15.9029 16.7018 16.4073 16.4929 16.9333 16.4929C17.4593 16.4929 17.9638 16.7018 18.3358 17.0738C18.5241 17.2621 18.6706 17.4844 18.7694 17.7262L20.0167 17.7262C20.1449 17.7262 20.2678 17.6753 20.3584 17.5846C20.4491 17.494 20.5 17.3711 20.5 17.2429V16.7595H19.6417C19.2275 16.7595 18.8917 16.4238 18.8917 16.0095C18.8917 15.5953 19.2275 15.2595 19.6417 15.2595H20.5V13.7611C20.5 13.6646 20.471 13.5702 20.4168 13.4903C20.3627 13.4104 20.2858 13.3485 20.1961 13.3126L18.0222 12.4429H13.9833ZM17.3019 10.9429L13.9833 10.9429V8.12622H16.4803C16.5966 8.12622 16.7091 8.16819 16.797 8.24443C16.8849 8.32067 16.9424 8.42606 16.9588 8.54124L17.3019 10.9429ZM12.4833 17.7262V15.5262H3.55413C3.53978 15.5262 3.52601 15.5319 3.51585 15.5421C3.5057 15.5522 3.5 15.566 3.5 15.5803V17.2429C3.5 17.3711 3.55092 17.494 3.64156 17.5846C3.73221 17.6753 3.85514 17.7262 3.98333 17.7262H4.61394C4.71273 17.4844 4.85926 17.2621 5.04757 17.0738C5.41952 16.7018 5.92399 16.4929 6.45 16.4929C6.97602 16.4929 7.48048 16.7018 7.85243 17.0738C8.04074 17.2621 8.18727 17.4844 8.28606 17.7262H12.4833ZM6.45 17.9929C6.32181 17.9929 6.19888 18.0438 6.10823 18.1344C6.01759 18.2251 5.96667 18.348 5.96667 18.4762C5.96667 18.6044 6.01759 18.7273 6.10823 18.818C6.19887 18.9086 6.32181 18.9595 6.45 18.9595C6.57819 18.9595 6.70113 18.9086 6.79177 18.818C6.88241 18.7273 6.93333 18.6044 6.93333 18.4762C6.93333 18.348 6.88241 18.2251 6.79177 18.1344C6.70113 18.0438 6.57819 17.9929 6.45 17.9929ZM16.9333 17.9929C16.8051 17.9929 16.6822 18.0438 16.5916 18.1344C16.5009 18.2251 16.45 18.348 16.45 18.4762C16.45 18.6044 16.5009 18.7273 16.5916 18.818C16.6822 18.9086 16.8051 18.9595 16.9333 18.9595C17.0615 18.9595 17.1845 18.9086 17.2751 18.818C17.3657 18.7273 17.4167 18.6044 17.4167 18.4762C17.4167 18.348 17.3657 18.2251 17.2751 18.1344C17.1845 18.0438 17.0615 17.9929 16.9333 17.9929Z" fill="#1B1A16"/>
</svg>
