<svg width="24" height="24" viewBox="0 0 24 24" fill="none" xmlns="http://www.w3.org/2000/svg">
<path fill-rule="evenodd" clip-rule="evenodd" d="M13.9197 2.51483C14.9581 2.08468 16.1009 1.97213 17.2033 2.19142C18.3058 2.41071 19.3185 2.952 20.1133 3.74683C20.9081 4.54166 21.4494 5.55433 21.6687 6.65679C21.888 7.75924 21.7754 8.90197 21.3453 9.94047C20.9151 10.979 20.1867 11.8666 19.2521 12.4911C18.3174 13.1156 17.2186 13.4489 16.0946 13.4489C14.5873 13.4489 13.1417 12.8501 12.0758 11.7843C11.01 10.7184 10.4112 9.27286 10.4112 7.76555C10.4112 6.64149 10.7446 5.54268 11.3691 4.60806C11.9935 3.67344 12.8812 2.94499 13.9197 2.51483ZM16.9107 3.6626C16.0992 3.50118 15.2581 3.58403 14.4937 3.90065C13.7293 4.21728 13.0759 4.75347 12.6163 5.44141C12.1566 6.12936 11.9112 6.93816 11.9112 7.76555C11.9112 8.87504 12.352 9.93909 13.1365 10.7236C13.921 11.5081 14.9851 11.9489 16.0946 11.9489C16.922 11.9489 17.7308 11.7035 18.4187 11.2439C19.1067 10.7842 19.6428 10.1308 19.9595 9.36644C20.2761 8.60204 20.3589 7.76091 20.1975 6.94942C20.0361 6.13793 19.6377 5.39254 19.0526 4.80749C18.4676 4.22244 17.7222 3.82401 16.9107 3.6626ZM18.7431 5.73489C19.0745 5.98339 19.1417 6.45349 18.8932 6.78488L16.5047 9.97017L16.5034 9.97186C16.3857 10.1279 16.2359 10.257 16.0641 10.3503C15.8923 10.4436 15.7025 10.499 15.5075 10.5128C15.3125 10.5266 15.1169 10.4984 14.9337 10.4302C14.7504 10.362 14.584 10.2554 14.4455 10.1174L14.4444 10.1163L13.211 8.88299C12.9181 8.5901 12.9181 8.11523 13.211 7.82233C13.5039 7.52944 13.9788 7.52944 14.2717 7.82233L15.3967 8.94738L17.6931 5.88498C17.9416 5.55359 18.4117 5.48639 18.7431 5.73489ZM9.50649 8.77467C9.85691 8.99552 9.96195 9.45863 9.7411 9.80906C9.69246 9.88624 9.66665 9.97561 9.66667 10.0668V15.0003C9.66667 15.4145 9.33094 15.7502 8.91677 15.7503L3.5 15.751V18.7011C3.5 18.8293 3.55092 18.9523 3.64157 19.0429C3.73221 19.1336 3.85514 19.1845 3.98333 19.1845H4.6C5.01421 19.1845 5.35 19.5203 5.35 19.9345C5.35 20.3487 5.01421 20.6845 4.6 20.6845H3.98333C3.45732 20.6845 2.95285 20.4755 2.5809 20.1036C2.20896 19.7316 2 19.2272 2 18.7011V15.0012C2 15.0012 2 15.0013 2 15.0012V13.7678C2 12.5876 2.46884 11.4557 3.30337 10.6212C4.13785 9.78671 5.26962 9.31788 6.44974 9.31781C6.44965 9.31781 6.44983 9.31781 6.44974 9.31781L8.31378 9.31716C8.35729 9.21056 8.41019 9.10752 8.4721 9.00928C8.69295 8.65886 9.15606 8.55382 9.50649 8.77467ZM8.16667 10.8172L6.45026 10.8178C5.66787 10.8178 4.91727 11.1286 4.36403 11.6818C3.8108 12.2351 3.5 12.9854 3.5 13.7678V14.251L8.16667 14.2504V10.8172ZM21.25 12.7711C21.6642 12.7711 22 13.1069 22 13.5211V16.2345C22 16.6487 21.6642 16.9845 21.25 16.9845C20.8358 16.9845 20.5 16.6487 20.5 16.2345V13.5211C20.5 13.1069 20.8358 12.7711 21.25 12.7711ZM8.3 18.2178C7.69249 18.2178 7.2 18.7103 7.2 19.3178C7.2 19.9253 7.69249 20.4178 8.3 20.4178C8.90751 20.4178 9.4 19.9253 9.4 19.3178C9.4 18.7103 8.90751 18.2178 8.3 18.2178ZM5.7 19.3178C5.7 17.8819 6.86406 16.7178 8.3 16.7178C9.73594 16.7178 10.9 17.8819 10.9 19.3178C10.9 20.7537 9.73594 21.9178 8.3 21.9178C6.86406 21.9178 5.7 20.7537 5.7 19.3178ZM18.1667 18.2178C17.5592 18.2178 17.0667 18.7103 17.0667 19.3178C17.0667 19.9253 17.5592 20.4178 18.1667 20.4178C18.7742 20.4178 19.2667 19.9253 19.2667 19.3178C19.2667 18.7103 18.7742 18.2178 18.1667 18.2178ZM15.5667 19.3178C15.5667 17.8819 16.7307 16.7178 18.1667 16.7178C19.6026 16.7178 20.7667 17.8819 20.7667 19.3178C20.7667 20.7537 19.6026 21.9178 18.1667 21.9178C16.7307 21.9178 15.5667 20.7537 15.5667 19.3178ZM11.25 19.9345C11.25 19.5203 11.5858 19.1845 12 19.1845H14.4667C14.8809 19.1845 15.2167 19.5203 15.2167 19.9345C15.2167 20.3487 14.8809 20.6845 14.4667 20.6845H12C11.5858 20.6845 11.25 20.3487 11.25 19.9345Z" fill="#1B1A16"/>
</svg>
