<svg width="24" height="24" viewBox="0 0 24 24" fill="none" xmlns="http://www.w3.org/2000/svg">
<path fill-rule="evenodd" clip-rule="evenodd" d="M13.2311 5.65997C13.3592 5.65997 13.4821 5.71087 13.5727 5.80146C13.6633 5.89205 13.7142 6.01492 13.7142 6.14304L13.7142 12.3722L3.5 12.3722L3.5 6.14304C3.5 6.01493 3.55089 5.89205 3.64149 5.80146C3.73208 5.71087 3.85495 5.65997 3.98307 5.65997L13.2311 5.65997ZM3.5 13.8722L13.7142 13.8722V16.4824H10.1721C9.85016 15.4124 8.85725 14.6328 7.68228 14.6328C6.5073 14.6328 5.5144 15.4124 5.1925 16.4824L3.98307 16.4824C3.85495 16.4824 3.73208 16.4316 3.64149 16.341C3.55089 16.2504 3.5 16.1275 3.5 15.9994L3.5 13.8722ZM5.1925 17.9824L3.98307 17.9824C3.45712 17.9824 2.95272 17.7735 2.58083 17.4016C2.20893 17.0297 2 16.5253 2 15.9994L2 6.14304C2 5.6171 2.20893 5.1127 2.58083 4.7408C2.95272 4.3689 3.45712 4.15997 3.98307 4.15997L13.2311 4.15997C13.757 4.15997 14.2614 4.3689 14.6333 4.7408C15.0052 5.1127 15.2142 5.6171 15.2142 6.14304V6.61789H18.9854C19.0059 6.61789 19.0263 6.61873 19.0467 6.6204C19.8829 6.68897 20.6592 7.08158 21.21 7.71447C21.7558 8.34166 22.0373 9.15561 21.996 9.98542V16.3526C22.0115 16.754 21.8726 17.1464 21.6075 17.4489C21.3374 17.7573 20.9574 17.9479 20.5487 17.9801C20.5291 17.9817 20.5094 17.9825 20.4898 17.9825H19.8311C19.5092 19.0525 18.5163 19.8321 17.3413 19.8321C16.1664 19.8321 15.1735 19.0525 14.8516 17.9824L14.4642 17.9825L10.1721 17.9824C9.85016 19.0525 8.85725 19.8321 7.68228 19.8321C6.5073 19.8321 5.51439 19.0525 5.1925 17.9824ZM15.2142 15.7377L15.2142 8.11789H16.1803V10.3446C16.1771 10.537 16.2123 10.7282 16.2839 10.907C16.3567 11.089 16.4658 11.2543 16.6044 11.393C16.7431 11.5316 16.9084 11.6407 17.0904 11.7135C17.2692 11.7851 17.4603 11.8203 17.6528 11.8171L20.496 11.8171V13.1943H19.2238C18.8096 13.1943 18.4738 13.5301 18.4738 13.9443C18.4738 14.3585 18.8096 14.6943 19.2238 14.6943H20.496V16.3693C20.496 16.3826 20.4964 16.3959 20.4971 16.4091C20.4981 16.4279 20.4917 16.4463 20.4793 16.4604C20.47 16.4711 20.4577 16.4788 20.4441 16.4825H19.8311C19.5092 15.4124 18.5163 14.6328 17.3413 14.6328C16.462 14.6328 15.6846 15.0695 15.2142 15.7377ZM20.496 10.3171L17.6803 10.3171V8.11789H18.9519C19.3875 8.16075 19.7907 8.3685 20.0784 8.69918C20.3723 9.03689 20.5226 9.47608 20.4972 9.92305C20.4964 9.93721 20.496 9.95138 20.496 9.96556V10.3171ZM17.3413 16.1328C17.9486 16.1328 18.4409 16.6251 18.4409 17.2325C18.4409 17.8398 17.9486 18.3321 17.3413 18.3321C16.734 18.3321 16.2417 17.8397 16.2417 17.2324C16.2417 16.6252 16.734 16.1328 17.3413 16.1328ZM7.68228 16.1328C8.28957 16.1328 8.78188 16.6252 8.78188 17.2324C8.78188 17.8397 8.28957 18.3321 7.68228 18.3321C7.07498 18.3321 6.58267 17.8397 6.58267 17.2324C6.58267 16.6252 7.07498 16.1328 7.68228 16.1328Z" fill="#1B1A16"/>
</svg>
