<svg width="24" height="24" viewBox="0 0 24 24" fill="none" xmlns="http://www.w3.org/2000/svg">
<path fill-rule="evenodd" clip-rule="evenodd" d="M15.2524 5.66422C14.8805 5.29227 14.376 5.08331 13.85 5.08331H3.98333C3.45732 5.08331 2.95285 5.29227 2.58091 5.66422C2.20896 6.03616 2 6.54063 2 7.06665V13.2333C2 13.6475 2.33579 13.9833 2.75 13.9833C3.16421 13.9833 3.5 13.6475 3.5 13.2333V7.06665C3.5 6.93846 3.55092 6.81552 3.64157 6.72488C3.73221 6.63423 3.85515 6.58331 3.98333 6.58331H13.85C13.9782 6.58331 14.1011 6.63424 14.1918 6.72488C14.2824 6.81552 14.3333 6.93846 14.3333 7.06665V12C14.3333 12.4142 14.6691 12.75 15.0833 12.75C15.4975 12.75 15.8333 12.4142 15.8333 12V7.81665H16.8V10.7666C16.8 11.2927 17.009 11.7971 17.3809 12.1691C17.7529 12.541 18.2573 12.75 18.7833 12.75H20.5V15.7C20.5 15.8282 20.4491 15.9511 20.3584 16.0417C20.2678 16.1324 20.1449 16.1833 20.0167 16.1833H19.4C18.9858 16.1833 18.65 16.5191 18.65 16.9333C18.65 17.3475 18.9858 17.6833 19.4 17.6833H20.0167C20.5427 17.6833 21.0471 17.4744 21.4191 17.1024C21.791 16.7305 22 16.226 22 15.7V10.7666C22 9.58643 21.5312 8.45456 20.6966 7.62002C19.8621 6.78548 18.7302 6.31665 17.55 6.31665L15.6861 6.31665C15.5873 6.0748 15.4407 5.85253 15.2524 5.66422ZM20.5 11.25H18.7833C18.6551 11.25 18.5322 11.1991 18.4416 11.1084C18.3509 11.0178 18.3 10.8948 18.3 10.7666L18.3 7.91357C18.8011 8.04532 19.2633 8.30799 19.636 8.68068C20.1892 9.23391 20.5 9.98426 20.5 10.7666V11.25ZM17.5385 14.4782C17.0509 13.9906 16.3896 13.7166 15.7 13.7166C15.0104 13.7166 14.3491 13.9906 13.8615 14.4782C13.3739 14.9658 13.1 15.6271 13.1 16.3166C13.1 17.0062 13.3739 17.6675 13.8615 18.1551C14.3491 18.6427 15.0104 18.9166 15.7 18.9166C16.3896 18.9166 17.0509 18.6427 17.5385 18.1551C18.0261 17.6675 18.3 17.0062 18.3 16.3166C18.3 15.6271 18.0261 14.9658 17.5385 14.4782ZM15.7 15.2166C15.9917 15.2166 16.2715 15.3325 16.4778 15.5388C16.6841 15.7451 16.8 16.0249 16.8 16.3166C16.8 16.6084 16.6841 16.8882 16.4778 17.0945C16.2715 17.3008 15.9917 17.4166 15.7 17.4166C15.4083 17.4166 15.1285 17.3008 14.9222 17.0945C14.7159 16.8882 14.6 16.6084 14.6 16.3166C14.6 16.0249 14.7159 15.7451 14.9222 15.5388C15.1285 15.3325 15.4083 15.2166 15.7 15.2166ZM7.67181 14.4782C7.18422 13.9906 6.5229 13.7166 5.83333 13.7166C5.14377 13.7166 4.48245 13.9906 3.99486 14.4782C3.50726 14.9658 3.23333 15.6271 3.23333 16.3166C3.23333 17.0062 3.50726 17.6675 3.99486 18.1551C4.48245 18.6427 5.14377 18.9166 5.83333 18.9166C6.5229 18.9166 7.18422 18.6427 7.67181 18.1551C8.1594 17.6675 8.43333 17.0062 8.43333 16.3166C8.43333 15.6271 8.1594 14.9658 7.67181 14.4782ZM5.83333 15.2166C6.12507 15.2166 6.40486 15.3325 6.61115 15.5388C6.81744 15.7451 6.93333 16.0249 6.93333 16.3166C6.93333 16.6084 6.81744 16.8882 6.61115 17.0945C6.40486 17.3008 6.12507 17.4166 5.83333 17.4166C5.5416 17.4166 5.26181 17.3008 5.05552 17.0945C4.84923 16.8882 4.73333 16.6084 4.73333 16.3166C4.73333 16.0249 4.84923 15.7451 5.05552 15.5388C5.26181 15.3325 5.5416 15.2166 5.83333 15.2166ZM12.75 16.9333C12.75 16.5191 12.4142 16.1833 12 16.1833H9.53333C9.11912 16.1833 8.78333 16.5191 8.78333 16.9333C8.78333 17.3475 9.11912 17.6833 9.53333 17.6833H12C12.4142 17.6833 12.75 17.3475 12.75 16.9333Z" fill="#1B1A16"/>
</svg>
