<svg width="24" height="24" viewBox="0 0 24 24" fill="none" xmlns="http://www.w3.org/2000/svg">
<path fill-rule="evenodd" clip-rule="evenodd" d="M6.02521 2.94214C6.62846 2.33889 7.44663 2 8.29974 2H15.6998C16.5529 2 17.3711 2.33889 17.9743 2.94214C18.5775 3.54537 18.9165 4.36353 18.9165 5.21668V5.69997H19.3998C19.9258 5.69997 20.4303 5.90893 20.8022 6.28084C21.1741 6.6528 21.3831 7.15734 21.3831 7.6833V10.15C21.3831 10.5642 21.0473 10.9 20.6331 10.9C20.2189 10.9 19.8831 10.5642 19.8831 10.15V7.6833C19.8831 7.5551 19.8322 7.43219 19.7416 7.34157C19.6509 7.25088 19.528 7.19997 19.3998 7.19997H18.9165V10.9339C19.1099 11.0411 19.2892 11.1756 19.4484 11.3348C19.8974 11.7838 20.1497 12.3929 20.1497 13.0279V15.7139C20.3916 15.8127 20.614 15.9593 20.8023 16.1477C21.1743 16.5196 21.3831 17.0241 21.3831 17.55C21.3831 18.076 21.1742 18.5804 20.8022 18.9524C20.6139 19.1408 20.3916 19.2873 20.1496 19.3861V20.0167C20.1496 20.5427 19.9407 21.0472 19.5687 21.4192C19.1968 21.7911 18.6923 22 18.1663 22C17.6403 22 17.1359 21.7911 16.7639 21.4192C16.3919 21.0472 16.183 20.5427 16.183 20.0167V19.5333H7.81641V20.0166C7.81641 20.5427 7.60749 21.0471 7.2355 21.4191C6.86355 21.791 6.3591 21.9999 5.8331 21.9999C5.30711 21.9999 4.80265 21.791 4.43071 21.4191C4.05871 21.0471 3.84979 20.5427 3.84979 20.0166V19.3861C3.60792 19.2873 3.38564 19.1407 3.19735 18.9525C2.82544 18.5805 2.61639 18.076 2.61639 17.55C2.61639 17.0241 2.82529 16.5196 3.19726 16.1476C3.38556 15.9593 3.60784 15.8128 3.84967 15.714V13.0279C3.84967 12.3929 4.10193 11.7838 4.55099 11.3347C4.71022 11.1755 4.88957 11.041 5.08307 10.9338V7.19997H4.59973C4.47154 7.19997 4.3486 7.25089 4.25797 7.34153C4.16734 7.43216 4.11639 7.55511 4.11639 7.6833V10.15C4.11639 10.5642 3.78061 10.9 3.36639 10.9C2.95218 10.9 2.61639 10.5642 2.61639 10.15V7.6833C2.61639 7.1573 2.82534 6.65283 3.19729 6.28088C3.56924 5.90893 4.07373 5.69997 4.59973 5.69997H5.08307V5.21668C5.08307 4.36356 5.42196 3.54538 6.02521 2.94214ZM6.58307 5.96667V6.44713L6.58307 6.44997L6.58307 6.4528V10.6334H11.2498V5.96667H6.58307ZM12.7498 5.96667V10.6334H17.4165V6.45398L17.4165 6.44997L17.4165 6.44596V5.96667H12.7498ZM17.244 4.46667H6.75556C6.8383 4.29632 6.94941 4.13925 7.08587 4.0028C7.40781 3.68086 7.84445 3.5 8.29974 3.5H15.6998C16.1551 3.5 16.5917 3.68087 16.9137 4.00279C17.0501 4.13926 17.1612 4.29632 17.244 4.46667ZM18.6497 13.0279V15.5667H5.34967V13.0279C5.34967 12.7907 5.44391 12.5631 5.61164 12.3954C5.7794 12.2277 6.00692 12.1334 6.24412 12.1334H17.7553C17.9925 12.1334 18.22 12.2277 18.3877 12.3954C18.5555 12.5632 18.6497 12.7907 18.6497 13.0279ZM4.58962 17.0668C4.46506 17.0694 4.34622 17.12 4.25801 17.2082C4.16744 17.2987 4.11639 17.4218 4.11639 17.55C4.11639 17.6781 4.16736 17.8011 4.258 17.8918C4.34782 17.9816 4.46926 18.0324 4.59598 18.0333L4.59979 18.0333L4.60587 18.0333H7.06034L7.06641 18.0333L7.07249 18.0333H19.3998C19.5279 18.0333 19.6509 17.9824 19.7416 17.8918C19.8322 17.8011 19.8831 17.6782 19.8831 17.55C19.8831 17.4218 19.832 17.2986 19.7415 17.2081C19.6533 17.12 19.5344 17.0693 19.4099 17.0668L19.3997 17.0668H4.59967L4.58962 17.0668ZM6.31641 19.5333H5.34979V20.0166C5.34979 20.1449 5.4007 20.2678 5.49137 20.3584C5.58193 20.449 5.70482 20.4999 5.8331 20.4999C5.96138 20.4999 6.08428 20.449 6.17484 20.3584C6.26551 20.2678 6.31641 20.1449 6.31641 20.0166V19.5333ZM17.683 19.5333V20.0167C17.683 20.1449 17.7339 20.2678 17.8246 20.3585C17.9152 20.4491 18.038 20.5 18.1663 20.5C18.2946 20.5 18.4175 20.4491 18.5081 20.3585C18.5987 20.2678 18.6496 20.1449 18.6496 20.0167V19.5333H17.683Z" fill="#1B1A16"/>
<path fill-rule="evenodd" clip-rule="evenodd" d="M10.0164 13.85C10.0164 13.4358 10.3522 13.1 10.7664 13.1H13.2331C13.6473 13.1 13.9831 13.4358 13.9831 13.85C13.9831 14.2642 13.6473 14.6 13.2331 14.6H10.7664C10.3522 14.6 10.0164 14.2642 10.0164 13.85Z" fill="#1B1A16"/>
<path fill-rule="evenodd" clip-rule="evenodd" d="M6.00812 13.8759C6.00812 13.2913 6.48206 12.8176 7.06645 12.8176C7.6509 12.8176 8.12477 13.2914 8.12477 13.8759C8.12477 14.4605 7.6509 14.9342 7.06645 14.9342C6.48206 14.9342 6.00812 14.4605 6.00812 13.8759ZM15.8748 13.8759C15.8748 13.2914 16.3486 12.8176 16.9331 12.8176C17.5173 12.8176 17.9916 13.2911 17.9916 13.8759C17.9916 14.4608 17.5173 14.9342 16.9331 14.9342C16.3486 14.9342 15.8748 14.4604 15.8748 13.8759Z" fill="#1B1A16"/>
</svg>
