<svg width="24" height="24" viewBox="0 0 24 24" fill="none" xmlns="http://www.w3.org/2000/svg">
<path d="M7.99711 18.713C7.88811 18.62 7.81811 18.489 7.80311 18.345C7.78711 18.201 7.82611 18.058 7.91211 17.944L8.42211 17.27C8.67211 16.94 8.60711 16.469 8.27611 16.22C7.94511 15.97 7.47511 16.034 7.22511 16.366L6.71411 17.042C6.39711 17.465 6.25411 17.986 6.31111 18.51C6.36911 19.036 6.62211 19.514 7.03111 19.862C7.09311 19.914 7.14311 19.977 7.17811 20.05C7.21311 20.12 7.23211 20.199 7.23511 20.279C7.23711 20.359 7.22411 20.437 7.19311 20.511C7.16311 20.584 7.11711 20.652 7.06011 20.706C6.75911 20.991 6.74711 21.466 7.03211 21.767C7.17911 21.922 7.37811 22 7.57611 22C7.76211 22 7.94711 21.932 8.09311 21.794C8.30611 21.592 8.47011 21.352 8.58211 21.079C8.69411 20.806 8.74511 20.52 8.73411 20.227C8.72411 19.937 8.65111 19.647 8.52511 19.387C8.39611 19.125 8.21611 18.896 7.99711 18.713Z" fill="#1B1A16"/>
<path d="M12.6341 18.713C12.5251 18.62 12.4551 18.489 12.4401 18.345C12.4241 18.201 12.4631 18.058 12.5491 17.944L13.0591 17.27C13.3091 16.94 13.2441 16.469 12.9131 16.22C12.5821 15.97 12.1131 16.033 11.8621 16.366L11.3511 17.042C11.0341 17.465 10.8911 17.986 10.9481 18.51C11.0061 19.036 11.2591 19.514 11.6601 19.856C11.7211 19.908 11.7711 19.973 11.8061 20.045C11.8411 20.117 11.8611 20.198 11.8631 20.282C11.8661 20.36 11.8521 20.441 11.8241 20.511C11.7931 20.588 11.7471 20.656 11.6901 20.712C11.3941 21.001 11.3871 21.476 11.6761 21.773C11.8231 21.923 12.0181 22 12.2131 22C12.4011 22 12.5911 21.93 12.7361 21.787C12.9431 21.586 13.1031 21.347 13.2151 21.071C13.3211 20.803 13.3711 20.511 13.3611 20.23C13.3511 19.939 13.2831 19.659 13.1571 19.396C13.0311 19.133 12.8561 18.904 12.6341 18.713Z" fill="#1B1A16"/>
<path d="M16.9491 18.712C16.8411 18.619 16.7711 18.489 16.7561 18.346C16.7401 18.201 16.7801 18.058 16.8651 17.944L17.3751 17.27C17.6251 16.94 17.5611 16.469 17.2291 16.22C16.8991 15.969 16.4281 16.034 16.1791 16.366L15.6661 17.043C15.3501 17.465 15.2071 17.985 15.2641 18.509C15.3221 19.036 15.5761 19.515 15.9771 19.856C16.0381 19.908 16.0861 19.971 16.1241 20.05C16.1581 20.12 16.1771 20.198 16.1801 20.278C16.1831 20.359 16.1681 20.442 16.1401 20.514C16.1101 20.588 16.0631 20.658 16.0051 20.714C15.7091 21.003 15.7031 21.479 15.9931 21.775C16.1391 21.925 16.3351 22.001 16.5291 22.001C16.7181 22.001 16.9081 21.93 17.0531 21.787C17.2611 21.584 17.4211 21.345 17.5321 21.072C17.6371 20.806 17.6881 20.515 17.6781 20.227C17.6671 19.932 17.5981 19.652 17.4741 19.397C17.3491 19.132 17.1731 18.903 16.9491 18.712Z" fill="#1B1A16"/>
<path d="M21.5261 8.416C21.4941 8.378 21.4591 8.344 21.4211 8.313L17.0671 4.855V2.75C17.0671 2.336 16.7311 2 16.3171 2C15.9031 2 15.5671 2.336 15.5671 2.75V4.467H8.43411V2.75C8.43411 2.336 8.09811 2 7.68411 2C7.27011 2 6.93411 2.336 6.93411 2.75V4.855L2.57811 8.33C2.56111 8.344 2.54711 8.361 2.53111 8.376C2.52211 8.384 2.51511 8.391 2.50711 8.399C2.49611 8.411 2.48311 8.42 2.47411 8.432C2.16311 8.799 1.99511 9.266 2.00011 9.739V12.634C2.00011 13.163 2.20711 13.661 2.58211 14.037C2.95711 14.411 3.45511 14.617 3.98311 14.617H20.0161C20.5441 14.617 21.0411 14.411 21.4181 14.036C21.7941 13.661 22.0001 13.163 22.0001 12.633V9.732C22.0061 9.252 21.8381 8.784 21.5261 8.416ZM16.0551 5.967L18.8251 8.167H5.18911L7.94611 5.967H16.0551ZM20.5001 12.633C20.5001 12.762 20.4491 12.883 20.3591 12.974C20.2681 13.065 20.1431 13.117 20.0161 13.117H3.98311C3.85611 13.117 3.73111 13.065 3.64111 12.975C3.55011 12.883 3.50011 12.762 3.50011 12.633V9.73C3.50011 9.707 3.51611 9.688 3.51911 9.666H20.4831C20.4861 9.686 20.5001 9.701 20.5001 9.722V12.633Z" fill="#1B1A16"/>
<path d="M8.30011 10.633H6.45011C6.03611 10.633 5.70011 10.969 5.70011 11.383C5.70011 11.797 6.03611 12.133 6.45011 12.133H8.30011C8.71411 12.133 9.05011 11.797 9.05011 11.383C9.05011 10.969 8.71411 10.633 8.30011 10.633Z" fill="#1B1A16"/>
<path d="M12.6171 10.633H10.7661C10.3521 10.633 10.0161 10.969 10.0161 11.383C10.0161 11.797 10.3521 12.133 10.7661 12.133H12.6171C13.0311 12.133 13.3671 11.797 13.3671 11.383C13.3671 10.969 13.0311 10.633 12.6171 10.633Z" fill="#1B1A16"/>
<path d="M17.5551 12.446C18.1394 12.446 18.6131 11.9723 18.6131 11.388C18.6131 10.8037 18.1394 10.33 17.5551 10.33C16.9708 10.33 16.4971 10.8037 16.4971 11.388C16.4971 11.9723 16.9708 12.446 17.5551 12.446Z" fill="#1B1A16"/>
</svg>
