<svg width="24" height="24" viewBox="0 0 24 24" fill="none" xmlns="http://www.w3.org/2000/svg">
<path fill-rule="evenodd" clip-rule="evenodd" d="M15.8753 3.14684C16.0749 3.12267 16.2775 3.14411 16.4677 3.20955C16.6579 3.27498 16.8307 3.3827 16.9732 3.52461L16.9746 3.52592L20.9503 7.50393C21.0927 7.64599 21.2013 7.81882 21.2674 8.00882C21.3335 8.19896 21.3555 8.40163 21.3318 8.60153C21.3081 8.80143 21.2393 8.99334 21.1306 9.16277C21.0219 9.33219 20.8761 9.47471 20.7043 9.57956L20.7018 9.58106C19.8257 10.111 18.7661 10.4085 17.7651 10.4257C17.6276 10.4281 17.4891 10.4252 17.3505 10.4164C17.5175 10.8829 17.6226 11.3789 17.6559 11.8944C17.6671 11.9576 17.6703 12.0223 17.665 12.0869C17.6666 12.1411 17.6674 12.1955 17.6674 12.2501C17.6674 15.2535 15.2326 17.6883 12.2292 17.6883C11.5858 17.6883 10.9685 17.5765 10.3956 17.3714C10.4044 17.5096 10.4073 17.6477 10.4049 17.7848C10.3878 18.7856 10.0906 19.8453 9.56099 20.7211C9.45675 20.8934 9.31465 21.0399 9.14552 21.1493C8.97639 21.2587 8.78461 21.3282 8.58467 21.3525C8.38474 21.3769 8.18188 21.3555 7.99143 21.29C7.80097 21.2244 7.6279 21.1165 7.48532 20.9742L3.50492 16.9946L3.50141 16.9911C3.36075 16.8485 3.25413 16.6761 3.18953 16.4865C3.12494 16.297 3.10404 16.0953 3.12839 15.8965C3.15275 15.6978 3.22173 15.5071 3.33017 15.3388C3.43862 15.1705 3.58372 15.0288 3.75464 14.9245L3.75569 14.9238C4.63183 14.391 5.69173 14.0923 6.69287 14.0745C6.83049 14.072 6.96914 14.0749 7.10781 14.0836C6.90268 13.5108 6.79095 12.8935 6.79095 12.2501C6.79095 12.1931 6.79182 12.1363 6.79356 12.0797C6.78925 12.0199 6.79214 11.9601 6.80193 11.9015C6.8697 10.8301 7.24776 9.84283 7.84726 9.02871C7.86286 9.00517 7.87992 8.98234 7.89843 8.96035C8.89175 7.65471 10.462 6.81184 12.2292 6.81184C12.8728 6.81184 13.4903 6.92366 14.0633 7.12891C14.0546 6.99021 14.0516 6.85154 14.054 6.71392C14.0715 5.7131 14.369 4.65373 14.8979 3.77787L14.8992 3.77569C15.0037 3.60387 15.1459 3.45801 15.315 3.34909C15.484 3.24017 15.6756 3.17102 15.8753 3.14684ZM15.2819 9.76183C14.5597 8.87689 13.4604 8.31184 12.2292 8.31184C11.1747 8.31184 10.217 8.72626 9.51014 9.40111C9.85753 9.69063 10.2452 9.93003 10.662 10.1113C11.2835 10.3815 11.9554 10.5163 12.6331 10.5065L12.6506 10.5065C13.5855 10.5149 14.498 10.254 15.2819 9.76183ZM8.63987 10.627C8.47038 11.0013 8.3577 11.4067 8.31283 11.8324C8.72531 12.4233 9.27067 12.9109 9.90639 13.255C10.6138 13.638 11.4087 13.8302 12.2129 13.8127C12.2237 13.8125 12.2346 13.8125 12.2454 13.8127C13.0497 13.8302 13.8448 13.638 14.5523 13.255C15.1878 12.911 15.733 12.4238 16.1456 11.8333C16.1185 11.576 16.0667 11.326 15.9925 11.0859C14.9891 11.6935 13.8314 12.0156 12.6458 12.0065C11.7581 12.018 10.878 11.8409 10.0638 11.4868C9.55175 11.2642 9.07309 10.9747 8.63987 10.627ZM15.5036 14.4388C15.4256 14.4856 15.3465 14.5308 15.2663 14.5742C14.3346 15.0785 13.2882 15.3329 12.2292 15.3127C11.1702 15.3329 10.1239 15.0785 9.19228 14.5742C9.1119 14.5306 9.03261 14.4854 8.95446 14.4385C9.09428 14.6473 9.25355 14.842 9.42966 15.02C9.43444 15.0247 9.43919 15.0294 9.44394 15.0341C9.44912 15.0393 9.45429 15.0445 9.45943 15.0497C10.1709 15.7536 11.1493 16.1883 12.2292 16.1883C13.5942 16.1883 14.7971 15.4937 15.5036 14.4388ZM8.37225 16.0839C8.04013 15.7605 7.46349 15.561 6.71959 15.5742C6.05123 15.5861 5.33481 15.7714 4.72746 16.0958L8.38594 19.7535C8.709 19.1456 8.89369 18.4282 8.90516 17.7591C8.91792 17.015 8.71853 16.4389 8.39551 16.1072C8.38773 16.0994 8.37998 16.0917 8.37225 16.0839ZM16.0729 4.7457L19.7322 8.40715C19.1244 8.72996 18.4077 8.91443 17.7392 8.92597C16.9863 8.93896 16.4051 8.73458 16.0748 8.40437C15.7448 8.07431 15.5407 7.49322 15.5538 6.74014C15.5655 6.07127 15.7502 5.35399 16.0729 4.7457Z" fill="#1B1A16"/>
</svg>
