<svg width="24" height="24" viewBox="0 0 24 24" fill="none" xmlns="http://www.w3.org/2000/svg">
<path fill-rule="evenodd" clip-rule="evenodd" d="M5.65357 3.70577C5.48579 2.72058 4.63205 1.99994 3.63267 1.99994H2.75026C2.33605 1.99994 2.00026 2.33573 2.00026 2.74994C2.00026 3.16415 2.33605 3.49994 2.75026 3.49994H3.63267C3.9008 3.49994 4.12985 3.69328 4.17486 3.9576L6.50641 17.6482C6.6742 18.6334 7.52794 19.354 8.52732 19.354H17.2856C17.6999 19.354 18.0356 19.0183 18.0356 18.604C18.0356 18.1898 17.6999 17.854 17.2856 17.854H8.52732C8.25919 17.854 8.03014 17.6607 7.98512 17.3964L7.64344 15.39H17.4241C18.9588 15.39 20.2973 14.3472 20.6725 12.8591L21.9575 7.76263C22.1885 6.84676 21.4961 5.95811 20.5515 5.95811H20.4726L19.8981 3.99946C19.5447 2.79471 18.2737 2.11225 17.0743 2.48322L13.6784 3.53349C13.6572 3.54004 13.6365 3.54746 13.6163 3.55567L12.841 2.78033C11.9623 1.90165 10.5377 1.90165 9.659 2.78033L6.48122 5.95811H6.03715L5.65357 3.70577ZM6.29261 7.45811H20.4874L19.218 12.4923C19.0108 13.3141 18.2717 13.89 17.4241 13.89H7.38798L6.29261 7.45811ZM8.60254 5.95811L10.7197 3.84099C11.0126 3.5481 11.4874 3.5481 11.7803 3.84099L13.8974 5.95811H8.60254ZM16.0188 5.95811L14.8133 4.75261L17.5175 3.91625C17.9173 3.79259 18.341 4.02008 18.4588 4.42166L18.9094 5.95811H16.0188ZM16.7142 20.9166C16.7142 20.3199 16.2306 19.8362 15.6339 19.8362C15.0372 19.8362 14.5535 20.3199 14.5535 20.9166C14.5535 21.5132 15.0372 21.9969 15.6339 21.9969C16.2306 21.9969 16.7142 21.5132 16.7142 20.9166ZM10.1072 20.9166C10.1072 20.3199 9.62354 19.8362 9.02689 19.8362C8.43023 19.8362 7.94654 20.3199 7.94654 20.9166C7.94654 21.5132 8.43023 21.9969 9.02689 21.9969C9.62354 21.9969 10.1072 21.5132 10.1072 20.9166Z" fill="#1B1A16"/>
</svg>
