<svg width="24" height="24" viewBox="0 0 24 24" fill="none" xmlns="http://www.w3.org/2000/svg">
<path fill-rule="evenodd" clip-rule="evenodd" d="M18.6637 3.69657C18.7321 3.34404 19.0409 3.08948 19.4 3.08948H21.25C21.6642 3.08948 22 3.42526 22 3.83948C22 4.25369 21.6642 4.58948 21.25 4.58948H20.0184L18.8257 10.7342C18.9757 10.8286 19.1158 10.9401 19.2431 11.0674C19.6922 11.5165 19.9444 12.1255 19.9444 12.7605V17.4883C19.9444 17.9053 19.7788 18.3052 19.484 18.6C19.1891 18.8949 18.7892 19.0605 18.3722 19.0605H17.8802C17.5583 20.1309 16.5652 20.9106 15.39 20.9106C14.2148 20.9106 13.2217 20.1309 12.8998 19.0605H9.24767C8.92577 20.1309 7.93268 20.9106 6.75747 20.9106C5.58226 20.9106 4.58916 20.1309 4.26727 19.0605H3.57222C3.15524 19.0605 2.75534 18.8949 2.46049 18.6C2.16564 18.3052 2 17.9053 2 17.4883V14.405C2 13.3338 2.42552 12.3065 3.18296 11.5491C3.9404 10.7916 4.96771 10.3661 6.03889 10.3661H7.01487C7.33257 10.3662 7.64303 10.4625 7.90489 10.6425C8.01528 10.7183 8.1149 10.8075 8.20175 10.9075L9.16804 10.0396L8.69929 9.37256C8.46114 9.03365 8.54281 8.56585 8.88172 8.3277C9.22063 8.08955 9.68842 8.17123 9.92657 8.51014L11.594 10.8831C11.8322 11.222 11.7505 11.6898 11.4116 11.9279C11.0727 12.1661 10.6049 12.0844 10.3668 11.7455L10.0366 11.2757L8.85312 12.3387L9.10442 12.992C9.10966 13.0056 9.11891 13.0174 9.13094 13.0256C9.14296 13.0339 9.15722 13.0383 9.17181 13.0383H12.3706C12.3852 13.0383 12.3994 13.0339 12.4114 13.0256C12.4235 13.0174 12.4327 13.0056 12.438 12.992L13.0604 11.3739C13.1745 11.0771 13.376 10.8219 13.6381 10.642C13.9002 10.4622 14.2107 10.366 14.5285 10.3661H17.3691L18.6637 3.69657ZM12.8999 17.5605C13.2218 16.4903 14.2149 15.7106 15.39 15.7106C16.5652 15.7106 17.5583 16.4902 17.8802 17.5605H18.3722C18.3914 17.5605 18.4098 17.5529 18.4233 17.5394C18.4368 17.5258 18.4444 17.5075 18.4444 17.4883V12.7605C18.4444 12.5233 18.3502 12.2958 18.1825 12.1281C18.0147 11.9603 17.7872 11.8661 17.55 11.8661H14.5283C14.5137 11.8661 14.499 11.8705 14.4869 11.8788C14.4749 11.887 14.4656 11.8987 14.4604 11.9124L13.838 13.5305C13.7239 13.827 13.5227 14.0821 13.2608 14.262C12.999 14.4419 12.6888 14.5382 12.3711 14.5383H9.17156C8.85386 14.5382 8.54339 14.4419 8.28154 14.262C8.01968 14.082 7.81847 13.827 7.70442 13.5305L7.27158 12.4052C7.2689 12.3986 7.26633 12.3919 7.26385 12.3852L7.082 11.9124C7.07676 11.8988 7.06752 11.887 7.05549 11.8788C7.04348 11.8705 7.02926 11.8661 7.01469 11.8661H6.03889C5.36553 11.8661 4.71976 12.1336 4.24362 12.6097C3.76749 13.0858 3.5 13.7316 3.5 14.405V17.4883C3.5 17.5075 3.50761 17.5258 3.52115 17.5394C3.5347 17.5529 3.55307 17.5605 3.57222 17.5605H4.26729C4.58921 16.4902 5.58229 15.7106 6.75747 15.7106C7.93266 15.7106 8.92574 16.4903 9.24766 17.5605H12.8999ZM16.49 18.3068C16.488 17.701 15.9963 17.2106 15.39 17.2106C14.7825 17.2106 14.29 17.7031 14.29 18.3106C14.29 18.9181 14.7825 19.4106 15.39 19.4106C15.9963 19.4106 16.488 18.9201 16.49 18.3143L16.49 18.3105L16.49 18.3068ZM6.75747 19.4106C6.15198 19.4106 5.66076 18.9214 5.65749 18.3166L5.65751 18.3105L5.65749 18.3045C5.66078 17.6998 6.152 17.2106 6.75747 17.2106C7.36498 17.2106 7.85747 17.7031 7.85747 18.3106C7.85747 18.9181 7.36498 19.4106 6.75747 19.4106Z" fill="#1B1A16"/>
</svg>
