<svg width="24" height="24" viewBox="0 0 24 24" fill="none" xmlns="http://www.w3.org/2000/svg">
<path fill-rule="evenodd" clip-rule="evenodd" d="M14.2795 3.34762C14.0985 3.8649 14 4.42098 14 5.00006C14 5.89354 14.2344 6.73228 14.645 7.45817H6.29256L7.38793 13.8901H17.4241C18.2716 13.8901 19.0107 13.3142 19.218 12.4924L19.8652 9.92548C20.4804 9.81817 21.0569 9.59843 21.5728 9.2882L20.6724 12.8591C20.2972 14.3473 18.9588 15.3901 17.4241 15.3901H7.64339L7.98507 17.3964C8.03009 17.6608 8.25914 17.8541 8.52727 17.8541H17.2856C17.6998 17.8541 18.0356 18.1899 18.0356 18.6041C18.0356 19.0183 17.6998 19.3541 17.2856 19.3541H8.52727C7.52789 19.3541 6.67415 18.6335 6.50636 17.6483L4.17481 3.95766C4.1298 3.69334 3.90075 3.5 3.63262 3.5H2.75021C2.336 3.5 2.00021 3.16421 2.00021 2.75C2.00021 2.33579 2.336 2 2.75021 2H3.63262C4.632 2 5.48574 2.72064 5.65352 3.70583L6.0371 5.95817H6.48117L9.65895 2.78039C10.5376 1.90171 11.9623 1.90171 12.8409 2.78039L13.6163 3.55574C13.6365 3.54752 13.6572 3.54011 13.6784 3.53355L14.2795 3.34762ZM10.7196 3.84105L8.60249 5.95817H13.8974L11.7803 3.84105C11.4874 3.54816 11.0125 3.54816 10.7196 3.84105Z" fill="#1B1A16"/>
<path d="M15.6338 19.8363C16.2305 19.8363 16.7142 20.32 16.7142 20.9166C16.7142 21.5133 16.2305 21.997 15.6338 21.997C15.0372 21.997 14.5535 21.5133 14.5535 20.9166C14.5535 20.32 15.0372 19.8363 15.6338 19.8363Z" fill="#1B1A16"/>
<path d="M9.02684 19.8363C9.62349 19.8363 10.1072 20.32 10.1072 20.9166C10.1072 21.5133 9.62349 21.997 9.02684 21.997C8.43018 21.997 7.94649 21.5133 7.94649 20.9166C7.94649 20.32 8.43018 19.8363 9.02684 19.8363Z" fill="#1B1A16"/>
<path d="M15 5C15 2.79086 16.7909 1 19 1C21.2091 1 23 2.79086 23 5C23 7.20914 21.2091 9 19 9C16.7909 9 15 7.20914 15 5Z" fill="#D3273E"/>
</svg>
