<svg width="24" height="24" viewBox="0 0 24 24" fill="none" xmlns="http://www.w3.org/2000/svg">
<path fill-rule="evenodd" clip-rule="evenodd" d="M5.65346 3.70577C5.48568 2.72058 4.63194 1.99994 3.63255 1.99994H2.75014C2.33593 1.99994 2.00014 2.33573 2.00014 2.74994C2.00014 3.16415 2.33593 3.49994 2.75014 3.49994H3.63255C3.90068 3.49994 4.12973 3.69328 4.17475 3.9576L6.5063 17.6482C6.67408 18.6334 7.52782 19.354 8.5272 19.354H17.2855C17.6997 19.354 18.0355 19.0183 18.0355 18.604C18.0355 18.1898 17.6997 17.854 17.2855 17.854H8.5272C8.25908 17.854 8.03002 17.6607 7.98501 17.3964L7.64332 15.39H17.4241C18.9588 15.39 20.2972 14.3472 20.6724 12.8591L21.9575 7.76265C22.1884 6.84678 21.496 5.95813 20.5515 5.95813H6.03704L5.65346 3.70577ZM6.29249 7.45813L7.38787 13.89H17.4241C18.2716 13.89 19.0107 13.3142 19.2179 12.4924L20.4873 7.45813H6.29249Z" fill="#1B1A16"/>
<path d="M16.7141 20.9166C16.7141 20.32 16.2304 19.8362 15.6338 19.8362C15.0371 19.8362 14.5534 20.32 14.5534 20.9166C14.5534 21.5132 15.0371 21.9969 15.6338 21.9969C16.2304 21.9969 16.7141 21.5132 16.7141 20.9166Z" fill="#1B1A16"/>
<path d="M9.02677 19.8362C8.43012 19.8362 7.94642 20.3199 7.94642 20.9166C7.94642 21.5132 8.43012 21.9969 9.02677 21.9969C9.62343 21.9969 10.1071 21.5132 10.1071 20.9166C10.1071 20.3199 9.62343 19.8362 9.02677 19.8362Z" fill="#1B1A16"/>
</svg>
