<svg width="24" height="24" viewBox="0 0 24 24" fill="none" xmlns="http://www.w3.org/2000/svg">
<path fill-rule="evenodd" clip-rule="evenodd" d="M4.37737 6.29051C4.02691 6.18845 3.70426 5.99941 3.44153 5.73667C3.03103 5.32617 2.80042 4.76942 2.80042 4.18889C2.80042 3.60836 3.03103 3.05161 3.44153 2.64111C3.85202 2.23061 4.40878 2 4.98931 2H14.4449C16.3883 2 18.2522 2.77203 19.6264 4.14626C21.0006 5.52048 21.7727 7.38434 21.7727 9.32779V11.4405C21.9069 11.7432 21.9782 12.0735 21.9782 12.4111V17.7556C21.9782 18.3906 21.726 18.9996 21.2769 19.4487C20.8279 19.8977 20.2188 20.15 19.5838 20.15H19.1391C18.7483 21.229 17.7144 22 16.5005 22C15.2866 22 14.2527 21.229 13.8619 20.15H10.0946C9.70375 21.229 8.66989 22 7.45595 22C6.24139 22 5.20709 21.2283 4.81672 20.1484L3.59584 20.1484L3.59482 20.1484C3.38164 20.1485 3.17064 20.1053 2.97467 20.0214C2.77839 19.9373 2.60129 19.8141 2.45417 19.6593C2.30706 19.5046 2.19301 19.3215 2.11898 19.1212C2.04501 18.921 2.01255 18.7079 2.02359 18.4948L2.22257 14.6304C2.22466 14.5898 2.23004 14.5495 2.23865 14.5098C2.38006 13.8586 2.77242 13.2894 3.33068 12.9255C3.50508 12.8118 3.69129 12.721 3.88481 12.654L4.37737 6.29051ZM4.98931 3.5C4.8066 3.5 4.63138 3.57258 4.50219 3.70177C4.37299 3.83096 4.30042 4.00619 4.30042 4.18889C4.30042 4.3716 4.37299 4.54682 4.50219 4.67601C4.63138 4.8052 4.8066 4.87778 4.98931 4.87778H5.1729C5.17769 4.87774 5.18249 4.87774 5.18729 4.87778H13.2115C14.7189 4.87778 16.1644 5.47656 17.2303 6.54239C18.2075 7.51961 18.7921 8.81607 18.8825 10.1866C19.0858 10.0935 19.3245 10.0167 19.5838 10.0167C19.8193 10.0167 20.0512 10.0514 20.2727 10.1179V9.32779C20.2727 7.78216 19.6587 6.29984 18.5658 5.20692C17.4728 4.114 15.9905 3.5 14.4449 3.5H4.98931ZM5.39351 12.5996L5.8751 6.37778H13.2115C14.321 6.37778 15.3851 6.81852 16.1696 7.60305C16.9541 8.38758 17.3949 9.45163 17.3949 10.5611V11.1283C16.8929 11.4551 16.2896 11.8113 15.528 12.1317C13.9502 12.7955 11.6254 13.3325 8.09722 12.9946L9.00725 11.5701L9.82621 12.2005C10.1544 12.4531 10.6253 12.3919 10.878 12.0636C11.1307 11.7354 11.0694 11.2645 10.7412 11.0118L7.90942 8.83211C7.58118 8.57945 7.11028 8.64072 6.85762 8.96895C6.60496 9.29719 6.66623 9.76809 6.99447 10.0207L7.81404 10.6516L6.45127 12.7848C6.10863 12.7309 5.75614 12.6693 5.39351 12.5996ZM4.56287 14.0257C4.61668 14.0276 4.66948 14.0237 4.72062 14.0146C4.78728 14.0151 4.85419 14.022 4.92045 14.0355L4.92521 14.0365C10.3697 15.1132 13.8198 14.4777 16.1097 13.5144C17.1165 13.0908 17.8785 12.6119 18.4574 12.224C18.5324 12.1896 18.6007 12.1432 18.6599 12.0873L18.7533 12.0238C19.0212 11.8415 19.2157 11.7092 19.3824 11.6152C19.5154 11.5402 19.5775 11.5218 19.5917 11.5176L19.5945 11.5167C19.8278 11.5195 20.051 11.6134 20.2163 11.7786C20.267 11.8293 20.311 11.8855 20.3477 11.9458C20.359 11.969 20.3714 11.9916 20.385 12.0135C20.4458 12.1359 20.4782 12.2718 20.4782 12.4111V17.7556C20.4782 17.9928 20.384 18.2203 20.2163 18.388C20.0485 18.5558 19.821 18.65 19.5838 18.65H19.2533C18.9998 17.3611 17.8637 16.3889 16.5005 16.3889C15.1373 16.3889 14.0012 17.3611 13.7477 18.65H10.2087C9.95525 17.3611 8.81914 16.3889 7.45595 16.3889C6.09335 16.3889 4.95763 17.3603 4.70351 18.6484L3.59482 18.6484L3.59381 18.6484C3.584 18.6484 3.57429 18.6464 3.56527 18.6425C3.55625 18.6387 3.54812 18.633 3.54136 18.6259C3.5346 18.6188 3.52936 18.6104 3.52596 18.6012C3.52256 18.592 3.52109 18.5817 3.5216 18.5719L3.71702 14.7768C3.78322 14.5328 3.9369 14.3209 4.14973 14.1821C4.27573 14.1 4.41684 14.0472 4.56287 14.0257ZM17.8018 19.3013C17.7997 19.317 17.7981 19.3328 17.797 19.3488C17.7207 19.9971 17.1693 20.5 16.5005 20.5C15.7795 20.5 15.1949 19.9155 15.1949 19.1945C15.1949 18.4734 15.7795 17.8889 16.5005 17.8889C17.2215 17.8889 17.8061 18.4734 17.8061 19.1945C17.8061 19.2304 17.8046 19.266 17.8018 19.3013ZM6.16109 19.3623C6.15986 19.3364 6.15732 19.3109 6.15353 19.2857C6.15145 19.2556 6.15039 19.2251 6.15039 19.1945C6.15039 18.4734 6.73491 17.8889 7.45595 17.8889C8.17699 17.8889 8.76151 18.4734 8.76151 19.1945C8.76151 19.231 8.76001 19.2672 8.75707 19.303C8.75519 19.3175 8.75374 19.3322 8.75271 19.3469C8.67721 19.9961 8.12543 20.5 7.45595 20.5C6.79179 20.5 6.24346 20.0041 6.16109 19.3623Z" fill="#1B1A16"/>
</svg>
