<svg width="24" height="24" viewBox="0 0 24 24" fill="none" xmlns="http://www.w3.org/2000/svg">
<path fill-rule="evenodd" clip-rule="evenodd" d="M8.30005 17.5199C7.77537 17.5177 7.27255 17.3094 6.90002 16.9399C6.53054 16.5674 6.32228 16.0646 6.32007 15.5399C6.32228 15.0152 6.53054 14.5124 6.90002 14.1399C7.27432 13.7705 7.77912 13.5633 8.30505 13.5633C8.83099 13.5633 9.33566 13.7705 9.70996 14.1399C10.0794 14.5124 10.2878 15.0152 10.29 15.5399C10.2852 16.066 10.0731 16.569 9.69995 16.9399C9.32743 17.3094 8.82473 17.5177 8.30005 17.5199ZM8.30005 15.0499C8.23596 15.0493 8.17241 15.0623 8.11377 15.0882C8.05513 15.1141 8.00268 15.1522 7.95996 15.1999C7.91543 15.2446 7.88022 15.2976 7.8562 15.356C7.83218 15.4143 7.81991 15.4768 7.82007 15.5399C7.82083 15.6671 7.87093 15.7891 7.95996 15.8799C8.05242 15.9657 8.17395 16.0133 8.30005 16.0133C8.42615 16.0133 8.54756 15.9657 8.64001 15.8799C8.68729 15.8368 8.72503 15.7843 8.75085 15.7257C8.77668 15.6672 8.79006 15.6039 8.79004 15.5399C8.79019 15.4768 8.77793 15.4143 8.75391 15.356C8.72988 15.2976 8.69456 15.2446 8.65002 15.1999C8.5571 15.1066 8.43171 15.0529 8.30005 15.0499Z" fill="#1B1A16"/>
<path fill-rule="evenodd" clip-rule="evenodd" d="M9.58991 20.67C5.04991 20.67 1.99994 17.13 1.99994 11.87C1.99016 10.7113 2.21115 9.56233 2.64997 8.48996C3.08471 7.40981 3.73068 6.42728 4.54999 5.59996C5.36492 4.77214 6.33736 4.11591 7.40998 3.66996C8.48295 3.22461 9.63327 2.99536 10.795 2.99536C11.9567 2.99536 13.107 3.22461 14.18 3.66996C15.2413 4.12056 16.203 4.77646 17.01 5.59996C17.8269 6.42535 18.4727 7.40411 18.91 8.47996C19.2488 9.32359 19.4578 10.2137 19.53 11.12H21.2099C21.4088 11.12 21.5996 11.199 21.7403 11.3396C21.881 11.4803 21.9599 11.671 21.9599 11.87C21.9613 11.9688 21.9428 12.067 21.9056 12.1586C21.8684 12.2502 21.8131 12.3334 21.7432 12.4033C21.6733 12.4732 21.5902 12.5284 21.4986 12.5656C21.407 12.6028 21.3088 12.6213 21.2099 12.62H17.08V15.5399C17.0772 16.3313 16.8925 17.1114 16.5401 17.8199C16.1788 18.5233 15.6625 19.1353 15.0301 19.6099C14.3912 20.0734 13.6565 20.3878 12.88 20.5299C12.5926 20.5781 12.3015 20.6015 12.01 20.5999C11.6135 20.6003 11.2185 20.5554 10.8327 20.4664C10.4345 20.6083 10.0135 20.6774 9.58991 20.67ZM12.6279 19.0486C13.1757 18.9538 13.6937 18.7316 14.14 18.3999C14.5862 18.0677 14.949 17.6364 15.2 17.1399C15.4501 16.6437 15.5803 16.0957 15.58 15.5399V12.62H13.2099V17.1C13.2104 17.5686 13.1179 18.0327 12.9377 18.4652C12.8526 18.6694 12.7488 18.8647 12.6279 19.0486ZM16.3316 11.12L16.33 11.1199L16.3284 11.12H13.2099C13.0041 11.1212 12.8004 11.162 12.6099 11.24C12.4236 11.3213 12.2541 11.4366 12.1099 11.58C11.9688 11.7259 11.8538 11.895 11.77 12.08C11.698 12.2719 11.6608 12.475 11.66 12.68V17.1C11.6595 17.3715 11.6054 17.6403 11.5007 17.8909C11.396 18.1414 11.2429 18.3688 11.05 18.56C10.8589 18.7528 10.6314 18.906 10.3808 19.0107C10.1302 19.1154 9.86146 19.1695 9.58991 19.17C5.09991 19.17 3.49995 15.24 3.49995 11.86C3.48849 10.8964 3.67222 9.94059 4.03998 9.04996C4.39556 8.15493 4.9297 7.34172 5.60993 6.65996C6.28671 5.97094 7.09642 5.42659 7.98994 5.05996C8.87834 4.68164 9.83439 4.48772 10.8 4.48996C11.7655 4.48883 12.7212 4.6827 13.6099 5.05996C14.4991 5.42923 15.305 5.97332 15.9799 6.65996C16.6577 7.34576 17.1945 8.15773 17.56 9.04996C17.8295 9.71099 17.998 10.4088 18.06 11.12H16.3316Z" fill="#1B1A16"/>
</svg>
