<svg width="24" height="24" viewBox="0 0 24 24" fill="none" xmlns="http://www.w3.org/2000/svg">
<path fill-rule="evenodd" clip-rule="evenodd" d="M19.6486 18.0416C21.2843 13.7418 21.4764 6.28516 16.3913 4.10582C14.2613 3.30582 12.4813 2.96582 10.9813 2.96582C3.2469 2.96582 3.22105 12.1136 3.34888 14.5276C3.36797 14.888 3.59655 15.1938 3.92835 15.336L17.0418 20.9561C17.2669 21.0525 17.5236 21.0724 17.731 20.9421C18.3542 20.5506 18.9609 19.6726 19.4602 18.5081C19.5002 18.4629 19.5353 18.4121 19.5644 18.3562C19.6169 18.2553 19.6442 18.1481 19.6486 18.0416ZM15.8213 5.49582C13.9913 4.81582 12.3613 4.46582 10.9813 4.46582C9.24129 4.46582 7.92129 5.00582 6.93129 6.10582C4.89129 8.36582 4.78129 12.3458 4.83129 14.0958L17.2313 19.4058C17.4325 19.1732 17.6625 18.8074 17.892 18.3318L11.6538 15.0877C11.012 14.754 10.6417 14.0598 10.722 13.341L11.0373 10.5153C11.1429 9.56935 11.9852 8.88124 12.9332 8.96642L18.8556 9.4986C18.4604 7.90421 17.605 6.27617 15.8213 5.49582ZM19.1126 11.0277L12.7989 10.4604C12.6635 10.4482 12.5432 10.5465 12.5281 10.6817L12.2127 13.5073C12.2012 13.61 12.2541 13.7092 12.3458 13.7569L18.4473 16.9299C18.8635 15.6493 19.1817 14.0095 19.1713 12.1958C19.1695 11.8467 19.1536 11.4504 19.1126 11.0277Z" fill="#1B1A16"/>
</svg>
