<svg width="24" height="24" viewBox="0 0 24 24" fill="none" xmlns="http://www.w3.org/2000/svg">
<path fill-rule="evenodd" clip-rule="evenodd" d="M11.487 2.20293C11.7755 1.93236 12.2246 1.93236 12.5131 2.20293L16.6181 6.05265C16.8209 6.23587 16.9641 6.47574 17.0292 6.74135C17.0953 7.01097 17.0777 7.29431 16.9788 7.55368C16.8799 7.81305 16.7043 8.03615 16.4755 8.19329C16.2841 8.32473 16.063 8.4048 15.8333 8.427V10.6333H17.55C18.076 10.6333 18.5805 10.8423 18.9524 11.2142C19.3244 11.5862 19.5333 12.0907 19.5333 12.6167V15.7C19.5333 16.1142 19.1975 16.45 18.7833 16.45C18.3691 16.45 18.0333 16.1142 18.0333 15.7V12.6167C18.0333 12.4885 17.9824 12.3655 17.8918 12.2749C17.8011 12.1843 17.6782 12.1333 17.55 12.1333H6.45C6.32181 12.1333 6.19887 12.1843 6.10823 12.2749C6.01759 12.3655 5.96667 12.4885 5.96667 12.6167V15.7C5.96667 16.1142 5.63088 16.45 5.21667 16.45C4.80245 16.45 4.46667 16.1142 4.46667 15.7V12.6167C4.46667 12.0907 4.67562 11.5862 5.04757 11.2142C5.41952 10.8423 5.92399 10.6333 6.45 10.6333H8.16667V8.42699C7.93703 8.40479 7.71596 8.32472 7.52456 8.19329C7.29573 8.03615 7.12017 7.81305 7.02125 7.55368C6.92232 7.29431 6.90473 7.01096 6.97081 6.74135C7.03591 6.47574 7.17916 6.23587 7.38192 6.05265L11.487 2.20293ZM9.66667 8.43333H14.3333V10.6333H9.66667V8.43333ZM8.63563 6.93333L12 3.7782L15.3644 6.93333H8.63563ZM12 16.45C11.5447 16.45 11.1081 16.6309 10.7861 16.9528C10.4642 17.2747 10.2833 17.7114 10.2833 18.1667V21.25C10.2833 21.6642 9.94755 22 9.53333 22H3.36667C3.0042 22 2.65659 21.856 2.40029 21.5997C2.14399 21.3434 2 20.9958 2 20.6333V18.7833C2 18.4209 2.14399 18.0733 2.40029 17.817C2.65659 17.5607 3.0042 17.4167 3.36667 17.4167H8.87198C9.00926 16.8442 9.30234 16.3153 9.72547 15.8921C10.3287 15.2889 11.1469 14.95 12 14.95C12.8531 14.95 13.6713 15.2889 14.2745 15.8921C14.6977 16.3153 14.9907 16.8442 15.128 17.4167H20.6333C20.9958 17.4167 21.3434 17.5607 21.5997 17.817C21.856 18.0733 22 18.4209 22 18.7833V20.6333C22 20.9958 21.856 21.3434 21.5997 21.5997C21.3434 21.856 20.9958 22 20.6333 22H14.4667C14.0525 22 13.7167 21.6642 13.7167 21.25V18.1667C13.7167 17.7114 13.5358 17.2747 13.2139 16.9528C12.8919 16.6309 12.4553 16.45 12 16.45ZM15.2167 18.9167V20.5H20.5V18.9167H15.2167ZM8.78333 18.9167H3.5V20.5H8.78333V18.9167Z" fill="#1B1A16"/>
</svg>
