<svg width="24" height="24" viewBox="0 0 24 24" fill="none" xmlns="http://www.w3.org/2000/svg">
<path fill-rule="evenodd" clip-rule="evenodd" d="M8.91667 3.54163C10.012 3.54163 10.9 4.4296 10.9 5.52496V7.37496C10.9 8.20494 10.3902 8.91585 9.66663 9.2116V10.9417H14.3334V9.21161C13.6098 8.91586 13.1 8.20495 13.1 7.37496V5.52496C13.1 4.4296 13.9879 3.54163 15.0833 3.54163H20.0166C21.112 3.54163 22 4.4296 22 5.52496V7.37496C22 8.20494 21.4902 8.91584 20.7666 9.2116V19.0916C20.7666 19.4541 20.6226 19.8017 20.3663 20.058C20.11 20.3143 19.7624 20.4583 19.3999 20.4583H13.8582C13.8555 20.4583 13.8528 20.4583 13.85 20.4583C13.8473 20.4583 13.8446 20.4583 13.8418 20.4583H10.1582C10.1555 20.4583 10.1528 20.4583 10.15 20.4583C10.1473 20.4583 10.1446 20.4583 10.1418 20.4583H4.59994C4.23748 20.4583 3.88986 20.3143 3.63356 20.058C3.37726 19.8017 3.23328 19.4541 3.23328 19.0916V9.21156C2.50977 8.91578 2 8.2049 2 7.37496V5.52496C2 4.4296 2.88797 3.54163 3.98333 3.54163H8.91667ZM3.98333 5.04163C3.7164 5.04163 3.5 5.25802 3.5 5.52496V7.37496C3.5 7.6407 3.71445 7.85634 3.97972 7.85828L3.98328 7.85828L3.98901 7.8583H8.91089L8.91663 7.85828L8.92024 7.85828C9.18553 7.85636 9.4 7.64071 9.4 7.37496V5.52496C9.4 5.25802 9.1836 5.04163 8.91667 5.04163H7.19995V6.14163C7.19995 6.55584 6.86416 6.89163 6.44995 6.89163C6.03574 6.89163 5.69995 6.55584 5.69995 6.14163V5.04163H3.98333ZM10.9 18.9583H13.1V17.2417C13.1 16.9499 12.9841 16.6701 12.7778 16.4638C12.5716 16.2576 12.2918 16.1417 12 16.1417C11.7083 16.1417 11.4285 16.2576 11.2222 16.4638C11.0159 16.6701 10.9 16.9499 10.9 17.2417V18.9583ZM14.6 18.9583V17.2417C14.6 16.5521 14.3261 15.8908 13.8385 15.4032C13.3509 14.9156 12.6896 14.6417 12 14.6417C11.3105 14.6417 10.6491 14.9156 10.1615 15.4032C9.67395 15.8908 9.40002 16.5521 9.40002 17.2417V18.9583H4.73328V9.3583H8.16663V14.1583C8.16663 14.5725 8.50241 14.9083 8.91663 14.9083C9.33084 14.9083 9.66663 14.5725 9.66663 14.1583V12.4417H14.3334V14.1583C14.3334 14.5725 14.6692 14.9083 15.0834 14.9083C15.4976 14.9083 15.8334 14.5725 15.8334 14.1583V9.3583H19.2666V18.9583H14.6ZM16.8 6.14163V5.04163H15.0833C14.8164 5.04163 14.6 5.25802 14.6 5.52496V7.37496C14.6 7.64071 14.8144 7.85637 15.0797 7.85828L15.0834 7.85828L15.0891 7.8583H20.0109L20.0166 7.85828L20.0202 7.85828C20.2855 7.85636 20.5 7.64071 20.5 7.37496V5.52496C20.5 5.25802 20.2836 5.04163 20.0166 5.04163H18.3V6.14163C18.3 6.55584 17.9643 6.89163 17.55 6.89163C17.1358 6.89163 16.8 6.55584 16.8 6.14163Z" fill="#1B1A16"/>
</svg>
