<svg width="24" height="24" viewBox="0 0 24 24" fill="none" xmlns="http://www.w3.org/2000/svg">
<path fill-rule="evenodd" clip-rule="evenodd" d="M6.55296 2.20331C6.84159 1.93223 7.29122 1.93223 7.57985 2.2033L11.7436 6.11379C11.7614 6.13052 11.7784 6.14811 11.7945 6.16649C11.9674 6.36403 12.0798 6.60719 12.1181 6.8669C12.1565 7.12662 12.1193 7.39189 12.0109 7.63099C11.9024 7.8701 11.7275 8.07292 11.5068 8.21521C11.3237 8.33334 11.1154 8.40559 10.8998 8.42678V10.6333H20.6331C20.9956 10.6333 21.3432 10.7773 21.5995 11.0336C21.8558 11.2899 21.9998 11.6375 21.9998 12V21.25C21.9998 21.6642 21.664 22 21.2498 22C20.8356 22 20.4998 21.6642 20.4998 21.25V12.1333H15.8331V13.8272C16.2404 13.95 16.6152 14.1719 16.9215 14.4782C17.4091 14.9658 17.683 15.6271 17.683 16.3167C17.683 17.0062 17.4091 17.6676 16.9215 18.1552C16.4339 18.6427 15.7726 18.9167 15.083 18.9167C14.3935 18.9167 13.7322 18.6427 13.2446 18.1552C12.757 17.6676 12.483 17.0062 12.483 16.3167C12.483 15.6271 12.757 14.9658 13.2446 14.4782C13.5509 14.1719 13.9258 13.9499 14.3331 13.8272V12.1333H10.8998V21.25C10.8998 21.6642 10.564 22 10.1498 22C9.73557 22 9.39978 21.6642 9.39978 21.25V20.15H4.73303V21.25C4.73303 21.6642 4.39725 22 3.98303 22C3.56882 22 3.23303 21.6642 3.23303 21.25V8.42676C3.0174 8.40553 2.80907 8.33329 2.62597 8.21521C2.40534 8.07292 2.23036 7.8701 2.12195 7.63099C2.01355 7.39189 1.97631 7.12662 2.01468 6.8669C2.05305 6.60719 2.16542 6.36403 2.33834 6.16649C2.35443 6.14811 2.37141 6.13052 2.38922 6.11379L6.55296 2.20331ZM4.73303 18.65H9.39978V17.0667H4.73303V18.65ZM9.39978 15.5667H4.73303V8.43333H9.39978V15.5667ZM7.0664 3.77891L3.7077 6.93333H10.4251L7.0664 3.77891ZM14.3052 15.5389C14.5115 15.3326 14.7913 15.2167 15.083 15.2167C15.3748 15.2167 15.6546 15.3326 15.8609 15.5389C16.0671 15.7451 16.183 16.0249 16.183 16.3167C16.183 16.6084 16.0671 16.8882 15.8609 17.0945C15.6546 17.3008 15.3748 17.4167 15.083 17.4167C14.7913 17.4167 14.5115 17.3008 14.3052 17.0945C14.0989 16.8882 13.983 16.6084 13.983 16.3167C13.983 16.0249 14.0989 15.7451 14.3052 15.5389Z" fill="#1B1A16"/>
</svg>
