<svg width="24" height="24" viewBox="0 0 24 24" fill="none" xmlns="http://www.w3.org/2000/svg">
<path fill-rule="evenodd" clip-rule="evenodd" d="M5.99998 3.44995C5.4736 3.44995 4.97941 3.64391 4.62364 3.973C4.26985 4.30026 4.08331 4.73103 4.08331 5.16662V7.70551H10.8889C11.4152 7.70551 11.9094 7.51154 12.2652 7.18247C12.619 6.85519 12.8055 6.42441 12.8055 5.98884V3.44995H5.99998ZM5.99998 1.94995C5.11187 1.94995 4.24951 2.27575 3.60508 2.87185C2.95868 3.46977 2.58331 4.2938 2.58331 5.16662V21.2C2.58331 21.6142 2.9191 21.95 3.33331 21.95C3.74753 21.95 4.08331 21.6142 4.08331 21.2V9.20551H10.8889C11.7769 9.20551 12.6393 8.87971 13.2838 8.28361C13.9301 7.6857 14.3055 6.86168 14.3055 5.98884V3.44995H18C18.5263 3.44995 19.0205 3.64392 19.3763 3.97299C19.7301 4.30027 19.9166 4.73105 19.9166 5.16662V21.2C19.9166 21.6142 20.2524 21.95 20.6666 21.95C21.0809 21.95 21.4166 21.6142 21.4166 21.2V5.16662C21.4166 4.29378 21.0412 3.46976 20.3949 2.87185C19.7504 2.27574 18.888 1.94995 18 1.94995H5.99998ZM5.35663 5.5736C5.35663 4.93511 5.89778 4.51527 6.43996 4.51527C6.98212 4.51527 7.5233 4.93508 7.5233 5.5736C7.5233 6.21205 6.98217 6.63193 6.43996 6.63193C5.89777 6.63193 5.35663 6.21207 5.35663 5.5736ZM8.69012 5.5736C8.69012 4.93511 9.23128 4.51527 9.77346 4.51527C10.3157 4.51527 10.8568 4.93517 10.8568 5.5736C10.8568 6.21201 10.3157 6.63193 9.77346 6.63193C9.23126 6.63193 8.69012 6.21207 8.69012 5.5736Z" fill="#1B1A16"/>
</svg>
