<svg width="24" height="24" viewBox="0 0 24 24" fill="none" xmlns="http://www.w3.org/2000/svg">
<path fill-rule="evenodd" clip-rule="evenodd" d="M7.5 2C6.25736 2 5.25 3.00736 5.25 4.25V19.75C5.25 20.9926 6.25736 22 7.5 22H16.5C17.7426 22 18.75 20.9926 18.75 19.75V4.25C18.75 3.00736 17.7426 2 16.5 2H7.5ZM6.75 4.25C6.75 3.83579 7.08579 3.5 7.5 3.5H7.83504L8.10369 4.84323C8.26729 5.66122 8.98551 6.25002 9.8197 6.25002H14.1801C15.0143 6.25002 15.7325 5.66122 15.8961 4.84323L16.1648 3.5H16.5C16.9142 3.5 17.25 3.83579 17.25 4.25V19.75C17.25 20.1642 16.9142 20.5 16.5 20.5H7.5C7.08579 20.5 6.75 20.1642 6.75 19.75V4.25ZM14.6351 3.5H9.36475L9.57456 4.54905C9.59793 4.66591 9.70053 4.75002 9.8197 4.75002H14.1801C14.2993 4.75002 14.4019 4.66591 14.4252 4.54905L14.6351 3.5Z" fill="#1B1A16"/>
</svg>
