<svg width="24" height="24" viewBox="0 0 24 24" fill="none" xmlns="http://www.w3.org/2000/svg">
<path fill-rule="evenodd" clip-rule="evenodd" d="M8.41992 3.5C7.31535 3.5 6.41992 4.39543 6.41992 5.5V18.5C6.41992 19.6046 7.31535 20.5 8.41992 20.5H15.58C16.6846 20.5 17.58 19.6046 17.58 18.5V5.5C17.58 4.39543 16.6846 3.5 15.58 3.5H8.41992ZM4.91992 5.5C4.91992 3.567 6.48693 2 8.41992 2H15.58C17.513 2 19.08 3.567 19.08 5.5V18.5C19.08 20.433 17.513 22 15.58 22H8.41992C6.48693 22 4.91992 20.433 4.91992 18.5V5.5Z" fill="#1B1A16"/>
<path d="M13 5.25C13 5.80228 12.5523 6.25 12 6.25C11.4477 6.25 11 5.80228 11 5.25C11 4.69772 11.4477 4.25 12 4.25C12.5523 4.25 13 4.69772 13 5.25Z" fill="#1B1A16"/>
</svg>
