<svg width="24" height="24" viewBox="0 0 24 24" fill="none" xmlns="http://www.w3.org/2000/svg">
<path fill-rule="evenodd" clip-rule="evenodd" d="M8.45998 2.032C8.29032 2.09328 8.1432 2.20449 8.03798 2.351C7.95298 2.475 7.93798 2.547 7.92698 2.899L7.91298 3.304L7.64398 3.373C7.07606 3.52808 6.56189 3.83672 6.15798 4.265C5.76398 4.682 5.55298 5.047 5.36998 5.628L5.25998 5.98L5.24898 12.458C5.23998 18.153 5.24598 18.978 5.29998 19.293C5.41183 19.9493 5.72251 20.5553 6.19002 21.0293C6.65753 21.5032 7.25931 21.8222 7.91398 21.943C8.34698 22.027 15.653 22.027 16.086 21.943C16.7392 21.8226 17.3399 21.5049 17.807 21.0327C18.2742 20.5605 18.5855 19.9565 18.699 19.302C18.752 18.995 18.76 18.133 18.759 12.605C18.757 7.426 18.747 6.205 18.703 5.96C18.471 4.685 17.571 3.708 16.3 3.352C15.983 3.263 15.954 3.263 12.716 3.249L9.45198 3.236L9.42798 2.901C9.39898 2.494 9.30298 2.283 9.07798 2.134C8.91398 2.025 8.61798 1.976 8.45998 2.032ZM16.21 4.908C16.586 5.086 16.887 5.382 17.071 5.755L17.22 6.056L17.231 8.788L17.243 11.52H6.75698L6.76898 8.79L6.77998 6.06L6.90798 5.79C7.13098 5.32 7.60798 4.913 8.06498 4.804C8.15498 4.783 9.83298 4.77 12.08 4.774L15.94 4.78L16.21 4.908ZM17.231 16.09L17.22 19.18L17.076 19.48C16.9548 19.7413 16.7713 19.9688 16.5417 20.1426C16.3121 20.3164 16.0433 20.4313 15.759 20.477C15.404 20.535 8.59598 20.535 8.24098 20.477C7.95663 20.432 7.68773 20.3177 7.45804 20.1442C7.22834 19.9707 7.04492 19.7432 6.92398 19.482L6.77998 19.18L6.76898 16.09L6.75798 13H17.242L17.231 16.09ZM10.018 13.923C9.85298 13.971 9.57298 14.217 9.48298 14.394C9.36951 14.6211 9.34896 14.8834 9.42569 15.1253C9.50242 15.3673 9.67039 15.5698 9.89398 15.69C10.019 15.756 10.131 15.778 10.343 15.779C10.59 15.78 10.652 15.764 10.823 15.659C10.9629 15.5755 11.0787 15.457 11.1588 15.3151C11.239 15.1733 11.2807 15.0129 11.28 14.85C11.28 14.711 11.256 14.54 11.226 14.469C11.039 14.021 10.506 13.781 10.018 13.923ZM13.567 13.984C13.3485 14.0946 13.1803 14.2842 13.0965 14.5143C13.0128 14.7445 13.0197 14.9978 13.116 15.223C13.521 16.115 14.831 15.9 14.947 14.923C15.034 14.189 14.24 13.649 13.567 13.984ZM14.04 14.818C14.04 14.827 14.022 14.846 14 14.86C13.978 14.874 13.96 14.866 13.96 14.842C13.96 14.819 13.978 14.8 14 14.8C14.022 14.8 14.04 14.808 14.04 14.818ZM10.08 17.235C9.73798 17.347 9.51298 17.573 9.41798 17.902C9.30798 18.279 9.41698 18.632 9.72598 18.896C9.86361 19.0155 10.0336 19.0916 10.2144 19.1145C10.3953 19.1375 10.5788 19.1063 10.742 19.025C11.101 18.858 11.28 18.567 11.28 18.15C11.28 17.651 10.907 17.25 10.414 17.218C10.3024 17.2079 10.1899 17.2136 10.08 17.235ZM13.652 17.263C13.56 17.297 13.412 17.397 13.325 17.485C12.743 18.066 13.107 19.053 13.924 19.113C14.802 19.176 15.286 18.154 14.685 17.506C14.444 17.246 13.989 17.139 13.652 17.263ZM14.02 18.16C14.034 18.182 14.026 18.2 14.002 18.2C13.9966 18.2001 13.9912 18.1992 13.9862 18.1973C13.9812 18.1953 13.9766 18.1924 13.9727 18.1887C13.9688 18.185 13.9657 18.1805 13.9635 18.1756C13.9613 18.1707 13.9601 18.1654 13.96 18.16C13.96 18.138 13.968 18.12 13.978 18.12C13.987 18.12 14.006 18.138 14.02 18.16Z" fill="#1B1A16"/>
</svg>
