<svg width="24" height="24" viewBox="0 0 24 24" fill="none" xmlns="http://www.w3.org/2000/svg">
<path fill-rule="evenodd" clip-rule="evenodd" d="M8.30099 2.065C7.50299 2.209 6.71899 2.731 6.24399 3.433C6.03297 3.74244 5.8792 4.08724 5.78999 4.451L5.69999 4.78V19.22L5.79099 19.554C6.04999 20.501 6.66299 21.257 7.49999 21.661C8.20099 22 7.91799 21.98 12 21.98C16.082 21.98 15.799 22 16.5 21.661C17.328 21.261 17.936 20.518 18.205 19.577L18.296 19.26L18.309 14.609C18.32 10.845 18.313 9.956 18.271 9.944C18.1677 9.92129 18.0641 9.90062 17.96 9.882C17.6123 9.81017 17.2736 9.70017 16.95 9.554L16.8 9.478V16.8H7.19999V10.945C7.19999 7.304 7.21499 5.013 7.23899 4.885C7.33599 4.372 7.68999 3.917 8.17899 3.677L8.45799 3.54L11.33 3.529L14.202 3.518L14.267 3.369C14.481 2.876 14.696 2.452 14.839 2.241L15.003 2L11.811 2.004C9.21999 2.007 8.55999 2.018 8.30099 2.065ZM21.78 9.147C21.599 9.271 21.016 9.569 20.63 9.734L20.48 9.799V11.797C20.48 13.095 20.495 13.868 20.524 14C20.608 14.395 20.974 14.643 21.38 14.582C21.619 14.546 21.9 14.303 21.96 14.08C21.986 13.984 21.997 13.039 21.99 11.47L21.98 9.011L21.78 9.147ZM2.45999 9.475C2.23299 9.578 2.05099 9.799 2.02099 10.008C2.00699 10.103 2.00199 12.17 2.00799 14.603L2.01999 19.026L2.12999 19.192C2.22999 19.3353 2.37563 19.4404 2.5431 19.4901C2.71058 19.5399 2.88998 19.5314 3.05199 19.466C3.24899 19.384 3.42499 19.157 3.47599 18.921C3.53499 18.645 3.53599 10.258 3.47699 10.001C3.36699 9.527 2.88999 9.279 2.45999 9.475ZM16.791 18.759C16.772 19.157 16.756 19.226 16.627 19.499C16.5091 19.759 16.3275 19.985 16.0991 20.1562C15.8706 20.3273 15.6026 20.438 15.32 20.478C14.967 20.534 9.03299 20.534 8.67999 20.478C8.31229 20.4214 7.9718 20.2503 7.70699 19.989C7.35199 19.625 7.19999 19.212 7.19999 18.615V18.32H16.811L16.791 18.759Z" fill="#1B1A16"/>
<path d="M15 5C15 2.79086 16.7909 1 19 1C21.2091 1 23 2.79086 23 5C23 7.20914 21.2091 9 19 9C16.7909 9 15 7.20914 15 5Z" fill="#D3273E"/>
</svg>
