<svg width="24" height="24" viewBox="0 0 24 24" fill="none" xmlns="http://www.w3.org/2000/svg">
<path fill-rule="evenodd" clip-rule="evenodd" d="M8.91667 3.5C7.96858 3.5 7.2 4.26858 7.2 5.21667V16.8H16.8V5.21667C16.8 4.26858 16.0314 3.5 15.0833 3.5H8.91667ZM18.3 5.21667C18.3 3.44015 16.8598 2 15.0833 2H8.91667C7.14015 2 5.7 3.44015 5.7 5.21667V18.7833C5.7 20.5598 7.14015 22 8.91667 22H15.0833C16.8598 22 18.3 20.5598 18.3 18.7833V5.21667ZM16.8 18.3H7.2V18.7833C7.2 19.7314 7.96858 20.5 8.91667 20.5H15.0833C16.0314 20.5 16.8 19.7314 16.8 18.7833V18.3ZM21.25 4.46667C21.6642 4.46667 22 4.80245 22 5.21667V13.85C22 14.2642 21.6642 14.6 21.25 14.6C20.8358 14.6 20.5 14.2642 20.5 13.85V5.21667C20.5 4.80245 20.8358 4.46667 21.25 4.46667ZM2.75 9.4C3.16421 9.4 3.5 9.73579 3.5 10.15V18.7833C3.5 19.1975 3.16421 19.5333 2.75 19.5333C2.33579 19.5333 2 19.1975 2 18.7833V10.15C2 9.73579 2.33579 9.4 2.75 9.4Z" fill="#1B1A16"/>
</svg>
