<svg width="24" height="24" viewBox="0 0 24 24" fill="none" xmlns="http://www.w3.org/2000/svg">
<path d="M15.5156 18.9023C16.0916 18.9023 16.5586 18.4354 16.5586 17.8594C16.5586 17.2834 16.0916 16.8164 15.5156 16.8164C14.9396 16.8164 14.4727 17.2834 14.4727 17.8594C14.4727 18.4354 14.9396 18.9023 15.5156 18.9023Z" fill="#1B1A16"/>
<path fill-rule="evenodd" clip-rule="evenodd" d="M9.49219 4.38281C9.49219 3.32138 10.3527 2.46094 11.4141 2.46094H19.6172C20.6786 2.46094 21.5391 3.32138 21.5391 4.38281V19.6172C21.5391 20.6786 20.6786 21.5391 19.6172 21.5391H11.4141C10.3527 21.5391 9.49219 20.6786 9.49219 19.6172V4.38281ZM11.4141 3.96094C11.1811 3.96094 10.9922 4.14982 10.9922 4.38281V19.6172C10.9922 19.8502 11.1811 20.0391 11.4141 20.0391H19.6172C19.8502 20.0391 20.0391 19.8502 20.0391 19.6172V4.38281C20.0391 4.14982 19.8502 3.96094 19.6172 3.96094H11.4141Z" fill="#1B1A16"/>
<path fill-rule="evenodd" clip-rule="evenodd" d="M8.34625 5.34154C8.5449 5.48304 8.66233 5.7123 8.6611 5.95618L8.65407 7.34915C8.65349 7.46463 8.62624 7.57841 8.57447 7.68164C8.45577 7.91827 8.34646 8.1589 8.24667 8.40296C8.48859 8.5274 8.65407 8.77953 8.65407 9.07031C8.65407 9.48453 8.31828 9.82031 7.90407 9.82031H7.78347C7.61962 10.4796 7.52095 11.1548 7.48964 11.8359H7.90409C8.3183 11.8359 8.65409 12.1717 8.65409 12.5859C8.65409 13.0002 8.3183 13.3359 7.90409 13.3359H7.4898C7.5212 14.0171 7.61982 14.6922 7.78349 15.3516H7.90407C8.31828 15.3516 8.65407 15.6873 8.65407 16.1016C8.65407 16.3926 8.48835 16.6448 8.24613 16.7692C8.34345 17.0076 8.44983 17.2427 8.56515 17.4741C8.61558 17.5752 8.64249 17.6865 8.64387 17.7995L8.66105 19.2105C8.66404 19.4553 8.54733 19.6861 8.34843 19.8289C8.14952 19.9717 7.89345 20.0083 7.66246 19.9272C6.14196 19.3929 4.82488 18.3996 3.89312 17.0846C2.96138 15.7696 2.46094 14.1977 2.46094 12.586C2.46094 10.9743 2.96138 9.40244 3.89312 8.08742C4.82487 6.7724 6.14195 5.77913 7.66246 5.24481C7.89256 5.16396 8.14761 5.20003 8.34625 5.34154ZM5.98841 13.3359C6.01575 14.0152 6.10148 14.6896 6.24395 15.3516H4.60252C4.29211 14.7185 4.09018 14.0371 4.00586 13.3359H5.98841ZM7.14683 18.0516C6.58333 17.7325 6.07197 17.3278 5.63141 16.8516H6.67185C6.80982 17.237 6.96801 17.6158 7.14603 17.9866L7.14683 18.0516ZM6.67224 8.32031C6.81243 7.92924 6.97346 7.54492 7.15496 7.16905L7.15523 7.11563C6.58847 7.43546 6.07426 7.84178 5.63153 8.32031H6.67224ZM4.60258 9.82031H6.24385C6.10126 10.4823 6.01551 11.1566 5.98826 11.8359H4.00587C4.0902 11.1348 4.29215 10.4533 4.60258 9.82031Z" fill="#1B1A16"/>
</svg>
