<svg width="24" height="24" viewBox="0 0 24 24" fill="none" xmlns="http://www.w3.org/2000/svg">
<path d="M20.441 2.942C19.834 2.334 19.025 2 18.166 2H12C11.14 2 10.333 2.335 9.72597 2.942C9.11797 3.55 8.78297 4.358 8.78297 5.217V8.833L6.28297 9.902C5.21797 10.348 4.37597 11.176 3.90697 12.247L2.97197 14.501C2.73497 15.059 2.61497 15.647 2.61597 16.251V21.25C2.61597 21.664 2.95197 22 3.36597 22C3.77997 22 4.11597 21.664 4.11597 21.25V16.25C4.11497 15.849 4.19497 15.458 4.35497 15.082L5.28697 12.836C5.59497 12.133 6.15497 11.582 6.86797 11.283L8.78297 10.464V13.628L8.46497 13.868C8.13397 14.117 8.06897 14.588 8.31797 14.919C8.56797 15.249 9.03697 15.315 9.36797 15.065L10.74 14.03C10.799 13.986 10.865 13.956 10.937 13.938C11.01 13.92 11.085 13.917 11.151 13.929C11.227 13.943 11.299 13.971 11.359 14.009C11.421 14.05 11.473 14.102 11.517 14.168C11.576 14.256 11.607 14.358 11.607 14.466C11.607 14.571 11.575 14.677 11.516 14.766L10.175 16.787C9.83497 17.281 9.36197 17.659 8.79897 17.883L6.78497 18.705C6.50297 18.82 6.31897 19.095 6.31897 19.399V21.249C6.31897 21.663 6.65497 21.999 7.06897 21.999C7.48297 21.999 7.81897 21.663 7.81897 21.249V19.903L8.86597 19.475C8.99597 20.069 9.28697 20.616 9.72697 21.056C10.333 21.665 11.14 22 12 22H18.166C19.025 22 19.834 21.665 20.442 21.057C21.048 20.45 21.382 19.642 21.382 18.784V5.217C21.383 4.358 21.049 3.55 20.441 2.942ZM11.409 12.452C11.133 12.407 10.857 12.416 10.587 12.48C10.482 12.505 10.382 12.545 10.283 12.586V9.325V9.323V5.217C10.283 4.765 10.466 4.323 10.786 4.003C11.11 3.679 11.542 3.5 12 3.5H18.166C18.625 3.5 19.057 3.679 19.381 4.003C19.7 4.322 19.883 4.765 19.883 5.217V15.978H12.512L12.763 15.599C12.988 15.264 13.106 14.872 13.106 14.467C13.106 14.062 12.988 13.67 12.767 13.341C12.614 13.108 12.417 12.91 12.179 12.754C11.948 12.604 11.692 12.503 11.409 12.452ZM19.381 19.997C19.057 20.321 18.625 20.5 18.166 20.5H12C11.542 20.5 11.11 20.321 10.787 19.997C10.462 19.673 10.284 19.241 10.284 18.783V18.762C10.72 18.454 11.107 18.079 11.417 17.628L11.517 17.478H19.884V18.784C19.883 19.241 19.704 19.673 19.381 19.997Z" fill="#1B1A16"/>
</svg>
