<svg width="24" height="24" viewBox="0 0 24 24" fill="none" xmlns="http://www.w3.org/2000/svg">
<path fill-rule="evenodd" clip-rule="evenodd" d="M7.814 2.059C6.477 2.302 5.471 3.208 5.05 4.548L4.94 4.9V19.1L5.05 19.452C5.431 20.666 6.254 21.489 7.468 21.87L7.82 21.98H16.18L16.532 21.87C17.746 21.489 18.569 20.666 18.95 19.452L19.06 19.1L19.071 14.557L19.082 10.015L18.571 9.967C18.3255 9.94564 18.0814 9.90991 17.84 9.86C17.7576 9.83631 17.6742 9.81629 17.59 9.8C17.573 9.8 17.56 11.832 17.56 14.316C17.56 18.707 17.558 18.839 17.481 19.089C17.38 19.414 17.151 19.77 16.897 19.996C16.5966 20.2445 16.2369 20.411 15.853 20.479C15.689 20.503 14.146 20.518 12 20.518C9.854 20.518 8.311 20.503 8.147 20.479C7.7631 20.411 7.4034 20.2445 7.103 19.996C6.83486 19.7478 6.63394 19.4358 6.519 19.089C6.442 18.836 6.44 18.702 6.44 12C6.44 5.298 6.442 5.164 6.519 4.911C6.668 4.429 7.057 3.955 7.48 3.74C7.924 3.515 7.838 3.52 11.148 3.52H14.201L14.266 3.37C14.482 2.875 14.696 2.452 14.839 2.241L15.003 2L11.551 2.004C8.908 2.006 8.033 2.019 7.814 2.059ZM11.78 4.276C11.5779 4.32639 11.3961 4.43743 11.259 4.59421C11.1219 4.751 11.036 4.94599 11.013 5.153C10.947 5.719 11.419 6.24 12 6.24C12.581 6.24 13.053 5.719 12.987 5.153C12.9637 4.92483 12.8623 4.71171 12.6999 4.54972C12.5376 4.38772 12.3242 4.28679 12.096 4.264C11.9906 4.25256 11.8842 4.2566 11.78 4.276Z" fill="#1B1A16"/>
<path d="M15 5C15 2.79086 16.7909 1 19 1C21.2091 1 23 2.79086 23 5C23 7.20914 21.2091 9 19 9C16.7909 9 15 7.20914 15 5Z" fill="#D3273E"/>
</svg>
