<svg width="24" height="24" viewBox="0 0 24 24" fill="none" xmlns="http://www.w3.org/2000/svg">
<path fill-rule="evenodd" clip-rule="evenodd" d="M11.415 2.059C10.9273 2.14771 10.4672 2.34964 10.0717 2.64854C9.67621 2.94745 9.3564 3.33499 9.13798 3.78C8.79398 4.474 8.78998 4.501 8.76398 6.816L8.73998 8.851L7.41998 9.419C5.96798 10.043 5.84098 10.103 5.51898 10.321C4.96501 10.6913 4.50099 11.1809 4.16098 11.754C3.96098 12.091 2.91798 14.586 2.78398 15.051C2.61898 15.619 2.59998 16.001 2.59998 18.711C2.59998 21.503 2.60398 21.554 2.82898 21.769C2.97463 21.904 3.16189 21.9855 3.35998 22C3.54927 21.9861 3.7291 21.9118 3.87298 21.788C4.10998 21.567 4.09798 21.717 4.12098 18.58C4.14198 15.728 4.14298 15.697 4.23198 15.432C4.37398 15.009 5.31398 12.761 5.44198 12.54C5.70198 12.088 6.12598 11.675 6.57798 11.433C6.97407 11.2436 7.37486 11.0642 7.77998 10.895L8.73998 10.487L8.74998 12.069L8.76098 13.652L8.66998 13.713C8.28098 13.977 8.10898 14.31 8.19398 14.629C8.29398 15.004 8.54698 15.2 8.92798 15.2C9.18498 15.2 9.20898 15.186 10.04 14.56C10.801 13.987 10.907 13.92 11.052 13.92C11.231 13.92 11.462 14.061 11.534 14.214C11.676 14.512 11.662 14.544 10.834 15.787C10.413 16.42 9.96998 17.041 9.84898 17.168C9.46298 17.572 9.19498 17.721 7.88698 18.256C7.21998 18.529 6.62798 18.794 6.57198 18.846C6.33898 19.06 6.32198 19.161 6.32098 20.331C6.31998 21.533 6.32598 21.568 6.59098 21.807C7.00898 22.184 7.67598 21.959 7.79598 21.4C7.81998 21.288 7.83998 20.903 7.83998 20.546V19.896L8.30998 19.703L8.82498 19.493C8.85098 19.483 8.88898 19.557 8.91698 19.668C8.99098 19.969 9.29598 20.556 9.51398 20.82C10.0212 21.4256 10.7279 21.8302 11.507 21.961C11.689 21.989 12.944 21.999 15.26 21.99C19.173 21.975 18.887 21.997 19.58 21.661C20.572 21.18 21.222 20.257 21.357 19.14C21.403 18.753 21.421 9.474 21.375 9.428C21.361 9.415 21.264 9.448 21.158 9.501C20.8423 9.65496 20.5111 9.77465 20.17 9.858L19.88 9.929V16H16.2C14.176 16 12.52 15.992 12.52 15.981C12.52 15.971 12.609 15.827 12.717 15.661C12.986 15.248 13.095 14.91 13.095 14.48C13.097 13.536 12.509 12.766 11.583 12.499C11.293 12.415 10.663 12.433 10.43 12.532L10.28 12.596V8.84C10.28 6.209 10.293 5.02 10.325 4.872C10.435 4.354 10.78 3.913 11.26 3.677L11.538 3.54L12.871 3.528L14.203 3.516L14.267 3.368C14.48 2.877 14.696 2.452 14.839 2.241L15.003 2L13.351 2.004C12.188 2.006 11.616 2.023 11.415 2.059ZM19.88 18.232C19.88 19.081 19.837 19.325 19.628 19.674C19.378 20.094 18.916 20.396 18.4 20.478C18.047 20.534 12.113 20.534 11.76 20.478C11.3999 20.425 11.066 20.2592 10.8061 20.0044C10.5463 19.7496 10.374 19.4189 10.314 19.06L10.264 18.79L10.422 18.666C10.72 18.432 11.127 18.02 11.327 17.75L11.528 17.48H19.88V18.232Z" fill="#1B1A16"/>
<path d="M15 5C15 2.79086 16.7909 1 19 1C21.2091 1 23 2.79086 23 5C23 7.20914 21.2091 9 19 9C16.7909 9 15 7.20914 15 5Z" fill="#D3273E"/>
</svg>
