<svg width="24" height="24" viewBox="0 0 24 24" fill="none" xmlns="http://www.w3.org/2000/svg">
<path d="M9 4.25C8.58579 4.25 8.25 4.58579 8.25 5C8.25 5.41421 8.58579 5.75 9 5.75H15C15.4142 5.75 15.75 5.41421 15.75 5C15.75 4.58579 15.4142 4.25 15 4.25H9Z" fill="#1B1A16"/>
<path d="M12.7505 7.99634C12.7505 7.58212 12.4148 7.24634 12.0005 7.24634C11.5863 7.24634 11.2505 7.58212 11.2505 7.99634V8.25068C10.884 8.34076 10.5459 8.49685 10.2609 8.71068C9.78841 9.06509 9.42844 9.61134 9.42844 10.2771C9.42844 10.9437 9.79019 11.4901 10.2621 11.8442C10.7337 12.1982 11.3508 12.3949 12.0005 12.3949C12.3584 12.3949 12.6525 12.5037 12.8398 12.6434C13.0263 12.7825 13.0716 12.9178 13.0716 13.0056C13.0716 13.0943 13.0254 13.2316 12.8379 13.3723C12.6502 13.5132 12.3566 13.6226 12.0005 13.6226C11.9906 13.6226 11.9807 13.6227 11.9709 13.6231C11.7758 13.631 11.5811 13.5917 11.4045 13.5086C11.2279 13.4254 11.074 13.3009 10.9559 13.1456C10.7052 12.8159 10.2346 12.752 9.90494 13.0027C9.57527 13.2535 9.51131 13.7241 9.76209 14.0537C10.0264 14.4012 10.3707 14.6797 10.7654 14.8657C10.9217 14.9392 11.0843 14.9976 11.2505 15.04V15.2826C11.2505 15.6969 11.5863 16.0326 12.0005 16.0326C12.4148 16.0326 12.7505 15.6969 12.7505 15.2826V15.0323C13.1164 14.9419 13.4539 14.7855 13.7385 14.5719C14.2101 14.2179 14.5716 13.6717 14.5716 13.0056C14.5716 12.3386 14.2092 11.7935 13.7366 11.441C13.2648 11.0891 12.6484 10.8949 12.0005 10.8949C11.6443 10.8949 11.3504 10.7856 11.1624 10.6445C10.9748 10.5037 10.9284 10.3662 10.9284 10.2771C10.9284 10.1871 10.9748 10.0503 11.161 9.91058C11.3479 9.7704 11.6415 9.66099 12.0005 9.66099L12.012 9.6609L12.0304 9.66039C12.2253 9.65261 12.4192 9.69193 12.5957 9.77508C12.7721 9.85821 12.926 9.98269 13.0441 10.1379C13.2949 10.4676 13.7654 10.5316 14.0951 10.2808C14.4247 10.03 14.4887 9.55945 14.2379 9.22978C13.9738 8.88253 13.6297 8.6041 13.235 8.41813C13.0789 8.34459 12.9166 8.28635 12.7505 8.24391V7.99634Z" fill="#1B1A16"/>
<path d="M12 19.5C12.4142 19.5 12.75 19.1642 12.75 18.75C12.75 18.3358 12.4142 18 12 18C11.5858 18 11.25 18.3358 11.25 18.75C11.25 19.1642 11.5858 19.5 12 19.5Z" fill="#1B1A16"/>
<path fill-rule="evenodd" clip-rule="evenodd" d="M7 2.25C6.0335 2.25 5.25 3.0335 5.25 4V20C5.25 20.9665 6.0335 21.75 7 21.75H17C17.9665 21.75 18.75 20.9665 18.75 20V4C18.75 3.0335 17.9665 2.25 17 2.25H7ZM6.75 4C6.75 3.86193 6.86193 3.75 7 3.75H17C17.1381 3.75 17.25 3.86193 17.25 4V20C17.25 20.1381 17.1381 20.25 17 20.25H7C6.86193 20.25 6.75 20.1381 6.75 20V4Z" fill="#1B1A16"/>
</svg>
