<svg width="24" height="24" viewBox="0 0 24 24" fill="none" xmlns="http://www.w3.org/2000/svg">
<path d="M7.75 16C7.75 15.5875 8.0875 15.25 8.5 15.25C8.9125 15.25 9.25 15.5875 9.25 16C9.25 16.4125 8.9125 16.75 8.5 16.75C8.0875 16.75 7.75 16.4125 7.75 16Z" fill="#1B1A16"/>
<path d="M13.75 18C13.75 17.5858 14.0858 17.25 14.5 17.25H16.5C16.9142 17.25 17.25 17.5858 17.25 18C17.25 18.4142 16.9142 18.75 16.5 18.75H14.5C14.0858 18.75 13.75 18.4142 13.75 18Z" fill="#1B1A16"/>
<path fill-rule="evenodd" clip-rule="evenodd" d="M13.5 4V5H19.5C20.0523 5 20.5 5.44772 20.5 6V20C20.5 20.5523 20.0523 21 19.5 21H11.5C10.9477 21 10.5 20.5523 10.5 20V19H4.5C3.94772 19 3.5 18.5523 3.5 18V4C3.5 3.44772 3.94772 3 4.5 3H12.5C13.0523 3 13.5 3.44772 13.5 4ZM12 4.5V5H11.5C10.9477 5 10.5 5.44772 10.5 6V13H5V4.5H12ZM5 14.5H10.5V17.5H5V14.5ZM19 19.5H12V16.25H19V19.5ZM19 14.75H12V6.5H19V14.75Z" fill="#1B1A16"/>
</svg>
