<svg width="24" height="24" viewBox="0 0 24 24" fill="none" xmlns="http://www.w3.org/2000/svg">
<path d="M5.53258 3.06824C4.52058 3.21524 3.58558 3.97224 3.23758 4.92424C3.03458 5.48224 3.04658 4.96924 3.04658 13.0192C3.04658 18.1222 3.05758 20.3762 3.08058 20.4612C3.12658 20.6252 3.33558 20.8462 3.50758 20.9112C3.66894 20.9713 3.84659 20.9709 4.00766 20.91C4.16872 20.8492 4.30227 20.732 4.38358 20.5802L4.47158 20.4112V8.86024H7.46858C9.74758 8.86024 10.4966 8.85024 10.5956 8.82124C10.9076 8.72824 11.1376 8.32524 11.0596 8.01024C11.0382 7.91252 10.9968 7.82025 10.9381 7.73922C10.8795 7.65818 10.8047 7.5901 10.7186 7.53924L10.5676 7.45124L7.51958 7.44224L4.47158 7.43324V6.64824C4.47158 6.21624 4.48658 5.77824 4.50558 5.67524C4.56384 5.38324 4.7073 5.11505 4.91784 4.9045C5.12839 4.69396 5.39658 4.5505 5.68858 4.49224C5.81458 4.46924 6.82858 4.45824 8.74858 4.45824H11.6206L11.7906 4.37024C11.8868 4.31894 11.9699 4.24607 12.0333 4.15732C12.0967 4.06857 12.1388 3.96636 12.1561 3.85867C12.1734 3.75098 12.1656 3.64075 12.1333 3.53658C12.1009 3.43242 12.0449 3.33715 11.9696 3.25824C11.7506 3.03324 11.9996 3.04924 8.69958 3.04424C7.06158 3.04224 5.63658 3.05324 5.53258 3.06824ZM16.0146 3.05124C15.5456 3.11724 15.4026 3.14524 15.1196 3.22524C14.3265 3.46125 13.612 3.90749 13.052 4.51664C12.492 5.12579 12.1072 5.87515 11.9386 6.68524C11.8446 7.11924 11.8376 8.00824 11.9246 8.41624C12.0606 9.04824 12.2796 9.58724 12.6096 10.0952L12.7636 10.3322L12.5426 11.5832C12.3106 12.8982 12.3026 13.0012 12.4166 13.2222C12.5656 13.5122 12.9346 13.6742 13.2316 13.5772C13.2986 13.5562 13.8816 13.2142 14.5256 12.8182L15.6976 12.0982L15.9196 12.1292C16.2166 12.1702 16.9676 12.1412 17.2806 12.0752C18.9156 11.7332 20.2176 10.5872 20.7326 9.03924C20.9186 8.48024 20.9536 8.24624 20.9536 7.59324C20.9536 6.93824 20.9186 6.70624 20.7306 6.14124C20.5356 5.5672 20.2286 5.03757 19.8275 4.58303C19.4263 4.12848 18.9389 3.75807 18.3936 3.49324C17.815 3.21078 17.1813 3.05919 16.5376 3.04924C16.3633 3.04254 16.1888 3.04321 16.0146 3.05124ZM16.7906 4.49024C17.47 4.57025 18.1032 4.87507 18.5896 5.35624C18.8876 5.64624 19.0676 5.89724 19.2436 6.27024C19.4596 6.72524 19.5266 7.04024 19.5266 7.59324C19.5266 8.14624 19.4596 8.46124 19.2436 8.91624C19.048 9.34237 18.7584 9.71867 18.3966 10.0169C18.0348 10.3151 17.6102 10.5276 17.1546 10.6382C16.7432 10.7323 16.3178 10.7479 15.9006 10.6842C15.4086 10.5912 15.4246 10.5872 14.6096 11.0902C14.3076 11.2762 14.0526 11.4222 14.0446 11.4132C14.0356 11.4042 14.0726 11.1432 14.1266 10.8322C14.2736 9.99024 14.2636 9.91024 13.9776 9.54524C13.682 9.18033 13.4719 8.75391 13.3626 8.29724C13.2652 7.82009 13.2659 7.32813 13.3646 6.85124C13.4738 6.41498 13.6748 6.00701 13.9542 5.65455C14.2335 5.30209 14.5848 5.01324 14.9846 4.80724C15.5403 4.52037 16.1704 4.40979 16.7906 4.49024ZM8.01258 5.25724C7.91029 5.2782 7.81417 5.32237 7.73164 5.38635C7.64911 5.45033 7.58238 5.5324 7.53658 5.62624C7.32558 6.03024 7.52858 6.49624 7.97458 6.63024C8.16358 6.68724 10.3156 6.69524 10.5356 6.64024C10.6335 6.60869 10.7248 6.55918 10.8046 6.49424C11.1326 6.21224 11.1626 5.77324 10.8726 5.46124C10.6896 5.26424 10.7126 5.26724 9.37358 5.25024C8.70058 5.24124 8.08758 5.24424 8.01258 5.25724ZM16.1086 5.30924C15.9406 5.39478 15.8097 5.53884 15.7406 5.71424C15.6796 5.88524 15.6796 7.11624 15.7406 7.28724C15.7898 7.4233 15.8797 7.54088 15.9982 7.62392C16.1167 7.70696 16.2579 7.75142 16.4026 7.75124C16.5377 7.75551 16.6711 7.72045 16.7867 7.65033C16.9023 7.58021 16.995 7.47805 17.0536 7.35624C17.1146 7.24124 17.1226 7.16924 17.1326 6.59624C17.1406 6.19424 17.1316 5.90324 17.1086 5.80024C17.0807 5.69725 17.0323 5.60094 16.9663 5.51709C16.9004 5.43324 16.8181 5.36357 16.7246 5.31224C16.5273 5.23174 16.3066 5.23067 16.1086 5.30924ZM16.2626 8.00824C16.0203 8.04235 15.8 8.16734 15.6464 8.35787C15.4928 8.54839 15.4175 8.7902 15.4356 9.03424C15.4445 9.28447 15.5518 9.52107 15.7342 9.6926C15.9165 9.86413 16.1593 9.95672 16.4096 9.95024C16.5473 9.95835 16.6849 9.93377 16.8113 9.8785C16.9376 9.82323 17.0491 9.73885 17.1366 9.63224C17.3376 9.41224 17.4046 9.21624 17.3846 8.91124C17.3456 8.32024 16.8626 7.93124 16.2626 8.00824ZM8.58858 11.3572C8.04706 11.4742 7.54499 11.7293 7.13112 12.0976C6.71726 12.4659 6.40566 12.935 6.22658 13.4592C5.97888 14.2191 6.01801 15.0433 6.33658 15.7762C6.6613 16.4678 7.21284 17.0275 7.89958 17.3622L8.12158 17.4652L7.95158 17.5042C7.48158 17.6142 6.85558 17.8982 6.35958 18.2272C5.59758 18.7332 4.69358 19.8192 4.69358 20.2262C4.69358 20.6482 5.05158 20.9842 5.46358 20.9502C5.74258 20.9272 5.88358 20.8212 6.13558 20.4462C7.47858 18.4412 10.2926 18.1912 11.9466 19.9312C12.0776 20.0692 12.2766 20.3172 12.3896 20.4822C12.5646 20.7392 12.6186 20.7952 12.7656 20.8692C12.8616 20.9251 12.9705 20.9549 13.0815 20.9556C13.1926 20.9563 13.3019 20.9279 13.3986 20.8732C13.5428 20.8048 13.6588 20.6884 13.7268 20.544C13.7948 20.3996 13.8106 20.236 13.7716 20.0812C13.6966 19.7912 13.2486 19.1852 12.7906 18.7522C12.172 18.1723 11.4229 17.7497 10.6066 17.5202L10.3926 17.4632L10.6696 17.3242C12.3756 16.4682 12.9596 14.3192 11.9166 12.7362C11.6756 12.394 11.3823 12.0916 11.0476 11.8402C10.7388 11.6465 10.4055 11.4948 10.0566 11.3892C9.69658 11.2922 8.95958 11.2772 8.58858 11.3572ZM9.87758 12.8372C10.4326 13.0602 10.8426 13.5312 10.9596 14.0782C11.0456 14.4852 10.9846 14.9432 10.7966 15.3012C10.6596 15.5632 10.3046 15.9152 10.0516 16.0412C9.37258 16.3772 8.55858 16.2572 8.03658 15.7422C7.82692 15.5355 7.6675 15.2833 7.57058 15.0052C7.47908 14.6622 7.47908 14.3012 7.57058 13.9582C7.71358 13.5102 8.04058 13.1192 8.44358 12.9142C8.74358 12.7622 8.93158 12.7232 9.31658 12.7352C9.59558 12.7432 9.68558 12.7592 9.87758 12.8372ZM16.1406 12.9892C15.977 13.0649 15.844 13.1939 15.7636 13.3552C15.6976 13.4982 15.6976 13.5222 15.6886 16.8552C15.6826 19.1642 15.6906 20.2622 15.7146 20.3762C15.7404 20.5305 15.8181 20.6713 15.9348 20.7753C16.0516 20.8793 16.2004 20.9404 16.3566 20.9482C16.498 20.9638 16.6408 20.9353 16.7654 20.8665C16.89 20.7978 16.9903 20.6922 17.0526 20.5642L17.1226 20.4342V13.4672L17.0536 13.3412C16.9752 13.1869 16.8459 13.0643 16.6876 12.9942C16.5105 12.9342 16.3188 12.9324 16.1406 12.9892Z" fill="#1B1A16"/>
</svg>
