<svg width="24" height="24" viewBox="0 0 24 24" fill="none" xmlns="http://www.w3.org/2000/svg">
<path fill-rule="evenodd" clip-rule="evenodd" d="M5.19965 4.35909C5.19965 3.0562 6.25585 2 7.55874 2H16.4412C17.7441 2 18.8003 3.05619 18.8003 4.35909V19.6409C18.8003 20.9438 17.7441 22 16.4412 22H7.55874C6.25584 22 5.19965 20.9438 5.19965 19.6409V4.35909ZM7.55874 3.5C7.08427 3.5 6.69965 3.88463 6.69965 4.35909V19.6409C6.69965 20.1154 7.08428 20.5 7.55874 20.5H16.4412C16.9157 20.5 17.3003 20.1154 17.3003 19.6409V4.35909C17.3003 3.88463 16.9157 3.5 16.4412 3.5H7.55874ZM7.92779 5.78812C7.92779 5.14686 8.44763 4.62701 9.0889 4.62701C9.73018 4.62701 10.25 5.14688 10.25 5.78812C10.25 6.42936 9.73018 6.94923 9.0889 6.94923C8.44764 6.94923 7.92779 6.42938 7.92779 5.78812ZM10.8056 7.43255C10.8056 6.79125 11.3255 6.27144 11.9667 6.27144C12.6079 6.27144 13.1278 6.79127 13.1278 7.43255C13.1278 8.07383 12.6079 8.59366 11.9667 8.59366C11.3255 8.59366 10.8056 8.07385 10.8056 7.43255ZM7.92779 8.87145C7.92779 8.23019 8.44764 7.71034 9.0889 7.71034C9.73018 7.71034 10.25 8.23021 10.25 8.87145C10.25 9.51269 9.73018 10.0326 9.0889 10.0326C8.44764 10.0326 7.92779 9.51271 7.92779 8.87145Z" fill="#1B1A16"/>
</svg>
