<svg width="24" height="24" viewBox="0 0 24 24" fill="none" xmlns="http://www.w3.org/2000/svg">
<path fill-rule="evenodd" clip-rule="evenodd" d="M2.13733 3.57222C2.13733 2.70391 2.84124 2 3.70955 2H13.5762C14.4445 2 15.1484 2.70392 15.1484 3.57222V20.4278C15.1484 21.2961 14.4445 22 13.5762 22H3.70955C2.84125 22 2.13733 21.2961 2.13733 20.4278V3.57222ZM3.70955 3.5C3.66967 3.5 3.63733 3.53234 3.63733 3.57222V20.4278C3.63733 20.4677 3.66966 20.5 3.70955 20.5H13.5762C13.6161 20.5 13.6484 20.4677 13.6484 20.4278V3.57222C13.6484 3.53233 13.6161 3.5 13.5762 3.5H3.70955ZM16.5563 2.60702C16.8145 2.55456 17.0813 2.64143 17.2591 2.83586L18.8772 4.60529C18.969 4.70558 19.0317 4.8289 19.0588 4.96208L21.842 18.6595C21.9244 19.0653 21.6623 19.4612 21.2565 19.5438L20.7824 19.6402L20.8929 20.1848L20.9635 20.1705C21.3694 20.0881 21.7653 20.3503 21.8478 20.7562C21.9302 21.1622 21.6679 21.5581 21.262 21.6405L19.6505 21.9677C19.2445 22.0502 18.8486 21.7879 18.7662 21.382C18.6838 20.9761 18.946 20.5802 19.352 20.4977L19.4229 20.4833L19.3125 19.9392L18.8392 20.0355C18.6442 20.0751 18.4415 20.0357 18.2756 19.9259C18.1097 19.816 17.9943 19.6448 17.9547 19.4499L15.1715 5.75163C15.1444 5.61844 15.154 5.48041 15.1993 5.35227L15.9985 3.09199C16.0864 2.84358 16.2981 2.65948 16.5563 2.60702ZM19.7451 18.3205L19.7492 18.3196L19.7526 18.319L20.2227 18.2233L17.6301 5.4643L16.9959 4.7708L16.6828 5.6565L19.2753 18.416L19.7451 18.3205ZM7.68737 5.18953C7.68737 4.66179 8.11519 4.23397 8.64292 4.23397C9.17062 4.23397 9.59849 4.66174 9.59849 5.18953C9.59849 5.71731 9.17062 6.14508 8.64292 6.14508C8.11518 6.14508 7.68737 5.71726 7.68737 5.18953Z" fill="#1B1A16"/>
</svg>
