<svg width="24" height="24" viewBox="0 0 24 24" fill="none" xmlns="http://www.w3.org/2000/svg">
<path d="M21.774 4.71398C21.496 4.44098 21.062 4.43798 20.769 4.68698L18.645 2.51998C18.207 2.07498 17.427 2.07998 16.994 2.52198L13.66 5.92398C13.44 6.14498 13.32 6.43798 13.32 6.74998C13.32 7.06198 13.44 7.35498 13.655 7.57098L15.79 9.74998L14.262 11.31C14.142 11.432 13.984 11.499 13.817 11.499H12.025C11.46 11.499 10.908 11.732 10.505 12.142L2.21001 20.729C1.92201 21.027 1.93101 21.502 2.22901 21.79C2.37501 21.93 2.56201 22 2.75001 22C2.94601 22 3.14201 21.924 3.29001 21.771L11.58 13.189C11.7 13.067 11.858 13 12.025 13H13.817C14.389 13 14.927 12.773 15.334 12.361L21.787 5.77498C22.075 5.47898 22.07 5.00398 21.774 4.71398ZM16.84 8.67799L14.951 6.74998L15.956 5.72398L16.894 6.68198C17.041 6.83198 17.236 6.90798 17.43 6.90798C17.619 6.90798 17.809 6.83698 17.954 6.69398C18.25 6.40398 18.256 5.92898 17.966 5.63298L17.005 4.65198L17.819 3.82098L19.709 5.74998L19.093 6.37798L16.84 8.67799Z" fill="#1B1A16"/>
</svg>
