<svg width="24" height="24" viewBox="0 0 24 24" fill="none" xmlns="http://www.w3.org/2000/svg">
<path fill-rule="evenodd" clip-rule="evenodd" d="M16.978 2.73046C16.0823 1.72981 14.5217 1.78925 13.5979 2.71302L2.82678 13.4841C1.8761 14.4348 1.8761 15.8963 2.82678 16.847C3.53099 17.5512 4.51552 17.7338 5.36508 17.3947L7.92747 21.0248C7.9521 21.0597 7.97966 21.0924 8.00986 21.1226C8.42794 21.5407 8.97538 21.8774 9.65023 21.9898C9.69098 21.9966 9.73222 22 9.77353 22C10.4157 22 11.118 21.7884 11.6194 21.287L12.7608 20.1456C12.7676 20.1391 12.7743 20.1324 12.7808 20.1257L16.3168 16.5896C16.3274 16.5801 16.3378 16.5703 16.348 16.5601C16.3582 16.55 16.368 16.5396 16.3774 16.529L19.8401 13.0663C19.8768 13.0361 19.911 13.0021 19.9421 12.9643L21.1572 11.7493C21.5581 11.3484 22.0005 10.7057 21.86 9.86229C21.7475 9.18744 21.4108 8.63999 20.9927 8.22192C20.9688 8.19795 20.9432 8.17564 20.9162 8.15513L17.4008 5.48346C17.8732 4.5932 17.7323 3.49903 16.978 2.73046ZM15.866 3.73723C15.6077 3.44204 15.0446 3.3877 14.6586 3.77368L3.88743 14.5448C3.52255 14.9097 3.52255 15.4215 3.88743 15.7863C4.25232 16.1512 4.76412 16.1512 5.129 15.7864L15.9001 5.01526C16.2649 4.65037 16.2649 4.13856 15.9001 3.77368C15.8883 3.76191 15.8769 3.74975 15.866 3.73723ZM19.2653 11.5198L20.0965 10.6886C20.3534 10.4317 20.4043 10.2522 20.3804 10.1089C20.3308 9.81152 20.1861 9.54785 19.9649 9.31615L16.4187 6.62107L6.55726 16.4825L9.11298 20.1032C9.32661 20.3046 9.56725 20.4413 9.83623 20.4987C10.1524 20.4855 10.4119 20.3732 10.5587 20.2264L11.2796 19.5055L9.30921 16.4795C9.08319 16.1324 9.18135 15.6678 9.52846 15.4418C9.87557 15.2158 10.3402 15.3139 10.5662 15.661L12.3637 18.4214L14.7561 16.029L12.3676 13.6404C12.0747 13.3475 12.0747 12.8727 12.3676 12.5798C12.6605 12.2869 13.1354 12.2869 13.4283 12.5798L15.8168 14.9683L18.1836 12.6015L15.4422 10.7739C15.0976 10.5441 15.0044 10.0785 15.2342 9.73384C15.464 9.38919 15.9296 9.29606 16.2743 9.52582L19.2653 11.5198Z" fill="#1B1A16"/>
</svg>
