<svg width="24" height="24" viewBox="0 0 24 24" fill="none" xmlns="http://www.w3.org/2000/svg">
<path d="M11.9999 2C11.0399 2 2.61694 2.082 2.61694 4.908C2.61694 4.943 2.61894 4.977 2.62394 5.012C3.18694 9.05 4.56694 18.543 5.20794 19.506C5.76594 20.349 7.22094 21.703 10.7989 21.955C10.8019 21.955 10.8049 21.957 10.8089 21.957C10.8089 21.957 10.8119 21.956 10.8139 21.956C11.1879 21.982 11.5779 22 11.9999 22C12.4219 22 12.8119 21.982 13.1869 21.956C13.1889 21.956 13.1899 21.957 13.1919 21.957C13.1959 21.957 13.1989 21.955 13.2029 21.955C16.7809 21.703 18.2329 20.349 18.7909 19.508C19.4339 18.544 20.8129 9.05 21.3769 5.012C21.3819 4.978 21.3839 4.943 21.3839 4.908C21.3829 2.082 12.9599 2 11.9999 2ZM17.6319 18.42L16.1449 16.933L18.1669 14.911L18.3109 15.055C18.0349 16.633 17.7939 17.868 17.6319 18.42ZM13.4739 20.429L13.0619 20.017L15.0839 17.994L16.6049 19.515C15.9799 19.894 14.9979 20.275 13.4739 20.429ZM7.39394 19.517L8.91694 17.994L10.9399 20.017L10.5269 20.429C8.99994 20.274 8.01494 19.893 7.39394 19.517ZM5.69094 15.052L5.83394 14.91L7.85594 16.932L6.37294 18.414C6.20694 17.846 5.96494 16.618 5.69094 15.052ZM11.9999 14.91L14.0229 16.932L11.9999 18.956L9.97694 16.933L11.9999 14.91ZM8.91694 15.872L6.89494 13.85L8.91794 11.827L10.9399 13.85L8.91694 15.872ZM13.0609 13.85L15.0839 11.827L17.1059 13.85L15.0839 15.872L13.0609 13.85ZM11.9999 12.789L9.97794 10.766L11.9999 8.744L14.0229 10.766L11.9999 12.789ZM13.1709 7.793C14.5309 7.744 16.0709 7.606 17.4529 7.336L15.0839 9.706L13.1709 7.793ZM10.8299 7.793L8.91694 9.706L6.54694 7.336C7.92994 7.606 9.46994 7.744 10.8299 7.793ZM7.85694 10.766L5.83394 12.789L5.20994 12.166C4.96294 10.62 4.71194 8.969 4.47994 7.39L7.85694 10.766ZM18.7899 12.167L18.1669 12.789L16.1449 10.766L19.5199 7.391C19.2879 8.971 19.0359 10.622 18.7899 12.167ZM11.9999 3.5C16.6699 3.5 19.5199 4.412 19.8629 4.883C19.4759 5.418 16.6369 6.316 11.9999 6.316C7.66894 6.316 4.90694 5.532 4.25394 5.042L4.13694 4.926C4.54694 4.39 7.38594 3.5 11.9999 3.5Z" fill="#1B1A16"/>
</svg>
