<svg width="24" height="24" viewBox="0 0 24 24" fill="none" xmlns="http://www.w3.org/2000/svg">
<path fill-rule="evenodd" clip-rule="evenodd" d="M13.8648 2.46742C14.4881 1.84413 15.4585 1.84425 16.0817 2.46743L17.238 3.62368C17.8612 4.24693 17.8613 5.21735 17.238 5.8406L16.3295 6.74908C15.7063 7.37233 14.7358 7.37234 14.1126 6.74909L12.9563 5.59284C12.3332 4.9696 12.3331 3.99921 12.9562 3.37597L13.8648 2.46742ZM14.9598 3.50316C14.9535 3.50581 14.9413 3.51226 14.9255 3.52804L14.017 4.43653C14.0012 4.45229 13.9947 4.46451 13.9921 4.47082C13.9893 4.47731 13.9889 4.48165 13.9889 4.48437C13.9889 4.48709 13.9893 4.49144 13.9921 4.49793C13.9947 4.50426 14.0012 4.51643 14.017 4.53223L15.1732 5.68841C15.189 5.70422 15.2012 5.71069 15.2075 5.71335C15.214 5.71608 15.2183 5.71652 15.221 5.71652C15.2237 5.71652 15.2281 5.71608 15.2346 5.71335C15.2409 5.71069 15.253 5.70423 15.2689 5.68843L16.1773 4.77994C16.1931 4.76414 16.1996 4.75195 16.2023 4.74564C16.205 4.73917 16.2054 4.73484 16.2054 4.73215C16.2054 4.72945 16.205 4.72513 16.2023 4.71865C16.1996 4.71234 16.1931 4.70017 16.1773 4.68436L15.021 3.52811C15.0052 3.5123 14.9931 3.50583 14.9867 3.50317C14.9803 3.50044 14.9759 3.5 14.9732 3.5C14.9705 3.5 14.9662 3.50044 14.9598 3.50316ZM18.0562 6.08073C18.3603 5.77661 18.7671 5.63394 19.1853 5.63394H20.4242C20.8424 5.63394 21.2491 5.77663 21.5532 6.08074C21.8573 6.38485 22 6.79163 22 7.20984V8.86163C22 9.27984 21.8573 9.68661 21.5532 9.99072C21.2491 10.2948 20.8424 10.4375 20.4242 10.4375H19.1853C18.7671 10.4375 18.3603 10.2948 18.0562 9.99073C17.7521 9.68662 17.6094 9.27984 17.6094 8.86163V7.20984C17.6094 6.79163 17.7521 6.38484 18.0562 6.08073ZM19.1181 7.14269C19.1151 7.15115 19.1094 7.17227 19.1094 7.20984V8.86163C19.1094 8.8992 19.1151 8.92031 19.1181 8.92877C19.1266 8.93177 19.1477 8.93752 19.1853 8.93752H20.4242C20.4617 8.93752 20.4828 8.93178 20.4913 8.92879C20.4943 8.92032 20.5 8.89921 20.5 8.86163V7.20984C20.5 7.17225 20.4943 7.15114 20.4913 7.14267C20.4828 7.13968 20.4617 7.13394 20.4242 7.13394H19.1853C19.1477 7.13394 19.1266 7.13969 19.1181 7.14269ZM7.63824 7.63821C7.63525 7.64668 7.6295 7.66779 7.6295 7.70536V8.77255C7.62952 8.77687 7.62952 8.7812 7.6295 8.78552V8.94421C7.6295 8.98177 7.63525 9.00289 7.63824 9.01136C7.64671 9.01435 7.66783 9.0201 7.70539 9.0201H9.35718C9.36154 9.0201 9.36568 9.02002 9.3696 9.01988C9.3304 8.77412 9.35156 8.52157 9.43307 8.28314V7.70536C9.43307 7.66779 9.42733 7.64668 9.42433 7.63821C9.41586 7.63522 9.39475 7.62947 9.35718 7.62947H7.70539C7.66783 7.62947 7.64671 7.63522 7.63824 7.63821ZM10.9331 8.8813V8.67678L11.7871 7.82277C11.8029 7.80696 11.8151 7.80049 11.8214 7.79783C11.8279 7.7951 11.8322 7.79466 11.8349 7.79466C11.8376 7.79466 11.8419 7.7951 11.8484 7.79783C11.8547 7.80049 11.8669 7.80695 11.8827 7.82275L13.0389 8.979C13.0547 8.99481 13.0612 9.00699 13.0639 9.0133C13.0666 9.01978 13.067 9.02411 13.067 9.0268C13.067 9.0295 13.0666 9.03382 13.0639 9.0403C13.0612 9.0466 13.0548 9.05877 13.0389 9.07458L12.1305 9.98304C12.1148 9.99879 12.1025 10.0053 12.0962 10.008C12.0897 10.0107 12.0854 10.0112 12.0826 10.0112C12.0799 10.0112 12.0756 10.0107 12.0691 10.008C12.0627 10.0053 12.0506 9.99886 12.0348 9.98312L10.9331 8.8813ZM10.2167 10.2863L10.8194 10.889C10.7198 11.106 10.6719 11.3446 10.6719 11.5871V13.2389C10.6719 13.5299 10.741 13.8155 10.8856 14.0648C10.741 14.314 10.6719 14.5995 10.6719 14.8906V16.5424C10.6719 16.9607 10.8146 17.3674 11.1187 17.6715C11.1347 17.6875 11.151 17.7031 11.1676 17.7183L10.9216 17.9642C10.5622 18.2617 10.4241 18.6952 10.4241 19.0717C10.4241 19.4693 10.5734 19.893 10.8916 20.2111L12.0478 21.3674C12.671 21.9908 13.6415 21.9907 14.2647 21.3674L14.3647 21.2675C14.4259 21.3698 14.5 21.4658 14.5874 21.5532C14.8916 21.8574 15.2983 22 15.7166 22H17.3683C17.7865 22 18.1933 21.8574 18.4974 21.5532C18.7576 21.2931 18.8996 20.9578 18.9352 20.6046C19.8941 20.3521 20.596 19.4828 20.596 18.442V15.8797C21.4551 15.7908 22 15.0424 22 14.3125V12.6607C22 12.2425 21.8573 11.8358 21.5532 11.5316C21.2491 11.2275 20.8424 11.0848 20.4242 11.0848H19.1853C18.7671 11.0848 18.3603 11.2275 18.0562 11.5316C17.7521 11.8357 17.6094 12.2425 17.6094 12.6607V14.3125C17.6094 14.7307 17.7521 15.1375 18.0562 15.4416C18.3386 15.7241 18.7096 15.8673 19.096 15.8862V18.442C19.096 18.625 19.0318 18.7908 18.9244 18.9186C18.8756 18.5973 18.7363 18.2951 18.4974 18.0562C18.1933 17.7521 17.7865 17.6094 17.3683 17.6094H15.7166C15.3922 17.6094 15.0748 17.6952 14.8068 17.8756L14.5941 17.663C14.8754 17.3901 15.0625 17.006 15.0625 16.5424V14.8906C15.0625 14.594 14.9907 14.3032 14.8405 14.0507C14.9793 13.8217 15.0625 13.548 15.0625 13.2389V11.5871C15.0625 11.1689 14.9198 10.7621 14.6157 10.458C14.4675 10.3098 14.2949 10.1999 14.1086 10.1262C14.7228 9.50267 14.7198 8.5386 14.0996 7.91835L12.9434 6.76211C12.3201 6.13886 11.3497 6.13885 10.7264 6.76209L10.6773 6.81123C10.6227 6.72785 10.5591 6.64912 10.4863 6.57627C10.1822 6.27215 9.77539 6.12947 9.35718 6.12947H7.70539C7.28719 6.12947 6.8804 6.27215 6.57629 6.57627C6.48882 6.66374 6.4147 6.75971 6.35349 6.862L6.25359 6.7621C5.63034 6.13885 4.65994 6.13885 4.03668 6.7621L2.88044 7.91834C2.25719 8.54159 2.25718 9.51199 2.88043 10.1352L2.89578 10.1506C2.73163 10.2234 2.57944 10.3253 2.44678 10.458C2.14267 10.7621 2 11.1689 2 11.5871V13.2389C2 13.5299 2.06912 13.8155 2.2137 14.0648C2.06913 14.314 2 14.5995 2 14.8906V16.5424C2 16.9606 2.14269 17.3674 2.4468 17.6715C2.70903 17.9337 3.04759 18.0759 3.404 18.1101V21.25C3.404 21.6642 3.73979 22 4.154 22C4.56822 22 4.904 21.6642 4.904 21.25V18.1161C5.29044 18.0971 5.66141 17.9539 5.94383 17.6715C6.24794 17.3674 6.39063 16.9606 6.39063 16.5424V14.8906C6.39063 14.5995 6.3215 14.314 6.17693 14.0648C6.32151 13.8155 6.39063 13.5299 6.39063 13.2389V11.5871C6.39063 11.3237 6.33405 11.0649 6.21621 10.8334L6.79563 10.254C7.06365 10.4343 7.38109 10.5201 7.70539 10.5201H9.35718C9.66145 10.5201 9.95968 10.4446 10.2167 10.2863ZM6.1295 8.77821V8.77986C6.12941 8.78258 6.12882 8.78668 6.12635 8.79254C6.12369 8.79885 6.11723 8.81102 6.10142 8.82683L4.94523 9.98305C4.92946 9.9988 4.91725 10.0053 4.91093 10.008C4.90444 10.0107 4.9001 10.0112 4.89738 10.0112C4.89466 10.0112 4.89031 10.0107 4.88382 10.008C4.87751 10.0053 4.86536 9.99887 4.84959 9.98312L3.94111 9.0746C3.9253 9.0588 3.91882 9.04661 3.91617 9.0403C3.91344 9.03382 3.913 9.0295 3.913 9.0268C3.913 9.02411 3.91344 9.01978 3.91617 9.0133C3.91882 9.00699 3.92529 8.99481 3.9411 8.979L5.09734 7.82276C5.11315 7.80695 5.12533 7.80048 5.13164 7.79783C5.13812 7.7951 5.14244 7.79466 5.14514 7.79466C5.14783 7.79466 5.15216 7.7951 5.15864 7.79783C5.16495 7.80048 5.17712 7.80695 5.19293 7.82276L6.10142 8.73124C6.11722 8.74705 6.12369 8.75923 6.12635 8.76553C6.12882 8.77139 6.12941 8.77549 6.1295 8.77821ZM4.81473 13.3148C4.8523 13.3148 4.87342 13.309 4.88189 13.306C4.88488 13.2976 4.89063 13.2764 4.89063 13.2389V11.5871C4.89063 11.5495 4.88488 11.5284 4.88189 11.5199C4.87342 11.5169 4.85231 11.5112 4.81473 11.5112H3.5759C3.53832 11.5112 3.51721 11.5169 3.50875 11.5199C3.50575 11.5284 3.5 11.5495 3.5 11.5871V13.2389C3.5 13.2764 3.50575 13.2976 3.50874 13.306C3.51721 13.309 3.53833 13.3148 3.5759 13.3148H4.81473ZM3.5759 14.8148H4.81473C4.85232 14.8148 4.87344 14.8205 4.8819 14.8235C4.88489 14.832 4.89063 14.8531 4.89063 14.8906V16.5424C4.89063 16.58 4.88489 16.6011 4.8819 16.6095C4.87344 16.6125 4.85232 16.6183 4.81473 16.6183H3.5759C3.53831 16.6183 3.5172 16.6125 3.50873 16.6095C3.50574 16.6011 3.5 16.58 3.5 16.5424V14.8906C3.5 14.8531 3.50574 14.832 3.50873 14.8235C3.5172 14.8205 3.53831 14.8148 3.5759 14.8148ZM13.4866 13.3148C13.4903 13.3148 13.4992 13.3139 13.5113 13.309C13.5234 13.3042 13.5343 13.2971 13.5427 13.2893C13.5506 13.2819 13.5549 13.2752 13.5572 13.2699C13.5592 13.2657 13.5625 13.2567 13.5625 13.2389V11.5871C13.5625 11.5495 13.5567 11.5284 13.5537 11.5199C13.5453 11.5169 13.5242 11.5112 13.4866 11.5112H12.2477C12.2102 11.5112 12.1891 11.5169 12.1806 11.5199C12.1776 11.5284 12.1719 11.5495 12.1719 11.5871V13.2389C12.1719 13.2764 12.1776 13.2976 12.1806 13.306C12.1891 13.309 12.2102 13.3148 12.2477 13.3148H13.4866ZM12.2477 14.8148H13.4866C13.5242 14.8148 13.5453 14.8205 13.5538 14.8235C13.5568 14.832 13.5625 14.8531 13.5625 14.8906V16.5424C13.5625 16.5603 13.5592 16.5692 13.5573 16.5735C13.5549 16.5787 13.5506 16.5855 13.5427 16.5929C13.5343 16.6007 13.5234 16.6077 13.5113 16.6126C13.4992 16.6174 13.4903 16.6183 13.4866 16.6183H12.2477C12.2102 16.6183 12.1891 16.6125 12.1806 16.6096C12.1776 16.6011 12.1719 16.58 12.1719 16.5424V14.8906C12.1719 14.8531 12.1776 14.832 12.1806 14.8235C12.1891 14.8205 12.2102 14.8148 12.2477 14.8148ZM15.6406 19.3593C15.6407 19.3534 15.6407 19.3476 15.6406 19.3417V19.1853C15.6406 19.1477 15.6464 19.1266 15.6494 19.1182C15.6578 19.1152 15.679 19.1094 15.7166 19.1094H17.3683C17.4059 19.1094 17.4271 19.1152 17.4355 19.1182C17.4385 19.1266 17.4442 19.1477 17.4442 19.1853V20.4241C17.4442 20.4617 17.4385 20.4828 17.4355 20.4913C17.427 20.4943 17.4059 20.5 17.3683 20.5H15.7166C15.679 20.5 15.6579 20.4943 15.6494 20.4913C15.6464 20.4828 15.6406 20.4617 15.6406 20.4241V19.3593ZM14.1126 19.3027L12.9563 18.1465C12.9405 18.1307 12.9283 18.1242 12.922 18.1215C12.9155 18.1188 12.9112 18.1184 12.9085 18.1184C12.9058 18.1184 12.9015 18.1188 12.895 18.1215C12.8887 18.1242 12.8765 18.1307 12.8607 18.1465L11.9522 19.0549C11.9432 19.0639 11.934 19.0727 11.9245 19.0813C11.9256 19.0935 11.9285 19.1071 11.9336 19.12C11.9398 19.1358 11.9471 19.1454 11.9522 19.1505L13.1085 20.3068C13.1243 20.3226 13.1365 20.3291 13.1428 20.3317C13.1493 20.3345 13.1536 20.3349 13.1563 20.3349C13.159 20.3349 13.1633 20.3344 13.1698 20.3317C13.1761 20.3291 13.1883 20.3226 13.2041 20.3068L14.1126 19.3983C14.1284 19.3825 14.1348 19.3703 14.1375 19.364C14.1399 19.3584 14.1405 19.3543 14.1406 19.3516V19.3494C14.1405 19.3466 14.1399 19.3426 14.1375 19.337C14.1348 19.3307 14.1284 19.3185 14.1126 19.3027ZM19.1181 12.5936C19.1151 12.602 19.1094 12.6232 19.1094 12.6607V14.3125C19.1094 14.3501 19.1151 14.3712 19.1181 14.3797C19.1266 14.3827 19.1477 14.3884 19.1853 14.3884H20.4242C20.442 14.3884 20.4509 14.3851 20.4551 14.3832C20.4604 14.3808 20.4671 14.3766 20.4746 14.3686C20.4824 14.3602 20.4895 14.3493 20.4943 14.3372C20.4991 14.3251 20.5 14.3162 20.5 14.3125V12.6607C20.5 12.6231 20.4942 12.602 20.4913 12.5936C20.4828 12.5906 20.4617 12.5848 20.4242 12.5848H19.1853C19.1477 12.5848 19.1266 12.5906 19.1181 12.5936Z" fill="#1B1A16"/>
</svg>
