<svg width="24" height="24" viewBox="0 0 24 24" fill="none" xmlns="http://www.w3.org/2000/svg">
<path fill-rule="evenodd" clip-rule="evenodd" d="M5.65869 3.00851L6.464 4.37755C6.76998 4.82263 6.84434 5.30949 6.75411 5.75675C7.05567 5.77143 7.35573 5.86129 7.62963 6.03953L9.25502 7.01476C9.69571 7.2692 9.98311 7.66016 10.1164 8.09526C10.3213 8.02114 10.5404 7.98055 10.7666 7.98055H13.2337C13.4599 7.98055 13.679 8.02113 13.8838 8.09525C14.0171 7.66016 14.3045 7.26921 14.7452 7.01476L16.3706 6.03954C16.6445 5.8613 16.9445 5.77144 17.2461 5.75675C17.1559 5.30951 17.2302 4.82267 17.5362 4.37761L18.3415 3.00857C18.8466 2.13023 20.0471 1.66013 21.0399 2.34226C21.9 2.85686 22.3525 4.04235 21.6775 5.02442L20.8721 6.39355C20.5519 6.95028 19.9523 7.34298 19.3033 7.38217C19.4298 8.14077 19.1218 8.95081 18.3832 9.3773L16.7444 10.3605L16.7306 10.3686C16.2376 10.6503 15.6494 10.7074 15.1273 10.5411C14.8724 11.3438 14.1062 11.9476 13.2337 11.9476H10.7666C9.89403 11.9476 9.12789 11.3438 8.87295 10.5411C8.35083 10.7074 7.76263 10.6503 7.26955 10.3686L7.25578 10.3605L5.61712 9.3773C4.87842 8.95079 4.57042 8.14072 4.69692 7.38212C4.04791 7.34294 3.44829 6.95023 3.12807 6.39345L2.32275 5.0244C1.64761 4.04231 2.10017 2.85681 2.96023 2.34222C3.95303 1.6601 5.15354 2.13017 5.65869 3.00851ZM6.21995 7.49002C6.10085 7.73274 6.19623 7.98062 6.36906 8.07938L6.38282 8.08744L8.0193 9.06932C8.27028 9.20915 8.53282 9.11321 8.63517 8.9341C8.77954 8.68146 8.68351 8.41579 8.50308 8.31268L8.48931 8.30462L6.84461 7.3178C6.8344 7.31167 6.82435 7.30531 6.81445 7.29871C6.72368 7.2382 6.43933 7.21263 6.21995 7.49002ZM15.3651 8.93415C15.4675 9.11325 15.73 9.20913 15.9809 9.06932L17.6175 8.08743L17.6312 8.0794C17.804 7.98063 17.8994 7.73271 17.7803 7.49001C17.5609 7.21265 17.2766 7.23819 17.1858 7.2987C17.1759 7.30531 17.1658 7.31167 17.1556 7.31779L15.5109 8.30462L15.4972 8.31268C15.3168 8.41577 15.2207 8.68146 15.3651 8.93415ZM4.08086 3.53256C3.98802 3.50695 3.89477 3.51763 3.80137 3.58434C3.7808 3.59903 3.7595 3.61268 3.73754 3.62522C3.61781 3.69364 3.54113 3.80059 3.51279 3.90332C3.48718 3.99616 3.49785 4.08942 3.56456 4.18281C3.57743 4.20082 3.58949 4.2194 3.60071 4.23847L4.42784 5.6446C4.49627 5.76434 4.60317 5.84105 4.7059 5.86939C4.79873 5.895 4.89199 5.88433 4.9854 5.81761C5.00597 5.80292 5.02727 5.78927 5.04922 5.77673C5.16895 5.70831 5.24563 5.60136 5.27397 5.49863C5.29958 5.4058 5.28891 5.31254 5.2222 5.21915C5.20933 5.20114 5.19727 5.18256 5.18604 5.16348L4.35891 3.75734C4.29049 3.63761 4.18359 3.5609 4.08086 3.53256ZM19.9193 3.53261C19.8166 3.56094 19.7096 3.63762 19.6412 3.75737L19.6365 3.76555L18.8141 5.16352C18.8029 5.18259 18.7909 5.20115 18.778 5.21916C18.7113 5.31255 18.7006 5.40582 18.7262 5.49867C18.7546 5.60141 18.8313 5.70836 18.951 5.77677C18.9729 5.78932 18.9943 5.80296 19.0148 5.81765C19.1082 5.88437 19.2015 5.89504 19.2943 5.86943C19.397 5.84109 19.504 5.76442 19.5724 5.64467L19.5771 5.63649L20.3995 4.23852C20.4107 4.21945 20.4228 4.20089 20.4356 4.18288C20.5023 4.08949 20.513 3.99622 20.4874 3.90337C20.459 3.80063 20.3824 3.69368 20.2626 3.62527C20.2407 3.61272 20.2194 3.59908 20.1988 3.58438C20.1054 3.51767 20.0121 3.507 19.9193 3.53261ZM10.7666 9.48055C10.523 9.48055 10.2831 9.7204 10.2831 9.96408C10.2831 10.2077 10.523 10.4476 10.7666 10.4476H13.2337C13.4773 10.4476 13.7172 10.2077 13.7172 9.96408C13.7172 9.72039 13.4773 9.48055 13.2337 9.48055H10.7666ZM11.6165 12.8557C11.8529 12.715 12.1473 12.715 12.3837 12.8557L15.8376 14.9116C16.0648 15.0468 16.204 15.2917 16.204 15.5561V19.1744C16.204 19.4388 16.0648 19.6837 15.8376 19.8189L12.3837 21.8748C12.1473 22.0155 11.8529 22.0155 11.6165 21.8748L8.16261 19.8189C7.93543 19.6837 7.79622 19.4388 7.79622 19.1744V15.5561C7.79622 15.2917 7.93542 15.0468 8.16261 14.9116L11.6165 12.8557ZM12.0001 14.373L9.29622 15.9825V18.748L12.0001 20.3575L14.704 18.748V15.9825L12.0001 14.373ZM11.0133 16.1218C11.4275 16.1218 11.7633 16.4576 11.7633 16.8718V17.3954L12.3358 17.6817C12.7063 17.8669 12.8564 18.3174 12.6712 18.6879C12.486 19.0584 12.0355 19.2086 11.665 19.0233L10.6779 18.5298C10.4238 18.4027 10.2633 18.143 10.2633 17.8589V16.8718C10.2633 16.4576 10.5991 16.1218 11.0133 16.1218Z" fill="#1B1A16"/>
</svg>
