<svg width="24" height="24" viewBox="0 0 24 24" fill="none" xmlns="http://www.w3.org/2000/svg">
<path fill-rule="evenodd" clip-rule="evenodd" d="M6.19764 2.21021C6.61185 2.21021 6.94764 2.54599 6.94764 2.96021V3.80111C6.94764 5.12975 5.89671 6.22008 4.71316 6.54286C4.69985 6.54649 4.68645 6.54975 4.67297 6.55264C3.89717 6.71888 3.42846 7.48234 3.63923 8.22006L3.64288 8.23282L4.17074 10.2127C4.25651 10.2035 4.34362 10.1988 4.43182 10.1988C5.77487 10.1988 6.86364 11.2876 6.86364 12.6307C6.86364 12.6796 6.86219 12.7281 6.85934 12.7763C7.02553 12.7405 7.19804 12.7216 7.37496 12.7216C8.41693 12.7216 9.30585 13.3769 9.65203 14.2979C10.3178 13.8343 11.1271 13.5625 11.9999 13.5625C12.8727 13.5625 13.682 13.8343 14.3478 14.2979C14.694 13.3769 15.5829 12.7216 16.6249 12.7216C16.8019 12.7216 16.9744 12.7405 17.1407 12.7764C17.1378 12.7282 17.1364 12.6796 17.1364 12.6307C17.1364 11.2876 18.2251 10.1988 19.5682 10.1988C19.6844 10.1988 19.7987 10.207 19.9106 10.2228L20.4447 8.22003C20.6554 7.48231 20.1868 6.71888 19.411 6.55264C19.3976 6.54975 19.3841 6.54649 19.3708 6.54286C18.1873 6.22008 17.1364 5.12975 17.1364 3.80111V2.96021C17.1364 2.54599 17.4721 2.21021 17.8864 2.21021C18.3006 2.21021 18.6364 2.54599 18.6364 2.96021V3.80111C18.6364 4.31813 19.0914 4.90414 19.749 5.0911C21.3123 5.43965 22.3438 7.01894 21.889 8.62534L21.2812 10.9046C21.7251 11.3451 22 11.9558 22 12.6307C22 13.9737 20.9113 15.0625 19.5682 15.0625C19.3912 15.0625 19.2187 15.0436 19.0524 15.0077C19.0553 15.0559 19.0567 15.1045 19.0567 15.1534C19.0567 16.4965 17.968 17.5852 16.6249 17.5852C16.4486 17.5852 16.2767 17.5664 16.111 17.5308C16.1127 17.579 16.1136 17.6275 16.1136 17.6761C16.1136 19.9479 14.2718 21.7897 11.9999 21.7897C9.72802 21.7897 7.88628 19.9479 7.88628 17.6761C7.88628 17.6275 7.88713 17.579 7.8888 17.5308C7.72316 17.5664 7.55125 17.5852 7.37496 17.5852C6.03191 17.5852 4.94314 16.4965 4.94314 15.1534C4.94314 15.1045 4.94459 15.0559 4.94743 15.0077C4.78125 15.0436 4.60874 15.0625 4.43182 15.0625C3.08877 15.0625 2 13.9737 2 12.6307C2 11.9225 2.3027 11.285 2.78576 10.8406L2.195 8.62529C1.74024 7.01891 2.77174 5.43964 4.33505 5.0911C4.99259 4.90413 5.44764 4.31813 5.44764 3.80111V2.96021C5.44764 2.54599 5.78342 2.21021 6.19764 2.21021ZM11.25 4.64202C11.25 3.29897 12.3387 2.21021 13.6818 2.21021C15.0249 2.21021 16.1136 3.29897 16.1136 4.64202C16.1136 5.98507 15.0249 7.07383 13.6818 7.07383C12.3387 7.07383 11.25 5.98507 11.25 4.64202ZM13.6818 3.71021C13.1671 3.71021 12.75 4.12739 12.75 4.64202C12.75 5.15665 13.1671 5.57383 13.6818 5.57383C14.1964 5.57383 14.6136 5.15665 14.6136 4.64202C14.6136 4.12739 14.1964 3.71021 13.6818 3.71021ZM7.88628 9.26702C7.88628 7.92396 8.97505 6.8352 10.3181 6.8352C11.6612 6.8352 12.7499 7.92397 12.7499 9.26702C12.7499 10.6101 11.6612 11.6988 10.3181 11.6988C8.97504 11.6988 7.88628 10.6101 7.88628 9.26702ZM10.3181 8.3352C9.80347 8.3352 9.38628 8.75239 9.38628 9.26702C9.38628 9.78164 9.80347 10.1988 10.3181 10.1988C10.8327 10.1988 11.2499 9.78165 11.2499 9.26702C11.2499 8.75239 10.8327 8.3352 10.3181 8.3352ZM4.43182 11.6988C3.91718 11.6988 3.5 12.116 3.5 12.6307C3.5 13.1453 3.91718 13.5625 4.43182 13.5625C4.94646 13.5625 5.36364 13.1453 5.36364 12.6307C5.36364 12.116 4.94646 11.6988 4.43182 11.6988ZM19.5682 11.6988C19.0535 11.6988 18.6364 12.116 18.6364 12.6307C18.6364 13.1453 19.0535 13.5625 19.5682 13.5625C20.0828 13.5625 20.5 13.1453 20.5 12.6307C20.5 12.116 20.0828 11.6988 19.5682 11.6988ZM7.37496 14.2216C6.86032 14.2216 6.44314 14.6387 6.44314 15.1534C6.44314 15.668 6.86032 16.0852 7.37496 16.0852C7.8896 16.0852 8.30678 15.668 8.30678 15.1534C8.30678 14.6387 7.8896 14.2216 7.37496 14.2216ZM16.6249 14.2216C16.1103 14.2216 15.6931 14.6387 15.6931 15.1534C15.6931 15.668 16.1103 16.0852 16.6249 16.0852C17.1396 16.0852 17.5567 15.668 17.5567 15.1534C17.5567 14.6387 17.1396 14.2216 16.6249 14.2216ZM11.9999 15.0625C10.5564 15.0625 9.38628 16.2326 9.38628 17.6761C9.38628 19.1195 10.5564 20.2897 11.9999 20.2897C13.4434 20.2897 14.6136 19.1195 14.6136 17.6761C14.6136 16.2326 13.4434 15.0625 11.9999 15.0625ZM10.6981 17.6761C10.6981 17.0293 11.2226 16.5056 11.8686 16.5056C12.515 16.5056 13.0391 17.0297 13.0391 17.6761C13.0391 18.3225 12.515 18.8466 11.8686 18.8466C11.2225 18.8466 10.6981 18.3227 10.6981 17.6761Z" fill="#1B1A16"/>
</svg>
