<svg width="24" height="24" viewBox="0 0 24 24" fill="none" xmlns="http://www.w3.org/2000/svg">
<path d="M8.004 14.8156C7.871 14.5886 7.695 14.3966 7.481 14.2416C7.266 14.0866 7.027 13.9797 6.777 13.9267C6.526 13.8707 6.265 13.8677 5.998 13.9177C5.986 13.9207 5.976 13.9256 5.963 13.9286V12.6096C5.963 12.0886 5.752 11.5766 5.383 11.2086C4.635 10.4586 3.326 10.4586 2.579 11.2086C2.211 11.5756 2 12.0877 2 12.6087V16.8586C2.004 17.8656 2.355 18.8517 2.998 19.6467L4.74 21.7167C4.888 21.8937 5.1 21.9847 5.314 21.9847C5.484 21.9847 5.656 21.9267 5.796 21.8087C6.113 21.5417 6.153 21.0687 5.887 20.7517L4.155 18.6927C3.736 18.1717 3.503 17.5186 3.5 16.8546V12.6076C3.5 12.4806 3.551 12.3567 3.642 12.2667C3.823 12.0857 4.142 12.0857 4.324 12.2667C4.414 12.3567 4.465 12.4806 4.465 12.6076V15.6377C4.464 15.6587 4.466 15.6786 4.465 15.6996V15.7787C4.465 15.7826 4.467 15.7846 4.467 15.7886C4.469 16.0876 4.535 16.3917 4.687 16.6897L5.796 18.5387C6.009 18.8937 6.471 19.0097 6.825 18.7967C7.18 18.5827 7.296 18.1227 7.082 17.7676L6 15.9686C5.956 15.8816 5.946 15.7816 5.971 15.6876C5.995 15.5936 6.053 15.5127 6.143 15.4537C6.188 15.4227 6.24 15.4007 6.288 15.3917C6.345 15.3787 6.4 15.3797 6.459 15.3937C6.509 15.4046 6.56 15.4276 6.604 15.4586C6.648 15.4906 6.686 15.5317 6.736 15.6137L7.674 17.0216C8 17.5046 8.172 18.0697 8.171 18.6557V21.2357C8.171 21.6497 8.507 21.9857 8.921 21.9857C9.335 21.9857 9.671 21.6497 9.671 21.2357V18.6577C9.673 17.7717 9.413 16.9177 8.921 16.1867L8.004 14.8156Z" fill="#1B1A16"/>
<path d="M21.42 11.2086C20.684 10.4696 19.35 10.4706 18.617 11.2077C18.241 11.5816 18.035 12.0796 18.035 12.6096V13.9297C18.019 13.9257 18.007 13.9187 17.991 13.9157C17.735 13.8687 17.474 13.8716 17.226 13.9256C16.974 13.9806 16.729 14.0897 16.516 14.2427C16.304 14.3967 16.128 14.5897 16.017 14.7807L15.082 16.1827C14.588 16.9157 14.328 17.7717 14.329 18.6547V21.2347C14.329 21.6487 14.665 21.9847 15.079 21.9847C15.493 21.9847 15.829 21.6487 15.829 21.2347V18.6537C15.828 18.0697 16 17.5056 16.328 17.0176L17.286 15.5777C17.314 15.5307 17.352 15.4896 17.395 15.4577C17.44 15.4257 17.49 15.4026 17.545 15.3917C17.596 15.3777 17.652 15.3786 17.702 15.3886C17.759 15.4007 17.81 15.4216 17.865 15.4597C17.945 15.5127 18.003 15.5936 18.027 15.6887C18.032 15.7077 18.031 15.7247 18.033 15.7437V15.7796C18.033 15.7947 18.041 15.8067 18.042 15.8217C18.04 15.8637 18.033 15.8996 18.024 15.9197L16.916 17.7686C16.703 18.1236 16.818 18.5847 17.174 18.7977C17.53 19.0097 17.99 18.8947 18.203 18.5397L19.338 16.6436C19.496 16.3296 19.562 15.9806 19.533 15.6347V12.6096C19.533 12.4826 19.585 12.3596 19.676 12.2676C19.856 12.0876 20.173 12.0847 20.358 12.2687C20.447 12.3587 20.499 12.4817 20.499 12.6087V16.8516C20.496 17.5206 20.263 18.1737 19.853 18.6797L18.104 20.7497C17.837 21.0657 17.876 21.5397 18.193 21.8077C18.335 21.9257 18.506 21.9847 18.677 21.9847C18.89 21.9847 19.102 21.8937 19.25 21.7187L21.009 19.6357C21.642 18.8537 21.993 17.8667 21.998 16.8557V12.6087C22 12.0787 21.794 11.5806 21.42 11.2086Z" fill="#1B1A16"/>
<path d="M15.502 11.3277C15.502 11.0206 15.408 10.7276 15.244 10.4997L14.115 8.81065C15.427 8.51565 16.67 7.95465 17.758 7.14765C19.181 6.09365 20.286 4.67165 20.958 3.03565C21.114 2.65265 20.932 2.21465 20.548 2.05665C20.166 1.89865 19.727 2.08265 19.569 2.46565C19.003 3.84965 18.067 5.05165 16.865 5.94265C15.785 6.74265 14.521 7.24565 13.194 7.44365C13.066 7.26065 12.902 7.10365 12.711 6.99665C12.501 6.87765 12.261 6.81165 11.997 6.80565C11.756 6.80565 11.516 6.86565 11.307 6.97765C11.1 7.08765 10.924 7.24965 10.792 7.44065C9.47 7.24065 8.21 6.73865 7.13 5.94065C5.927 5.05065 4.99 3.84865 4.42 2.46465C4.264 2.08265 3.827 1.89865 3.442 2.05765C3.059 2.21465 2.876 2.65365 3.034 3.03565C3.707 4.67265 4.816 6.09465 6.239 7.14765C7.326 7.95165 8.566 8.51265 9.876 8.80865L8.747 10.4997C8.583 10.7457 8.497 11.0316 8.497 11.3266C8.497 11.6216 8.583 11.9076 8.748 12.1537L10.776 15.1917C10.908 15.3907 11.09 15.5567 11.308 15.6747C11.519 15.7867 11.759 15.8467 12.001 15.8467C12.003 15.8467 12.005 15.8467 12.007 15.8467C12.245 15.8447 12.483 15.7846 12.697 15.6697C12.907 15.5567 13.088 15.3937 13.224 15.1906L15.232 12.1727C15.408 11.9267 15.502 11.6347 15.502 11.3277ZM12.001 14.3277L9.995 11.3327L11.616 8.85965C11.757 8.75665 11.855 8.60865 11.897 8.43065L11.976 8.30965L12.138 8.55065C12.18 8.64965 12.236 8.73965 12.313 8.81165L13.997 11.3217L12.001 14.3277Z" fill="#1B1A16"/>
</svg>
