<svg width="24" height="24" viewBox="0 0 24 24" fill="none" xmlns="http://www.w3.org/2000/svg">
<path fill-rule="evenodd" clip-rule="evenodd" d="M5.95965 5.73286C4.65941 7.06183 3.5 9.04066 3.5 11.6917C3.5 13.946 4.39553 16.108 5.98959 17.7021C7.58365 19.2961 9.74566 20.1917 12 20.1917C14.2543 20.1917 16.4164 19.2961 18.0104 17.7021C19.6045 16.108 20.5 13.946 20.5 11.6917C20.5 9.11164 19.3816 7.13015 18.1008 5.78196C17.4593 5.10662 16.7848 4.59928 16.2083 4.26501C15.92 4.09783 15.6644 3.97868 15.4573 3.90321C15.2381 3.8233 15.1168 3.80835 15.0833 3.80835C14.9551 3.80835 14.8322 3.85927 14.7416 3.94991C14.6509 4.04056 14.6 4.16349 14.6 4.29168L14.6 4.29308C14.6 4.3253 14.5998 4.39777 14.8114 4.57377C14.9202 4.66425 15.0576 4.75894 15.2353 4.87489C15.2791 4.90346 15.3261 4.93379 15.3753 4.96552C15.513 5.05438 15.6679 5.15429 15.8177 5.25774C16.2333 5.54458 16.7086 5.92246 17.075 6.47012C17.4501 7.03095 17.6833 7.7276 17.6833 8.60834C17.6833 11.2268 15.3085 13.0583 12 13.0583C8.69147 13.0583 6.31667 11.2268 6.31667 8.60834C6.31667 7.70052 6.54626 6.99639 6.93113 6.43862C7.30671 5.89431 7.79439 5.54303 8.20983 5.28246C8.37509 5.17881 8.51578 5.09578 8.63912 5.02299C8.86542 4.88944 9.03329 4.79036 9.18734 4.66165C9.36356 4.51441 9.4 4.42216 9.4 4.29168C9.4 4.16349 9.34908 4.04056 9.25844 3.94991C9.16779 3.85927 9.04486 3.80835 8.91667 3.80835C8.9174 3.80835 8.91776 3.80835 8.91776 3.80836C8.91777 3.80848 8.89219 3.80971 8.83525 3.82279C8.77509 3.83661 8.6953 3.86008 8.59653 3.89635C8.39874 3.969 8.14854 4.08427 7.86295 4.24672C7.29207 4.57146 6.61149 5.06662 5.95965 5.73286ZM8.07939 2.48832C8.35141 2.38841 8.64837 2.30835 8.91667 2.30835C9.44268 2.30835 9.94715 2.51731 10.3191 2.88925C10.691 3.2612 10.9 3.76567 10.9 4.29168C10.9 4.99781 10.551 5.47691 10.1491 5.81272C9.89837 6.02224 9.56082 6.22223 9.27959 6.38884C9.17936 6.44823 9.08628 6.50337 9.00684 6.5532C8.65145 6.7761 8.36829 6.99697 8.16574 7.29052C7.97249 7.57059 7.81667 7.96998 7.81667 8.60834C7.81667 10.0845 9.16653 11.5583 12 11.5583C14.8335 11.5583 16.1833 10.0845 16.1833 8.60834C16.1833 8.01156 16.0312 7.60756 15.8282 7.3041C15.6164 6.98748 15.3209 6.73744 14.9656 6.4922C14.8364 6.40299 14.7117 6.32257 14.5806 6.23795C14.527 6.20338 14.4723 6.16811 14.4158 6.13125C14.2323 6.01151 14.0324 5.87692 13.8521 5.72693C13.4887 5.42459 13.1 4.97098 13.1 4.29168C13.1 3.76567 13.309 3.2612 13.6809 2.88925C14.0529 2.51731 14.5573 2.30835 15.0833 2.30835C15.3685 2.30835 15.6788 2.38739 15.9711 2.49393C16.2755 2.60492 16.6112 2.7647 16.9608 2.96739C17.66 3.37287 18.4475 3.96905 19.1883 4.74884C20.6723 6.3109 22 8.64607 22 11.6917C22 14.3438 20.9464 16.8874 19.0711 18.7627C17.1957 20.6381 14.6522 21.6917 12 21.6917C9.34784 21.6917 6.8043 20.6381 4.92893 18.7627C3.05357 16.8874 2 14.3438 2 11.6917C2 8.56494 3.37756 6.22711 4.88747 4.68385C5.6407 3.91398 6.43349 3.33414 7.1213 2.9429C7.46506 2.74736 7.79054 2.59441 8.07939 2.48832ZM9.76307 13.4464C10.1478 13.3699 10.5466 13.4092 10.909 13.5593C11.2714 13.7094 11.5811 13.9636 11.7991 14.2898C11.8734 14.401 11.936 14.519 11.9861 14.6417C11.9954 14.6416 12.0046 14.6416 12.0139 14.6417C12.1127 14.3998 12.2593 14.1775 12.4476 13.9892C12.8195 13.6173 13.324 13.4083 13.85 13.4083C14.376 13.4083 14.8805 13.6173 15.2524 13.9892C15.6244 14.3612 15.8333 14.8656 15.8333 15.3916C15.8333 15.9177 15.6244 16.4221 15.2524 16.7941C15.0641 16.9824 14.8418 17.1289 14.5999 17.2277C14.5999 17.2307 14.6 17.2336 14.6 17.2365L14.6 17.2416C14.6 17.9312 14.3261 18.5925 13.8385 19.0801C13.3509 19.5677 12.6896 19.8416 12 19.8416C11.3104 19.8416 10.6491 19.5677 10.1615 19.0801C9.67393 18.5925 9.4 17.9312 9.4 17.2416V17.2365H9.40002C9.40004 17.2336 9.40006 17.2307 9.40009 17.2277C9.27738 17.1776 9.15941 17.1151 9.04812 17.0407C8.72196 16.8228 8.46775 16.513 8.31764 16.1506C8.16753 15.7882 8.12825 15.3894 8.20478 15.0047C8.2813 14.62 8.4702 14.2666 8.74757 13.9892C9.02495 13.7118 9.37834 13.5229 9.76307 13.4464ZM10.9 17.2443C10.9007 17.5351 11.0165 17.8138 11.2222 18.0195C11.4285 18.2257 11.7083 18.3416 12 18.3416C12.2917 18.3416 12.5715 18.2257 12.7778 18.0195C12.9835 17.8138 13.0993 17.535 13.1 17.2442C13.0988 17.1157 13.0747 16.9885 13.0287 16.8685C12.9284 16.6064 12.9827 16.3102 13.1696 16.1009C13.3543 15.894 13.6378 15.8061 13.9067 15.8716C14.014 15.859 14.1146 15.8106 14.1918 15.7334C14.2824 15.6428 14.3333 15.5198 14.3333 15.3916C14.3333 15.2635 14.2824 15.1405 14.1918 15.0499C14.1011 14.9592 13.9782 14.9083 13.85 14.9083C13.7218 14.9083 13.5989 14.9592 13.5082 15.0499C13.4311 15.127 13.3827 15.2276 13.37 15.3349C13.4354 15.6032 13.348 15.8865 13.1416 16.0713C12.9308 16.26 12.6318 16.314 12.3684 16.2111C12.1315 16.1185 11.8685 16.1185 11.6316 16.2111C11.3682 16.314 11.0692 16.26 10.8584 16.0713C10.652 15.8865 10.5646 15.6032 10.63 15.3349C10.6211 15.2594 10.5944 15.1868 10.5519 15.1231C10.4988 15.0436 10.4233 14.9817 10.335 14.9451C10.2466 14.9085 10.1495 14.8989 10.0557 14.9176C9.96195 14.9362 9.87583 14.9823 9.80823 15.0499C9.74064 15.1175 9.6946 15.2036 9.67595 15.2973C9.6573 15.3911 9.66688 15.4883 9.70346 15.5766C9.74004 15.6649 9.80199 15.7404 9.88147 15.7935C9.94514 15.8361 10.0178 15.8627 10.0933 15.8716C10.3622 15.8061 10.6457 15.894 10.8304 16.1009C11.0173 16.3102 11.0716 16.6064 10.9713 16.8685C10.9253 16.9885 10.9012 17.1158 10.9 17.2443Z" fill="#1B1A16"/>
</svg>
