<svg width="24" height="24" viewBox="0 0 24 24" fill="none" xmlns="http://www.w3.org/2000/svg">
<path fill-rule="evenodd" clip-rule="evenodd" d="M5.01574 6.59866C6.83123 5.2673 9.30298 4.46667 12 4.46667C14.697 4.46667 17.1688 5.2673 18.9843 6.59866C20.7993 7.92969 22 9.8305 22 12C22 14.1695 20.7993 16.0703 18.9843 17.4013C17.1688 18.7327 14.697 19.5333 12 19.5333C9.30298 19.5333 6.83123 18.7327 5.01574 17.4013C3.2007 16.0703 2 14.1695 2 12C2 9.8305 3.2007 7.92969 5.01574 6.59866ZM5.90279 7.80827C4.36999 8.93231 3.5 10.4232 3.5 12C3.5 13.5768 4.36999 15.0676 5.90279 16.1917C7.43514 17.3154 9.58839 18.0333 12 18.0333C14.4116 18.0333 16.5649 17.3154 18.0972 16.1917C19.63 15.0676 20.5 13.5768 20.5 12C20.5 10.4232 19.63 8.93231 18.0972 7.80827C16.5649 6.68454 14.4116 5.96667 12 5.96667C9.58839 5.96667 7.43514 6.68454 5.90279 7.80827ZM8.57555 7.75459C9.48933 7.23243 10.7016 6.9333 12 6.9333C13.2984 6.9333 14.5107 7.23243 15.4244 7.75459C16.317 8.26462 17.0667 9.08352 17.0667 10.15C17.0667 11.2164 16.317 12.0353 15.4244 12.5454C14.5107 13.0675 13.2983 13.3666 12 13.3666C10.7017 13.3666 9.48934 13.0675 8.57556 12.5454C7.68299 12.0353 6.93333 11.2164 6.93333 10.15C6.93333 9.08352 7.68299 8.26462 8.57555 7.75459ZM9.31976 9.05695C8.65 9.43968 8.43333 9.85411 8.43333 10.15C8.43333 10.4458 8.65 10.8603 9.31976 11.243C9.9683 11.6136 10.9143 11.8666 12 11.8666C13.0857 11.8666 14.0317 11.6136 14.6802 11.243C15.35 10.8603 15.5667 10.4458 15.5667 10.15C15.5667 9.85411 15.35 9.43967 14.6802 9.05695C14.0317 8.68636 13.0857 8.4333 12 8.4333C10.9143 8.4333 9.96831 8.68636 9.31976 9.05695ZM7.24167 14.4666C7.24167 13.8821 7.71549 13.4083 8.3 13.4083C8.88452 13.4083 9.35833 13.8821 9.35833 14.4666C9.35833 15.0511 8.88452 15.5249 8.3 15.5249C7.71549 15.5249 7.24167 15.0511 7.24167 14.4666ZM14.6417 14.4666C14.6417 13.8821 15.1155 13.4083 15.7 13.4083C16.2844 13.4083 16.7584 13.882 16.7584 14.4666C16.7584 15.0512 16.2844 15.5249 15.7 15.5249C15.1155 15.5249 14.6417 15.0511 14.6417 14.4666ZM12 14.3333C12.4142 14.3333 12.75 14.6691 12.75 15.0833V16.3166C12.75 16.7308 12.4142 17.0666 12 17.0666C11.5858 17.0666 11.25 16.7308 11.25 16.3166V15.0833C11.25 14.6691 11.5858 14.3333 12 14.3333Z" fill="#1B1A16"/>
</svg>
