<svg width="24" height="24" viewBox="0 0 24 24" fill="none" xmlns="http://www.w3.org/2000/svg">
<path fill-rule="evenodd" clip-rule="evenodd" d="M2.28793 2.1593C2.61418 1.90409 3.08555 1.96168 3.34076 2.28793L10.3333 11.2268C10.3725 11.1754 10.4156 11.1261 10.4625 11.0792C10.7659 10.7757 11.1718 10.6334 11.5889 10.6334H12.4111C12.8282 10.6334 13.2341 10.7757 13.5376 11.0792C13.5845 11.1261 13.6275 11.1754 13.6668 11.2269L20.6594 2.28795C20.9146 1.9617 21.3859 1.90411 21.7122 2.15932C22.0384 2.41454 22.096 2.8859 21.8408 3.21215L13.9834 13.2568V13.6034C15.4128 14.3253 16.45 15.846 16.45 17.5501C16.45 20.0198 14.4698 22.0001 12 22.0001C9.53026 22.0001 7.55003 20.0198 7.55003 17.5501C7.55003 15.846 8.58729 14.3253 10.0167 13.6034V13.2567L2.1593 3.21214C1.90409 2.88588 1.96168 2.41452 2.28793 2.1593ZM11.5247 12.1414C11.5217 12.1503 11.5167 12.1707 11.5167 12.2056V14.0967C11.5167 14.4147 11.3162 14.6981 11.0163 14.804C9.902 15.1972 9.05003 16.3229 9.05003 17.5501C9.05003 19.1914 10.3587 20.5001 12 20.5001C13.6414 20.5001 14.95 19.1914 14.95 17.5501C14.95 16.3229 14.0981 15.1972 12.9837 14.804C12.6839 14.6981 12.4834 14.4147 12.4834 14.0967V12.2056C12.4834 12.1707 12.4783 12.1503 12.4754 12.1414C12.4664 12.1384 12.4461 12.1334 12.4111 12.1334H11.5889C11.554 12.1334 11.5336 12.1384 11.5247 12.1414ZM10.0167 17.6323C10.0167 16.5369 10.9047 15.649 12 15.649C13.0954 15.649 13.9834 16.5369 13.9834 17.6323C13.9834 18.7276 13.0954 19.6156 12 19.6156C10.9047 19.6156 10.0167 18.7276 10.0167 17.6323ZM12 17.149C11.7331 17.149 11.5167 17.3654 11.5167 17.6323C11.5167 17.8992 11.7331 18.1156 12 18.1156C12.2669 18.1156 12.4834 17.8992 12.4834 17.6323C12.4834 17.3654 12.2669 17.149 12 17.149Z" fill="#1B1A16"/>
</svg>
