<svg width="24" height="24" viewBox="0 0 24 24" fill="none" xmlns="http://www.w3.org/2000/svg">
<path fill-rule="evenodd" clip-rule="evenodd" d="M18.5 4.3757C18.5 3.76282 17.9537 3.29414 17.3479 3.38733L12 4.21009L6.65206 3.38733C6.0463 3.29414 5.5 3.76282 5.5 4.3757V4.88554L3.6519 4.60152C3.04619 4.50843 2.5 4.9771 2.5 5.58992V18.5664C2.5 19.06 2.86022 19.4798 3.34814 19.5548L10.18 20.6045C10.24 20.6145 10.31 20.6145 10.37 20.6145C10.65 20.6145 10.92 20.5245 11.14 20.3445L12 19.6545L12.88 20.3545C13.1 20.5245 13.37 20.6245 13.65 20.6245C13.71 20.6245 13.78 20.6245 13.84 20.6145L20.6535 19.556C21.1407 19.4803 21.5 19.0609 21.5 18.5678V5.58992C21.5 4.9771 20.9538 4.50843 20.3481 4.60152L18.5 4.88554V4.3757ZM17 4.96009V15.9201L12.75 16.5746V5.61051L17 4.96009ZM7 15.9201L11.25 16.5746V5.61051L7 4.96009V15.9201ZM18.5 6.40615V16.3522C18.5 16.8457 18.1399 17.2655 17.6521 17.3405L12.2373 18.1736C12.4853 18.2138 12.7249 18.3174 12.93 18.4845L13.72 19.1145L20 18.1445V6.17449L18.5 6.40615ZM11.7626 18.1736C11.5142 18.2138 11.2727 18.3174 11.06 18.4845L10.29 19.1045L4 18.1345V6.17449L5.5 6.40615V16.3522C5.5 16.8457 5.86011 17.2655 6.34794 17.3405L11.7626 18.1736Z" fill="#1B1A16"/>
</svg>
