<svg width="24" height="24" viewBox="0 0 24 24" fill="none" xmlns="http://www.w3.org/2000/svg">
<path d="M21.54 2.46C21.243 2.164 20.849 2 20.428 2H3.572C3.152 2 2.757 2.164 2.46 2.46C2.163 2.756 2 3.152 2 3.572V20.428C2 20.849 2.164 21.243 2.462 21.542C2.759 21.837 3.154 22 3.572 22H20.427C20.846 22 21.24 21.837 21.541 21.538C21.837 21.241 22 20.847 22 20.428V3.572C22 3.154 21.837 2.759 21.54 2.46ZM3.5 3.572L3.572 3.5H20.427L20.5 3.572V11.25H3.5V3.572ZM20.481 20.478C20.466 20.493 20.447 20.5 20.427 20.5H3.572L3.5 20.428V12.75H20.498L20.481 20.478Z" fill="#1B1A16"/>
<path d="M15.289 4.467H8.711C8.071 4.467 7.55 4.988 7.55 5.628V9.122C7.55 9.762 8.071 10.283 8.711 10.283H15.289C15.93 10.283 16.45 9.762 16.45 9.122V5.628C16.45 4.988 15.93 4.467 15.289 4.467ZM14.95 8.783H9.05V5.967H14.95V8.783Z" fill="#1B1A16"/>
<path d="M8.711 19.533H15.289C15.93 19.533 16.45 19.012 16.45 18.372V14.878C16.45 14.237 15.929 13.717 15.289 13.717H8.711C8.071 13.717 7.55 14.238 7.55 14.878V18.372C7.55 19.013 8.071 19.533 8.711 19.533ZM9.05 15.217H14.95V18.033H9.05V15.217Z" fill="#1B1A16"/>
<path d="M4.6 16.45H5.833C6.247 16.45 6.583 16.114 6.583 15.7C6.583 15.286 6.247 14.95 5.833 14.95H4.6C4.186 14.95 3.85 15.286 3.85 15.7C3.85 16.114 4.186 16.45 4.6 16.45Z" fill="#1B1A16"/>
<path d="M4.6 18.916H5.833C6.247 18.916 6.583 18.58 6.583 18.166C6.583 17.752 6.247 17.416 5.833 17.416H4.6C4.186 17.416 3.85 17.752 3.85 18.166C3.85 18.58 4.186 18.916 4.6 18.916Z" fill="#1B1A16"/>
<path d="M18.475 16.45C19.0593 16.45 19.533 15.9763 19.533 15.392C19.533 14.8077 19.0593 14.334 18.475 14.334C17.8907 14.334 17.417 14.8077 17.417 15.392C17.417 15.9763 17.8907 16.45 18.475 16.45Z" fill="#1B1A16"/>
<path d="M18.475 19.534C19.0599 19.534 19.534 19.0599 19.534 18.475C19.534 17.8901 19.0599 17.416 18.475 17.416C17.8901 17.416 17.416 17.8901 17.416 18.475C17.416 19.0599 17.8901 19.534 18.475 19.534Z" fill="#1B1A16"/>
</svg>
