<svg width="24" height="24" viewBox="0 0 24 24" fill="none" xmlns="http://www.w3.org/2000/svg">
<path d="M19.073 2.46C18.776 2.164 18.382 2 17.961 2H6.03904C5.61904 2 5.22404 2.164 4.92704 2.46C4.63004 2.756 4.46704 3.152 4.46704 3.572V20.427C4.46704 20.848 4.63104 21.242 4.92904 21.541C5.22604 21.837 5.62104 22 6.03904 22H16.316C17.175 22 17.983 21.665 18.59 21.058C19.197 20.451 19.532 19.643 19.532 18.784V3.572C19.533 3.152 19.37 2.757 19.073 2.46ZM18.033 18.783C18.033 19.241 17.854 19.673 17.53 19.997C17.206 20.321 16.774 20.5 16.316 20.5H6.03904L5.96704 20.428V3.572L6.03904 3.5H17.961L18.033 3.572V18.783Z" fill="#1B1A16"/>
<path d="M15.906 4.467H8.09504C7.45504 4.467 6.93404 4.988 6.93404 5.628V10.972C6.93404 11.612 7.45504 12.133 8.09504 12.133H15.907C16.547 12.133 17.067 11.612 17.067 10.972V5.628C17.066 4.988 16.546 4.467 15.906 4.467ZM8.43404 10.633V5.967H15.567V10.633H8.43404Z" fill="#1B1A16"/>
<path d="M10.15 14.334H9.66704V13.85C9.66704 13.436 9.33104 13.1 8.91704 13.1C8.50304 13.1 8.16704 13.436 8.16704 13.85V14.334H7.68404C7.27004 14.334 6.93404 14.67 6.93404 15.084C6.93404 15.498 7.27004 15.834 7.68404 15.834H8.16704V16.316C8.16704 16.73 8.50304 17.066 8.91704 17.066C9.33104 17.066 9.66704 16.73 9.66704 16.316V15.834H10.15C10.564 15.834 10.9 15.498 10.9 15.084C10.9 14.67 10.564 14.334 10.15 14.334Z" fill="#1B1A16"/>
<path d="M15.7 15.526C16.2849 15.526 16.759 15.0519 16.759 14.467C16.759 13.8821 16.2849 13.408 15.7 13.408C15.1152 13.408 14.641 13.8821 14.641 14.467C14.641 15.0519 15.1152 15.526 15.7 15.526Z" fill="#1B1A16"/>
<path d="M13.233 17.375C13.8179 17.375 14.292 16.9009 14.292 16.316C14.292 15.7311 13.8179 15.257 13.233 15.257C12.6482 15.257 12.174 15.7311 12.174 16.316C12.174 16.9009 12.6482 17.375 13.233 17.375Z" fill="#1B1A16"/>
</svg>
