<svg width="24" height="24" viewBox="0 0 24 24" fill="none" xmlns="http://www.w3.org/2000/svg">
<path fill-rule="evenodd" clip-rule="evenodd" d="M6.45 3.5C5.66762 3.5 4.91727 3.81081 4.36404 4.36404C3.81081 4.91727 3.5 5.66762 3.5 6.45V17.55C3.5 18.3324 3.81081 19.0828 4.36403 19.636C4.91726 20.1892 5.66761 20.5 6.45 20.5H11.25V3.5H6.45ZM12.75 3.5V20.5H17.55C18.3324 20.5 19.0828 20.1892 19.636 19.636C20.1892 19.0828 20.5 18.3324 20.5 17.55V6.45C20.5 5.66761 20.1892 4.91726 19.636 4.36403C19.0828 3.81081 18.3324 3.5 17.55 3.5H12.75ZM3.30338 3.30338C4.13791 2.46884 5.26979 2 6.45 2H17.55C18.7302 2 19.8621 2.46884 20.6966 3.30338C21.5312 4.13791 22 5.26979 22 6.45V17.55C22 18.7302 21.5312 19.8621 20.6966 20.6966C19.8621 21.5312 18.7302 22 17.55 22H6.45C5.26979 22 4.13791 21.5312 3.30338 20.6966C2.46884 19.8621 2 18.7302 2 17.55V6.45C2 5.26979 2.46884 4.13791 3.30338 3.30338ZM4.98055 7.68333C4.98055 6.36092 6.05258 5.28889 7.375 5.28889C8.69741 5.28889 9.76944 6.36092 9.76944 7.68333C9.76944 9.00575 8.69741 10.0778 7.375 10.0778C6.05258 10.0778 4.98055 9.00575 4.98055 7.68333ZM7.375 6.78889C6.88101 6.78889 6.48055 7.18934 6.48055 7.68333C6.48055 8.17732 6.88101 8.57778 7.375 8.57778C7.86899 8.57778 8.26944 8.17732 8.26944 7.68333C8.26944 7.18934 7.86899 6.78889 7.375 6.78889ZM15.565 6.75833C15.565 6.17382 16.0389 5.7 16.6234 5.7C17.2078 5.7 17.6817 6.17382 17.6817 6.75833C17.6817 7.34285 17.2078 7.81667 16.6234 7.81667C16.0389 7.81667 15.565 7.34285 15.565 6.75833ZM13.6139 8.60833C13.6139 8.02382 14.0877 7.55 14.6722 7.55C15.2567 7.55 15.7306 8.02382 15.7306 8.60833C15.7306 9.19285 15.2567 9.66667 14.6722 9.66667C14.0877 9.66667 13.6139 9.19285 13.6139 8.60833ZM17.5178 8.60833C17.5178 8.02382 17.9917 7.55 18.5761 7.55C19.1606 7.55 19.6345 8.02382 19.6345 8.60833C19.6345 9.19285 19.1606 9.66667 18.5761 9.66667C17.9917 9.66667 17.5178 9.19285 17.5178 8.60833ZM15.5667 10.4583C15.5667 9.87382 16.0405 9.4 16.625 9.4C17.2095 9.4 17.6833 9.87382 17.6833 10.4583C17.6833 11.0428 17.2095 11.5167 16.625 11.5167C16.0405 11.5167 15.5667 11.0428 15.5667 10.4583ZM6.31585 13.5417C6.31585 12.9572 6.78966 12.4833 7.37418 12.4833C7.9587 12.4833 8.43251 12.9572 8.43251 13.5417C8.43251 14.1261 7.9587 14.6 7.37418 14.6C6.78966 14.6 6.31585 14.1262 6.31585 13.5417ZM14.2306 16.3167C14.2306 14.9942 15.3026 13.9222 16.625 13.9222C17.9474 13.9222 19.0194 14.9942 19.0194 16.3167C19.0194 17.6391 17.9474 18.7111 16.625 18.7111C15.3026 18.7111 14.2306 17.6391 14.2306 16.3167ZM16.625 15.4222C16.131 15.4222 15.7306 15.8227 15.7306 16.3167C15.7306 16.8107 16.131 17.2111 16.625 17.2111C17.119 17.2111 17.5194 16.8107 17.5194 16.3167C17.5194 15.8227 17.119 15.4222 16.625 15.4222ZM4.36307 15.3917C4.36307 14.8072 4.83688 14.3333 5.4214 14.3333C6.00592 14.3333 6.47973 14.8072 6.47973 15.3917C6.47973 15.9761 6.00592 16.45 5.4214 16.45C4.83688 16.45 4.36307 15.9761 4.36307 15.3917ZM8.26945 15.3917C8.26945 14.8072 8.74326 14.3333 9.32778 14.3333C9.91229 14.3333 10.3861 14.8072 10.3861 15.3917C10.3861 15.9761 9.91229 16.45 9.32778 16.45C8.74326 16.45 8.26945 15.9761 8.26945 15.3917ZM6.31585 17.2417C6.31585 16.6572 6.78966 16.1833 7.37418 16.1833C7.9587 16.1833 8.43251 16.6572 8.43251 17.2417C8.43251 17.8261 7.9587 18.3 7.37418 18.3C6.78966 18.3 6.31585 17.8261 6.31585 17.2417Z" fill="#1B1A16"/>
</svg>
