<svg width="24" height="24" viewBox="0 0 24 24" fill="none" xmlns="http://www.w3.org/2000/svg">
<path fill-rule="evenodd" clip-rule="evenodd" d="M9.72553 2.94214C10.3288 2.3389 11.1469 2 12.0001 2C12.8532 2 13.6713 2.3389 14.2746 2.94214C14.8778 3.54538 15.2167 4.36355 15.2167 5.21667C15.2167 6.03569 14.9044 6.82251 14.3456 7.41786L16.4342 17.3964C16.486 17.6441 16.4094 17.9013 16.2304 18.0803L12.5304 21.7803C12.2375 22.0732 11.7626 22.0732 11.4697 21.7803L7.76973 18.0803C7.59074 17.9013 7.51411 17.6441 7.56597 17.3964L9.65449 7.41786C9.09575 6.82251 8.78339 6.03569 8.78339 5.21667C8.78339 4.36355 9.12229 3.54538 9.72553 2.94214ZM10.9244 6.55449C10.8763 6.51588 10.8302 6.47452 10.7862 6.43053C10.4643 6.1086 10.2834 5.67196 10.2834 5.21667C10.2834 4.76138 10.4643 4.32474 10.7862 4.0028C11.1081 3.68086 11.5448 3.5 12.0001 3.5C12.4554 3.5 12.892 3.68086 13.2139 4.0028C13.5359 4.32474 13.7167 4.76138 13.7167 5.21667C13.7167 5.67196 13.5359 6.1086 13.2139 6.43053C13.1699 6.47452 13.1238 6.51588 13.0758 6.55449C13.0708 6.55821 13.0659 6.56198 13.061 6.56583C12.7585 6.80362 12.3848 6.93289 12.0001 6.93289C11.6153 6.93289 11.2417 6.80362 10.9392 6.56583C10.9343 6.56198 10.9293 6.5582 10.9244 6.55449ZM11.0074 8.27604L9.11727 17.3065L12.0001 20.1893L14.8829 17.3065L12.9927 8.27604C12.675 8.37907 12.3403 8.43289 12.0001 8.43289C11.6599 8.43289 11.3251 8.37907 11.0074 8.27604Z" fill="#1B1A16"/>
</svg>
