<svg width="24" height="24" viewBox="0 0 24 24" fill="none" xmlns="http://www.w3.org/2000/svg">
<path d="M13.8491 16.141C14.4334 16.141 14.9071 15.6673 14.9071 15.083C14.9071 14.4987 14.4334 14.025 13.8491 14.025C13.2648 14.025 12.7911 14.4987 12.7911 15.083C12.7911 15.6673 13.2648 16.141 13.8491 16.141Z" fill="#1B1A16"/>
<path d="M19.1801 19.13C19.0151 18.8 18.7621 18.524 18.4481 18.329C18.1341 18.136 17.7731 18.033 17.4071 18.033H17.0661V3.983C17.0661 3.453 16.8601 2.955 16.4851 2.581C16.1101 2.207 15.6111 2 15.0821 2H8.91508C8.38508 2 7.88708 2.207 7.51208 2.582C7.13808 2.957 6.93208 3.455 6.93208 3.983V18.033H6.59408C6.07108 18.033 5.56008 18.245 5.19208 18.614C4.81708 18.989 4.61108 19.487 4.61108 20.016C4.61108 20.545 4.81808 21.043 5.19208 21.417C5.56008 21.788 6.07108 22 6.59408 22H17.4021C17.7421 22 18.0761 21.913 18.3681 21.75C18.6661 21.585 18.9171 21.346 19.0911 21.062C19.2711 20.774 19.3731 20.442 19.3871 20.107C19.4021 19.769 19.3311 19.43 19.1801 19.13ZM15.5651 9.4H12.1311V7.2H15.5651V9.4ZM12.1321 10.9H15.5661V18.033H12.1321V10.9ZM15.4241 3.642C15.5151 3.733 15.5661 3.855 15.5661 3.984V5.7H12.1321V3.5H15.0821C15.2111 3.5 15.3321 3.55 15.4241 3.642ZM8.43208 3.983C8.43208 3.854 8.48208 3.733 8.57408 3.641C8.66608 3.549 8.78608 3.5 8.91508 3.5H10.6321V18.033H8.43208V3.983ZM17.8151 20.273C17.7731 20.34 17.7121 20.398 17.6381 20.439C17.5671 20.479 17.4861 20.5 17.4021 20.5H6.59408C6.46708 20.5 6.34308 20.448 6.25208 20.358C6.16108 20.266 6.11008 20.145 6.11008 20.016C6.11008 19.887 6.16008 19.766 6.25208 19.673C6.34208 19.584 6.46608 19.532 6.59308 19.532H17.4051C17.4941 19.532 17.5831 19.557 17.6591 19.604C17.7351 19.651 17.7971 19.718 17.8381 19.8C17.8741 19.872 17.8921 19.954 17.8881 20.039C17.8851 20.121 17.8601 20.2 17.8151 20.273Z" fill="#1B1A16"/>
</svg>
