<svg width="24" height="24" viewBox="0 0 24 24" fill="none" xmlns="http://www.w3.org/2000/svg">
<path d="M7.62276 11.9041C6.74233 11.9041 6.02197 12.5344 6.02197 13.4548C6.02197 14.3753 6.75233 15.0056 7.62276 15.0056C8.49318 15.0056 9.22354 14.3753 9.22354 13.4548C9.22354 12.5344 8.49318 11.9041 7.62276 11.9041ZM7.63276 14.3653C7.62276 14.3653 7.62276 14.3653 7.63276 14.3653C7.62276 14.3653 7.62276 14.3653 7.61275 14.3653C7.07249 14.3653 6.71231 13.9551 6.71231 13.4548C6.71231 12.9546 7.08249 12.5444 7.61275 12.5444H7.63276C8.17303 12.5444 8.5332 12.9546 8.5332 13.4548C8.5332 13.9551 8.16302 14.3653 7.63276 14.3653Z" fill="#1B1A16"/>
<path d="M5.34164 13.825C5.08151 14.1452 4.68131 14.3453 4.23109 14.3453C3.4307 14.3453 2.79039 13.6949 2.79039 12.9046C2.79039 12.1042 3.44071 11.4639 4.23109 11.4639C4.67131 11.4639 5.0615 11.6639 5.33163 11.9741L5.83188 11.5339C5.44169 11.0837 4.8514 10.8035 4.20108 10.8035C3.0205 10.8035 2.06003 11.744 2.06003 12.9146C2.06003 14.0651 3.0205 15.0056 4.20108 15.0056C4.8514 15.0056 5.44169 14.7154 5.83188 14.2652L5.34164 13.825Z" fill="#1B1A16"/>
<path d="M14.5662 11.9041C13.6857 11.9041 12.9554 12.5444 12.9554 13.4548C12.9554 14.3753 12.9554 16.2762 12.9554 16.2762H13.6457V14.7455C13.9058 14.9155 14.226 15.0056 14.5662 15.0056C15.4466 15.0056 16.177 14.3753 16.177 13.4548C16.1669 12.5344 15.4366 11.9041 14.5662 11.9041ZM14.5762 14.3653C14.5662 14.3653 14.5662 14.3653 14.5762 14.3653C14.5662 14.3653 14.5662 14.3653 14.5562 14.3653C14.0159 14.3653 13.6457 13.9551 13.6457 13.4448C13.6457 12.9446 14.0159 12.5244 14.5562 12.5244H14.5762C15.1164 12.5244 15.4866 12.9346 15.4866 13.4448C15.4766 13.9551 15.1064 14.3653 14.5762 14.3653Z" fill="#1B1A16"/>
<path d="M11.0945 11.9041C10.214 11.9041 9.48367 12.5444 9.48367 13.4548C9.48367 14.3753 9.48367 16.2762 9.48367 16.2762H10.174V14.7455C10.4341 14.9155 10.7543 15.0056 11.0845 15.0056C11.9649 15.0056 12.6952 14.3753 12.6952 13.4548C12.6952 12.5344 11.9649 11.9041 11.0945 11.9041ZM11.0945 14.3653C11.0845 14.3653 11.0845 14.3653 11.0745 14.3653C10.5342 14.3653 10.164 13.9551 10.164 13.4448C10.164 12.9446 10.5342 12.5244 11.0745 12.5244H11.0945C11.6347 12.5244 12.0049 12.9346 12.0049 13.4448C12.0049 13.9551 11.6347 14.3653 11.0945 14.3653Z" fill="#1B1A16"/>
<path d="M17.8278 11.9041C17.0174 11.9041 16.337 12.5344 16.337 13.4548C16.337 14.3753 17.0074 15.0056 17.8278 15.0056C18.318 15.0056 18.8383 14.8555 19.1084 14.4653L18.6982 14.0551C18.5181 14.2552 18.248 14.3853 17.9078 14.3853C17.3775 14.3853 17.0174 14.0751 17.0174 13.6249H19.2985C19.3085 13.5649 19.3085 13.5049 19.3085 13.4448C19.3185 12.5344 18.7382 11.9041 17.8278 11.9041ZM17.0374 13.1447C17.0374 12.8645 17.3976 12.4944 17.8778 12.4944C18.1879 12.4944 18.6081 12.7345 18.6081 13.1447H17.0374Z" fill="#1B1A16"/>
<path d="M20.269 13.4548V10.8335H19.5786V13.4548C19.5786 14.3653 20.289 14.9956 21.1594 15.0056V14.3653C20.6291 14.3553 20.269 13.9451 20.269 13.4548Z" fill="#1B1A16"/>
<path d="M18.6882 10.2032C18.218 10.2032 17.8378 9.82305 17.8378 9.35282V8.69249C17.8378 8.22226 17.4576 7.84207 16.9873 7.84207H4.55125C4.08102 7.84207 3.70083 8.22226 3.70083 8.69249V9.34281C3.70083 9.81304 3.32065 10.1932 2.85042 10.1932C2.38019 10.1932 2 9.81304 2 9.34281V8.69249C2 7.2818 3.15056 6.14124 4.55125 6.14124H16.9773C18.388 6.14124 19.5286 7.2918 19.5286 8.69249V9.34281C19.5386 9.81304 19.1584 10.2032 18.6882 10.2032Z" fill="#1B1A16"/>
<path d="M16.9773 20.3782H4.55125C3.15056 20.3782 2 19.2277 2 17.817V17.1666C2 16.6964 2.38019 16.3162 2.85042 16.3162C3.32065 16.3162 3.70083 16.6964 3.70083 17.1666V17.817C3.70083 18.2872 4.08102 18.6674 4.55125 18.6674H16.9773C17.4476 18.6674 17.8278 18.2872 17.8278 17.817V17.1666C17.8278 16.6964 18.2079 16.3162 18.6782 16.3162C19.1484 16.3162 19.5286 16.6964 19.5286 17.1666V17.817C19.5386 19.2277 18.388 20.3782 16.9773 20.3782Z" fill="#1B1A16"/>
<path d="M21.1594 8.53241C20.6892 8.53241 20.309 8.15223 20.309 7.682V6.19127C20.309 5.72104 19.9288 5.34085 19.4586 5.34085H5.04149C4.57126 5.34085 4.19107 4.96066 4.19107 4.49043C4.19107 4.0202 4.57126 3.64001 5.04149 3.64001H19.4486C20.8592 3.64001 21.9998 4.79058 21.9998 6.19127V7.682C22.0098 8.15223 21.6296 8.53241 21.1594 8.53241Z" fill="#1B1A16"/>
</svg>
