<svg width="24" height="24" viewBox="0 0 24 24" fill="none" xmlns="http://www.w3.org/2000/svg">
<path d="M6.28613 2C6.70035 2 7.03613 2.33579 7.03613 2.75V7.7613C7.6199 7.49434 8.00291 6.91426 8.00291 6.20333V2.75C8.00291 2.33579 8.3387 2 8.75291 2C9.16712 2 9.50291 2.33579 9.50291 2.75V6.20333C9.50291 7.75605 8.47146 9.00967 7.03613 9.33664V12.5633C7.26462 12.4848 7.51017 12.4422 7.76613 12.4422C9.00256 12.4422 9.99614 13.4358 9.99614 14.6722V17.6322C9.99614 18.4818 9.80703 19.3656 9.30802 20.1651L8.76281 21.0511V21.25C8.76281 21.6642 8.42702 22 8.01281 22C7.59859 22 7.26281 21.6642 7.26281 21.25V20.8389C7.26281 20.7001 7.30132 20.564 7.37406 20.4458L8.03455 19.3725C8.35668 18.8571 8.49614 18.2617 8.49614 17.6322V14.6722C8.49614 14.2642 8.17414 13.9422 7.76613 13.9422C7.35812 13.9422 7.03613 14.2642 7.03613 14.6722V16.3166C7.03613 16.7309 6.70035 17.0666 6.28613 17.0666C5.87192 17.0666 5.53613 16.7309 5.53613 16.3166V14.6722C5.53613 14.6548 5.53633 14.6374 5.53672 14.62C5.53633 14.6101 5.53613 14.6001 5.53613 14.59V13.3666H5.44622C5.17771 13.3666 4.94837 13.5063 4.85601 13.6603L4.85065 13.6692L3.78904 15.384C3.52994 15.842 3.43917 16.2961 3.54272 16.7103L3.5466 16.7266L4.53326 21.0844C4.62473 21.4883 4.37138 21.89 3.96739 21.9815C3.56341 22.0729 3.16176 21.8196 3.07029 21.4156L2.08534 17.0654C1.8645 16.1704 2.10011 15.3162 2.49282 14.629C2.49718 14.6213 2.50167 14.6138 2.5063 14.6063L3.57278 12.8835C3.97451 12.2185 4.72986 11.8666 5.44622 11.8666H5.53613V9.33659C4.10092 9.00954 3.06958 7.75597 3.06958 6.20333V2.75C3.06958 2.33579 3.40537 2 3.81958 2C4.23379 2 4.56958 2.33579 4.56958 2.75V6.20333C4.56958 6.91417 4.9525 7.49419 5.53613 7.7612V2.75C5.53613 2.33579 5.87192 2 6.28613 2Z" fill="#1B1A16"/>
<path fill-rule="evenodd" clip-rule="evenodd" d="M17.7966 2.04114C15.9846 2.04114 14.58 3.44581 14.58 5.25781V6.24447C14.58 7.79715 15.6114 9.05075 17.0466 9.37776V12.5631C16.8183 12.4847 16.573 12.4422 16.3173 12.4422C15.0808 12.4422 14.0873 13.4358 14.0873 14.6722V17.6322C14.0873 18.4818 14.2764 19.3656 14.7754 20.1651L15.3206 21.0511V21.25C15.3206 21.6642 15.6564 22 16.0706 22C16.4848 22 16.8206 21.6642 16.8206 21.25V20.8389C16.8206 20.7001 16.7821 20.564 16.7094 20.4458L16.0516 19.3769L16.0488 19.3725C15.7267 18.8571 15.5873 18.2617 15.5873 17.6322V14.6722C15.5873 14.2642 15.9093 13.9422 16.3173 13.9422C16.7155 13.9422 17.0317 14.2489 17.0467 14.6429C17.0468 14.6487 17.047 14.6546 17.0472 14.6604C17.0473 14.6643 17.0473 14.6683 17.0473 14.6722V16.3166C17.0473 16.7309 17.3831 17.0666 17.7973 17.0666C18.2115 17.0666 18.5473 16.7309 18.5473 16.3166V14.6722C18.5473 14.6539 18.5471 14.6357 18.5466 14.6175V13.3666H18.5538C18.8223 13.3666 19.0516 13.5064 19.1439 13.6603L20.211 15.384C20.4701 15.842 20.5608 16.2961 20.4573 16.7103L20.4534 16.7266L19.4667 21.0844C19.3753 21.4883 19.6286 21.89 20.0326 21.9815C20.4366 22.0729 20.8382 21.8196 20.9297 21.4156L21.9147 17.0654C22.1355 16.1704 21.8999 15.3162 21.5072 14.629C21.5028 14.6213 21.4983 14.6138 21.4937 14.6063L20.4272 12.8835C20.0255 12.2185 19.2701 11.8666 18.5538 11.8666H18.5466V9.37775C19.9819 9.05074 21.0133 7.79714 21.0133 6.24447V5.25781C21.0133 3.42965 19.51 2.04114 17.7966 2.04114ZM17.801 7.96113C18.7824 7.95894 19.5133 7.22656 19.5133 6.24447V5.25781C19.5133 4.2904 18.7143 3.54114 17.7966 3.54114C16.8131 3.54114 16.08 4.27424 16.08 5.25781V6.24447C16.08 7.22683 16.8113 7.95933 17.793 7.96113L17.7966 7.96112L17.801 7.96113Z" fill="#1B1A16"/>
</svg>
