<svg width="24" height="24" viewBox="0 0 24 24" fill="none" xmlns="http://www.w3.org/2000/svg">
<path d="M10.004 2C9.59004 2 9.25404 2.336 9.25404 2.75V8.297C9.25204 8.745 9.06004 9.169 8.71204 9.491C8.53304 9.656 8.31904 9.786 8.08704 9.876V2.75C8.08704 2.336 7.75104 2 7.33704 2C6.92304 2 6.58704 2.336 6.58704 2.75V9.875C6.35404 9.786 6.14104 9.656 5.96304 9.491C5.61404 9.169 5.42104 8.745 5.42004 8.3V2.75C5.42004 2.336 5.08404 2 4.67004 2C4.25604 2 3.92004 2.336 3.92004 2.75V8.303C3.92304 9.159 4.29604 9.994 4.94404 10.593C5.40304 11.017 5.97004 11.3 6.58604 11.43V21.25C6.58604 21.664 6.92204 22 7.33604 22C7.75004 22 8.08604 21.664 8.08604 21.25V11.431C8.70104 11.3 9.26904 11.018 9.72904 10.593C10.377 9.993 10.75 9.158 10.753 8.301V2.75C10.754 2.336 10.418 2 10.004 2Z" fill="#1B1A16"/>
<path d="M17.179 2.594C17.007 2.355 16.766 2.177 16.48 2.079C16.201 1.985 15.906 1.976 15.621 2.054C15.334 2.132 15.075 2.3 14.887 2.53C14.696 2.768 14.589 3.064 14.587 3.37V21.25C14.587 21.664 14.923 22 15.337 22C15.751 22 16.087 21.664 16.087 21.25V15.833H17.98C18.245 15.833 18.527 15.798 18.778 15.707C19.039 15.613 19.273 15.471 19.471 15.287C19.673 15.099 19.831 14.877 19.941 14.621C20.05 14.364 20.099 14.094 20.087 13.819C19.944 10.321 19.784 6.356 17.179 2.594ZM18.56 14.033C18.536 14.09 18.499 14.14 18.451 14.186C18.399 14.234 18.338 14.271 18.266 14.296C18.193 14.323 18.117 14.335 18.004 14.332H16.086V3.654C18.309 6.989 18.45 10.491 18.588 13.882C18.59 13.934 18.58 13.986 18.56 14.033Z" fill="#1B1A16"/>
</svg>
