<svg width="24" height="24" viewBox="0 0 24 24" fill="none" xmlns="http://www.w3.org/2000/svg">
<g clip-path="url(#clip0_4269_1073)">
<path fill-rule="evenodd" clip-rule="evenodd" d="M14.6713 2H8.71111C8.51675 2 8.32999 2.07545 8.19017 2.21045L2.22906 7.96598C2.08267 8.10732 2 8.30206 2 8.50554V21.25C2 21.6642 2.33579 22 2.75 22H15.4944C15.6979 22 15.8927 21.9173 16.034 21.7709L21.7896 15.8098C21.9246 15.67 22 15.4832 22 15.2889V2.75C22 2.33579 21.6642 2 21.25 2H14.6734C14.6727 2 14.672 2 14.6713 2ZM9.87226 20.5H14.7444V15.6278H9.87226V20.5ZM8.37226 15.6278V20.5H3.5V15.6278H8.37226ZM9.87226 14.1278H14.7444V9.25554H9.87226V14.1278ZM8.37226 9.25554V14.1278H3.5V9.25554H8.37226ZM10.8874 7.75554L12.4142 6.1722H16.7671L15.1838 7.75554H10.8874ZM16.2444 8.8162V13.0671L17.8278 11.4838L17.8278 7.23285L16.2444 8.8162ZM19.3278 5.73285L19.3278 9.98374L20.5 8.81151V4.56066L19.3278 5.73285ZM19.4393 3.5H14.9909L13.8606 4.6722H18.2671L19.4393 3.5ZM11.7768 4.6722L12.9072 3.5H9.01409L7.80002 4.6722H11.7768ZM6.24644 6.1722L4.60656 7.75554H8.80359L10.3304 6.1722H6.24644ZM20.5 10.9328L19.3278 12.1051L19.3277 16.2L20.5 14.9859V10.9328ZM17.8277 17.7536L17.8278 13.6051L16.2444 15.1885V19.3934L17.8277 17.7536Z" fill="#1B1A16"/>
</g>
<defs>
<clipPath id="clip0_4269_1073">
<rect width="24" height="24" fill="white"/>
</clipPath>
</defs>
</svg>
