<svg width="24" height="24" viewBox="0 0 24 24" fill="none" xmlns="http://www.w3.org/2000/svg">
<path d="M15.9998 8.658C16.5841 8.658 17.0578 8.18432 17.0578 7.6C17.0578 7.01569 16.5841 6.542 15.9998 6.542C15.4155 6.542 14.9418 7.01569 14.9418 7.6C14.9418 8.18432 15.4155 8.658 15.9998 8.658Z" fill="#1B1A16"/>
<path d="M21.4678 8.282L17.3578 4.171C16.6568 3.471 15.7658 3.47 15.0648 4.171L6.03783 13.197C6.03183 13.203 6.02283 13.205 6.01683 13.211L2.62083 16.614C1.88583 17.351 1.70483 18.812 2.62183 19.729C3.02583 20.132 3.56583 20.355 4.14483 20.355C4.74183 20.355 5.35183 20.115 5.73783 19.728L8.60383 16.856L10.5428 18.794C10.8778 19.13 11.3718 19.322 11.8958 19.322C12.4198 19.322 12.9128 19.129 13.2478 18.794L21.4688 10.574C21.8178 10.226 21.9958 9.839 21.9958 9.429C21.9958 9.019 21.8178 8.632 21.4678 8.282ZM16.1248 5.232C16.1648 5.191 16.1958 5.16801 16.2068 5.15501C16.2268 5.16801 16.2568 5.192 16.2978 5.232L18.3228 7.258L9.72483 15.857L7.61183 13.744L16.1248 5.232ZM4.67683 18.67C4.55183 18.795 3.97683 18.964 3.68183 18.67C3.33783 18.326 3.54583 17.812 3.68183 17.675L6.54783 14.804L7.54283 15.798L4.67683 18.67ZM20.4068 9.51501L12.1858 17.736C12.0998 17.82 11.6918 17.821 11.6028 17.735L10.7858 16.918L19.3838 8.31901L20.4068 9.342C20.4468 9.383 20.4698 9.413 20.4838 9.424C20.4708 9.444 20.4468 9.47501 20.4068 9.51501Z" fill="#1B1A16"/>
</svg>
