<svg width="24" height="24" viewBox="0 0 24 24" fill="none" xmlns="http://www.w3.org/2000/svg">
<path fill-rule="evenodd" clip-rule="evenodd" d="M15.8334 2.75C15.8334 2.33579 15.4976 2 15.0834 2C14.6692 2 14.3334 2.33579 14.3334 2.75V3.23328H10.15C9.73581 3.23328 9.40002 3.56906 9.40002 3.98328C9.40002 4.39749 9.73581 4.73328 10.15 4.73328H10.6333V5.70444C10.156 5.73658 9.70462 5.94047 9.36423 6.28086C8.99228 6.6528 8.78333 7.15727 8.78333 7.68328C8.78333 8.2093 8.99228 8.71377 9.36423 9.08571C9.73618 9.45766 10.2406 9.66662 10.7667 9.66662C11.2927 9.66662 11.7971 9.45766 12.1691 9.08571C12.541 8.71377 12.75 8.2093 12.75 7.68328C12.75 7.15727 12.541 6.6528 12.1691 6.28086C12.1573 6.26906 12.1454 6.25743 12.1333 6.24596V4.73328H14.3334V5.8472C14.0915 5.94599 13.8692 6.09253 13.6809 6.28086C13.3089 6.6528 13.1 7.15727 13.1 7.68328C13.1 8.2093 13.3089 8.71377 13.6809 9.08571C14.0528 9.45766 14.5573 9.66662 15.0833 9.66662C15.6093 9.66662 16.1138 9.45766 16.4857 9.08571C16.8577 8.71377 17.0666 8.2093 17.0666 7.68328C17.0666 7.15727 16.8577 6.6528 16.4857 6.28086C16.2974 6.09256 16.0752 5.94604 15.8334 5.84725V4.73328H18.0333V6.24595C18.0213 6.25742 18.0093 6.26906 17.9975 6.28086C17.6256 6.6528 17.4166 7.15727 17.4166 7.68328C17.4166 8.2093 17.6256 8.71377 17.9975 9.08571C18.3695 9.45766 18.8739 9.66662 19.4 9.66662C19.926 9.66662 20.4304 9.45766 20.8024 9.08571C21.1743 8.71377 21.3833 8.2093 21.3833 7.68328C21.3833 7.15727 21.1743 6.6528 20.8024 6.28086C20.462 5.94047 20.0106 5.73659 19.5333 5.70444V4.73328H20.0167C20.4309 4.73328 20.7667 4.39749 20.7667 3.98328C20.7667 3.56906 20.4309 3.23328 20.0167 3.23328H15.8334V2.75ZM19.1496 7.26982C19.1553 7.26663 19.161 7.26337 19.1666 7.26004C19.2374 7.22097 19.3176 7.19995 19.4 7.19995C19.5281 7.19995 19.6511 7.25087 19.7417 7.34152C19.8324 7.43216 19.8833 7.5551 19.8833 7.68328C19.8833 7.81147 19.8324 7.93441 19.7417 8.02505C19.6511 8.1157 19.5281 8.16662 19.4 8.16662C19.2718 8.16662 19.1488 8.1157 19.0582 8.02505C18.9675 7.93441 18.9166 7.81147 18.9166 7.68328C18.9166 7.5551 18.9675 7.43216 19.0582 7.34152C19.0859 7.31379 19.1167 7.28979 19.1496 7.26982ZM14.7415 7.34152C14.8309 7.25214 14.9517 7.20138 15.078 7.19998L15.0834 7.2L15.0887 7.19998C15.2149 7.20139 15.3357 7.25215 15.4251 7.34152C15.5157 7.43216 15.5666 7.5551 15.5666 7.68328C15.5666 7.81147 15.5157 7.93441 15.4251 8.02505C15.3344 8.1157 15.2115 8.16662 15.0833 8.16662C14.9551 8.16662 14.8322 8.1157 14.7415 8.02505C14.6509 7.93441 14.6 7.81147 14.6 7.68328C14.6 7.5551 14.6509 7.43216 14.7415 7.34152ZM11.0002 7.2601L11.0169 7.26976C11.0499 7.28974 11.0807 7.31377 11.1084 7.34152C11.1991 7.43216 11.25 7.5551 11.25 7.68328C11.25 7.81147 11.1991 7.93441 11.1084 8.02505C11.0178 8.1157 10.8948 8.16662 10.7667 8.16662C10.6385 8.16662 10.5155 8.1157 10.4249 8.02505C10.3342 7.93441 10.2833 7.81147 10.2833 7.68328C10.2833 7.5551 10.3342 7.43216 10.4249 7.34152C10.5155 7.25087 10.6385 7.19995 10.7667 7.19995C10.8491 7.19995 10.9293 7.22099 11.0002 7.2601Z" fill="#1B1A16"/>
<path fill-rule="evenodd" clip-rule="evenodd" d="M3.5 11.3833C3.5 10.9691 3.16421 10.6333 2.75 10.6333C2.33579 10.6333 2 10.9691 2 11.3833V20.0166C2 20.5427 2.20896 21.0471 2.5809 21.4191C2.95285 21.791 3.45732 22 3.98333 22H20.0167C20.5427 22 21.0471 21.791 21.4191 21.4191C21.791 21.0471 22 20.5427 22 20.0166V11.3833C22 10.9691 21.6642 10.6333 21.25 10.6333C20.8358 10.6333 20.5 10.9691 20.5 11.3833V13.1H3.5V11.3833ZM20.0167 20.5H18.3V14.6H20.5V20.0166C20.5 20.1448 20.4491 20.2678 20.3584 20.3584C20.2678 20.4491 20.1449 20.5 20.0167 20.5ZM16.8 20.5V14.6H14.6V20.5H16.8ZM13.1 14.6H10.9V20.5H13.1V14.6ZM9.40002 20.5V14.6H7.19995V20.5H9.40002ZM5.69995 14.6H3.5V20.0166C3.5 20.1448 3.55092 20.2678 3.64157 20.3584C3.73221 20.4491 3.85515 20.5 3.98333 20.5H5.69995V14.6Z" fill="#1B1A16"/>
</svg>
