<svg width="24" height="24" viewBox="0 0 24 24" fill="none" xmlns="http://www.w3.org/2000/svg">
<path fill-rule="evenodd" clip-rule="evenodd" d="M20.3581 3.65724C20.169 3.46809 19.8624 3.46809 19.6732 3.65724L12.9155 10.4149L13.6004 11.0999L20.3581 4.34217C20.5473 4.15304 20.5473 3.84638 20.3581 3.65724ZM14.2818 12.5398L21.4188 5.40284C22.1937 4.62792 22.1937 3.3715 21.4188 2.59657C20.6439 1.82165 19.3875 1.82165 18.6126 2.59657L11.509 9.70007C11.1198 9.7098 10.7335 9.86319 10.4364 10.1602L9.93931 10.6573C8.30719 10.2063 6.48409 10.6214 5.19961 11.9058L5.1277 11.9777C4.35321 11.4305 3.2745 11.5035 2.58119 12.1968C1.80627 12.9717 1.80627 14.2281 2.58119 15.003L8.98172 21.4036C9.75665 22.1785 11.013 22.1785 11.788 21.4036C12.4813 20.7103 12.5543 19.6316 12.007 18.8571L12.0789 18.7852C13.3634 17.5007 13.7785 15.6776 13.3274 14.0455L13.8245 13.5485C14.1052 13.2677 14.2577 12.9071 14.2818 12.5398ZM12.7638 12.3846L11.6001 11.2209C11.5717 11.1925 11.5255 11.1925 11.4971 11.2209L10.6731 12.0449C10.4623 12.2556 10.1467 12.3216 9.86913 12.2128C8.66023 11.7391 7.23497 11.9918 6.26024 12.9665L6.20869 13.0181L10.9667 17.776L11.0183 17.7245C11.993 16.7498 12.2457 15.3246 11.7719 14.1156C11.6632 13.838 11.7291 13.5224 11.9399 13.3116L12.7638 12.4878M12.7638 12.3846C12.7922 12.4131 12.7922 12.4593 12.7638 12.4878V12.3846ZM10.4363 19.367L4.61773 13.5484L4.32679 13.2575C4.13764 13.0683 3.83099 13.0683 3.64187 13.2574C3.45272 13.4466 3.45271 13.7532 3.64186 13.9424L10.0424 20.3429C10.2315 20.5321 10.5381 20.5321 10.7273 20.3429C10.9165 20.1538 10.9165 19.8472 10.7273 19.658L10.4363 19.367Z" fill="#1B1A16"/>
</svg>
