<svg width="24" height="24" viewBox="0 0 24 24" fill="none" xmlns="http://www.w3.org/2000/svg">
<path fill-rule="evenodd" clip-rule="evenodd" d="M7.75005 7.68333C7.75005 7.26912 8.08583 6.93333 8.50005 6.93333H14.6667C18.6987 6.93333 21.9945 10.2291 21.9945 14.2611V17.9611C21.9945 20.1842 20.1787 22 17.9556 22H12.2C11.7858 22 11.45 21.6642 11.45 21.25C11.45 20.8358 11.7858 20.5 12.2 20.5H17.9556C19.3503 20.5 20.4945 19.3558 20.4945 17.9611V14.2611C20.4945 11.0575 17.8703 8.43333 14.6667 8.43333H9.25005V10.9722C9.25005 11.3864 8.91426 11.7222 8.50005 11.7222C8.08583 11.7222 7.75005 11.3864 7.75005 10.9722V7.68333Z" fill="#1B1A16"/>
<path fill-rule="evenodd" clip-rule="evenodd" d="M9.25804 5.97466C9.25508 5.98362 9.25005 6.00397 9.25005 6.03889V6.93333H13.0945V6.03889C13.0945 6.00397 13.0895 5.98362 13.0865 5.97466C13.0775 5.9717 13.0572 5.96667 13.0223 5.96667H9.32227C9.28734 5.96667 9.267 5.9717 9.25804 5.97466ZM8.19583 4.91245C8.4993 4.60897 8.90516 4.46667 9.32227 4.46667H13.0223C13.4394 4.46667 13.8452 4.60897 14.1487 4.91245C14.4522 5.21592 14.5945 5.62179 14.5945 6.03889V7.68333C14.5945 8.09755 14.2587 8.43333 13.8445 8.43333H8.50005C8.08583 8.43333 7.75005 8.09755 7.75005 7.68333V6.03889C7.75005 5.62179 7.89235 5.21592 8.19583 4.91245Z" fill="#1B1A16"/>
<path fill-rule="evenodd" clip-rule="evenodd" d="M10.0802 3.50799C10.0772 3.51695 10.0722 3.5373 10.0722 3.57222V4.46667H12.2722V3.57222C12.2722 3.5373 12.2672 3.51695 12.2642 3.50799C12.2552 3.50503 12.2349 3.5 12.2 3.5H10.1444C10.1095 3.5 10.0891 3.50503 10.0802 3.50799ZM9.01797 2.44578C9.32144 2.14231 9.72731 2 10.1444 2H12.2C12.6171 2 13.0229 2.14231 13.3264 2.44578C13.6299 2.74925 13.7722 3.15512 13.7722 3.57222V5.21667C13.7722 5.63088 13.4365 5.96667 13.0223 5.96667H9.32227C8.90805 5.96667 8.57219 5.63088 8.57219 5.21667V3.57222C8.57219 3.15512 8.71449 2.74925 9.01797 2.44578Z" fill="#1B1A16"/>
<path fill-rule="evenodd" clip-rule="evenodd" d="M13.9167 10.5611C13.9167 10.1469 14.2525 9.81112 14.6667 9.81112C17.1472 9.81112 19.1167 11.8844 19.1167 14.2611C19.1167 14.6753 18.7809 15.0111 18.3667 15.0111H16.3111C14.9925 15.0111 13.9167 13.9353 13.9167 12.6167V10.5611ZM15.4167 11.411V12.6167C15.4167 13.1069 15.8209 13.5111 16.3111 13.5111H17.5152C17.241 12.5112 16.4371 11.6878 15.4167 11.411Z" fill="#1B1A16"/>
<path fill-rule="evenodd" clip-rule="evenodd" d="M3.59327 13.8639C4.21136 13.3695 4.97934 13.1 5.77095 13.1H5.89504C6.39177 13.1 6.79454 13.5027 6.79454 13.9995V14.2611C6.79454 14.528 7.01094 14.7444 7.27787 14.7444C7.5448 14.7444 7.7612 14.528 7.7612 14.2611V13.9995C7.7612 13.5027 8.16397 13.1 8.6607 13.1H8.78481C9.5764 13.1 10.3444 13.3695 10.9625 13.8639L12.2686 14.9088C12.514 15.1051 12.611 15.4335 12.5116 15.7316L11.6894 18.1983C11.6265 18.387 11.4912 18.543 11.3133 18.6319C11.1354 18.7209 10.9294 18.7355 10.7407 18.6726L10.4945 18.5906V21.25C10.4945 21.6642 10.1588 22 9.74454 22H4.81121C4.39699 22 4.06121 21.6642 4.06121 21.25V18.5906L3.81505 18.6726C3.62634 18.7355 3.42038 18.7209 3.24247 18.6319C3.06455 18.543 2.92927 18.387 2.86636 18.1983L2.04414 15.7316C1.94478 15.4335 2.04177 15.1051 2.28714 14.9088L3.59327 13.8639ZM4.05222 17.0124L4.57404 16.8385C4.80275 16.7623 5.05416 16.8006 5.24974 16.9416C5.44532 17.0825 5.56121 17.3089 5.56121 17.55V20.5H8.99454V17.55C8.99454 17.3089 9.11043 17.0825 9.30601 16.9416C9.50158 16.8006 9.753 16.7623 9.98171 16.8385L10.5035 17.0124L10.9232 15.7534L10.0255 15.0352C10.0255 15.0352 10.0255 15.0352 10.0255 15.0352C9.78925 14.8463 9.5146 14.715 9.22329 14.649C9.04292 15.5586 8.24049 16.2444 7.27787 16.2444C6.31525 16.2444 5.51282 15.5586 5.33246 14.649C5.04114 14.715 4.76652 14.8463 4.5303 15.0352C4.5303 15.0352 4.5303 15.0352 4.5303 15.0352L3.63255 15.7534L4.05222 17.0124Z" fill="#1B1A16"/>
</svg>
