<svg width="24" height="24" viewBox="0 0 24 24" fill="none" xmlns="http://www.w3.org/2000/svg">
<path fill-rule="evenodd" clip-rule="evenodd" d="M12 2C12.1989 2 12.3897 2.07902 12.5303 2.21967L17.4637 7.153C17.6043 7.29366 17.6833 7.48442 17.6833 7.68333V16.3167C17.6833 16.5156 17.6043 16.7063 17.4637 16.847L12.5303 21.7803C12.3897 21.921 12.1989 22 12 22C11.8011 22 11.6103 21.921 11.4697 21.7803L6.53634 16.847C6.39568 16.7063 6.31667 16.5156 6.31667 16.3167V7.68333C6.31667 7.48442 6.39568 7.29366 6.53634 7.153L11.4697 2.21967C11.6103 2.07902 11.8011 2 12 2ZM7.81667 8.43333H11.25V15.5667H7.81667V8.43333ZM8.87733 17.0667L11.25 19.4393V17.0667H8.87733ZM12.75 17.0667V19.4393L15.1227 17.0667H12.75ZM16.1833 15.5667H12.75V8.43333H16.1833V15.5667ZM15.1227 6.93333H12.75V4.56066L15.1227 6.93333ZM11.25 4.56066V6.93333H8.87733L11.25 4.56066ZM3.453 3.453C3.7459 3.16011 4.22077 3.16011 4.51366 3.453L5.747 4.68634C6.03989 4.97923 6.03989 5.4541 5.747 5.747C5.4541 6.03989 4.97923 6.03989 4.68634 5.747L3.453 4.51366C3.16011 4.22077 3.16011 3.7459 3.453 3.453ZM20.547 3.453C20.8399 3.7459 20.8399 4.22077 20.547 4.51366L19.3137 5.747C19.0208 6.03989 18.5459 6.03989 18.253 5.747C17.9601 5.4541 17.9601 4.97923 18.253 4.68634L19.4863 3.453C19.7792 3.16011 20.2541 3.16011 20.547 3.453ZM2 12C2 11.5858 2.33579 11.25 2.75 11.25H4.6C5.01421 11.25 5.35 11.5858 5.35 12C5.35 12.4142 5.01421 12.75 4.6 12.75H2.75C2.33579 12.75 2 12.4142 2 12ZM18.65 12C18.65 11.5858 18.9858 11.25 19.4 11.25H21.25C21.6642 11.25 22 11.5858 22 12C22 12.4142 21.6642 12.75 21.25 12.75H19.4C18.9858 12.75 18.65 12.4142 18.65 12ZM5.747 18.253C6.03989 18.5459 6.03989 19.0208 5.747 19.3137L4.51366 20.547C4.22077 20.8399 3.7459 20.8399 3.453 20.547C3.16011 20.2541 3.16011 19.7792 3.453 19.4863L4.68634 18.253C4.97923 17.9601 5.4541 17.9601 5.747 18.253ZM18.253 18.253C18.5459 17.9601 19.0208 17.9601 19.3137 18.253L20.547 19.4863C20.8399 19.7792 20.8399 20.2541 20.547 20.547C20.2541 20.8399 19.7792 20.8399 19.4863 20.547L18.253 19.3137C17.9601 19.0208 17.9601 18.5459 18.253 18.253Z" fill="#1B1A16"/>
</svg>
