<svg width="24" height="24" viewBox="0 0 24 24" fill="none" xmlns="http://www.w3.org/2000/svg">
<path fill-rule="evenodd" clip-rule="evenodd" d="M5.97242 3.46215C6.25434 3.32119 6.56522 3.2478 6.88042 3.2478H17.1232C17.4384 3.2478 17.7493 3.32119 18.0312 3.46215C18.3131 3.60312 18.5584 3.80778 18.7475 4.05994L21.5942 7.85934C21.8684 8.22505 22.0111 8.67256 21.9993 9.12945C21.9993 9.13058 21.9992 9.13172 21.9992 9.13286C21.999 9.14085 21.9988 9.14881 21.9984 9.15674C21.9809 9.60331 21.8164 10.0319 21.5302 10.3758C21.5299 10.3762 21.5296 10.3766 21.5293 10.377L13.5607 20.0198L13.5576 20.0236C13.367 20.2512 13.1288 20.4342 12.8599 20.5597C12.6118 20.6756 12.343 20.74 12.0697 20.7492C12.0473 20.7513 12.0247 20.7523 12.0019 20.7523C11.9794 20.7523 11.9571 20.7513 11.935 20.7493C11.6608 20.7404 11.391 20.676 11.142 20.5597C10.8731 20.4342 10.6349 20.2512 10.4444 20.0236L10.4412 20.0199L2.47263 10.377C2.47227 10.3765 2.47191 10.3761 2.47155 10.3757C2.19993 10.0492 2.03802 9.64646 2.00731 9.22445C2.00249 9.19011 2 9.15501 2 9.11933C2 9.1008 2.00067 9.08243 2.00199 9.06423C2.00473 8.63011 2.1466 8.20764 2.40766 7.85934L5.25606 4.06005C5.4384 3.81693 5.67298 3.61786 5.94223 3.47756C5.94596 3.47559 5.94972 3.47365 5.95349 3.47174C5.95978 3.46851 5.96609 3.46532 5.97242 3.46215ZM6.00676 5.55934L3.90006 8.36933H7.01807L6.00676 5.55934ZM7.55792 9.86933H3.99902L10.3037 17.4987L7.55792 9.86933ZM13.7011 17.4952L20.0029 9.86933H16.4452L13.7011 17.4952ZM16.985 8.36933H20.102L17.9963 5.55897L16.985 8.36933ZM16.694 4.7478H13.5018L15.659 7.62412L16.694 4.7478ZM14.3429 8.36933L12.0019 5.24794L9.66084 8.36933H14.3429ZM8.34428 7.62474L7.30888 4.7478H10.502L8.34428 7.62474ZM9.15211 9.86933H14.8511L12.0018 17.7874L9.15211 9.86933Z" fill="#1B1A16"/>
</svg>
