<svg width="24" height="24" viewBox="0 0 24 24" fill="none" xmlns="http://www.w3.org/2000/svg">
<path fill-rule="evenodd" clip-rule="evenodd" d="M17.3085 3.63727C17.2182 3.54919 17.097 3.49993 16.9708 3.5L4.60003 3.5C4.47185 3.5 4.34891 3.55092 4.25826 3.64157C4.16762 3.73221 4.1167 3.85515 4.1167 3.98333V20.0167C4.1167 20.1449 4.16762 20.2678 4.25826 20.3584C4.34891 20.4491 4.47184 20.5 4.60003 20.5H19.4001C19.5282 20.5 19.6512 20.4491 19.7418 20.3584C19.8325 20.2678 19.8834 20.1449 19.8834 20.0167V6.35387C19.8834 6.35385 19.8834 6.3539 19.8834 6.35387C19.8834 6.28939 19.8705 6.22549 19.8454 6.16608C19.8203 6.10665 19.7836 6.05283 19.7374 6.00781L17.3085 3.63727ZM16.9704 2C17.4879 1.99982 17.9851 2.20195 18.3556 2.56327L20.7844 4.93366C20.974 5.11842 21.1246 5.33924 21.2275 5.58313C21.3303 5.82702 21.3834 6.08903 21.3834 6.35373V20.0167C21.3834 20.5427 21.1744 21.0471 20.8025 21.4191C20.4305 21.791 19.9261 22 19.4001 22H4.60003C4.07402 22 3.56955 21.791 3.1976 21.4191C2.82566 21.0471 2.6167 20.5427 2.6167 20.0167V3.98333C2.6167 3.45732 2.82566 2.95285 3.1976 2.5809C3.56955 2.20896 4.07402 2 4.60003 2H16.9704C16.9704 2 16.9703 2 16.9704 2ZM7.54525 7.54523C8.72673 6.36375 10.3292 5.7 12 5.7C13.6709 5.7 15.2733 6.36375 16.4548 7.54523C17.6363 8.72671 18.3 10.3291 18.3 12C18.3 13.6709 17.6363 15.2733 16.4548 16.4548C15.2733 17.6363 13.6709 18.3 12 18.3C10.3292 18.3 8.72673 17.6363 7.54525 16.4548C6.36377 15.2733 5.70002 13.6709 5.70002 12C5.70002 10.3291 6.36377 8.72671 7.54525 7.54523ZM12 7.2C10.727 7.2 9.50608 7.70571 8.60591 8.60589C7.70573 9.50606 7.20002 10.727 7.20002 12C7.20002 13.273 7.70573 14.4939 8.60591 15.3941C9.50608 16.2943 10.727 16.8 12 16.8C13.2731 16.8 14.494 16.2943 15.3941 15.3941C16.2943 14.4939 16.8 13.273 16.8 12C16.8 10.727 16.2943 9.50606 15.3941 8.60589C14.494 7.70571 13.2731 7.2 12 7.2ZM10.1615 10.1615C10.6491 9.67393 11.3105 9.4 12 9.4C12.6896 9.4 13.3509 9.67393 13.8385 10.1615C14.3261 10.6491 14.6 11.3104 14.6 12C14.6 12.6896 14.3261 13.3509 13.8385 13.8385C13.3509 14.3261 12.6896 14.6 12 14.6C11.3105 14.6 10.6491 14.3261 10.1615 13.8385C9.67395 13.3509 9.40002 12.6896 9.40002 12C9.40002 11.3104 9.67395 10.6491 10.1615 10.1615ZM12 10.9C11.7083 10.9 11.4285 11.0159 11.2222 11.2222C11.0159 11.4285 10.9 11.7083 10.9 12C10.9 12.2917 11.0159 12.5715 11.2222 12.7778C11.4285 12.9841 11.7083 13.1 12 13.1C12.2918 13.1 12.5716 12.9841 12.7778 12.7778C12.9841 12.5715 13.1 12.2917 13.1 12C13.1 11.7083 12.9841 11.4285 12.7778 11.2222C12.5716 11.0159 12.2918 10.9 12 10.9Z" fill="#1B1A16"/>
</svg>
