<svg width="24" height="25" viewBox="0 0 24 25" fill="none" xmlns="http://www.w3.org/2000/svg">
<path d="M21.737 7.01901C21.565 6.71901 21.317 6.46801 21.016 6.29101L14.227 2.33201C13.993 2.19601 13.706 2.19601 13.471 2.33201L6.68099 6.28901C6.38099 6.46501 6.13199 6.71601 5.96099 7.01601C5.78899 7.31701 5.69899 7.66101 5.69999 8.00501V12.846C5.69999 13.26 6.03599 13.596 6.44999 13.596C6.86399 13.596 7.19999 13.26 7.19999 12.846V8.00101C7.19999 7.91701 7.22099 7.83401 7.26399 7.76001C7.30599 7.68701 7.36699 7.62501 7.43899 7.58301L13.85 3.84701L20.259 7.58501C20.333 7.62801 20.394 7.69001 20.437 7.76401C20.478 7.83701 20.5 7.92101 20.5 8.00801V17.779C20.5 17.908 20.449 18.029 20.357 18.122C20.268 18.212 20.144 18.263 20.016 18.263H12.257C11.843 18.263 11.507 18.599 11.507 19.013C11.507 19.427 11.843 19.763 12.257 19.763H20.016C20.539 19.763 21.051 19.551 21.418 19.182C21.794 18.807 22 18.309 22 17.779V8.00801C22 7.66001 21.909 7.31801 21.737 7.01901Z" fill="#1B1A16"/>
<path d="M3.60799 18.814C3.31499 19.107 3.31499 19.582 3.60799 19.875C3.75399 20.021 3.94599 20.095 4.13799 20.095C4.32999 20.095 4.52199 20.022 4.66799 19.875C5.61899 18.924 7.27799 18.923 8.23199 19.875C8.52499 20.168 8.99999 20.168 9.29299 19.875C9.58499 19.582 9.58499 19.107 9.29299 18.814C7.77199 17.295 5.12599 17.295 3.60799 18.814Z" fill="#1B1A16"/>
<path d="M6.44999 14.871C4.85199 14.871 3.34899 15.493 2.21999 16.623C1.92699 16.916 1.92699 17.391 2.21999 17.684C2.51299 17.977 2.98799 17.977 3.28099 17.684C4.12799 16.837 5.25299 16.372 6.45099 16.372C7.64799 16.372 8.77399 16.838 9.61999 17.684C9.76599 17.83 9.95799 17.904 10.15 17.904C10.342 17.904 10.534 17.831 10.68 17.684C10.973 17.391 10.973 16.916 10.68 16.623C9.54999 15.493 8.04799 14.871 6.44999 14.871Z" fill="#1B1A16"/>
<path d="M7.50799 21.171C7.50799 20.587 7.03299 20.112 6.44999 20.112C5.86699 20.113 5.39199 20.587 5.39199 21.171C5.39199 21.754 5.86699 22.229 6.44999 22.229C7.03299 22.229 7.50799 21.754 7.50799 21.171Z" fill="#1B1A16"/>
</svg>
