<svg width="24" height="24" viewBox="0 0 24 24" fill="none" xmlns="http://www.w3.org/2000/svg">
<path fill-rule="evenodd" clip-rule="evenodd" d="M4.87781 5.98133V3.50818H2.75C2.33579 3.50818 2 3.17239 2 2.75818C2 2.34397 2.33579 2.00818 2.75 2.00818H5.51666C5.55293 2.00279 5.59004 2 5.62781 2C5.66557 2 5.70269 2.00279 5.73895 2.00818H8.50556C8.91977 2.00818 9.25556 2.34397 9.25556 2.75818C9.25556 3.17239 8.91977 3.50818 8.50556 3.50818H6.37781V5.97613C6.38089 6.16487 6.44361 6.34783 6.55703 6.49879C6.66921 6.6481 6.82525 6.75848 7.0032 6.81458L7.54045 6.95896C8.11625 5.04147 9.89496 3.64441 12 3.64441C14.105 3.64441 15.8837 5.04148 16.4595 6.95898L16.9968 6.81458C17.1748 6.75848 17.3308 6.6481 17.443 6.49879C17.5564 6.34783 17.6191 6.16486 17.6222 5.97613V3.50818H15.4944C15.0802 3.50818 14.7444 3.17239 14.7444 2.75818C14.7444 2.34397 15.0802 2.00818 15.4944 2.00818H18.2611C18.2973 2.00279 18.3344 2 18.3722 2C18.41 2 18.4471 2.00279 18.4834 2.00818H21.25C21.6642 2.00818 22 2.34397 22 2.75818C22 3.17239 21.6642 3.50818 21.25 3.50818H19.1222V5.98133V5.99037L19.1222 5.99037C19.116 6.49925 18.9479 6.99294 18.6422 7.39981C18.3365 7.80668 17.9092 8.10557 17.4221 8.25312C17.4145 8.25541 17.4069 8.25758 17.3993 8.25963L16.6528 8.46025C16.6367 8.93704 16.5489 9.39564 16.3998 9.82562L17.879 10.1583L17.8924 10.1613L17.8924 10.1615C18.2011 10.2369 18.4918 10.373 18.7474 10.5619C19.003 10.7508 19.2184 10.9887 19.3811 11.2617C19.5438 11.5348 19.6505 11.8374 19.695 12.1521C19.7395 12.4668 19.7209 12.7872 19.6404 13.0947L19.635 13.1139L19.2979 14.2732C19.1823 14.671 18.7661 14.8996 18.3683 14.784C17.9706 14.6683 17.7419 14.2521 17.8576 13.8544L18.1915 12.7061C18.2198 12.5938 18.226 12.477 18.2098 12.3622C18.1932 12.2447 18.1533 12.1316 18.0925 12.0296C18.0317 11.9276 17.9513 11.8388 17.8558 11.7682C17.7619 11.6988 17.6553 11.6485 17.5421 11.62L15.6471 11.1938C14.7942 12.2672 13.4775 12.9555 12 12.9555C10.5225 12.9555 9.20571 12.2672 8.35285 11.1938L6.45787 11.62C6.34466 11.6485 6.23808 11.6988 6.14418 11.7682C6.0487 11.8388 5.96823 11.9276 5.90746 12.0296C5.84668 12.1316 5.80682 12.2447 5.79019 12.3622C5.77396 12.477 5.78018 12.5938 5.8085 12.7061L6.1424 13.8544C6.25805 14.2521 6.02938 14.6683 5.63164 14.784C5.2339 14.8996 4.81771 14.671 4.70206 14.2732L4.36495 13.1139L4.35963 13.0947C4.27904 12.7872 4.26046 12.4668 4.30497 12.1521C4.34949 11.8374 4.45621 11.5348 4.6189 11.2617C4.7816 10.9887 4.99702 10.7508 5.25261 10.5619C5.50819 10.373 5.79883 10.2369 6.10757 10.1615L6.12096 10.1582L6.12099 10.1583L7.60016 9.82563C7.45108 9.39564 7.36326 8.93703 7.34713 8.46023L6.60071 8.25963C6.59308 8.25758 6.58548 8.25541 6.57792 8.25312C6.09086 8.10557 5.66349 7.80668 5.35779 7.39981C5.0521 6.99293 4.88399 6.49925 4.87786 5.99037L4.87775 5.98133H4.87781ZM8.63885 20.5V14.6H9.60553V17.55C9.60553 17.9642 9.94132 18.3 10.3555 18.3H13.6444C14.0586 18.3 14.3944 17.9642 14.3944 17.55V14.6H15.3611V20.5H8.63885ZM12.8944 14.6V16.8H11.1055V14.6H12.8944ZM13.6444 13.1H15.7C16.3412 13.1 16.8611 13.6198 16.8611 14.2611V20.8389C16.8611 21.4801 16.3412 22 15.7 22H8.29997C7.6587 22 7.13885 21.4801 7.13885 20.8389V14.2611C7.13885 13.6198 7.6587 13.1 8.29997 13.1H10.3555H13.6444ZM12.1334 8.30002C12.1334 8.37365 12.0737 8.43335 12 8.43335C11.9264 8.43335 11.8667 8.37365 11.8667 8.30002C11.8667 8.22638 11.9264 8.16668 12 8.16668C12.0737 8.16668 12.1334 8.22638 12.1334 8.30002ZM12 6.93335C11.2452 6.93335 10.6334 7.54523 10.6334 8.30002C10.6334 9.05481 11.2452 9.66668 12 9.66668C12.7548 9.66668 13.3667 9.05481 13.3667 8.30002C13.3667 7.54523 12.7548 6.93335 12 6.93335ZM12 5.14441C10.2572 5.14441 8.84442 6.5572 8.84442 8.29996C8.84442 10.0427 10.2572 11.4555 12 11.4555C13.7427 11.4555 15.1555 10.0427 15.1555 8.29996C15.1555 6.5572 13.7427 5.14441 12 5.14441Z" fill="#1B1A16"/>
</svg>
