<svg width="24" height="24" viewBox="0 0 24 24" fill="none" xmlns="http://www.w3.org/2000/svg">
<path fill-rule="evenodd" clip-rule="evenodd" d="M5.7 3.98337C5.7 3.56915 6.03579 3.23337 6.45 3.23337H7.68333C8.09755 3.23337 8.43333 3.56915 8.43333 3.98337C8.43333 4.39758 8.09755 4.73337 7.68333 4.73337H6.45C6.03579 4.73337 5.7 4.39758 5.7 3.98337ZM15.5667 3.98337C15.5667 3.56915 15.9025 3.23337 16.3167 3.23337H17.55C17.9642 3.23337 18.3 3.56915 18.3 3.98337C18.3 4.39758 17.9642 4.73337 17.55 4.73337H16.3167C15.9025 4.73337 15.5667 4.39758 15.5667 3.98337ZM19.2667 3.98337C19.2667 3.56915 19.6025 3.23337 20.0167 3.23337H21.25C21.6642 3.23337 22 3.56915 22 3.98337C22 4.39758 21.6642 4.73337 21.25 4.73337H20.0167C19.6025 4.73337 19.2667 4.39758 19.2667 3.98337ZM2 3.9834C2 3.56919 2.33579 3.2334 2.75 3.2334H3.98333C4.39755 3.2334 4.73333 3.56919 4.73333 3.9834C4.73333 4.39762 4.39755 4.7334 3.98333 4.7334H2.75C2.33579 4.7334 2 4.39762 2 3.9834ZM5.21667 4.4667C5.63088 4.4667 5.96667 4.80249 5.96667 5.2167V6.93338H6.44013L6.46027 6.93365C6.86742 6.94459 7.27214 6.86772 7.64693 6.70827C8.01835 6.55025 8.35172 6.31479 8.62482 6.01768C9.04106 5.53325 9.55674 5.14406 10.1368 4.87661C10.721 4.60726 11.3567 4.46779 12 4.46779C12.6433 4.46779 13.279 4.60726 13.8632 4.87661C14.4433 5.14406 14.9589 5.53324 15.3752 6.01765C15.6483 6.31473 15.9817 6.55017 16.3531 6.70819C16.7279 6.86765 17.1326 6.94454 17.5398 6.93365L17.5599 6.93338H18.0333V5.2167C18.0333 4.80249 18.3691 4.4667 18.7833 4.4667C19.1975 4.4667 19.5333 4.80249 19.5333 5.2167V6.93338H20.0167C20.5427 6.93338 21.0471 7.14234 21.4191 7.51429C21.791 7.88624 22 8.39071 22 8.91672C22 9.44273 21.791 9.9472 21.4191 10.3191C21.0471 10.6911 20.5427 10.9001 20.0167 10.9001H17.5599L17.5398 10.8998C17.1326 10.8889 16.7279 10.9658 16.3531 11.1252C15.9817 11.2833 15.6483 11.5187 15.3752 11.8158C14.9589 12.3002 14.4433 12.6894 13.8632 12.9568C13.279 13.2262 12.6433 13.3656 12 13.3656C11.3567 13.3656 10.721 13.2262 10.1368 12.9568C9.55674 12.6894 9.04106 12.3002 8.62482 11.8158C8.35173 11.5186 8.01835 11.2832 7.64693 11.1252C7.27214 10.9657 6.86742 10.8888 6.46027 10.8998L6.44013 10.9001H3.98333C3.45732 10.9001 2.95285 10.6911 2.5809 10.3191C2.20896 9.9472 2 9.44273 2 8.91672C2 8.3907 2.20896 7.88624 2.5809 7.51429C2.95285 7.14234 3.45732 6.93338 3.98333 6.93338H4.46667V5.2167C4.46667 4.80249 4.80245 4.4667 5.21667 4.4667ZM12 5.96779C11.5735 5.96779 11.1522 6.06025 10.7649 6.2388C10.3776 6.41736 10.0336 6.67775 9.75669 7.00205C9.75139 7.00826 9.74599 7.01437 9.74049 7.0204C9.32089 7.48046 8.80714 7.84477 8.23416 8.08854C7.66443 8.33093 7.04944 8.4485 6.43055 8.43338H3.98333C3.85515 8.43338 3.73221 8.4843 3.64157 8.57495C3.55092 8.66559 3.5 8.78853 3.5 8.91672C3.5 9.04491 3.55092 9.16785 3.64157 9.25849C3.73221 9.34913 3.85515 9.40005 3.98333 9.40005H6.43053C7.04943 9.38493 7.66443 9.5025 8.23416 9.74489C8.80714 9.98867 9.32089 10.353 9.74049 10.813C9.74599 10.8191 9.75139 10.8252 9.75669 10.8314C10.0336 11.1557 10.3776 11.4161 10.7649 11.5946C11.1522 11.7732 11.5735 11.8656 12 11.8656C12.4265 11.8656 12.8478 11.7732 13.2351 11.5946C13.6224 11.4161 13.9664 11.1557 14.2433 10.8314C14.2486 10.8252 14.254 10.819 14.2596 10.813C14.6792 10.353 15.1929 9.98873 15.7659 9.74497C16.3356 9.50258 16.9506 9.38499 17.5694 9.40005H20.0167C20.1449 9.40005 20.2678 9.34913 20.3584 9.25849C20.4491 9.16785 20.5 9.04491 20.5 8.91672C20.5 8.78853 20.4491 8.66559 20.3584 8.57495C20.2678 8.4843 20.1449 8.43338 20.0167 8.43338H17.5694C16.9506 8.44844 16.3356 8.33085 15.7659 8.08846C15.1929 7.84471 14.6792 7.48045 14.2596 7.02046C14.254 7.01441 14.2486 7.00828 14.2433 7.00205C13.9664 6.67775 13.6224 6.41736 13.2351 6.2388C12.8478 6.06025 12.4265 5.96779 12 5.96779ZM8.33839 12.2515C8.54011 12.6133 8.41035 13.0701 8.04858 13.2718C7.2622 13.7102 6.57464 14.3061 6.02882 15.0221C5.48403 15.7368 5.09212 16.5559 4.87742 17.4285C4.86129 17.4999 4.86117 17.574 4.87707 17.6455C4.89322 17.718 4.92549 17.786 4.97149 17.8444C5.01749 17.9028 5.07604 17.9502 5.1428 17.9829C5.20891 18.0153 5.2814 18.0325 5.355 18.0334H6.93333V17.5501C6.93333 17.1359 7.26912 16.8001 7.68333 16.8001C8.09755 16.8001 8.43333 17.1359 8.43333 17.5501V20.0167C8.43333 20.431 8.09755 20.7667 7.68333 20.7667C7.26912 20.7667 6.93333 20.431 6.93333 20.0167V19.5334H5.34586C5.04654 19.5311 4.75156 19.4616 4.48276 19.3299C4.21396 19.1981 3.97824 19.0076 3.79305 18.7725C3.60785 18.5373 3.47793 18.2635 3.4129 17.9713C3.34787 17.6791 3.3494 17.3761 3.41737 17.0846L3.41931 17.0763C3.68283 16.0016 4.16509 14.9928 4.83588 14.1128C5.50668 13.2328 6.35166 12.5005 7.31809 11.9617C7.67986 11.7599 8.13667 11.8897 8.33839 12.2515ZM15.6616 12.2515C15.8633 11.8897 16.3201 11.7599 16.6819 11.9617C17.6483 12.5005 18.4933 13.2328 19.1641 14.1128C19.8349 14.9928 20.3171 16.0016 20.5806 17.0763L20.5827 17.0846C20.6506 17.3761 20.6521 17.6791 20.5871 17.9713C20.5221 18.2635 20.3921 18.5373 20.207 18.7725C20.0218 19.0076 19.786 19.1981 19.5172 19.3299C19.2484 19.4616 18.9535 19.5311 18.6541 19.5334L18.6485 19.5334L17.0667 19.5334V20.0167C17.0667 20.431 16.7309 20.7667 16.3167 20.7667C15.9025 20.7667 15.5667 20.431 15.5667 20.0167V17.5501C15.5667 17.1359 15.9025 16.8001 16.3167 16.8001C16.7309 16.8001 17.0667 17.1359 17.0667 17.5501V18.0334H18.645C18.7186 18.0325 18.7911 18.0153 18.8572 17.9829C18.924 17.9502 18.9825 17.9028 19.0285 17.8444C19.0745 17.786 19.1068 17.718 19.1229 17.6455C19.1388 17.574 19.1387 17.4999 19.1226 17.4285C18.9079 16.5559 18.516 15.7368 17.9712 15.0221C17.4254 14.3061 16.7378 13.7102 15.9514 13.2718C15.5896 13.0701 15.4599 12.6133 15.6616 12.2515Z" fill="#1B1A16"/>
</svg>
