<svg width="24" height="24" viewBox="0 0 24 24" fill="none" xmlns="http://www.w3.org/2000/svg">
<path fill-rule="evenodd" clip-rule="evenodd" d="M5.21667 4.77512C5.63088 4.77512 5.96667 5.1109 5.96667 5.52512V6.00845H7.68333C8.09755 6.00845 8.43333 6.34424 8.43333 6.75845C8.43333 7.17266 8.09755 7.50845 7.68333 7.50845H2.75C2.33579 7.50845 2 7.17266 2 6.75845C2 6.34424 2.33579 6.00845 2.75 6.00845H4.46667V5.52512C4.46667 5.1109 4.80245 4.77512 5.21667 4.77512ZM18.7833 4.77512C19.1975 4.77512 19.5333 5.1109 19.5333 5.52512V6.00845H21.25C21.6642 6.00845 22 6.34424 22 6.75845C22 7.17266 21.6642 7.50845 21.25 7.50845H16.3167C15.9025 7.50845 15.5667 7.17266 15.5667 6.75845C15.5667 6.34424 15.9025 6.00845 16.3167 6.00845H18.0333V5.52512C18.0333 5.1109 18.3691 4.77512 18.7833 4.77512ZM10.1615 8.00331C10.6491 7.51571 11.3104 7.24178 12 7.24178C12.6896 7.24178 13.3509 7.51571 13.8385 8.00331C14.1448 8.3096 14.3668 8.68445 14.4895 9.09178H15.0833C15.7729 9.09178 16.4342 9.36571 16.9218 9.8533C17.228 10.1595 17.4499 10.5341 17.5727 10.9412C17.6926 10.9356 17.8065 10.8855 17.8918 10.8002C17.9824 10.7096 18.0333 10.5866 18.0333 10.4584V9.22512C18.0333 8.8109 18.3691 8.47512 18.7833 8.47512C19.1975 8.47512 19.5333 8.8109 19.5333 9.22512V10.4584C19.5333 10.9845 19.3244 11.4889 18.9524 11.8609C18.5859 12.2274 18.0906 12.4357 17.5729 12.4417C17.4501 12.849 17.2281 13.2239 16.9218 13.5303C16.4342 14.0179 15.7729 14.2918 15.0833 14.2918H14.6V15.3471C15.1725 15.4844 15.7014 15.7775 16.1245 16.2006C16.7278 16.8038 17.0667 17.622 17.0667 18.4751C17.0667 18.8893 16.7309 19.2251 16.3167 19.2251C15.9025 19.2251 15.5667 18.8893 15.5667 18.4751C15.5667 18.0198 15.3858 17.5832 15.0639 17.2612C14.8783 17.0757 14.6547 16.937 14.4113 16.8528C14.3147 17.0582 14.1826 17.2473 14.0191 17.4109C13.6471 17.7828 13.1427 17.9918 12.6167 17.9918H11.3833C10.8573 17.9918 10.3529 17.7828 9.9809 17.4109C9.81736 17.2473 9.68532 17.0582 9.58871 16.8528C9.34534 16.937 9.12169 17.0757 8.93613 17.2612C8.6142 17.5832 8.43333 18.0198 8.43333 18.4751C8.43333 18.8893 8.09755 19.2251 7.68333 19.2251C7.26912 19.2251 6.93333 18.8893 6.93333 18.4751C6.93333 17.622 7.27223 16.8038 7.87547 16.2006C8.29861 15.7775 8.82749 15.4844 9.4 15.3471V14.2918H8.91667C8.2271 14.2918 7.56578 14.0179 7.07819 13.5303C6.77186 13.2239 6.54987 12.849 6.42715 12.4417C5.9094 12.4357 5.41413 12.2274 5.04757 11.8609C4.67562 11.4889 4.46667 10.9845 4.46667 10.4584V9.22512C4.46667 8.8109 4.80245 8.47512 5.21667 8.47512C5.63088 8.47512 5.96667 8.8109 5.96667 9.22512V10.4584C5.96667 10.5866 6.01759 10.7096 6.10823 10.8002C6.19352 10.8855 6.3074 10.9356 6.42734 10.9413C6.55011 10.5341 6.77203 10.1595 7.07819 9.8533C7.56578 9.36571 8.2271 9.09178 8.91667 9.09178H9.51052C9.63325 8.68445 9.85523 8.3096 10.1615 8.00331ZM9.51052 10.5918H8.91667C8.62493 10.5918 8.34514 10.7077 8.13885 10.914C7.93256 11.1203 7.81667 11.4 7.81667 11.6918C7.81667 11.9835 7.93256 12.2633 8.13885 12.4696C8.34514 12.6759 8.62493 12.7918 8.91667 12.7918H15.0833C15.3751 12.7918 15.6549 12.6759 15.8612 12.4696C16.0674 12.2633 16.1833 11.9835 16.1833 11.6918C16.1833 11.4 16.0674 11.1203 15.8612 10.914C15.6549 10.7077 15.3751 10.5918 15.0833 10.5918H14.4895C14.3668 10.9991 14.1448 11.374 13.8385 11.6803C13.3509 12.1679 12.6896 12.4418 12 12.4418C11.3104 12.4418 10.6491 12.1679 10.1615 11.6803C9.85523 11.374 9.63325 10.9991 9.51052 10.5918ZM10.9 14.2918V16.0084C10.9 16.1366 10.9509 16.2596 11.0416 16.3502C11.1322 16.4409 11.2551 16.4918 11.3833 16.4918H12.6167C12.7449 16.4918 12.8678 16.4409 12.9584 16.3502C13.0491 16.2596 13.1 16.1366 13.1 16.0084V14.2918H10.9ZM12 8.74178C11.7083 8.74178 11.4285 8.85768 11.2222 9.06397C11.0159 9.27026 10.9 9.55005 10.9 9.84178C10.9 10.1335 11.0159 10.4133 11.2222 10.6196C11.4285 10.8259 11.7083 10.9418 12 10.9418C12.2917 10.9418 12.5715 10.8259 12.7778 10.6196C12.9841 10.4133 13.1 10.1335 13.1 9.84178C13.1 9.55005 12.9841 9.27026 12.7778 9.06397C12.5715 8.85768 12.2917 8.74178 12 8.74178Z" fill="#1B1A16"/>
</svg>
