<svg width="24" height="24" viewBox="0 0 24 24" fill="none" xmlns="http://www.w3.org/2000/svg">
<path fill-rule="evenodd" clip-rule="evenodd" d="M11.0648 2.06184C11.4449 2.22654 11.6195 2.66815 11.4548 3.04821L10.3057 5.70001H19.1542L20.5618 2.4518C20.7265 2.07174 21.1681 1.89715 21.5482 2.06184C21.9282 2.22654 22.1028 2.66815 21.9381 3.04821L20.3416 6.73246C20.3374 6.74285 20.3329 6.75313 20.3282 6.76329L18.7383 10.4324C18.7341 10.4428 18.7296 10.4531 18.7249 10.4633L17.1349 14.1324C17.1307 14.1428 17.1263 14.1531 17.1216 14.1633L15.5316 17.8324C15.5274 17.8428 15.5229 17.8531 15.5182 17.8633L13.9214 21.5482C13.7568 21.9283 13.3151 22.1029 12.9351 21.9382C12.555 21.7735 12.3804 21.3319 12.5451 20.9518L13.6942 18.3H4.84567L3.43811 21.5482C3.27342 21.9283 2.83181 22.1029 2.45174 21.9382C2.07168 21.7735 1.89709 21.3319 2.06178 20.9518L3.65827 17.2676C3.66251 17.2572 3.66698 17.2469 3.67167 17.2367L5.26159 13.5676C5.26584 13.5572 5.27031 13.5469 5.27501 13.5367L6.86492 9.86762C6.86917 9.85718 6.87364 9.84686 6.87834 9.83666L8.46826 6.16762C8.4725 6.15718 8.47698 6.14686 8.48167 6.13666L10.0784 2.4518C10.2431 2.07174 10.6848 1.89715 11.0648 2.06184ZM9.65567 7.20001L8.70234 9.40001H17.5509L18.5042 7.20001H9.65567ZM16.9009 10.9H8.05234L7.099 13.1H15.9476L16.9009 10.9ZM15.2976 14.6H6.449L5.49567 16.8H14.3442L15.2976 14.6Z" fill="#1B1A16"/>
</svg>
