<svg width="24" height="24" viewBox="0 0 24 24" fill="none" xmlns="http://www.w3.org/2000/svg">
<path fill-rule="evenodd" clip-rule="evenodd" d="M3.98333 3.5C3.73977 3.5 3.5 3.73977 3.5 3.98333V7.68333C3.5 7.9269 3.73977 8.16667 3.98333 8.16667H11.3833C11.6602 8.16667 11.8667 7.97662 11.8667 7.68333V3.98333C11.8667 3.73977 11.6269 3.5 11.3833 3.5H3.98333ZM8.43333 9.66667H11.3833C12.4221 9.66667 13.3667 8.87004 13.3667 7.68333V3.98333C13.3667 2.91134 12.4553 2 11.3833 2H3.98333C2.91134 2 2 2.91134 2 3.98333V7.68333C2 8.75532 2.91134 9.66667 3.98333 9.66667H6.93333V10.6333H3.16111C2.86734 10.6333 2.56425 10.7345 2.33273 10.9661C2.1012 11.1976 2 11.5007 2 11.7944V21.25C2 21.6642 2.33579 22 2.75 22C3.16421 22 3.5 21.6642 3.5 21.25V15.4222H13.1V18.7605C13.1 19.0493 13.1934 19.3533 13.4186 19.5909C13.6472 19.8322 13.9548 19.9444 14.2611 19.9444H20.5V21.2499C20.5 21.6641 20.8358 21.9999 21.25 21.9999C21.6642 21.9999 22 21.6641 22 21.2499V11.7944C22 11.5007 21.8988 11.1976 21.6673 10.9661C21.4357 10.7345 21.1327 10.6333 20.8389 10.6333H8.43333V9.66667ZM13.1 12.1333H3.5V13.9222H13.1V12.1333ZM14.6 12.1333H20.5V18.4444H14.6V12.1333ZM14.95 6.5322C14.95 6.11799 15.2858 5.7822 15.7 5.7822H20.2222C20.6364 5.7822 20.9722 6.11799 20.9722 6.5322C20.9722 6.94641 20.6364 7.2822 20.2222 7.2822H15.7C15.2858 7.2822 14.95 6.94641 14.95 6.5322ZM14.95 8.99887C14.95 8.58466 15.2858 8.24887 15.7 8.24887H20.2222C20.6364 8.24887 20.9722 8.58466 20.9722 8.99887C20.9722 9.41308 20.6364 9.74887 20.2222 9.74887H15.7C15.2858 9.74887 14.95 9.41308 14.95 8.99887ZM16.5533 13.85C16.5533 13.4358 16.8891 13.1 17.3033 13.1H17.7966C18.2108 13.1 18.5466 13.4358 18.5466 13.85C18.5466 14.2642 18.2108 14.6 17.7966 14.6H17.3033C16.8891 14.6 16.5533 14.2642 16.5533 13.85ZM16.5533 16.7278C16.5533 16.3136 16.8891 15.9778 17.3033 15.9778H17.7966C18.2108 15.9778 18.5466 16.3136 18.5466 16.7278C18.5466 17.142 18.2108 17.4778 17.7966 17.4778H17.3033C16.8891 17.4778 16.5533 17.142 16.5533 16.7278Z" fill="#1B1A16"/>
</svg>
