<svg width="24" height="24" viewBox="0 0 24 24" fill="none" xmlns="http://www.w3.org/2000/svg">
<path fill-rule="evenodd" clip-rule="evenodd" d="M5.06063 3.5C4.79369 3.5 4.5773 3.7164 4.5773 3.98333V8.91667C4.5773 9.1836 4.79369 9.4 5.06063 9.4H7.51049C7.52129 9.39976 7.53212 9.39976 7.54298 9.4H9.97828C9.98915 9.39976 9.99998 9.39976 10.0108 9.4H12.4606C12.7276 9.4 12.944 9.1836 12.944 8.91667V3.98333C12.944 3.7164 12.7276 3.5 12.4606 3.5H5.06063ZM10.9545 10.9H12.4606C13.556 10.9 14.444 10.012 14.444 8.91667V3.98333C14.444 2.88797 13.556 2 12.4606 2H5.06063C3.96527 2 3.0773 2.88797 3.0773 3.98333V8.91667C3.0773 10.012 3.96527 10.9 5.06063 10.9H6.56672L6.32505 11.8667H3.8806C3.62981 11.8369 3.37512 11.879 3.14646 11.9887C2.89392 12.11 2.68596 12.3076 2.55208 12.5537C2.44166 12.7558 2.38379 12.9824 2.38379 13.2128C2.38379 13.4223 2.43167 13.6287 2.52342 13.8165L3.12499 15.4207C3.13541 15.4484 3.14746 15.4756 3.16109 15.5019C3.28188 15.7354 3.46707 15.9294 3.69472 16.0608C3.91641 16.1889 4.16932 16.2524 4.42492 16.2444H5.47059L3.93542 21.0205C3.80867 21.4149 4.02559 21.8373 4.41993 21.964C4.81428 22.0908 5.23671 21.8739 5.36346 21.4795L7.04617 16.2444H17.0527L18.7354 21.4795C18.8622 21.8739 19.2846 22.0908 19.679 21.964C20.0733 21.8373 20.2902 21.4149 20.1635 21.0205L18.6283 16.2444H19.7208L19.7254 16.2444C19.9758 16.2429 20.221 16.173 20.4346 16.0423C20.6483 15.9116 20.8221 15.725 20.9374 15.5027C20.9574 15.4642 20.974 15.424 20.987 15.3827L21.4872 13.7947C21.5722 13.6128 21.6165 13.4142 21.6165 13.2128C21.6165 12.982 21.5584 12.7549 21.4475 12.5525L21.4476 12.5524L21.4423 12.5431C21.3241 12.3343 21.1518 12.1613 20.9435 12.0423C20.7374 11.9246 20.5037 11.864 20.2665 11.8667H20.1995V9.3278C20.1995 8.91358 19.8637 8.5778 19.4495 8.5778H19.2316L19.7552 6.8761C19.877 6.4802 19.6548 6.06052 19.2589 5.9387C18.863 5.81689 18.4433 6.03907 18.3215 6.43497L17.6622 8.5778H16.1606C15.7464 8.5778 15.4106 8.91358 15.4106 9.3278V11.8667H11.1962L10.9545 10.9ZM9.40839 10.9H8.11288L7.87122 11.8667H9.65005L9.40839 10.9ZM10.5936 13.3667H6.92771C6.91674 13.3669 6.90573 13.3669 6.89468 13.3667H3.95674L4.47341 14.7444H6.48312C6.49386 14.7442 6.50463 14.7442 6.51543 14.7444H17.5835C17.5943 14.7442 17.605 14.7442 17.6158 14.7444H19.6154L20.0494 13.3667H19.4559C19.4538 13.3667 19.4517 13.3667 19.4495 13.3667H16.1606C16.1585 13.3667 16.1564 13.3667 16.1542 13.3667H10.6266C10.6155 13.3669 10.6045 13.3669 10.5936 13.3667ZM18.6995 11.8667H16.9106V10.0778H18.201C18.2113 10.078 18.2215 10.078 18.2317 10.0778H18.6995V11.8667Z" fill="#1B1A16"/>
</svg>
