<svg width="24" height="24" viewBox="0 0 24 24" fill="none" xmlns="http://www.w3.org/2000/svg">
<path fill-rule="evenodd" clip-rule="evenodd" d="M13.8969 2.15304C14.1407 2.05201 14.402 2 14.6659 2C14.9299 2 15.1912 2.05201 15.435 2.15304C15.6788 2.25408 15.9004 2.40217 16.0869 2.58886L21.4166 7.91853C21.7901 8.29605 21.9989 8.8061 21.9974 9.33716C21.9959 9.86814 21.7843 10.3769 21.4087 10.7523C21.4087 10.7523 21.4088 10.7522 21.4087 10.7523L18.6933 13.4677L18.6828 13.478C17.6694 14.4525 16.4203 15.147 15.0578 15.4938C13.8236 15.8079 12.5346 15.8269 11.2949 15.5515L5.43292 21.4111C5.24635 21.5978 5.02483 21.7459 4.78102 21.847C4.5372 21.948 4.27586 22 4.01194 22C3.74801 22 3.48667 21.948 3.24286 21.847C2.99904 21.7459 2.77752 21.5978 2.59096 21.4111C2.40443 21.2247 2.25646 21.0033 2.15549 20.7596C2.05445 20.5158 2.00244 20.2544 2.00244 19.9905C2.00244 19.7266 2.05445 19.4652 2.15549 19.2214C2.25652 18.9776 2.40462 18.7561 2.5913 18.5695L8.44771 12.7107C8.17048 11.4685 8.1888 10.1766 8.50362 8.93958C8.85038 7.57713 9.54496 6.32806 10.5194 5.31464L10.5297 5.30408L13.245 2.58886C13.4315 2.40217 13.653 2.25408 13.8969 2.15304ZM9.3018 13.9875L6.85207 16.4382L7.5642 17.1504L10.0149 14.7006L9.3018 13.9875ZM11.4968 14.0517C12.5445 14.3058 13.6395 14.3001 14.6862 14.0337C15.7935 13.7518 16.8089 13.1879 17.6333 12.3969L20.3433 9.68689C20.4373 9.59304 20.4904 9.46565 20.4907 9.33289C20.4911 9.20064 20.4393 9.07359 20.3466 8.97932C20.3462 8.97896 20.3459 8.9786 20.3455 8.97823L15.0214 3.65408C14.9747 3.60741 14.9192 3.57022 14.8582 3.54496C14.7973 3.5197 14.7319 3.50669 14.6659 3.50669C14.6 3.50669 14.5346 3.5197 14.4737 3.54496C14.4127 3.57022 14.3573 3.60724 14.3107 3.65391L11.6005 6.36411C10.8095 7.18855 10.2456 8.2039 9.96376 9.3112C9.69737 10.3579 9.69165 11.4529 9.94573 12.5007L11.4968 14.0517ZM6.49859 18.2155L5.78689 17.5039L3.65663 19.635C3.60996 19.6816 3.57266 19.7373 3.5474 19.7982C3.52214 19.8592 3.50914 19.9245 3.50914 19.9905C3.50914 20.0565 3.52214 20.1218 3.5474 20.1828C3.57266 20.2437 3.60968 20.2991 3.65635 20.3457C3.70299 20.3924 3.75871 20.4298 3.81967 20.455C3.88062 20.4803 3.94596 20.4933 4.01194 20.4933C4.07791 20.4933 4.14325 20.4803 4.20421 20.455C4.26516 20.4298 4.32054 20.3928 4.36718 20.3461L6.49859 18.2155ZM15.1986 5.25212C15.4928 5.54628 15.4929 6.02327 15.1987 6.31751L12.0916 9.42549C11.7974 9.71973 11.3204 9.71979 11.0262 9.42563C10.7319 9.13147 10.7319 8.65448 11.026 8.36024L14.1332 5.25226C14.4273 4.95802 14.9043 4.95795 15.1986 5.25212ZM16.974 7.02841C17.2682 7.32261 17.2682 7.79961 16.974 8.09381L13.8669 11.2009C13.5727 11.4951 13.0957 11.4951 12.8015 11.2009C12.5073 10.9067 12.5073 10.4298 12.8015 10.1356L15.9086 7.02841C16.2028 6.73421 16.6798 6.73421 16.974 7.02841ZM18.7503 8.80387C19.0445 9.09811 19.0444 9.57511 18.7502 9.86927L15.6422 12.9764C15.348 13.2706 14.871 13.2705 14.5768 12.9763C14.2827 12.682 14.2827 12.205 14.577 11.9109L17.6849 8.80373C17.9792 8.50957 18.4562 8.50963 18.7503 8.80387Z" fill="#1B1A16"/>
</svg>
