<svg width="24" height="24" viewBox="0 0 24 24" fill="none" xmlns="http://www.w3.org/2000/svg">
<path d="M5.20997 22C4.79489 21.9992 4.38392 21.9177 3.99997 21.76C3.60594 21.6006 3.24864 21.3624 2.94997 21.0599C2.65501 20.7743 2.41741 20.4349 2.24997 20.0599C2.07994 19.6514 1.99488 19.2125 1.99997 18.77C1.99799 18.3471 2.0831 17.9284 2.24997 17.54C2.42728 17.1433 2.68231 16.7863 2.99997 16.49L6.49997 13.54C5.95182 12.3581 5.69792 11.0612 5.75997 9.75995C5.8387 8.01335 6.47635 6.33821 7.57895 4.98134C8.68156 3.62448 10.1908 2.65763 11.8844 2.22326C13.5779 1.78888 15.3662 1.90995 16.9858 2.56861C18.6054 3.22727 19.9706 4.38871 20.8802 5.8818C21.7899 7.37489 22.196 9.12068 22.0386 10.862C21.8812 12.6032 21.1687 14.2479 20.006 15.5537C18.8434 16.8595 17.2921 17.7573 15.5806 18.1149C13.8692 18.4725 12.0882 18.271 10.5 17.54L7.53997 21C7.23322 21.319 6.86611 21.574 6.45997 21.75C6.06603 21.9219 5.63974 22.0071 5.20997 22ZM13.86 3.49995C12.1514 3.49809 10.5078 4.15494 9.27107 5.33391C8.03437 6.51287 7.29974 8.12319 7.21997 9.82995C7.16188 11.0642 7.44932 12.2902 8.04997 13.37C8.13341 13.5224 8.16205 13.6989 8.13111 13.87C8.10018 14.0411 8.01154 14.1963 7.87997 14.31L3.99997 17.6C3.85636 17.7515 3.74119 17.9276 3.65997 18.12C3.4866 18.5429 3.4866 19.017 3.65997 19.44C3.73373 19.6479 3.84946 19.8386 3.99997 20C4.16117 20.1581 4.3513 20.2837 4.55997 20.37C4.77105 20.4502 4.99421 20.4942 5.21997 20.5C5.44607 20.4973 5.66976 20.4533 5.87997 20.37C6.0852 20.2828 6.27188 20.1572 6.42997 20L9.68997 16.1299C9.80248 15.9968 9.95786 15.907 10.1294 15.8759C10.301 15.8449 10.478 15.8746 10.63 15.96C11.8913 16.6586 13.3452 16.9291 14.7734 16.7308C16.2016 16.5324 17.5268 15.8759 18.55 14.86C19.2132 14.2071 19.7317 13.4221 20.072 12.5559C20.4123 11.6897 20.5667 10.7617 20.5252 9.83199C20.4837 8.90228 20.2473 7.99168 19.8312 7.15925C19.4151 6.32682 18.8287 5.59114 18.11 4.99995C17.1575 4.20933 16.0051 3.69716 14.78 3.51995C14.4741 3.49311 14.1667 3.48643 13.86 3.49995Z" fill="#1B1A16"/>
<path d="M13.85 15.83C12.7272 15.8274 11.6304 15.4922 10.6981 14.8667C9.76571 14.2411 9.03966 13.3533 8.61164 12.3153C8.18361 11.2774 8.0728 10.1358 8.29321 9.03494C8.51361 7.93403 9.05534 6.92314 9.84997 6.12995C10.5113 5.46983 11.3253 4.98306 12.2197 4.71277C13.1142 4.44249 14.0615 4.39705 14.9777 4.58048C15.8939 4.76391 16.7507 5.17055 17.4722 5.76434C18.1937 6.35813 18.7575 7.12075 19.1137 7.98458C19.47 8.84842 19.6076 9.7868 19.5144 10.7165C19.4212 11.6463 19.1 12.5387 18.5794 13.3146C18.0588 14.0905 17.3548 14.7261 16.5298 15.1648C15.7049 15.6036 14.7844 15.832 13.85 15.83ZM13.85 5.96995C12.8875 5.98205 11.9588 6.32675 11.2215 6.94557C10.4842 7.56439 9.98374 8.41922 9.80494 9.36504C9.62615 10.3108 9.78006 11.2894 10.2406 12.1347C10.7011 12.9799 11.4398 13.6398 12.3315 14.0024C13.2232 14.365 14.2128 14.408 15.1325 14.124C16.0523 13.8401 16.8454 13.2467 17.3775 12.4445C17.9095 11.6424 18.1477 10.6808 18.0515 9.7231C17.9554 8.76534 17.5308 7.87035 16.85 7.18995C16.4547 6.8013 15.9856 6.49576 15.4704 6.29137C14.9551 6.08699 14.4042 5.9879 13.85 5.99995V5.96995Z" fill="#1B1A16"/>
<path d="M5.13997 19.61C5.04143 19.6104 4.94379 19.5912 4.85278 19.5534C4.76177 19.5156 4.67922 19.4601 4.60997 19.3899C4.46952 19.2493 4.39063 19.0587 4.39063 18.86C4.39063 18.6612 4.46952 18.4706 4.60997 18.33L5.47997 17.4599C5.62215 17.3275 5.81019 17.2553 6.00449 17.2588C6.19879 17.2622 6.38418 17.3409 6.52159 17.4783C6.65901 17.6157 6.73772 17.8011 6.74115 17.9954C6.74457 18.1897 6.67245 18.3778 6.53997 18.52L5.66997 19.3899C5.60073 19.4601 5.51818 19.5156 5.42717 19.5534C5.33615 19.5912 5.23851 19.6104 5.13997 19.61Z" fill="#1B1A16"/>
</svg>
