<svg width="24" height="24" viewBox="0 0 24 24" fill="none" xmlns="http://www.w3.org/2000/svg">
<path fill-rule="evenodd" clip-rule="evenodd" d="M12.0001 2C10.3722 2 8.90892 2.96952 7.88767 4.50138C6.98966 5.8484 6.45607 7.58357 6.34057 9.40002H4.6001C4.18588 9.40002 3.8501 9.73581 3.8501 10.15C3.8501 10.5642 4.18588 10.9 4.6001 10.9H6.31677V21.25C6.31677 21.6642 6.65256 22 7.06677 22C7.48099 22 7.81677 21.6642 7.81677 21.25V20.7667H16.1835V21.25C16.1835 21.6642 16.5193 22 16.9335 22C17.3477 22 17.6835 21.6642 17.6835 21.25V10.9H19.4001C19.8144 10.9 20.1501 10.5642 20.1501 10.15C20.1501 9.73581 19.8144 9.40002 19.4001 9.40002H17.6596C17.5441 7.58357 17.0105 5.8484 16.1125 4.50138C15.0913 2.96952 13.628 2 12.0001 2ZM16.1835 19.2667V15.6902C16.1601 15.7266 16.1364 15.7628 16.1125 15.7986C15.0913 17.3305 13.628 18.3 12.0001 18.3C10.3722 18.3 8.90892 17.3305 7.88767 15.7986C7.86378 15.7628 7.84015 15.7267 7.81677 15.6903V19.2667H16.1835ZM9.13575 5.33344C9.96486 4.08977 11.0112 3.5 12.0001 3.5C12.989 3.5 14.0353 4.08977 14.8645 5.33344C15.6938 6.57751 16.1834 8.30875 16.1834 10.15C16.1834 11.9912 15.6938 13.7225 14.8645 14.9666C14.0353 16.2102 12.989 16.8 12.0001 16.8C11.0112 16.8 9.96486 16.2102 9.13575 14.9666C8.30637 13.7225 7.81677 11.9912 7.81677 10.15C7.81677 8.30875 8.30637 6.57751 9.13575 5.33344Z" fill="#1B1A16"/>
</svg>
16.389 7.27495 16.725 7.61095 17.139 7.61095H19.8V8.39495H17.139C16.725 8.39495 16.389 8.73095 16.389 9.14495C16.389 9.55895 16.725 9.89495 17.139 9.89495H19.8V11.821H18.281C17.782 11.821 17.294 12.024 16.943 12.376C16.586 12.733 16.388 13.208 16.388 13.713V19.75H13.9V11.45C13.9 10.375 13.025 9.49995 11.95 9.49995ZM17.889 13.713C17.889 13.61 17.931 13.51 18.005 13.436C18.077 13.364 18.178 13.322 18.281 13.322H19.8V19.751H17.889V13.713Z" fill="#1B1A16"/>
<path d="M7.237 5.52295C6.884 5.87495 6.682 6.36195 6.682 6.86095C6.682 7.36695 6.879 7.84195 7.236 8.19895C7.593 8.55595 8.069 8.75295 8.574 8.75295C9.079 8.75295 9.554 8.55595 9.912 8.19895C10.27 7.84195 10.466 7.36595 10.466 6.86095C10.466 6.36295 10.264 5.87595 9.912 5.52395C9.197 4.80895 7.951 4.80895 7.237 5.52295ZM8.852 7.13795C8.704 7.28595 8.446 7.28695 8.297 7.13795C8.223 7.06395 8.182 6.96595 8.182 6.86095C8.182 6.75795 8.224 6.65695 8.297 6.58395C8.371 6.50995 8.469 6.46895 8.574 6.46895C8.679 6.46895 8.777 6.50995 8.851 6.58395C8.924 6.65695 8.966 6.75795 8.966 6.86095C8.966 6.96395 8.924 7.06495 8.852 7.13795Z" fill="#1B1A16"/>
</svg>
