<svg width="24" height="24" viewBox="0 0 24 24" fill="none" xmlns="http://www.w3.org/2000/svg">
<path fill-rule="evenodd" clip-rule="evenodd" d="M7.10922 4.02584C8.40634 2.72872 10.1656 2 12 2C13.8345 2 15.5937 2.72872 16.8909 4.02584C18.01 5.14496 18.706 6.60808 18.8759 8.16667L20.6329 8.16667H21.25C21.6642 8.16667 22 8.50245 22 8.91667C22 9.29564 21.7189 9.60897 21.3538 9.65953C21.1779 11.8763 20.2187 13.9679 18.6349 15.5517C17.0529 17.1338 14.964 18.0925 12.7499 18.27L12.75 20.5H15.7C16.1143 20.5 16.45 20.8358 16.45 21.25C16.45 21.6642 16.1143 22 15.7 22H8.30005C7.88584 22 7.55005 21.6642 7.55005 21.25C7.55005 20.8358 7.88584 20.5 8.30005 20.5H11.25L11.2499 18.27C9.03584 18.0926 6.94697 17.1338 5.36489 15.5517C3.78111 13.9679 2.82196 11.8763 2.64601 9.65951C2.28101 9.60889 2 9.29559 2 8.91667C2 8.50245 2.33579 8.16667 2.75 8.16667H3.36619L5.12413 8.16667C5.29409 6.60808 5.9901 5.14496 7.10922 4.02584ZM5.12413 9.66667L4.15231 9.66667C4.32576 11.4822 5.12497 13.1904 6.42555 14.491C7.90396 15.9694 9.90912 16.8 11.9999 16.8C14.0907 16.8 16.0959 15.9694 17.5743 14.491C18.8748 13.1904 19.6741 11.4822 19.8475 9.66667L18.8759 9.66667C18.706 11.2253 18.01 12.6884 16.8909 13.8075C15.5937 15.1046 13.8345 15.8333 12 15.8333C10.1656 15.8333 8.40634 15.1046 7.10922 13.8075C5.9901 12.6884 5.29409 11.2253 5.12413 9.66667ZM12 3.5C10.5634 3.5 9.1857 4.07068 8.16988 5.0865C7.15405 6.10233 6.58337 7.48008 6.58337 8.91667C6.58337 10.3533 7.15405 11.731 8.16988 12.7468C9.1857 13.7626 10.5634 14.3333 12 14.3333C13.4366 14.3333 14.8144 13.7626 15.8302 12.7468C16.846 11.731 17.4167 10.3533 17.4167 8.91667C17.4167 7.48008 16.846 6.10233 15.8302 5.0865C14.8144 4.07068 13.4366 3.5 12 3.5Z" fill="#1B1A16"/>
</svg>
