<svg width="24" height="24" viewBox="0 0 24 24" fill="none" xmlns="http://www.w3.org/2000/svg">
<path d="M10.433 9.77597C10.433 8.68197 9.54298 7.79297 8.44998 7.79297C7.35698 7.79297 6.46698 8.68297 6.46698 9.77597C6.46698 10.869 7.35698 11.759 8.44998 11.759C9.54298 11.759 10.433 10.869 10.433 9.77597ZM8.44998 10.259C8.18398 10.259 7.96698 10.042 7.96698 9.77597C7.96698 9.50897 8.18398 9.29297 8.44998 9.29297C8.71698 9.29297 8.93298 9.50997 8.93298 9.77597C8.93298 10.042 8.71598 10.259 8.44998 10.259Z" fill="#1B1A16"/>
<path d="M10.14 12.949C10.05 12.912 9.95198 12.89 9.84798 12.89C9.74398 12.89 9.64598 12.911 9.55598 12.949C9.19698 13.073 8.93298 13.404 8.93298 13.804C8.93298 14.204 9.19598 14.535 9.55598 14.659C9.64598 14.696 9.74398 14.718 9.84798 14.718C9.95198 14.718 10.05 14.697 10.14 14.659C10.499 14.535 10.763 14.204 10.763 13.804C10.763 13.404 10.499 13.073 10.14 12.949Z" fill="#1B1A16"/>
<path d="M15.073 13.854C14.983 13.816 14.885 13.794 14.781 13.794C14.677 13.794 14.579 13.815 14.489 13.854C14.13 13.977 13.867 14.308 13.867 14.708C13.867 15.108 14.13 15.439 14.489 15.562C14.579 15.6 14.677 15.622 14.781 15.622C14.885 15.622 14.983 15.601 15.073 15.562C15.432 15.439 15.695 15.108 15.695 14.708C15.695 14.308 15.433 13.978 15.073 13.854Z" fill="#1B1A16"/>
<path d="M20.282 9.38497C19.594 8.69697 18.705 8.18597 17.604 7.85697C16.87 7.67297 16.253 7.05697 16.061 6.28997C15.742 5.22297 15.23 4.33297 14.54 3.64397L14.435 3.53997C12.141 1.43697 8.61698 1.51997 6.40898 3.72797L4.69398 5.44297C4.34898 5.66497 4.01898 5.92197 3.71698 6.22397C1.42898 8.51197 1.42898 12.235 3.71698 14.523C4.46598 15.272 5.31198 15.756 6.39598 16.052C7.12998 16.236 7.74698 16.852 7.93898 17.62C8.25898 18.686 8.76998 19.576 9.45798 20.264C10.565 21.371 12.039 21.982 13.607 21.982C15.176 21.982 16.65 21.372 17.756 20.264C17.912 20.108 18.057 19.943 18.193 19.771C18.196 19.768 18.199 19.768 18.202 19.765L20.282 17.685C21.39 16.577 22 15.104 22 13.535C22 11.966 21.39 10.493 20.282 9.38497ZM19.44 16.357C19.455 15.975 19.442 15.59 19.381 15.207C19.316 14.799 18.936 14.521 18.523 14.583C18.114 14.648 17.835 15.032 17.899 15.441C18.118 16.824 17.669 18.23 16.696 19.203C15.872 20.027 14.775 20.481 13.607 20.481C12.44 20.481 11.342 20.027 10.518 19.203C10.007 18.692 9.62298 18.015 9.38398 17.223C9.06498 15.946 8.03398 14.915 6.77398 14.601C5.96798 14.381 5.33398 14.019 4.77698 13.462C3.07398 11.759 3.07398 8.98797 4.77698 7.28397C6.47898 5.58097 9.25098 5.57997 10.954 7.28397C11.465 7.79497 11.85 8.47297 12.089 9.26497C12.407 10.541 13.438 11.572 14.698 11.887C15.505 12.107 16.138 12.468 16.695 13.025C16.987 13.317 17.462 13.319 17.756 13.025C18.049 12.733 18.049 12.258 17.756 11.965C17.008 11.215 16.161 10.731 15.077 10.436C14.344 10.252 13.727 9.63597 13.535 8.86797C13.215 7.80197 12.703 6.91197 12.015 6.22397C10.855 5.06397 9.32598 4.49697 7.80198 4.51397C9.44498 3.16697 11.827 3.18497 13.398 4.62297L13.48 4.70597C13.991 5.21597 14.376 5.89397 14.614 6.68597C14.932 7.96197 15.963 8.99297 17.206 9.30297C18.032 9.55097 18.71 9.93497 19.221 10.446C20.045 11.27 20.499 12.367 20.499 13.535C20.5 14.586 20.115 15.568 19.44 16.357Z" fill="#1B1A16"/>
</svg>
