<svg width="24" height="24" viewBox="0 0 24 24" fill="none" xmlns="http://www.w3.org/2000/svg">
<path fill-rule="evenodd" clip-rule="evenodd" d="M8.42399 3.09609C8.87303 2.64705 9.48207 2.39478 10.1171 2.39478H13.8171C14.4522 2.39478 15.0612 2.64705 15.5102 3.09609C15.9593 3.54513 16.2116 4.15417 16.2116 4.78922V10.7684C16.2329 10.8381 16.2444 10.9121 16.2444 10.9887C16.2444 11.0654 16.2329 11.1394 16.2116 11.2091V11.4721H16.9333C18.2771 11.4721 19.5658 12.0059 20.516 12.9561C21.4662 13.9062 22 15.195 22 16.5387C22 17.8825 21.4662 19.1712 20.516 20.1214C19.5658 21.0716 18.2771 21.6054 16.9333 21.6054H7.06667C5.7229 21.6054 4.43418 21.0716 3.48399 20.1214C2.53381 19.1712 2 17.8825 2 16.5387C2 15.195 2.53381 13.9062 3.48399 12.9561C4.43418 12.0059 5.7229 11.4721 7.06667 11.4721H7.72267V4.78922C7.72267 4.15417 7.97494 3.54513 8.42399 3.09609ZM9.22267 12.4424C9.24405 12.3727 9.25556 12.2988 9.25556 12.2221C9.25556 12.1454 9.24405 12.0714 9.22267 12.0017V11.7387H14.7116V12.4441C14.7116 12.6813 14.6173 12.9088 14.4496 13.0765C14.2818 13.2443 14.0543 13.3385 13.8171 13.3385H10.1171C9.87989 13.3385 9.65239 13.2443 9.48465 13.0765C9.31691 12.9088 9.22267 12.6813 9.22267 12.4441V12.4424ZM7.7816 12.9721H7.06667C6.12073 12.9721 5.21353 13.3478 4.54465 14.0167C3.87577 14.6856 3.5 15.5928 3.5 16.5387C3.5 17.4847 3.87577 18.3919 4.54465 19.0607C5.21353 19.7296 6.12073 20.1054 7.06667 20.1054H16.9333C17.8793 20.1054 18.7865 19.7296 19.4553 19.0607C20.1242 18.3919 20.5 17.4847 20.5 16.5387C20.5 15.5928 20.1242 14.6856 19.4553 14.0167C18.7865 13.3478 17.8793 12.9721 16.9333 12.9721H16.1526C16.0536 13.4099 15.8327 13.8148 15.5102 14.1372C15.0612 14.5863 14.4522 14.8385 13.8171 14.8385H10.1171C9.48207 14.8385 8.87303 14.5863 8.42399 14.1372C8.10156 13.8148 7.88059 13.4099 7.7816 12.9721ZM14.7116 10.2387V4.78922C14.7116 4.55199 14.6173 4.32449 14.4496 4.15675C14.2818 3.98901 14.0543 3.89478 13.8171 3.89478H10.1171C9.87989 3.89478 9.65239 3.98901 9.48465 4.15675C9.31691 4.32449 9.22267 4.552 9.22267 4.78922V10.2387H14.7116ZM6.65556 15.8499C6.27509 15.8499 5.96667 16.1583 5.96667 16.5387C5.96667 16.9192 6.27509 17.2276 6.65556 17.2276C7.03602 17.2276 7.34445 16.9192 7.34445 16.5387C7.34445 16.1583 7.03602 15.8499 6.65556 15.8499ZM4.46667 16.5387C4.46667 15.3298 5.44667 14.3499 6.65556 14.3499C7.86444 14.3499 8.84445 15.3298 8.84445 16.5387C8.84445 17.7476 7.86444 18.7276 6.65556 18.7276C5.44667 18.7276 4.46667 17.7476 4.46667 16.5387ZM17.3444 15.8499C16.964 15.8499 16.6556 16.1583 16.6556 16.5387C16.6556 16.9192 16.964 17.2276 17.3444 17.2276C17.7249 17.2276 18.0333 16.9192 18.0333 16.5387C18.0333 16.1583 17.7249 15.8499 17.3444 15.8499ZM15.1556 16.5387C15.1556 15.3298 16.1356 14.3499 17.3444 14.3499C18.5533 14.3499 19.5333 15.3298 19.5333 16.5387C19.5333 17.7476 18.5533 18.7276 17.3444 18.7276C16.1356 18.7276 15.1556 17.7476 15.1556 16.5387ZM10.6333 18.3887C10.6333 17.9745 10.9691 17.6387 11.3833 17.6387H12.6167C13.0309 17.6387 13.3667 17.9745 13.3667 18.3887C13.3667 18.8029 13.0309 19.1387 12.6167 19.1387H11.3833C10.9691 19.1387 10.6333 18.8029 10.6333 18.3887Z" fill="#1B1A16"/>
</svg>
