<svg width="24" height="24" viewBox="0 0 24 24" fill="none" xmlns="http://www.w3.org/2000/svg">
<path fill-rule="evenodd" clip-rule="evenodd" d="M9.7175 3.55077C9.717 3.55682 9.71668 3.56393 9.71668 3.57217V5.21661C9.71668 5.22485 9.717 5.23196 9.7175 5.23801C9.72355 5.23851 9.73066 5.23883 9.7389 5.23883H14.2611C14.2694 5.23883 14.2765 5.23851 14.2825 5.23801C14.283 5.23196 14.2833 5.22485 14.2833 5.21661V3.57217C14.2833 3.56393 14.283 3.55682 14.2825 3.55077C14.2765 3.55028 14.2694 3.54995 14.2611 3.54995H9.7389C9.73066 3.54995 9.72355 3.55028 9.7175 3.55077ZM14.5678 6.81307C14.8854 6.75861 15.1845 6.61686 15.4229 6.37841C15.737 6.0643 15.8833 5.64508 15.8833 5.21661V3.57217C15.8833 3.1437 15.737 2.72448 15.4229 2.41037C15.1088 2.09626 14.6896 1.94995 14.2611 1.94995H9.7389C9.31044 1.94995 8.89122 2.09626 8.57711 2.41037C8.26299 2.72448 8.11668 3.1437 8.11668 3.57217V5.21661C8.11668 5.64508 8.26299 6.0643 8.57711 6.37841C8.79487 6.59617 9.06315 6.73329 9.35001 6.79692V7.45891C8.59851 7.55445 7.88075 7.68996 7.2089 7.86114V7.12335C7.20909 7.11343 7.20908 7.10351 7.2089 7.0936V2.99663C7.2089 2.7118 7.05746 2.44846 6.81129 2.30519C6.56512 2.16193 6.26134 2.16036 6.01369 2.30106L2.39592 4.35662C2.1457 4.49879 1.99112 4.7644 1.99112 5.05218C1.99112 5.33997 2.1457 5.60558 2.39592 5.74775L5.6089 7.57331V8.36982C5.4463 8.43327 5.28803 8.49919 5.13437 8.56748C4.2363 8.96662 3.46001 9.46261 2.89741 10.0538C2.33088 10.6491 1.95001 11.3776 1.95001 12.2055V17.1388C1.95001 18.8038 3.4079 20.0268 5.13111 20.7893C5.46771 20.9383 5.82642 21.0756 6.20452 21.2005C6.22932 21.21 6.25471 21.2184 6.28063 21.2254C7.90743 21.752 9.88484 22.05 12 22.05C14.0791 22.05 16.0251 21.7621 17.6358 21.2522C17.7833 21.244 17.9201 21.196 18.0357 21.1186C18.3262 21.0163 18.6044 20.9064 18.8689 20.7893C20.5921 20.0268 22.05 18.8038 22.05 17.1388V12.2055C22.05 11.3776 21.6691 10.6491 21.1026 10.0538C20.54 9.46261 19.7637 8.96662 18.8657 8.56748C18.712 8.49919 18.5537 8.43327 18.3911 8.36982V7.57331L21.6041 5.74775C21.8543 5.60558 22.0089 5.33997 22.0089 5.05218C22.0089 4.7644 21.8543 4.49879 21.6041 4.35662L17.9863 2.30106C17.7387 2.16036 17.4349 2.16193 17.1887 2.30519C16.9426 2.44846 16.7911 2.7118 16.7911 2.99663V7.0936C16.7909 7.10351 16.7909 7.11342 16.7911 7.12335V7.86113C16.0948 7.68373 15.3492 7.54462 14.5678 7.44863V6.81307ZM12.9678 6.83883H10.95V7.31966C11.2955 7.30295 11.6459 7.29442 12 7.29442C12.3261 7.29442 12.6489 7.30165 12.9678 7.31584V6.83883ZM13.5941 8.9577C13.3336 8.93675 13.0688 8.92082 12.8 8.91018V11.0191C14.0594 11.0976 15.2247 11.36 16.1443 11.7707L17.7128 9.82316C16.6294 9.41289 15.2931 9.1122 13.8044 8.97579C13.7923 8.97634 13.7801 8.97662 13.7678 8.97662C13.7081 8.97662 13.65 8.97009 13.5941 8.9577ZM19.1852 10.5458L17.4909 12.6495C17.9285 13.078 18.2267 13.6127 18.2267 14.2611C18.2267 14.3003 18.2255 14.3394 18.2231 14.3782C18.9953 14.0342 19.5712 13.6455 19.9436 13.2542C20.3132 12.8658 20.45 12.5128 20.45 12.2055C20.45 11.8982 20.3132 11.5452 19.9436 11.1568C19.7471 10.9503 19.4939 10.7446 19.1852 10.5458ZM20.45 14.9334C19.9916 15.2781 19.4548 15.5817 18.8657 15.8435C18.148 16.1625 17.3301 16.4296 16.4384 16.6355C16.3354 16.6818 16.2274 16.7045 16.1206 16.7056C14.8593 16.9712 13.4621 17.1166 12 17.1166C10.5379 17.1166 9.14068 16.9712 7.87946 16.7056C7.77266 16.7045 7.6646 16.6818 7.56159 16.6355C6.66992 16.4296 5.85198 16.1625 5.13436 15.8435C4.54518 15.5817 4.00841 15.2781 3.55001 14.9334V17.1388C3.55001 17.7645 4.13501 18.5784 5.69112 19.2869V18.29C5.69112 17.8481 6.0493 17.49 6.49112 17.49C6.93295 17.49 7.29112 17.8481 7.29112 18.29V19.8583C8.42619 20.1726 9.75559 20.3785 11.2 20.4345V19.03C11.2 18.5881 11.5582 18.23 12 18.23C12.4418 18.23 12.8 18.5881 12.8 19.03V20.4345C14.2795 20.3772 15.6382 20.1625 16.7911 19.8353V18.29C16.7911 17.8481 17.1493 17.49 17.5911 17.49C18.033 17.49 18.3911 17.8481 18.3911 18.29V19.249C19.8857 18.5495 20.45 17.7534 20.45 17.1388V14.9334ZM3.55001 12.2055C3.55001 12.5128 3.68681 12.8658 4.05644 13.2542C4.42874 13.6454 5.00448 14.034 5.77645 14.378C5.77439 14.3394 5.77335 14.3005 5.77335 14.2611C5.77335 13.6166 6.068 13.0844 6.50126 12.6572L4.77521 10.5715C4.48436 10.7623 4.24446 10.9592 4.05644 11.1568C3.68681 11.5452 3.55001 11.8982 3.55001 12.2055ZM6.24582 9.83896L7.84756 11.7744C7.84826 11.7741 7.84896 11.7738 7.84965 11.7735C8.77014 11.3612 9.93784 11.0977 11.2 11.0191V8.91018C10.8702 8.92323 10.5464 8.94426 10.2293 8.97274C10.225 8.97316 10.2206 8.97356 10.2162 8.97392C8.70019 9.11115 7.34142 9.4187 6.24582 9.83896ZM8.04092 13.4748C8.051 13.469 8.06099 13.4629 8.07088 13.4566C8.19373 13.3831 8.33698 13.3084 8.50371 13.2337C9.36473 12.848 10.6048 12.5944 12 12.5944C13.3953 12.5944 14.6353 12.848 15.4963 13.2337C15.6632 13.3084 15.8066 13.3833 15.9296 13.4569C15.9392 13.463 15.9489 13.4689 15.9587 13.4746C16.4971 13.8047 16.6267 14.1075 16.6267 14.2611C16.6267 14.3961 16.4656 14.7884 15.8844 15.12C14.7241 15.3718 13.4062 15.5166 12 15.5166C10.5926 15.5166 9.27363 15.3716 8.11256 15.1193C7.51398 14.7865 7.37335 14.4564 7.37335 14.2611C7.37335 14.1075 7.50283 13.8049 8.04092 13.4748ZM18.3911 5.73308L19.5895 5.05218L18.3911 4.37129V5.73308ZM5.6089 5.73308V4.37129L4.41052 5.05218L5.6089 5.73308Z" fill="#1B1A16"/>
</svg>
