<svg width="24" height="24" viewBox="0 0 24 24" fill="none" xmlns="http://www.w3.org/2000/svg">
<path fill-rule="evenodd" clip-rule="evenodd" d="M9.4691 3.50799C9.46614 3.51696 9.46111 3.5373 9.46111 3.57222V5.21666C9.46111 5.25158 9.46614 5.27193 9.4691 5.28089C9.47807 5.28385 9.49841 5.28888 9.53333 5.28888H14.4667C14.5016 5.28888 14.5219 5.28385 14.5309 5.28089C14.5339 5.27193 14.5389 5.25158 14.5389 5.21666V3.57222C14.5389 3.5373 14.5339 3.51696 14.5309 3.50799C14.5219 3.50503 14.5016 3.5 14.4667 3.5H9.53333C9.49841 3.5 9.47807 3.50503 9.4691 3.50799ZM14.6 6.78398C14.9694 6.7566 15.3221 6.61412 15.5931 6.3431C15.8966 6.03963 16.0389 5.63376 16.0389 5.21666V3.57222C16.0389 3.15512 15.8966 2.74925 15.5931 2.44578C15.2896 2.1423 14.8838 2 14.4667 2H9.53333C9.11623 2 8.71037 2.1423 8.40689 2.44578C8.10342 2.74925 7.96111 3.15511 7.96111 3.57222V5.21666C7.96111 5.63376 8.10342 6.03963 8.40689 6.3431C8.67791 6.61412 9.03059 6.7566 9.4 6.78398V8.08446H6.95333V3.65445C6.95333 3.24023 6.61755 2.90445 6.20333 2.90445H2.75C2.33579 2.90445 2 3.24023 2 3.65445V6.45003C2 6.86424 2.33579 7.20003 2.75 7.20003H5.45333V8.30655C5.00803 8.51222 4.65055 8.84544 4.38707 9.24066C4.3756 9.25787 4.36485 9.27554 4.35484 9.29364L2.22944 13.1357C2.12805 13.2962 2.06026 13.4721 2.02608 13.6532C2.00907 13.7159 2 13.7819 2 13.85V21.25C2 21.6642 2.33579 22 2.75 22H21.25C21.6642 22 22 21.6642 22 21.25V13.85C22 13.7819 21.9909 13.7159 21.9739 13.6532C21.9402 13.4744 21.8737 13.3007 21.7744 13.1418L19.7333 9.30447C19.7216 9.28258 19.7089 9.26129 19.6952 9.24066C19.4177 8.82451 19.0125 8.48659 18.5467 8.28585V7.20003H21.25C21.6642 7.20003 22 6.86424 22 6.45003V3.65445C22 3.24023 21.6642 2.90445 21.25 2.90445H17.7967C17.3825 2.90445 17.0467 3.24023 17.0467 3.65445V8.08446H14.6V6.78398ZM13.1 6.78888H10.9V8.08446H13.1V6.78888ZM18.5467 5.70003H20.5V4.40445H18.5467V5.70003ZM20.4993 13.9322C20.4868 13.9131 20.4752 13.8935 20.4645 13.8733L18.4288 10.0461C18.2244 9.7589 17.8857 9.58446 17.5911 9.58446H6.49111C6.13323 9.58446 5.86232 9.74413 5.65093 10.0495L3.52961 13.8842C3.52056 13.9005 3.5109 13.9165 3.50066 13.9322C3.52822 13.9722 3.55 13.988 3.55957 13.9936C3.56474 13.9966 3.56983 13.9988 3.57613 14.0004C3.58247 14.0021 3.59419 14.0044 3.61333 14.0044H6.18093L7.45775 11.3089C7.58183 11.047 7.84572 10.88 8.13556 10.88H15.8644C16.1543 10.88 16.4182 11.047 16.5422 11.3089L17.8191 14.0044H20.3867C20.4058 14.0044 20.4175 14.0021 20.4239 14.0004C20.4302 13.9988 20.4353 13.9966 20.4404 13.9936C20.45 13.988 20.4718 13.9722 20.4993 13.9322ZM17.3287 15.5044C17.3395 15.5047 17.3504 15.5047 17.3612 15.5044H20.3867C20.425 15.5044 20.4628 15.5032 20.5 15.5008V20.5H19.3072V19.3434C19.3072 18.2734 18.4326 17.2933 17.3239 17.2933C16.2152 17.2933 15.3406 18.2734 15.3406 19.3434V20.5H14.3944V18.6189C14.3944 17.3002 13.3187 16.2244 12 16.2244C10.6813 16.2244 9.60556 17.3002 9.60556 18.6189V20.5H8.61833V19.3434C8.61833 18.2734 7.7437 17.2933 6.635 17.2933C5.5263 17.2933 4.65167 18.2734 4.65167 19.3434V20.5H3.5V15.5008C3.53718 15.5032 3.57496 15.5044 3.61333 15.5044H6.63878C6.64964 15.5047 6.66049 15.5047 6.67131 15.5044H17.3287ZM16.1593 14.0044L15.3898 12.38H8.61018L7.84071 14.0044H16.1593ZM6.15167 20.5H7.11833V19.3434C7.11833 19.0265 6.84186 18.7933 6.635 18.7933C6.42814 18.7933 6.15167 19.0265 6.15167 19.3434V20.5ZM11.1056 20.5H12.8944V18.6189C12.8944 18.1287 12.4902 17.7244 12 17.7244C11.5098 17.7244 11.1056 18.1287 11.1056 18.6189V20.5ZM16.8406 20.5H17.8072V19.3434C17.8072 19.0265 17.5307 18.7933 17.3239 18.7933C17.117 18.7933 16.8406 19.0265 16.8406 19.3434V20.5ZM5.45333 5.70003V4.40445H3.5V5.70003H5.45333Z" fill="#1B1A16"/>
</svg>
