<svg width="24" height="24" viewBox="0 0 24 24" fill="none" xmlns="http://www.w3.org/2000/svg">
<path fill-rule="evenodd" clip-rule="evenodd" d="M9.7389 3.5C9.47196 3.5 9.25557 3.7164 9.25557 3.98333V9.81111H14.7445V3.98333C14.7445 3.7164 14.5281 3.5 14.2611 3.5H9.7389ZM16.2445 3.98333C16.2445 2.88797 15.3565 2 14.2611 2H9.7389C8.64353 2 7.75557 2.88797 7.75557 3.98333V12.6167C7.75557 13.712 8.64353 14.6 9.7389 14.6H14.2611C15.3565 14.6 16.2445 13.712 16.2445 12.6167V3.98333ZM14.7445 11.3111H9.25557V12.6167C9.25557 12.8836 9.47196 13.1 9.7389 13.1H14.2611C14.5281 13.1 14.7445 12.8836 14.7445 12.6167V11.3111ZM2.5809 12.4476C2.95285 12.0756 3.45732 11.8667 3.98333 11.8667H6.03889C6.4531 11.8667 6.78889 12.2025 6.78889 12.6167C6.78889 13.0309 6.4531 13.3667 6.03889 13.3667H3.98333C3.85514 13.3667 3.73221 13.4176 3.64157 13.5082C3.55092 13.5989 3.5 13.7218 3.5 13.85V20.0167C3.5 20.1449 3.55092 20.2678 3.64157 20.3584C3.73221 20.4491 3.85515 20.5 3.98333 20.5H20.0167C20.1449 20.5 20.2678 20.4491 20.3584 20.3584C20.4491 20.2678 20.5 20.1449 20.5 20.0167V13.85C20.5 13.7218 20.4491 13.5989 20.3584 13.5082C20.2678 13.4176 20.1449 13.3667 20.0167 13.3667H18.0022C17.588 13.3667 17.2522 13.0309 17.2522 12.6167C17.2522 12.2025 17.588 11.8667 18.0022 11.8667H20.0167C20.5427 11.8667 21.0471 12.0756 21.4191 12.4476C21.791 12.8195 22 13.324 22 13.85V20.0167C22 20.5427 21.791 21.0471 21.4191 21.4191C21.0471 21.791 20.5427 22 20.0167 22H3.98333C3.45732 22 2.95285 21.791 2.5809 21.4191C2.20896 21.0471 2 20.5427 2 20.0167V13.85C2 13.324 2.20896 12.8195 2.5809 12.4476ZM7.06667 15.8333C6.45915 15.8333 5.96667 16.3258 5.96667 16.9333C5.96667 17.5408 6.45915 18.0333 7.06667 18.0333C7.67418 18.0333 8.16667 17.5408 8.16667 16.9333C8.16667 16.3258 7.67418 15.8333 7.06667 15.8333ZM4.46667 16.9333C4.46667 15.4974 5.63073 14.3333 7.06667 14.3333C8.50261 14.3333 9.66667 15.4974 9.66667 16.9333C9.66667 18.3693 8.50261 19.5333 7.06667 19.5333C5.63073 19.5333 4.46667 18.3693 4.46667 16.9333ZM16.9333 15.8333C16.3258 15.8333 15.8333 16.3258 15.8333 16.9333C15.8333 17.5408 16.3258 18.0333 16.9333 18.0333C17.5408 18.0333 18.0333 17.5408 18.0333 16.9333C18.0333 16.3258 17.5408 15.8333 16.9333 15.8333ZM14.3333 16.9333C14.3333 15.4974 15.4974 14.3333 16.9333 14.3333C18.3693 14.3333 19.5333 15.4974 19.5333 16.9333C19.5333 18.3693 18.3693 19.5333 16.9333 19.5333C15.4974 19.5333 14.3333 18.3693 14.3333 16.9333Z" fill="#1B1A16"/>
</svg>
