<svg width="24" height="24" viewBox="0 0 24 24" fill="none" xmlns="http://www.w3.org/2000/svg">
<path fill-rule="evenodd" clip-rule="evenodd" d="M2 2.75C2 2.33579 2.33579 2 2.75 2H21.25C21.6642 2 22 2.33579 22 2.75C22 3.16421 21.6642 3.5 21.25 3.5H21.1778V20.5H21.25C21.6642 20.5 22 20.8358 22 21.25C22 21.6642 21.6642 22 21.25 22H2.75C2.33579 22 2 21.6642 2 21.25C2 20.8358 2.33579 20.5 2.75 20.5H2.82226V3.5H2.75C2.33579 3.5 2 3.16421 2 2.75ZM4.32226 3.5V7.96112H19.6778V3.5H4.32226ZM19.6778 9.46112H4.32226V20.5H19.6778V9.46112ZM5.39564 5.82933C5.39564 5.24481 5.86949 4.77099 6.45397 4.77099C7.03848 4.77099 7.51231 5.24483 7.51231 5.82933C7.51231 6.41381 7.03849 6.88766 6.45397 6.88766C5.86948 6.88766 5.39564 6.41383 5.39564 5.82933ZM8.2735 5.82933C8.2735 5.24481 8.74735 4.77099 9.33183 4.77099C9.91634 4.77099 10.3902 5.24483 10.3902 5.82933C10.3902 6.41381 9.91635 6.88766 9.33183 6.88766C8.74734 6.88766 8.2735 6.41383 8.2735 5.82933ZM12.4833 5.83333C12.4833 5.41912 12.8191 5.08333 13.2333 5.08333H17.55C17.9642 5.08333 18.3 5.41912 18.3 5.83333C18.3 6.24755 17.9642 6.58333 17.55 6.58333H13.2333C12.8191 6.58333 12.4833 6.24755 12.4833 5.83333ZM6.11107 11.9671C6.11107 11.117 6.80026 10.4278 7.6504 10.4278H16.3495C17.1997 10.4278 17.8888 11.117 17.8888 11.9671V17.7884C17.8888 18.6386 17.1997 19.3278 16.3495 19.3278H7.6504C6.80026 19.3278 6.11107 18.6386 6.11107 17.7884V11.9671ZM7.6504 11.9278C7.62868 11.9278 7.61107 11.9454 7.61107 11.9671V17.7884C7.61107 17.8102 7.62868 17.8278 7.6504 17.8278H16.3495C16.3712 17.8278 16.3888 17.8102 16.3888 17.7884V11.9671C16.3888 11.9454 16.3712 11.9278 16.3495 11.9278H7.6504ZM8.98893 13.6445C8.98893 13.2302 9.32472 12.8945 9.73893 12.8945H14.2612C14.6754 12.8945 15.0112 13.2302 15.0112 13.6445C15.0112 14.0587 14.6754 14.3945 14.2612 14.3945H9.73893C9.32472 14.3945 8.98893 14.0587 8.98893 13.6445Z" fill="#1B1A16"/>
</svg>
