<svg width="24" height="24" viewBox="0 0 24 24" fill="none" xmlns="http://www.w3.org/2000/svg">
<path fill-rule="evenodd" clip-rule="evenodd" d="M7.06705 5.02502C7.03844 5.02502 7.011 5.03639 6.99077 5.05662C6.97054 5.07685 6.95918 5.10429 6.95918 5.1329V6.09865H17.0404V5.1329C17.0404 5.10429 17.0291 5.07685 17.0089 5.05662C16.9886 5.03639 16.9612 5.02502 16.9326 5.02502H7.06705ZM17.0489 7.59865H6.95061C6.8351 11.1676 5.65767 14.6268 3.56165 17.5298C5.04701 18.0968 6.58608 18.4996 8.15144 18.7335L8.68104 14.4769C8.73218 14.0659 9.10685 13.7741 9.5179 13.8252C9.92894 13.8764 10.2207 14.2511 10.1696 14.6621L9.64174 18.9044C10.418 18.9666 11.1985 18.9877 11.98 18.967C11.9933 18.9667 12.0066 18.9667 12.0199 18.967C12.8007 18.9879 13.5806 18.967 14.3562 18.905L13.8283 14.6621C13.7771 14.2511 14.0689 13.8764 14.4799 13.8252C14.891 13.7741 15.2657 14.0659 15.3168 14.4769L15.8465 18.7345C17.4124 18.501 18.952 18.0983 20.4378 17.5312C18.3412 14.628 17.1637 11.1682 17.0489 7.59865ZM5.93011 3.99596C6.23165 3.69443 6.64061 3.52502 7.06705 3.52502H16.9326C17.359 3.52502 17.768 3.69442 18.0695 3.99596C18.371 4.2975 18.5404 4.70647 18.5404 5.1329V6.85617C18.5049 10.4004 19.6149 13.8612 21.7051 16.7235C21.8331 16.8876 21.9228 17.0783 21.9675 17.2818C22.0137 17.4919 22.0106 17.71 21.9584 17.9187C21.9062 18.1275 21.8064 18.3214 21.6667 18.4851C21.527 18.6488 21.3514 18.778 21.1534 18.8624C21.1462 18.8655 21.1389 18.8685 21.1316 18.8713C18.224 20.0052 15.1195 20.5477 11.9997 20.467C8.8797 20.547 5.77496 20.0039 2.86718 18.8696C2.85922 18.8665 2.85131 18.8632 2.84346 18.8599C2.64609 18.775 2.47099 18.6456 2.33185 18.4819C2.19271 18.3182 2.0933 18.1245 2.04136 17.9161C1.98941 17.7076 1.98636 17.4899 2.03243 17.2801C2.07705 17.0768 2.16658 16.8862 2.29437 16.7222C4.38396 13.8601 5.49398 10.3998 5.45921 6.856L5.45914 6.84865L5.45918 5.1329C5.45918 4.70646 5.62858 4.2975 5.93011 3.99596Z" fill="#1B1A16"/>
</svg>
