<svg width="24" height="24" viewBox="0 0 24 24" fill="none" xmlns="http://www.w3.org/2000/svg">
<path fill-rule="evenodd" clip-rule="evenodd" d="M11.7727 2.00351C13.0808 1.96304 14.3758 2.2729 15.5239 2.90101C16.6719 3.52913 17.6312 4.45268 18.3025 5.57606C18.9738 6.69943 19.3326 7.9818 19.3418 9.29041C19.3515 10.6762 18.9688 12.0365 18.238 13.2139C17.5904 14.2574 16.6927 15.1195 15.6295 15.7242V18.4114C15.6295 18.8271 15.4644 19.2258 15.1704 19.5198C15.0614 19.6288 14.9379 19.7201 14.8045 19.7919V20.4326C14.8045 20.8483 14.6394 21.247 14.3455 21.5409C14.0515 21.8349 13.6528 22 13.2371 22H10.7622C10.3465 22 9.94786 21.8349 9.65391 21.5409C9.35996 21.247 9.19482 20.8483 9.19482 20.4326V19.7919C9.06144 19.7201 8.93799 19.6288 8.82895 19.5198C8.535 19.2258 8.36986 18.8271 8.36986 18.4114V15.7241C7.37322 15.1573 6.52115 14.3636 5.88426 13.4049C5.16011 12.3149 4.74046 11.0512 4.66875 9.74447C4.59704 8.43779 4.87587 7.13569 5.47638 5.97296C6.0769 4.81023 6.97726 3.82914 8.08428 3.13123C9.1913 2.43333 10.4647 2.04399 11.7727 2.00351ZM9.85479 17.4627V18.4114C9.85479 18.4273 9.85937 18.4427 9.86779 18.4559C9.89067 18.4538 9.91385 18.4527 9.93728 18.4527H14.0621C14.0855 18.4527 14.1087 18.4538 14.1316 18.4559C14.14 18.4427 14.1446 18.4273 14.1446 18.4114V17.4627H9.85479ZM14.1446 15.9778H9.85479V15.2766C9.85479 14.9925 9.69265 14.7333 9.43717 14.609C8.49842 14.1522 7.69881 13.4528 7.12112 12.5833C6.54343 11.7137 6.20865 10.7055 6.15144 9.6631C6.09423 8.62069 6.31667 7.58194 6.79573 6.65437C7.2748 5.7268 7.99307 4.94412 8.87619 4.38737C9.75932 3.83062 10.7752 3.52002 11.8187 3.48773C12.8622 3.45544 13.8953 3.70263 14.8112 4.20371C15.727 4.7048 16.4923 5.44156 17.0278 6.33773C17.5633 7.2339 17.8495 8.25691 17.8569 9.30085C17.8647 10.4064 17.5594 11.4915 16.9764 12.4308C16.3933 13.3702 15.5564 14.1253 14.5622 14.6089C14.3067 14.7332 14.1446 14.9925 14.1446 15.2766V15.9778ZM10.6797 19.9789V20.4326C10.6797 20.4545 10.6884 20.4754 10.7039 20.4909C10.7194 20.5064 10.7404 20.5151 10.7622 20.5151H13.2371C13.259 20.5151 13.28 20.5064 13.2955 20.4909C13.3109 20.4754 13.3196 20.4545 13.3196 20.4326V19.9789H10.6797Z" fill="#1B1A16"/>
</svg>
