<svg width="24" height="24" viewBox="0 0 24 24" fill="none" xmlns="http://www.w3.org/2000/svg">
<path fill-rule="evenodd" clip-rule="evenodd" d="M12 2C12.4142 2 12.75 2.33579 12.75 2.75V3.98333C12.75 4.39755 12.4142 4.73333 12 4.73333C11.5858 4.73333 11.25 4.39755 11.25 3.98333V2.75C11.25 2.33579 11.5858 2 12 2ZM4.67664 4.69625C4.96406 4.39798 5.43885 4.38919 5.73712 4.67661L6.64156 5.54816C6.93983 5.83558 6.94862 6.31038 6.6612 6.60864C6.37378 6.90691 5.89899 6.9157 5.60072 6.62828L4.69628 5.75673C4.39801 5.46931 4.38922 4.99451 4.67664 4.69625ZM19.3233 4.69625C19.6108 4.99451 19.602 5.46931 19.3037 5.75673L18.3993 6.62828C18.101 6.9157 17.6262 6.90691 17.3388 6.60864C17.0514 6.31038 17.0602 5.83558 17.3584 5.54816L18.2629 4.67661C18.5611 4.38919 19.0359 4.39798 19.3233 4.69625ZM11.987 5.08344C11.9957 5.08329 12.0043 5.08329 12.013 5.08344C13.6714 5.11217 15.2539 5.78376 16.4267 6.95661C17.5996 8.12946 18.2712 9.71193 18.2999 11.3703L18.3 11.3736C18.3151 12.5381 18.0006 13.6833 17.3929 14.6768C16.8547 15.5567 16.1059 16.286 15.2167 16.8004V20.0167C15.2167 20.5427 15.0077 21.0471 14.6358 21.4191C14.2638 21.791 13.7594 22 13.2334 22H10.7667C10.2407 22 9.73622 21.791 9.36427 21.4191C8.99232 21.0471 8.78337 20.5427 8.78337 20.0167V16.8004C7.89414 16.286 7.1453 15.5567 6.60708 14.6768C5.99937 13.6833 5.68494 12.5381 5.70007 11.3736L5.70011 11.3703C5.72884 9.71193 6.40043 8.12947 7.57329 6.95661C8.74614 5.78376 10.3286 5.11217 11.987 5.08344ZM10.2834 17.0667V18.0333H13.7167V17.0667H10.2834ZM14.35 15.5667H13.9834V12.2056C13.9834 12.0774 14.0343 11.9544 14.1249 11.8638C14.2156 11.7731 14.3385 11.7222 14.4667 11.7222C14.8809 11.7222 15.2167 11.3864 15.2167 10.9722C15.2167 10.558 14.8809 10.2222 14.4667 10.2222C13.9407 10.2222 13.4362 10.4312 13.0643 10.8031C12.6923 11.1751 12.4834 11.6795 12.4834 12.2056V15.5667H11.5167V12.2056C11.5167 11.6795 11.3077 11.1751 10.9358 10.8031C10.5638 10.4312 10.0594 10.2222 9.53337 10.2222C9.11915 10.2222 8.78337 10.558 8.78337 10.9722C8.78337 11.3864 9.11915 11.7222 9.53337 11.7222C9.66155 11.7222 9.78449 11.7731 9.87513 11.8638C9.96578 11.9544 10.0167 12.0774 10.0167 12.2056V15.5667H9.65004C8.92602 15.1748 8.31732 14.5981 7.88669 13.8941C7.42684 13.1423 7.18878 12.2759 7.19992 11.3947C7.22232 10.1257 7.73642 8.9148 8.63395 8.01727C9.52879 7.12243 10.7351 6.60872 12 6.58346C13.2649 6.60872 14.4712 7.12243 15.3661 8.01727C16.2636 8.91478 16.7777 10.1256 16.8001 11.3946C16.8113 12.2758 16.5732 13.1423 16.1133 13.8941C15.6827 14.5981 15.074 15.1748 14.35 15.5667ZM13.7167 19.5333H10.2834V20.0167C10.2834 20.1449 10.3343 20.2678 10.4249 20.3584C10.5156 20.4491 10.6385 20.5 10.7667 20.5H13.2334C13.3615 20.5 13.4845 20.4491 13.5751 20.3584C13.6658 20.2678 13.7167 20.1449 13.7167 20.0167V19.5333ZM2.6167 11.3833C2.6167 10.9691 2.95249 10.6333 3.3667 10.6333H4.60003C5.01425 10.6333 5.35003 10.9691 5.35003 11.3833C5.35003 11.7975 5.01425 12.1333 4.60003 12.1333H3.3667C2.95249 12.1333 2.6167 11.7975 2.6167 11.3833ZM18.65 11.3833C18.65 10.9691 18.9858 10.6333 19.4 10.6333H20.6334C21.0476 10.6333 21.3834 10.9691 21.3834 11.3833C21.3834 11.7975 21.0476 12.1333 20.6334 12.1333H19.4C18.9858 12.1333 18.65 11.7975 18.65 11.3833Z" fill="#1B1A16"/>
</svg>
