<svg width="24" height="24" viewBox="0 0 24 24" fill="none" xmlns="http://www.w3.org/2000/svg">
<path fill-rule="evenodd" clip-rule="evenodd" d="M8.24004 2.73379C9.42853 2.25154 10.7047 2 12 2C13.2891 2 14.5658 2.24925 15.7599 2.73377C15.803 2.74719 15.8449 2.76449 15.8852 2.78558C17.0754 3.28744 18.1574 4.01525 19.0711 4.92893C19.9997 5.85752 20.7362 6.95991 21.2388 8.17316C21.7413 9.38642 22 10.6868 22 12C22 12.2595 21.9899 12.5183 21.9699 12.7758C21.969 12.7975 21.9673 12.8192 21.9646 12.8409C21.8363 14.3613 21.3615 15.834 20.5749 17.145C20.5611 17.1712 20.5457 17.1965 20.5289 17.2208C20.4598 17.3337 20.3884 17.4454 20.3147 17.5557C19.2159 19.2002 17.6541 20.4819 15.8268 21.2388C15.3499 21.4363 14.8605 21.5958 14.3631 21.7168C14.328 21.7279 14.292 21.7365 14.2555 21.7423C12.8799 22.0608 11.4461 22.0857 10.0491 21.8078C9.94715 21.7876 9.84563 21.7657 9.74458 21.7423C9.70805 21.7365 9.67204 21.7279 9.63686 21.7168C7.85727 21.284 6.22779 20.3699 4.92894 19.0711C4.36885 18.511 3.88032 17.8894 3.47107 17.2209C3.45429 17.1965 3.43893 17.1712 3.42509 17.145C2.83664 16.1642 2.41765 15.0845 2.19215 13.9509C2.11894 13.5828 2.06675 13.2122 2.03541 12.8408C2.03272 12.8192 2.03096 12.7976 2.03014 12.7759C1.90836 11.211 2.15631 9.63352 2.76121 8.17316C3.51809 6.3459 4.79981 4.78412 6.4443 3.6853C6.97393 3.33142 7.53351 3.03068 8.1149 2.78555C8.15511 2.76449 8.19701 2.74719 8.24004 2.73379ZM8.39011 4.30462C8.00565 4.48497 7.63369 4.69461 7.27766 4.93251C6.73105 5.29774 6.23159 5.72315 5.78752 6.1987L6.2799 9.44036L7.80088 10.1855L11.25 7.67791V6.23227L8.39011 4.30462ZM12.75 6.23227V7.67791L16.1991 10.1855L17.7201 9.44036L18.2125 6.1987C18.1464 6.12791 18.079 6.05819 18.0104 5.98959C17.3132 5.2924 16.5007 4.72253 15.6099 4.30463L12.75 6.23227ZM13.8256 3.69836C13.2274 3.56682 12.6154 3.5 12 3.5C11.383 3.5 10.771 3.56716 10.1744 3.69836L12 4.92887L13.8256 3.69836ZM19.4657 7.93643L19.2012 9.67797L20.4286 10.9003C20.3322 10.162 20.1391 9.43799 19.853 8.74719C19.7381 8.46977 19.6088 8.19917 19.4657 7.93643ZM20.4378 13.0265L18.2523 10.85L16.739 11.5913L15.3991 15.7302L16.184 16.6088L19.441 16.1086C19.9682 15.1539 20.3063 14.1073 20.4378 13.0265ZM18.1976 17.8172L16.3968 18.0937L15.6128 19.694C16.588 19.2361 17.4644 18.5983 18.1976 17.8172ZM13.6243 20.3434L15.0001 17.5351L14.2173 16.6588H9.78269L8.99988 17.5351L10.3757 20.3434C11.4536 20.5532 12.5566 20.5512 13.6243 20.3434ZM8.38721 19.694L7.60319 18.0937L5.80238 17.8172C5.86369 17.8825 5.9261 17.9469 5.9896 18.0104C6.68902 18.7098 7.50123 19.278 8.38721 19.694ZM4.55897 16.1086L7.81603 16.6088L8.60087 15.7302L7.26098 11.5913L5.74767 10.85L3.56221 13.0265C3.58791 13.2378 3.6216 13.4485 3.66333 13.6583C3.83493 14.521 4.13836 15.3469 4.55897 16.1086ZM3.57144 10.9003L4.79878 9.67797L4.53426 7.93642C4.39143 8.19881 4.2621 8.46939 4.14703 8.74719C3.85995 9.44025 3.66746 10.1644 3.57144 10.9003ZM8.75768 11.3444L9.99253 15.1588H14.0075L15.2423 11.3444L12 8.98717L8.75768 11.3444Z" fill="#1B1A16"/>
</svg>
