<svg width="24" height="24" viewBox="0 0 24 24" fill="none" xmlns="http://www.w3.org/2000/svg">
<path d="M18.1216 9.24916C18.2615 9.37977 18.4465 9.45113 18.6378 9.44826H18.6979C18.7965 9.44314 18.893 9.41861 18.9821 9.37608C19.0712 9.33355 19.1511 9.27385 19.2171 9.2004C19.283 9.12696 19.3339 9.04121 19.3667 8.94807C19.3995 8.85493 19.4136 8.75623 19.4082 8.65763V8.2473C19.3547 7.8537 19.3923 7.45308 19.5182 7.07636C19.6532 6.69861 19.8722 6.35642 20.1585 6.07555C20.3799 5.85143 20.5549 5.58575 20.6734 5.29377C20.7918 5.0018 20.8514 4.68929 20.8487 4.37419C20.8461 4.05868 20.7812 3.7468 20.6576 3.45652C20.534 3.16624 20.3541 2.90329 20.1285 2.68283C19.9025 2.46546 19.6378 2.29234 19.3481 2.17242C19.0564 2.05239 18.7431 1.99445 18.4278 2.00229C18.113 2.00305 17.8015 2.06624 17.5113 2.18821C17.2211 2.31017 16.9579 2.4885 16.737 2.71286C16.4585 2.99524 16.115 3.20488 15.7366 3.32335C15.3667 3.44831 14.9729 3.48599 14.5861 3.43344C13.7429 3.29294 12.877 3.42622 12.1151 3.81374L11.9302 3.9062C11.7871 3.79673 11.6308 3.70513 11.4647 3.63367C10.9552 3.42403 10.3836 3.42403 9.87408 3.63367C9.62595 3.73785 9.40135 3.89102 9.21377 4.08403C9.01719 4.27251 8.86368 4.50124 8.76363 4.75457C8.65719 5.00452 8.60269 5.27353 8.60353 5.54521C8.60286 5.81915 8.65379 6.09076 8.75361 6.34585C8.7606 6.36211 8.76779 6.37828 8.77516 6.39435L7.01065 8.15956C6.98339 8.18018 6.95742 8.20276 6.93295 8.22721C6.90852 8.25167 6.88596 8.27766 6.86534 8.30493L4.72981 10.4413C4.70248 10.462 4.67646 10.4846 4.65195 10.5091C4.62746 10.5336 4.60485 10.5596 4.58419 10.587L2.56115 12.6108C2.38132 12.7817 2.24125 12.9902 2.15095 13.2213C2.05136 13.452 2.00026 13.7006 2.00086 13.9519C2.00048 14.1999 2.05161 14.4453 2.15095 14.6725C2.24329 14.9055 2.38299 15.1167 2.56115 15.293L7.47314 20.2069C7.64948 20.3802 7.85637 20.5193 8.08338 20.6172C8.31593 20.7092 8.56375 20.7567 8.81379 20.7573C9.06048 20.7555 9.30466 20.708 9.53407 20.6172C9.76297 20.5173 9.97283 20.3785 10.1543 20.2069C10.2948 20.0662 10.3738 19.8754 10.3738 19.6765C10.3738 19.4776 10.2948 19.2868 10.1543 19.1461C10.0845 19.0749 10.0011 19.0185 9.90923 18.9799C9.81733 18.9414 9.71872 18.9215 9.61907 18.9215C9.51942 18.9215 9.4208 18.9414 9.3289 18.9799C9.23701 19.0185 9.15364 19.0749 9.08381 19.1461C9.0496 19.1806 9.00877 19.2078 8.96376 19.2261C8.91621 19.2459 8.86531 19.2561 8.81379 19.2561C8.76228 19.2561 8.71126 19.2459 8.66371 19.2261C8.61573 19.2078 8.57161 19.1807 8.53365 19.1461L3.62154 14.2321C3.58274 14.1955 3.5521 14.1512 3.53154 14.102C3.52207 14.0524 3.52207 14.0015 3.53154 13.9519C3.52129 13.9024 3.52129 13.8513 3.53154 13.8018C3.5521 13.7526 3.58274 13.7082 3.62154 13.6717L5.18722 12.1054L6.52273 13.4414C6.66451 13.5804 6.85449 13.6593 7.05299 13.6616C7.25107 13.6573 7.44021 13.5787 7.58312 13.4414C7.72187 13.2977 7.79952 13.1058 7.79952 12.906C7.79952 12.7062 7.72187 12.5142 7.58312 12.3706L6.24907 11.0431L7.46678 9.82496L8.79373 11.1596C8.863 11.2297 8.94557 11.2853 9.03663 11.3232C9.12768 11.361 9.2254 11.3802 9.32398 11.3797C9.42281 11.382 9.52101 11.3635 9.61231 11.3256C9.70361 11.2877 9.78591 11.2311 9.85411 11.1596C9.9249 11.0906 9.98117 11.0081 10.0196 10.917C10.058 10.8259 10.0778 10.728 10.0778 10.6291C10.0778 10.5303 10.058 10.4324 10.0196 10.3413C9.98117 10.2502 9.9249 10.1677 9.85411 10.0987L8.52719 8.76414L9.73995 7.55093L12.2851 10.0889C12.3541 10.1595 12.4365 10.2154 12.5277 10.2532C12.6188 10.2911 12.7167 10.3101 12.8154 10.309C13.0103 10.318 13.2007 10.2497 13.3455 10.1189C13.486 9.97814 13.565 9.78736 13.565 9.58845L13.5649 9.57586L13.5651 9.55837C13.5651 9.35946 13.4861 9.16868 13.3456 9.02794L10.2744 5.95548C10.248 5.92913 10.2199 5.90495 10.1903 5.88304C10.1724 5.85528 10.157 5.82597 10.1442 5.79541C10.1291 5.72279 10.1291 5.64785 10.1442 5.57523C10.1299 5.5059 10.1299 5.43439 10.1442 5.36506C10.1747 5.29375 10.2189 5.22914 10.2743 5.17491C10.3261 5.12374 10.3873 5.08298 10.4544 5.05481C10.5223 5.02534 10.5955 5.01013 10.6695 5.01013C10.7435 5.01013 10.8166 5.02534 10.8845 5.05481C10.9547 5.08293 11.0191 5.12363 11.0747 5.17491L15.5565 9.62848C15.6972 9.76904 15.8878 9.848 16.0867 9.848C16.2855 9.848 16.4762 9.76904 16.6169 9.62848C16.7574 9.48774 16.8364 9.29697 16.8364 9.09806C16.8364 8.89915 16.7574 8.70837 16.6169 8.56763L13.0743 5.02365C13.4838 4.87977 13.9239 4.83811 14.356 4.90462C14.9771 4.99212 15.61 4.93737 16.2069 4.74449C16.8079 4.53952 17.3525 4.19679 17.7975 3.74368C17.88 3.66057 17.9782 3.59474 18.0865 3.55006C18.1947 3.50538 18.3107 3.48275 18.4278 3.48348C18.5466 3.48798 18.6643 3.50817 18.7779 3.54352C18.8872 3.58522 18.9862 3.65009 19.0681 3.73368C19.1525 3.8157 19.2198 3.91365 19.2662 4.02187C19.3125 4.1301 19.337 4.24644 19.3381 4.36418C19.338 4.48743 19.3132 4.6094 19.2651 4.72287C19.2169 4.83633 19.1466 4.93897 19.0581 5.02471C18.6044 5.46533 18.2615 6.00722 18.0576 6.60598C17.8549 7.20436 17.7966 7.84224 17.8875 8.46747C17.8974 8.56062 17.8974 8.65455 17.8875 8.7477C17.8978 8.93884 17.9817 9.11856 18.1216 9.24916Z" fill="#1B1A16"/>
<path fill-rule="evenodd" clip-rule="evenodd" d="M15.2064 21.9983H17.3973C17.5692 21.9918 17.7387 21.9545 17.8975 21.8882C18.0545 21.8187 18.1971 21.7202 18.3177 21.598C18.4376 21.4813 18.5327 21.3418 18.5977 21.1877C18.6654 21.0296 18.6995 20.8592 18.6979 20.6873V18.6857H20.6987C20.8696 18.6859 21.0388 18.6524 21.1967 18.5871C21.3547 18.5219 21.4981 18.4261 21.619 18.3054C21.861 18.0598 21.9974 17.7294 21.9992 17.3846V15.1829C21.997 14.8411 21.8604 14.514 21.619 14.2721C21.4981 14.1514 21.3547 14.0556 21.1967 13.9904C21.0388 13.9251 20.8696 13.8916 20.6987 13.8918H18.6979V11.8902C18.7004 11.7182 18.6662 11.5476 18.5977 11.3898C18.5392 11.2294 18.4433 11.0852 18.3177 10.9695C18.202 10.8439 18.0579 10.7478 17.8975 10.6893C17.7395 10.6216 17.5691 10.5875 17.3973 10.5892H15.2064C15.0378 10.5874 14.8706 10.6215 14.7161 10.6893C14.5546 10.7514 14.4081 10.8469 14.286 10.9695C14.1668 11.0906 14.0717 11.2332 14.0058 11.3898C13.9419 11.549 13.908 11.7187 13.9058 11.8902V13.8918H11.905C11.7374 13.8916 11.5713 13.9222 11.4148 13.9819C11.2576 14.0467 11.1148 14.1419 10.9945 14.2621C10.8711 14.3856 10.7727 14.5317 10.7045 14.6925C10.6416 14.8485 10.6076 15.0147 10.6044 15.1829V17.3946C10.6067 17.5629 10.6407 17.7293 10.7045 17.885C10.7704 18.0446 10.8653 18.1906 10.9845 18.3154C11.111 18.4325 11.2565 18.5273 11.4148 18.5956C11.5696 18.6622 11.7364 18.6963 11.905 18.6957H13.9058V20.6973C13.91 20.8686 13.9438 21.0379 14.0058 21.1977C14.0696 21.3525 14.165 21.4923 14.286 21.608C14.4084 21.7327 14.5547 21.8314 14.7161 21.8982C14.872 21.9612 15.0383 21.9951 15.2064 21.9983ZM17.1872 20.4971H15.3964V17.9351C15.3978 17.8361 15.3793 17.7379 15.3421 17.6462C15.3049 17.5546 15.2496 17.4713 15.1797 17.4013C15.1097 17.3313 15.0265 17.2761 14.9348 17.2389C14.8432 17.2016 14.745 17.1831 14.6461 17.1845H12.105V15.413H14.6461C14.8451 15.413 15.0359 15.334 15.1766 15.1932C15.3173 15.0524 15.3964 14.8615 15.3964 14.6624V12.1204H17.1872V14.6624C17.1898 14.8607 17.2697 15.0501 17.4099 15.1903C17.55 15.3305 17.7394 15.4105 17.9375 15.413H20.4785V17.2045H17.9375C17.7385 17.2045 17.5476 17.2836 17.4069 17.4243C17.2662 17.5651 17.1872 17.756 17.1872 17.9551V20.4971Z" fill="#1B1A16"/>
</svg>
