<svg width="24" height="24" viewBox="0 0 24 24" fill="none" xmlns="http://www.w3.org/2000/svg">
<path fill-rule="evenodd" clip-rule="evenodd" d="M6.27609 11.0852C6.27609 9.71313 7.38839 8.60084 8.76047 8.60084C10.1325 8.60084 11.2448 9.71313 11.2448 11.0852C11.2448 12.4573 10.1325 13.5696 8.76047 13.5696C7.3884 13.5696 6.27609 12.4573 6.27609 11.0852ZM8.76047 10.1008C8.21681 10.1008 7.77609 10.5416 7.77609 11.0852C7.77609 11.6289 8.2168 12.0696 8.76047 12.0696C9.30413 12.0696 9.74484 11.6289 9.74484 11.0852C9.74484 10.5416 9.30412 10.1008 8.76047 10.1008ZM12.0573 16.2883C12.0573 15.2356 12.9108 14.3821 13.9636 14.3821C15.0163 14.3821 15.8698 15.2356 15.8698 16.2883C15.8698 17.3411 15.0163 18.1946 13.9636 18.1946C12.9108 18.1946 12.0573 17.3411 12.0573 16.2883ZM13.9636 15.8821C13.7392 15.8821 13.5573 16.064 13.5573 16.2883C13.5573 16.5127 13.7392 16.6946 13.9636 16.6946C14.1879 16.6946 14.3698 16.5127 14.3698 16.2883C14.3698 16.064 14.1879 15.8821 13.9636 15.8821Z" fill="#1B1A16"/>
<path d="M14.5 10.7499C14.5 11.1639 14.164 11.4999 13.75 11.4999C13.336 11.4999 13 11.1639 13 10.7499C13 10.3359 13.336 9.99992 13.75 9.99992C14.164 9.99992 14.5 10.3359 14.5 10.7499Z" fill="#1B1A16"/>
<path d="M17.75 12.7499C17.75 13.1639 17.414 13.4999 17 13.4999C16.586 13.4999 16.25 13.1639 16.25 12.7499C16.25 12.3359 16.586 11.9999 17 11.9999C17.414 11.9999 17.75 12.3359 17.75 12.7499Z" fill="#1B1A16"/>
<path d="M9.49996 15.7499C9.49996 16.1639 9.16396 16.4999 8.74996 16.4999C8.33596 16.4999 7.99996 16.1639 7.99996 15.7499C7.99996 15.3359 8.33596 14.9999 8.74996 14.9999C9.16396 14.9999 9.49996 15.3359 9.49996 15.7499Z" fill="#1B1A16"/>
<path d="M12.003 20.7509C10.199 20.7509 8.46396 20.2039 6.98496 19.1719C5.47496 18.1149 4.35296 16.6379 3.74196 14.8999C3.12996 13.1599 3.08096 11.3059 3.59896 9.53792C4.11696 7.76892 5.15796 6.23392 6.60996 5.09992C8.06196 3.96492 9.80296 3.32592 11.645 3.25092C11.906 3.23992 12.147 3.36292 12.293 3.57592C12.439 3.78792 12.466 4.05992 12.364 4.29692C12.239 4.58892 12.187 4.90892 12.215 5.22392C12.243 5.53992 12.35 5.84692 12.524 6.11092C12.699 6.37592 12.938 6.59492 13.216 6.74592C13.494 6.89492 13.81 6.97492 14.125 6.97492C14.539 6.97392 14.947 6.83392 15.274 6.58292C15.502 6.40892 15.805 6.37892 16.065 6.50592C16.321 6.63292 16.483 6.89592 16.481 7.18192C16.48 7.43592 16.528 7.68392 16.624 7.91992C16.721 8.15592 16.86 8.36692 17.039 8.54592C17.219 8.72592 17.429 8.86692 17.663 8.96392C17.898 9.06192 18.145 9.11092 18.4 9.11092C18.701 9.10992 19.003 9.03392 19.268 8.89292C19.464 8.78892 19.694 8.77692 19.903 8.86092C20.108 8.94492 20.266 9.11492 20.334 9.32692C20.897 11.0819 20.896 12.9379 20.328 14.6909C19.761 16.4449 18.677 17.9499 17.194 19.0429C15.711 20.1379 13.952 20.7289 12.11 20.7519C12.107 20.7499 12.006 20.7509 12.003 20.7509ZM10.714 4.85692C9.55796 5.06392 8.47296 5.54692 7.53396 6.28092C6.32996 7.22092 5.46796 8.49292 5.03796 9.95892C4.60896 11.4239 4.64996 12.9599 5.15596 14.4009C5.66296 15.8419 6.59196 17.0659 7.84396 17.9419C9.06896 18.7969 10.508 19.2509 12.003 19.2509L12.092 19.2499C13.618 19.2299 15.075 18.7409 16.305 17.8339C17.534 16.9289 18.432 15.6819 18.902 14.2289C19.293 13.0229 19.36 11.7599 19.105 10.5339C18.428 10.6809 17.721 10.6119 17.088 10.3479C16.673 10.1759 16.299 9.92492 15.978 9.60392C15.659 9.28292 15.411 8.90793 15.238 8.48693C15.214 8.42693 15.19 8.36692 15.17 8.30592C14.298 8.58892 13.313 8.49592 12.508 8.06592C12.01 7.79692 11.584 7.40692 11.273 6.93592C10.963 6.46592 10.772 5.91892 10.722 5.35592C10.707 5.18992 10.704 5.02292 10.714 4.85692Z" fill="#1B1A16"/>
</svg>
