<svg width="24" height="24" viewBox="0 0 24 24" fill="none" xmlns="http://www.w3.org/2000/svg">
<path fill-rule="evenodd" clip-rule="evenodd" d="M3.57222 3.5C3.53234 3.5 3.5 3.53233 3.5 3.57222V9.4H14.3333V3.57222C14.3333 3.53234 14.301 3.5 14.2611 3.5H3.57222ZM15.8333 5.7V3.57222C15.8333 2.70391 15.1294 2 14.2611 2H3.57222C2.70391 2 2 2.70391 2 3.57222V20.4278C2 21.2961 2.70391 22 3.57222 22H14.2611C15.1294 22 15.8333 21.2961 15.8333 20.4278V7.2H16.3167C16.4449 7.2 16.5678 7.25092 16.6584 7.34157C16.7491 7.43221 16.8 7.55515 16.8 7.68333V20.0167C16.8 20.5427 17.009 21.0471 17.3809 21.4191C17.7528 21.791 18.2573 22 18.7833 22C19.3093 22 19.8138 21.791 20.1858 21.4191C20.5577 21.0471 20.7667 20.5427 20.7667 20.0167V13.3667H21.25C21.6642 13.3667 22 13.0309 22 12.6167C22 12.2025 21.6642 11.8667 21.25 11.8667H20.8522C20.942 11.4781 21.1015 11.1067 21.3249 10.7714L21.8737 9.94993C22.1037 9.6055 22.011 9.13976 21.6666 8.90968C21.3222 8.6796 20.8564 8.7723 20.6263 9.11673L20.0771 9.93896C19.5489 10.7318 19.2666 11.664 19.2667 12.6167C19.2667 12.6166 19.2667 12.6167 19.2667 12.6167V20.0167C19.2667 20.1449 19.2157 20.2678 19.1251 20.3584C19.0345 20.4491 18.9115 20.5 18.7833 20.5C18.6551 20.5 18.5322 20.4491 18.4416 20.3584C18.3509 20.2678 18.3 20.1449 18.3 20.0167V7.68333C18.3 7.15732 18.091 6.65285 17.7191 6.2809C17.3471 5.90896 16.8427 5.7 16.3167 5.7H15.8333ZM14.3333 10.9H3.5V20.4278C3.5 20.4677 3.53234 20.5 3.57222 20.5H14.2611C14.301 20.5 14.3333 20.4677 14.3333 20.4278V10.9ZM5.04757 5.04757C5.41952 4.67562 5.92399 4.46667 6.45 4.46667H11.3833C11.9093 4.46667 12.4138 4.67562 12.7858 5.04757C13.1577 5.41952 13.3667 5.92399 13.3667 6.45C13.3667 6.97601 13.1577 7.48048 12.7858 7.85243C12.4138 8.22438 11.9093 8.43333 11.3833 8.43333H6.45C5.92399 8.43333 5.41952 8.22438 5.04757 7.85243C4.67562 7.48048 4.46667 6.97601 4.46667 6.45C4.46667 5.92399 4.67562 5.41952 5.04757 5.04757ZM6.45 5.96667C6.32181 5.96667 6.19887 6.01759 6.10823 6.10823C6.01759 6.19887 5.96667 6.32181 5.96667 6.45C5.96667 6.57819 6.01759 6.70113 6.10823 6.79177C6.19888 6.88241 6.32181 6.93333 6.45 6.93333H11.3833C11.5115 6.93333 11.6345 6.88241 11.7251 6.79177C11.8157 6.70113 11.8667 6.57819 11.8667 6.45C11.8667 6.32181 11.8157 6.19887 11.7251 6.10823C11.6345 6.01759 11.5115 5.96667 11.3833 5.96667H6.45ZM8.91667 13.3667C8.78848 13.3667 8.66554 13.4176 8.5749 13.5082C8.48426 13.5989 8.43333 13.7218 8.43333 13.85V15.5667H10.15C10.5642 15.5667 10.9 15.9025 10.9 16.3167C10.9 16.7309 10.5642 17.0667 10.15 17.0667H8.43333V17.55C8.43333 17.6782 8.48426 17.8011 8.5749 17.8918C8.66554 17.9824 8.78848 18.0333 8.91667 18.0333H10.15C10.5642 18.0333 10.9 18.3691 10.9 18.7833C10.9 19.1975 10.5642 19.5333 10.15 19.5333H8.91667C8.39065 19.5333 7.88619 19.3244 7.51424 18.9524C7.14229 18.5805 6.93333 18.076 6.93333 17.55V13.85C6.93333 13.324 7.14229 12.8195 7.51424 12.4476C7.88619 12.0756 8.39065 11.8667 8.91667 11.8667H10.15C10.5642 11.8667 10.9 12.2025 10.9 12.6167C10.9 13.0309 10.5642 13.3667 10.15 13.3667H8.91667Z" fill="#1B1A16"/>
</svg>
