<svg width="24" height="24" viewBox="0 0 24 24" fill="none" xmlns="http://www.w3.org/2000/svg">
<path d="M14.4781 11.14C14.6851 10.781 14.5621 10.323 14.2041 10.116C13.8441 9.90898 13.3871 10.033 13.1801 10.391C13.0291 10.652 12.8111 10.87 12.5511 11.021C12.0281 11.324 11.3531 11.323 10.8321 11.022C10.5711 10.871 10.3541 10.653 10.2041 10.392C9.99707 10.033 9.53807 9.90898 9.18007 10.115C8.82107 10.321 8.69707 10.78 8.90307 11.139C9.18407 11.628 9.59107 12.036 10.0801 12.32C10.5691 12.602 11.1251 12.752 11.6901 12.752C12.2541 12.752 12.8111 12.603 13.3011 12.32C13.7891 12.037 14.1961 11.629 14.4781 11.14Z" fill="#1B1A16"/>
<path d="M18.4571 20.8L17.4721 19.486C17.1161 19.01 16.6421 18.625 16.0971 18.371C15.5571 18.121 14.9631 18.009 14.3261 18.042C14.0921 18.064 13.8601 18.042 13.6321 17.969C13.4091 17.898 13.1991 17.778 13.0241 17.623C12.8441 17.465 12.7031 17.276 12.6031 17.061C12.5021 16.846 12.4491 16.616 12.4421 16.398V15.779C15.5631 15.37 17.9921 12.451 17.9921 8.91698C17.9921 5.10398 15.1661 2.00098 11.6921 2.00098C8.21807 1.99998 5.39307 5.10298 5.39307 8.91598C5.39307 12.45 7.82207 15.369 10.9421 15.778V16.419C10.9551 16.864 11.0561 17.294 11.2431 17.695C11.4311 18.097 11.6961 18.452 12.0321 18.747C12.3611 19.037 12.7561 19.262 13.1741 19.396C13.6041 19.533 14.0431 19.576 14.4461 19.536C14.7921 19.516 15.1491 19.584 15.4651 19.73C15.7831 19.878 16.0631 20.105 16.2721 20.384L17.2581 21.699C17.4041 21.895 17.6301 21.999 17.8591 21.999C18.0151 21.999 18.1731 21.95 18.3081 21.849C18.6391 21.602 18.7061 21.132 18.4571 20.8ZM6.89307 8.91598C6.89307 5.92998 9.04607 3.49998 11.6921 3.49998C14.3381 3.49998 16.4921 5.92998 16.4921 8.91598C16.4921 11.902 14.3391 14.332 11.6921 14.332C9.04507 14.332 6.89307 11.902 6.89307 8.91598Z" fill="#1B1A16"/>
<path d="M9.53307 7.81698C10.1179 7.81698 10.5921 7.34285 10.5921 6.75798C10.5921 6.17311 10.1179 5.69898 9.53307 5.69898C8.9482 5.69898 8.47407 6.17311 8.47407 6.75798C8.47407 7.34285 8.9482 7.81698 9.53307 7.81698Z" fill="#1B1A16"/>
<path d="M13.8281 7.81598C14.4124 7.81598 14.8861 7.34229 14.8861 6.75798C14.8861 6.17366 14.4124 5.69998 13.8281 5.69998C13.2437 5.69998 12.7701 6.17366 12.7701 6.75798C12.7701 7.34229 13.2437 7.81598 13.8281 7.81598Z" fill="#1B1A16"/>
</svg>
