<svg width="24" height="24" viewBox="0 0 24 24" fill="none" xmlns="http://www.w3.org/2000/svg">
<path fill-rule="evenodd" clip-rule="evenodd" d="M8.30128 3.50116C8.00943 3.50116 7.72953 3.6171 7.52316 3.82347C7.31679 4.02984 7.20085 4.30973 7.20085 4.60159V7.06882C7.20085 7.23652 7.23913 7.40028 7.31085 7.5484C7.32473 7.5735 7.33823 7.5988 7.35133 7.62429C7.39845 7.70487 7.45602 7.7798 7.52316 7.84694C7.72953 8.05331 8.00943 8.16925 8.30128 8.16925C8.59313 8.16925 8.87303 8.05331 9.07939 7.84694C9.28576 7.64057 9.4017 7.36067 9.4017 7.06882V4.60159C9.4017 4.30973 9.28576 4.02984 9.07939 3.82347C8.87302 3.6171 8.59313 3.50116 8.30128 3.50116ZM10.1283 8.91925C10.1323 8.91538 10.1362 8.9115 10.1401 8.9076C10.6277 8.41993 10.9017 7.7585 10.9017 7.06882V4.60159C10.9017 3.91191 10.6277 3.25048 10.1401 2.76281C9.65238 2.27513 8.99095 2.00116 8.30128 2.00116C7.6116 2.00116 6.95017 2.27513 6.4625 2.76281C5.97482 3.25048 5.70085 3.91191 5.70085 4.60159V6.22334C5.42275 6.13374 5.12996 6.0869 4.83235 6.0869C4.08116 6.0869 3.36074 6.38531 2.82957 6.91647C2.29841 7.44764 2 8.16806 2 8.91925C2 9.67043 2.29841 10.3909 2.82957 10.922C3.36074 11.4532 4.08116 11.7516 4.83235 11.7516C5.12996 11.7516 5.42275 11.7048 5.70085 11.6152V13.2369C5.70085 13.9266 5.97482 14.588 6.4625 15.0757C6.46719 15.0804 6.4719 15.0851 6.47662 15.0897C6.4545 15.1114 6.43275 15.1334 6.41138 15.1559C6.17446 15.405 5.98931 15.6986 5.86659 16.0197L4.90968 18.3654C4.63922 19.0055 4.63285 19.7268 4.89213 20.3717C5.15214 21.0185 5.65809 21.5358 6.29899 21.8101C6.30673 21.8134 6.31452 21.8166 6.32237 21.8196C6.97226 22.0722 7.69581 22.0566 8.33423 21.7763C8.97086 21.4968 9.47098 20.9768 9.72556 20.33L10.6824 17.9844C10.7392 17.8538 10.7849 17.719 10.8194 17.5815C11.0953 17.6621 11.3846 17.6988 11.677 17.6878H15.0298C15.318 17.6986 15.6032 17.6631 15.8754 17.585C15.9107 17.7218 15.9571 17.8559 16.0144 17.9858L16.9689 20.3263C17.0917 20.6474 17.2768 20.941 17.5137 21.1901C17.7531 21.4419 18.0405 21.6431 18.3589 21.782C18.6773 21.9208 19.0203 21.9945 19.3677 21.9987C19.715 22.0028 20.0597 21.9373 20.3814 21.8061C20.703 21.6749 20.9951 21.4806 21.2404 21.2346C21.4857 20.9887 21.6793 20.6961 21.8097 20.3741C21.9401 20.0522 22.0047 19.7073 21.9997 19.36C21.9948 19.0162 21.9217 18.6768 21.7848 18.3615L20.8295 16.021C20.7084 15.6987 20.5245 15.4036 20.2885 15.1529C20.2676 15.1306 20.2462 15.1088 20.2246 15.0873C20.2462 15.0659 20.2676 15.044 20.2885 15.0218C20.5245 14.771 20.7084 14.476 20.8295 14.1537L21.7848 11.8132C21.9217 11.4978 21.9948 11.1585 21.9997 10.8147C22.0047 10.4673 21.9401 10.1225 21.8097 9.80052C21.6793 9.47856 21.4857 9.18597 21.2404 8.94002C20.9951 8.69408 20.703 8.49977 20.3814 8.36855C20.0597 8.23733 19.715 8.17186 19.3677 8.17601C19.0203 8.18016 18.6773 8.25384 18.3589 8.3927C18.0405 8.53157 17.7531 8.7328 17.5137 8.98453C17.2768 9.23368 17.0917 9.5273 16.9689 9.84839L16.0144 12.1889C15.9571 12.3188 15.9107 12.4529 15.8754 12.5897C15.6032 12.5115 15.318 12.4761 15.0298 12.4869H11.677C11.4135 12.477 11.1525 12.5058 10.9017 12.5706V10.7697C10.9017 10.08 10.6277 9.41857 10.1401 8.93089C10.1362 8.927 10.1323 8.92312 10.1283 8.91925ZM10.3834 15.0873C10.4071 15.3898 10.545 15.6725 10.7699 15.8775C11.0037 16.0907 11.3124 16.2025 11.6285 16.1885C11.6396 16.188 11.6506 16.1878 11.6617 16.1878H15.0451C15.0562 16.1878 15.0672 16.188 15.0783 16.1885C15.3945 16.2025 15.7034 16.0907 15.9373 15.8775C16.0204 15.8017 16.0917 15.7154 16.1497 15.6214C16.156 15.6105 16.1625 15.5997 16.169 15.5889C16.2566 15.4364 16.3101 15.2653 16.3242 15.0873C16.3101 14.9095 16.2566 14.7385 16.1692 14.5861C16.1626 14.5752 16.1561 14.5642 16.1496 14.5532C16.0916 14.4592 16.0204 14.3729 15.9373 14.2972C15.7034 14.084 15.3945 13.9722 15.0783 13.9862C15.0672 13.9867 15.0562 13.9869 15.0451 13.9869H11.6617C11.6506 13.9869 11.6396 13.9867 11.6285 13.9862C11.3124 13.9722 11.0037 14.084 10.7699 14.2971C10.545 14.5021 10.4071 14.7848 10.3834 15.0873ZM17.4388 16.3885C17.4452 16.3779 17.4515 16.3673 17.4578 16.3566C17.5018 16.2854 17.554 16.2192 17.6133 16.1595C17.7174 16.0547 17.8416 15.972 17.9783 15.9162C18.0818 15.874 18.191 15.8478 18.3019 15.8385C18.3445 15.84 18.3871 15.8404 18.4297 15.8399C18.4488 15.8396 18.4678 15.8391 18.4868 15.8385C18.6078 15.8487 18.7265 15.8788 18.838 15.9279C18.9732 15.9874 19.095 16.0735 19.1963 16.181C19.2975 16.2886 19.3761 16.4154 19.4273 16.5539C19.4302 16.5617 19.4332 16.5695 19.4364 16.5772L20.3994 18.9367L20.4071 18.9548C20.4662 19.0895 20.4978 19.2346 20.4999 19.3817C20.502 19.5287 20.4747 19.6747 20.4194 19.811C20.3642 19.9473 20.2823 20.0712 20.1784 20.1753C20.0746 20.2794 19.9509 20.3617 19.8147 20.4173C19.6786 20.4728 19.5327 20.5005 19.3856 20.4988C19.2385 20.497 19.0933 20.4658 18.9585 20.407C18.8237 20.3482 18.7021 20.2631 18.6007 20.1565C18.4994 20.0499 18.4204 19.9241 18.3685 19.7865L18.3613 19.7682L17.3991 17.4087C17.3959 17.4009 17.3926 17.3932 17.3892 17.3856C17.3289 17.2508 17.2963 17.1052 17.2934 16.9575C17.2904 16.8098 17.3173 16.6631 17.3722 16.526C17.3913 16.4786 17.4135 16.4326 17.4388 16.3885ZM18.4868 14.3362C18.4678 14.3355 18.4488 14.3351 18.4297 14.3348C18.3871 14.3342 18.3445 14.3347 18.3019 14.3362C18.191 14.3269 18.0818 14.3007 17.9783 14.2585C17.8416 14.2027 17.7174 14.1199 17.6133 14.0152C17.554 13.9555 17.5019 13.8894 17.4578 13.8182C17.4515 13.8074 17.4452 13.7967 17.4387 13.7861C17.4135 13.742 17.3912 13.6961 17.3722 13.6487C17.3173 13.5116 17.2904 13.3648 17.2934 13.2172C17.2963 13.0695 17.3289 12.9239 17.3892 12.7891C17.3926 12.7814 17.3959 12.7737 17.3991 12.766L18.3613 10.4065L18.3685 10.3881C18.4204 10.2506 18.4994 10.1248 18.6007 10.0182C18.7021 9.91162 18.8237 9.82643 18.9585 9.76764C19.0933 9.70885 19.2385 9.67766 19.3856 9.67591C19.5327 9.67415 19.6786 9.70187 19.8147 9.75742C19.9509 9.81297 20.0746 9.89523 20.1784 9.99935C20.2823 10.1035 20.3642 10.2273 20.4194 10.3636C20.4747 10.5 20.502 10.6459 20.4999 10.793C20.4978 10.94 20.4662 11.0852 20.4071 11.2198L20.3994 11.2379L19.4364 13.5974C19.4332 13.6052 19.4302 13.6129 19.4273 13.6208C19.3761 13.7593 19.2975 13.8861 19.1963 13.9937C19.095 14.1012 18.9732 14.1873 18.838 14.2468C18.7265 14.2959 18.6078 14.326 18.4868 14.3362ZM6.02855 9.50596C6.01386 9.53239 5.99964 9.55906 5.98588 9.58596C5.92821 9.68574 5.85736 9.77845 5.77446 9.86136C5.52459 10.1112 5.18571 10.2516 4.83235 10.2516C4.47898 10.2516 4.1401 10.1112 3.89024 9.86136C3.64037 9.61149 3.5 9.27261 3.5 8.91925C3.5 8.56589 3.64037 8.227 3.89024 7.97714C4.1401 7.72727 4.47899 7.5869 4.83235 7.5869C5.1857 7.5869 5.52459 7.72727 5.77446 7.97714C5.85736 8.06004 5.92821 8.15275 5.98588 8.25253C5.99963 8.27944 6.01386 8.30611 6.02856 8.33254C6.11729 8.51347 6.16469 8.71392 6.16469 8.91925C6.16469 9.12458 6.11729 9.32503 6.02855 9.50596ZM7.31086 10.2901C7.32473 10.265 7.33822 10.2397 7.35133 10.2142C7.39844 10.1336 7.45602 10.0587 7.52316 9.99155C7.72953 9.78518 8.00943 9.66925 8.30128 9.66925C8.59313 9.66925 8.87302 9.78518 9.07939 9.99155C9.28576 10.1979 9.4017 10.4778 9.4017 10.7697V13.2369C9.4017 13.5288 9.28576 13.8087 9.07939 14.015C8.87303 14.2214 8.59313 14.3373 8.30128 14.3373C8.00943 14.3373 7.72953 14.2214 7.52316 14.015C7.31679 13.8087 7.20085 13.5288 7.20085 13.2369V10.7697C7.20085 10.602 7.23913 10.4382 7.31086 10.2901ZM8.71238 15.9288C8.57621 15.8732 8.43029 15.8455 8.28324 15.8473C8.13619 15.849 7.99097 15.8802 7.85617 15.939C7.72137 15.9978 7.59971 16.083 7.49836 16.1896C7.39702 16.2961 7.31805 16.4219 7.26611 16.5595L7.25888 16.5779L6.29251 18.9468C6.17517 19.2228 6.17202 19.534 6.28388 19.8123C6.39416 20.0866 6.6073 20.3068 6.87751 20.426C7.15404 20.5299 7.46043 20.5217 7.73123 20.4029C8.00588 20.2823 8.22148 20.0577 8.3307 19.7783L8.3347 19.7681L9.29699 17.4094L9.30472 17.3912C9.36384 17.2565 9.3954 17.1114 9.39752 16.9644C9.39965 16.8173 9.3723 16.6713 9.31709 16.535C9.26188 16.3987 9.17993 16.2748 9.07607 16.1707C8.97221 16.0666 8.84854 15.9843 8.71238 15.9288Z" fill="#1B1A16"/>
</svg>
