<svg width="24" height="24" viewBox="0 0 24 24" fill="none" xmlns="http://www.w3.org/2000/svg">
<path fill-rule="evenodd" clip-rule="evenodd" d="M4.7168 9.53333C4.7168 5.37279 8.08958 2 12.2501 2C16.4106 2 19.7835 5.37278 19.7835 9.53333C19.7835 13.6938 16.4106 17.0667 12.2501 17.0667C8.08958 17.0667 4.7168 13.6938 4.7168 9.53333ZM12.2501 3.5C8.91801 3.5 6.2168 6.20121 6.2168 9.53333C6.2168 12.8654 8.91801 15.5667 12.2501 15.5667C15.5822 15.5667 18.2835 12.8654 18.2835 9.53333C18.2835 6.20122 15.5822 3.5 12.2501 3.5ZM15.5085 10.7667C15.5085 10.1822 15.9823 9.70833 16.5668 9.70833C17.1513 9.70833 17.6251 10.1822 17.6251 10.7667C17.6251 11.3512 17.1513 11.825 16.5668 11.825C15.9823 11.825 15.5085 11.3512 15.5085 10.7667ZM12.4251 11.3833C12.4251 10.7988 12.899 10.325 13.4835 10.325C14.068 10.325 14.5418 10.7988 14.5418 11.3833C14.5418 11.9678 14.068 12.4417 13.4835 12.4417C12.899 12.4417 12.4251 11.9678 12.4251 11.3833ZM14.2751 13.2333C14.2751 12.6488 14.749 12.175 15.3335 12.175C15.918 12.175 16.3918 12.6488 16.3918 13.2333C16.3918 13.8178 15.918 14.2917 15.3335 14.2917C14.749 14.2917 14.2751 13.8178 14.2751 13.2333ZM11.1918 13.85C11.1918 13.2655 11.6656 12.7917 12.2501 12.7917C12.8346 12.7917 13.3085 13.2655 13.3085 13.85C13.3085 14.4345 12.8346 14.9083 12.2501 14.9083C11.6656 14.9083 11.1918 14.4345 11.1918 13.85ZM6.6823 16.9585C6.90315 16.6081 7.36627 16.5031 7.71669 16.7239C9.07402 17.5794 10.6457 18.0333 12.2501 18.0333C13.8546 18.0333 15.4263 17.5794 16.7836 16.7239C17.134 16.5031 17.5971 16.6081 17.818 16.9585C18.0388 17.3089 17.9338 17.7721 17.5834 17.9929C16.1988 18.8656 14.6246 19.383 13.0001 19.5052V21.25C13.0001 21.6642 12.6643 22 12.2501 22C11.8359 22 11.5001 21.6642 11.5001 21.25V19.5052C9.87566 19.383 8.30149 18.8656 6.9169 17.9929C6.56648 17.7721 6.46145 17.309 6.6823 16.9585Z" fill="#1B1A16"/>
</svg>
