<svg width="24" height="24" viewBox="0 0 24 24" fill="none" xmlns="http://www.w3.org/2000/svg">
<path fill-rule="evenodd" clip-rule="evenodd" d="M12.0501 2C12.4643 2 12.8001 2.33579 12.8001 2.75L12.8001 3.26599C14.8514 3.44197 16.7846 4.33561 18.2517 5.80265C19.8964 7.4474 20.8204 9.67817 20.8204 12.0042V15.0889C20.8204 15.1449 20.8143 15.1995 20.8026 15.252L21.9314 19.3899C22.0261 19.7408 22.0227 20.111 21.9214 20.4601C21.8201 20.8092 21.6248 21.1237 21.3569 21.3694C21.089 21.6151 20.7587 21.7824 20.4022 21.8531C20.0456 21.9239 19.6765 21.8953 19.3351 21.7705L19.3246 21.7667C16.9825 20.8708 14.5064 20.3753 12 20.3012C9.49358 20.3753 7.01748 20.8706 4.67542 21.7666L4.66492 21.7706C4.32351 21.8954 3.95435 21.9239 3.59781 21.8531C3.24126 21.7824 2.911 21.6151 2.64309 21.3694C2.37518 21.1237 2.17991 20.8092 2.0786 20.4601C1.9773 20.111 1.97385 19.7408 2.06864 19.3899L2.06913 19.3881L3.25613 15.0365C3.26284 15.0119 3.27076 14.9878 3.27981 14.9643V12.0042C3.27981 9.67817 4.20382 7.4474 5.84857 5.80265C7.31561 4.33561 9.24888 3.44197 11.3001 3.26599L11.3001 2.75C11.3001 2.33578 11.6359 2 12.0501 2ZM10.6065 4.87863C9.21612 5.16034 7.92726 5.84528 6.90923 6.86331C5.54578 8.22676 4.77981 10.076 4.77981 12.0042V14.25C5.91388 13.9715 7.06048 13.7495 8.21539 13.5844V10.6889C8.21538 9.39202 8.57982 8.12127 9.26714 7.02155L10.6065 4.87863ZM9.71539 13.4027C10.4658 13.328 11.2188 13.2772 11.9735 13.2505C11.9912 13.2498 12.0088 13.2498 12.0265 13.2505C12.8148 13.2783 13.6013 13.3325 14.3849 13.4128V10.6889C14.3849 9.67315 14.0994 8.67787 13.5611 7.81655L12.0501 5.39898L10.5391 7.81655C10.0008 8.67787 9.71538 9.67315 9.71539 10.6889V13.4027ZM13.4938 4.87863L14.8331 7.02155C15.5204 8.12127 15.8849 9.39202 15.8849 10.6889V13.5989C17.0399 13.7673 18.1865 13.9928 19.3204 14.2747V12.0042C19.3204 10.076 18.5544 8.22676 17.191 6.86331C16.173 5.84528 14.8841 5.16034 13.4938 4.87863ZM19.4099 15.8459C16.9883 15.2084 14.5032 14.841 12 14.7505C9.49677 14.841 7.01169 15.2084 4.59015 15.8459L3.51674 19.781C3.49382 19.8664 3.49453 19.9571 3.51917 20.042C3.54388 20.1272 3.59151 20.2039 3.65686 20.2638C3.7222 20.3237 3.80276 20.3646 3.88972 20.3818C3.9753 20.3988 4.06385 20.3923 4.146 20.3631C6.65047 19.4059 9.29846 18.8778 11.9786 18.8012C11.9929 18.8008 12.0072 18.8008 12.0215 18.8012C14.7015 18.8779 17.3495 19.4059 19.854 20.3631C19.9361 20.3923 20.0247 20.3988 20.1103 20.3818C20.1972 20.3646 20.2778 20.3237 20.3431 20.2638C20.4085 20.2039 20.4561 20.1272 20.4808 20.042C20.5054 19.9572 20.5064 19.8672 20.4835 19.7819L19.4099 15.8459Z" fill="#1B1A16"/>
</svg>
