<svg width="24" height="24" viewBox="0 0 24 24" fill="none" xmlns="http://www.w3.org/2000/svg">
<path fill-rule="evenodd" clip-rule="evenodd" d="M9.03862 7.07964C10.1098 6.99151 11.1948 7.19047 12.1773 7.66943C13.6157 8.37062 14.7166 9.61448 15.2379 11.1274L15.5973 12.1674L12.3579 13.2837C11.7734 10.7591 10.7216 9.0067 9.75756 7.85447C9.50808 7.55631 9.26514 7.29911 9.03862 7.07964ZM12.021 14.9864C12.0331 14.9825 12.0451 14.9784 12.0569 14.974L16.5445 13.4276L20.1982 14.7573C20.2788 14.79 20.3492 14.8439 20.4019 14.9134C20.4558 14.9846 20.489 15.0693 20.4977 15.1582C20.5064 15.2471 20.4903 15.3366 20.4512 15.4169C20.4127 15.496 20.3534 15.563 20.2797 15.6109C18.923 16.4469 17.3677 16.9054 15.7744 16.9388C14.1805 16.9723 12.6068 16.5792 11.2159 15.8002L10.6342 15.4643L12.021 14.9864ZM10.9312 13.7754C10.4102 11.4096 9.44775 9.82169 8.60714 8.81704C8.14907 8.26958 7.72402 7.89167 7.4205 7.65446C7.35174 7.60072 7.28926 7.55423 7.23409 7.51467C5.8726 8.07583 4.75899 9.11793 4.1101 10.449C3.40909 11.887 3.30789 13.5446 3.82871 15.0571L3.82911 15.0583L4.03224 15.6413C4.07397 15.7625 4.16211 15.8622 4.27728 15.9184C4.39246 15.9746 4.52524 15.9827 4.64643 15.941L8.53191 14.6021C8.56843 14.5862 8.60614 14.5732 8.64463 14.5633L10.9312 13.7754ZM8.75584 16.1115L5.13465 17.3594C4.63738 17.5304 4.0921 17.497 3.61951 17.2664C3.14736 17.0361 2.78592 16.6278 2.61448 16.1312L2.614 16.1298L2.41177 15.5494L2.41093 15.5469C1.76007 13.6579 1.88627 11.5877 2.76178 9.79172C3.63729 7.99575 5.19039 6.62112 7.07941 5.97026C8.96844 5.31939 11.0387 5.4456 12.8346 6.32111C14.6306 7.19662 16.0052 8.74972 16.6561 10.6387L17.1435 12.0494L20.7209 13.3513L20.7367 13.3573C21.0781 13.4903 21.376 13.7153 21.5974 14.0074C21.8187 14.2995 21.9548 14.6472 21.9905 15.0119C22.0263 15.3766 21.9603 15.744 21.7999 16.0735C21.6395 16.403 21.3909 16.6816 21.0818 16.8784L21.073 16.884C19.4874 17.8627 17.6688 18.3994 15.8058 18.4385C13.9429 18.4776 12.1034 18.0176 10.4782 17.1063L10.4698 17.1016L8.75584 16.1115Z" fill="#1B1A16"/>
</svg>
