<svg width="24" height="24" viewBox="0 0 24 24" fill="none" xmlns="http://www.w3.org/2000/svg">
<path fill-rule="evenodd" clip-rule="evenodd" d="M12.3099 2.16443C12.5632 2.05594 12.8358 2 13.1113 2C13.3868 2 13.6595 2.05594 13.9127 2.16443C14.166 2.27292 14.3945 2.4317 14.5846 2.63115L14.5856 2.63216C14.72 2.77376 14.8333 2.93175 14.9236 3.10125C15.0711 2.98071 15.2351 2.8812 15.411 2.80593C15.6641 2.69757 15.9367 2.6417 16.2121 2.6417C16.4875 2.6417 16.76 2.69757 17.0132 2.80593C17.2663 2.91429 17.4949 3.07288 17.685 3.27212L17.6861 3.27327C17.887 3.48469 18.0408 3.73269 18.1411 4.00102C18.3201 3.95063 18.5055 3.92491 18.6923 3.92491C18.9678 3.92491 19.2404 3.98085 19.4936 4.08935C19.7468 4.19785 19.9753 4.35665 20.1653 4.55611C20.5447 4.9553 20.7568 5.48559 20.7568 6.03625C20.7568 6.23936 20.728 6.43962 20.6727 6.63152C20.6931 6.63951 20.7135 6.64783 20.7337 6.65648C20.9869 6.76484 21.2154 6.92344 21.4056 7.12268L21.4067 7.12383C21.786 7.52301 21.9975 8.05263 21.9975 8.60329C21.9975 9.15394 21.786 9.68356 21.4067 10.0827L21.4028 10.0868L18.2787 13.3254L18.9897 13.2228C19.0125 13.2195 19.0355 13.2173 19.0585 13.2161C19.3909 13.1991 19.7234 13.2479 20.0368 13.3598C20.3503 13.4717 20.6386 13.6444 20.8851 13.868C21.1316 14.0916 21.3316 14.3617 21.4734 14.6628C21.6143 14.9619 21.6952 15.2858 21.7113 15.6161C21.8044 17.1415 20.5826 17.9484 19.5625 18.3002L19.5588 18.3015C18.4126 18.69 17.2467 19.0175 16.0658 19.2825L16.0639 19.2829C15.8217 19.3366 15.5571 19.4014 15.2789 19.4695C14.5373 19.651 13.6993 19.8561 12.9331 19.9381C12.251 20.0112 11.5029 20.0044 10.8244 19.751L9.00496 21.6335C9.00402 21.6345 9.00307 21.6355 9.00213 21.6364C8.89268 21.7509 8.76128 21.842 8.61577 21.9045C8.46901 21.9675 8.31096 22 8.15122 22C7.99149 22 7.83344 21.9675 7.68668 21.9045C7.54116 21.842 7.40974 21.7508 7.30029 21.6364C7.29936 21.6354 7.29842 21.6345 7.29749 21.6335L2.33712 16.4997C2.12233 16.2738 2.00256 15.9739 2.00256 15.6622C2.00256 15.3505 2.12234 15.0507 2.33714 14.8247L2.34122 14.8204L4.22884 12.8663C4.10992 12.2051 4.14374 11.5457 4.38757 10.8592C4.67561 10.0482 5.23708 9.25561 6.06104 8.40282L11.64 2.629C11.8297 2.43056 12.0576 2.27253 12.3099 2.16443ZM5.04986 14.1754L3.61371 15.6622L8.15126 20.3584L9.58818 18.8716L5.04986 14.1754ZM5.72884 12.7195L10.8604 18.0295C11.2304 18.4126 11.836 18.547 12.7734 18.4466C13.4338 18.3759 14.112 18.2098 14.8158 18.0374C15.1183 17.9633 15.4256 17.8881 15.7382 17.8187C16.8663 17.5655 17.9802 17.2527 19.0751 16.8816C19.9124 16.5925 20.2439 16.1778 20.2139 15.7046L20.2131 15.692C20.2069 15.5569 20.1741 15.4244 20.1164 15.302C20.0588 15.1797 19.9776 15.0699 19.8774 14.979C19.7772 14.8882 19.66 14.818 19.5327 14.7725C19.4147 14.7304 19.29 14.7103 19.165 14.713L16.3261 15.1226C16.0088 15.1684 15.6975 15.0075 15.5514 14.7222C15.4053 14.4369 15.4566 14.0903 15.6792 13.8596L20.3193 9.04951C20.3198 9.04898 20.3203 9.04845 20.3208 9.04791C20.4342 8.9277 20.4975 8.76864 20.4975 8.60329C20.4975 8.43742 20.4338 8.27787 20.3197 8.15753C20.2698 8.1054 20.2098 8.06389 20.1435 8.03549C20.0768 8.00696 20.0051 7.99226 19.9326 7.99226C19.8601 7.99226 19.7884 8.00696 19.7217 8.03549C19.6617 8.06115 19.607 8.09752 19.5602 8.14275L18.0962 9.65803C17.8084 9.95592 17.3336 9.96409 17.0357 9.67628C16.7378 9.38847 16.7296 8.91367 17.0175 8.61578L18.4484 7.13471C18.4521 7.13067 18.4558 7.12666 18.4596 7.12268C18.4708 7.11094 18.4822 7.09935 18.4936 7.0879L19.0786 6.48247C19.0792 6.48187 19.0797 6.48127 19.0803 6.48066C19.1936 6.36048 19.2568 6.2015 19.2568 6.03625C19.2568 5.87034 19.1931 5.71077 19.079 5.59042C19.0291 5.53816 18.9692 5.49655 18.9028 5.4681C18.8363 5.4396 18.7647 5.42491 18.6923 5.42491C18.62 5.42491 18.5484 5.4396 18.4819 5.4681C18.4154 5.4966 18.3553 5.53831 18.3054 5.5907L18.302 5.59434L17.6832 6.23521L17.682 6.23649L15.6267 8.3755C15.3397 8.67418 14.8649 8.68365 14.5663 8.39666C14.2676 8.10967 14.2581 7.63489 14.5451 7.33621L16.5987 5.19895C16.5991 5.19854 16.5995 5.19812 16.5999 5.1977C16.7136 5.07745 16.7769 4.91824 16.7769 4.75273C16.7769 4.58692 16.7133 4.42743 16.5993 4.3071C16.5493 4.25491 16.4894 4.21336 16.423 4.18493C16.3563 4.15641 16.2846 4.1417 16.2121 4.1417C16.1396 4.1417 16.0678 4.15641 16.0012 4.18493C15.9345 4.21346 15.8743 4.25521 15.8243 4.30766L15.8211 4.31101L14.5811 5.59453L12.7203 7.52026C12.4325 7.81813 11.9577 7.82628 11.6598 7.53845C11.3619 7.25062 11.3538 6.77582 11.6416 6.47795L13.4996 4.55509C13.6127 4.43493 13.6758 4.27609 13.6758 4.11099C13.6758 3.94522 13.6122 3.78576 13.4982 3.66544C13.4483 3.61324 13.3884 3.57167 13.322 3.54324C13.2554 3.51471 13.1838 3.5 13.1113 3.5C13.0389 3.5 12.9672 3.51471 12.9006 3.54324C12.834 3.57177 12.7739 3.61352 12.7239 3.66597L12.7203 3.66972L7.13978 9.4451C7.13977 9.4451 7.13978 9.44509 7.13978 9.4451C6.38917 10.222 5.98823 10.8342 5.80106 11.3612C5.6416 11.8101 5.62276 12.2378 5.72884 12.7195Z" fill="#1B1A16"/>
</svg>
