<svg width="24" height="24" viewBox="0 0 24 24" fill="none" xmlns="http://www.w3.org/2000/svg">
<path d="M11.2416 12.7583C10.6547 12.1714 9.70714 12.1714 9.12024 12.7583C8.53334 13.3452 8.53334 14.2927 9.12024 14.8796C9.70714 15.4665 10.6547 15.4665 11.2416 14.8796C11.8285 14.2927 11.8285 13.3452 11.2416 12.7583Z" fill="#1B1A16"/>
<path d="M6.64537 15.2332C6.93826 14.9403 7.41314 14.9403 7.70603 15.2332L8.76669 16.2938C9.05958 16.5867 9.05958 17.0616 8.76669 17.3545C8.4738 17.6474 7.99892 17.6474 7.70603 17.3545L6.64537 16.2938C6.35247 16.001 6.35248 15.5261 6.64537 15.2332Z" fill="#1B1A16"/>
<path fill-rule="evenodd" clip-rule="evenodd" d="M19.5501 3.0356C19.3781 2.86365 19.1335 2.78574 18.8938 2.82658C18.654 2.86743 18.449 3.02196 18.3437 3.24114L17.6899 4.60208C17.5896 4.81082 17.5931 5.04906 17.6891 5.25012L17.3918 5.5474L17.215 5.37062C16.9221 5.07773 16.4473 5.07773 16.1544 5.37062C15.8615 5.66351 15.8615 6.13839 16.1544 6.43128L16.3312 6.60806L16.0845 6.85475L15.9077 6.67798C15.6148 6.38508 15.1399 6.38508 14.847 6.67798C14.5541 6.97087 14.5541 7.44574 14.847 7.73864L15.0238 7.91541L14.0542 8.88504C13.2422 8.1945 12.42 7.83807 11.612 7.74958C10.6716 7.64657 9.84181 7.91657 9.17979 8.28734C8.52142 8.65607 8.0007 9.13933 7.65046 9.51826C7.50674 9.67375 7.38848 9.81521 7.29795 9.92948C7.10002 9.96415 6.83943 10.0269 6.5324 10.1402C5.87256 10.3838 5.01245 10.8557 4.10685 11.7613C2.38561 13.4825 2.38561 16.2767 4.10685 17.998L6.0019 19.893C7.72315 21.6143 10.5173 21.6143 12.2386 19.893C13.1442 18.9874 13.6161 18.1273 13.8597 17.4675C13.973 17.1604 14.0357 16.8999 14.0704 16.7019C14.1847 16.6114 14.3261 16.4931 14.4816 16.3494C14.8605 15.9992 15.3438 15.4785 15.7125 14.8201C16.0833 14.1581 16.3533 13.3283 16.2503 12.3878C16.1618 11.5799 15.8054 10.7577 15.1148 9.9457L16.0845 8.97607L16.2612 9.15285C16.5541 9.44574 17.029 9.44574 17.3219 9.15285C17.6148 8.85996 17.6148 8.38508 17.3219 8.09219L17.1451 7.91541L17.3918 7.66872L17.5686 7.84549C17.8615 8.13839 18.3364 8.13839 18.6293 7.84549C18.9221 7.5526 18.9221 7.07772 18.6293 6.78483L18.4525 6.60806L18.7498 6.31078C18.9508 6.40676 19.1891 6.41029 19.3978 6.31L20.7587 5.65617C20.9779 5.55087 21.1325 5.34583 21.1733 5.10612C21.2141 4.8664 21.1362 4.62176 20.9643 4.44981L19.5501 3.0356ZM11.6446 11.2946L12.9891 9.95012C12.4059 9.47836 11.887 9.28867 11.4487 9.24066C10.9003 9.18059 10.3839 9.33221 9.91276 9.59607C9.43799 9.86197 9.03858 10.2263 8.75199 10.5364C8.61064 10.6893 8.50146 10.8239 8.42901 10.9182C8.39288 10.9653 8.36617 11.0019 8.34943 11.0254C8.34108 11.0371 8.33523 11.0455 8.33198 11.0503L8.33007 11.053C8.19291 11.2584 7.96323 11.3834 7.71672 11.3869C7.71428 11.387 7.70856 11.3873 7.6997 11.388C7.67795 11.3897 7.63733 11.3937 7.57999 11.4031C7.46541 11.4218 7.28373 11.4618 7.05178 11.5474C6.59087 11.7175 5.91655 12.0729 5.16751 12.822C4.03205 13.9574 4.03205 15.8019 5.16751 16.9373L7.06256 18.8324C8.19802 19.9678 10.0425 19.9678 11.1779 18.8324C11.927 18.0833 12.2823 17.409 12.4524 16.9481C12.5381 16.7161 12.5781 16.5345 12.5968 16.4199C12.6062 16.3625 12.6102 16.3219 12.6119 16.3002L12.6128 16.2871L12.613 16.2831C12.6165 16.0369 12.7407 15.8079 12.9456 15.6707L12.9496 15.6679C12.9543 15.6646 12.9628 15.6588 12.9745 15.6504C12.998 15.6337 13.0346 15.607 13.0817 15.5709C13.176 15.4984 13.3105 15.3892 13.4635 15.2479C13.7735 14.9613 14.1379 14.5619 14.4038 14.0871C14.6677 13.616 14.8193 13.0996 14.7592 12.5512C14.7112 12.1129 14.5215 11.594 14.0498 11.0108L12.7053 12.3553C12.4124 12.6482 11.9375 12.6482 11.6446 12.3553C11.3517 12.0624 11.3517 11.5875 11.6446 11.2946Z" fill="#1B1A16"/>
</svg>
