<svg width="24" height="24" viewBox="0 0 24 24" fill="none" xmlns="http://www.w3.org/2000/svg">
<path d="M7.2417 5.38353C7.4402 5.18666 7.70839 5.07622 7.98779 5.07623C8.12866 5.07223 8.26884 5.0964 8.40027 5.14731C8.5317 5.19823 8.65168 5.27487 8.75317 5.37276C8.85467 5.47064 8.93573 5.58781 8.99146 5.7174C9.04718 5.847 9.07649 5.98642 9.07776 6.12751C9.07782 6.26944 9.0494 6.40995 8.99426 6.5407C8.93913 6.67146 8.85834 6.78982 8.75671 6.88877C8.65508 6.98773 8.53468 7.06526 8.40259 7.1168C8.2705 7.16833 8.1295 7.19281 7.98779 7.1888C7.70666 7.1888 7.43707 7.07698 7.23828 6.87795C7.03949 6.67892 6.92773 6.40898 6.92773 6.12751C6.93037 5.84778 7.0432 5.5804 7.2417 5.38353Z" fill="#1B1A16"/>
<path d="M11.6965 4.44543C11.4162 4.44805 11.1481 4.5607 10.9498 4.75916C10.7516 4.95763 10.6392 5.22606 10.6366 5.50672C10.6392 5.78738 10.7516 6.05581 10.9498 6.25428C11.1481 6.45275 11.4162 6.5654 11.6965 6.56801C11.9769 6.5654 12.245 6.45275 12.4432 6.25428C12.6415 6.05581 12.754 5.78738 12.7566 5.50672C12.754 5.22606 12.6415 4.95763 12.4432 4.75916C12.245 4.5607 11.9769 4.44805 11.6965 4.44543Z" fill="#1B1A16"/>
<path d="M16.4553 6.12745C16.4553 6.71358 15.9808 7.18874 15.3953 7.18874C14.8099 7.18874 14.3353 6.71358 14.3353 6.12745C14.3353 5.54131 14.8099 5.06616 15.3953 5.06616C15.9808 5.06616 16.4553 5.54131 16.4553 6.12745Z" fill="#1B1A16"/>
<path fill-rule="evenodd" clip-rule="evenodd" d="M21.6817 11.9928C21.7627 11.847 21.8302 11.6935 21.8831 11.534C22.011 11.1088 22.0349 10.6589 21.953 10.2224C21.8594 9.78498 21.6565 9.37848 21.3632 9.04101C21.1972 8.84927 21.0046 8.6838 20.7921 8.54913C20.7487 7.80232 20.5875 7.06597 20.3135 6.36774C19.9692 5.51446 19.4634 4.73591 18.824 4.07496C18.1785 3.42082 17.4108 2.90031 16.5647 2.5431C15.7151 2.19051 14.8052 2.00688 13.8856 2.00244H10.1867C9.27221 2.00505 8.3673 2.18869 7.52395 2.54281C6.68059 2.89693 5.91548 3.41455 5.27258 4.06588C4.62967 4.71721 4.12167 5.48941 3.77781 6.33807C3.49696 7.0312 3.33007 7.76417 3.28263 8.5085C3.04201 8.64988 2.82455 8.82939 2.63916 9.04101C2.34876 9.37905 2.14912 9.78567 2.05926 10.2224C1.97246 10.6586 1.99659 11.1096 2.12931 11.534C2.17991 11.6857 2.24338 11.8321 2.31876 11.9718C2.10848 12.3528 1.99697 12.7843 1.99943 13.2261C2.00235 13.9131 2.27531 14.5714 2.7592 15.0583L2.77406 15.0735L2.75916 15.0883C2.27375 15.5784 2.00076 16.2403 1.99939 16.9306C1.99968 17.6211 2.27283 18.2834 2.75916 18.7728C2.90106 18.9156 3.05881 19.0409 3.229 19.1465V19.9943C3.23316 20.2569 3.29092 20.5158 3.39887 20.7552C3.49918 21.0001 3.64899 21.2217 3.8388 21.406C4.0274 21.5902 4.25208 21.7334 4.49862 21.8265C4.72648 21.9219 4.97141 21.9696 5.21837 21.9667L5.12843 21.9967H18.6342C18.8968 22.0044 19.1583 21.9602 19.4039 21.8665C19.6478 21.7638 19.8713 21.6179 20.0637 21.436C20.249 21.2518 20.3982 21.0345 20.5036 20.7952C20.6121 20.549 20.6698 20.2834 20.6735 20.0143V19.1982C20.878 19.0827 21.0664 18.9397 21.2333 18.7728C21.7197 18.2834 21.9928 17.6211 21.9931 16.9306C21.9917 16.2403 21.7187 15.5784 21.2333 15.0883L21.2184 15.0735L21.2334 15.0583C21.7173 14.5714 21.9902 13.9131 21.9931 13.2261C21.9923 12.7925 21.8839 12.3692 21.6817 11.9928ZM19.7631 9.76186H4.24189C4.07849 9.82564 3.93314 9.92874 3.81872 10.0622C3.69486 10.2055 3.60892 10.3777 3.56879 10.5629C3.5174 10.7428 3.5174 10.9336 3.56879 11.1135C3.60922 11.2371 3.67068 11.3523 3.75002 11.4541C3.77334 11.4781 3.79495 11.5035 3.81477 11.53C3.83211 11.5486 3.85011 11.5667 3.86875 11.5841C4.0015 11.7138 4.16762 11.8039 4.34858 11.8444C4.53248 11.8894 4.72444 11.8894 4.90834 11.8444C5.08639 11.7929 5.24829 11.6964 5.37828 11.5641C5.51505 11.4336 5.61201 11.2669 5.6581 11.0835C5.69575 10.9548 5.76633 10.8381 5.86275 10.7451C5.95918 10.652 6.07816 10.5857 6.20798 10.5528C6.33913 10.5252 6.47517 10.5318 6.603 10.5722C6.73083 10.6125 6.8461 10.6852 6.93773 10.7831C7.5189 11.4142 8.31332 11.8067 9.16701 11.8845C10.0218 11.9627 10.8747 11.7161 11.5563 11.1936C11.6861 11.0961 11.844 11.0434 12.0062 11.0434C12.1684 11.0434 12.3262 11.0961 12.456 11.1936C13.1385 11.7143 13.9907 11.9607 14.8453 11.8845C15.699 11.8067 16.4934 11.4142 17.0746 10.7831C17.165 10.6835 17.2802 10.6097 17.4084 10.5693C17.5366 10.5288 17.6732 10.5231 17.8043 10.5528C17.9333 10.5875 18.0514 10.6544 18.1476 10.7472C18.2437 10.84 18.3148 10.9557 18.3542 11.0835C18.4016 11.2642 18.4946 11.4297 18.6241 11.5641C18.7593 11.6948 18.9238 11.7909 19.104 11.8444C19.2845 11.8893 19.4732 11.8893 19.6537 11.8444C19.8324 11.8069 19.9973 11.721 20.1306 11.5964C20.1693 11.5322 20.2175 11.474 20.2736 11.4239C20.2825 11.4163 20.2915 11.4089 20.3007 11.4017C20.3617 11.3134 20.4099 11.2164 20.4435 11.1135C20.4833 10.9321 20.4833 10.7442 20.4435 10.5629C20.3993 10.3791 20.3138 10.2079 20.1936 10.0622C20.0792 9.92537 19.9306 9.82175 19.7631 9.76186ZM20.4871 13.1066C20.3387 13.1743 20.1835 13.2279 20.0236 13.2661C19.5906 13.3763 19.137 13.3763 18.7041 13.2661C18.2771 13.1468 17.888 12.9192 17.5744 12.6053C17.5226 12.5567 17.4757 12.5031 17.4344 12.4451C16.716 12.9593 15.8744 13.2737 14.9953 13.3562C13.9496 13.4599 12.8984 13.2248 11.9962 12.6854C11.2276 13.13 10.3545 13.3615 9.46697 13.3562C9.31718 13.3662 9.16682 13.3662 9.01703 13.3562C8.13722 13.2765 7.29494 12.9619 6.57786 12.4451L6.43789 12.6053C6.11882 12.9171 5.72709 13.1443 5.29823 13.2661C4.86864 13.3763 4.4183 13.3763 3.98871 13.2661C3.82221 13.2258 3.66071 13.1694 3.50636 13.0981C3.50148 13.1404 3.49899 13.1831 3.49896 13.2261C3.50044 13.5152 3.61528 13.7921 3.8188 13.997C3.92019 14.1014 4.04146 14.1844 4.17538 14.2412C4.3066 14.2968 4.44737 14.3261 4.58979 14.3274L4.59855 14.3274L19.3963 14.3274C19.6887 14.3242 19.9681 14.2055 20.1736 13.997C20.3772 13.7921 20.4921 13.5152 20.4936 13.2261C20.4936 13.186 20.4914 13.1461 20.4871 13.1066ZM4.58197 15.8293L4.59859 15.8293H9.94043L15.925 19.4236C16.0428 19.4945 16.1774 19.5325 16.3149 19.5337C16.4289 19.5227 16.5388 19.4853 16.6359 19.4245C16.7331 19.3637 16.8149 19.2811 16.8748 19.1833L19.1104 15.8293H19.3939L19.4082 15.8293C19.5479 15.8305 19.6862 15.8585 19.8156 15.9116C19.9494 15.9666 20.0711 16.0475 20.1736 16.1496C20.3777 16.3583 20.4926 16.6385 20.4936 16.9306C20.4921 17.2196 20.3771 17.4965 20.1736 17.7015C20.082 17.7944 19.9757 17.8695 19.8602 17.9245C19.7525 17.9336 19.6486 17.966 19.5554 18.0186C19.5022 18.0269 19.4483 18.0314 19.3938 18.0319H18.774C18.5752 18.0319 18.3845 18.111 18.2439 18.2519C18.1033 18.3927 18.0243 18.5837 18.0243 18.7828C18.0268 18.9812 18.1067 19.1707 18.2467 19.3109C18.3868 19.4512 18.576 19.5311 18.774 19.5337H19.1739V20.0043C19.183 20.0674 19.183 20.1314 19.1739 20.1945C19.1526 20.257 19.1146 20.3124 19.064 20.3547C19.0191 20.4024 18.9645 20.4399 18.904 20.4648C18.8349 20.48 18.7633 20.48 18.6941 20.4648H5.19836C5.13596 20.4801 5.07087 20.4801 5.00847 20.4648C4.94618 20.4377 4.88872 20.4005 4.83848 20.3547C4.79391 20.3072 4.75684 20.2532 4.72853 20.1945C4.72019 20.1347 4.72019 20.0741 4.72853 20.0143V19.5337H12.596C12.7941 19.5311 12.9833 19.4512 13.1233 19.3109C13.2634 19.1707 13.3432 18.9812 13.3458 18.7828C13.3458 18.5837 13.2667 18.3927 13.1261 18.2519C12.9855 18.111 12.7949 18.0319 12.596 18.0319H4.59855C4.47703 18.0308 4.35773 18.0098 4.24501 17.9707C4.23677 17.9676 4.22847 17.9646 4.22013 17.9617C4.07045 17.9058 3.93316 17.8175 3.81876 17.7015C3.71617 17.6013 3.63493 17.4814 3.57995 17.3489C3.52496 17.2164 3.49743 17.0741 3.49892 16.9306C3.49992 16.6385 3.61464 16.3583 3.81876 16.1496C3.92131 16.0475 4.043 15.9666 4.17681 15.9116C4.30549 15.8588 4.44298 15.8308 4.58197 15.8293ZM16.065 17.8016L12.7867 15.8293H17.3758L16.065 17.8016ZM19.2239 8.26003H4.79836C4.95311 6.95042 5.58391 5.74372 6.57039 4.87023C7.55687 3.99673 8.82993 3.51761 10.1467 3.52429H13.8456C14.5669 3.52693 15.2805 3.67328 15.9449 3.95481C16.6102 4.23048 17.2123 4.63932 17.7143 5.15627C18.2167 5.66999 18.611 6.2794 18.874 6.94844C19.0447 7.36935 19.1622 7.80995 19.2239 8.26003Z" fill="#1B1A16"/>
</svg>
