<svg width="24" height="24" viewBox="0 0 24 24" fill="none" xmlns="http://www.w3.org/2000/svg">
<path d="M18.5913 19.148C19.2073 18.892 19.7603 18.523 20.2363 18.048C20.7093 17.574 21.0783 17.022 21.3343 16.404C21.5893 15.787 21.7193 15.134 21.7193 14.466C21.7193 14.261 21.6983 14.07 21.6783 13.876C21.6793 13.866 21.6843 13.858 21.6843 13.849C21.6843 13.828 21.6743 13.812 21.6723 13.792C21.2113 9.681 16.6103 8.223 14.3183 8.171V4.733H20.9683C21.3823 4.733 21.7183 4.397 21.7183 3.983C21.7183 3.569 21.3823 3.233 20.9683 3.233H14.3183V2.75C14.3183 2.336 13.9823 2 13.5683 2C13.1543 2 12.8183 2.336 12.8183 2.75V3.233H6.16829C5.75429 3.233 5.41829 3.569 5.41829 3.983C5.41829 4.397 5.75429 4.733 6.16829 4.733H12.8183V8.166H6.92829C6.84029 8.166 6.75329 8.141 6.67629 8.093C6.59929 8.047 6.53829 7.98 6.49829 7.9L5.93529 6.774C5.71029 6.329 5.32729 5.99 4.85729 5.82C4.39129 5.651 3.87129 5.67 3.41929 5.867C2.96129 6.066 2.60129 6.43 2.40629 6.888C2.21029 7.347 2.19829 7.858 2.37229 8.331L3.22329 10.596C3.38529 11.029 3.63329 11.414 3.96129 11.743C4.28929 12.07 4.67429 12.318 5.10729 12.48L7.73929 13.467C7.98629 13.56 8.21229 13.711 8.39229 13.905C8.57229 14.099 8.70729 14.336 8.78329 14.591C9.25029 16.173 10.0393 17.413 11.0773 18.257L10.5163 20.5H8.63529C8.22129 20.5 7.88529 20.836 7.88529 21.25C7.88529 21.664 8.22129 22 8.63529 22H19.7353C19.9343 22 20.1253 21.921 20.2653 21.78L21.4983 20.547C21.7913 20.254 21.7913 19.779 21.4983 19.486C21.2053 19.193 20.7303 19.193 20.4373 19.486L19.4243 20.5H18.4703L18.1643 19.277C18.3063 19.233 18.4533 19.206 18.5913 19.148ZM19.9973 13.1H17.2683C16.8163 13.1 16.3733 12.916 16.0543 12.597C15.7353 12.277 15.5513 11.835 15.5513 11.384V9.845C17.1043 10.184 19.2993 11.079 19.9973 13.1ZM10.2213 14.167C10.0813 13.691 9.82829 13.248 9.49029 12.883C9.15129 12.52 8.72629 12.236 8.26429 12.063L5.63229 11.076C5.40229 10.99 5.19529 10.857 5.02129 10.683C4.84629 10.508 4.71329 10.302 4.62729 10.07L3.77729 7.807C3.73829 7.7 3.74129 7.582 3.78629 7.476C3.83129 7.371 3.91329 7.288 4.01929 7.242C4.07629 7.218 4.13629 7.205 4.19829 7.205C4.25029 7.205 4.30129 7.214 4.34829 7.231C4.45629 7.27 4.54429 7.348 4.59429 7.447L5.15629 8.57C5.32129 8.9 5.57329 9.177 5.88629 9.37C6.19929 9.564 6.55929 9.666 6.92929 9.666H14.0503V11.383C14.0503 12.229 14.3943 13.058 14.9913 13.656C15.5903 14.256 16.4193 14.599 17.2663 14.599H20.2043C20.1883 15.023 20.1083 15.438 19.9453 15.831C19.7663 16.265 19.5063 16.654 19.1743 16.987C18.8393 17.321 18.4493 17.582 18.0173 17.76C17.5813 17.941 17.1213 18.031 16.6513 18.031H14.8003C11.9593 18.033 10.7413 15.931 10.2213 14.167ZM16.9233 20.5H12.0623L12.4253 19.048C13.1483 19.356 13.9393 19.533 14.8013 19.533H16.6523C16.6623 19.533 16.6723 19.53 16.6813 19.53L16.9233 20.5Z" fill="#1B1A16"/>
<path d="M13.0863 11.383C13.0863 10.969 12.7503 10.633 12.3363 10.633H11.1033C10.6893 10.633 10.3533 10.969 10.3533 11.383C10.3533 11.797 10.6893 12.133 11.1033 12.133H12.3363C12.7503 12.133 13.0863 11.797 13.0863 11.383Z" fill="#1B1A16"/>
</svg>
