<svg width="24" height="24" viewBox="0 0 24 24" fill="none" xmlns="http://www.w3.org/2000/svg">
<path fill-rule="evenodd" clip-rule="evenodd" d="M15.2822 3.71827C14.9298 3.57331 14.5523 3.49919 14.1713 3.50013C13.7903 3.50107 13.4132 3.57706 13.0615 3.72375C12.7099 3.87044 12.3905 4.08497 12.1218 4.35507L12.1205 4.35639L4.35633 12.1214L4.35495 12.1228C3.80956 12.6654 3.50204 13.4024 3.50001 14.1718C3.49864 14.692 3.63703 15.1982 3.89454 15.6401C3.96893 15.5467 4.04933 15.4566 4.13576 15.3701L15.3691 4.13684C15.4557 4.05018 15.5461 3.96958 15.6398 3.89503C15.525 3.82812 15.4056 3.76902 15.2822 3.71827ZM17.2298 3.22955C16.8315 2.84637 16.3644 2.54148 15.8528 2.33105C15.3182 2.11115 14.7456 1.99871 14.1676 2.00014C13.5896 2.00156 13.0175 2.11684 12.484 2.33937C11.9509 2.56176 11.4668 2.88692 11.0593 3.2963C11.059 3.29657 11.0587 3.29683 11.0585 3.2971L3.29698 11.0594C3.29675 11.0597 3.29722 11.0592 3.29698 11.0594C2.47006 11.8825 2.00309 13.001 2.00002 14.1678C1.99701 15.3101 2.43819 16.4078 3.22859 17.2299C3.11423 18.1668 3.41662 19.1448 4.13576 19.864C4.85491 20.5831 5.833 20.8855 6.76991 20.7712C7.16829 21.1545 7.63549 21.4595 8.14719 21.67C8.68175 21.8899 9.2544 22.0023 9.83242 22.0009C10.4104 21.9995 10.9825 21.8842 11.516 21.6617C12.0491 21.4393 12.5332 21.1141 12.9408 20.7047C12.941 20.7044 12.9413 20.7042 12.9416 20.7039L20.703 12.9416C20.7033 12.9413 20.7036 12.9411 20.7038 12.9408C21.5307 12.1177 21.9969 10.9999 22 9.83319C22.003 8.6903 21.5614 7.59208 20.7702 6.76991C20.8842 5.83333 20.5818 4.85571 19.8629 4.13684C19.144 3.41794 18.1664 3.11552 17.2298 3.22955ZM17.1224 4.78004C17.1605 4.77291 17.1981 4.76281 17.2349 4.74975C17.7804 4.62307 18.3771 4.77232 18.8022 5.1975C19.2314 5.62666 19.3794 6.23048 19.2464 6.78014C19.2373 6.80751 19.2298 6.8353 19.2239 6.86336C19.147 7.12203 19.0065 7.3658 18.8022 7.57002L7.56895 18.8033C7.36735 19.0049 7.12721 19.1445 6.87225 19.222C6.83753 19.2288 6.80321 19.238 6.76955 19.2497C6.22244 19.3788 5.62311 19.23 5.19642 18.8033C4.77074 18.3776 4.62164 17.7801 4.74913 17.234C4.76184 17.1981 4.77172 17.1613 4.77877 17.1241C4.85651 16.8704 4.99572 16.6315 5.19642 16.4308L16.4297 5.1975C16.6303 4.99697 16.8689 4.85782 17.1224 4.78004ZM8.3593 20.1055C8.47434 20.1726 8.59412 20.2319 8.71784 20.2828C9.07021 20.4277 9.44769 20.5018 9.82871 20.5009C10.2097 20.5 10.5868 20.424 10.9385 20.2773C11.2902 20.1306 11.6095 19.9161 11.8782 19.646L11.8795 19.6446L19.6437 11.8796L19.6451 11.8783C20.1904 11.3356 20.498 10.5986 20.5 9.82924C20.5014 9.30859 20.3627 8.802 20.1048 8.35981C20.0303 8.45352 19.9496 8.54398 19.8629 8.63068L8.62961 19.864C8.54308 19.9505 8.45281 20.031 8.3593 20.1055ZM18.3428 7.10477C18.4251 7.51075 18.1626 7.9065 17.7566 7.98871L16.4004 8.26336L16.398 8.26384C16.3067 8.28202 16.2228 8.32679 16.1569 8.39253C16.091 8.45827 16.046 8.54203 16.0276 8.63328L15.9134 9.19457C15.9134 9.1946 15.9134 9.19453 15.9134 9.19457C15.8361 9.57483 15.6486 9.92404 15.3742 10.1984C15.0998 10.4728 14.7506 10.6604 14.3703 10.7377L13.8098 10.8508C13.8098 10.8508 13.8099 10.8508 13.8098 10.8508C13.7185 10.8694 13.6345 10.9145 13.5686 10.9804C13.5027 11.0464 13.4577 11.1303 13.4392 11.2218L13.3251 11.7828C13.2479 12.1629 13.0606 12.5119 12.7864 12.7863C12.5123 13.0607 12.1634 13.2484 11.7834 13.3259L11.2222 13.439C11.222 13.439 11.2223 13.4389 11.2222 13.439C11.1308 13.4577 11.0465 13.503 10.9805 13.569C10.9145 13.6351 10.8693 13.7192 10.8507 13.8108L10.7371 14.3694C10.7371 14.3697 10.7372 14.369 10.7371 14.3694C10.6606 14.75 10.4734 15.1005 10.1992 15.3754C9.92484 15.6506 9.57537 15.8386 9.1946 15.916L8.63416 16.0291C8.63398 16.0292 8.63435 16.0291 8.63416 16.0291C8.54274 16.0478 8.45827 16.0931 8.39228 16.159C8.32618 16.2251 8.281 16.3092 8.26237 16.4009C8.26237 16.4009 8.26238 16.4008 8.26237 16.4009L7.98777 17.7552C7.90546 18.1611 7.50964 18.4235 7.10369 18.3412C6.69774 18.2589 6.43537 17.863 6.51769 17.4571L6.79234 16.1025C6.86961 15.7222 7.05721 15.3728 7.33162 15.0984C7.60604 14.824 7.95518 14.6364 8.33549 14.5592L8.89575 14.4461C8.8956 14.4461 8.89591 14.446 8.89575 14.4461C8.98707 14.4274 9.07134 14.3822 9.13716 14.3162C9.20309 14.2501 9.24805 14.166 9.26641 14.0744L9.26681 14.0725L9.38071 13.5123C9.38069 13.5124 9.38072 13.5122 9.38071 13.5123C9.45791 13.1323 9.64528 12.7831 9.91938 12.5088C10.1935 12.2344 10.5424 12.0467 10.9224 11.9692L11.4836 11.8561C11.4835 11.8562 11.4838 11.8561 11.4836 11.8561C11.575 11.8374 11.6594 11.7921 11.7253 11.7261C11.7914 11.66 11.8365 11.5759 11.8551 11.4843L11.9689 10.9247C12.0458 10.5442 12.2331 10.1948 12.5075 9.92021C12.7818 9.64561 13.131 9.45798 13.5114 9.38076L14.0717 9.26769C14.0716 9.26771 14.0717 9.26768 14.0717 9.26769C14.1632 9.24905 14.2475 9.20384 14.3135 9.13777C14.3797 9.07165 14.4248 8.98752 14.4435 8.89589L14.5572 8.33647C14.5572 8.33674 14.5573 8.33621 14.5572 8.33647C14.6343 7.95548 14.8224 7.60496 15.0976 7.33046C15.3727 7.05608 15.7228 6.8691 16.1038 6.79298C16.1042 6.79289 16.1046 6.7928 16.1051 6.79272L17.4589 6.51855C17.8649 6.43634 18.2606 6.6988 18.3428 7.10477Z" fill="#1B1A16"/>
</svg>
