<svg width="24" height="24" viewBox="0 0 24 24" fill="none" xmlns="http://www.w3.org/2000/svg">
<path fill-rule="evenodd" clip-rule="evenodd" d="M20.5132 2.0862C20.2987 2.0022 20.0649 1.98075 19.8397 2.02305C19.6143 2.06537 19.4015 2.17126 19.2308 2.33238L13.7375 7.52911C13.5527 7.42645 13.3408 7.37099 13.1228 7.37099C12.8009 7.37099 12.4922 7.49196 12.2646 7.70729L9.23578 10.5726C9.05053 10.4692 8.83789 10.4133 8.61916 10.4133C8.29726 10.4133 7.98854 10.5343 7.76092 10.7496L3.23652 15.0298C2.9254 15.3241 2.75061 15.7233 2.75061 16.1395C2.75061 16.5557 2.9254 16.9549 3.23652 17.2493L7.77037 21.5383C8.08149 21.8326 8.50347 21.998 8.94346 21.998C9.38345 21.998 9.80543 21.8326 10.1166 21.5383L14.641 17.2582C14.8686 17.0429 14.9964 16.7508 14.9964 16.4463C14.9964 16.2385 14.9369 16.0364 14.8267 15.8606L17.855 12.9958C18.0826 12.7805 18.2105 12.4885 18.2105 12.1839C18.2105 11.9772 18.1515 11.7762 18.0425 11.6011L20.7687 9.02278C21.082 8.72597 21.2672 8.31522 21.2694 7.87702V3.1799L21.2694 3.17887C21.2691 2.93647 21.1927 2.70332 21.0552 2.50902C20.9181 2.31528 20.728 2.1703 20.5132 2.0862ZM14.8542 8.53204L19.7734 3.87848V7.87015C19.7731 7.88707 19.766 7.91188 19.7398 7.9367L16.9817 10.5452L14.8542 8.53204ZM13.221 9.04448C13.2309 9.05502 13.2412 9.06529 13.2517 9.07529L16.4674 12.1182C16.4805 12.1306 16.4939 12.1424 16.5076 12.1536L16.5397 12.1839L13.7666 14.8073L10.3498 11.5749L13.1228 8.9516L13.221 9.04448ZM8.61916 11.994L8.70362 12.0738C8.70877 12.079 8.71402 12.0841 8.71937 12.0892L13.223 16.3496C13.2258 16.3523 13.2286 16.3549 13.2314 16.3574C13.234 16.3598 13.2366 16.3622 13.2392 16.3645L13.3256 16.4463L9.02977 20.5102C9.00688 20.5318 8.97583 20.544 8.94346 20.544C8.91109 20.544 8.88004 20.5318 8.85715 20.5102L4.32331 16.2212C4.30042 16.1995 4.28756 16.1701 4.28756 16.1395C4.28756 16.1089 4.30042 16.0795 4.32331 16.0579L8.61916 11.994Z" fill="#1B1A16"/>
</svg>
