<svg width="24" height="24" viewBox="0 0 24 24" fill="none" xmlns="http://www.w3.org/2000/svg">
<path d="M5.21667 17.9482C4.80246 17.9482 4.46667 18.284 4.46667 18.6982C4.46667 19.1125 4.80246 19.4482 5.21667 19.4482H7.68334C8.09756 19.4482 8.43334 19.1125 8.43334 18.6982C8.43334 18.284 8.09756 17.9482 7.68334 17.9482H5.21667Z" fill="#1B1A16"/>
<path fill-rule="evenodd" clip-rule="evenodd" d="M9.66673 6.57759V11.6066C9.96318 11.6732 10.235 11.826 10.4484 12.0468C10.7403 12.3488 10.9 12.7531 10.9 13.1695V20.8247C10.9 21.1284 10.7836 21.4245 10.5688 21.6467C10.3532 21.8698 10.0552 22 9.73889 22H3.16111C2.8448 22 2.54681 21.8698 2.33117 21.6467C2.11637 21.4245 2 21.1284 2 20.8247V13.1695C2 12.7531 2.15968 12.3488 2.45158 12.0468C2.66504 11.826 2.9369 11.6731 3.2334 11.6065V3.38793C3.2334 3.13532 3.3013 2.88608 3.43165 2.6679C3.56211 2.44953 3.75094 2.26952 3.97972 2.15119C4.20876 2.03272 4.46709 1.98175 4.7251 2.00582C4.98305 2.02988 5.22694 2.12762 5.42981 2.28502L8.88315 4.96433C9.12914 5.15519 9.32659 5.40092 9.46179 5.68063C9.59694 5.96026 9.66673 6.26726 9.66673 6.57759ZM4.7334 3.64323L7.96365 6.14946C8.02401 6.19629 8.0752 6.25877 8.11126 6.33338C8.14737 6.40808 8.16673 6.49178 8.16673 6.57759V11.569H4.7334V3.64323ZM3.53006 13.0894C3.54572 13.0732 3.56143 13.069 3.57222 13.069H9.32778C9.33857 13.069 9.35428 13.0732 9.36994 13.0894C9.38643 13.1064 9.4 13.1348 9.4 13.1695V20.5H3.5V13.1695C3.5 13.1348 3.51357 13.1064 3.53006 13.0894Z" fill="#1B1A16"/>
<path fill-rule="evenodd" clip-rule="evenodd" d="M13.1 11.4684C13.1 10.8435 13.5961 10.2931 14.2611 10.2931H20.8389C21.5039 10.2931 22 10.8435 22 11.4684V20.8247C22 21.4496 21.5039 22 20.8389 22H14.2611C13.5961 22 13.1 21.4496 13.1 20.8247V11.4684ZM14.6 17.9482V16.8966H20.5V17.9482H14.6ZM20.5 19.4482V20.5H14.6V19.4482H20.5ZM20.5 15.3966H14.6V11.7931H20.5V15.3966Z" fill="#1B1A16"/>
</svg>
