<svg width="24" height="24" viewBox="0 0 24 24" fill="none" xmlns="http://www.w3.org/2000/svg">
<path fill-rule="evenodd" clip-rule="evenodd" d="M4.24997 5.5C4.24997 4.5335 5.03347 3.75 5.99997 3.75H18C18.9665 3.75 19.75 4.5335 19.75 5.5V13.5771L21.7742 17.7338C22.3402 18.8962 21.4937 20.25 20.2008 20.25H3.79919C2.50628 20.25 1.65977 18.8963 2.22582 17.7338L4.24997 13.5771V5.5ZM5.46895 14.5L3.57442 18.3905C3.49356 18.5566 3.61449 18.75 3.79919 18.75H20.2008C20.3855 18.75 20.5064 18.5566 20.4256 18.3905L18.531 14.5H5.46895ZM18.25 13V5.5C18.25 5.36193 18.138 5.25 18 5.25H5.99997C5.8619 5.25 5.74997 5.36193 5.74997 5.5V13H18.25Z" fill="#1B1A16"/>
<path fill-rule="evenodd" clip-rule="evenodd" d="M9.75002 17C9.75002 16.5858 10.0858 16.25 10.5 16.25H13.5C13.9142 16.25 14.25 16.5858 14.25 17C14.25 17.4142 13.9142 17.75 13.5 17.75H10.5C10.0858 17.75 9.75002 17.4142 9.75002 17Z" fill="#1B1A16"/>
</svg>
