<svg width="24" height="24" viewBox="0 0 24 24" fill="none" xmlns="http://www.w3.org/2000/svg">
<path d="M5.25 3.75C5.25 3.61193 5.36193 3.5 5.5 3.5H18.5C18.6381 3.5 18.75 3.61193 18.75 3.75V7.5C18.75 7.91421 19.0858 8.25 19.5 8.25C19.9142 8.25 20.25 7.91421 20.25 7.5V3.75C20.25 2.7835 19.4665 2 18.5 2H5.5C4.5335 2 3.75 2.7835 3.75 3.75V11.25H2.75C2.33579 11.25 2 11.5858 2 12C2 14.0711 3.67893 15.75 5.75 15.75H11.25C11.6642 15.75 12 15.4142 12 15C12 14.5858 11.6642 14.25 11.25 14.25H5.75C4.77034 14.25 3.93691 13.6239 3.62803 12.75H12.5C12.9142 12.75 13.25 12.4142 13.25 12C13.25 11.5858 12.9142 11.25 12.5 11.25H5.25V3.75Z" fill="#1B1A16"/>
<path fill-rule="evenodd" clip-rule="evenodd" d="M19.6563 10.5C19.6563 10.1852 19.4598 9.90399 19.1642 9.79574C18.8687 9.68748 18.537 9.77526 18.3337 10.0155L13.1775 16.1093C12.9888 16.3322 12.9468 16.6444 13.0696 16.9093C13.1925 17.1742 13.458 17.3437 13.75 17.3437H15.3438V21.2812C15.3438 21.596 15.5403 21.8772 15.8358 21.9855C16.1313 22.0937 16.463 22.0059 16.6663 21.7657L21.8225 15.6719C22.0112 15.449 22.0533 15.1368 21.9304 14.8719C21.8075 14.607 21.542 14.4375 21.25 14.4375H19.6563V10.5ZM16.0938 15.8437H15.3671L18.1563 12.5474V15.1875C18.1563 15.6017 18.492 15.9375 18.9063 15.9375H19.6329L16.8438 19.2338V16.5937C16.8438 16.1795 16.508 15.8437 16.0938 15.8437Z" fill="#1B1A16"/>
</svg>
