<svg width="24" height="24" viewBox="0 0 24 24" fill="none" xmlns="http://www.w3.org/2000/svg">
<path fill-rule="evenodd" clip-rule="evenodd" d="M5.21661 2C4.6906 2 4.18613 2.20896 3.81418 2.5809C3.44223 2.95285 3.23328 3.45732 3.23328 3.98333V10.4418C3.01579 10.5473 2.81529 10.6891 2.64111 10.8633C2.23061 11.2738 2 11.8305 2 12.4111C2 12.9916 2.23061 13.5483 2.64111 13.9588C3.05161 14.3693 3.60836 14.5999 4.18889 14.5999H9.40002V16.3166C9.40002 16.8427 9.60898 17.3471 9.98093 17.7191C10.3529 18.091 10.8573 18.3 11.3834 18.3H11.8667V21.25C11.8667 21.6642 12.2025 22 12.6167 22H17.55C17.9642 22 18.3 21.6642 18.3 21.25V18.3H18.7834C19.3094 18.3 19.8139 18.091 20.1858 17.7191C20.5578 17.3471 20.7667 16.8427 20.7667 16.3166V14.3803C20.9842 14.2748 21.1847 14.133 21.3589 13.9588C21.7694 13.5483 22 12.9916 22 12.4111C22 11.8305 21.7694 11.2738 21.3589 10.8633C21.1847 10.6891 20.9841 10.5473 20.7666 10.4417V3.98333C20.7666 3.45732 20.5577 2.95285 20.1857 2.5809C19.8138 2.20896 19.3093 2 18.7833 2H5.21661ZM19.8732 11.725C19.8967 11.7295 19.9207 11.733 19.9449 11.7353C20.0778 11.7616 20.201 11.8267 20.2982 11.9239C20.4274 12.0531 20.5 12.2284 20.5 12.4111C20.5 12.5938 20.4274 12.769 20.2982 12.8982C20.169 13.0274 19.9938 13.0999 19.8111 13.0999H4.18889C4.00618 13.0999 3.83096 13.0274 3.70177 12.8982C3.57258 12.769 3.5 12.5938 3.5 12.4111C3.5 12.2284 3.57258 12.0531 3.70177 11.9239C3.79899 11.8267 3.92227 11.7616 4.05519 11.7353C4.07934 11.733 4.10314 11.7295 4.12657 11.725C4.1472 11.7231 4.168 11.7222 4.18889 11.7222H10.5229C10.5356 11.7222 10.5483 11.7223 10.5611 11.7223C10.5739 11.7223 10.5866 11.7222 10.5994 11.7222H19.8111C19.8319 11.7222 19.8527 11.7231 19.8732 11.725ZM13.8889 10.2222H19.2666V3.98333C19.2666 3.85515 19.2157 3.73221 19.125 3.64157C19.0344 3.55092 18.9115 3.5 18.7833 3.5H5.21661C5.08842 3.5 4.96548 3.55092 4.87484 3.64157C4.7842 3.73221 4.73328 3.85515 4.73328 3.98333V10.2222H7.23332C6.89491 9.71635 6.72778 9.12368 6.72778 8.50562C6.72778 8.0914 7.06357 7.75562 7.47778 7.75562H9.81104V6.65552C9.81104 6.2413 10.1468 5.90552 10.561 5.90552C10.9752 5.90552 11.311 6.2413 11.311 6.65552V7.75562H13.6444C14.0587 7.75562 14.3944 8.0914 14.3944 8.50562C14.3944 9.12368 14.2273 9.71635 13.8889 10.2222ZM10.5948 10.2222H10.5274C9.65358 10.2162 9.08365 9.9792 8.74277 9.6839C8.60002 9.56024 8.48584 9.41669 8.40163 9.25562H12.7206C12.6364 9.41669 12.5222 9.56024 12.3795 9.6839C12.0386 9.9792 11.4686 10.2162 10.5948 10.2222ZM10.9 14.5999H19.2667V16.3166C19.2667 16.4448 19.2158 16.5678 19.1251 16.6584C19.0345 16.7491 18.9116 16.8 18.7834 16.8H18.2881C18.2458 16.5653 18.0932 16.3616 17.8733 16.2565C17.0099 15.8442 16.0724 15.6098 15.1166 15.5674C15.0945 15.5664 15.0723 15.5664 15.0501 15.5674C14.0943 15.6098 13.1568 15.8442 12.2935 16.2565C12.0735 16.3616 11.921 16.5653 11.8786 16.8H11.3834C11.2552 16.8 11.1322 16.7491 11.0416 16.6584C10.9509 16.5678 10.9 16.4448 10.9 16.3166V14.5999ZM13.3667 17.4275V20.5H16.8V17.4275C16.251 17.2189 15.6718 17.0971 15.0834 17.0675C14.495 17.0971 13.9158 17.2189 13.3667 17.4275Z" fill="#1B1A16"/>
</svg>
