<svg width="24" height="24" viewBox="0 0 24 24" fill="none" xmlns="http://www.w3.org/2000/svg">
<path fill-rule="evenodd" clip-rule="evenodd" d="M11.5589 2H11.5658C11.8301 2.00069 12.0918 2.05347 12.3358 2.15532C12.5798 2.25718 12.8013 2.40611 12.9877 2.59361C13.1741 2.78112 13.3217 3.00351 13.4222 3.24809C13.5224 3.49224 13.5737 3.75372 13.573 4.01764L13.573 4.01903L12.823 4.01658H13.573V4.01764V6.15283H18.6127C19.2481 6.15283 19.8576 6.40526 20.3069 6.8546C20.7562 7.30393 21.0087 7.91336 21.0087 8.54881V8.67967C21.0087 9.59598 20.8282 10.5033 20.4775 11.3499C20.1269 12.1964 19.6129 12.9656 18.965 13.6136C18.3171 14.2615 17.5478 14.7754 16.7013 15.1261C15.8547 15.4768 14.9474 15.6572 14.0311 15.6572H13.573V19.4328C13.573 19.7158 13.6854 19.9871 13.8854 20.1872C14.0853 20.3873 14.3565 20.4998 14.6393 20.5C14.9223 20.4998 15.1936 20.3873 15.3937 20.1872C15.5938 19.9871 15.7063 19.7158 15.7065 19.4328V18.6658C15.7065 17.9758 15.9806 17.314 16.4685 16.8261C16.9565 16.3382 17.6182 16.0641 18.3082 16.0641C18.7224 16.0641 19.0582 16.3999 19.0582 16.8141C19.0582 17.2283 18.7224 17.5641 18.3082 17.5641C18.016 17.5641 17.7358 17.6801 17.5292 17.8868C17.3226 18.0934 17.2065 18.3736 17.2065 18.6658V19.4328C17.2062 20.1135 16.9357 20.7665 16.4544 21.2478C15.9731 21.7291 15.3203 21.9997 14.6397 22C13.959 21.9997 13.3057 21.7291 12.8245 21.2477C12.3433 20.7663 12.073 20.1135 12.073 19.4328V15.6572H11.6214C9.7708 15.6572 7.99603 14.9221 6.68748 13.6136C5.37893 12.305 4.6438 10.5302 4.6438 8.67967V8.54881C4.6438 7.91336 4.89623 7.30393 5.34557 6.8546C5.7949 6.40526 6.40433 6.15283 7.03978 6.15283H12.073V4.01414C12.0732 3.94681 12.0602 3.8801 12.0346 3.81782C12.009 3.75554 11.9714 3.6989 11.9239 3.65116C11.8765 3.60341 11.8201 3.56549 11.7579 3.53955C11.696 3.51371 11.6297 3.50027 11.5626 3.5H11.5638V2.75L11.5626 3.5H11.5589C11.4914 3.5 11.4246 3.51331 11.3624 3.53917C11.3001 3.56503 11.2435 3.60293 11.1959 3.65069C11.1483 3.69845 11.1106 3.75514 11.0849 3.81751C11.0593 3.87988 11.0462 3.9467 11.0464 4.01414C11.0477 4.42835 10.713 4.76523 10.2988 4.76658C9.88463 4.76793 9.54775 4.43324 9.5464 4.01903C9.54553 3.75419 9.59695 3.4918 9.6977 3.24687C9.79845 3.00195 9.94655 2.77933 10.1335 2.59176C10.3205 2.40418 10.5426 2.25536 10.7872 2.15382C11.0318 2.05227 11.294 2 11.5589 2ZM6.40623 7.91526C6.57425 7.74723 6.80215 7.65283 7.03978 7.65283H18.6127C18.8503 7.65283 19.0782 7.74723 19.2462 7.91526C19.4143 8.08329 19.5087 8.31118 19.5087 8.54881V8.67967C19.5087 9.39899 19.367 10.1113 19.0917 10.7758C18.8164 11.4404 18.413 12.0443 17.9043 12.5529C17.3957 13.0615 16.7918 13.465 16.1273 13.7403C15.4627 14.0156 14.7504 14.1572 14.0311 14.1572H12.8594C12.8473 14.1567 12.8352 14.1564 12.823 14.1564C12.8108 14.1564 12.7987 14.1567 12.7866 14.1572H11.6214C10.1686 14.1572 8.77539 13.5801 7.74814 12.5529C6.7209 11.5257 6.1438 10.1324 6.1438 8.67967V8.54881C6.1438 8.31118 6.2382 8.08329 6.40623 7.91526Z" fill="#1B1A16"/>
<path fill-rule="evenodd" clip-rule="evenodd" d="M5.71639 15.0117L6.33378 14.5859C6.1939 14.3831 5.96334 14.2619 5.71697 14.2617C5.47061 14.2615 5.23986 14.3823 5.09967 14.5849L5.09763 14.5879L5.09278 14.5949L5.07498 14.6209C5.05963 14.6433 5.03749 14.6759 5.0095 14.7174C4.95356 14.8005 4.87417 14.9196 4.77913 15.0657C4.58947 15.3571 4.33545 15.7591 4.08036 16.198C3.8267 16.6345 3.56445 17.1203 3.36339 17.5771C3.17591 18.003 2.99121 18.5118 2.99121 18.9547C2.99121 18.9691 2.99163 18.9835 2.99246 18.998C3.0326 19.6923 3.33672 20.3451 3.84254 20.8225C4.34835 21.2999 5.01756 21.5659 5.7131 21.5659C6.40863 21.5659 7.07785 21.2999 7.58366 20.8225C8.08947 20.3451 8.39359 19.6923 8.43373 18.998C8.43457 18.9835 8.43498 18.9691 8.43498 18.9547C8.43498 18.5124 8.25109 18.0039 8.06421 17.5779C7.86384 17.1212 7.60249 16.6354 7.34967 16.199C7.09543 15.7601 6.84227 15.3581 6.65325 15.0666C6.55852 14.9205 6.4794 14.8014 6.42364 14.7184C6.39575 14.6769 6.37368 14.6443 6.35838 14.6219L6.34064 14.5959L6.3358 14.5888L6.33443 14.5868C6.33443 14.5868 6.33378 14.5859 5.71639 15.0117ZM5.37724 16.9517C5.49191 16.7544 5.60683 16.5643 5.71532 16.3892C5.82329 16.5641 5.93762 16.7539 6.0517 16.9508C6.29104 17.364 6.52184 17.7959 6.69058 18.1805C6.86323 18.5741 6.92812 18.8252 6.93446 18.9373C6.91054 19.2398 6.77516 19.523 6.55406 19.7317C6.32666 19.9463 6.0258 20.0659 5.7131 20.0659C5.4004 20.0659 5.09954 19.9463 4.87214 19.7317C4.65105 19.523 4.51567 19.2398 4.49174 18.9373C4.4981 18.8257 4.56304 18.575 4.73628 18.1814C4.90556 17.7968 5.13711 17.3649 5.37724 16.9517Z" fill="#1B1A16"/>
</svg>
