<svg width="24" height="24" viewBox="0 0 24 24" fill="none" xmlns="http://www.w3.org/2000/svg">
<path d="M7.75 5.5C7.75 5.09 8.09 4.75 8.5 4.75C8.91 4.75 9.25 5.09 9.25 5.5C9.25 5.91 8.91 6.25 8.5 6.25C8.09 6.25 7.75 5.91 7.75 5.5Z" fill="#1B1A16"/>
<path d="M11.5 4.75C11.09 4.75 10.75 5.09 10.75 5.5C10.75 5.91 11.09 6.25 11.5 6.25C11.91 6.25 12.25 5.91 12.25 5.5C12.25 5.09 11.91 4.75 11.5 4.75Z" fill="#1B1A16"/>
<path fill-rule="evenodd" clip-rule="evenodd" d="M12 10.19C9.45 10.19 7.38 12.26 7.38 14.81C7.38 17.36 9.45 19.43 12 19.43C14.55 19.43 16.62 17.36 16.62 14.81C16.62 12.26 14.55 10.19 12 10.19ZM15.0288 15.56H13.5C13.0858 15.56 12.75 15.2242 12.75 14.81C12.75 14.3958 13.0858 14.06 13.5 14.06H15.0288C14.692 12.7009 13.4616 11.69 12 11.69C10.28 11.69 8.88 13.09 8.88 14.81C8.88 16.53 10.28 17.93 12 17.93C13.4616 17.93 14.6921 16.9191 15.0288 15.56Z" fill="#1B1A16"/>
<path fill-rule="evenodd" clip-rule="evenodd" d="M19 2C19.5523 2 20 2.44772 20 3V21C20 21.5523 19.5523 22 19 22H5C4.44772 22 4 21.5523 4 21V3C4 2.44772 4.44772 2 5 2H19ZM18.5 7.25V3.5H5.5V7.25H18.5ZM18.5 8.75H5.5V20.5H18.5V8.75Z" fill="#1B1A16"/>
</svg>
