<svg width="24" height="24" viewBox="0 0 24 24" fill="none" xmlns="http://www.w3.org/2000/svg">
<path d="M16.241 8.14695L14.811 5.78195C14.77 5.71495 14.749 5.64195 14.749 5.56795V3.31595C14.749 2.94495 14.59 2.58595 14.313 2.32995C14.048 2.08495 13.7 1.94995 13.333 1.94995H10.666C10.298 1.94995 9.95 2.08495 9.686 2.32995C9.409 2.58595 9.25 2.94595 9.25 3.31595V5.56695C9.25 5.64095 9.229 5.71295 9.188 5.78095L7.78 8.11295C6.997 9.26195 6.583 10.589 6.583 11.95V19.614C6.578 20.068 6.738 20.5119 7.037 20.868C7.325 21.2099 7.729 21.453 8.185 21.555C9.435 21.8169 10.718 21.95 12 21.951C13.281 21.951 14.564 21.817 15.823 21.554C16.271 21.453 16.677 21.2099 16.962 20.8689C17.261 20.5149 17.423 20.068 17.416 19.625V11.95C17.416 10.588 17.002 9.26095 16.241 8.14695ZM13.25 3.43095V4.41595H10.75V3.44995L13.25 3.43095ZM15.916 19.635C15.917 19.7299 15.883 19.8219 15.813 19.9039C15.737 19.9949 15.625 20.0599 15.505 20.087C13.207 20.569 10.78 20.567 8.502 20.089C8.375 20.061 8.261 19.9939 8.185 19.903C8.117 19.822 8.082 19.729 8.083 19.625V11.95C8.083 10.891 8.407 9.85595 9.041 8.92295L10.471 6.55795C10.591 6.35995 10.659 6.14095 10.701 5.91595H13.297C13.34 6.13995 13.407 6.35895 13.527 6.55795L14.978 8.95695C15.591 9.85495 15.915 10.89 15.915 11.95V19.635H15.916Z" fill="#1B1A16"/>
</svg>
