<svg width="24" height="24" viewBox="0 0 24 24" fill="none" xmlns="http://www.w3.org/2000/svg">
<path fill-rule="evenodd" clip-rule="evenodd" d="M7.68332 3.84985C8.37288 3.84985 9.0342 4.12378 9.5218 4.61138C10.0094 5.09897 10.2833 5.76029 10.2833 6.44985C10.2833 6.86407 9.94754 7.19985 9.53332 7.19985C9.11911 7.19985 8.78332 6.86407 8.78332 6.44985C8.78332 6.15812 8.66743 5.87833 8.46114 5.67204C8.2549 5.46579 7.97519 5.34991 7.68352 5.34985C7.45849 5.35002 7.23819 5.41454 7.04863 5.53582C6.86199 5.65521 6.71281 5.82471 6.61808 6.02483L4.92127 10.0301C5.01908 10.0211 5.11764 10.0165 5.21667 10.0165H18.7833C18.8824 10.0165 18.9809 10.0211 19.0787 10.0301L17.3819 6.02483C17.2872 5.82471 17.138 5.65521 16.9514 5.53582C16.7617 5.4145 16.5414 5.34998 16.3163 5.34985C16.0245 5.34985 15.7451 5.46575 15.5388 5.67204C15.3326 5.87833 15.2167 6.15812 15.2167 6.44985C15.2167 6.86407 14.8809 7.19985 14.4667 7.19985C14.0525 7.19985 13.7167 6.86407 13.7167 6.44985C13.7167 5.76029 13.9906 5.09897 14.4782 4.61138C14.9658 4.12378 15.6271 3.84985 16.3167 3.84985C16.828 3.85014 17.329 3.99671 17.7597 4.27226C18.1904 4.54781 18.5333 4.94084 18.7479 5.40496C18.7513 5.4123 18.7546 5.41971 18.7578 5.42716L21.135 11.0385C21.6899 11.633 22 12.4171 22 13.2332V14.4665C22 15.9738 21.4012 17.4194 20.3354 18.4852C19.2696 19.5511 17.824 20.1499 16.3167 20.1499H14.8515L14.8487 20.1498C14.4386 20.1483 14.0362 20.0377 13.6829 19.8294C13.3297 19.6212 13.0381 19.3226 12.8383 18.9645C12.8111 18.9159 12.7895 18.8644 12.7737 18.8109L12.0001 16.1843L11.2272 18.8107C11.2114 18.8642 11.1897 18.9158 11.1626 18.9645C10.9626 19.3228 10.6709 19.6215 10.3174 19.8298C9.96384 20.0381 9.56125 20.1485 9.15093 20.1499L9.14853 20.1499H7.68333C6.17602 20.1499 4.73044 19.5511 3.66461 18.4852C2.59878 17.4194 2 15.9738 2 14.4665V13.2332C2 12.4171 2.31009 11.6331 2.86502 11.0385L5.24223 5.42716C5.24538 5.41971 5.24866 5.4123 5.25206 5.40496C5.46665 4.94084 5.80956 4.54781 6.24028 4.27226C6.67101 3.99671 7.172 3.85014 7.68332 3.84985ZM3.99321 12.029C3.67727 12.35 3.5 12.7824 3.5 13.2332V14.4665C3.5 15.576 3.94074 16.6401 4.72527 17.4246C5.5098 18.2091 6.57384 18.6499 7.68333 18.6499H9.14713C9.29092 18.6492 9.43197 18.6104 9.55587 18.5374C9.65974 18.4762 9.74843 18.3928 9.81577 18.2935L10.705 15.2719C10.7104 15.2533 10.7166 15.2349 10.7235 15.2168C10.822 14.958 10.9968 14.7353 11.2248 14.5782C11.4528 14.421 11.7231 14.3369 12 14.3369C12.2769 14.3369 12.5472 14.421 12.7752 14.5782C13.0032 14.7353 13.178 14.958 13.2765 15.2168C13.2834 15.2349 13.2895 15.2532 13.295 15.2717L14.185 18.2934C14.2523 18.3927 14.341 18.4761 14.4448 18.5373C14.5686 18.6103 14.7095 18.6491 14.8532 18.6499H16.3167C17.4262 18.6499 18.4902 18.2091 19.2747 17.4246C20.0593 16.6401 20.5 15.576 20.5 14.4665V13.2332C20.5 12.7825 20.3227 12.35 20.0068 12.029C19.9873 12.012 19.9686 11.9939 19.9509 11.9747C19.634 11.6807 19.2171 11.5165 18.7833 11.5165H5.21667C4.78284 11.5165 4.36594 11.6807 4.04908 11.9747C4.03134 11.9939 4.01268 12.012 3.99321 12.029Z" fill="#1B1A16"/>
</svg>
