<svg width="24" height="24" viewBox="0 0 24 24" fill="none" xmlns="http://www.w3.org/2000/svg">
<path d="M21.713 9.144C21.703 9.122 21.703 9.098 21.691 9.077L19.207 4.725C18.861 3.913 18.29 3.228 17.555 2.742C16.817 2.256 15.964 2 15.085 2H15.081C14.667 2 14.332 2.336 14.332 2.75C14.332 3.164 14.668 3.5 15.082 3.5H15.085C15.67 3.5 16.238 3.67 16.728 3.993C17.216 4.316 17.597 4.773 17.866 5.389L19.446 8.163H4.55401L6.17401 5.312C6.40301 4.772 6.78401 4.316 7.27301 3.993C7.76201 3.67 8.33001 3.5 8.91601 3.5H8.91801C9.33201 3.5 9.66801 3.165 9.66801 2.75C9.66801 2.335 9.33301 2 8.91901 2H8.91601C8.03601 2 7.18201 2.256 6.44601 2.742C5.71001 3.228 5.13901 3.914 4.83201 4.647L2.30901 9.076C2.29601 9.098 2.29601 9.123 2.28601 9.145C2.10901 9.447 2.00501 9.792 2.00501 10.145V12.609C2.00401 13.196 2.11701 13.769 2.34101 14.313C2.56601 14.856 2.89001 15.342 3.30601 15.758C3.72201 16.173 4.20701 16.497 4.75001 16.722C5.29001 16.945 5.86001 17.058 6.44301 17.058C6.44601 17.058 6.44901 17.058 6.45201 17.058H9.02401C9.54501 17.058 10.055 16.846 10.425 16.478C10.477 16.425 10.522 16.366 10.557 16.3L11.579 14.387C11.619 14.311 11.68 14.246 11.751 14.202C11.899 14.112 12.099 14.114 12.243 14.2C12.317 14.246 12.378 14.311 12.428 14.405L12.542 14.61C12.744 14.97 13.198 15.103 13.563 14.9C13.924 14.698 14.054 14.242 13.853 13.879L13.747 13.69C13.579 13.371 13.328 13.104 13.02 12.917C12.405 12.546 11.596 12.543 10.976 12.919C10.667 13.106 10.416 13.373 10.253 13.687L9.30001 15.472C9.21901 15.528 9.12301 15.559 9.02501 15.559H6.45201C6.45001 15.559 6.44801 15.559 6.44601 15.559C6.05801 15.559 5.68001 15.484 5.32301 15.336C4.96401 15.188 4.64101 14.973 4.36601 14.698C4.09101 14.423 3.87601 14.1 3.72701 13.741C3.57901 13.381 3.50301 13.001 3.50401 12.611V10.145C3.50401 10.018 3.55501 9.894 3.64601 9.804C3.73701 9.713 3.85801 9.663 3.98701 9.663H20.01C20.139 9.663 20.261 9.713 20.353 9.805C20.442 9.894 20.493 10.018 20.493 10.146V12.613C20.494 13.051 20.394 13.494 20.205 13.891C20.026 14.264 20.185 14.712 20.559 14.89C20.933 15.07 21.381 14.91 21.558 14.536C21.843 13.937 21.994 13.272 21.993 12.612V10.146C21.994 9.792 21.891 9.446 21.713 9.144Z" fill="#1B1A16"/>
<path d="M17.012 17.347C16.976 16.979 16.838 16.629 16.612 16.333C16.386 16.039 16.084 15.815 15.739 15.686C15.393 15.557 15.02 15.525 14.652 15.597C14.292 15.669 13.958 15.84 13.685 16.093C13.413 16.348 13.219 16.672 13.124 17.031C13.019 17.431 13.258 17.842 13.659 17.947C14.056 18.051 14.47 17.813 14.575 17.412C14.596 17.328 14.643 17.251 14.708 17.19C14.775 17.128 14.857 17.086 14.944 17.068C15.031 17.05 15.122 17.058 15.21 17.09C15.294 17.121 15.367 17.176 15.422 17.247C15.477 17.318 15.511 17.403 15.52 17.496C15.529 17.583 15.512 17.673 15.472 17.754C15.432 17.836 15.37 17.904 15.296 17.95C15.219 17.998 15.131 18.023 15.041 18.023C14.627 18.023 14.292 18.358 14.291 18.771C14.29 19.185 14.624 19.521 15.038 19.523C15.127 19.523 15.216 19.549 15.294 19.598C15.369 19.644 15.431 19.712 15.47 19.792C15.51 19.872 15.527 19.962 15.517 20.054C15.509 20.143 15.476 20.226 15.421 20.297C15.366 20.369 15.292 20.425 15.207 20.457C15.124 20.487 15.036 20.496 14.946 20.479C14.857 20.461 14.774 20.42 14.709 20.36C14.644 20.3 14.597 20.222 14.573 20.136C14.465 19.736 14.047 19.502 13.652 19.61C13.252 19.719 13.016 20.131 13.126 20.531C13.224 20.888 13.419 21.21 13.692 21.463C13.963 21.712 14.297 21.881 14.662 21.952C14.787 21.976 14.912 21.988 15.038 21.988C15.278 21.988 15.517 21.944 15.743 21.857C16.088 21.726 16.388 21.502 16.611 21.21C16.838 20.916 16.975 20.564 17.009 20.197C17.045 19.83 16.978 19.461 16.814 19.127C16.752 19.001 16.676 18.883 16.59 18.774C16.678 18.663 16.754 18.543 16.818 18.415C16.982 18.081 17.05 17.71 17.012 17.347Z" fill="#1B1A16"/>
<path d="M20.842 16.208C20.234 15.721 19.452 15.486 18.664 15.562C18.28 15.6 17.988 15.922 17.988 16.308V21.239C17.988 21.625 18.281 21.948 18.665 21.985C18.764 21.995 18.861 22 18.959 22C19.641 22 20.309 21.766 20.842 21.341C21.458 20.847 21.851 20.144 21.953 19.267L21.947 18.19C21.851 17.404 21.458 16.701 20.842 16.208ZM19.905 20.169C19.779 20.27 19.637 20.349 19.488 20.404V17.142C19.637 17.198 19.778 17.277 19.904 17.378C20.213 17.625 20.41 17.978 20.453 18.28L20.459 19.174C20.41 19.569 20.213 19.922 19.905 20.169Z" fill="#1B1A16"/>
</svg>
