<svg width="24" height="24" viewBox="0 0 24 24" fill="none" xmlns="http://www.w3.org/2000/svg">
<path fill-rule="evenodd" clip-rule="evenodd" d="M9.53333 7.81653C9.40514 7.81653 9.28221 7.86745 9.19156 7.95809C9.10092 8.04873 9.05 8.17167 9.05 8.29986C9.05 8.42804 9.10092 8.55098 9.19156 8.64162C9.28221 8.73226 9.40514 8.78319 9.53333 8.78319H14.4667C14.5949 8.78319 14.7178 8.73226 14.8084 8.64162C14.8991 8.55098 14.95 8.42804 14.95 8.29986C14.95 8.17167 14.8991 8.04874 14.8084 7.95809C14.7178 7.86745 14.5949 7.81653 14.4667 7.81653H9.53333ZM8.13091 6.89743C8.50285 6.52548 9.00732 6.31653 9.53333 6.31653H14.4667C14.9927 6.31653 15.4971 6.52548 15.8691 6.89743C16.0574 7.08574 16.2039 7.30801 16.3027 7.54986L16.9333 7.54986C17.9354 7.54986 18.915 7.84701 19.7482 8.40374C20.5814 8.96047 21.2308 9.75177 21.6143 10.6776C21.9978 11.6034 22.0981 12.6221 21.9026 13.605C21.7071 14.5878 21.2246 15.4906 20.516 16.1992C19.8074 16.9078 18.9046 17.3903 17.9218 17.5858C16.939 17.7813 15.9202 17.681 14.9944 17.2975C14.0686 16.914 13.2773 16.2646 12.7206 15.4314C12.3809 14.9231 12.1379 14.3603 12 13.7712C11.8621 14.3603 11.6191 14.9231 11.2794 15.4314C10.7227 16.2646 9.93141 16.914 9.0056 17.2975C8.07978 17.681 7.06105 17.7813 6.07821 17.5858C5.09537 17.3903 4.19258 16.9078 3.484 16.1992C2.77541 15.4906 2.29286 14.5878 2.09736 13.605C1.90186 12.6221 2.0022 11.6034 2.38568 10.6776C2.76916 9.75177 3.41857 8.96047 4.25178 8.40374C5.08499 7.84701 6.06458 7.54986 7.06667 7.54986L7.69728 7.54986C7.79606 7.30801 7.9426 7.08574 8.13091 6.89743ZM7.69728 9.04986H7.06667C6.36125 9.04986 5.67167 9.25904 5.08513 9.65095C4.4986 10.0429 4.04145 10.5999 3.7715 11.2516C3.50155 11.9033 3.43091 12.6205 3.56853 13.3123C3.70616 14.0042 4.04585 14.6397 4.54465 15.1385C5.04346 15.6373 5.67898 15.977 6.37085 16.1146C7.06271 16.2522 7.77985 16.1816 8.43157 15.9117C9.0833 15.6417 9.64033 15.1846 10.0322 14.598C10.4242 14.0115 10.6333 13.3219 10.6333 12.6165C10.6333 12.2023 10.9691 11.8665 11.3833 11.8665H12.6167C13.0309 11.8665 13.3667 12.2023 13.3667 12.6165C13.3667 13.3219 13.5758 14.0115 13.9678 14.598C14.3597 15.1846 14.9167 15.6417 15.5684 15.9117C16.2202 16.1816 16.9373 16.2522 17.6292 16.1146C18.321 15.977 18.9565 15.6373 19.4553 15.1385C19.9542 14.6397 20.2938 14.0042 20.4315 13.3123C20.5691 12.6205 20.4985 11.9033 20.2285 11.2516C19.9585 10.5999 19.5014 10.0429 18.9149 9.65095C18.3283 9.25904 17.6388 9.04986 16.9333 9.04986H16.3027C16.2039 9.2917 16.0574 9.51397 15.8691 9.70228C15.4971 10.0742 14.9927 10.2832 14.4667 10.2832H9.53333C9.00732 10.2832 8.50285 10.0742 8.13091 9.70228C7.9426 9.51397 7.79606 9.2917 7.69728 9.04986Z" fill="#1B1A16"/>
</svg>
