<svg width="24" height="24" viewBox="0 0 24 24" fill="none" xmlns="http://www.w3.org/2000/svg">
<path fill-rule="evenodd" clip-rule="evenodd" d="M17.4167 3.98334C17.4167 3.56912 17.7525 3.23334 18.1667 3.23334H18.7833C19.6364 3.23334 20.4546 3.57224 21.0579 4.17548C21.6611 4.77872 22 5.5969 22 6.45001L22 16.3167C22 16.9011 21.8849 17.4797 21.6613 18.0196C21.4376 18.5595 21.1098 19.0501 20.6966 19.4633C20.2834 19.8766 19.7928 20.2043 19.2529 20.428C18.713 20.6516 18.1344 20.7667 17.55 20.7667C16.9656 20.7667 16.387 20.6516 15.8471 20.428C15.3072 20.2043 14.8166 19.8766 14.4034 19.4633C13.9902 19.0501 13.6624 18.5595 13.4387 18.0196C13.3115 17.7125 13.2194 17.3928 13.1637 17.0667H10.8363C10.7806 17.3928 10.6885 17.7125 10.5613 18.0196C10.3376 18.5595 10.0098 19.0501 9.59662 19.4633C9.1834 19.8766 8.69284 20.2043 8.15294 20.428C7.61304 20.6516 7.03438 20.7667 6.45 20.7667C5.86562 20.7667 5.28696 20.6516 4.74706 20.428C4.20716 20.2043 3.7166 19.8766 3.30337 19.4633C2.89015 19.0501 2.56237 18.5595 2.33874 18.0196C2.1151 17.4797 2 16.9011 2 16.3167V6.45005C2 5.59693 2.3389 4.77876 2.94214 4.17552C3.54538 3.57227 4.36355 3.23337 5.21667 3.23337H5.83333C6.24755 3.23337 6.58333 3.56916 6.58333 3.98337C6.58333 4.39759 6.24755 4.73337 5.83333 4.73337H5.21667C4.76138 4.73337 4.32474 4.91424 4.0028 5.23618C3.68086 5.55811 3.5 5.99476 3.5 6.45005V12.985C3.8691 12.6582 4.29043 12.3946 4.74706 12.2054C5.28696 11.9818 5.86562 11.8667 6.45 11.8667C7.03438 11.8667 7.61304 11.9818 8.15294 12.2054C8.69284 12.4291 9.1834 12.7568 9.59662 13.1701C10.0098 13.5833 10.3376 14.0739 10.5613 14.6138C10.6885 14.9209 10.7806 15.2406 10.8363 15.5667H13.1637C13.2194 15.2406 13.3115 14.9209 13.4387 14.6138C13.6624 14.0739 13.9902 13.5833 14.4034 13.1701C14.8166 12.7568 15.3072 12.4291 15.8471 12.2054C16.387 11.9818 16.9656 11.8667 17.55 11.8667C18.1344 11.8667 18.713 11.9818 19.2529 12.2054C19.7096 12.3946 20.1309 12.6582 20.5 12.985L20.5 6.45001C20.5 5.99472 20.3191 5.55808 19.9972 5.23614C19.6753 4.9142 19.2386 4.73334 18.7833 4.73334H18.1667C17.7525 4.73334 17.4167 4.39755 17.4167 3.98334ZM6.45 13.3667C6.0626 13.3667 5.67899 13.443 5.32108 13.5912C4.96317 13.7395 4.63797 13.9568 4.36404 14.2307C4.0901 14.5047 3.87281 14.8299 3.72456 15.1878C3.5763 15.5457 3.5 15.9293 3.5 16.3167C3.5 16.7041 3.5763 17.0877 3.72456 17.4456C3.87281 17.8035 4.0901 18.1287 4.36404 18.4027C4.63797 18.6766 4.96317 18.8939 5.32108 19.0422C5.679 19.1904 6.0626 19.2667 6.45 19.2667C6.8374 19.2667 7.221 19.1904 7.57892 19.0422C7.93683 18.8939 8.26203 18.6766 8.53596 18.4027C8.8099 18.1287 9.02719 17.8035 9.17544 17.4456C9.3237 17.0877 9.4 16.7041 9.4 16.3167C9.4 15.9293 9.3237 15.5457 9.17544 15.1878C9.02719 14.8299 8.8099 14.5047 8.53596 14.2307C8.26203 13.9568 7.93683 13.7395 7.57892 13.5912C7.22101 13.443 6.8374 13.3667 6.45 13.3667ZM17.55 13.3667C17.1626 13.3667 16.779 13.443 16.4211 13.5912C16.0632 13.7395 15.738 13.9568 15.464 14.2307C15.1901 14.5047 14.9728 14.8299 14.8246 15.1878C14.6763 15.5457 14.6 15.9293 14.6 16.3167C14.6 16.7041 14.6763 17.0877 14.8246 17.4456C14.9728 17.8035 15.1901 18.1287 15.464 18.4027C15.738 18.6766 16.0632 18.8939 16.4211 19.0422C16.779 19.1904 17.1626 19.2667 17.55 19.2667C17.9374 19.2667 18.321 19.1904 18.6789 19.0422C19.0368 18.8939 19.362 18.6766 19.636 18.4027C19.9099 18.1287 20.1272 17.8035 20.2754 17.4456C20.4237 17.0877 20.5 16.7041 20.5 16.3167C20.5 15.9293 20.4237 15.5457 20.2754 15.1878C20.1272 14.8299 19.9099 14.5047 19.636 14.2307C19.362 13.9568 19.0368 13.7395 18.6789 13.5912C18.321 13.443 17.9374 13.3667 17.55 13.3667Z" fill="#1B1A16"/>
</svg>
