<svg width="24" height="24" viewBox="0 0 24 24" fill="none" xmlns="http://www.w3.org/2000/svg">
<path fill-rule="evenodd" clip-rule="evenodd" d="M7.86848 2C7.8684 2 7.86855 2 7.86848 2H13.7439C14.112 2.00014 14.4732 2.10274 14.7863 2.29633C15.0995 2.48992 15.3526 2.76685 15.5173 3.09612L16.4102 4.88113C16.4834 5.02755 16.5067 5.19391 16.4766 5.35482L16.1807 6.93333H16.9727C17.4987 6.93333 18.0032 7.14229 18.3751 7.51424C18.7471 7.88618 18.956 8.39065 18.956 8.91667V12.6167C18.956 13.0309 18.6202 13.3667 18.206 13.3667C17.7918 13.3667 17.456 13.0309 17.456 12.6167V8.91667C17.456 8.78848 17.4051 8.66554 17.3145 8.5749C17.2238 8.48426 17.1009 8.43333 16.9727 8.43333H15.8996L14.7564 14.533C14.8986 14.6021 15.0329 14.6884 15.1562 14.7907C15.5117 15.0859 15.753 15.496 15.8384 15.9502C15.8384 15.9501 15.8384 15.9503 15.8384 15.9502L16.5348 19.6502C16.5887 19.9366 16.5787 20.2317 16.5057 20.5138C16.4326 20.796 16.2983 21.0586 16.1122 21.2829C15.9261 21.5072 15.6929 21.6878 15.4291 21.8117C15.1653 21.9357 14.8774 22 14.5859 22H7.02629C6.73494 21.9998 6.44662 21.9353 6.18298 21.8113C5.91935 21.6873 5.68627 21.5067 5.50034 21.2824C5.3144 21.0581 5.18017 20.7956 5.10718 20.5135C5.0342 20.2314 5.02425 19.9367 5.07806 19.6504L5.77448 15.9504C5.77447 15.9505 5.7745 15.9503 5.77448 15.9504C5.85991 15.496 6.10145 15.0855 6.45727 14.7903C6.58059 14.688 6.71496 14.6017 6.85716 14.5326L5.13557 5.35494C5.1054 5.19409 5.12867 5.02778 5.20183 4.88138L6.09395 3.09633C6.25874 2.76686 6.51214 2.48959 6.82555 2.29598C7.1389 2.10242 7.50017 1.99993 7.86848 2ZM7.72354 15.8333C7.61088 15.8334 7.50178 15.8728 7.41508 15.9447C7.32835 16.0167 7.26949 16.1167 7.24868 16.2274L6.55226 19.9274C6.5392 19.9971 6.54159 20.0691 6.55936 20.1377C6.57714 20.2065 6.60985 20.2705 6.65517 20.3251C6.70048 20.3798 6.75728 20.4238 6.82153 20.454C6.88577 20.4842 6.95589 20.4999 7.0269 20.5H14.5857C14.5857 20.5 14.5858 20.5 14.5857 20.5C14.6567 20.5 14.7269 20.4843 14.7912 20.4541C14.8555 20.4239 14.9123 20.3799 14.9577 20.3252C15.003 20.2706 15.0358 20.2066 15.0536 20.1378C15.0714 20.0691 15.0738 19.9974 15.0607 19.9276C15.0607 19.9276 15.0607 19.9277 15.0607 19.9276L14.3643 16.2276C14.3435 16.1169 14.2847 16.0168 14.198 15.9448C14.1113 15.8728 14.0023 15.8334 13.8896 15.8333H7.72354C7.72358 15.8333 7.72351 15.8333 7.72354 15.8333ZM10.3227 14.3333V8.91667C10.3227 8.50245 9.98694 8.16667 9.57273 8.16667C9.15851 8.16667 8.82273 8.50245 8.82273 8.91667V14.3333H8.34594L6.77648 5.96667H14.8358L14.5465 7.5103C14.5412 7.53272 14.5369 7.55553 14.5337 7.57867L13.2677 14.3333H12.7894V8.91667C12.7894 8.50245 12.4536 8.16667 12.0394 8.16667C11.6252 8.16667 11.2894 8.50245 11.2894 8.91667V14.3333H10.3227ZM14.5256 4.46667H7.08599L7.4356 3.76712C7.43557 3.76719 7.43564 3.76705 7.4356 3.76712C7.47577 3.68693 7.53756 3.61927 7.61387 3.57213C7.69025 3.52495 7.77825 3.49997 7.86803 3.5H13.7436C13.8332 3.50008 13.9213 3.52509 13.9976 3.57222C14.0739 3.61939 14.1356 3.68688 14.1757 3.76712L14.5256 4.46667ZM10.8061 17.6833C10.5391 17.6833 10.3227 17.8997 10.3227 18.1667C10.3227 18.4336 10.5391 18.65 10.8061 18.65C11.073 18.65 11.2894 18.4336 11.2894 18.1667C11.2894 17.8997 11.073 17.6833 10.8061 17.6833ZM8.82273 18.1667C8.82273 17.0713 9.7107 16.1833 10.8061 16.1833C11.9014 16.1833 12.7894 17.0713 12.7894 18.1667C12.7894 19.262 11.9014 20.15 10.8061 20.15C9.7107 20.15 8.82273 19.262 8.82273 18.1667Z" fill="#1B1A16"/>
</svg>
