<svg width="24" height="24" viewBox="0 0 24 24" fill="none" xmlns="http://www.w3.org/2000/svg">
<path d="M8.89014 7C8.89014 6.58579 9.22592 6.25 9.64014 6.25H14.0001C14.4144 6.25 14.7501 6.58579 14.7501 7C14.7501 7.41421 14.4144 7.75 14.0001 7.75H9.64014C9.22592 7.75 8.89014 7.41421 8.89014 7Z" fill="#1B1A16"/>
<path d="M10.6401 9.25C10.2259 9.25 9.89014 9.58579 9.89014 10C9.89014 10.4142 10.2259 10.75 10.6401 10.75H13.0001C13.4144 10.75 13.7501 10.4142 13.7501 10C13.7501 9.58579 13.4144 9.25 13.0001 9.25H10.6401Z" fill="#1B1A16"/>
<path d="M12.0001 17.25C11.5901 17.25 11.2501 17.59 11.2501 18C11.2501 18.41 11.5901 18.75 12.0001 18.75C12.4101 18.75 12.7501 18.41 12.7501 18C12.7501 17.59 12.4101 17.25 12.0001 17.25Z" fill="#1B1A16"/>
<path fill-rule="evenodd" clip-rule="evenodd" d="M7.47052 2.25C7.05631 2.25 6.72052 2.58579 6.72052 3C6.72052 3.41421 7.05631 3.75 7.47052 3.75H6.15622C5.30486 3.75 4.8429 4.74602 5.39283 5.39594L6.75011 7L7.62746 13.1414C7.69784 13.6341 8.11976 14 8.61741 14H7.8829C7.37858 14 6.95317 14.3755 6.89062 14.876L6.14062 20.876C6.06601 21.4728 6.5314 22 7.1329 22H16.8673C17.4688 22 17.9342 21.4728 17.8596 20.876L17.1096 14.876C17.0471 14.3755 16.6217 14 16.1173 14H14.9264C15.4048 14 15.8162 13.6611 15.9079 13.1915L16.2204 11.59H19.0001C19.4143 11.59 19.7501 11.2542 19.7501 10.84V7C19.7501 6.58579 19.4143 6.25 19.0001 6.25H17.2623L17.5176 4.94151C17.6381 4.32402 17.1653 3.75 16.5361 3.75H16.1697C16.5839 3.75 16.9197 3.41421 16.9197 3C16.9197 2.58579 16.5839 2.25 16.1697 2.25H7.47052ZM16.9697 7.7494L16.513 10.09H18.2501V7.75H17.0001C16.9899 7.75 16.9798 7.7498 16.9697 7.7494ZM14.89 10.5979L15.9301 5.25H7.23011L7.90011 6.03C8.08011 6.25 8.20011 6.51 8.23011 6.79L9.05011 12.5H14.5201L14.8513 10.7971C14.8552 10.7277 14.8686 10.6609 14.89 10.5979ZM16.3001 20.5H7.70012L8.32012 15.5H15.6801L16.3001 20.5Z" fill="#1B1A16"/>
</svg>
