<svg width="24" height="24" viewBox="0 0 24 24" fill="none" xmlns="http://www.w3.org/2000/svg">
<path d="M14.244 16.771C14.059 16.526 13.818 16.324 13.546 16.188C13.273 16.05 12.968 15.978 12.658 15.978H8.90997C8.60597 15.978 8.30098 16.05 8.02698 16.188C7.75298 16.326 7.51197 16.528 7.32897 16.771L5.84897 18.745C5.75197 18.875 5.69897 19.033 5.69897 19.195V20.017C5.69897 20.546 5.90597 21.044 6.27997 21.419C6.65397 21.794 7.15297 22 7.68297 22H13.85C14.379 22 14.877 21.794 15.252 21.419C15.627 21.044 15.833 20.546 15.833 20.017V19.195C15.833 19.036 15.782 18.882 15.689 18.754L14.244 16.771ZM14.333 20.017C14.333 20.146 14.282 20.267 14.191 20.359C14.1 20.449 13.979 20.5 13.85 20.5H7.68297C7.55397 20.5 7.43297 20.449 7.34097 20.358C7.24997 20.267 7.19997 20.146 7.19997 20.017V19.445L8.52997 17.67C8.57397 17.61 8.63397 17.562 8.69997 17.528C8.76497 17.495 8.83798 17.477 8.91598 17.477H12.664C12.735 17.477 12.807 17.495 12.874 17.528C12.941 17.562 12.999 17.61 13.038 17.662L14.333 19.438V20.017Z" fill="#1B1A16"/>
<path d="M17.718 7.103C17.344 6.729 16.846 6.523 16.317 6.523H15.565L15.696 5.47C15.732 5.187 15.709 4.906 15.625 4.634C15.541 4.362 15.403 4.116 15.216 3.905C15.028 3.692 14.801 3.525 14.545 3.41C14.288 3.293 14.015 3.234 13.728 3.234H11.518V2.75C11.518 2.336 11.182 2 10.768 2C10.354 2 10.018 2.336 10.018 2.75V3.233H7.84697C7.58197 3.233 7.32397 3.285 7.07797 3.388C6.80997 3.5 6.57497 3.666 6.37997 3.88C6.18597 4.093 6.04197 4.341 5.95397 4.619C5.86697 4.896 5.84197 5.182 5.87797 5.461L6.80697 13.273C6.86497 13.753 7.09697 14.195 7.45697 14.513C7.81797 14.834 8.28397 15.011 8.76797 15.011H12.764C13.248 15.011 13.714 14.834 14.074 14.514C14.436 14.193 14.668 13.752 14.725 13.276L14.867 12.133H16.316C16.845 12.133 17.343 11.926 17.717 11.552C18.087 11.183 18.299 10.672 18.299 10.149V8.505C18.3 7.983 18.088 7.472 17.718 7.103ZM7.38397 5.072C7.40497 5.003 7.44097 4.942 7.48797 4.89C7.53597 4.837 7.59297 4.797 7.65697 4.77C7.71497 4.746 7.77597 4.733 7.87897 4.733C7.88197 4.733 7.88497 4.733 7.88797 4.733H13.73C13.797 4.733 13.863 4.747 13.927 4.776C13.989 4.804 14.044 4.844 14.091 4.897C14.136 4.948 14.169 5.007 14.19 5.074C14.211 5.139 14.215 5.207 14.207 5.28L14.053 6.522H7.51497L7.36598 5.277C7.35698 5.207 7.36397 5.138 7.38397 5.072ZM13.078 13.394C12.992 13.47 12.881 13.512 12.765 13.512H8.76897C8.65197 13.512 8.54097 13.47 8.45297 13.392C8.36597 13.315 8.31097 13.209 8.29697 13.095L7.69297 8.022H13.867L13.456 11.328C13.455 11.348 13.445 11.364 13.445 11.383C13.445 11.387 13.448 11.391 13.448 11.396L13.237 13.093C13.223 13.208 13.167 13.314 13.078 13.394ZM16.8 10.15C16.8 10.277 16.748 10.401 16.658 10.492C16.566 10.583 16.445 10.634 16.316 10.634H15.053L15.377 8.023H16.315C16.444 8.023 16.566 8.073 16.657 8.164C16.747 8.254 16.799 8.379 16.799 8.506L16.8 10.15Z" fill="#1B1A16"/>
</svg>
