<svg width="24" height="24" viewBox="0 0 24 24" fill="none" xmlns="http://www.w3.org/2000/svg">
<path fill-rule="evenodd" clip-rule="evenodd" d="M12.8164 12.1699L12.81 12.1617C12.4142 11.6381 11.7387 11.5903 11.2833 11.7097C10.7706 11.8442 10.2579 12.2391 10.0841 12.9118L9.67751 14.2942L9.67642 14.2978L9.6709 14.317C9.66673 14.3319 9.6616 14.3509 9.65588 14.3739C9.64445 14.4199 9.63054 14.4818 9.61705 14.5575C9.59019 14.7083 9.56433 14.9173 9.56433 15.1655V17.7144C9.56433 18.1315 9.70667 18.5373 10.0101 18.8408C10.3136 19.1443 10.7195 19.2866 11.1366 19.2866H12.781C13.1981 19.2866 13.604 19.1443 13.9075 18.8408C14.2109 18.5373 14.3532 18.1315 14.3532 17.7144V15.3298C14.3532 14.8983 14.2497 14.3703 14.0273 13.9256C14.0211 13.9132 14.0146 13.901 14.0077 13.889C13.8009 13.5269 13.4945 13.0879 13.2533 12.7553C13.1301 12.5854 13.019 12.4366 12.9386 12.3302C12.8983 12.277 12.8657 12.2342 12.8429 12.2044L12.8164 12.1699ZM11.5356 13.2902C11.5474 13.2425 11.5658 13.219 11.5813 13.2043C11.6003 13.1864 11.6286 13.1699 11.6638 13.1607C11.6703 13.159 11.6767 13.1576 11.6827 13.1566L11.7417 13.2344C11.8177 13.335 11.9229 13.4758 12.039 13.636C12.2712 13.9561 12.5297 14.3294 12.694 14.6135C12.7954 14.825 12.8532 15.1096 12.8532 15.3298V17.7144C12.8532 17.7493 12.8482 17.7696 12.8453 17.7786C12.8363 17.7815 12.8159 17.7866 12.781 17.7866H11.1366C11.1016 17.7866 11.0813 17.7815 11.0723 17.7786C11.0694 17.7696 11.0643 17.7493 11.0643 17.7144V15.1655C11.0643 15.0203 11.0796 14.9005 11.0938 14.8206C11.1008 14.781 11.1075 14.7522 11.1115 14.7363L11.1149 14.7231L11.5271 13.3215C11.5302 13.3111 11.533 13.3007 11.5356 13.2902Z" fill="#1B1A16"/>
<path fill-rule="evenodd" clip-rule="evenodd" d="M14.6101 2.04909C14.9972 2.19655 15.1914 2.62987 15.0439 3.01695L14.6169 4.13793C15.435 4.7616 15.7528 5.83122 15.3783 6.86646L14.8346 8.41373C15.1006 8.65332 15.312 8.95226 15.4481 9.28976L16.917 12.7986C17.2236 13.4248 17.3131 14.1163 17.3131 14.6722V19.6055C17.3131 20.9241 16.2373 21.9999 14.9187 21.9999H9.08096C7.7623 21.9999 6.68652 20.9241 6.68652 19.6055V14.4256C6.68652 13.9236 6.78573 13.4429 6.87334 13.0925C6.87606 13.0816 6.87903 13.0708 6.88224 13.06L8.28002 8.37339C8.2865 8.35167 8.29396 8.33025 8.30238 8.3092C8.4887 7.84341 8.8435 7.17374 9.64413 6.89699C9.83352 6.82259 10.0666 6.7508 10.3225 6.71637L10.8384 5.21887C10.8424 5.20736 10.8466 5.19594 10.8511 5.18463C11.2274 4.24407 12.1591 3.57955 13.2075 3.62407L13.6422 2.48296C13.7897 2.09589 14.223 1.90163 14.6101 2.04909ZM13.4382 5.18478L13.4204 5.17827C12.9451 5.01051 12.4482 5.25133 12.2499 5.72699L11.8015 7.02833L13.4904 7.71445L13.967 6.35798C14.1561 5.8381 13.9389 5.37158 13.4382 5.18478ZM13.5812 9.37039C13.6041 9.38263 13.6278 9.39378 13.6523 9.40377C13.8351 9.49996 13.9808 9.66015 14.0579 9.85295L14.0624 9.86401L15.5424 13.3995C15.5489 13.415 15.5559 13.4303 15.5634 13.4453C15.7405 13.7995 15.8131 14.2485 15.8131 14.6722V19.6055C15.8131 20.0957 15.4089 20.4999 14.9187 20.4999H9.08096C8.59074 20.4999 8.18652 20.0957 8.18652 19.6055V14.4256C8.18652 14.1109 8.2495 13.7754 8.32459 13.4722L9.70718 8.83654C9.84367 8.50587 9.97463 8.36782 10.1404 8.31258C10.1543 8.30794 10.1681 8.30288 10.1817 8.29743C10.5212 8.16163 10.7272 8.18085 10.8328 8.24419C10.866 8.26408 10.9006 8.28137 10.9364 8.29592L13.5675 9.36482L13.5712 9.36633L13.5812 9.37039Z" fill="#1B1A16"/>
</svg>
