<svg width="24" height="24" viewBox="0 0 24 24" fill="none" xmlns="http://www.w3.org/2000/svg">
<path d="M17.634 2.46C17.337 2.164 16.942 2 16.521 2H7.47801C7.05801 2 6.66301 2.164 6.36601 2.46C6.06901 2.756 5.90601 3.152 5.90601 3.572V6.244V7.632C5.90601 8.048 6.01501 8.459 6.22101 8.82L7.43201 10.94C7.50901 11.075 7.55001 11.228 7.55001 11.383V19.605C7.55001 20.236 7.80501 20.853 8.25201 21.299C8.70501 21.751 9.30601 22 9.94401 22H14.055C14.694 22 15.294 21.751 15.748 21.299C16.193 20.854 16.449 20.237 16.449 19.606V11.384C16.449 11.229 16.49 11.076 16.567 10.94L17.776 8.822C17.982 8.463 18.092 8.052 18.093 7.633V6.245V3.572C18.095 3.152 17.931 2.758 17.634 2.46ZM7.47801 3.5H16.521L16.594 3.572V5.494H7.40601V3.572L7.47801 3.5ZM16.595 7.63C16.594 7.787 16.554 7.941 16.476 8.077L15.266 10.197C15.06 10.558 14.951 10.969 14.951 11.384V19.606C14.951 19.841 14.855 20.073 14.69 20.238C14.52 20.408 14.294 20.501 14.056 20.501H9.94401C9.70901 20.501 9.47801 20.405 9.31201 20.239C9.14601 20.073 9.05001 19.841 9.05001 19.605V11.381C9.05001 10.965 8.94001 10.554 8.73401 10.195L7.52301 8.075C7.44601 7.941 7.40601 7.788 7.40601 7.632V6.995H16.595V7.63Z" fill="#1B1A16"/>
</svg>
