<svg width="24" height="24" viewBox="0 0 24 24" fill="none" xmlns="http://www.w3.org/2000/svg">
<path fill-rule="evenodd" clip-rule="evenodd" d="M12 5.69995C10.3291 5.69995 8.72666 6.3637 7.54518 7.54518C6.83993 8.25043 6.31915 9.10567 6.01391 10.0359L6.00812 10.0531L6.00271 10.0704C5.80389 10.6883 5.69995 11.3388 5.69995 12C5.69995 13.6708 6.3637 15.2732 7.54518 16.4547C7.77537 16.6849 8.02154 16.8955 8.28108 17.0853L8.29657 17.0968L8.31245 17.1081C9.37899 17.878 10.6677 18.2999 12 18.2999C13.3308 18.2999 14.6182 17.8789 15.6841 17.1104C15.6906 17.106 15.697 17.1015 15.7034 17.0969C15.7098 17.0922 15.7162 17.0875 15.7224 17.0826C15.9806 16.8935 16.2256 16.6839 16.4547 16.4547C17.6362 15.2732 18.2999 13.6708 18.2999 12C18.2999 11.3414 18.1968 10.6935 17.9996 10.0778C17.9972 10.0696 17.9947 10.0613 17.992 10.0531C17.9893 10.0448 17.9865 10.0367 17.9836 10.0287C17.678 9.10121 17.1581 8.24859 16.4547 7.54518C15.2733 6.36371 13.6708 5.69996 12 5.69995ZM16.2773 9.82173C16.0506 9.37663 15.7538 8.96562 15.3941 8.60584C14.6726 7.8844 13.7452 7.41633 12.75 7.25889V9.51053C13.1573 9.63326 13.5322 9.85525 13.8385 10.1615C13.9489 10.2719 14.0483 10.3912 14.136 10.5176L16.2773 9.82173ZM14.5994 11.9443C14.5998 11.9628 14.6 11.9814 14.6 12C14.6 12.5712 14.4121 13.1231 14.0704 13.5728L15.3937 15.3945C16.2938 14.4943 16.8 13.273 16.8 12C16.8 11.7466 16.7799 11.4954 16.7408 11.2483L14.5994 11.9443ZM14.1802 16.2762L12.857 14.4547C12.5841 14.55 12.2946 14.6 12 14.6C11.7056 14.6 11.4164 14.5501 11.1436 14.4549L9.81995 16.2764C10.4889 16.6174 11.235 16.8 12 16.8C12.765 16.8 13.5111 16.6173 14.1802 16.2762ZM12.647 12.8896L12.6508 12.8869C12.6956 12.854 12.7381 12.8176 12.7778 12.7778C12.9841 12.5716 13.1 12.2918 13.1 12C13.1 11.7083 12.9841 11.4285 12.7778 11.2222C12.5716 11.0159 12.2918 10.9 12 10.9C11.7083 10.9 11.4285 11.0159 11.2222 11.2222C11.0991 11.3453 11.0082 11.4946 10.9549 11.657L10.9538 11.6604L10.9528 11.6635C10.9181 11.7713 10.9 11.8847 10.9 12C10.9 12.2918 11.0159 12.5716 11.2222 12.7778C11.2581 12.8137 11.2961 12.8468 11.3361 12.8771L11.3481 12.8854L11.354 12.8897C11.3599 12.8939 11.3656 12.8983 11.3713 12.9027C11.5546 13.0303 11.7737 13.1 12 13.1C12.2322 13.1 12.4568 13.0266 12.6429 12.8926L12.647 12.8896ZM9.93005 13.5733L8.60643 15.3947C7.70626 14.4945 7.19995 13.273 7.19995 12C7.19995 11.7466 7.21998 11.4953 7.25915 11.2483L9.40062 11.9442C9.40022 11.9628 9.40002 11.9814 9.40002 12C9.40002 12.5714 9.58813 13.1235 9.93005 13.5733ZM7.72267 9.82167L9.86402 10.5176C9.95179 10.3911 10.0512 10.2719 10.1615 10.1615C10.4678 9.85526 10.8427 9.63328 11.25 9.51055V7.25888C10.2548 7.4163 9.3273 7.88438 8.60584 8.60584C8.24608 8.9656 7.94932 9.37659 7.72267 9.82167Z" fill="#1B1A16"/>
<path fill-rule="evenodd" clip-rule="evenodd" d="M12 2C9.34784 2 6.8043 3.05357 4.92893 4.92893C3.05357 6.8043 2 9.34784 2 12C2 14.6522 3.05357 17.1957 4.92893 19.0711C6.8043 20.9464 9.34784 22 12 22C14.6522 22 17.1957 20.9464 19.0711 19.0711C20.9464 17.1957 22 14.6522 22 12C22 9.34784 20.9464 6.8043 19.0711 4.92893C17.1957 3.05357 14.6522 2 12 2ZM5.98959 5.98959C7.58365 4.39553 9.74566 3.5 12 3.5C14.2543 3.5 16.4163 4.39553 18.0104 5.98959C19.6045 7.58365 20.5 9.74566 20.5 12C20.5 14.2543 19.6045 16.4163 18.0104 18.0104C16.4163 19.6045 14.2543 20.5 12 20.5C9.74566 20.5 7.58365 19.6045 5.98959 18.0104C4.39553 16.4163 3.5 14.2543 3.5 12C3.5 9.74566 4.39553 7.58365 5.98959 5.98959Z" fill="#1B1A16"/>
</svg>
