<svg width="24" height="24" viewBox="0 0 24 24" fill="none" xmlns="http://www.w3.org/2000/svg">
<path fill-rule="evenodd" clip-rule="evenodd" d="M15.8581 2.02991C16.9735 1.91315 18.098 2.13854 19.0822 2.67615C19.2896 2.78941 19.4314 2.99376 19.4651 3.22762C19.4987 3.46148 19.4202 3.69752 19.2531 3.86461L16.7196 6.39893V7.27949H17.6001L20.1344 4.74593L20.1355 4.74487C20.3026 4.57794 20.5386 4.4995 20.7724 4.53317C21.0062 4.56684 21.2105 4.70868 21.3237 4.91598C21.8613 5.90022 22.0867 7.02473 21.97 8.14013C21.8532 9.25552 21.3998 10.309 20.67 11.1605C19.9402 12.0121 18.9686 12.6214 17.8842 12.9076C16.9574 13.1522 15.9856 13.1507 15.0641 12.9075L6.79921 21.1755C6.272 21.7027 5.55684 21.999 4.81125 21.999C4.06566 21.999 3.35061 21.7028 2.8234 21.1756C2.29618 20.6484 2 19.9334 2 19.1878C2 18.4422 2.29618 17.7271 2.8234 17.1999L11.0907 8.93581C10.8475 8.01427 10.846 7.04252 11.0906 6.11563C11.3768 5.03127 11.9861 4.05964 12.8377 3.32986C13.6892 2.60007 14.7427 2.14668 15.8581 2.02991ZM17.3831 3.61352C16.9379 3.50544 16.475 3.47353 16.0143 3.52176C15.2017 3.60683 14.4342 3.93715 13.8138 4.46882C13.1934 5.0005 12.7495 5.70837 12.541 6.49837C12.3325 7.28837 12.3694 8.12311 12.6466 8.89167C12.7453 9.16518 12.677 9.47107 12.4714 9.67662L3.88406 18.2606C3.63821 18.5065 3.5 18.8401 3.5 19.1878C3.5 19.5355 3.63815 19.8691 3.88406 20.115C4.12996 20.3609 4.46349 20.499 4.81125 20.499C5.15902 20.499 5.49254 20.3609 5.73845 20.115L14.3233 11.5269C14.5288 11.3212 14.8347 11.2529 15.1082 11.3516C15.8768 11.6289 16.7115 11.6657 17.5015 11.4572C18.2915 11.2488 18.9994 10.8048 19.5311 10.1844C20.0627 9.56405 20.393 8.79656 20.4781 7.98395C20.5264 7.52318 20.4944 7.06028 20.3864 6.61508L18.441 8.5599C18.3003 8.7005 18.1096 8.77949 17.9107 8.77949H15.9696C15.5553 8.77949 15.2196 8.4437 15.2196 8.02949V6.08834C15.2196 5.88946 15.2985 5.69873 15.4391 5.55809L17.3831 3.61352Z" fill="#1B1A16"/>
</svg>
