<svg width="24" height="24" viewBox="0 0 24 24" fill="none" xmlns="http://www.w3.org/2000/svg">
<path fill-rule="evenodd" clip-rule="evenodd" d="M14.5684 2.08801C15.8635 1.86844 17.1949 2.05701 18.3782 2.6276C18.5971 2.73315 18.7512 2.93818 18.7919 3.17773C18.8325 3.41727 18.7546 3.66166 18.5827 3.83347L15.7381 6.67779C15.738 6.67782 15.7381 6.67776 15.7381 6.67779C15.5278 6.88816 15.4096 7.17351 15.4096 7.47095C15.4097 7.76842 15.5279 8.05369 15.7383 8.264C15.9487 8.47431 16.2341 8.59244 16.5316 8.59239C16.8291 8.59235 17.1144 8.47413 17.3247 8.26375L20.1696 5.41927C20.3416 5.24728 20.5863 5.16938 20.8261 5.21028C21.0659 5.25118 21.271 5.40582 21.3762 5.6251C21.9443 6.80866 22.1314 8.13921 21.9118 9.43351C21.6922 10.7278 21.0767 11.9222 20.15 12.8522L20.1479 12.8543C19.9915 13.0101 19.8276 13.157 19.6571 13.2947C19.6319 13.3176 19.6055 13.3385 19.5782 13.3574C18.7509 14.004 17.7726 14.4379 16.7295 14.6148C15.6134 14.804 14.4704 14.6909 13.418 14.2921L6.47422 21.2334C6.4742 21.2334 6.47424 21.2334 6.47422 21.2334C5.98257 21.7249 5.31571 22.0012 4.62043 22.0012C3.92513 22.0012 3.2583 21.725 2.76664 21.2334C2.27499 20.7418 1.99878 20.0751 1.99878 19.3798C1.99878 18.6846 2.27499 18.0179 2.76664 17.5263L9.7082 10.584C9.30753 9.53158 9.19364 8.38794 9.38324 7.27131C9.60313 5.97634 10.2203 4.78179 11.1493 3.85311C12.0783 2.92443 13.2732 2.30758 14.5684 2.08801ZM19.176 11.7021C19.8343 11.0058 20.2722 10.1292 20.4328 9.18263C20.538 8.56238 20.5209 7.93123 20.3864 7.32376L18.3857 9.32425C18.3857 9.32428 18.3857 9.32422 18.3857 9.32425C18.1086 9.60136 17.7758 9.81013 17.4136 9.93952L19.176 11.7021ZM14.6782 9.32536L17.9735 12.621C17.5095 12.8718 17.0049 13.0467 16.4787 13.1359C15.4904 13.3034 14.4744 13.1606 13.5707 12.7271C13.2837 12.5894 12.941 12.6478 12.7159 12.8729L5.41349 20.1727C5.20318 20.383 4.91787 20.5012 4.62043 20.5012C4.323 20.5012 4.03775 20.383 3.82743 20.1727C3.61712 19.9624 3.49896 19.6772 3.49896 19.3798C3.49896 19.0824 3.61712 18.7972 3.82743 18.5869L11.1282 11.2854C11.3536 11.06 11.4119 10.7167 11.2734 10.4295C10.8382 9.52655 10.6945 8.51061 10.8623 7.52239C11.0301 6.53417 11.5011 5.62258 12.21 4.91389C12.9189 4.20519 13.8308 3.73446 14.8191 3.5669C15.44 3.46164 16.0719 3.4793 16.6797 3.61493L14.6772 5.61721C14.1856 6.10894 13.9093 6.77589 13.9094 7.47118C13.9096 8.16648 14.1864 8.83379 14.6782 9.32536C14.6784 9.32554 14.678 9.32518 14.6782 9.32536Z" fill="#1B1A16"/>
</svg>
