<svg width="24" height="24" viewBox="0 0 24 24" fill="none" xmlns="http://www.w3.org/2000/svg">
<path fill-rule="evenodd" clip-rule="evenodd" d="M16.2472 2.03787C17.304 1.90842 18.3748 2.1127 19.3098 2.62211C19.5174 2.73523 19.6595 2.93962 19.6932 3.17362C19.727 3.40762 19.6484 3.64384 19.4812 3.81101L16.5321 6.75994C16.4384 6.85369 16.3857 6.98085 16.3857 7.11345C16.3857 7.24604 16.4384 7.37321 16.5321 7.46696C16.6259 7.56072 16.7531 7.61339 16.8857 7.61339C17.0183 7.61339 17.1454 7.56072 17.2392 7.46696L20.1883 4.51804C20.3555 4.35089 20.5917 4.27232 20.8256 4.30604C21.0596 4.33975 21.264 4.48179 21.3772 4.68933C21.887 5.62417 22.0915 6.69505 21.9621 7.75193C21.8327 8.80882 21.376 9.79875 20.6558 10.5831C19.9356 11.3674 18.9881 11.9067 17.946 12.1256C17.3757 12.2454 16.7928 12.2659 16.2221 12.1898C16.2509 12.4097 16.2657 12.6325 16.2657 12.8568C16.2657 14.2156 15.7259 15.5188 14.7652 16.4797L9.46334 21.7804C9.32266 21.921 9.13187 22 8.93293 22C8.734 22 8.54322 21.9209 8.40257 21.7802C7.79342 21.171 7.45122 20.3447 7.45122 19.4831C7.45122 18.6216 7.79342 17.7953 8.40257 17.186L11.9391 13.6514C11.9391 13.6515 11.9391 13.6514 11.9391 13.6514C12.1499 13.4406 12.2684 13.1545 12.2684 12.8564C12.2684 12.5688 12.1582 12.2926 11.9612 12.0842C11.9532 12.0768 11.9452 12.0692 11.9374 12.0613C11.9299 12.0538 11.9225 12.0461 11.9153 12.0383C11.707 11.8419 11.4312 11.7321 11.144 11.7321C10.8458 11.7321 10.5598 11.8505 10.349 12.0614L6.81418 15.5959C6.20484 16.205 5.37844 16.5473 4.51684 16.5473C3.65524 16.5473 2.82892 16.2051 2.21958 15.596C1.92664 15.3032 1.92655 14.8283 2.21938 14.5354L7.51863 9.23399C8.47963 8.27332 9.78307 7.73344 11.1419 7.73344C11.3661 7.73344 11.5888 7.74813 11.8086 7.77697C11.7326 7.20624 11.7533 6.62333 11.8732 6.05314C12.0924 5.01128 12.6318 4.06403 13.4162 3.34403C14.2005 2.62403 15.1903 2.16732 16.2472 2.03787ZM14.6762 9.1471C14.3133 8.80145 13.9048 8.51384 13.4652 8.29027C13.2496 7.67242 13.2058 7.00565 13.3412 6.36184C13.4959 5.6262 13.8769 4.95737 14.4306 4.44899C14.9844 3.94061 15.6834 3.61815 16.4296 3.52674C16.8209 3.47881 17.2149 3.49568 17.5964 3.57443L15.4714 5.69927C15.0963 6.07434 14.8856 6.58303 14.8856 7.11345C14.8856 7.64387 15.0963 8.15256 15.4714 8.52762C15.8465 8.90268 16.3552 9.11339 16.8857 9.11339C17.4161 9.11339 17.9248 8.90269 18.2999 8.52762L20.4252 6.40252C20.5041 6.7841 20.521 7.17826 20.4731 7.5697C20.3818 8.31589 20.0593 9.01482 19.5508 9.56856C19.0423 10.1223 18.3734 10.5031 17.6376 10.6577C16.9935 10.793 16.3264 10.7489 15.7083 10.5329C15.4918 10.1073 15.2152 9.71089 14.884 9.35678C14.8168 9.28486 14.7475 9.21494 14.6762 9.1471ZM12.4929 9.49463C12.0675 9.32372 11.6094 9.23344 11.1419 9.23344C10.1809 9.23344 9.25928 9.61507 8.57961 10.2944L3.92998 14.9459C4.11662 15.0124 4.31493 15.0473 4.51684 15.0473C4.98063 15.0473 5.42543 14.8631 5.75344 14.5353C5.75342 14.5353 5.75347 14.5352 5.75344 14.5353L9.28822 11.0007C9.78041 10.5086 10.448 10.2321 11.144 10.2321C11.5833 10.2321 12.0113 10.3422 12.391 10.5472L13.1167 9.82155C12.9501 9.71481 12.7737 9.62168 12.5891 9.54367C12.5557 9.52957 12.5236 9.51316 12.4929 9.49463ZM13.7045 10.2946C13.7325 10.3227 13.7601 10.3512 13.7871 10.3801C13.9318 10.5348 14.0626 10.7028 14.1775 10.8821L13.4522 11.6073C13.658 11.9875 13.7685 12.4163 13.7685 12.8564C13.7685 13.5524 13.492 14.2199 12.9998 14.7121L9.46346 18.2465C9.13567 18.5745 8.95132 19.0194 8.95132 19.4831C8.95132 19.685 8.98621 19.8832 9.05265 20.0698L13.7043 15.4192C13.7043 15.4192 13.7044 15.4191 13.7043 15.4192C14.3838 14.7395 14.7656 13.8178 14.7656 12.8568C14.7656 12.3885 14.6749 11.9296 14.5034 11.5035C14.4853 11.4734 14.4692 11.4419 14.4554 11.4092C14.3774 11.2247 14.2842 11.0485 14.1775 10.8821L14.1792 10.8804" fill="#1B1A16"/>
</svg>
