<svg width="24" height="24" viewBox="0 0 24 24" fill="none" xmlns="http://www.w3.org/2000/svg">
<path fill-rule="evenodd" clip-rule="evenodd" d="M8.98889 5.00868C8.98953 4.21096 9.3067 3.44605 9.87083 2.88193C10.4355 2.31724 11.2014 2 12 2C12.7986 2 13.5645 2.31724 14.1292 2.88193C14.6939 3.44663 15.0111 4.21251 15.0111 5.01111V6.31664H16.8V6.03886C16.8 5.45833 17.0307 4.90158 17.4412 4.49109C17.8516 4.08059 18.4084 3.84998 18.9889 3.84998C19.5695 3.84998 20.1262 4.08059 20.5367 4.49109C20.9472 4.90158 21.1778 5.45833 21.1778 6.03886V8.8854C21.1777 9.23854 21.0586 9.58171 20.8398 9.85894C20.6211 10.1361 20.3155 10.3316 19.9722 10.4139L18.6402 10.7336L20.7099 14.9572C20.8238 15.1897 20.8098 15.4645 20.6728 15.6841C20.5358 15.9038 20.2952 16.0373 20.0364 16.0373H17.3559L18.243 18.0333H20.0167C20.5427 18.0333 21.0471 18.2423 21.4191 18.6142C21.791 18.9862 22 19.4906 22 20.0167C22 20.5427 21.791 21.0471 21.4191 21.4191C21.0471 21.791 20.5427 22 20.0167 22H3.98333C3.45732 22 2.95285 21.791 2.5809 21.4191C2.20896 21.0471 2 20.5427 2 20.0167C2 19.4906 2.20896 18.9862 2.5809 18.6142C2.95285 18.2423 3.45732 18.0333 3.98333 18.0333H5.75708L6.64422 16.0373H3.96362C3.70476 16.0373 3.4642 15.9038 3.32722 15.6841C3.19025 15.4645 3.17623 15.1897 3.29014 14.9572L5.3598 10.7336L4.02816 10.414C3.68485 10.3316 3.37895 10.1361 3.16025 9.85894C2.94149 9.58171 2.82243 9.2389 2.82227 8.88576L2.82227 6.03886C2.82227 5.45833 3.05288 4.90158 3.46338 4.49109C3.87387 4.08059 4.43062 3.84998 5.01115 3.84998C5.59168 3.84998 6.14844 4.08059 6.55893 4.49109C6.96943 4.90158 7.20004 5.45833 7.20004 6.03886V6.31664H8.98889L8.98889 5.00868ZM10.9315 3.94259C11.2149 3.65921 11.5992 3.5 12 3.5C12.4008 3.5 12.7851 3.65921 13.0685 3.94259C13.1643 4.03833 13.2458 4.14559 13.3119 4.26111H10.6881C10.7542 4.14559 10.8358 4.03833 10.9315 3.94259ZM13.5111 5.76111V6.58373L12 7.2706L10.4889 6.58373V5.76111H13.5111ZM17.1456 11.0923L16.0389 11.3579V13.0741L16.6892 14.5373H18.8337L17.1456 11.0923ZM15.506 15.5684L14.6036 13.5379C14.561 13.442 14.5389 13.3382 14.5389 13.2333V12.9556H9.46115V13.2333C9.46115 13.3382 9.43913 13.442 9.39651 13.5379L8.49314 15.5705C8.48736 15.5847 8.48116 15.5986 8.47455 15.6123L7.39856 18.0333H8.58513L11.3968 14.2266C11.5382 14.0352 11.762 13.9222 12 13.9222C12.238 13.9222 12.4619 14.0352 12.6033 14.2266L15.415 18.0333H16.6015L15.5264 15.6144C15.5191 15.5993 15.5123 15.584 15.506 15.5684ZM14.5389 10.7666V11.4556H9.46115V10.7666C9.46115 10.4199 9.2234 10.1183 8.88619 10.0374L4.37766 8.95524C4.36188 8.95146 4.34784 8.94248 4.33779 8.92974C4.32774 8.91701 4.32227 8.90126 4.32227 8.88504V6.03886C4.32227 5.85616 4.39484 5.68094 4.52404 5.55175C4.65323 5.42255 4.82845 5.34998 5.01115 5.34998C5.19386 5.34998 5.36908 5.42255 5.49827 5.55175C5.62746 5.68094 5.70004 5.85616 5.70004 6.03886V7.06664C5.70004 7.48086 6.03583 7.81664 6.45004 7.81664H9.57638L11.6896 8.77722C11.8868 8.86685 12.1132 8.86685 12.3104 8.77722L14.4236 7.81664H17.55C17.9643 7.81664 18.3 7.48086 18.3 7.06664V6.03886C18.3 5.85616 18.3726 5.68094 18.5018 5.55175C18.631 5.42255 18.8062 5.34998 18.9889 5.34998C19.1716 5.34998 19.3469 5.42255 19.476 5.55175C19.6052 5.68094 19.6778 5.85616 19.6778 6.03886V8.88504C19.6778 8.90126 19.6723 8.91701 19.6623 8.92974C19.6522 8.94248 19.6379 8.95153 19.6221 8.95531L15.1139 10.0374C14.7767 10.1183 14.5389 10.4199 14.5389 10.7666ZM7.96115 11.3579V12.1935L7.96106 12.2056L7.96115 12.2176V13.0741L7.31088 14.5373H5.16634L6.85442 11.0923L7.96115 11.3579ZM12 15.9346L13.5502 18.0333H10.4499L12 15.9346ZM3.98333 19.5333C3.85515 19.5333 3.73221 19.5842 3.64157 19.6749C3.55092 19.7655 3.5 19.8885 3.5 20.0167C3.5 20.1448 3.55092 20.2678 3.64157 20.3584C3.73221 20.4491 3.85515 20.5 3.98333 20.5H20.0167C20.1449 20.5 20.2678 20.4491 20.3584 20.3584C20.4491 20.2678 20.5 20.1448 20.5 20.0167C20.5 19.8885 20.4491 19.7655 20.3584 19.6749C20.2678 19.5842 20.1449 19.5333 20.0167 19.5333H3.98333Z" fill="#1B1A16"/>
</svg>
