<svg width="24" height="24" viewBox="0 0 24 24" fill="none" xmlns="http://www.w3.org/2000/svg">
<path d="M6.875 9.62277C6.875 9.20856 7.21079 8.87277 7.625 8.87277H11.625C12.0392 8.87277 12.375 9.20856 12.375 9.62277C12.375 10.037 12.0392 10.3728 11.625 10.3728H7.625C7.21079 10.3728 6.875 10.037 6.875 9.62277Z" fill="#1B1A16"/>
<path fill-rule="evenodd" clip-rule="evenodd" d="M6.875 5.62277V4.17732C6.875 3.32311 7.57079 2.62732 8.425 2.62732H10.815C11.6731 2.62732 12.375 3.31705 12.375 4.17732V5.62277H14.625C15.1773 5.62277 15.625 6.07049 15.625 6.62277V7.87277H15.835C16.683 7.87277 17.375 8.55234 17.375 9.40277V10.3762C19.1502 11.2173 20.375 13.0243 20.375 15.1228V20.6228C20.375 21.037 20.0392 21.3728 19.625 21.3728H10.625C10.2108 21.3728 9.875 21.037 9.875 20.6228V18.6228H7.375V19.1228C7.375 19.537 7.03921 19.8728 6.625 19.8728C6.21079 19.8728 5.875 19.537 5.875 19.1228V18.6228H4.625C4.07272 18.6228 3.625 18.1751 3.625 17.6228V6.62277C3.625 6.07049 4.07272 5.62277 4.625 5.62277H6.875ZM8.375 4.17732C8.375 4.1659 8.37899 4.15399 8.39033 4.14265C8.40167 4.13131 8.41358 4.12732 8.425 4.12732H10.815C10.8569 4.12732 10.875 4.15759 10.875 4.17732V5.62277H8.375V4.17732ZM9.875 17.1228V15.1228C9.875 13.0243 11.0998 11.2173 12.875 10.3762V9.40277C12.875 8.65418 13.4142 8.03016 14.125 7.8984V7.12277H11.7081C11.6808 7.12578 11.6531 7.12732 11.625 7.12732H7.625C7.59693 7.12732 7.56921 7.12578 7.54194 7.12277H5.125V17.1228H9.875ZM14.377 9.39214C14.3759 9.39473 14.375 9.39785 14.375 9.40277V9.85661H15.875V9.40277C15.875 9.39787 15.8742 9.39512 15.8733 9.39312C15.8722 9.39064 15.8703 9.38744 15.867 9.38418C15.8637 9.38094 15.8597 9.3782 15.8551 9.37628C15.851 9.37456 15.8448 9.37277 15.835 9.37277H14.405C14.4001 9.37277 14.397 9.37363 14.3944 9.37473C14.3913 9.37605 14.3876 9.37835 14.3841 9.38185C14.3806 9.38535 14.3783 9.38903 14.377 9.39214ZM16.875 19.8728V18.2898H13.375V19.8728H16.875ZM13.375 15.8318V16.7898H16.875V15.8318H13.375ZM18.375 19.8728V15.0818C18.375 14.6676 18.0392 14.3318 17.625 14.3318H12.625C12.2108 14.3318 11.875 14.6676 11.875 15.0818V19.8728H11.375V15.1228C11.375 13.047 13.0492 11.3728 15.125 11.3728C17.2008 11.3728 18.875 13.047 18.875 15.1228V19.8728H18.375Z" fill="#1B1A16"/>
</svg>
