<svg width="24" height="24" viewBox="0 0 24 24" fill="none" xmlns="http://www.w3.org/2000/svg">
<path fill-rule="evenodd" clip-rule="evenodd" d="M12 15.5667C11.1151 15.5667 10.231 15.7056 9.54117 15.9815C9.19669 16.1193 8.87643 16.3009 8.63034 16.5385C8.38246 16.7779 8.16663 17.1206 8.16663 17.55C8.16663 17.9794 8.38246 18.3221 8.63034 18.5615C8.87643 18.7991 9.19669 18.9806 9.54117 19.1184C10.231 19.3944 11.1151 19.5333 12 19.5333C12.8848 19.5333 13.769 19.3944 14.4588 19.1184C14.8033 18.9806 15.1235 18.7991 15.3696 18.5615C15.6175 18.3221 15.8333 17.9794 15.8333 17.55C15.8333 17.1206 15.6175 16.7779 15.3696 16.5385C15.1235 16.3009 14.8033 16.1193 14.4588 15.9815C13.769 15.7056 12.8848 15.5667 12 15.5667ZM10.0983 17.3742C10.5649 17.1876 11.2493 17.0667 12 17.0667C12.7506 17.0667 13.435 17.1876 13.9017 17.3742C14.0584 17.4369 14.1691 17.4985 14.2434 17.55C14.1691 17.6015 14.0584 17.663 13.9017 17.7257C13.435 17.9124 12.7506 18.0333 12 18.0333C11.2493 18.0333 10.5649 17.9124 10.0983 17.7257C9.94151 17.663 9.83084 17.6015 9.75657 17.55C9.83084 17.4985 9.94151 17.4369 10.0983 17.3742Z" fill="#1B1A16"/>
<path fill-rule="evenodd" clip-rule="evenodd" d="M7.54518 3.84523C8.72667 2.66375 10.3291 2 12 2C13.6708 2 15.2733 2.66375 16.4548 3.84523C17.6362 5.02671 18.3 6.62914 18.3 8.3C18.3 9.97086 17.6362 11.5733 16.4548 12.7548C16.1154 13.0941 15.7414 13.3907 15.3409 13.6412C15.8453 13.8167 16.3183 14.0338 16.7463 14.2906C18.0342 15.0633 18.9166 16.2111 18.9166 17.55C18.9166 18.8889 18.0342 20.0367 16.7463 20.8094C15.4507 21.5867 13.7424 22 11.9999 22C10.2574 22 8.54914 21.5867 7.25356 20.8094C5.96569 20.0367 5.08325 18.8889 5.08325 17.55C5.08325 16.2111 5.96569 15.0633 7.25356 14.2906C7.68154 14.0338 8.15456 13.8167 8.65897 13.6412C8.25855 13.3907 7.88451 13.0941 7.54518 12.7548C6.3637 11.5733 5.69995 9.97086 5.69995 8.3C5.69995 6.62914 6.3637 5.02671 7.54518 3.84523ZM12 14.6L11.9862 14.6C10.4629 14.6022 9.03963 14.9682 8.0253 15.5768C7.00022 16.1919 6.58325 16.9263 6.58325 17.55C6.58325 18.1737 7.00022 18.9081 8.0253 19.5232C9.04268 20.1336 10.4714 20.5 11.9999 20.5C13.5285 20.5 14.9572 20.1336 15.9746 19.5232C16.9997 18.9081 17.4166 18.1737 17.4166 17.55C17.4166 16.9263 16.9997 16.1919 15.9746 15.5768C14.9602 14.9682 13.537 14.6022 12.0137 14.6L12 14.6ZM15.3941 11.6941C14.497 12.5913 13.2812 13.0966 12.0128 13.1L11.9999 13.1L11.9871 13.1C10.7187 13.0966 9.50298 12.5912 8.60584 11.6941C7.70567 10.7939 7.19995 9.57304 7.19995 8.3C7.19995 7.02696 7.70567 5.80606 8.60584 4.90589C9.50602 4.00571 10.7269 3.5 12 3.5C13.273 3.5 14.4939 4.00571 15.3941 4.90589C16.2943 5.80606 16.8 7.02696 16.8 8.3C16.8 9.57304 16.2943 10.7939 15.3941 11.6941Z" fill="#1B1A16"/>
</svg>
