<svg width="24" height="24" viewBox="0 0 24 24" fill="none" xmlns="http://www.w3.org/2000/svg">
<path fill-rule="evenodd" clip-rule="evenodd" d="M12 5.08337C10.1656 5.08337 8.40635 5.81209 7.10922 7.10922C6.35145 7.86698 5.78767 8.78247 5.44984 9.77852C5.44226 9.79836 5.43551 9.81855 5.42962 9.83902C5.20231 10.5301 5.08337 11.2589 5.08337 12C5.08337 12.4885 5.13504 12.9716 5.23534 13.4421C5.23908 13.4638 5.24379 13.4854 5.24952 13.5071C5.53342 14.7787 6.17339 15.955 7.10922 16.8909C8.40635 18.188 10.1656 18.9167 12 18.9167C13.8345 18.9167 15.5937 18.188 16.8909 16.8909C17.8237 15.958 18.4625 14.7862 18.7478 13.5193C18.7563 13.4895 18.7628 13.4595 18.7674 13.4296C18.866 12.963 18.9167 12.4842 18.9167 12C18.9167 10.1656 18.188 8.40635 16.8909 7.10922C15.5937 5.81209 13.8345 5.08337 12 5.08337ZM6.75381 10.6519C6.64155 11.0887 6.58337 11.5414 6.58337 12C6.58337 12.1193 6.58731 12.2382 6.59511 12.3565C10.1368 11.4157 13.8633 11.4157 17.405 12.3564C17.4128 12.2381 17.4167 12.1193 17.4167 12C17.4167 11.5421 17.3587 11.0901 17.2468 10.6539C13.8145 9.69839 10.1863 9.69772 6.75381 10.6519ZM16.4508 8.91278C16.2678 8.64891 16.0604 8.4001 15.8302 8.16988C14.8144 7.15406 13.4366 6.58337 12 6.58337C10.5635 6.58337 9.1857 7.15406 8.16988 8.16988C7.94015 8.39961 7.73319 8.64785 7.55044 8.91109C10.4833 8.2781 13.5181 8.27866 16.4508 8.91278ZM8.16988 15.8302C7.59876 15.2591 7.16835 14.5736 6.90096 13.8275C10.2403 12.9254 13.7598 12.9253 17.0992 13.8274C16.8318 14.5735 16.4014 15.259 15.8302 15.8302C14.8144 16.846 13.4366 17.4167 12 17.4167C10.5635 17.4167 9.1857 16.846 8.16988 15.8302Z" fill="#1B1A16"/>
<path fill-rule="evenodd" clip-rule="evenodd" d="M12 2C9.34784 2 6.8043 3.05357 4.92893 4.92893C3.05357 6.8043 2 9.34784 2 12C2 14.6522 3.05357 17.1957 4.92893 19.0711C6.8043 20.9464 9.34784 22 12 22C14.6522 22 17.1957 20.9464 19.0711 19.0711C20.9464 17.1957 22 14.6522 22 12C22 9.34784 20.9464 6.8043 19.0711 4.92893C17.1957 3.05357 14.6522 2 12 2ZM5.98959 5.98959C7.58365 4.39553 9.74566 3.5 12 3.5C14.2543 3.5 16.4163 4.39553 18.0104 5.98959C19.6045 7.58365 20.5 9.74566 20.5 12C20.5 14.2543 19.6045 16.4163 18.0104 18.0104C16.4163 19.6045 14.2543 20.5 12 20.5C9.74566 20.5 7.58365 19.6045 5.98959 18.0104C4.39553 16.4163 3.5 14.2543 3.5 12C3.5 9.74566 4.39553 7.58365 5.98959 5.98959Z" fill="#1B1A16"/>
</svg>
