<svg width="24" height="24" viewBox="0 0 24 24" fill="none" xmlns="http://www.w3.org/2000/svg">
<path fill-rule="evenodd" clip-rule="evenodd" d="M3.81424 2.5809C4.18619 2.20896 4.69065 2 5.21667 2H7.68335H18.7833C19.6364 2 20.4546 2.3389 21.0579 2.94214C21.6611 3.54538 22 4.36355 22 5.21667V5.62539L22 5.62781V8.09447L22 8.09689V18.7833C22 19.6364 21.6611 20.4546 21.0579 21.0579C20.4546 21.6611 19.6364 22 18.7833 22H4.6C3.91044 22 3.24912 21.7261 2.76152 21.2385C2.27393 20.7509 2 20.0896 2 19.4C2 18.7104 2.27393 18.0491 2.76152 17.5615C3.24912 17.0739 3.91044 16.8 4.6 16.8H12.6167C13.072 16.8 13.5086 16.6191 13.8305 16.2972C14.1525 15.9753 14.3333 15.5386 14.3333 15.0833V11.3833C14.3333 10.928 14.1525 10.4914 13.8305 10.1695C13.5086 9.84753 13.072 9.66667 12.6167 9.66667H11.6104L9.94936 10.774C9.82616 10.8562 9.6814 10.9 9.53333 10.9H8.43335V13.1H9.53335C9.94756 13.1 10.2833 13.4358 10.2833 13.85C10.2833 14.2642 9.94756 14.6 9.53335 14.6H8.43335V15.0834C8.43335 15.4976 8.09756 15.8334 7.68335 15.8334C7.26914 15.8334 6.93335 15.4976 6.93335 15.0834V13.85V10.9H5.21667C4.69065 10.9 4.18619 10.691 3.81424 10.3191C3.44229 9.94715 3.23333 9.44268 3.23333 8.91667V3.98333C3.23333 3.45732 3.44229 2.95285 3.81424 2.5809ZM6.93335 3.5V7.68333C6.93335 8.09755 7.26914 8.43333 7.68335 8.43333C8.09756 8.43333 8.43335 8.09755 8.43335 7.68333V3.5H18.7833C19.2386 3.5 19.6753 3.68086 19.9972 4.0028C20.2381 4.24367 20.4 4.54875 20.4662 4.87781H17.9611C17.4351 4.87781 16.9306 5.08677 16.5587 5.45871C16.1867 5.83066 15.9778 6.33513 15.9778 6.86114C15.9778 7.38715 16.1867 7.89162 16.5587 8.26357C16.9306 8.63552 17.4351 8.84447 17.9611 8.84447H20.5V18.7833C20.5 19.2386 20.3191 19.6753 19.9972 19.9972C19.6753 20.3191 19.2386 20.5 18.7833 20.5H4.6C4.30826 20.5 4.02847 20.3841 3.82218 20.1778C3.61589 19.9715 3.5 19.6917 3.5 19.4C3.5 19.1083 3.61589 18.8285 3.82218 18.6222C4.02847 18.4159 4.30826 18.3 4.6 18.3H12.6167C13.4698 18.3 14.288 17.9611 14.8912 17.3579C15.4944 16.7546 15.8333 15.9364 15.8333 15.0833V11.3833C15.8333 10.5302 15.4944 9.71205 14.8912 9.10881C14.288 8.50556 13.4698 8.16667 12.6167 8.16667H11.3833C11.2353 8.16667 11.0905 8.2105 10.9673 8.29263L9.30625 9.4H5.21667C5.08848 9.4 4.96554 9.34908 4.8749 9.25844C4.78426 9.16779 4.73333 9.04485 4.73333 8.91667V3.98333C4.73333 3.85515 4.78426 3.73221 4.8749 3.64157C4.96554 3.55092 5.08848 3.5 5.21667 3.5H6.93335ZM17.9611 6.37781H20.5V7.34447H17.9611C17.8329 7.34447 17.71 7.29355 17.6193 7.20291C17.5287 7.11227 17.4778 6.98933 17.4778 6.86114C17.4778 6.73295 17.5287 6.61002 17.6193 6.51937C17.71 6.42873 17.8329 6.37781 17.9611 6.37781Z" fill="#1B1A16"/>
</svg>
