<svg width="24" height="24" viewBox="0 0 24 24" fill="none" xmlns="http://www.w3.org/2000/svg">
<path d="M21.602 17.198C21.348 16.942 20.996 16.795 20.634 16.795H18.344C19.145 15.946 19.798 14.96 20.209 13.862C20.87 12.096 20.943 10.127 20.415 8.317C19.887 6.506 18.766 4.886 17.259 3.755C15.752 2.623 13.885 2 12.001 2C10.117 2 8.249 2.624 6.742 3.756C5.235 4.887 4.114 6.507 3.586 8.318C3.058 10.128 3.131 12.098 3.793 13.863C4.204 14.96 4.857 15.947 5.658 16.796H3.366C3.001 16.796 2.657 16.939 2.4 17.197C2.146 17.451 2 17.803 2 18.163V18.781C2 19.629 2.343 20.459 2.942 21.058C3.549 21.665 4.358 22 5.216 22H18.783C19.631 22 20.46 21.656 21.058 21.057C21.656 20.458 21.999 19.628 21.999 18.781V18.163C22 17.803 21.855 17.45 21.602 17.198ZM5.197 13.337C4.649 11.872 4.588 10.239 5.026 8.737C5.464 7.236 6.393 5.893 7.642 4.955C10.139 3.08 13.859 3.079 16.358 4.955C17.607 5.893 18.537 7.236 18.975 8.737C19.413 10.238 19.352 11.872 18.804 13.336C18.278 14.74 17.305 15.954 16.068 16.795H15.435C15.211 16.795 14.988 16.852 14.778 16.965C14.58 17.075 14.41 17.236 14.281 17.44C14.023 17.863 13.825 18.021 13.852 18.031L10.224 18.043C10.174 18.021 9.975 17.863 9.716 17.433C9.594 17.239 9.424 17.077 9.213 16.96C9.014 16.853 8.791 16.796 8.561 16.796H7.933C6.696 15.954 5.723 14.74 5.197 13.337ZM20.5 18.78C20.5 19.233 20.316 19.676 19.996 19.998C19.678 20.316 19.235 20.5 18.783 20.5H5.217C4.759 20.5 4.327 20.321 4.004 19.997C3.684 19.677 3.501 19.233 3.501 18.78V18.295H8.488C8.998 19.115 9.558 19.53 10.152 19.53H13.855C14.442 19.53 15.001 19.114 15.518 18.295H20.502V18.78H20.5Z" fill="#1B1A16"/>
<path d="M16.456 15.212C17.644 14.02 18.3 12.436 18.3 10.752C18.3 9.068 17.645 7.483 16.455 6.292C15.266 5.1 13.683 4.443 11.999 4.443C10.316 4.443 8.734 5.099 7.544 6.292C6.355 7.483 5.7 9.067 5.7 10.752C5.7 12.437 6.355 14.021 7.545 15.212C8.735 16.404 10.317 17.061 12 17.061C13.683 17.061 15.266 16.405 16.456 15.212ZM7.2 10.752C7.2 9.486 7.713 8.247 8.606 7.352C9.513 6.444 10.718 5.944 12 5.944C13.282 5.944 14.488 6.444 15.394 7.352C16.288 8.247 16.8 9.487 16.8 10.752C16.8 12.017 16.287 13.257 15.394 14.152C14.488 15.061 13.282 15.561 12 15.561C10.718 15.561 9.513 15.061 8.606 14.152C7.713 13.257 7.2 12.018 7.2 10.752Z" fill="#1B1A16"/>
</svg>
