<svg width="24" height="24" viewBox="0 0 24 24" fill="none" xmlns="http://www.w3.org/2000/svg">
<path fill-rule="evenodd" clip-rule="evenodd" d="M7.2002 2.75C7.2002 2.33579 6.86441 2 6.4502 2C6.03598 2 5.7002 2.33579 5.7002 2.75V3.2334H5.2168C4.80258 3.2334 4.4668 3.56918 4.4668 3.9834C4.4668 4.39761 4.80258 4.7334 5.2168 4.7334H5.7002V5.7002H3.9834C3.56918 5.7002 3.2334 6.03598 3.2334 6.4502C3.2334 6.86441 3.56918 7.2002 3.9834 7.2002H5.7002V8.1665H5.2168C4.80258 8.1665 4.4668 8.50229 4.4668 8.9165C4.4668 9.33072 4.80258 9.6665 5.2168 9.6665H5.7002V11.8667H3.16111C2.85317 11.8667 2.55783 11.989 2.34008 12.2068C2.12233 12.4245 2 12.7199 2 13.0278V19.6056C2 20.2406 2.25227 20.8497 2.70132 21.2987C3.15036 21.7478 3.7594 22 4.39444 22H8.50556C9.1406 22 9.74964 21.7478 10.1987 21.2987C10.6477 20.8497 10.9 20.2406 10.9 19.6056V13.0278C10.9 12.7199 10.7777 12.4245 10.5599 12.2068C10.3422 11.989 10.0468 11.8667 9.73889 11.8667H7.2002V9.6665H7.68346C8.09768 9.6665 8.43346 9.33072 8.43346 8.9165C8.43346 8.50229 8.09768 8.1665 7.68346 8.1665H7.2002V7.2002H8.91673C9.33095 7.2002 9.66673 6.86441 9.66673 6.4502C9.66673 6.03598 9.33095 5.7002 8.91673 5.7002H7.2002V4.7334H7.68346C8.09768 4.7334 8.43346 4.39761 8.43346 3.9834C8.43346 3.56918 8.09768 3.2334 7.68346 3.2334H7.2002V2.75ZM3.5 13.3667V19.6056C3.5 19.8428 3.59424 20.0703 3.76198 20.2381C3.92972 20.4058 4.15722 20.5 4.39444 20.5H8.50556C8.74278 20.5 8.97028 20.4058 9.13802 20.2381C9.30576 20.0703 9.4 19.8428 9.4 19.6056V13.3667H3.5Z" fill="#1B1A16"/>
<path fill-rule="evenodd" clip-rule="evenodd" d="M22 8.90075V4.39539C22 3.76034 21.7477 3.15131 21.2987 2.70226C20.8496 2.25321 20.2406 2.00094 19.6056 2.00094H16.7278C16.0927 2.00094 15.4837 2.25321 15.0347 2.70226C14.5856 3.15131 14.3333 3.76034 14.3333 4.39539V10.9732C14.3333 11.2811 14.4557 11.5764 14.6734 11.7942C14.8912 12.0119 15.1865 12.1343 15.4944 12.1343H20.8389C21.1468 12.1343 21.4422 12.0119 21.6599 11.7942C21.8777 11.5764 22 11.2811 22 10.9732V8.93226C22.0001 8.92702 22.0002 8.92177 22.0002 8.9165C22.0002 8.91124 22.0001 8.90599 22 8.90075ZM20.5 8.1665V4.39539C20.5 4.15817 20.4058 3.93066 20.238 3.76292C20.0703 3.59518 19.8428 3.50094 19.6056 3.50094H16.7278C16.4906 3.50094 16.2631 3.59518 16.0953 3.76292C15.9276 3.93066 15.8333 4.15817 15.8333 4.39539V8.1665H20.5ZM20.5 9.6665H15.8333V10.6343H20.5V9.6665Z" fill="#1B1A16"/>
</svg>
