<svg width="24" height="24" viewBox="0 0 24 24" fill="none" xmlns="http://www.w3.org/2000/svg">
<path fill-rule="evenodd" clip-rule="evenodd" d="M7.81665 2.75C7.81665 2.33579 7.48086 2 7.06665 2C6.65244 2 6.31665 2.33579 6.31665 2.75V3.84998H5.21667C4.80246 3.84998 4.46667 4.18576 4.46667 4.59998C4.46667 5.01419 4.80246 5.34998 5.21667 5.34998H6.31665V6.31665H5.21667C4.80246 6.31665 4.46667 6.65244 4.46667 7.06665C4.46667 7.48086 4.80246 7.81665 5.21667 7.81665H6.31665V8.78333H5.21667C4.80246 8.78333 4.46667 9.11911 4.46667 9.53333C4.46667 9.94754 4.80246 10.2833 5.21667 10.2833H6.31665V14.3334H4.59998C4.18576 14.3334 3.84998 14.6692 3.84998 15.0834V19.6056C3.84998 20.2406 4.10225 20.8497 4.55129 21.2987C5.00034 21.7478 5.60937 22 6.24442 22H7.88886C8.52391 22 9.13295 21.7478 9.58199 21.2987C10.031 20.8497 10.2833 20.2406 10.2833 19.6056V15.0834C10.2833 14.6692 9.94752 14.3334 9.53331 14.3334H7.81665V10.2833H8.91667C9.33089 10.2833 9.66667 9.94754 9.66667 9.53333C9.66667 9.11911 9.33089 8.78333 8.91667 8.78333H7.81665V7.81665H8.91667C9.33089 7.81665 9.66667 7.48086 9.66667 7.06665C9.66667 6.65244 9.33089 6.31665 8.91667 6.31665H7.81665V5.34998H8.91667C9.33089 5.34998 9.66667 5.01419 9.66667 4.59998C9.66667 4.18576 9.33089 3.84998 8.91667 3.84998H7.81665V2.75ZM5.34998 15.8334V19.6056C5.34998 19.8428 5.44421 20.0703 5.61195 20.2381C5.77969 20.4058 6.0072 20.5 6.24442 20.5H7.88886C8.12609 20.5 8.35359 20.4058 8.52133 20.2381C8.68907 20.0703 8.78331 19.8428 8.78331 19.6056V15.8334H5.34998Z" fill="#1B1A16"/>
<path fill-rule="evenodd" clip-rule="evenodd" d="M15.7 2C15.2858 2 14.95 2.33579 14.95 2.75V4.46667H14.4667C14.0525 4.46667 13.7167 4.80245 13.7167 5.21667V18.7833C13.7167 19.6364 14.0556 20.4546 14.6588 21.0579C15.2621 21.6611 16.0802 22 16.9333 22C17.7865 22 18.6046 21.6611 19.2079 21.0579C19.8111 20.4546 20.15 19.6364 20.15 18.7833V5.21667C20.15 4.80245 19.8142 4.46667 19.4 4.46667H18.9167V2.75C18.9167 2.33579 18.5809 2 18.1667 2H15.7ZM15.2167 18.7833V5.96667H15.7C16.1142 5.96667 16.45 5.63088 16.45 5.21667V3.5H17.4167V5.21667C17.4167 5.63088 17.7525 5.96667 18.1667 5.96667H18.65V18.7833C18.65 19.2386 18.4691 19.6753 18.1472 19.9972C17.8253 20.3191 17.3886 20.5 16.9333 20.5C16.4781 20.5 16.0414 20.3191 15.7195 19.9972C15.3975 19.6753 15.2167 19.2386 15.2167 18.7833Z" fill="#1B1A16"/>
</svg>
