<svg width="24" height="24" viewBox="0 0 24 24" fill="none" xmlns="http://www.w3.org/2000/svg">
<path fill-rule="evenodd" clip-rule="evenodd" d="M12 17.4883C10.9906 18.1323 9.79165 18.5055 8.50556 18.5055C4.91264 18.5055 2 15.5929 2 11.9999C2 8.40702 4.91264 5.49438 8.50556 5.49438C9.79169 5.49438 10.9907 5.8676 12.0001 6.51165C13.0094 5.86764 14.2084 5.49445 15.4944 5.49445C19.0874 5.49445 22 8.40708 22 12C22 15.5929 19.0874 18.5056 15.4944 18.5056C14.2083 18.5056 13.0094 18.1323 12 17.4883ZM3.5 11.9999C3.5 9.23545 5.74106 6.99438 8.50556 6.99438C9.31873 6.99438 10.0866 7.18829 10.7655 7.53239C9.66417 8.69774 8.98889 10.27 8.98889 12C8.98889 13.7299 9.66413 15.3022 10.7654 16.4675C10.0866 16.8116 9.3187 17.0055 8.50556 17.0055C5.74106 17.0055 3.5 14.7644 3.5 11.9999ZM13.2346 7.53242C13.9134 7.18834 14.6813 6.99445 15.4944 6.99445C18.2589 6.99445 20.5 9.23551 20.5 12C20.5 14.7645 18.2589 17.0056 15.4944 17.0056C14.6813 17.0056 13.9134 16.8116 13.2345 16.4675C14.3358 15.3022 15.0111 13.7299 15.0111 11.9999C15.0111 10.27 14.3359 8.69776 13.2346 7.53242ZM12 8.41606C12.9323 9.32517 13.5111 10.595 13.5111 11.9999C13.5111 13.405 12.9322 14.6748 12 15.5839C11.0677 14.6748 10.4889 13.405 10.4889 12C10.4889 10.595 11.0678 9.32517 12 8.41606Z" fill="#1B1A16"/>
</svg>
