<svg width="24" height="24" viewBox="0 0 24 24" fill="none" xmlns="http://www.w3.org/2000/svg">
<path fill-rule="evenodd" clip-rule="evenodd" d="M3.98333 5.96667C3.7164 5.96667 3.5 6.18307 3.5 6.45001V17.55C3.5 17.8169 3.7164 18.0333 3.98333 18.0333H20.0167C20.2836 18.0333 20.5 17.8169 20.5 17.55V6.45001C20.5 6.18307 20.2836 5.96667 20.0167 5.96667H3.98333ZM2 6.45001C2 5.35464 2.88797 4.46667 3.98333 4.46667H20.0167C21.112 4.46667 22 5.35464 22 6.45001V17.55C22 18.6454 21.112 19.5333 20.0167 19.5333H3.98333C2.88797 19.5333 2 18.6454 2 17.55V6.45001ZM9.53333 9.66678C8.24467 9.66678 7.2 10.7114 7.2 12.0001C7.2 13.2888 8.24467 14.3334 9.53333 14.3334C10.2612 14.3334 10.9112 14.0002 11.3391 13.478C11.3732 13.4143 11.4169 13.355 11.4699 13.3022C11.7204 12.9303 11.8667 12.4823 11.8667 12.0001C11.8667 11.518 11.7204 11.07 11.4699 10.6981C11.4169 10.6453 11.3732 10.5859 11.3391 10.5222C10.9112 10 10.2612 9.66678 9.53333 9.66678ZM12.0065 9.07119C11.3389 8.50694 10.4759 8.16678 9.53333 8.16678C7.41624 8.16678 5.7 9.88302 5.7 12.0001C5.7 14.1172 7.41624 15.8334 9.53333 15.8334C10.4759 15.8334 11.3389 15.4933 12.0065 14.929C12.3894 15.2524 12.8343 15.4994 13.3174 15.653C14.0863 15.8976 14.9127 15.8934 15.679 15.6409C16.4453 15.3885 17.1125 14.9006 17.5854 14.2469C18.0583 13.5932 18.3129 12.8069 18.3129 12.0001C18.3129 11.1933 18.0583 10.407 17.5854 9.7533C17.1125 9.09958 16.4453 8.61175 15.679 8.35928C14.9127 8.10681 14.0863 8.10258 13.3174 8.34718C12.8343 8.50087 12.3894 8.74787 12.0065 9.07119ZM12.9421 10.2449C13.2135 10.7708 13.3667 11.3676 13.3667 12.0001C13.3667 12.6327 13.2135 13.2294 12.9421 13.7553C13.1823 13.9657 13.4645 14.1258 13.7721 14.2236C14.2402 14.3725 14.7432 14.3699 15.2097 14.2163C15.6761 14.0626 16.0822 13.7657 16.37 13.3677C16.6579 12.9698 16.8129 12.4912 16.8129 12.0001C16.8129 11.509 16.6579 11.0304 16.37 10.6325C16.0822 10.2346 15.6761 9.93763 15.2097 9.78396C14.7432 9.63028 14.2402 9.6277 13.7721 9.77659C13.4645 9.87446 13.1823 10.0345 12.9421 10.2449Z" fill="#1B1A16"/>
</svg>
