<svg width="24" height="24" viewBox="0 0 24 24" fill="none" xmlns="http://www.w3.org/2000/svg">
<path d="M12 13.2322C11.5858 13.2322 11.25 13.568 11.25 13.9822C11.25 14.3964 11.5858 14.7322 12 14.7322H13.9821C14.3964 14.7322 14.7321 14.3964 14.7321 13.9822C14.7321 13.568 14.3964 13.2322 13.9821 13.2322H12Z" fill="#1B1A16"/>
<path fill-rule="evenodd" clip-rule="evenodd" d="M6.625 8.69643C6.625 7.55241 7.55241 6.625 8.69643 6.625H15.3036C16.4476 6.625 17.375 7.55241 17.375 8.69643V15.3036C17.375 16.4476 16.4476 17.375 15.3036 17.375H8.69643C7.55241 17.375 6.625 16.4476 6.625 15.3036V8.69643ZM8.69643 8.125C8.38084 8.125 8.125 8.38084 8.125 8.69643V15.3036C8.125 15.6192 8.38084 15.875 8.69643 15.875H15.3036C15.6192 15.875 15.875 15.6192 15.875 15.3036V8.69643C15.875 8.38084 15.6192 8.125 15.3036 8.125H8.69643Z" fill="#1B1A16"/>
<path fill-rule="evenodd" clip-rule="evenodd" d="M12 2C12.4142 2 12.75 2.33579 12.75 2.75V3.98218H15.875V2.75C15.875 2.33579 16.2108 2 16.625 2C17.0392 2 17.375 2.33579 17.375 2.75V3.98218H17.9464C19.0904 3.98218 20.0178 4.90959 20.0178 6.05361V6.625H21.25C21.6642 6.625 22 6.96079 22 7.375C22 7.78921 21.6642 8.125 21.25 8.125H20.0178V11.25H21.25C21.6642 11.25 22 11.5858 22 12C22 12.4142 21.6642 12.75 21.25 12.75H20.0178V15.875H21.25C21.6642 15.875 22 16.2108 22 16.625C22 17.0392 21.6642 17.375 21.25 17.375H20.0178V17.9465C20.0178 19.0905 19.0904 20.0179 17.9464 20.0179H17.375V21.25C17.375 21.6642 17.0392 22 16.625 22C16.2108 22 15.875 21.6642 15.875 21.25V20.0179H12.75V21.25C12.75 21.6642 12.4142 22 12 22C11.5858 22 11.25 21.6642 11.25 21.25V20.0179H8.125V21.25C8.125 21.6642 7.78921 22 7.375 22C6.96079 22 6.625 21.6642 6.625 21.25V20.0179H6.05354C4.90953 20.0179 3.98212 19.0905 3.98212 17.9465V17.375H2.75C2.33579 17.375 2 17.0392 2 16.625C2 16.2108 2.33579 15.875 2.75 15.875H3.98212V12.75H2.75C2.33579 12.75 2 12.4142 2 12C2 11.5858 2.33579 11.25 2.75 11.25H3.98212V8.125H2.75C2.33579 8.125 2 7.78921 2 7.375C2 6.96079 2.33579 6.625 2.75 6.625H3.98212V6.05361C3.98212 4.90959 4.90953 3.98218 6.05354 3.98218H6.625V2.75C6.625 2.33579 6.96079 2 7.375 2C7.78921 2 8.125 2.33579 8.125 2.75V3.98218H11.25V2.75C11.25 2.33579 11.5858 2 12 2ZM5.48212 7.38134L5.48214 7.375L5.48212 7.36866V6.05361C5.48212 5.73801 5.73795 5.48218 6.05354 5.48218H17.9464C18.262 5.48218 18.5178 5.73801 18.5178 6.05361V17.9465C18.5178 18.2621 18.262 18.5179 17.9464 18.5179H16.6353L16.625 18.5178L16.6147 18.5179H12.0103L12 18.5178L11.9897 18.5179H7.38525L7.375 18.5178L7.36475 18.5179H6.05354C5.73795 18.5179 5.48212 18.2621 5.48212 17.9465V16.6313L5.48214 16.625L5.48212 16.6187V12.0063L5.48214 12L5.48212 11.9937V7.38134Z" fill="#1B1A16"/>
</svg>
