<svg width="24" height="24" viewBox="0 0 24 24" fill="none" xmlns="http://www.w3.org/2000/svg">
<path fill-rule="evenodd" clip-rule="evenodd" d="M15.9809 3.54333C16.0497 3.51473 16.1235 3.5 16.198 3.5C16.2725 3.5 16.3463 3.51473 16.4151 3.54333C16.4839 3.57194 16.5463 3.61386 16.5989 3.6667L16.6004 3.66817L20.3318 7.39965L20.3333 7.40111C20.3861 7.45365 20.4281 7.51611 20.4567 7.58491C20.4853 7.6537 20.5 7.72747 20.5 7.80198C20.5 7.87649 20.4853 7.95026 20.4567 8.01905C20.4281 8.08785 20.3861 8.15031 20.3333 8.20285L20.3318 8.20432L8.20432 20.3318L8.20285 20.3333C8.15031 20.3861 8.08785 20.4281 8.01905 20.4567C7.95026 20.4853 7.87649 20.5 7.80198 20.5C7.72747 20.5 7.6537 20.4853 7.58491 20.4567C7.51611 20.4281 7.45365 20.3861 7.40112 20.3333L7.39965 20.3318L3.66817 16.6004L3.6667 16.5989C3.61386 16.5463 3.57194 16.4839 3.54333 16.4151C3.51473 16.3463 3.5 16.2725 3.5 16.198C3.5 16.1235 3.51473 16.0497 3.54333 15.9809C3.57194 15.9122 3.61387 15.8497 3.6667 15.7972L3.66821 15.7956L4.07065 15.3931L4.47261 15.7954C4.76538 16.0885 5.24025 16.0887 5.53327 15.7959C5.8263 15.5032 5.8265 15.0283 5.53374 14.7353L5.13123 14.3324L5.93649 13.527L6.33896 13.9295C6.63186 14.2224 7.10673 14.2224 7.39962 13.9295C7.69252 13.6366 7.69252 13.1617 7.39962 12.8688L6.99707 12.4663L8.51191 10.9512L8.51353 10.9515C8.84798 11.0184 9.19379 11.0016 9.52019 10.9026C9.84658 10.8036 10.1434 10.6255 10.3844 10.384C10.6253 10.1426 10.8028 9.84534 10.9011 9.51873C10.9994 9.19216 11.0155 8.84635 10.9479 8.51207L12.4652 6.99603L12.8688 7.39968C13.1617 7.69258 13.6366 7.69258 13.9295 7.39968C14.2224 7.10679 14.2224 6.63192 13.9295 6.33903L13.5262 5.93579L14.3319 5.13079L14.7352 5.53374C15.0282 5.8265 15.5031 5.8263 15.7959 5.53327C16.0886 5.24025 16.0884 4.76538 15.7954 4.47261L15.393 4.07055L15.7955 3.66838L15.7972 3.6667C15.8497 3.61387 15.9122 3.57194 15.9809 3.54333ZM5.42187 11.9202L7.73815 9.60356C7.91721 9.42447 8.17455 9.34784 8.42241 9.39981L8.81049 9.48116C8.90168 9.49895 8.99585 9.49416 9.08479 9.46718C9.17461 9.43994 9.2563 9.39092 9.32259 9.32448C9.38889 9.25804 9.43774 9.17625 9.46479 9.08638C9.49164 8.99716 9.4962 8.90273 9.47806 8.81137L9.39652 8.42241C9.34454 8.17447 9.42124 7.91704 9.60044 7.73798L14.7336 2.60898L14.7344 2.60808C14.9262 2.41551 15.1541 2.26266 15.405 2.15831C15.6563 2.0538 15.9258 2 16.198 2C16.4702 2 16.7397 2.0538 16.991 2.15831C17.242 2.26267 17.4699 2.41553 17.6616 2.60813L17.6625 2.60898L21.391 6.33752L21.3918 6.33828C21.5844 6.53005 21.7373 6.75797 21.8417 7.00897C21.9462 7.26029 22 7.5298 22 7.80198C22 8.07417 21.9462 8.34367 21.8417 8.595C21.7373 8.84599 21.5844 9.07391 21.3918 9.26568L21.391 9.26644L9.26644 21.391L9.26568 21.3918C9.07391 21.5844 8.84599 21.7373 8.595 21.8417C8.34367 21.9462 8.07417 22 7.80198 22C7.5298 22 7.26029 21.9462 7.00897 21.8417C6.75797 21.7373 6.53005 21.5844 6.33828 21.3918L6.33752 21.391L2.60898 17.6625L2.60813 17.6616C2.41553 17.4699 2.26267 17.242 2.15831 16.991C2.0538 16.7397 2 16.4702 2 16.198C2 15.9258 2.0538 15.6563 2.15831 15.405C2.26268 15.154 2.41557 14.9261 2.60822 14.7343L2.60898 14.7336L5.39029 11.9518C5.39539 11.9464 5.40059 11.941 5.40589 11.9357C5.41116 11.9305 5.41648 11.9253 5.42187 11.9202ZM9.26475 14.7348C8.97173 14.4421 8.49685 14.4423 8.20409 14.7353C7.91133 15.0283 7.91153 15.5032 8.20456 15.7959L8.60695 16.198L7.80228 17.003L7.39965 16.6004C7.10676 16.3075 6.63189 16.3075 6.33899 16.6004C6.0461 16.8933 6.0461 17.3681 6.33899 17.661L7.27207 18.5941C7.41274 18.7348 7.60354 18.8138 7.80248 18.8138C8.00142 18.8138 8.1922 18.7347 8.33285 18.594L10.1982 16.7278C10.3388 16.5871 10.4178 16.3963 10.4177 16.1974C10.4177 15.9984 10.3386 15.8077 10.1978 15.6671L9.26475 14.7348ZM16.6003 6.33893C16.8932 6.04604 17.3681 6.04604 17.661 6.33893L18.5941 7.27201C18.7347 7.41268 18.8137 7.60348 18.8137 7.80242C18.8137 8.00136 18.7346 8.19214 18.5939 8.33279L16.7278 10.1981C16.5871 10.3388 16.3963 10.4177 16.1973 10.4177C15.9984 10.4176 15.8076 10.3385 15.667 10.1978L14.7348 9.26469C14.442 8.97167 14.4422 8.49679 14.7352 8.20403C15.0282 7.91126 15.5031 7.91147 15.7959 8.2045L16.1979 8.60689L17.0029 7.80222L16.6003 7.39959C16.3074 7.1067 16.3074 6.63183 16.6003 6.33893ZM13.9295 10.0705C13.6366 9.77761 13.1617 9.77761 12.8688 10.0705C12.576 10.3634 12.576 10.8383 12.8688 11.1312L13.2716 11.5339L11.5338 13.2717L11.1311 12.8689C10.8382 12.576 10.3633 12.576 10.0704 12.8689C9.77755 13.1618 9.77755 13.6367 10.0704 13.9296L11.0035 14.8626C11.1442 15.0033 11.3349 15.0823 11.5338 15.0823C11.7328 15.0823 11.9235 15.0033 12.0642 14.8626L14.8626 12.0642C15.0032 11.9236 15.0822 11.7328 15.0822 11.5339C15.0822 11.335 15.0032 11.1442 14.8626 11.0036L13.9295 10.0705Z" fill="#1B1A16"/>
</svg>
