<svg width="24" height="24" viewBox="0 0 24 24" fill="none" xmlns="http://www.w3.org/2000/svg">
<path fill-rule="evenodd" clip-rule="evenodd" d="M6.45224 4.78658C6.59259 4.58608 6.82193 4.46667 7.06667 4.46667H16.9333C17.1781 4.46667 17.4074 4.58608 17.5478 4.78658L21.8644 10.9532C21.9527 11.0793 22 11.2294 22 11.3833V16.3166C22 16.8425 21.7911 17.3471 21.4191 17.7191C21.2308 17.9074 21.0085 18.0539 20.7667 18.1527V18.7833C20.7667 19.1975 20.4309 19.5333 20.0167 19.5333C19.6025 19.5333 19.2667 19.1975 19.2667 18.7833V18.2999H4.73333V18.7833C4.73333 19.1975 4.39755 19.5333 3.98333 19.5333C3.56912 19.5333 3.23333 19.1975 3.23333 18.7833L3.23333 18.1527C2.9915 18.0539 2.76922 17.9074 2.58091 17.7191C2.20894 17.3471 2 16.8426 2 16.3166V11.3833C2 11.2294 2.04733 11.0793 2.13558 10.9532L6.45224 4.78658ZM7.45716 5.96667L4.1905 10.6333H19.8095L16.5428 5.96667H7.45716ZM20.5 12.1333H3.5V16.3166C3.5 16.4448 3.55094 16.5678 3.64156 16.6584C3.73216 16.749 3.8551 16.7999 3.98333 16.7999H20.0167C20.1449 16.7999 20.2679 16.749 20.3585 16.6584C20.4491 16.5678 20.5 16.4449 20.5 16.3166V12.1333ZM13.4083 14.4666C13.4083 13.8821 13.8822 13.4083 14.4667 13.4083C15.0512 13.4083 15.525 13.8821 15.525 14.4666C15.525 15.0511 15.0512 15.5249 14.4667 15.5249C13.8822 15.5249 13.4083 15.0511 13.4083 14.4666ZM17.1083 14.4666C17.1083 13.8821 17.5822 13.4083 18.1667 13.4083C18.7512 13.4083 19.225 13.8822 19.225 14.4666C19.225 15.0511 18.7512 15.5249 18.1667 15.5249C17.5822 15.5249 17.1083 15.0511 17.1083 14.4666ZM4.46667 14.4666C4.46667 14.0524 4.80245 13.7166 5.21667 13.7166H7.68333C8.09755 13.7166 8.43333 14.0524 8.43333 14.4666C8.43333 14.8808 8.09755 15.2166 7.68333 15.2166H5.21667C4.80245 15.2166 4.46667 14.8808 4.46667 14.4666Z" fill="#1B1A16"/>
</svg>
