<svg width="24" height="24" viewBox="0 0 24 24" fill="none" xmlns="http://www.w3.org/2000/svg">
<path fill-rule="evenodd" clip-rule="evenodd" d="M8.16659 2.75C8.16659 2.33579 8.50238 2 8.91659 2H15.0832C15.2822 2 15.4729 2.07902 15.6136 2.21967C15.7542 2.36032 15.8332 2.55109 15.8332 2.75V7.08061C16.0751 7.1794 16.2974 7.32593 16.4857 7.51424C16.8576 7.88618 17.0666 8.39065 17.0666 8.91667V16.9333C17.0666 18.2771 16.5328 19.5658 15.5826 20.516C14.6324 21.4662 13.3437 22 11.9999 22C10.6562 22 9.36743 21.4662 8.41725 20.516C7.46706 19.5658 6.93326 18.2771 6.93326 16.9333V8.91667C6.93326 8.39065 7.14221 7.88619 7.51416 7.51424C7.70247 7.32593 7.92475 7.1794 8.16659 7.08061L8.16659 2.75ZM9.66659 6.93333H14.3332L14.3332 3.5H9.66659V6.93333ZM10.6332 5.21667C10.6332 4.80245 10.969 4.46667 11.3833 4.46667H12.6166C13.0308 4.46667 13.3666 4.80245 13.3666 5.21667C13.3666 5.63088 13.0308 5.96667 12.6166 5.96667H11.3833C10.969 5.96667 10.6332 5.63088 10.6332 5.21667ZM8.91659 8.43333C8.7884 8.43333 8.66546 8.48426 8.57482 8.5749C8.48418 8.66554 8.43326 8.78848 8.43326 8.91667V16.9333C8.43326 17.8793 8.80903 18.7865 9.47791 19.4553C10.1468 20.1242 11.054 20.5 11.9999 20.5C12.9459 20.5 13.853 20.1242 14.5219 19.4553C15.1908 18.7865 15.5666 17.8793 15.5666 16.9333V8.91667C15.5666 8.78848 15.5156 8.66554 15.425 8.5749C15.3344 8.48425 15.2114 8.43333 15.0832 8.43333H8.91659Z" fill="#1B1A16"/>
</svg>
