<svg width="24" height="24" viewBox="0 0 24 24" fill="none" xmlns="http://www.w3.org/2000/svg">
<path fill-rule="evenodd" clip-rule="evenodd" d="M7.78864 2.61658L18.21 3.31266C18.7783 3.7632 19.1777 4.39257 19.3433 5.09866L21.8713 15.8707C21.9561 16.2156 22 16.5721 22 16.9331C22 18.1134 21.5312 19.2453 20.6966 20.0798C19.8621 20.9143 18.7302 21.3831 17.55 21.3831H6.45C5.26979 21.3831 4.13791 20.9143 3.30338 20.0798C2.46884 19.2453 2 18.1134 2 16.9331C2 16.573 2.04365 16.2174 2.12802 15.8734L4.65667 5.09877C4.82234 4.39251 5.22189 3.76287 5.79042 3.3123C6.35896 2.86171 7.06319 2.61653 7.78864 2.61658ZM7.78864 2.61658H16.2122C16.9374 2.61676 17.6417 2.86206 18.21 3.31266L7.78864 2.61658ZM20.422 16.2602L20.4131 16.2223C20.2849 15.7061 20.0184 15.2295 19.636 14.8472C19.0828 14.294 18.3324 13.9832 17.55 13.9832H6.45C5.66761 13.9832 4.91726 14.294 4.36403 14.8472C3.98112 15.2301 3.71434 15.7074 3.58637 16.2245L3.578 16.2602L3.57418 16.2757C3.52526 16.4897 3.5 16.7101 3.5 16.9331C3.5 17.7156 3.81081 18.4659 4.36403 19.0191C4.91726 19.5723 5.66761 19.8831 6.45 19.8831H17.55C18.3324 19.8831 19.0828 19.5723 19.636 19.0191C20.1892 18.4659 20.5 17.7156 20.5 16.9331C20.5 16.7105 20.4748 16.4904 20.426 16.2767L20.422 16.2602ZM17.8829 5.44138L19.6605 13.0154C19.0177 12.6692 18.2934 12.4832 17.55 12.4832H6.45C5.70657 12.4832 4.98232 12.6692 4.33949 13.0155L6.11702 5.44138C6.20543 5.06444 6.41868 4.72834 6.7221 4.48787C7.02553 4.24739 7.40135 4.11654 7.78851 4.11658H16.212C16.599 4.11672 16.9749 4.24763 17.278 4.48802C17.5814 4.72848 17.7946 5.06459 17.8829 5.44138ZM14.5051 15.8756C15.0718 15.8958 15.525 16.3616 15.525 16.9332C15.525 17.5177 15.0512 17.9915 14.4667 17.9915C14.1595 17.9915 13.8797 17.8585 13.6902 17.6295C13.5124 17.4148 13.4467 17.1584 13.4467 16.9332C13.4467 16.3616 13.9 15.8958 14.4667 15.8756C14.4731 15.8756 14.4795 15.8749 14.4859 15.875C14.4923 15.8749 14.4986 15.8756 14.5051 15.8756ZM5.70001 16.9331C5.70001 16.5189 6.0358 16.1831 6.45001 16.1831H9.53335C9.94756 16.1831 10.2833 16.5189 10.2833 16.9331C10.2833 17.3473 9.94756 17.6831 9.53335 17.6831H6.45001C6.0358 17.6831 5.70001 17.3473 5.70001 16.9331Z" fill="#1B1A16"/>
<path fill-rule="evenodd" clip-rule="evenodd" d="M17.2684 15.8754C17.8351 15.8956 18.2883 16.3614 18.2883 16.9331C18.2883 17.5175 17.8145 17.9914 17.23 17.9914C16.9228 17.9914 16.643 17.8584 16.4535 17.6294C16.2757 17.4147 16.21 17.1583 16.21 16.9331C16.21 16.3614 16.6633 15.8956 17.23 15.8754C17.2364 15.8754 17.2428 15.8748 17.2492 15.8749C17.2555 15.8748 17.2619 15.8754 17.2684 15.8754Z" fill="#1B1A16"/>
</svg>
