<svg width="24" height="24" viewBox="0 0 24 24" fill="none" xmlns="http://www.w3.org/2000/svg">
<path fill-rule="evenodd" clip-rule="evenodd" d="M5.83331 3.5C5.70512 3.5 5.58218 3.55092 5.49154 3.64157C5.4009 3.73221 5.34998 3.85515 5.34998 3.98333V8.16667H5.83331C6.24752 8.16667 6.58331 8.50245 6.58331 8.91667V11.3833C6.58331 11.7975 6.24752 12.1333 5.83331 12.1333H5.34998V20.0167C5.34998 20.1449 5.4009 20.2678 5.49154 20.3584C5.58218 20.4491 5.70512 20.5 5.83331 20.5H18.1666C18.2946 20.5 18.4173 20.4493 18.5078 20.359C18.5982 20.2689 18.6493 20.1468 18.65 20.0192V7.52303C18.65 7.52302 18.65 7.52303 18.65 7.52303C18.65 7.41661 18.6148 7.3134 18.5505 7.22928L14.9304 3.7193C14.9138 3.70322 14.898 3.68638 14.883 3.66884C14.8376 3.61589 14.7813 3.57338 14.7179 3.54424C14.6546 3.5151 14.5857 3.50001 14.516 3.5C14.516 3.5 14.516 3.5 14.516 3.5H5.83331ZM5.08331 10.6333V9.66667H4.59998C4.18576 9.66667 3.84998 9.33088 3.84998 8.91667V3.98333C3.84998 3.45732 4.05893 2.95285 4.43088 2.5809C4.80283 2.20896 5.3073 2 5.83331 2H14.516C14.8021 2.00001 15.0849 2.06194 15.3449 2.18153C15.5931 2.29572 15.8149 2.45991 15.9965 2.66366L19.6252 6.18206C19.6418 6.19813 19.6576 6.21496 19.6727 6.23248C19.9807 6.59191 20.15 7.04963 20.15 7.52297V20.0208L20.15 20.0233C20.1482 20.5481 19.9385 21.0509 19.5667 21.4214C19.195 21.792 18.6915 22 18.1666 22H5.83331C5.3073 22 4.80283 21.791 4.43088 21.4191C4.05893 21.0471 3.84998 20.5427 3.84998 20.0167V11.3833C3.84998 10.9691 4.18576 10.6333 4.59998 10.6333H5.08331ZM9.53327 4.46667C9.94748 4.46667 10.2833 4.80245 10.2833 5.21667V7.68333C10.2833 8.09755 9.94748 8.43333 9.53327 8.43333C9.11906 8.43333 8.78327 8.09755 8.78327 7.68333V5.21667C8.78327 4.80245 9.11906 4.46667 9.53327 4.46667ZM13.2333 4.46667C13.6475 4.46667 13.9833 4.80245 13.9833 5.21667V7.68333C13.9833 8.09755 13.6475 8.43333 13.2333 8.43333C12.8191 8.43333 12.4833 8.09755 12.4833 7.68333V5.21667C12.4833 4.80245 12.8191 4.46667 13.2333 4.46667ZM11.4696 15.7863C11.7625 15.4934 12.2374 15.4934 12.5303 15.7863L14.3803 17.6363C14.6732 17.9292 14.6732 18.4041 14.3803 18.697C14.0874 18.9899 13.6125 18.9899 13.3196 18.697L11.9999 17.3773L10.6803 18.697C10.3874 18.9899 9.9125 18.9899 9.61961 18.697C9.32671 18.4041 9.32671 17.9292 9.61961 17.6363L11.4696 15.7863Z" fill="#1B1A16"/>
</svg>
