<svg width="24" height="24" viewBox="0 0 24 24" fill="none" xmlns="http://www.w3.org/2000/svg">
<path fill-rule="evenodd" clip-rule="evenodd" d="M17.2508 2C14.6796 2 12.5952 4.08436 12.5952 6.65556C12.5952 9.22675 14.6796 11.3111 17.2508 11.3111C19.822 11.3111 21.9063 9.22675 21.9063 6.65556C21.9063 4.08436 19.822 2 17.2508 2ZM14.0952 6.65556C14.0952 4.91279 15.508 3.5 17.2508 3.5C18.9935 3.5 20.4063 4.91279 20.4063 6.65556C20.4063 8.39832 18.9935 9.81111 17.2508 9.81111C15.508 9.81111 14.0952 8.39832 14.0952 6.65556Z" fill="#1B1A16"/>
<path fill-rule="evenodd" clip-rule="evenodd" d="M17.8543 14.7444H10.6837C11.3812 13.966 11.7771 12.9596 11.793 11.9086C11.796 11.7077 11.7183 11.514 11.5774 11.3709C11.4364 11.2278 11.2439 11.1472 11.043 11.1472H9.59285C9.82152 10.5738 10.1196 10.0293 10.4812 9.5263C10.7229 9.18996 10.6463 8.72132 10.3099 8.47956C9.97357 8.2378 9.50493 8.31447 9.26317 8.65081C8.71497 9.41348 8.28865 10.2557 7.99864 11.1472H6.95006C6.79866 9.17453 6.27439 7.24707 5.40371 5.46755C5.22167 5.09548 4.77247 4.94144 4.40041 5.12348C4.02834 5.30553 3.8743 5.75472 4.05634 6.12679C4.82667 7.70119 5.29708 9.40367 5.44518 11.1472H3.84778C3.6469 11.1472 3.45442 11.2278 3.31345 11.3709C3.17249 11.514 3.09483 11.7077 3.09786 11.9086C3.11375 12.9596 3.50966 13.966 4.20712 14.7444H3.06738C2.65317 14.7444 2.31738 15.0802 2.31738 15.4944C2.31738 15.9086 2.65317 16.2444 3.06738 16.2444H5.36203L4.58166 18.9757C4.57659 18.9914 4.57203 19.0074 4.56799 19.0235L3.99072 21.044C3.87693 21.4422 4.10755 21.8574 4.50582 21.9712C4.9041 22.0849 5.31921 21.8543 5.43301 21.4561L5.86161 19.9559H18.3621L18.7907 21.4561C18.9045 21.8543 19.3196 22.0849 19.7179 21.9712C20.1161 21.8574 20.3468 21.4422 20.233 21.044L18.8617 16.2444H21.1563C21.5705 16.2444 21.9063 15.9086 21.9063 15.4944C21.9063 15.0802 21.5705 14.7444 21.1563 14.7444H17.8812C17.8723 14.7442 17.8633 14.7442 17.8543 14.7444ZM17.9335 18.4559H6.29018L6.92205 16.2444H17.3016L17.9335 18.4559ZM4.71332 12.6472C4.84874 13.1071 5.09933 13.5296 5.44682 13.8719C5.97964 14.3967 6.69752 14.6909 7.44541 14.6909C8.19331 14.6909 8.91119 14.3967 9.44401 13.8719C9.7915 13.5296 10.0421 13.1071 10.1775 12.6472H4.71332Z" fill="#1B1A16"/>
<path d="M2.27761 6.49248C2.54929 6.1798 3.023 6.14656 3.33567 6.41824C3.43986 6.50877 3.56591 6.57048 3.70132 6.59726C4.10766 6.67762 4.37192 7.07218 4.29156 7.47852C4.21119 7.88486 3.81664 8.14912 3.4103 8.06876C3.01834 7.99124 2.65346 7.81259 2.35185 7.55054C2.03918 7.27886 2.00594 6.80515 2.27761 6.49248Z" fill="#1B1A16"/>
<path d="M3.9684 8.86309C3.61415 8.64842 3.15295 8.76156 2.93828 9.11581C2.72361 9.47005 2.83676 9.93125 3.191 10.1459C3.42892 10.2901 3.68181 10.408 3.94521 10.4975C4.3374 10.6307 4.76336 10.4208 4.89663 10.0286C5.02989 9.63645 4.81998 9.21049 4.42779 9.07722C4.26735 9.02271 4.11331 8.95091 3.9684 8.86309Z" fill="#1B1A16"/>
<path d="M7.33768 4.67094C7.7331 4.79429 7.95367 5.21483 7.83032 5.61025L7.63463 6.23761C7.51129 6.63303 7.09075 6.85359 6.69532 6.73025C6.2999 6.60691 6.07934 6.18637 6.20268 5.79094L6.39837 5.16359C6.52171 4.76816 6.94226 4.5476 7.33768 4.67094Z" fill="#1B1A16"/>
<path d="M8.38715 8.43837C8.58117 8.07241 8.44179 7.61846 8.07583 7.42443C7.70987 7.23041 7.25591 7.36979 7.06188 7.73575C6.99153 7.86846 6.90742 7.9934 6.81094 8.10852C6.54488 8.42598 6.58655 8.89902 6.90401 9.16509C7.22148 9.43115 7.69452 9.38948 7.96058 9.07201C8.12458 8.87633 8.26755 8.66395 8.38715 8.43837Z" fill="#1B1A16"/>
<path d="M2.58289 3.11499C2.88446 2.83103 3.35912 2.8453 3.64307 3.14686L4.1471 3.68213C4.43106 3.98369 4.41679 4.45835 4.11522 4.74231C3.81366 5.02627 3.339 5.012 3.05504 4.71043L2.55102 4.17517C2.26706 3.8736 2.28133 3.39895 2.58289 3.11499Z" fill="#1B1A16"/>
<path d="M9.5553 5.97132C9.96451 5.90715 10.3483 6.18686 10.4124 6.59607C10.4478 6.82153 10.4567 7.05034 10.439 7.27787C10.4068 7.69083 10.0459 7.9995 9.63294 7.96731C9.21998 7.93511 8.9113 7.57425 8.9435 7.16129C8.95216 7.05022 8.94781 6.93852 8.93055 6.82846C8.86638 6.41925 9.14608 6.0355 9.5553 5.97132Z" fill="#1B1A16"/>
<path fill-rule="evenodd" clip-rule="evenodd" d="M12.1356 10.528C12.5255 10.3881 12.7282 9.95868 12.5884 9.56879C12.4486 9.17889 12.0191 8.97618 11.6292 9.11601L11.3296 9.22349C11.1966 9.24727 11.0684 9.30726 10.9606 9.40429C10.6527 9.68138 10.6277 10.1556 10.9048 10.4635C11.102 10.6826 11.3563 10.725 11.519 10.7158C11.6166 10.7103 11.7011 10.6872 11.7701 10.659L12.1356 10.528Z" fill="#1B1A16"/>
</svg>
