<svg width="24" height="24" viewBox="0 0 24 24" fill="none" xmlns="http://www.w3.org/2000/svg">
<path d="M19.2968 9.49995C19.2968 10.1057 18.8057 10.5968 18.1999 10.5968C17.5941 10.5968 17.103 10.1057 17.103 9.49995C17.103 8.89416 17.5941 8.40308 18.1999 8.40308C18.8057 8.40308 19.2968 8.89416 19.2968 9.49995Z" fill="#1B1A16"/>
<path d="M18.1968 14.3937C18.8026 14.3937 19.2937 13.9026 19.2937 13.2968C19.2937 12.691 18.8026 12.2 18.1968 12.2C17.5911 12.2 17.1 12.691 17.1 13.2968C17.1 13.9026 17.5911 14.3937 18.1968 14.3937Z" fill="#1B1A16"/>
<path fill-rule="evenodd" clip-rule="evenodd" d="M2 5.39998C2 4.54393 2.69396 3.84998 3.55 3.84998H20.45C21.306 3.84998 22 4.54393 22 5.39997V16.15C22 17.006 21.306 17.7 20.45 17.7H19.5462V19.3975C19.5462 19.8117 19.2104 20.1475 18.7962 20.1475C18.382 20.1475 18.0462 19.8117 18.0462 19.3975V17.7H5.97303V19.4048C5.97303 19.819 5.63724 20.1548 5.22303 20.1548C4.80882 20.1548 4.47303 19.819 4.47303 19.4048V17.7H3.55C2.69396 17.7 2 17.006 2 16.15V5.39998ZM3.55 5.34998C3.52239 5.34998 3.5 5.37236 3.5 5.39998V16.15C3.5 16.1776 3.52238 16.2 3.55 16.2H14.3362V5.34998H3.55ZM15.8362 5.34998V16.2H20.45C20.4776 16.2 20.5 16.1776 20.5 16.15V5.39997C20.5 5.37236 20.4776 5.34998 20.45 5.34998H15.8362Z" fill="#1B1A16"/>
</svg>
