<svg width="24" height="24" viewBox="0 0 24 24" fill="none" xmlns="http://www.w3.org/2000/svg">
<path d="M13.3666 8.91675C13.3666 8.50253 13.0309 8.16675 12.6166 8.16675C12.2024 8.16675 11.8666 8.50253 11.8666 8.91675V12.6168C11.8666 13.031 12.2024 13.3668 12.6166 13.3668C13.0309 13.3668 13.3666 13.031 13.3666 12.6168V8.91675Z" fill="#1B1A16"/>
<path fill-rule="evenodd" clip-rule="evenodd" d="M4.46667 7.35616C4.46667 6.44153 5.20813 5.70007 6.12276 5.70007H14.1773C15.0919 5.70007 15.8333 6.44152 15.8333 7.35616V14.1773C15.8333 15.092 15.0919 15.8334 14.1773 15.8334H6.12276C5.20812 15.8334 4.46667 15.0919 4.46667 14.1773V7.35616ZM6.12276 7.20007C6.03656 7.20007 5.96667 7.26995 5.96667 7.35616V14.1773C5.96667 14.2635 6.03657 14.3334 6.12276 14.3334H14.1773C14.2634 14.3334 14.3333 14.2635 14.3333 14.1773V7.35616C14.3333 7.26996 14.2634 7.20007 14.1773 7.20007H6.12276Z" fill="#1B1A16"/>
<path fill-rule="evenodd" clip-rule="evenodd" d="M2 4.80562C2 3.93731 2.70391 3.2334 3.57222 3.2334H20.4278C21.2961 3.2334 22 3.93732 22 4.80562V16.7279C22 17.5962 21.2961 18.3001 20.4278 18.3001H19.5333V20.0167C19.5333 20.4309 19.1975 20.7667 18.7833 20.7667C18.3691 20.7667 18.0333 20.4309 18.0333 20.0167V18.3001H5.96667V20.0167C5.96667 20.4309 5.63089 20.7667 5.21667 20.7667C4.80246 20.7667 4.46667 20.4309 4.46667 20.0167V18.3001H3.57222C2.70392 18.3001 2 17.5962 2 16.7279V4.80562ZM18.7919 16.8001L18.7833 16.8L18.7748 16.8001H5.22522L5.21667 16.8L5.20813 16.8001H3.57222C3.53233 16.8001 3.5 16.7678 3.5 16.7279V4.80562C3.5 4.76574 3.53234 4.7334 3.57222 4.7334H20.4278C20.4677 4.7334 20.5 4.76573 20.5 4.80562V16.7279C20.5 16.7678 20.4677 16.8001 20.4278 16.8001H18.7919Z" fill="#1B1A16"/>
<path d="M19.23 10.15C19.23 10.7354 18.7554 11.21 18.17 11.21C17.5846 11.21 17.11 10.7354 17.11 10.15C17.11 9.56454 17.5846 9.08997 18.17 9.08997C18.7554 9.08997 19.23 9.56454 19.23 10.15Z" fill="#1B1A16"/>
<path d="M19.23 13.85C19.23 14.4355 18.7554 14.91 18.17 14.91C17.5846 14.91 17.11 14.4355 17.11 13.85C17.11 13.2646 17.5846 12.79 18.17 12.79C18.7554 12.79 19.23 13.2646 19.23 13.85Z" fill="#1B1A16"/>
</svg>
