<svg width="24" height="24" viewBox="0 0 24 24" fill="none" xmlns="http://www.w3.org/2000/svg">
<path fill-rule="evenodd" clip-rule="evenodd" d="M16.1333 2.00585C16.1113 2.00746 16.0322 2.01267 15.9574 2.01743C15.1592 2.06828 14.3158 2.32358 13.5947 2.7326C13.1883 2.96313 12.8424 3.22044 12.4874 3.5563C12.3511 3.68516 12.3054 3.74177 12.2627 3.83421C12.1838 4.00482 12.1946 4.24534 12.288 4.39865C12.3728 4.53786 12.4971 4.63998 12.638 4.68606C12.7308 4.71644 12.8905 4.72166 12.9868 4.69747C13.1156 4.66511 13.1864 4.61977 13.346 4.46759C14.0891 3.75859 15.0172 3.34556 16.0494 3.26443C16.1898 3.25338 16.5506 3.25356 16.6932 3.26475C17.0577 3.29336 17.3839 3.3583 17.725 3.47016C18.3629 3.67941 18.9139 4.00988 19.3966 4.47285C19.5101 4.58168 19.5564 4.61776 19.627 4.65244C19.7246 4.70038 19.8014 4.71521 19.9281 4.71062C20.0149 4.70748 20.0488 4.70267 20.0987 4.68644C20.2882 4.62468 20.4431 4.46405 20.5055 4.2645C20.5324 4.1783 20.5326 4.00967 20.5059 3.91678C20.4691 3.7891 20.4125 3.70969 20.2464 3.55259C19.6229 2.96287 18.9219 2.54513 18.1089 2.27882C17.678 2.13767 17.2646 2.05519 16.7972 2.01713C16.6927 2.00862 16.2081 2.00039 16.1333 2.00585ZM16.2173 4.50525C15.6337 4.53244 15.0487 4.73246 14.5737 5.06722C14.3684 5.21185 14.1512 5.40634 14.0825 5.50702C13.9695 5.67275 13.9449 5.90855 14.0212 6.09626C14.0849 6.25315 14.2424 6.3992 14.4075 6.45465C14.4645 6.47377 14.4809 6.47556 14.6017 6.4757C14.7257 6.47585 14.7375 6.47452 14.7976 6.45358C14.8924 6.42055 14.9569 6.3786 15.067 6.27833C15.2378 6.12268 15.3442 6.04693 15.5127 5.96103C16.0481 5.6881 16.6617 5.68327 17.1971 5.9478C17.3817 6.03901 17.4941 6.11883 17.6992 6.30424C17.8361 6.42794 17.936 6.47111 18.1017 6.47815C18.2152 6.48297 18.2841 6.47298 18.3675 6.43961C18.4497 6.40676 18.5066 6.36748 18.5808 6.29241C18.7117 6.15997 18.7685 6.00996 18.758 5.82435C18.7465 5.62324 18.6801 5.50328 18.4801 5.32295C18.1438 5.01973 17.7915 4.81076 17.3771 4.66874C17.1147 4.57881 16.8173 4.51997 16.5686 4.50878C16.514 4.50633 16.4423 4.50313 16.4093 4.5017C16.3763 4.50027 16.2899 4.50186 16.2173 4.50525ZM16.264 7.00772C16.2038 7.01875 16.137 7.03998 16.0937 7.06185C15.9283 7.14536 15.8028 7.30093 15.7613 7.47399C15.7457 7.53912 15.7455 7.57979 15.7455 10.7052L15.7454 13.8705L10.5966 13.8705C7.22975 13.8705 5.38964 13.8733 5.27981 13.8787C4.92637 13.8957 4.62706 13.9532 4.30004 14.0669C3.59221 14.313 2.9826 14.7872 2.56836 15.4142C2.4696 15.5636 2.42998 15.6331 2.34503 15.8061C2.16835 16.1657 2.06734 16.5134 2.01508 16.9418C1.99518 17.105 1.99526 17.512 2.01523 17.6816C2.14339 18.77 2.73858 19.6991 3.66588 20.2583C3.98478 20.4506 4.36864 20.6014 4.72847 20.6757L4.79992 20.6905L4.80461 21.0776C4.80902 21.4415 4.81034 21.4686 4.8266 21.528C4.8598 21.6494 4.91207 21.7365 5.00519 21.8257C5.09513 21.9118 5.18179 21.9581 5.30287 21.9848C5.38792 22.0036 5.53556 21.9979 5.61574 21.9728C5.84072 21.9024 6.01412 21.7046 6.0512 21.476C6.056 21.4464 6.05954 21.282 6.05957 21.0869L6.05963 20.7489H11.9943H17.9289L17.929 21.0869C17.929 21.282 17.9326 21.4464 17.9374 21.476C17.9682 21.666 18.0881 21.831 18.2654 21.9274C18.3481 21.9723 18.4159 21.9898 18.5257 21.9945C18.7125 22.0026 18.8525 21.9509 18.9834 21.8257C19.0765 21.7365 19.1289 21.6492 19.1619 21.528C19.1781 21.4687 19.1794 21.4408 19.1839 21.0769L19.1886 20.689L19.2086 20.6865C19.2196 20.6851 19.295 20.6676 19.3762 20.6476C19.8651 20.5273 20.31 20.3079 20.7043 19.9927C21.3584 19.4697 21.8022 18.7164 21.9434 17.8896C21.9633 17.7731 21.984 17.5928 21.984 17.5361C21.984 17.5133 21.9876 17.4924 21.992 17.4897C21.997 17.4866 22 17.4148 22 17.3008C22 17.1996 21.9969 17.1187 21.9932 17.121C21.9894 17.1234 21.9839 17.0872 21.9809 17.0407C21.9603 16.7224 21.878 16.3679 21.7482 16.038C21.7114 15.9447 21.6004 15.7134 21.544 15.6127C21.486 15.5092 21.3506 15.3059 21.2758 15.2102C20.9964 14.8523 20.6498 14.5502 20.2644 14.3287C19.9372 14.1406 19.5307 13.9928 19.1606 13.9273C18.877 13.8771 18.7154 13.8705 17.767 13.8705L16.9933 13.8705L16.9912 10.6892L16.9891 7.50796L16.9707 7.44798C16.9082 7.24526 16.7332 7.07419 16.5332 7.02035C16.4773 7.00528 16.318 6.99781 16.264 7.00772ZM5.22782 15.1349C4.81245 15.1743 4.40403 15.339 4.0728 15.6006C3.97691 15.6763 3.80519 15.8469 3.72916 15.942C3.58665 16.1203 3.44234 16.3822 3.36934 16.595C3.13134 17.2889 3.2492 18.0381 3.68909 18.6275C3.82715 18.8124 4.07645 19.0414 4.27204 19.1628C4.54459 19.3321 4.8621 19.4436 5.17983 19.4817C5.25578 19.4908 5.63957 19.4928 7.38133 19.493L9.49085 19.4932V17.3097V15.1262L7.39333 15.1273C6.2397 15.1279 5.26522 15.1313 5.22782 15.1349ZM10.7466 17.3097V19.4932L14.7317 19.493C18.0674 19.4928 18.7317 19.4909 18.8087 19.4817C19.1326 19.4429 19.4536 19.3283 19.7365 19.1505C19.9159 19.0378 20.1681 18.8035 20.2995 18.6275C20.4727 18.3954 20.6003 18.1316 20.669 17.8635C20.7592 17.5115 20.7628 17.1412 20.6794 16.799C20.606 16.498 20.4509 16.1816 20.2594 15.942C20.1834 15.8469 20.0117 15.6763 19.9158 15.6006C19.5795 15.335 19.1766 15.174 18.7487 15.1344C18.6904 15.129 17.3291 15.1262 14.7037 15.1262L10.7466 15.1262V17.3097ZM13.7076 16.3863C13.5321 16.4184 13.3682 16.4991 13.2352 16.6188C13.1213 16.7214 13.0097 16.9025 12.9667 17.0546C12.8344 17.5223 13.0899 18.0251 13.5432 18.1891C13.667 18.2339 13.7575 18.2476 13.8978 18.243C13.9841 18.2401 14.0415 18.2339 14.0865 18.2226C14.5441 18.1077 14.8449 17.6873 14.8011 17.2237C14.7843 17.0453 14.7278 16.8963 14.6238 16.756C14.4718 16.5509 14.2551 16.4203 14.0043 16.3826C13.9283 16.3712 13.7803 16.373 13.7076 16.3863ZM17.4589 16.3859C17.0076 16.4677 16.6813 16.8554 16.6813 17.3097C16.6813 17.5513 16.7716 17.7785 16.9371 17.9529C17.2223 18.2534 17.6627 18.332 18.0351 18.1488C18.2756 18.0305 18.4633 17.7966 18.5292 17.5334C18.5532 17.4371 18.5592 17.2521 18.5415 17.1504C18.4734 16.7597 18.1662 16.4547 17.7713 16.3859C17.6887 16.3715 17.5385 16.3715 17.4589 16.3859ZM2 17.3097C2 17.4131 2.00114 17.4554 2.00254 17.4037C2.00393 17.352 2.00393 17.2674 2.00254 17.2157C2.00114 17.1641 2 17.2063 2 17.3097Z" fill="#1B1A16"/>
</svg>
