<svg width="24" height="24" viewBox="0 0 24 24" fill="none" xmlns="http://www.w3.org/2000/svg">
<path d="M8.917 8.434C9.331 8.434 9.667 8.098 9.667 7.684V5.217C9.667 4.803 9.331 4.467 8.917 4.467C8.503 4.467 8.167 4.803 8.167 5.217V7.684C8.167 8.098 8.502 8.434 8.917 8.434Z" fill="#1B1A16"/>
<path d="M5.833 9.667C6.247 9.667 6.583 9.331 6.583 8.917V3.983C6.583 3.569 6.247 3.233 5.833 3.233C5.419 3.233 5.083 3.569 5.083 3.983V8.917C5.083 9.331 5.419 9.667 5.833 9.667Z" fill="#1B1A16"/>
<path d="M2.75 10.9C3.164 10.9 3.5 10.564 3.5 10.15V2.75C3.5 2.336 3.164 2 2.75 2C2.336 2 2 2.336 2 2.75V10.15C2 10.564 2.336 10.9 2.75 10.9Z" fill="#1B1A16"/>
<path d="M15.084 8.434C15.498 8.434 15.834 8.098 15.834 7.684V5.217C15.834 4.803 15.498 4.467 15.084 4.467C14.67 4.467 14.334 4.803 14.334 5.217V7.684C14.334 8.098 14.67 8.434 15.084 8.434Z" fill="#1B1A16"/>
<path d="M18.166 9.667C18.58 9.667 18.916 9.331 18.916 8.917V3.983C18.916 3.569 18.58 3.233 18.166 3.233C17.752 3.233 17.416 3.569 17.416 3.983V8.917C17.416 9.331 17.752 9.667 18.166 9.667Z" fill="#1B1A16"/>
<path d="M21.25 2C20.836 2 20.5 2.336 20.5 2.75V10.15C20.5 10.564 20.836 10.9 21.25 10.9C21.664 10.9 22 10.564 22 10.15V2.75C22 2.336 21.664 2 21.25 2Z" fill="#1B1A16"/>
<path d="M18.475 13.717H12.75V6.45C12.75 6.036 12.414 5.7 12 5.7C11.586 5.7 11.25 6.036 11.25 6.45V13.717H5.525C4.598 13.717 3.69 14.093 3.033 14.749C2.367 15.415 2 16.301 2 17.242C2 18.17 2.376 19.078 3.032 19.734C3.517 20.219 4.12 20.541 4.775 20.681V21.249C4.775 21.663 5.111 21.999 5.525 21.999C5.939 21.999 6.275 21.663 6.275 21.249V20.766H17.725V21.249C17.725 21.663 18.061 21.999 18.475 21.999C18.889 21.999 19.225 21.663 19.225 21.249V20.681C19.88 20.54 20.483 20.219 20.969 19.734C21.624 19.077 22 18.169 22 17.242C22 16.301 21.634 15.416 20.968 14.748C20.301 14.083 19.416 13.717 18.475 13.717ZM3.5 17.242C3.5 16.701 3.711 16.192 4.093 15.809C4.47 15.432 4.992 15.216 5.525 15.216H9.4V19.266H5.525C4.992 19.266 4.47 19.05 4.093 18.673C3.716 18.297 3.5 17.775 3.5 17.242ZM19.907 18.674C19.524 19.056 19.016 19.267 18.474 19.267H10.9V15.217H18.475C19.008 15.217 19.531 15.433 19.907 15.81C20.285 16.187 20.501 16.709 20.501 17.243C20.5 17.774 20.284 18.297 19.907 18.674Z" fill="#1B1A16"/>
<path d="M17.55 18.299C18.1343 18.299 18.608 17.8253 18.608 17.241C18.608 16.6567 18.1343 16.183 17.55 16.183C16.9657 16.183 16.492 16.6567 16.492 17.241C16.492 17.8253 16.9657 18.299 17.55 18.299Z" fill="#1B1A16"/>
<path d="M13.85 18.299C14.4343 18.299 14.908 17.8253 14.908 17.241C14.908 16.6567 14.4343 16.183 13.85 16.183C13.2657 16.183 12.792 16.6567 12.792 17.241C12.792 17.8253 13.2657 18.299 13.85 18.299Z" fill="#1B1A16"/>
</svg>
