<svg width="24" height="24" viewBox="0 0 24 24" fill="none" xmlns="http://www.w3.org/2000/svg">
<path fill-rule="evenodd" clip-rule="evenodd" d="M16.3167 3.49969C15.7673 3.49969 15.2232 3.60792 14.7157 3.8182C14.208 4.02846 13.7469 4.33667 13.3583 4.72523C13.0655 5.01814 12.5906 5.01816 12.2977 4.72529C12.0048 4.43241 12.0047 3.95753 12.2976 3.66462C12.8254 3.13682 13.4519 2.7181 14.1416 2.43241C14.8311 2.14673 15.5703 1.99969 16.3167 1.99969C17.0631 1.99969 17.8022 2.14673 18.4918 2.43241C19.1815 2.7181 19.808 3.13682 20.3357 3.66462C20.6286 3.95753 20.6286 4.43241 20.3357 4.72529C20.0428 5.01816 19.5679 5.01814 19.275 4.72523C18.8865 4.33667 18.4253 4.02848 17.9177 3.81822C17.4102 3.60794 16.8661 3.49969 16.3167 3.49969ZM16.3167 5.9666C15.8615 5.9666 15.4249 6.14739 15.103 6.46923C14.81 6.76207 14.3352 6.76199 14.0423 6.46905C13.7495 6.17611 13.7496 5.70123 14.0425 5.40839C14.6457 4.80538 15.4637 4.4666 16.3167 4.4666C17.1696 4.4666 17.9876 4.80538 18.5909 5.40839C18.8838 5.70123 18.8839 6.17611 18.591 6.46905C18.2982 6.76199 17.8233 6.76207 17.5304 6.46923C17.2084 6.14739 16.7719 5.9666 16.3167 5.9666ZM16.3167 6.93358C16.7309 6.93358 17.0667 7.26937 17.0667 7.68358V13.7169H18.475C19.4099 13.7169 20.3065 14.0883 20.9676 14.7494C21.6286 15.4104 22 16.307 22 17.2419C22 18.1768 21.6286 19.0734 20.9676 19.7344C20.4863 20.2158 19.88 20.5436 19.225 20.6862V21.2503C19.225 21.6645 18.8892 22.0003 18.475 22.0003C18.0608 22.0003 17.725 21.6645 17.725 21.2503V20.7669H6.275V21.2503C6.275 21.6645 5.93921 22.0003 5.525 22.0003C5.11079 22.0003 4.775 21.6645 4.775 21.2503V20.6862C4.12003 20.5436 3.51381 20.2158 3.03246 19.7345C2.37144 19.0734 2 18.1768 2 17.2419C2 16.3071 2.37137 15.4104 3.03246 14.7494C3.69351 14.0883 4.5901 13.7169 5.525 13.7169H15.5667V7.68358C15.5667 7.26937 15.9025 6.93358 16.3167 6.93358ZM16.3146 15.2169H10.9V19.2669H18.475C19.012 19.2669 19.5271 19.0536 19.9069 18.6739C20.2867 18.294 20.5 17.779 20.5 17.2419C20.5 16.7049 20.2866 16.1898 19.9069 15.81C19.5272 15.4303 19.0121 15.2169 18.475 15.2169H16.3188L16.3167 15.2169L16.3146 15.2169ZM9.4 19.2669V15.2169H5.525C4.98794 15.2169 4.47287 15.4303 4.09309 15.81C3.71336 16.1898 3.5 16.7049 3.5 17.2419C3.5 17.779 3.71334 18.294 4.09313 18.6739C4.47291 19.0536 4.98797 19.2669 5.525 19.2669H9.4Z" fill="#1B1A16"/>
<path d="M12.7917 17.241C12.7917 16.6566 13.2655 16.1827 13.85 16.1827C14.4345 16.1827 14.9083 16.6566 14.9083 17.241C14.9083 17.8255 14.4345 18.2994 13.85 18.2994C13.2655 18.2994 12.7917 17.8255 12.7917 17.241Z" fill="#1B1A16"/>
<path d="M16.4916 17.241C16.4916 16.6566 16.9655 16.1827 17.55 16.1827C18.1345 16.1827 18.6083 16.6566 18.6083 17.241C18.6083 17.8255 18.1345 18.2994 17.55 18.2994C16.9655 18.2994 16.4916 17.8255 16.4916 17.241Z" fill="#1B1A16"/>
</svg>
