<svg width="24" height="24" viewBox="0 0 24 24" fill="none" xmlns="http://www.w3.org/2000/svg">
<path fill-rule="evenodd" clip-rule="evenodd" d="M4.18001 2.064C3.95272 2.12261 3.73193 2.20402 3.52101 2.307C3.21001 2.459 3.08301 2.551 2.81701 2.817C2.60123 3.01529 2.42717 3.25463 2.30501 3.521C1.97801 4.183 1.99701 3.756 2.00901 10.251L2.02001 16.02L2.11401 16.3C2.26401 16.752 2.46501 17.072 2.81601 17.424C3.12267 17.7428 3.50123 17.9835 3.92001 18.126C4.17801 18.217 4.19801 18.218 6.43001 18.231C8.41601 18.242 8.68001 18.251 8.68001 18.305C8.68001 18.363 8.38301 20.182 8.33601 20.41L8.31401 20.52H6.77601L6.59501 20.635C6.48207 20.706 6.39074 20.8065 6.33093 20.9257C6.27111 21.0449 6.2451 21.1783 6.25572 21.3112C6.26633 21.4442 6.31317 21.5717 6.39114 21.6799C6.46912 21.7881 6.57525 21.8729 6.69801 21.925C6.85201 21.995 7.09901 21.998 12 21.998C16.901 21.998 17.148 21.995 17.302 21.925C17.4248 21.8729 17.5309 21.7881 17.6089 21.6799C17.6868 21.5717 17.7337 21.4442 17.7443 21.3112C17.7549 21.1783 17.7289 21.0449 17.6691 20.9257C17.6093 20.8065 17.5179 20.706 17.405 20.635L17.224 20.52H15.686L15.664 20.41C15.5399 19.7099 15.4253 19.0082 15.32 18.305C15.32 18.251 15.584 18.242 17.57 18.231C19.802 18.218 19.822 18.217 20.08 18.126C20.4988 17.9835 20.8773 17.7428 21.184 17.424C21.535 17.072 21.736 16.752 21.886 16.3L21.98 16.02L21.991 12.51L22.003 9L21.722 9.182C21.475 9.341 21.131 9.515 20.63 9.733L20.48 9.799V13.52H3.52001V8.99L3.52101 4.46L3.62301 4.24C3.75801 3.948 3.92901 3.775 4.22001 3.635L4.46001 3.52H14.201L14.266 3.37C14.482 2.875 14.696 2.452 14.839 2.241L15.003 2L9.73101 2.003C5.30801 2.006 4.41501 2.016 4.18001 2.064ZM20.48 15.373C20.48 15.61 20.457 15.814 20.416 15.934C20.328 16.191 20.016 16.525 19.751 16.645L19.54 16.74H4.46001L4.24901 16.645C3.98401 16.525 3.67201 16.191 3.58401 15.934C3.53536 15.7511 3.51379 15.5621 3.52001 15.373V15H20.48V15.373ZM13.966 19.36C14.068 19.965 14.143 20.473 14.133 20.49C14.123 20.507 13.163 20.52 12 20.52C10.837 20.52 9.87701 20.507 9.86701 20.49C9.85001 20.462 10.181 18.398 10.22 18.29C10.234 18.25 10.613 18.241 12.009 18.25L13.78 18.26L13.966 19.36Z" fill="#1B1A16"/>
<path d="M15 5C15 2.79086 16.7909 1 19 1C21.2091 1 23 2.79086 23 5C23 7.20914 21.2091 9 19 9C16.7909 9 15 7.20914 15 5Z" fill="#D3273E"/>
</svg>
