<svg width="24" height="24" viewBox="0 0 24 24" fill="none" xmlns="http://www.w3.org/2000/svg">
<path fill-rule="evenodd" clip-rule="evenodd" d="M18.2583 2.02178C18.4999 1.96224 18.7554 2.02646 18.9402 2.1932C19.7791 2.95027 20.3721 3.94128 20.6425 5.03846C20.913 6.13564 20.8487 7.28869 20.4578 8.34895L19.1726 11.832L21.6908 19.3833C21.6909 19.3838 21.6911 19.3844 21.6913 19.3849C21.7914 19.6828 21.8193 20.0003 21.7726 20.3111C21.7259 20.6225 21.6057 20.9183 21.4219 21.174C21.2382 21.4297 20.9962 21.638 20.716 21.7816C20.4359 21.9252 20.1256 22.0001 19.8108 22C19.8107 22 19.8109 22 19.8108 22H15.3544C14.9402 22 14.6044 21.6642 14.6044 21.25C14.6044 20.8358 14.9402 20.5 15.3544 20.5H19.8108C19.8876 20.5 19.9635 20.4818 20.0317 20.4468C20.1 20.4118 20.159 20.361 20.2038 20.2987C20.2486 20.2364 20.2779 20.1643 20.2892 20.0884C20.3006 20.0125 20.2938 19.935 20.2693 19.8623L20.2685 19.8601L18.342 14.0829L18.061 14.8444C17.6701 15.9052 16.9702 16.8244 16.0516 17.4834C15.133 18.1424 14.038 18.511 12.9079 18.5415C12.6592 18.5482 12.4233 18.4311 12.2782 18.2288C12.1332 18.0266 12.0979 17.7656 12.1841 17.5321L17.7341 2.49038C17.8202 2.25688 18.0166 2.08133 18.2583 2.02178ZM17.7066 11.472C17.6801 11.5242 17.6597 11.5794 17.6459 11.6365L16.6537 14.3254C16.3664 15.1048 15.8521 15.7804 15.1772 16.2646C14.8275 16.5155 14.443 16.7091 14.0381 16.8405L18.6945 4.22071C18.9167 4.58335 19.0832 4.97997 19.1862 5.39751C19.3849 6.20366 19.3376 7.05085 19.0505 7.82989C19.0504 7.82995 19.0505 7.82982 19.0505 7.82989L17.7066 11.472ZM8.28981 18.2163C8.54822 18.0969 8.8318 18.0333 9.12194 18.0333C9.64796 18.0333 10.1524 18.2423 10.5244 18.6142C10.8963 18.9862 11.1053 19.4907 11.1053 20.0167C11.1053 20.5427 10.8963 21.0472 10.5244 21.4191C10.1524 21.791 9.64796 22 9.12194 22C8.59593 22 8.09146 21.791 7.71952 21.4191C7.41775 21.1173 7.22326 20.7283 7.16062 20.3114L3.24357 21.9424C2.86118 22.1016 2.42212 21.9207 2.2629 21.5383C2.10368 21.1559 2.28459 20.7168 2.66698 20.5576L8.28981 18.2163ZM8.90202 19.5863C8.91621 19.5804 8.93104 19.5737 8.94468 19.567C9.0006 19.545 9.06067 19.5333 9.12194 19.5333C9.25013 19.5333 9.37307 19.5843 9.46371 19.6749C9.55436 19.7655 9.60528 19.8885 9.60528 20.0167C9.60528 20.1449 9.55436 20.2678 9.46371 20.3584C9.37307 20.4491 9.25013 20.5 9.12194 20.5C8.99376 20.5 8.87082 20.4491 8.78017 20.3584C8.68953 20.2678 8.63861 20.1449 8.63861 20.0167C8.63861 19.8885 8.68953 19.7655 8.78017 19.6749C8.81624 19.6388 8.85743 19.6091 8.90202 19.5863Z" fill="#1B1A16"/>
</svg>
