<svg width="24" height="24" viewBox="0 0 24 24" fill="none" xmlns="http://www.w3.org/2000/svg">
<path fill-rule="evenodd" clip-rule="evenodd" d="M22 4C22 3.44772 21.5523 3 21 3H3C2.44772 3 2 3.44772 2 4V16C2 16.5523 2.44772 17 3 17H10.0986L8.59861 19.25H6C5.58579 19.25 5.25 19.5858 5.25 20C5.25 20.4142 5.58579 20.75 6 20.75H18C18.4142 20.75 18.75 20.4142 18.75 20C18.75 19.5858 18.4142 19.25 18 19.25H15.4014L13.9014 17H21C21.5523 17 22 16.5523 22 16V4ZM20.5 4.4V15.6H3.5V4.4H20.5ZM13.5986 19.25L12.5986 17.75H11.4014L10.4014 19.25H13.5986Z" fill="#1B1A16"/>
</svg>
