<svg width="24" height="24" viewBox="0 0 24 24" fill="none" xmlns="http://www.w3.org/2000/svg">
<path fill-rule="evenodd" clip-rule="evenodd" d="M3.98333 4.7334C3.7164 4.7334 3.5 4.94979 3.5 5.21673V15.0834C3.5 15.3504 3.7164 15.5668 3.98333 15.5668H9.52581C9.52832 15.5667 9.53082 15.5667 9.53333 15.5667H14.4667C14.4692 15.5667 14.4717 15.5667 14.4742 15.5668H20.0167C20.2836 15.5668 20.5 15.3504 20.5 15.0834V5.21673C20.5 4.94979 20.2836 4.7334 20.0167 4.7334H3.98333ZM15.352 17.0668H20.0167C21.112 17.0668 22 16.1788 22 15.0834V5.21673C22 4.12137 21.112 3.2334 20.0167 3.2334H3.98333C2.88797 3.2334 2 4.12137 2 5.21673V15.0834C2 16.1788 2.88797 17.0668 3.98333 17.0668H8.64798L8.28132 19.2667H7.06667C6.65245 19.2667 6.31667 19.6025 6.31667 20.0167C6.31667 20.4309 6.65245 20.7667 7.06667 20.7667H16.9333C17.3475 20.7667 17.6833 20.4309 17.6833 20.0167C17.6833 19.6025 17.3475 19.2667 16.9333 19.2667H15.7187L15.352 17.0668ZM10.1687 17.0668H13.8313L14.198 19.2667H9.80201L10.1687 17.0668Z" fill="#1B1A16"/>
</svg>
