<svg width="24" height="24" viewBox="0 0 24 24" fill="none" xmlns="http://www.w3.org/2000/svg">
<path d="M21.961 14.78L19.928 4.61603C19.837 4.16003 19.588 3.74503 19.229 3.45003C18.87 3.15403 18.415 2.99103 17.947 2.99103H4.02097C3.72397 2.99103 3.42397 3.05803 3.15597 3.18503C2.88697 3.31203 2.64597 3.50103 2.45797 3.73003C2.26997 3.96003 2.13197 4.23403 2.06097 4.52003C1.98797 4.80803 1.98097 5.11403 2.03897 5.40703L4.07197 15.573C4.16297 16.029 4.41197 16.443 4.77197 16.738C5.13197 17.034 5.58697 17.197 6.05397 17.197H8.57397L8.08497 20.135C8.08197 20.155 8.08997 20.173 8.08797 20.193C8.08597 20.215 8.07497 20.235 8.07497 20.258C8.07497 20.297 8.09197 20.331 8.09697 20.368C8.10397 20.413 8.10797 20.455 8.12297 20.498C8.14397 20.56 8.17697 20.613 8.21197 20.666C8.22797 20.69 8.23297 20.72 8.25197 20.742C8.25797 20.75 8.26797 20.752 8.27497 20.76C8.32497 20.815 8.38497 20.856 8.44997 20.894C8.47497 20.909 8.49397 20.929 8.52097 20.941C8.61397 20.983 8.71597 21.008 8.82497 21.008H15.177C15.185 21.008 15.192 21.008 15.197 21.008H17.719C18.133 21.008 18.469 20.672 18.469 20.258C18.469 19.844 18.133 19.508 17.719 19.508H15.812L15.427 17.196H19.981C20.277 17.196 20.576 17.129 20.848 17.001C21.114 16.874 21.354 16.687 21.543 16.457C21.733 16.225 21.867 15.959 21.94 15.666C22.012 15.381 22.019 15.075 21.961 14.78ZM9.70897 19.509L10.657 13.819C10.678 13.697 10.74 13.586 10.833 13.507C10.928 13.427 11.047 13.383 11.171 13.383H12.829C12.952 13.383 13.072 13.427 13.167 13.507C13.26 13.586 13.323 13.696 13.343 13.818L14.291 19.509H9.70897ZM20.484 15.302C20.464 15.378 20.43 15.448 20.382 15.505C20.332 15.567 20.271 15.614 20.203 15.647C20.132 15.681 20.057 15.698 19.978 15.698H15.175L14.821 13.571C14.742 13.098 14.498 12.669 14.133 12.362C13.769 12.053 13.305 11.883 12.827 11.883H11.169C10.691 11.883 10.228 12.053 9.86197 12.362C9.49797 12.671 9.25397 13.099 9.17497 13.572L8.82097 15.698H6.05097C5.93097 15.698 5.81397 15.656 5.72097 15.581C5.62797 15.504 5.56297 15.397 5.53997 15.279L3.50997 5.11403C3.49497 5.03903 3.49697 4.96003 3.51597 4.88503C3.53497 4.81003 3.56897 4.74103 3.61797 4.68103C3.66697 4.62103 3.72697 4.57503 3.79797 4.54103C3.86797 4.50803 3.94297 4.49103 4.01997 4.49103H17.946C18.066 4.49103 18.183 4.53303 18.276 4.60903C18.369 4.68603 18.433 4.79303 18.457 4.91003L20.489 15.073C20.505 15.149 20.503 15.229 20.484 15.302Z" fill="#1B1A16"/>
<path d="M17.718 13.156H16.447C16.033 13.156 15.697 13.492 15.697 13.906C15.697 14.32 16.033 14.656 16.447 14.656H17.718C18.132 14.656 18.468 14.32 18.468 13.906C18.468 13.492 18.132 13.156 17.718 13.156Z" fill="#1B1A16"/>
</svg>
