<svg width="24" height="24" viewBox="0 0 24 24" fill="none" xmlns="http://www.w3.org/2000/svg">
<path fill-rule="evenodd" clip-rule="evenodd" d="M5.21667 4.11658C4.26858 4.11658 3.5 4.88515 3.5 5.83324V13.2332C3.5 14.1813 4.26858 14.9499 5.21667 14.9499H11.991C11.994 14.9498 11.997 14.9498 12 14.9498C12.003 14.9498 12.006 14.9498 12.009 14.9499H18.7833C19.7314 14.9499 20.5 14.1813 20.5 13.2332V5.83324C20.5 4.88515 19.7314 4.11658 18.7833 4.11658H5.21667ZM12.75 16.4499H18.7833C20.5598 16.4499 22 15.0097 22 13.2332V5.83324C22 4.05672 20.5598 2.61658 18.7833 2.61658H5.21667C3.44015 2.61658 2 4.05672 2 5.83324V13.2332C2 15.0097 3.44015 16.4499 5.21667 16.4499H11.25V17.4427C10.0844 17.525 9.01514 17.798 8.17481 18.2181C7.20231 18.7043 6.31503 19.5148 6.31503 20.6332C6.31503 21.0474 6.65081 21.3832 7.06503 21.3832H16.9317C17.3459 21.3832 17.6817 21.0474 17.6817 20.6332C17.6817 19.5148 16.7944 18.7043 15.8219 18.2181C14.9824 17.7984 13.9143 17.5255 12.75 17.4429V16.4499ZM11.9988 18.9165C13.2694 18.9165 14.383 19.1757 15.1512 19.5597C15.3669 19.6676 15.5407 19.7766 15.6797 19.8832H8.31705C8.45599 19.7766 8.6298 19.6676 8.84556 19.5597C9.61383 19.1757 10.7275 18.9165 11.9984 18.9165" fill="#1B1A16"/>
</svg>
