<svg width="24" height="24" viewBox="0 0 24 24" fill="none" xmlns="http://www.w3.org/2000/svg">
<path fill-rule="evenodd" clip-rule="evenodd" d="M5.21663 3.5C4.94969 3.5 4.73329 3.71639 4.73329 3.98333V10.6333H19.2666V3.98333C19.2666 3.71639 19.0502 3.5 18.7833 3.5H5.21663ZM19.2666 12.1333H4.73329V12.6167C4.73329 12.8836 4.94969 13.1 5.21663 13.1H18.7833C19.0502 13.1 19.2666 12.8836 19.2666 12.6167V12.1333ZM3.23329 11.3885V12.6167C3.23329 13.712 4.12126 14.6 5.21663 14.6H18.7833C19.8786 14.6 20.7666 13.712 20.7666 12.6167V3.98333C20.7666 2.88797 19.8786 2 18.7833 2H5.21663C4.12126 2 3.23329 2.88797 3.23329 3.98333V11.3782C3.23328 11.3799 3.23328 11.3816 3.23328 11.3833C3.23328 11.385 3.23328 11.3868 3.23329 11.3885ZM5.00827 16.5788C5.15988 15.9797 5.69899 15.56 6.31702 15.56H17.6828C18.3009 15.56 18.84 15.9797 18.9916 16.5788L19.938 20.3188C20.1538 21.1718 19.5091 22 18.6292 22H5.37067C4.4908 22 3.84608 21.1718 4.06191 20.3188L5.00827 16.5788ZM6.43379 17.06L5.56335 20.5H18.4365L17.5661 17.06H6.43379ZM6.93327 18.7833C6.93327 18.3691 7.26906 18.0333 7.68327 18.0333H8.9166C9.33082 18.0333 9.6666 18.3691 9.6666 18.7833C9.6666 19.1975 9.33082 19.5333 8.9166 19.5333H7.68327C7.26906 19.5333 6.93327 19.1975 6.93327 18.7833ZM10.6333 18.7833C10.6333 18.3691 10.9691 18.0333 11.3833 18.0333H12.6166C13.0308 18.0333 13.3666 18.3691 13.3666 18.7833C13.3666 19.1975 13.0308 19.5333 12.6166 19.5333H11.3833C10.9691 19.5333 10.6333 19.1975 10.6333 18.7833ZM14.3333 18.7833C14.3333 18.3691 14.6691 18.0333 15.0833 18.0333H16.3166C16.7308 18.0333 17.0666 18.3691 17.0666 18.7833C17.0666 19.1975 16.7308 19.5333 16.3166 19.5333H15.0833C14.6691 19.5333 14.3333 19.1975 14.3333 18.7833Z" fill="#1B1A16"/>
</svg>
