<svg width="24" height="24" viewBox="0 0 24 24" fill="none" xmlns="http://www.w3.org/2000/svg">
<path fill-rule="evenodd" clip-rule="evenodd" d="M4.75 2C3.23122 2 2 3.23122 2 4.75V15.5C2 17.0188 3.23122 18.25 4.75 18.25H8.69798L8.32298 20.5H7C6.58579 20.5 6.25 20.8358 6.25 21.25C6.25 21.6642 6.58579 22 7 22H17C17.4142 22 17.75 21.6642 17.75 21.25C17.75 20.8358 17.4142 20.5 17 20.5H15.677L15.302 18.25H19.25C20.7688 18.25 22 17.0188 22 15.5V4.75C22 3.23122 20.7688 2 19.25 2H4.75ZM14.1563 20.5L13.7813 18.25H10.2187L9.84367 20.5H14.1563ZM3.5 4.75C3.5 4.05964 4.05964 3.5 4.75 3.5H19.25C19.9404 3.5 20.5 4.05964 20.5 4.75V13.5H3.5V4.75ZM3.5 15H20.5V15.5C20.5 16.1904 19.9404 16.75 19.25 16.75H4.75C4.05964 16.75 3.5 16.1904 3.5 15.5V15Z" fill="#1B1A16"/>
</svg>
