<svg width="24" height="24" viewBox="0 0 24 24" fill="none" xmlns="http://www.w3.org/2000/svg">
<path fill-rule="evenodd" clip-rule="evenodd" d="M7.47105 5.42212C7.47105 5.00791 7.80684 4.67212 8.22105 4.67212H13.9766C14.3908 4.67212 14.7266 5.00791 14.7266 5.42212C14.7266 5.83633 14.3908 6.17212 13.9766 6.17212H11.8488V7.13878H13.2333C13.4694 7.13878 13.6917 7.24992 13.8333 7.43878L14.8417 8.78321H15.7C16.0079 8.78321 16.3033 8.90554 16.521 9.12329C16.7388 9.34105 16.8611 9.63638 16.8611 9.94432V10.8388H18.4444V10.3554C18.4444 10.0475 18.5668 9.75216 18.7845 9.5344C19.0023 9.31665 19.2976 9.19432 19.6056 9.19432C20.2406 9.19432 20.8496 9.44659 21.2987 9.89564C21.7477 10.3447 22 10.9537 22 11.5888V16.5221C22 17.1571 21.7477 17.7662 21.2987 18.2152C20.8496 18.6642 20.2406 18.9165 19.6056 18.9165C19.2976 18.9165 19.0023 18.7942 18.7845 18.5764C18.5668 18.3587 18.4444 18.0633 18.4444 17.7554V17.2721H16.8611V18.1665C16.8611 18.4745 16.7388 18.7698 16.521 18.9875C16.3033 19.2053 16.0079 19.3276 15.7 19.3276H8.91667C8.64752 19.3276 8.39902 19.1834 8.26549 18.9497L6.83698 16.4499H5.62778C5.31983 16.4499 5.0245 16.3275 4.80675 16.1098C4.589 15.892 4.46667 15.5967 4.46667 15.2887V13.161H3.5V15.6999C3.5 16.1141 3.16421 16.4499 2.75 16.4499C2.33579 16.4499 2 16.1141 2 15.6999V9.12211C2 8.70789 2.33579 8.37211 2.75 8.37211C3.16421 8.37211 3.5 8.70789 3.5 9.12211V11.661H4.46667V9.53321C4.46667 9.22527 4.589 8.92994 4.80675 8.71218C5.0245 8.49443 5.31983 8.3721 5.62778 8.3721H6.96156L7.97523 7.35845C8.11588 7.21779 8.30664 7.13878 8.50556 7.13878H10.3488V6.17212H8.22105C7.80684 6.17212 7.47105 5.83633 7.47105 5.42212ZM8.81622 8.63878L7.80255 9.65244C7.6619 9.79309 7.47113 9.8721 7.27222 9.8721H5.96667V14.9499H7.27222C7.54136 14.9499 7.78987 15.0941 7.9234 15.3278L9.35191 17.8276H15.3611V16.5221C15.3611 16.1079 15.6969 15.7721 16.1111 15.7721H19.1944C19.6087 15.7721 19.9444 16.1079 19.9444 16.5221V17.3498C20.0533 17.3053 20.1533 17.2393 20.238 17.1545C20.4058 16.9868 20.5 16.7593 20.5 16.5221V11.5888C20.5 11.3515 20.4058 11.124 20.238 10.9563C20.1533 10.8715 20.0533 10.8056 19.9444 10.761V11.5888C19.9444 12.003 19.6087 12.3388 19.1944 12.3388H16.1111C15.6969 12.3388 15.3611 12.003 15.3611 11.5888V10.2832H14.4667C14.2306 10.2832 14.0083 10.1721 13.8667 9.98322L12.8583 8.63878H8.81622Z" fill="#1B1A16"/>
</svg>
