<svg width="24" height="24" viewBox="0 0 24 24" fill="none" xmlns="http://www.w3.org/2000/svg">
<path d="M6.64422 4.6849C6.84612 4.483 7.14514 4.41326 7.41552 4.505L8.33661 4.81751C8.72886 4.95059 8.93896 5.37646 8.80587 5.76871C8.67279 6.16097 8.24692 6.37106 7.85466 6.23798L7.37515 6.07529L6.48849 6.96194L6.65118 7.44145C6.78427 7.8337 6.57417 8.25957 6.18192 8.39266C5.78967 8.52574 5.3638 8.31565 5.23072 7.9234L4.9182 7.00231C4.82647 6.73193 4.89621 6.4329 5.09811 6.23101L6.64422 4.6849Z" fill="#1B1A16"/>
<path fill-rule="evenodd" clip-rule="evenodd" d="M3.5724 1.99805C2.70399 1.99805 2 2.70203 2 3.57044V9.73843C2 10.6068 2.70399 11.3108 3.5724 11.3108H9.74039C10.6088 11.3108 11.3128 10.6068 11.3128 9.73843V3.57044C11.3128 2.70203 10.6088 1.99805 9.74039 1.99805H3.5724ZM3.5 3.57044C3.5 3.53046 3.53241 3.49805 3.5724 3.49805H9.74039C9.78038 3.49805 9.81279 3.53046 9.81279 3.57044V9.73843C9.81279 9.77841 9.78038 9.81083 9.74039 9.81083H3.5724C3.53241 9.81083 3.5 9.77841 3.5 9.73843V3.57044Z" fill="#1B1A16"/>
<path fill-rule="evenodd" clip-rule="evenodd" d="M15.086 8.16602C14.6718 8.16602 14.336 8.5018 14.336 8.91602C14.336 9.33023 14.6718 9.66602 15.086 9.66602H16.3196C16.4478 9.66602 16.5709 9.71697 16.6615 9.80766C16.7522 9.89835 16.8032 10.0214 16.8032 10.1496V18.0348L16.3196 18.0348L16.3179 18.0348H12.6188C12.4905 18.0348 12.3675 17.9838 12.2768 17.8931C12.1861 17.8025 12.1352 17.6795 12.1352 17.5512C12.1352 16.9325 11.957 16.3323 11.6291 15.819C12.0652 15.7649 12.4738 15.5671 12.7878 15.253C13.1598 14.881 13.3688 14.3765 13.3688 13.8504C13.3688 13.3243 13.1598 12.8198 12.7878 12.4478C12.4158 12.0758 11.9113 11.8668 11.3852 11.8668H3.9836C3.45752 11.8668 2.95298 12.0758 2.58098 12.4478C2.20899 12.8198 2 13.3243 2 13.8504C2 14.3765 2.20899 14.881 2.58098 15.253C2.64748 15.3195 2.71821 15.3808 2.79254 15.4366C2.28316 16.0207 2 16.7713 2 17.5512V18.7848C2 19.199 2.33579 19.5348 2.75 19.5348C3.16421 19.5348 3.5 19.199 3.5 18.7848V17.5512C3.5 17.0958 3.68092 16.659 4.00296 16.337C4.32334 16.0166 4.75729 15.8359 5.21018 15.834H8.92501C9.37791 15.8359 9.81186 16.0166 10.1322 16.337C10.4543 16.659 10.6352 17.0958 10.6352 17.5512C10.6352 18.0773 10.8442 18.5818 11.2162 18.9538C11.5882 19.3258 12.0927 19.5348 12.6188 19.5348H15.573C15.6059 20.1759 15.875 20.7842 16.3312 21.2403C16.8189 21.728 17.4803 22.002 18.17 22.002C18.8596 22.002 19.5211 21.728 20.0087 21.2403C20.4665 20.7826 20.7359 20.1718 20.7673 19.5282C20.9259 19.5126 21.0809 19.4693 21.2251 19.4C21.4072 19.3125 21.5675 19.1858 21.6947 19.029C21.822 18.8722 21.9128 18.6891 21.9608 18.493C22.0089 18.2968 22.0128 18.0925 21.9724 17.8946L21.9705 17.8854C21.7515 16.8771 21.1932 15.9744 20.3888 15.328C19.782 14.8404 19.0629 14.521 18.3032 14.3948V14.1892H19.6092C20.1353 14.1892 20.6398 13.9803 21.0118 13.6083C21.3838 13.2363 21.5928 12.7317 21.5928 12.2057V11.3833C21.5928 10.8572 21.3838 10.3526 21.0118 9.98064C20.6398 9.60864 20.1353 9.39966 19.6092 9.39966H18.156C18.0571 9.15773 17.9106 8.93537 17.7222 8.747C17.3502 8.375 16.8457 8.16602 16.3196 8.16602H15.086ZM11.3852 14.334H8.9276L8.918 14.334H5.2172L5.2076 14.334H3.9836C3.85534 14.334 3.73233 14.2831 3.64164 14.1924C3.55095 14.1017 3.5 13.9787 3.5 13.8504C3.5 13.7222 3.55095 13.5992 3.64164 13.5085C3.73233 13.4178 3.85534 13.3668 3.9836 13.3668H11.3852C11.5135 13.3668 11.6365 13.4178 11.7271 13.5085C11.8178 13.5992 11.8688 13.7222 11.8688 13.8504C11.8688 13.9787 11.8178 14.1017 11.7271 14.1924C11.6365 14.2831 11.5135 14.334 11.3852 14.334ZM20.0228 18.0348L20.0204 18.0348L18.3032 18.0348V15.926C18.719 16.0313 19.1104 16.225 19.4493 16.4973C19.9406 16.8921 20.2944 17.4304 20.4628 18.0348H20.0228ZM17.5515 19.5348L17.0777 19.5348C17.1073 19.7775 17.2172 20.005 17.3919 20.1797C17.5982 20.386 17.8781 20.502 18.17 20.502C18.4618 20.502 18.7417 20.386 18.9481 20.1797C19.1228 20.005 19.2327 19.7775 19.2623 19.5348L17.5532 19.5348L17.5515 19.5348ZM18.3032 12.6892V10.8997H19.6092C19.7375 10.8997 19.8605 10.9506 19.9512 11.0413C20.0419 11.132 20.0928 11.255 20.0928 11.3833V12.2057C20.0928 12.3339 20.0419 12.4569 19.9512 12.5476C19.8605 12.6383 19.7375 12.6892 19.6092 12.6892H18.3032Z" fill="#1B1A16"/>
<path fill-rule="evenodd" clip-rule="evenodd" d="M7.06768 16.8011C5.63152 16.8011 4.46729 17.9654 4.46729 19.4015C4.46729 20.8377 5.63152 22.0019 7.06768 22.0019C8.50384 22.0019 9.66808 20.8377 9.66808 19.4015C9.66808 17.9654 8.50384 16.8011 7.06768 16.8011ZM5.96729 19.4015C5.96729 18.7938 6.45995 18.3011 7.06768 18.3011C7.67542 18.3011 8.16808 18.7938 8.16808 19.4015C8.16808 20.0093 7.67542 20.5019 7.06768 20.5019C6.45995 20.5019 5.96729 20.0093 5.96729 19.4015Z" fill="#1B1A16"/>
</svg>
