<svg width="24" height="24" viewBox="0 0 24 24" fill="none" xmlns="http://www.w3.org/2000/svg">
<path d="M19.0888 4.90735H17.4431L19.1686 14.4464C19.3394 14.4305 19.5114 14.4251 19.6838 14.4305C20.3666 14.4519 21.0335 14.6418 21.6251 14.9835C21.9838 15.1906 22.1066 15.6493 21.8995 16.008C21.6924 16.3667 21.2337 16.4896 20.875 16.2824C20.4977 16.0646 20.0723 15.9434 19.6368 15.9298C19.3601 15.9211 19.0848 15.956 18.8207 16.0323C18.7973 16.0407 18.7734 16.0481 18.7489 16.0542C18.6838 16.075 18.6194 16.0984 18.5559 16.1243C18.5199 16.1437 18.4822 16.1602 18.4429 16.1736C18.4215 16.1835 18.4002 16.1937 18.379 16.2042C17.9888 16.3981 17.6526 16.6854 17.4004 17.0407C17.1481 17.3959 16.9877 17.8081 16.9334 18.2404C16.8862 18.6154 16.5673 18.8968 16.1892 18.8968H8.1084C7.73036 18.8968 7.41141 18.6154 7.36426 18.2404C7.30991 17.8081 7.14947 17.3959 6.89723 17.0407C6.64499 16.6854 6.30879 16.3981 5.91858 16.2042C5.52837 16.0104 5.09628 15.9161 4.66079 15.9298C4.22531 15.9434 3.79997 16.0646 3.42266 16.2824C3.06395 16.4896 2.60525 16.3667 2.39812 16.008C2.19099 15.6493 2.31386 15.1906 2.67256 14.9835C3.26414 14.6418 3.93104 14.4519 4.61382 14.4305C5.29661 14.4091 5.97409 14.5569 6.58589 14.8609C7.19769 15.1648 7.72481 15.6153 8.1203 16.1723C8.38571 16.5461 8.5863 16.9601 8.71528 17.3968H15.5823C15.7066 16.976 15.8973 16.5764 16.1485 16.2134H12.7376C12.3234 16.2134 11.9876 15.8776 11.9876 15.4634C11.9876 14.081 11.6911 13.4383 11.4929 13.1629C11.4147 13.0542 11.3457 12.9936 11.3021 12.9619H9.6723V14.4774C9.6723 14.8916 9.33652 15.2274 8.9223 15.2274C8.50809 15.2274 8.1723 14.8916 8.1723 14.4774V12.2119C8.1723 11.7977 8.50809 11.4619 8.9223 11.4619H11.4658C11.5208 11.4619 11.5756 11.468 11.6293 11.4799C11.6293 11.4799 11.6287 11.4798 11.6309 11.4803L11.6326 11.4807L11.6359 11.4815L11.6431 11.4831L11.6589 11.4871C11.6701 11.49 11.6826 11.4935 11.6964 11.4977C11.7239 11.506 11.7564 11.5169 11.793 11.5312C11.8664 11.5598 11.9562 11.6018 12.0562 11.663C12.2581 11.7867 12.4917 11.9827 12.7105 12.2869C13.0746 12.7929 13.3706 13.5582 13.4599 14.7134H17.6926L15.9188 4.90735H14.0018C13.5876 4.90735 13.2518 4.57156 13.2518 4.15735C13.2518 3.74314 13.5876 3.40735 14.0018 3.40735H16.5327C16.5417 3.40719 16.5507 3.40719 16.5597 3.40735H19.0888C19.5031 3.40735 19.8388 3.74314 19.8388 4.15735C19.8388 4.57156 19.5031 4.90735 19.0888 4.90735Z" fill="#1B1A16"/>
<path fill-rule="evenodd" clip-rule="evenodd" d="M4.71702 16.549C3.60043 16.549 2.69525 17.4541 2.69525 18.5707C2.69525 19.6873 3.60043 20.5925 4.71702 20.5925C5.83361 20.5925 6.73879 19.6873 6.73879 18.5707C6.73879 17.4541 5.83361 16.549 4.71702 16.549ZM4.19525 18.5707C4.19525 18.2826 4.42886 18.049 4.71702 18.049C5.00518 18.049 5.23879 18.2826 5.23879 18.5707C5.23879 18.8589 5.00518 19.0925 4.71702 19.0925C4.42886 19.0925 4.19525 18.8589 4.19525 18.5707Z" fill="#1B1A16"/>
<path fill-rule="evenodd" clip-rule="evenodd" d="M19.5543 16.549C18.4377 16.549 17.5325 17.4541 17.5325 18.5707C17.5325 19.6873 18.4377 20.5925 19.5543 20.5925C20.6709 20.5925 21.5761 19.6873 21.5761 18.5707C21.5761 17.4541 20.6709 16.549 19.5543 16.549ZM19.0325 18.5707C19.0325 18.2826 19.2661 18.049 19.5543 18.049C19.8425 18.049 20.0761 18.2826 20.0761 18.5707C20.0761 18.8589 19.8425 19.0925 19.5543 19.0925C19.2661 19.0925 19.0325 18.8589 19.0325 18.5707Z" fill="#1B1A16"/>
<path fill-rule="evenodd" clip-rule="evenodd" d="M7.91112 4.04321H3.59785C3.17407 4.04321 2.76765 4.21156 2.468 4.51121C2.16834 4.81087 2 5.21728 2 5.64106V9.03244C2 9.45622 2.16834 9.86264 2.468 10.1623C2.76765 10.4619 3.17407 10.6303 3.59785 10.6303H9.95669C10.3805 10.6303 10.7869 10.4619 11.0865 10.1623C11.3081 9.9407 11.4579 9.66072 11.5209 9.35852H12.5002C12.9144 9.35852 13.2502 9.02273 13.2502 8.60852V6.06498C13.2502 5.65077 12.9144 5.31498 12.5002 5.31498H11.5209C11.4579 5.01278 11.3081 4.7328 11.0865 4.51121C10.7869 4.21156 10.3805 4.04321 9.95669 4.04321H8.03603C8.01543 4.04152 7.9946 4.04065 7.97357 4.04065C7.95254 4.04065 7.93171 4.04152 7.91112 4.04321ZM7.22357 5.54321H3.59785C3.5719 5.54321 3.54701 5.55352 3.52866 5.57187C3.51031 5.59022 3.5 5.61511 3.5 5.64106V9.03244C3.5 9.05839 3.51031 9.08328 3.52866 9.10163C3.54701 9.11998 3.5719 9.13029 3.59785 9.13029H7.22357V5.54321ZM8.72357 9.13029V5.54321H9.95669C9.98264 5.54321 10.0075 5.55352 10.0259 5.57187C10.0442 5.59022 10.0545 5.61511 10.0545 5.64106V6.06498C10.0545 6.4792 10.3903 6.81498 10.8045 6.81498H11.7502V7.85852H10.8045C10.3903 7.85852 10.0545 8.19431 10.0545 8.60852V9.03244C10.0545 9.05839 10.0442 9.08328 10.0259 9.10163C10.0075 9.11998 9.98264 9.13029 9.95669 9.13029H8.72357Z" fill="#1B1A16"/>
</svg>
