<svg width="24" height="24" viewBox="0 0 24 24" fill="none" xmlns="http://www.w3.org/2000/svg">
<path d="M7.27998 8.02003H5.09992C5.00106 8.02137 4.90295 8.00289 4.81135 7.96568C4.71975 7.92846 4.63651 7.87327 4.5666 7.80336C4.49668 7.73344 4.44158 7.65023 4.40437 7.55862C4.36715 7.46702 4.34858 7.36889 4.34992 7.27003C4.34992 7.07111 4.429 6.88035 4.56965 6.7397C4.7103 6.59904 4.90101 6.52003 5.09992 6.52003H6.52998V5.09003C6.52998 4.89111 6.60893 4.70035 6.74958 4.5597C6.89023 4.41904 7.08106 4.34003 7.27998 4.34003C7.47808 4.34262 7.66735 4.42247 7.80744 4.56256C7.94754 4.70266 8.02739 4.89192 8.02998 5.09003V7.27003C8.02998 7.46894 7.9509 7.65971 7.81025 7.80036C7.6696 7.94101 7.47889 8.02003 7.27998 8.02003Z" fill="#1B1A16"/>
<path fill-rule="evenodd" clip-rule="evenodd" d="M3.55652 10.9935C4.54426 11.9813 5.88315 12.5374 7.28003 12.54C8.67864 12.54 10.0201 11.9851 11.01 10.9971C11.9999 10.009 12.5574 8.66861 12.5601 7.27C12.5574 5.87312 12.0013 4.53421 11.0135 3.54647C10.0258 2.55872 8.68692 2.00264 7.29004 2C5.89224 2.00263 4.5522 2.55839 3.56287 3.54585C2.57353 4.53331 2.01529 5.8722 2.01001 7.27C2.01265 8.66688 2.56877 10.0058 3.55652 10.9935ZM4.61072 4.6436C5.31932 3.93687 6.27924 3.54 7.28003 3.54V3.47C8.27816 3.48056 9.23131 3.88653 9.93054 4.59889C10.6298 5.31125 11.018 6.27184 11.01 7.27C11.0153 7.76509 10.923 8.25637 10.7384 8.71579C10.5538 9.17521 10.2806 9.59377 9.9342 9.94757C9.58784 10.3014 9.17513 10.5835 8.71973 10.7778C8.26433 10.9721 7.77512 11.0748 7.28003 11.08C6.27924 11.08 5.31932 10.6831 4.61072 9.9764C3.90212 9.26968 3.50265 8.31079 3.5 7.31C3.50265 6.30922 3.90212 5.35033 4.61072 4.6436Z" fill="#1B1A16"/>
<path fill-rule="evenodd" clip-rule="evenodd" d="M16.19 18.043V14.47L16.1899 14.4594L16.1901 14.4464V10.1609C16.1894 10.0999 16.1764 10.0397 16.1517 9.9838C16.1259 9.92516 16.0878 9.87273 16.04 9.83C15.9953 9.78547 15.9423 9.75018 15.8839 9.72615C15.8256 9.70213 15.763 9.68985 15.7 9.69H15.29C15.0919 9.68741 14.9027 9.60756 14.7626 9.46747C14.6225 9.32737 14.5426 9.13811 14.54 8.94C14.54 8.74109 14.619 8.55032 14.7596 8.40967C14.9003 8.26902 15.0911 8.19 15.29 8.19H15.7C16.2281 8.18958 16.735 8.39808 17.11 8.77C17.2074 8.86826 17.2937 8.97558 17.3679 9.08998H18.48C18.7794 9.08876 19.0757 9.15007 19.35 9.26998C19.632 9.37803 19.8877 9.54509 20.1 9.75999C20.3147 9.97439 20.4846 10.2293 20.6 10.51C20.7111 10.7866 20.7688 11.0819 20.77 11.38C20.7696 11.6814 20.7119 11.9801 20.6 12.26C20.4797 12.538 20.3104 12.7921 20.1 13.01C19.887 13.2192 19.6358 13.3856 19.36 13.5C19.0819 13.6191 18.7825 13.6803 18.48 13.68H17.6901V13.7745C18.5929 13.9065 19.4496 14.2756 20.17 14.85C21.0829 15.5876 21.7176 16.6138 21.9699 17.76C21.9788 17.8598 21.9788 17.9602 21.9699 18.06C21.9752 18.2525 21.9376 18.4438 21.8599 18.62C21.7902 18.7993 21.6848 18.9626 21.55 19.1C21.4141 19.239 21.2506 19.3481 21.07 19.42C20.9723 19.4589 20.8711 19.4877 20.768 19.506C20.7559 19.8115 20.69 20.1126 20.5731 20.3956C20.4427 20.7114 20.2514 20.9983 20.01 21.24C19.5206 21.7256 18.8595 21.9987 18.17 22C17.4806 21.9987 16.8194 21.7256 16.33 21.24C16.0886 20.9983 15.8974 20.7114 15.767 20.3956C15.6531 20.12 15.5877 19.8272 15.5732 19.53H12.1369C12.1225 19.8255 12.0577 20.1167 11.9451 20.391C11.8146 20.7086 11.6225 20.9971 11.38 21.24C11.1383 21.4814 10.8514 21.6727 10.5356 21.8031C10.2199 21.9335 9.88162 22.0004 9.54004 22C8.8506 21.9987 8.1894 21.7256 7.69995 21.24C7.45861 20.9983 7.26736 20.7114 7.13696 20.3956C7.02312 20.12 6.95768 19.8272 6.94316 19.53H5.21997C5.02106 19.53 4.83035 19.451 4.6897 19.3103C4.54905 19.1697 4.46997 18.9789 4.46997 18.78V17.78C4.47472 16.7092 4.89829 15.6827 5.65002 14.92C6.02451 14.5433 6.47026 14.2449 6.9613 14.0423C7.45235 13.8397 7.97882 13.7369 8.51001 13.74H10.77C11.7855 13.7423 12.7591 14.1447 13.48 14.86C13.836 15.2157 14.1182 15.6382 14.3104 16.1033C14.5026 16.5683 14.601 17.0668 14.6 17.57C14.5993 17.6341 14.6124 17.6976 14.6383 17.7562C14.6642 17.8148 14.7022 17.8673 14.75 17.91C14.7947 17.9545 14.8478 17.9898 14.9061 18.0138C14.9645 18.0379 15.0269 18.0502 15.09 18.05H16.1566C16.1677 18.0474 16.1788 18.0451 16.19 18.043ZM17.6901 12.18V10.59H18.48C18.583 10.5897 18.685 10.6101 18.78 10.65C18.8772 10.6886 18.9656 10.7465 19.04 10.82C19.1113 10.8961 19.1688 10.9841 19.21 11.08C19.2498 11.175 19.2703 11.277 19.27 11.38C19.2705 11.4863 19.2501 11.5916 19.21 11.69C19.1687 11.7828 19.1112 11.8675 19.04 11.94C18.966 12.0165 18.8777 12.0777 18.78 12.12C18.685 12.1599 18.583 12.1803 18.48 12.18H17.6901ZM17.6901 18.03H20.52C20.3126 17.2435 19.8609 16.5432 19.2299 16.03C18.78 15.6708 18.253 15.4209 17.6901 15.3V18.03ZM5.94006 18.03H13.13C13.0892 17.8733 13.0691 17.7119 13.0701 17.55C13.0713 17.2437 13.0117 16.9402 12.895 16.657C12.7783 16.3738 12.6067 16.1165 12.39 15.9C11.9502 15.4661 11.3578 15.222 10.74 15.22H8.47998C8.14595 15.2184 7.81492 15.283 7.50598 15.41C7.19704 15.537 6.91638 15.7239 6.68005 15.96C6.20877 16.441 5.94335 17.0866 5.94006 17.76V18.03ZM17.08 19.53C17.1096 19.7747 17.2186 20.003 17.39 20.18C17.6013 20.3783 17.8803 20.4886 18.17 20.4886C18.4598 20.4886 18.7386 20.3783 18.95 20.18C19.1214 20.003 19.2303 19.7747 19.26 19.53H17.08ZM8.76001 20.18C8.58427 20.0048 8.47177 19.7762 8.44006 19.53H10.63C10.6006 19.7768 10.4877 20.0062 10.3101 20.18C10.1004 20.3776 9.82314 20.4877 9.53503 20.4877C9.24692 20.4877 8.96968 20.3776 8.76001 20.18Z" fill="#1B1A16"/>
</svg>
