<svg width="24" height="24" viewBox="0 0 24 24" fill="none" xmlns="http://www.w3.org/2000/svg">
<path d="M18.737 12.129L18.641 11.695H19.896C20.126 11.695 20.343 11.59 20.486 11.408C20.536 11.345 21.686 9.85 20.9 8.277C20.184 6.844 18.257 6.31599 18.04 6.25999C18 6.24999 17.954 6.24299 17.912 6.23999C17.912 6.23999 17.822 6.23199 17.677 6.23199C17.198 6.23199 16.307 6.31299 15.721 6.85299C15.431 7.12099 15.403 7.57399 15.651 7.88099C15.752 8.00499 15.947 8.341 15.908 8.588C15.907 8.591 15.906 8.59699 15.905 8.60099C15.153 8.35199 13.623 7.89299 12.855 7.96999C12.088 8.05099 10.766 8.74599 10.074 9.52299C9.93499 9.47499 9.72399 9.422 9.45199 9.364C9.03499 9.275 7.92999 9.03999 7.72899 8.73799C7.58899 8.52899 7.50299 8.35699 7.43099 8.21499C7.23099 7.82299 7.00599 7.37899 6.25599 7.17899C5.60499 7.00499 3.07599 6.65799 2.78999 6.61899C2.52999 6.58499 2.27899 6.68299 2.11399 6.87999C1.94799 7.07799 1.89599 7.34699 1.97499 7.59199C2.01199 7.70499 2.90399 10.389 5.80899 11.634C8.18099 12.651 8.38899 13.353 8.67699 14.325C8.71499 14.453 8.75699 14.59 8.79999 14.728H8.55399C8.21199 13.24 6.88299 12.124 5.29199 12.124C3.44299 12.124 1.93799 13.628 1.93799 15.477C1.93799 17.327 3.44199 18.831 5.29199 18.831C6.88199 18.831 8.21099 17.716 8.55399 16.227H9.28299C9.46499 16.775 9.60499 17.185 9.60499 17.185C9.70899 17.489 9.99399 17.693 10.314 17.693H14.355C14.769 17.693 15.105 17.357 15.105 16.943V14.925C15.106 14.907 15.116 14.891 15.116 14.872C15.116 14.854 15.107 14.84 15.106 14.822C15.111 14.478 15.23 12.564 17.15 11.888L17.275 12.456C16.144 12.996 15.355 14.141 15.355 15.475C15.355 17.325 16.859 18.829 18.709 18.829C20.559 18.829 22.063 17.324 22.063 15.475C22.062 13.64 20.573 12.146 18.737 12.129ZM5.29199 17.333C4.26999 17.333 3.43799 16.501 3.43799 15.479C3.43799 14.458 4.26999 13.626 5.29199 13.626C6.04699 13.626 6.69499 14.081 6.98399 14.73H5.47899C5.06499 14.73 4.72899 15.066 4.72899 15.48C4.72899 15.894 5.06499 16.23 5.47899 16.23H6.98299C6.69399 16.878 6.04599 17.333 5.29199 17.333ZM13.012 9.46199C13.225 9.43699 13.723 9.53499 14.289 9.68399C13.873 9.87099 13.535 9.98999 13.36 10.045C12.923 9.98799 12.47 9.92499 12.042 9.86299C12.396 9.65699 12.768 9.48699 13.012 9.46199ZM14.294 12.417H13.438C13.024 12.417 12.688 12.753 12.688 13.167C12.688 13.581 13.024 13.917 13.438 13.917H13.707C13.691 13.988 13.681 14.057 13.669 14.125H12.481C12.067 14.125 11.731 14.461 11.731 14.875C11.731 15.289 12.067 15.625 12.481 15.625H13.606V16.195H10.853C10.656 15.608 10.333 14.63 10.116 13.899C9.70899 12.524 9.20399 11.457 6.40099 10.255C5.25699 9.76499 4.50499 8.975 4.03999 8.312C4.84299 8.434 5.60999 8.559 5.87099 8.628C5.93299 8.64499 5.95999 8.65799 5.96299 8.65799C5.98999 8.68899 6.04699 8.80299 6.09399 8.89399C6.18699 9.07799 6.29999 9.29999 6.47999 9.56999C7.01999 10.38 8.29399 10.652 9.13799 10.831C9.32899 10.872 9.48799 10.901 9.57499 10.933C10.014 11.11 12.114 11.397 13.327 11.553C13.425 11.566 13.521 11.559 13.616 11.534C13.672 11.519 14.999 11.159 16.417 10.228C17.117 9.76899 17.334 9.199 17.392 8.803C17.449 8.42 17.381 8.06099 17.275 7.76099C17.4 7.74199 17.536 7.73199 17.677 7.73199L17.74 7.73399C18.177 7.86099 19.227 8.28499 19.558 8.94699C19.608 9.04699 19.632 9.14899 19.65 9.24999H19.479C19.065 9.24999 18.729 9.58599 18.729 9.99999C18.729 10.07 18.75 10.133 18.769 10.198L17.886 10.201C16.019 10.435 14.913 11.378 14.294 12.417ZM18.708 17.333C17.686 17.333 16.854 16.501 16.854 15.479C16.854 14.869 17.155 14.331 17.612 13.993L17.975 15.641C18.052 15.992 18.363 16.23 18.706 16.23C18.76 16.23 18.814 16.224 18.868 16.212C19.273 16.123 19.528 15.723 19.439 15.318L19.074 13.663C19.922 13.834 20.561 14.583 20.561 15.478C20.562 16.501 19.73 17.333 18.708 17.333Z" fill="#1B1A16"/>
</svg>
