<svg width="24" height="24" viewBox="0 0 24 24" fill="none" xmlns="http://www.w3.org/2000/svg">
<path d="M8.844 12.617V8.71098C8.844 7.95798 8.231 7.34498 7.477 7.34498H3.367C2.613 7.34498 2 7.95798 2 8.71098V12.617C2 13.37 2.613 13.983 3.366 13.983H7.477C8.231 13.983 8.844 13.37 8.844 12.617ZM7.344 12.483H3.5V8.84498H4.671V9.94398C4.671 10.358 5.007 10.694 5.421 10.694C5.835 10.694 6.171 10.358 6.171 9.94398V8.84498H7.343L7.344 12.483Z" fill="#1B1A16"/>
<path d="M8.3 16.799C6.866 16.799 5.7 17.966 5.7 19.4C5.7 20.834 6.867 22 8.3 22C9.733 22 10.899 20.834 10.899 19.4C10.899 17.966 9.733 16.799 8.3 16.799ZM8.3 20.499C7.694 20.499 7.2 20.006 7.2 19.399C7.2 18.792 7.694 18.298 8.3 18.298C8.906 18.298 9.399 18.792 9.399 19.399C9.399 20.006 8.906 20.499 8.3 20.499Z" fill="#1B1A16"/>
<path d="M11.366 13.572H12.601C12.603 13.572 12.605 13.572 12.605 13.572C12.96 13.572 13.316 13.686 13.606 13.895C13.901 14.107 14.118 14.4 14.232 14.743L14.898 16.757C15.002 17.072 15.295 17.272 15.61 17.272C15.688 17.272 15.767 17.26 15.845 17.234C16.239 17.104 16.451 16.68 16.322 16.287L15.656 14.271C15.44 13.625 15.034 13.075 14.481 12.677C13.93 12.281 13.282 12.073 12.606 12.073C12.604 12.073 12.602 12.073 12.6 12.073H11.366C11.239 12.073 11.116 12.022 11.024 11.93C10.933 11.84 10.883 11.719 10.883 11.589V9.01598C10.883 8.77698 10.976 8.55298 11.146 8.38298C11.311 8.21698 11.542 8.12198 11.778 8.12198C12.903 8.12198 14.413 9.25898 14.901 9.69698C15.208 9.97198 15.682 9.94898 15.96 9.64198C16.238 9.33498 16.213 8.86098 15.906 8.58298C15.683 8.38198 13.679 6.62198 11.779 6.62198C11.147 6.62198 10.529 6.87798 10.086 7.32298C9.632 7.77498 9.383 8.37598 9.383 9.01598V11.589C9.383 12.12 9.59 12.618 9.963 12.99C10.332 13.36 10.843 13.572 11.366 13.572Z" fill="#1B1A16"/>
<path d="M10.149 5.96798H15.082C15.496 5.96798 15.832 5.63198 15.832 5.21798C15.832 4.80398 15.496 4.46798 15.082 4.46798H14.6V3.98398C14.6 3.45598 14.394 2.95798 14.018 2.58098C13.642 2.20698 13.144 2.00098 12.616 2.00098H11.384C10.854 2.00098 10.355 2.20798 9.98 2.58298C9.606 2.95798 9.4 3.45598 9.4 3.98398V5.21698C9.399 5.63198 9.735 5.96798 10.149 5.96798ZM10.899 3.98398C10.899 3.85698 10.951 3.73198 11.041 3.64198C11.132 3.55098 11.254 3.49998 11.384 3.49998H12.616C12.745 3.49998 12.867 3.55098 12.958 3.64098C13.048 3.73198 13.1 3.85698 13.1 3.98398V4.46698H10.899V3.98398Z" fill="#1B1A16"/>
<path d="M21 15.97C20.512 15.453 19.879 15.135 19.119 15.011V14.806H21.248C21.662 14.806 21.998 14.47 21.998 14.056V11.178C21.998 10.764 21.662 10.428 21.248 10.428H16.724C16.31 10.428 15.974 10.764 15.974 11.178C15.974 11.592 16.31 11.928 16.724 11.928H17.619V18.034L12.569 18.035L12.568 17.613C12.567 17.05 12.405 16.512 12.121 16.04H12.615C13.029 16.04 13.365 15.704 13.365 15.29C13.365 14.876 13.029 14.54 12.615 14.54H6.94C6.496 14.529 6.137 14.615 5.757 14.77C5.383 14.924 5.046 15.148 4.754 15.437C4.465 15.726 4.24 16.062 4.086 16.434C3.929 16.811 3.85 17.208 3.851 17.615V18.437C3.851 18.851 4.187 19.187 4.601 19.187C5.015 19.187 5.351 18.851 5.351 18.437V17.614C5.351 17.406 5.391 17.204 5.472 17.01C5.551 16.819 5.667 16.647 5.813 16.5C5.962 16.352 6.136 16.236 6.327 16.158C6.522 16.078 6.697 16.025 6.935 16.039H9.518C9.933 16.048 10.322 16.216 10.614 16.512C10.906 16.81 11.068 17.201 11.069 17.615L11.07 18C11.06 18.218 11.097 18.431 11.182 18.635C11.265 18.832 11.391 19.013 11.552 19.158C11.711 19.303 11.902 19.411 12.106 19.474C12.248 19.518 12.393 19.539 12.539 19.539C12.588 19.539 12.636 19.537 12.684 19.532H14.975C14.999 19.787 15.049 20.036 15.148 20.272C15.281 20.59 15.47 20.874 15.71 21.114C15.951 21.355 16.234 21.545 16.554 21.678C16.871 21.809 17.205 21.875 17.547 21.875C17.891 21.875 18.225 21.809 18.545 21.677C18.861 21.544 19.145 21.355 19.386 21.114C19.631 20.869 19.821 20.585 19.948 20.272C20.048 20.034 20.097 19.785 20.123 19.532H21.248C21.646 19.532 21.976 19.22 21.997 18.822C22.001 18.753 22.075 17.104 21 15.97ZM20.498 13.306H19.119V11.928H20.498V13.306ZM18.562 19.699C18.508 19.832 18.428 19.95 18.326 20.053C18.223 20.156 18.102 20.237 17.971 20.291C17.701 20.401 17.394 20.401 17.13 20.292C16.995 20.236 16.874 20.155 16.772 20.053C16.671 19.952 16.59 19.831 16.534 19.694C16.513 19.643 16.515 19.586 16.502 19.532H18.598C18.582 19.588 18.585 19.645 18.562 19.699ZM19.119 18.032V16.55C19.434 16.638 19.699 16.78 19.905 16.995C20.197 17.3 20.346 17.695 20.423 18.032H19.119Z" fill="#1B1A16"/>
</svg>
