<svg width="24" height="24" viewBox="0 0 24 24" fill="none" xmlns="http://www.w3.org/2000/svg">
<path fill-rule="evenodd" clip-rule="evenodd" d="M7.10909 4.02585C8.40622 2.72872 10.1655 2 11.9999 2C13.8343 2 15.5936 2.72872 16.8907 4.02585C18.1878 5.32297 18.9166 7.08225 18.9166 8.91667V15.0833C18.9166 16.9177 18.1878 18.677 16.8907 19.9742C15.5936 21.2713 13.8343 22 11.9999 22C10.1655 22 8.40622 21.2713 7.10909 19.9742C5.81197 18.677 5.08325 16.9177 5.08325 15.0833V8.91667C5.08325 7.08225 5.81197 5.32297 7.10909 4.02585ZM11.9999 3.5C10.5633 3.5 9.18558 4.07068 8.16975 5.0865C7.15393 6.10233 6.58325 7.48008 6.58325 8.91667V15.0833C6.58325 16.5199 7.15393 17.8977 8.16975 18.9135C9.18558 19.9293 10.5633 20.5 11.9999 20.5C13.4365 20.5 14.8142 19.9293 15.8301 18.9135C16.8459 17.8977 17.4166 16.5199 17.4166 15.0833V8.91667C17.4166 7.48008 16.8459 6.10233 15.8301 5.0865C14.8142 4.07068 13.4365 3.5 11.9999 3.5ZM12 7.2C11.8718 7.2 11.7489 7.25092 11.6582 7.34156C11.5676 7.43221 11.5166 7.55514 11.5166 7.68333V10.15C11.5166 10.2782 11.5676 10.4011 11.6582 10.4918C11.7489 10.5824 11.8718 10.6333 12 10.6333C12.1282 10.6333 12.2511 10.5824 12.3417 10.4918C12.4324 10.4011 12.4833 10.2782 12.4833 10.15V7.68333C12.4833 7.55514 12.4324 7.43221 12.3417 7.34156C12.2511 7.25092 12.1282 7.2 12 7.2ZM10.5975 6.28091C10.9695 5.90896 11.474 5.7 12 5.7C12.526 5.7 13.0305 5.90896 13.4024 6.28091C13.7744 6.65285 13.9833 7.15732 13.9833 7.68333V10.15C13.9833 10.676 13.7744 11.1805 13.4024 11.5524C13.0305 11.9244 12.526 12.1333 12 12.1333C11.474 12.1333 10.9695 11.9244 10.5975 11.5524C10.2256 11.1805 10.0166 10.676 10.0166 10.15V7.68333C10.0166 7.15732 10.2256 6.65285 10.5975 6.28091Z" fill="#1B1A16"/>
</svg>
