<svg width="24" height="24" viewBox="0 0 24 24" fill="none" xmlns="http://www.w3.org/2000/svg">
<path fill-rule="evenodd" clip-rule="evenodd" d="M5.74571 6.19617C7.05184 4.77702 8.80172 3.84433 10.7079 3.55116C10.7747 3.5429 10.8426 3.54872 10.9072 3.56826C10.9734 3.58831 11.0346 3.62234 11.0865 3.66806C11.1385 3.71378 11.18 3.77011 11.2083 3.83326C11.2366 3.89641 11.251 3.96489 11.2506 4.03409V4.47002C10.0199 4.63382 8.86892 5.19757 7.98127 6.08521C6.91528 7.15121 6.31641 8.597 6.31641 10.1045V13.8052C6.31641 15.3127 6.91528 16.7585 7.98127 17.8245C9.04727 18.8905 10.4931 19.4894 12.0006 19.4894C13.5082 19.4894 14.954 18.8905 16.0199 17.8245C17.0859 16.7585 17.6848 15.3127 17.6848 13.8052V10.1045C17.6848 8.597 17.0859 7.15121 16.0199 6.08521C15.1323 5.19757 13.9813 4.63382 12.7506 4.47002V4.04095V4.03879L12.7506 4.04349L12.7506 4.04095C12.752 3.75795 12.6929 3.47791 12.5771 3.21965C12.461 2.96061 12.2906 2.72952 12.0775 2.54199C11.8644 2.35445 11.6135 2.21485 11.3418 2.1326C11.0701 2.05035 10.7839 2.02726 10.5026 2.06511L10.4893 2.06714C8.24309 2.41042 6.18079 3.50844 4.64201 5.18037C3.10323 6.8523 2.17974 8.99845 2.02364 11.2653C1.86753 13.5322 2.48812 15.7847 3.78319 17.6518C5.07826 19.5189 6.97058 20.8892 9.14851 21.5372C11.3264 22.1851 13.6601 22.072 15.7652 21.2164C17.8702 20.3609 19.6211 18.8139 20.7295 16.8303C21.8379 14.8468 22.2378 12.5448 21.8631 10.3037C21.4885 8.06248 20.3618 6.01572 18.6685 4.50046C18.3598 4.22424 17.8857 4.25054 17.6095 4.55921C17.3333 4.86788 17.3596 5.34202 17.6682 5.61824C19.1075 6.90622 20.0652 8.64596 20.3837 10.551C20.7021 12.456 20.3623 14.4126 19.4201 16.0986C18.478 17.7847 16.9897 19.0996 15.2004 19.8268C13.4111 20.554 11.4275 20.6502 9.57624 20.0994C7.725 19.5487 6.11652 18.3839 5.01571 16.7969C3.9149 15.2099 3.3874 13.2953 3.52009 11.3684C3.65278 9.44153 4.43775 7.61731 5.74571 6.19617ZM11.2506 5.9881C10.4196 6.13951 9.64751 6.54029 9.04193 7.14587C8.25724 7.93056 7.81641 8.99483 7.81641 10.1045V10.5881H11.2506V5.9881ZM12.7506 10.5881V5.9881C13.5816 6.13951 14.3537 6.54029 14.9593 7.14587C15.744 7.93056 16.1848 8.99483 16.1848 10.1045V10.5881H12.7506ZM11.9923 12.0881C11.9951 12.0881 11.9978 12.0881 12.0006 12.0881C12.0034 12.0881 12.0061 12.0881 12.0089 12.0881H16.1848V13.8052C16.1848 14.9149 15.744 15.9792 14.9593 16.7639C14.1746 17.5486 13.1103 17.9894 12.0006 17.9894C10.8909 17.9894 9.82662 17.5486 9.04193 16.7639C8.25724 15.9792 7.81641 14.9149 7.81641 13.8052V12.0881H11.9923Z" fill="#1B1A16"/>
</svg>
