<svg width="24" height="24" viewBox="0 0 24 24" fill="none" xmlns="http://www.w3.org/2000/svg">
<path fill-rule="evenodd" clip-rule="evenodd" d="M6.36633 6.93335C6.53011 5.70287 7.09377 4.55209 7.98126 3.6646C9.04709 2.59878 10.4927 2 12 2C13.5073 2 14.9529 2.59878 16.0187 3.6646C16.9062 4.55209 17.4698 5.70287 17.6336 6.93335H20.0166C20.2655 6.93335 20.4982 7.0568 20.6377 7.26288C20.7772 7.46896 20.8054 7.73082 20.713 7.96189L20.7107 7.96763L20.7125 7.96322L20.7119 7.96462L20.7107 7.96763L20.7078 7.97451L20.7005 7.99164C20.6949 8.00454 20.6878 8.02034 20.679 8.03885C20.6615 8.07587 20.6374 8.12374 20.6056 8.18086C20.5419 8.29514 20.4474 8.44631 20.3131 8.62144C20.0439 8.97268 19.618 9.41577 18.9681 9.84905C17.6638 10.7186 15.5068 11.5167 12 11.5167C8.4932 11.5167 6.33616 10.7186 5.0319 9.84905C4.38197 9.41577 3.95611 8.97268 3.68683 8.62144C3.55257 8.44631 3.45807 8.29514 3.39441 8.18086C3.36258 8.12374 3.33848 8.07587 3.32095 8.03885C3.31219 8.02034 3.30507 8.00454 3.29946 7.99164L3.29215 7.97451L3.2893 7.96763L3.28808 7.96462L3.28752 7.96322L3.28698 7.96189C3.19456 7.73082 3.22277 7.46896 3.36229 7.26288C3.50181 7.0568 3.73447 6.93335 3.98334 6.93335H6.36633ZM9.04192 4.72527C9.82644 3.94074 10.8905 3.5 12 3.5C13.1095 3.5 14.1735 3.94074 14.958 4.72527C15.5634 5.33069 15.9641 6.10258 16.1155 6.93335H7.88441C8.0358 6.10258 8.43649 5.33069 9.04192 4.72527ZM5.86395 8.60097C5.77951 8.54469 5.70064 8.48867 5.62701 8.43335H18.373C18.2993 8.48867 18.2205 8.54469 18.136 8.60097C17.1278 9.27313 15.2765 10.0167 12 10.0167C8.72346 10.0167 6.87218 9.27313 5.86395 8.60097Z" fill="#1B1A16"/>
<path d="M7.10662 11.2916C7.48611 11.4576 7.65916 11.8998 7.49314 12.2793L3.43713 21.5507C3.27111 21.9301 2.82889 22.1032 2.4494 21.9372C2.06992 21.7712 1.89687 21.3289 2.06288 20.9495L6.11889 11.6781C6.28491 11.2986 6.72713 11.1256 7.10662 11.2916Z" fill="#1B1A16"/>
<path d="M17.8794 11.6738C17.7134 11.2944 17.2712 11.1213 16.8917 11.2873C16.5122 11.4533 16.3392 11.8955 16.5052 12.275L20.5628 21.5505C20.7288 21.93 21.1711 22.103 21.5505 21.937C21.93 21.771 22.1031 21.3288 21.9371 20.9493L17.8794 11.6738Z" fill="#1B1A16"/>
<path fill-rule="evenodd" clip-rule="evenodd" d="M10.5976 14.2976C10.9695 13.9256 11.474 13.7167 12 13.7167C12.526 13.7167 13.0305 13.9256 13.4024 14.2976C13.7744 14.6695 13.9833 15.174 13.9833 15.7C13.9833 16.0943 13.8659 16.4766 13.6504 16.7999H15.0833C15.4975 16.7999 15.8333 17.1357 15.8333 17.5499C15.8333 17.9641 15.4975 18.2999 15.0833 18.2999H12.75V19.0249L14.9166 20.6499C15.248 20.8984 15.3152 21.3685 15.0666 21.6999C14.8181 22.0313 14.348 22.0984 14.0166 21.8499L12 20.3374L9.98331 21.8499C9.65194 22.0984 9.18184 22.0313 8.93331 21.6999C8.68478 21.3685 8.75194 20.8984 9.08331 20.6499L11.25 19.0249V18.2999H8.91666C8.50244 18.2999 8.16666 17.9641 8.16666 17.5499C8.16666 17.1357 8.50244 16.7999 8.91666 16.7999H10.3496C10.1341 16.4766 10.0167 16.0943 10.0167 15.7C10.0167 15.174 10.2256 14.6695 10.5976 14.2976ZM12.0079 16.1833C12.0053 16.1832 12.0026 16.1832 12 16.1832C11.9973 16.1832 11.9947 16.1832 11.9921 16.1833C11.8667 16.1812 11.747 16.1305 11.6582 16.0418C11.5676 15.9511 11.5167 15.8282 11.5167 15.7C11.5167 15.5718 11.5676 15.4489 11.6582 15.3582C11.7489 15.2676 11.8718 15.2167 12 15.2167C12.1282 15.2167 12.2511 15.2676 12.3418 15.3582C12.4324 15.4489 12.4833 15.5718 12.4833 15.7C12.4833 15.8282 12.4324 15.9511 12.3418 16.0418C12.253 16.1305 12.1332 16.1812 12.0079 16.1833Z" fill="#1B1A16"/>
</svg>
