<svg width="24" height="24" viewBox="0 0 24 24" fill="none" xmlns="http://www.w3.org/2000/svg">
<path fill-rule="evenodd" clip-rule="evenodd" d="M6.07835 2.07924C6.4488 1.89394 6.89933 2.04405 7.08462 2.41451C7.43332 3.11166 7.53003 3.71599 7.3912 4.27125C7.27583 4.73269 7.00476 5.08495 6.8414 5.29723C6.82374 5.32018 6.80733 5.3415 6.79252 5.36115C6.61045 5.60258 6.58562 5.67849 6.58357 5.75052C6.58124 5.83245 6.61259 6.08148 7.01392 6.61678C7.2624 6.94819 7.19516 7.41828 6.86375 7.66675C6.53234 7.91523 6.06225 7.84799 5.81377 7.51658C5.33081 6.8724 5.0677 6.28738 5.08418 5.70789C5.10094 5.1185 5.40818 4.70559 5.59488 4.45801C5.60034 4.45077 5.60572 4.44364 5.61101 4.43662C5.81617 4.16462 5.89922 4.05452 5.936 3.90742C5.96275 3.80043 5.98514 3.56948 5.74307 3.08552C5.55778 2.71506 5.70789 2.26453 6.07835 2.07924ZM17.2145 2.07924C17.5849 1.89394 18.0355 2.04405 18.2208 2.41451C18.5695 3.11166 18.6662 3.71599 18.5273 4.27125C18.412 4.73269 18.1409 5.08495 17.9775 5.29723C17.9599 5.32018 17.9435 5.3415 17.9287 5.36115C17.7466 5.60258 17.7218 5.67849 17.7197 5.75052C17.7174 5.83245 17.7487 6.08148 18.1501 6.61678C18.3985 6.94819 18.3313 7.41828 17.9999 7.66675C17.6685 7.91523 17.1984 7.84799 16.9499 7.51658C16.4669 6.8724 16.2038 6.28738 16.2203 5.70789C16.2371 5.1185 16.5443 4.70559 16.731 4.45801L16.7471 4.43662C16.9523 4.16462 17.0353 4.05452 17.0721 3.90742C17.0989 3.80043 17.1213 3.56948 16.8792 3.08552C16.6939 2.71506 16.844 2.26453 17.2145 2.07924ZM12 5.70001C12.4142 5.70001 12.75 6.0358 12.75 6.45001L12.75 8.1798C14.389 8.23843 15.9241 8.49893 17.1188 9.06768C17.8144 9.39884 18.4228 9.8479 18.8579 10.4495C19.2989 11.0591 19.5333 11.7867 19.5333 12.6167V13.1H21.25C21.6642 13.1 22 13.4358 22 13.85C22 14.2642 21.6642 14.6 21.25 14.6H19.5333V19.6056C19.5333 20.2406 19.2811 20.8496 18.832 21.2987C18.383 21.7477 17.7739 22 17.1389 22H6.86111C6.22606 22 5.61703 21.7477 5.16798 21.2987C4.71894 20.8496 4.46667 20.2406 4.46667 19.6056V14.6H2.75C2.33579 14.6 2 14.2642 2 13.85C2 13.4358 2.33579 13.1 2.75 13.1H4.46667V12.6167C4.46667 11.7867 4.70113 11.0591 5.14208 10.4495C5.57718 9.8479 6.18556 9.39884 6.88119 9.06768C8.0759 8.49893 9.61101 8.23843 11.25 8.1798L11.25 6.45001C11.25 6.0358 11.5858 5.70001 12 5.70001ZM5.96667 13.3667H18.0333V13.8483C18.0333 13.8489 18.0333 13.8494 18.0333 13.85C18.0333 13.8506 18.0333 13.8512 18.0333 13.8517V19.6056C18.0333 19.8428 17.9391 20.0703 17.7714 20.238C17.6036 20.4058 17.3761 20.5 17.1389 20.5H6.86111C6.62389 20.5 6.39639 20.4058 6.22864 20.238C6.0609 20.0703 5.96667 19.8428 5.96667 19.6056V13.3667ZM17.9191 11.8667C17.8526 11.6673 17.7588 11.4894 17.6425 11.3286C17.3911 10.9809 17.006 10.6753 16.4741 10.422C15.3943 9.90802 13.8292 9.66668 12 9.66668C10.1708 9.66668 8.60569 9.90802 7.52594 10.422C6.99399 10.6753 6.60893 10.9809 6.35748 11.3286C6.24117 11.4894 6.14738 11.6673 6.08086 11.8667H17.9191ZM13.1 17.55C13.1 17.1358 13.4358 16.8 13.85 16.8H15.0833C15.4975 16.8 15.8333 17.1358 15.8333 17.55C15.8333 17.9642 15.4975 18.3 15.0833 18.3H13.85C13.4358 18.3 13.1 17.9642 13.1 17.55Z" fill="#1B1A16"/>
</svg>
