<svg width="24" height="24" viewBox="0 0 24 24" fill="none" xmlns="http://www.w3.org/2000/svg">
<path fill-rule="evenodd" clip-rule="evenodd" d="M6.65555 3.5C6.20026 3.5 5.76362 3.68086 5.44168 4.0028C5.11975 4.32474 4.93888 4.76138 4.93888 5.21667V5.41932C4.93889 5.42029 4.93889 5.42126 4.93889 5.42222C4.93889 5.42319 4.93889 5.42416 4.93888 5.42512V9.53044C4.93889 9.5314 4.93889 9.53237 4.93889 9.53333C4.93889 9.5343 4.93889 9.53527 4.93888 9.53623V13.6415C4.93889 13.6425 4.93889 13.6435 4.93889 13.6444C4.93889 13.6454 4.93889 13.6464 4.93888 13.6473V15.4944C4.93888 15.9497 5.11975 16.3864 5.44168 16.7083C5.76362 17.0302 6.20026 17.2111 6.65555 17.2111H7.27222C7.68643 17.2111 8.02222 17.5469 8.02222 17.9611C8.02222 18.3753 7.68643 18.7111 7.27222 18.7111H6.65555C5.80244 18.7111 4.98426 18.3722 4.38102 17.769C3.77778 17.1657 3.43888 16.3476 3.43888 15.4944V14.3944H2.75C2.33579 14.3944 2 14.0587 2 13.6444C2 13.2302 2.33579 12.8944 2.75 12.8944H3.43888V10.2833H2.75C2.33579 10.2833 2 9.94755 2 9.53333C2 9.11912 2.33579 8.78333 2.75 8.78333H3.43888V6.17222H2.75C2.33579 6.17222 2 5.83644 2 5.42222C2 5.00801 2.33579 4.67222 2.75 4.67222H3.48528C3.59709 4.02117 3.90768 3.41549 4.38102 2.94214C4.98426 2.3389 5.80244 2 6.65555 2H17.3444C18.1975 2 19.0157 2.3389 19.619 2.94214C20.2222 3.54538 20.5611 4.36355 20.5611 5.21667V6.72778H21.25C21.6642 6.72778 22 7.06356 22 7.47778C22 7.89199 21.6642 8.22778 21.25 8.22778H20.5611V10.8389H21.25C21.6642 10.8389 22 11.1747 22 11.5889C22 12.0031 21.6642 12.3389 21.25 12.3389H20.5611V14.95H21.25C21.6642 14.95 22 15.2858 22 15.7C22 16.1142 21.6642 16.45 21.25 16.45H20.4162C20.3162 16.7715 20.1659 17.0773 19.9689 17.3553C19.5834 17.8993 19.0383 18.31 18.4091 18.5307C18.0183 18.6678 17.5903 18.4621 17.4532 18.0712C17.3161 17.6804 17.5218 17.2524 17.9127 17.1153C18.2484 16.9975 18.5393 16.7783 18.745 16.4879C18.9508 16.1976 19.0612 15.8506 19.0611 15.4947V5.21667C19.0611 4.76138 18.8802 4.32474 18.5583 4.0028C18.2364 3.68086 17.7997 3.5 17.3444 3.5H6.65555ZM12.8222 5.55556C12.694 5.55556 12.5711 5.60648 12.4804 5.69712C12.3898 5.78776 12.3389 5.9107 12.3389 6.03889V9.94445C12.3389 10.3587 12.0031 10.6944 11.5889 10.6944C11.1747 10.6944 10.8389 10.3587 10.8389 9.94445V6.45C10.8389 6.32181 10.788 6.19887 10.6973 6.10823C10.6067 6.01759 10.4837 5.96667 10.3555 5.96667C10.2274 5.96667 10.1044 6.01759 10.0138 6.10823C9.92314 6.19887 9.87221 6.32181 9.87221 6.45V11.382C9.87221 11.3824 9.87222 11.3829 9.87222 11.3833C9.87222 11.383 9.87222 11.3836 9.87222 11.3833L9.87221 12C9.87221 12.4142 9.53643 12.75 9.12221 12.75C8.708 12.75 8.37221 12.4142 8.37221 12L8.37222 11.3833C8.37222 11.3831 8.37222 11.3836 8.37222 11.3833C8.37204 11.2554 8.32113 11.132 8.23065 11.0416C8.14001 10.9509 8.01707 10.9 7.88888 10.9C7.76069 10.9 7.63776 10.9509 7.54711 11.0416C7.45647 11.1322 7.40555 11.2551 7.40555 11.3833V12.2013C7.41684 13.1548 7.75261 14.076 8.35761 14.8131L8.36402 14.8209C8.65209 15.1816 9.01761 15.473 9.43359 15.6733C9.84957 15.8735 10.3053 15.9776 10.767 15.9778C11.1811 15.9779 11.5167 16.3137 11.5167 16.7278V21.25C11.5167 21.6642 11.1809 22 10.7667 22C10.3524 22 10.0167 21.6642 10.0167 21.25V17.4157C9.59022 17.3447 9.17472 17.2134 8.78292 17.0248C8.16568 16.7276 7.62304 16.2957 7.195 15.7609C6.37453 14.7595 5.9197 13.5084 5.90559 12.2137L5.90551 12.2056L5.90555 11.3833C5.90555 10.8573 6.11451 10.3529 6.48645 9.9809C6.8584 9.60896 7.36287 9.4 7.88888 9.4C8.05322 9.4 8.21546 9.4204 8.37221 9.45979V6.45C8.37221 5.92399 8.58117 5.41952 8.95312 5.04757C9.32507 4.67562 9.82954 4.46667 10.3555 4.46667C10.7022 4.46667 11.0396 4.55744 11.3358 4.72583C11.3628 4.69527 11.3908 4.66546 11.4198 4.63646C11.7917 4.26451 12.2962 4.05556 12.8222 4.05556C13.3482 4.05556 13.8527 4.26451 14.2246 4.63646C14.4838 4.89559 14.6638 5.21904 14.7492 5.56929C14.9233 5.52005 15.1047 5.49444 15.2889 5.49444C15.8149 5.49444 16.3194 5.7034 16.6913 6.07535C17.0633 6.4473 17.2722 6.95177 17.2722 7.47778V14.132C17.2722 14.132 17.2722 14.132 17.2722 14.132C17.2722 14.6625 17.1677 15.1879 16.9647 15.678C16.7616 16.1681 16.4641 16.6134 16.0889 16.9884C16.0889 16.9884 16.0889 16.9884 16.0889 16.9884L16.0389 17.0384V21.25C16.0389 21.6642 15.7031 22 15.2889 22C14.8747 22 14.5389 21.6642 14.5389 21.25V16.7278C14.5389 16.5289 14.6179 16.3381 14.7585 16.1974L15.0282 15.9278C15.2641 15.692 15.4513 15.412 15.5789 15.1039C15.7065 14.7958 15.7722 14.4655 15.7722 14.1321V7.47778C15.7722 7.34959 15.7213 7.22665 15.6306 7.13601C15.54 7.04537 15.4171 6.99444 15.2889 6.99444C15.1607 6.99444 15.0378 7.04537 14.9471 7.13601C14.8565 7.22665 14.8055 7.34959 14.8055 7.47778V9.94445C14.8055 10.3587 14.4698 10.6944 14.0555 10.6944C13.6413 10.6944 13.3055 10.3587 13.3055 9.94445V6.03889C13.3055 5.9107 13.2546 5.78776 13.164 5.69712C13.0733 5.60648 12.9504 5.55556 12.8222 5.55556Z" fill="#1B1A16"/>
</svg>
