<svg width="24" height="24" viewBox="0 0 24 24" fill="none" xmlns="http://www.w3.org/2000/svg">
<path fill-rule="evenodd" clip-rule="evenodd" d="M5.4222 3.5C5.40304 3.5 5.38467 3.50761 5.37113 3.52115C5.35758 3.5347 5.34998 3.55307 5.34998 3.57222V4.46667H18.65V3.57222C18.65 3.55307 18.6424 3.5347 18.6288 3.52115C18.6153 3.50761 18.5969 3.5 18.5778 3.5H5.4222ZM18.65 5.96667H16.5469C16.6787 6.4678 16.9413 6.92994 17.314 7.30263C17.6867 7.67532 18.1489 7.93799 18.65 8.06974L18.65 5.96667ZM20.15 8.91133L20.15 3.57222C20.15 3.15524 19.9843 2.75534 19.6895 2.46049C19.3946 2.16564 18.9947 2 18.5778 2H5.4222C5.00522 2 4.60532 2.16564 4.31047 2.46049C4.01562 2.75534 3.84998 3.15524 3.84998 3.57222L3.85 20.0167C3.85 20.5427 4.05896 21.0471 4.4309 21.4191C4.80285 21.791 5.30732 22 5.83333 22H8.79296C8.79284 22 8.79309 22 8.79296 22C9.26631 22.0001 9.72447 21.831 10.084 21.5231C10.4436 21.2151 10.6812 20.7887 10.7538 20.3208C10.7571 20.2995 10.7595 20.2781 10.761 20.2567L11.3602 11.4513C11.3837 11.3023 11.4587 11.1659 11.5723 11.066C11.6905 10.962 11.8426 10.9047 12 10.9047C12.1574 10.9047 12.3095 10.962 12.4277 11.066C12.5414 11.1659 12.6163 11.3023 12.6399 11.4515L13.2432 20.257C13.2446 20.2784 13.247 20.2996 13.2503 20.3208C13.3227 20.7875 13.5593 21.2131 13.9176 21.5209C14.2758 21.8288 14.7322 21.9987 15.2045 22L15.2067 22H18.1667C18.6927 22 19.1972 21.791 19.5691 21.4191C19.941 21.0471 20.15 20.5427 20.15 20.0167L20.15 8.922C20.15 8.92023 20.15 8.91845 20.15 8.91667C20.15 8.91489 20.15 8.91311 20.15 8.91133ZM18.65 9.60303C17.7481 9.44881 16.909 9.0189 16.2534 8.36329C15.5978 7.70768 15.1679 6.86856 15.0136 5.96667H8.98636C8.83215 6.86856 8.40224 7.70768 7.74663 8.36329C7.09101 9.01891 6.25189 9.44882 5.34998 9.60303L5.35 20.0167C5.35 20.1449 5.40092 20.2678 5.49157 20.3584C5.58221 20.4491 5.70515 20.5 5.83333 20.5H8.79333C8.90872 20.5001 9.02069 20.4588 9.10833 20.3838C9.18966 20.3141 9.24537 20.2196 9.26712 20.1152L9.86546 11.3225C9.86649 11.3075 9.86797 11.2924 9.86991 11.2774C9.93676 10.7597 10.1899 10.2841 10.5819 9.93945C10.9739 9.5948 11.478 9.40471 12 9.40471C12.522 9.40471 13.0261 9.5948 13.4181 9.93945C13.8101 10.2841 14.0632 10.7597 14.1301 11.2774C14.132 11.2923 14.1335 11.3072 14.1345 11.3222L14.737 20.1151C14.7586 20.2193 14.8141 20.3136 14.8952 20.3833C14.9822 20.4581 15.0931 20.4994 15.2078 20.5H18.1667C18.2949 20.5 18.4178 20.4491 18.5084 20.3584C18.5991 20.2678 18.65 20.1449 18.65 20.0167L18.65 9.60303ZM5.34998 8.06975C5.85112 7.938 6.31327 7.67533 6.68597 7.30263C7.05866 6.92994 7.32133 6.4678 7.45308 5.96667H5.34998L5.34998 8.06975Z" fill="#1B1A16"/>
</svg>
