<svg width="24" height="24" viewBox="0 0 24 24" fill="none" xmlns="http://www.w3.org/2000/svg">
<path d="M19.8989 3.483C18.9409 2.527 17.6689 2 16.3159 2H7.68294C6.32994 2 5.05794 2.526 4.10094 3.483C3.14494 4.439 2.61694 5.711 2.61694 7.064V20.016C2.61694 20.545 2.82394 21.043 3.19794 21.417C3.56594 21.788 4.07694 22 4.59994 22H10.7669C11.2969 22 11.7949 21.794 12.1689 21.419C12.5439 21.044 12.7499 20.546 12.7499 20.017V10.664C13.7059 11.611 14.9709 12.134 16.3159 12.134C17.6689 12.134 18.9409 11.607 19.8989 10.65C20.8559 9.693 21.3819 8.421 21.3819 7.067C21.3829 5.714 20.8559 4.441 19.8989 3.483ZM11.2499 20.017C11.2499 20.146 11.1999 20.267 11.1079 20.359C11.0169 20.45 10.8949 20.501 10.7659 20.501H4.59994C4.47294 20.501 4.34894 20.449 4.25794 20.359C4.16694 20.267 4.11594 20.146 4.11594 20.017V7.065C4.11594 6.112 4.48794 5.217 5.16094 4.544C5.83494 3.871 6.72994 3.5 7.68294 3.5H12.7169C12.5539 3.665 12.4209 3.849 12.2839 4.031C12.2239 4.111 12.1499 4.18 12.0949 4.262C11.9569 4.469 11.8509 4.692 11.7459 4.915C11.7109 4.988 11.6629 5.055 11.6319 5.13C11.5249 5.389 11.4499 5.661 11.3879 5.937C11.3779 5.983 11.3569 6.025 11.3469 6.072C11.2829 6.396 11.2499 6.728 11.2499 7.065V20.017ZM18.8389 9.588C17.4909 10.936 15.1419 10.935 13.7939 9.588C13.1209 8.915 12.7499 8.02 12.7499 7.066C12.7499 6.113 13.1209 5.218 13.7939 4.545C14.4679 3.871 15.3639 3.5 16.3159 3.5C17.2679 3.5 18.1649 3.871 18.8379 4.544C19.5009 5.209 19.8819 6.128 19.8819 7.066C19.8829 8.019 19.5119 8.915 18.8389 9.588Z" fill="#1B1A16"/>
<path d="M14.9139 5.664C14.5389 6.039 14.3329 6.537 14.3329 7.067C14.3329 7.589 14.5449 8.1 14.9149 8.47C15.2889 8.844 15.7869 9.05 16.3159 9.05C16.8449 9.05 17.3429 8.844 17.7179 8.469C18.0879 8.1 18.2999 7.589 18.2999 7.067C18.2999 6.537 18.0939 6.039 17.7179 5.664C16.9699 4.916 15.6639 4.915 14.9139 5.664ZM16.6589 7.408C16.4749 7.591 16.1559 7.59 15.9739 7.408C15.8839 7.318 15.8319 7.193 15.8319 7.066C15.8319 6.939 15.8839 6.814 15.9729 6.724C16.0649 6.633 16.1869 6.582 16.3159 6.582C16.4449 6.582 16.5669 6.632 16.6579 6.723C16.7479 6.813 16.7999 6.938 16.7999 7.065C16.7999 7.194 16.7479 7.319 16.6589 7.408Z" fill="#1B1A16"/>
</svg>
