<svg width="24" height="24" viewBox="0 0 24 24" fill="none" xmlns="http://www.w3.org/2000/svg">
<path fill-rule="evenodd" clip-rule="evenodd" d="M21.7134 2.16029C22.0391 2.4162 22.0956 2.88769 21.8397 3.2134L16.0098 10.6334H21.25C21.6641 10.6334 21.9999 10.969 22 11.3831C22.0005 12.7013 21.6549 13.9964 20.998 15.1391C20.4474 16.0967 19.6943 16.9192 18.7942 17.5505C18.8741 17.8452 18.9167 18.1551 18.9167 18.475C18.9167 20.4219 17.3385 22 15.3917 22C13.4448 22 11.8667 20.4219 11.8667 18.475C11.8667 18.4685 11.8667 18.462 11.8667 18.4555C10.5165 17.9585 9.33222 17.0835 8.45898 15.929C7.57835 14.7646 7.05739 13.3733 6.95272 11.9258C5.38496 11.4283 4.19342 10.0859 3.91293 8.43336L2.75 8.43337C2.33579 8.43337 2 8.09758 2 7.68337C2 7.26915 2.33579 6.93337 2.75 6.93337L3.91293 6.93336C4.26945 4.83283 6.09794 3.23336 8.3 3.23336C10.7577 3.23336 12.75 5.2257 12.75 7.68336C12.75 10.0809 10.854 12.0356 8.47957 12.1298C8.6102 13.1764 9.0135 14.1755 9.65532 15.0241C10.3147 15.8958 11.1954 16.5686 12.2002 16.9764C12.7634 15.7789 13.9807 14.95 15.3917 14.95C16.4751 14.95 17.4443 15.4388 18.0909 16.2078C18.742 15.7188 19.2893 15.1016 19.6976 14.3915C20.0983 13.6944 20.3544 12.9264 20.4535 12.1334H14.4731C14.4685 12.1334 14.4638 12.1334 14.4592 12.1334H12.6167C12.2025 12.1334 11.8667 11.7976 11.8667 11.3834C11.8667 10.9692 12.2025 10.6334 12.6167 10.6334H14.1021L20.6603 2.28667C20.9162 1.96096 21.3877 1.90438 21.7134 2.16029ZM17.1895 17.5423C16.8521 16.8933 16.1737 16.45 15.3917 16.45C14.2733 16.45 13.3667 17.3566 13.3667 18.475C13.3667 19.5934 14.2733 20.5 15.3917 20.5C16.5101 20.5 17.4167 19.5934 17.4167 18.475C17.4167 18.1672 17.348 17.8754 17.2251 17.6141C17.2118 17.5906 17.2 17.5666 17.1895 17.5423ZM8.3 4.73336C6.67076 4.73336 5.35 6.05413 5.35 7.68336C5.35 9.3126 6.67076 10.6334 8.3 10.6334C9.92924 10.6334 11.25 9.3126 11.25 7.68336C11.25 6.05413 9.92924 4.73336 8.3 4.73336ZM6.93333 6.75837C6.93333 6.17386 7.40716 5.70003 7.99167 5.70003C8.57617 5.70003 9.05 6.17386 9.05 6.75837C9.05 7.34287 8.57617 7.8167 7.99167 7.8167C7.40716 7.8167 6.93333 7.34287 6.93333 6.75837Z" fill="#1B1A16"/>
</svg>
