<svg width="24" height="24" viewBox="0 0 24 24" fill="none" xmlns="http://www.w3.org/2000/svg">
<path fill-rule="evenodd" clip-rule="evenodd" d="M5.68298 2.56821C5.7627 2.22942 6.065 1.98999 6.41304 1.98999H13.8943C15.1801 1.98999 16.5744 2.44919 17.5532 3.4511C18.5606 4.48228 19.0463 6.00559 18.6256 7.93181C18.297 9.51576 17.4213 10.9335 16.1519 11.9365C14.8843 12.9379 13.3051 13.4619 11.6906 13.4168H9.13835L7.93508 18.2622C7.85203 18.5966 7.55178 18.8315 7.20719 18.8315H2.80329C2.57417 18.8315 2.35761 18.7267 2.21536 18.5471C2.0731 18.3675 2.02075 18.1327 2.07323 17.9097L5.68298 2.56821ZM7.00705 3.48999L3.75024 17.3315H6.62066L7.82393 12.4861C7.90698 12.1516 8.20723 11.9168 8.55182 11.9168H11.7013C11.7087 11.9168 11.7161 11.9169 11.7235 11.9171C12.9895 11.9546 14.2282 11.5447 15.222 10.7595C16.2158 9.9743 16.9011 8.86403 17.1576 7.62372L17.1594 7.61514L17.1594 7.61515C17.4862 6.12314 17.0965 5.13011 16.4802 4.49931C15.8346 3.83847 14.8555 3.48999 13.8943 3.48999H7.00705ZM12.2535 4.82367C12.6185 4.80919 12.9817 4.88354 13.3119 5.04045C13.648 5.20024 13.9395 5.44067 14.1602 5.74036C14.3809 6.04004 14.5242 6.38966 14.5771 6.75809C14.6282 7.11431 14.5935 7.47742 14.4759 7.81716C14.2867 8.51505 13.8834 9.13639 13.3224 9.5934C12.7525 10.0576 12.0495 10.3281 11.3154 10.3656C11.3027 10.3663 11.2899 10.3666 11.2771 10.3666H9.21056C8.98295 10.3666 8.76765 10.2632 8.62531 10.0856C8.48297 9.908 8.42899 9.67536 8.47858 9.45321L9.38101 5.41028C9.45754 5.06746 9.76174 4.82367 10.113 4.82367H12.2535ZM12.6679 6.39521C12.5552 6.34161 12.4309 6.31674 12.3062 6.32279C12.2941 6.32338 12.282 6.32367 12.2698 6.32367H10.714L10.1464 8.8666H11.2564C11.6657 8.84199 12.057 8.68949 12.3751 8.4304C12.6977 8.16759 12.9282 7.80881 13.0331 7.40612C13.039 7.38318 13.0461 7.36054 13.0542 7.33827C13.097 7.22097 13.1101 7.09492 13.0923 6.97134C13.0746 6.84776 13.0265 6.73049 12.9525 6.62997C12.8784 6.52945 12.7807 6.4488 12.6679 6.39521ZM20.3663 7.22158C20.7271 7.01812 21.1846 7.14568 21.388 7.50648C22.2277 8.99545 22.0694 11.2478 21.0536 13.083C20.0065 14.9751 18.0007 16.5303 15.0156 16.5753L15.0042 16.5754V16.5754H12.3301L11.1018 21.4242C11.0175 21.7569 10.718 21.99 10.3747 21.99H5.97084C5.74696 21.99 5.53479 21.89 5.39231 21.7173C5.24984 21.5446 5.19196 21.3173 5.2345 21.0975L5.45109 19.9785C5.5298 19.5718 5.92327 19.3059 6.32994 19.3846C6.73661 19.4633 7.00247 19.8568 6.92376 20.2635L6.87992 20.49H9.79104L11.0194 15.6412C11.1037 15.3084 11.4032 15.0754 11.7464 15.0754H14.9984C17.3977 15.0374 18.9323 13.8183 19.7412 12.3567C20.5823 10.8371 20.5955 9.15478 20.0814 8.24327C19.878 7.88247 20.0055 7.42504 20.3663 7.22158Z" fill="#1B1A16"/>
</svg>
