<svg width="24" height="24" viewBox="0 0 24 24" fill="none" xmlns="http://www.w3.org/2000/svg">
<path d="M21.598 3.32305C21.339 3.06705 20.996 2.92505 20.633 2.92505H3.367C3.003 2.92505 2.66 3.06705 2.401 3.32505C2.142 3.58305 2 3.92605 2 4.29205V11.076C2 11.891 2.108 12.688 2.297 13.461C2.302 13.477 2.299 13.492 2.305 13.508C2.306 13.511 2.309 13.513 2.31 13.516C2.744 15.252 3.63 16.849 4.929 18.147C5.789 19.007 6.782 19.681 7.856 20.171L7.859 20.174C7.873 20.1831 7.889 20.186 7.904 20.195C9.176 20.766 10.563 21.077 12 21.077C13.446 21.077 14.841 20.7631 16.12 20.1831C16.126 20.1791 16.133 20.178 16.14 20.174L16.141 20.173C17.217 19.6831 18.211 19.008 19.072 18.147C20.37 16.849 21.256 15.253 21.69 13.518C21.691 13.514 21.695 13.512 21.696 13.508C21.703 13.49 21.7 13.473 21.706 13.455C21.893 12.684 22 11.889 22 11.075V4.29205C22 3.92505 21.857 3.58205 21.598 3.32305ZM3.933 13.743C4.442 13.645 4.965 13.654 5.476 13.785C6.21 13.973 6.854 14.378 7.339 14.96C7.823 15.541 8.107 16.248 8.158 17.003C8.194 17.53 8.107 18.047 7.919 18.531C7.22 18.146 6.569 17.665 5.99 17.085C5.036 16.131 4.344 14.988 3.933 13.743ZM9.296 19.129C9.579 18.426 9.706 17.671 9.654 16.901C9.582 15.829 9.179 14.825 8.491 13.999C7.803 13.174 6.888 12.597 5.846 12.332C5.101 12.144 4.337 12.132 3.595 12.283C3.539 11.885 3.5 11.483 3.5 11.075V10.592H5.833C6.247 10.592 6.583 10.256 6.583 9.84205C6.583 9.42805 6.247 9.09205 5.833 9.09205H3.5V7.50805H6.45C6.864 7.50805 7.2 7.17205 7.2 6.75805C7.2 6.34405 6.864 6.00805 6.45 6.00805H3.5V4.42505H20.5V6.00805H17.55C17.136 6.00805 16.8 6.34405 16.8 6.75805C16.8 7.17205 17.136 7.50805 17.55 7.50805H20.5V9.09105H18.166C17.752 9.09105 17.416 9.42705 17.416 9.84105C17.416 10.255 17.752 10.591 18.166 10.591H20.5V11.074C20.5 11.482 20.462 11.884 20.405 12.281C19.664 12.131 18.9 12.141 18.153 12.331C17.111 12.597 16.197 13.173 15.508 13.998C14.82 14.822 14.418 15.826 14.345 16.901C14.293 17.671 14.421 18.425 14.703 19.128C13.842 19.416 12.933 19.574 11.999 19.574C11.065 19.574 10.157 19.417 9.296 19.129ZM18.011 17.085C17.431 17.665 16.781 18.147 16.081 18.531C15.893 18.048 15.807 17.53 15.842 17.004C15.895 16.247 16.178 15.54 16.661 14.96C17.145 14.379 17.79 13.973 18.524 13.785C19.035 13.655 19.557 13.646 20.066 13.744C19.656 14.988 18.965 16.131 18.011 17.085Z" fill="#1B1A16"/>
<path d="M16.45 9.02905C16.45 8.39805 16.21 7.79805 15.775 7.34305C15.559 7.11505 15.302 6.93605 15.01 6.81105C14.43 6.56405 13.771 6.56305 13.189 6.81205C12.9 6.93605 12.643 7.11405 12.429 7.33805L12 7.78305L11.574 7.34305C11.358 7.11505 11.101 6.93705 10.809 6.81205C10.231 6.56505 9.57 6.56505 8.989 6.81205C8.699 6.93705 8.442 7.11505 8.226 7.34205C7.79 7.79805 7.55 8.39705 7.55 9.02905C7.55 9.66105 7.79 10.26 8.269 10.758L11.114 13.297C11.229 13.417 11.364 13.512 11.517 13.577C11.671 13.643 11.834 13.677 12 13.677C12.166 13.677 12.329 13.644 12.483 13.577C12.637 13.51 12.774 13.415 12.844 13.338L15.773 10.717C16.21 10.26 16.45 9.66005 16.45 9.02905ZM14.731 9.63905L12.001 12.081L9.311 9.68005C9.143 9.50405 9.05 9.27205 9.05 9.02905C9.05 8.78605 9.143 8.55405 9.312 8.37705C9.388 8.29705 9.479 8.23405 9.58 8.19105C9.682 8.14705 9.79 8.12505 9.9 8.12505C10.011 8.12505 10.119 8.14705 10.219 8.19005C10.322 8.23405 10.412 8.29705 10.492 8.38105L11.461 9.38305C11.743 9.67505 12.257 9.67505 12.539 9.38305L13.511 8.37805C13.588 8.29805 13.679 8.23505 13.781 8.19105C13.984 8.10305 14.219 8.10405 14.421 8.19005C14.524 8.23405 14.613 8.29605 14.691 8.37805C14.859 8.55405 14.952 8.78605 14.952 9.02905C14.952 9.27205 14.857 9.50405 14.731 9.63905Z" fill="#1B1A16"/>
</svg>
