<svg width="24" height="24" viewBox="0 0 24 24" fill="none" xmlns="http://www.w3.org/2000/svg">
<path fill-rule="evenodd" clip-rule="evenodd" d="M11.9976 9.5437C10.9687 8.51488 9.30069 8.51488 8.27187 9.5437C7.24575 10.5698 7.24305 12.2318 8.26376 13.2613L10.9359 16.0893C11.5137 16.7008 12.4868 16.7008 13.0646 16.0893L15.7367 13.2612C16.7574 12.2318 16.7547 10.5698 15.7286 9.5437C14.6998 8.51488 13.0318 8.51488 12.0029 9.5437L12.0002 9.54638L11.9976 9.5437ZM9.33252 10.6044C9.77556 10.1613 10.4939 10.1613 10.9369 10.6044L11.4699 11.1374C11.7628 11.4303 12.2377 11.4303 12.5306 11.1374L13.0636 10.6044C13.5066 10.1613 14.2249 10.1613 14.668 10.6044C15.111 11.0474 15.111 11.7657 14.668 12.2087L14.6604 12.2164L14.6532 12.224L12.0002 15.0316L9.34734 12.224C9.34247 12.2188 9.33753 12.2137 9.33252 12.2087C8.88949 11.7657 8.88949 11.0474 9.33252 10.6044Z" fill="white"/>
<path fill-rule="evenodd" clip-rule="evenodd" d="M8.44898 2.08461C8.63936 2.19171 8.77358 2.37649 8.81658 2.59065C8.9434 3.22229 9.2809 4.17442 9.85518 4.9367C10.421 5.68778 11.1508 6.17946 12.0995 6.14137C13.0969 6.10133 13.9317 5.55282 14.5997 4.7864C15.2695 4.01794 15.7066 3.09965 15.8962 2.50905C15.9604 2.30902 16.1056 2.14509 16.2963 2.05715C16.4871 1.96921 16.7061 1.96533 16.8999 2.04644L20.7634 3.66347C21.4141 3.93584 21.8377 4.57232 21.8377 5.27778V8.60129C21.8377 9.19876 21.4149 9.71269 20.8286 9.82785L18.8488 10.2167V15.7376C18.8488 15.9932 18.7186 16.2313 18.5034 16.3691C18.0022 16.6902 17.2059 17.3464 16.5263 18.2298C15.846 19.1141 15.3262 20.1686 15.272 21.2977C15.2528 21.6975 14.9231 22.0117 14.5228 22.0117H9.85269C9.50314 22.0117 9.19993 21.7702 9.12171 21.4295C8.94646 20.6662 8.43354 19.4876 7.72511 18.4434C7.37418 17.9261 6.99029 17.4644 6.59801 17.1121C6.20089 16.7556 5.83211 16.5442 5.51216 16.4663C5.17612 16.3845 4.93961 16.0835 4.93961 15.7376V10.2078L2.75723 9.74641C2.41047 9.67311 2.16235 9.36706 2.16235 9.01263V5.31341C2.16235 4.5769 2.62348 3.91922 3.31588 3.66819L7.82563 2.03319C8.03098 1.95874 8.25859 1.97752 8.44898 2.08461ZM4.93961 8.67461V8.34547C4.93961 7.93126 5.27539 7.59547 5.68961 7.59547C6.10382 7.59547 6.43961 7.93126 6.43961 8.34547V15.21C6.86173 15.4037 7.25095 15.6825 7.6002 15.9961C8.10713 16.4513 8.56817 17.0143 8.9664 17.6013C9.60923 18.5488 10.1278 19.6181 10.42 20.5117H13.8533C14.0705 19.27 14.6713 18.1811 15.3374 17.3152C15.9956 16.4596 16.7476 15.7822 17.3488 15.3433V8.34547C17.3488 8.34547 17.4084 7.62695 18.0647 7.62695C18.7952 7.62695 18.8488 8.34547 18.8488 8.34547V8.68808L20.3377 8.39562V5.27778C20.3377 5.177 20.2772 5.08607 20.1842 5.04716L17.0292 3.72667C16.7394 4.36898 16.3078 5.1096 15.7305 5.77195C14.9035 6.7208 13.7134 7.57779 12.1596 7.64016C10.5572 7.70449 9.40603 6.83335 8.65713 5.83929C8.14705 5.16223 7.79327 4.39384 7.57031 3.72129L3.82714 5.07838C3.72823 5.11424 3.66235 5.20819 3.66235 5.31341V8.4046L4.93961 8.67461Z" fill="#1B1A16"/>
</svg>
