<svg width="24" height="24" viewBox="0 0 24 24" fill="none" xmlns="http://www.w3.org/2000/svg">
<path fill-rule="evenodd" clip-rule="evenodd" d="M14.4666 2C14.0524 2 13.7166 2.33579 13.7166 2.75C13.7166 3.16421 14.0524 3.5 14.4666 3.5H18.0334V14.3334H14.4667C14.0525 14.3334 13.7167 14.6692 13.7167 15.0834C13.7167 15.4976 14.0525 15.8334 14.4667 15.8334H18.0334V20.0167C18.0334 20.5427 18.2423 21.0471 18.6143 21.4191C18.9862 21.791 19.4907 22 20.0167 22C20.5427 22 21.0472 21.791 21.4191 21.4191C21.7911 21.0471 22.0001 20.5427 22.0001 20.0167V5.21667C22.0001 4.36355 21.6612 3.54538 21.0579 2.94214C20.4547 2.3389 19.6365 2 18.7834 2H14.4666ZM19.5334 20.0167V3.6725C19.7037 3.75524 19.8608 3.86635 19.9973 4.0028C20.3192 4.32474 20.5001 4.76138 20.5001 5.21667V20.0167C20.5001 20.1449 20.4491 20.2678 20.3585 20.3584C20.2678 20.4491 20.1449 20.5 20.0167 20.5C19.8885 20.5 19.7656 20.4491 19.675 20.3584C19.5843 20.2678 19.5334 20.1449 19.5334 20.0167Z" fill="#1B1A16"/>
<path d="M14.4667 4.46667C14.0525 4.46667 13.7167 4.80246 13.7167 5.21667C13.7167 5.63089 14.0525 5.96667 14.4667 5.96667H16.3167C16.7309 5.96667 17.0667 5.63089 17.0667 5.21667C17.0667 4.80246 16.7309 4.46667 16.3167 4.46667H14.4667Z" fill="#1B1A16"/>
<path d="M13.7167 7.68335C13.7167 7.26914 14.0525 6.93335 14.4667 6.93335H16.3167C16.7309 6.93335 17.0667 7.26914 17.0667 7.68335C17.0667 8.09756 16.7309 8.43335 16.3167 8.43335H14.4667C14.0525 8.43335 13.7167 8.09756 13.7167 7.68335Z" fill="#1B1A16"/>
<path d="M14.4667 9.40002C14.0525 9.40002 13.7167 9.73581 13.7167 10.15C13.7167 10.5642 14.0525 10.9 14.4667 10.9H16.3167C16.7309 10.9 17.0667 10.5642 17.0667 10.15C17.0667 9.73581 16.7309 9.40002 16.3167 9.40002H14.4667Z" fill="#1B1A16"/>
<path d="M13.7167 12.6167C13.7167 12.2025 14.0525 11.8667 14.4667 11.8667H16.3167C16.7309 11.8667 17.0667 12.2025 17.0667 12.6167C17.0667 13.0309 16.7309 13.3667 16.3167 13.3667H14.4667C14.0525 13.3667 13.7167 13.0309 13.7167 12.6167Z" fill="#1B1A16"/>
<path fill-rule="evenodd" clip-rule="evenodd" d="M4.6 15.5667C4.25856 15.5667 3.92047 15.6339 3.60502 15.7646C3.28958 15.8952 3.00295 16.0867 2.76152 16.3282C2.52009 16.5696 2.32858 16.8562 2.19791 17.1717C2.06725 17.4871 2 17.8252 2 18.1667C2 18.5081 2.06725 18.8462 2.19791 19.1616C2.32858 19.4771 2.52009 19.7637 2.76152 20.0051C3.00295 20.2466 3.28958 20.4381 3.60502 20.5687C3.92047 20.6994 4.25856 20.7667 4.6 20.7667C4.94144 20.7667 5.27953 20.6994 5.59498 20.5687C5.91042 20.4381 6.19705 20.2466 6.43848 20.0051C6.67991 19.7637 6.87142 19.4771 7.00209 19.1616C7.13208 18.8478 7.19931 18.5115 7.19999 18.1719L7.20001 18.1667V14.3134L8.16668 13.8301V18.1501L8.16663 18.1667C8.16663 18.5081 8.23388 18.8462 8.36454 19.1616C8.4952 19.4771 8.68672 19.7637 8.92815 20.0051C9.16958 20.2466 9.4562 20.4381 9.77165 20.5687C9.96931 20.6506 10.1759 20.7076 10.3866 20.7387C10.5714 21.0463 10.8189 21.3141 11.1151 21.5233C11.5544 21.8337 12.0791 22.0002 12.617 22C13.0312 21.9998 13.3669 21.6639 13.3667 21.2497C13.3665 20.8355 13.0306 20.4998 12.6164 20.5C12.4448 20.5001 12.2763 20.4601 12.1242 20.3841C12.2985 20.2774 12.4599 20.1503 12.6051 20.0051C12.8465 19.7637 13.038 19.4771 13.1687 19.1616C13.2994 18.8462 13.3666 18.5081 13.3666 18.1667C13.3666 17.8252 13.2994 17.4871 13.1687 17.1717C13.038 16.8562 12.8465 16.5696 12.6051 16.3282C12.3637 16.0867 12.0771 15.8952 11.7616 15.7646C11.4462 15.6339 11.1081 15.5667 10.7666 15.5667C10.4252 15.5667 10.0871 15.6339 9.77165 15.7646C9.73629 15.7792 9.70129 15.7946 9.66668 15.8108V12.6273C9.66679 12.6198 9.66679 12.6123 9.66668 12.6048V11.3833C9.66668 11.3478 9.66416 11.3124 9.65914 11.2773L8.42581 2.64393C8.37302 2.27445 8.05658 2 7.68335 2C7.31011 2 6.99367 2.27445 6.94088 2.64393L5.70755 11.2773C5.70253 11.3124 5.70001 11.3478 5.70001 11.3833V13.8314C5.69969 13.8441 5.69969 13.8569 5.70001 13.8696V15.8108C5.66538 15.7946 5.63036 15.7792 5.59498 15.7646C5.27953 15.6339 4.94144 15.5667 4.6 15.5667ZM7.20001 12.6364V11.4366L7.68335 8.0533L8.16668 11.4366V12.1531L7.20001 12.6364ZM9.75036 18.5876C9.69604 18.4565 9.66762 18.3161 9.66665 18.1742L9.66668 18.1667V18.1559C9.66806 18.0151 9.69646 17.8758 9.75036 17.7457C9.80564 17.6122 9.88666 17.491 9.98881 17.3888C10.091 17.2867 10.2122 17.2057 10.3457 17.1504C10.4791 17.0951 10.6222 17.0667 10.7666 17.0667C10.9111 17.0667 11.0541 17.0951 11.1876 17.1504C11.321 17.2057 11.4423 17.2867 11.5444 17.3888C11.6466 17.491 11.7276 17.6122 11.7829 17.7457C11.8382 17.8792 11.8666 18.0222 11.8666 18.1667C11.8666 18.3111 11.8382 18.4541 11.7829 18.5876C11.7276 18.7211 11.6466 18.8423 11.5444 18.9445C11.4423 19.0466 11.321 19.1276 11.1876 19.1829C11.0541 19.2382 10.9111 19.2667 10.7666 19.2667C10.6222 19.2667 10.4791 19.2382 10.3457 19.1829C10.2122 19.1276 10.091 19.0466 9.98881 18.9445C9.88666 18.8423 9.80564 18.7211 9.75036 18.5876ZM4.17905 17.1504C4.31251 17.0951 4.45554 17.0667 4.6 17.0667C4.74446 17.0667 4.88749 17.0951 5.02095 17.1504C5.15441 17.2057 5.27567 17.2867 5.37782 17.3888C5.47996 17.491 5.56099 17.6122 5.61627 17.7457C5.67155 17.8792 5.7 18.0222 5.7 18.1667C5.7 18.3111 5.67155 18.4541 5.61627 18.5876C5.56099 18.7211 5.47996 18.8423 5.37782 18.9445C5.27567 19.0466 5.15441 19.1276 5.02095 19.1829C4.88749 19.2382 4.74446 19.2667 4.6 19.2667C4.45554 19.2667 4.31251 19.2382 4.17905 19.1829C4.04559 19.1276 3.92433 19.0466 3.82218 18.9445C3.72004 18.8423 3.63901 18.7211 3.58373 18.5876C3.52845 18.4541 3.5 18.3111 3.5 18.1667C3.5 18.0222 3.52845 17.8792 3.58373 17.7457C3.63901 17.6122 3.72004 17.491 3.82218 17.3888C3.92433 17.2867 4.04559 17.2057 4.17905 17.1504Z" fill="#1B1A16"/>
</svg>
