<svg width="24" height="24" viewBox="0 0 24 24" fill="none" xmlns="http://www.w3.org/2000/svg">
<path fill-rule="evenodd" clip-rule="evenodd" d="M20.0072 5.86387C20.4212 5.87708 20.7461 6.22341 20.7329 6.63741C20.7059 7.4838 20.3407 8.46054 19.7845 9.42661C19.2216 10.4045 18.4259 11.4359 17.4522 12.4089C16.1303 13.8468 14.4628 14.9216 12.6094 15.532L6.71189 21.4295C6.32852 21.7998 5.81498 22.0046 5.28201 21.9999C4.74904 21.9953 4.23921 21.7815 3.86233 21.4046C3.48545 21.0278 3.27168 20.5179 3.26704 19.985C3.26241 19.452 3.4673 18.9385 3.83757 18.5552L3.84658 18.5458L8.62773 13.764C8.92059 13.4711 9.39547 13.4711 9.68839 13.7639C9.9813 14.0568 9.98135 14.5317 9.68848 14.8246L4.91299 19.6009C4.81817 19.701 4.76579 19.834 4.76699 19.9719C4.7682 20.1116 4.82422 20.2452 4.92299 20.344C5.02176 20.4427 5.15537 20.4988 5.29504 20.5C5.43301 20.5012 5.566 20.4488 5.66606 20.354L11.6772 14.3429C11.7631 14.257 11.8686 14.1932 11.9846 14.1571C13.6619 13.6351 15.1709 12.6778 16.3579 11.3829C16.3655 11.3746 16.3732 11.3665 16.3812 11.3586C17.2782 10.464 17.9932 9.53178 18.4845 8.67826C18.9849 7.80901 19.2179 7.08318 19.2336 6.58957C19.2469 6.17557 19.5932 5.85066 20.0072 5.86387Z" fill="#1B1A16"/>
<path fill-rule="evenodd" clip-rule="evenodd" d="M14.7283 2.21967C15.0212 1.92678 15.4961 1.92678 15.789 2.21967L18.6229 5.05358C18.9158 5.34647 18.9158 5.82135 18.6229 6.11424C18.33 6.40713 17.8551 6.40713 17.5623 6.11424L14.7283 3.28033C14.4354 2.98744 14.4354 2.51256 14.7283 2.21967Z" fill="#1B1A16"/>
<path fill-rule="evenodd" clip-rule="evenodd" d="M12.4605 3.58019C12.7534 3.2873 13.2283 3.2873 13.5211 3.58019L17.3812 7.44026C17.6741 7.73315 17.6741 8.20802 17.3812 8.50092C17.0883 8.79381 16.6135 8.79381 16.3206 8.50092L12.4605 4.64085C12.1676 4.34796 12.1676 3.87308 12.4605 3.58019Z" fill="#1B1A16"/>
<path fill-rule="evenodd" clip-rule="evenodd" d="M10.6468 5.39393C10.9397 5.10104 11.4146 5.10103 11.7075 5.39393L15.7437 9.43015C16.0366 9.72305 16.0366 10.1979 15.7437 10.4908C15.4508 10.7837 14.9759 10.7837 14.683 10.4908L10.6468 6.45459C10.3539 6.1617 10.3539 5.68682 10.6468 5.39393Z" fill="#1B1A16"/>
<path fill-rule="evenodd" clip-rule="evenodd" d="M8.8321 7.20857C9.12496 6.91565 9.59983 6.91559 9.89276 7.20845L13.7588 11.0737C14.0518 11.3665 14.0518 11.8414 13.7589 12.1343C13.4661 12.4272 12.9912 12.4273 12.6983 12.1344L8.83221 8.26923C8.53929 7.97637 8.53924 7.5015 8.8321 7.20857Z" fill="#1B1A16"/>
<path fill-rule="evenodd" clip-rule="evenodd" d="M7.47166 9.47547C7.76455 9.18258 8.23943 9.18258 8.53232 9.47547L11.4697 12.4129C11.7626 12.7057 11.7626 13.1806 11.4697 13.4735C11.1768 13.7664 10.7019 13.7664 10.4091 13.4735L7.47166 10.5361C7.17877 10.2432 7.17877 9.76836 7.47166 9.47547Z" fill="#1B1A16"/>
</svg>
