<svg width="24" height="24" viewBox="0 0 24 24" fill="none" xmlns="http://www.w3.org/2000/svg">
<path d="M19.9361 5.1763C20.304 4.98609 20.4481 4.53361 20.2579 4.16565C20.0677 3.79769 19.6152 3.65359 19.2473 3.84379L17.241 4.88087L12.3818 5.30929C11.1112 5.2966 10.0083 6.04139 9.07638 6.90796C8.31192 7.61881 7.55816 8.51482 6.83596 9.37332C6.73503 9.4933 6.6347 9.61257 6.53506 9.73047H5.86136C4.83726 9.73047 3.85511 10.1373 3.13097 10.8614C2.40682 11.5856 2 12.5677 2 13.5918V19.4899C2 19.9041 2.33579 20.2399 2.75 20.2399C3.16421 20.2399 3.5 19.9041 3.5 19.4899V16.8645H5.08362V19.4899C5.08362 19.9041 5.4194 20.2399 5.83362 20.2399C6.24783 20.2399 6.58362 19.9041 6.58362 19.4899V16.8645H8.16638V19.4899C8.16638 19.9041 8.50217 20.2399 8.91638 20.2399C9.3306 20.2399 9.66638 19.9041 9.66638 19.4899V16.8645H11.25V19.4899C11.25 19.9041 11.5858 20.2399 12 20.2399C12.4142 20.2399 12.75 19.9041 12.75 19.4899V16.8645H14.3336V19.4899C14.3336 19.9041 14.6694 20.2399 15.0836 20.2399C15.4978 20.2399 15.8336 19.9041 15.8336 19.4899V16.8645H17.4164V19.4899C17.4164 19.9041 17.7522 20.2399 18.1664 20.2399C18.5806 20.2399 18.9164 19.9041 18.9164 19.4899V16.8645H20.5V19.4899C20.5 19.9041 20.8358 20.2399 21.25 20.2399C21.6642 20.2399 22 19.9041 22 19.4899V16.1136C22 15.6994 21.6642 15.3636 21.25 15.3636C21.2377 15.3636 21.2254 15.3639 21.2133 15.3645H18.2031C18.1963 15.3642 18.1895 15.364 18.1827 15.3638C18.1773 15.3637 18.1718 15.3636 18.1664 15.3636C18.1541 15.3636 18.1418 15.3639 18.1296 15.3645H12.0367C12.0246 15.3639 12.0123 15.3636 12 15.3636C11.9877 15.3636 11.9754 15.3639 11.9633 15.3645H8.95312C8.94095 15.3639 8.9287 15.3636 8.91638 15.3636C8.90406 15.3636 8.89182 15.3639 8.87964 15.3645H5.87036C5.85818 15.3639 5.84594 15.3636 5.83362 15.3636C5.8213 15.3636 5.80905 15.3639 5.79688 15.3645H3.5V13.5918C3.5 12.9655 3.74878 12.3649 4.19162 11.9221C4.63446 11.4793 5.23509 11.2305 5.86136 11.2305L11.077 11.2305C10.9403 11.3914 10.8281 11.5722 10.7444 11.7669C10.6341 12.0233 10.5754 12.299 10.5716 12.5782C10.5679 12.8574 10.6192 13.1346 10.7226 13.3939C10.8259 13.6533 10.9794 13.8897 11.1742 14.0898C11.3689 14.2898 11.6012 14.4495 11.8577 14.5598C12.1142 14.6701 12.3899 14.7288 12.669 14.7326C12.9482 14.7363 13.2254 14.685 13.4847 14.5816C13.7441 14.4783 13.9805 14.3248 14.1806 14.13L14.1826 14.1281L17.1357 11.2313H18.4867C18.5291 11.2313 18.5715 11.2277 18.6133 11.2206C19.7066 11.0334 20.7478 10.6167 21.6683 9.99798C22.0121 9.76692 22.1035 9.30092 21.8724 8.95714C21.6413 8.61336 21.1754 8.52199 20.8316 8.75306C20.104 9.24207 19.2833 9.57505 18.4212 9.73131H16.8293C16.6329 9.73131 16.4443 9.80836 16.3041 9.94589L13.1342 13.0553L13.1335 13.056C13.0747 13.113 13.0054 13.1579 12.9293 13.1882C12.8529 13.2187 12.7713 13.2338 12.6891 13.2327C12.6069 13.2316 12.5257 13.2143 12.4502 13.1818C12.3747 13.1494 12.3063 13.1023 12.2489 13.0434C12.1916 12.9845 12.1464 12.9149 12.1159 12.8385C12.0855 12.7621 12.0704 12.6805 12.0715 12.5983C12.0726 12.5161 12.0899 12.4349 12.1224 12.3594C12.1548 12.2839 12.2019 12.2155 12.2608 12.1581L13.3681 11.0756C13.3891 11.059 13.4094 11.0411 13.429 11.0219L15.1444 9.34012C15.4402 9.05014 15.4449 8.57529 15.1549 8.27951C14.865 7.98373 14.3901 7.97903 14.0943 8.26901L12.6036 9.73047H8.49829C9.03976 9.0944 9.56458 8.50229 10.0978 8.00645C10.9745 7.19128 11.715 6.79343 12.3907 6.80962C12.4187 6.81029 12.4467 6.80939 12.4745 6.80693L17.52 6.36209C17.6172 6.35352 17.7118 6.32606 17.7985 6.28124L19.9361 5.1763Z" fill="#1B1A16"/>
</svg>
