<svg width="24" height="24" viewBox="0 0 24 24" fill="none" xmlns="http://www.w3.org/2000/svg">
<path fill-rule="evenodd" clip-rule="evenodd" d="M4.92893 4.92893C6.8043 3.05357 9.34784 2 12 2C13.3327 2 14.6379 2.26602 15.8447 2.76864C15.8717 2.77749 15.8985 2.78795 15.9249 2.80007C15.9375 2.80588 15.95 2.81201 15.9622 2.81843C17.1116 3.31444 18.1687 4.02655 19.0711 4.92893C19.9736 5.83145 20.6858 6.88873 21.1818 8.03838C21.1881 8.05036 21.1941 8.06257 21.1998 8.07501C21.2118 8.10119 21.2222 8.12769 21.231 8.15442C21.7339 9.36148 22 10.667 22 12C22 14.6522 20.9464 17.1957 19.0711 19.0711C17.1957 20.9464 14.6522 22 12 22C9.35129 22 6.81091 20.9492 4.93625 19.0784L4.9289 19.0711L4.92165 19.0638C3.05084 17.1891 2 14.6487 2 12C2 9.34784 3.05357 6.8043 4.92893 4.92893ZM19.4646 7.93426C19.0789 7.22602 18.591 6.57014 18.0104 5.98959C17.4298 5.40901 16.7739 4.92109 16.0656 4.53535C16.0096 4.86822 16.0107 5.21016 16.071 5.5462C16.0856 5.62724 16.1034 5.7074 16.1246 5.7865C16.1318 5.80697 16.1383 5.82792 16.1438 5.84932C16.1464 5.85931 16.1488 5.86929 16.151 5.87928C16.2912 6.34273 16.5438 6.76635 16.8887 7.11119C17.2339 7.45636 17.658 7.70919 18.1219 7.84929C18.1315 7.85139 18.1411 7.85369 18.1507 7.85618C18.1717 7.86165 18.1923 7.86795 18.2124 7.87504C18.2918 7.89629 18.3723 7.91426 18.4537 7.92886C18.7897 7.98916 19.1317 7.99032 19.4646 7.93426ZM18.4938 9.44917C19.0237 9.50678 19.5583 9.46855 20.0723 9.33773C20.3531 10.1889 20.5 11.0869 20.5 12C20.5 14.2543 19.6045 16.4163 18.0104 18.0104C16.4163 19.6045 14.2543 20.5 12 20.5C10.2947 20.5 8.64226 19.9876 7.24851 19.048C7.72903 18.9552 8.28655 18.8279 8.89095 18.6537C10.7946 18.1051 13.2172 17.0761 15.1466 15.1467L15.1609 15.132C16.6926 13.5142 17.8314 11.5697 18.4938 9.44917ZM17.0507 9.03783C16.5997 8.82157 16.1858 8.52959 15.828 8.17185C15.4703 7.81416 15.1784 7.40028 14.9621 6.94932C13.0768 7.5442 11.3477 8.55925 9.90682 9.92125C8.22881 11.6027 7.29751 13.7551 6.78762 15.5244C6.53995 16.3839 6.39535 17.1403 6.31243 17.6876C6.85976 17.6047 7.61615 17.4601 8.47558 17.2124C10.2449 16.7025 12.3973 15.7712 14.0788 14.0932C15.4408 12.6524 16.4558 10.9232 17.0507 9.03783ZM14.5507 5.5063C14.4931 4.97636 14.5313 4.44167 14.6621 3.92763C13.811 3.64691 12.9131 3.5 12 3.5C9.74566 3.5 7.58365 4.39553 5.98959 5.98959C4.39553 7.58365 3.5 9.74566 3.5 12C3.5 13.7053 4.01244 15.3578 4.95205 16.7515C5.04479 16.271 5.1721 15.7135 5.34628 15.1091C5.89489 13.2054 6.92389 10.7829 8.85336 8.85338L8.86806 8.83908C10.4858 7.30748 12.4303 6.16868 14.5507 5.5063Z" fill="#1B1A16"/>
</svg>
