<svg width="24" height="24" viewBox="0 0 24 24" fill="none" xmlns="http://www.w3.org/2000/svg">
<path d="M6.27805 6.80303C6.48605 6.93303 6.71105 7.03303 6.94905 7.10003C6.92505 7.29203 6.91105 7.48603 6.90805 7.68303C6.90805 9.03703 7.43605 10.309 8.39305 11.265C9.34905 12.223 10.6221 12.749 11.9761 12.749C13.3301 12.749 14.6031 12.223 15.5581 11.266C16.5161 10.309 17.043 9.03703 17.043 7.67303C17.04 7.48203 17.0261 7.29103 17.0031 7.10203C17.4251 6.98303 17.8131 6.75703 18.133 6.43703C18.6231 5.94503 18.893 5.29203 18.893 4.60003C18.893 3.95903 18.6581 3.34403 18.2321 2.86803C17.8051 2.39003 17.2201 2.08803 16.5861 2.01703C15.9391 1.94203 15.312 2.11003 14.7921 2.48003C14.5441 2.65603 14.3311 2.87203 14.1611 3.11703C12.8071 2.45803 11.1441 2.46003 9.79105 3.11703C9.70305 2.99103 9.60405 2.87203 9.49405 2.76203C9.14705 2.41703 8.71205 2.17603 8.23405 2.06703C7.75905 1.95803 7.25905 1.98603 6.79705 2.14903C6.33605 2.31203 5.93105 2.60003 5.62505 2.98203C5.32005 3.36503 5.13005 3.82503 5.07505 4.31303C5.02105 4.80003 5.10505 5.29003 5.31805 5.73003C5.53105 6.17103 5.86205 6.54203 6.27805 6.80303ZM6.79805 3.91703C6.92705 3.75503 7.09905 3.63303 7.29405 3.56503C7.48805 3.49603 7.70105 3.48403 7.90205 3.53003C8.10405 3.57603 8.28805 3.67703 8.43405 3.82303C8.58005 3.97003 8.68205 4.15403 8.72805 4.35503C8.78405 4.60103 8.96005 4.80203 9.19605 4.89103C9.43005 4.97803 9.69705 4.94203 9.90205 4.79403C11.1141 3.90703 12.8381 3.90803 14.0501 4.79403C14.2531 4.94303 14.5211 4.98003 14.7551 4.89103C14.9911 4.80203 15.1681 4.60003 15.2241 4.35403C15.2841 4.09003 15.4381 3.85903 15.6601 3.70203C15.8811 3.54603 16.151 3.47803 16.418 3.50603C16.687 3.53603 16.9341 3.66403 17.1141 3.86703C17.2941 4.06803 17.3931 4.32803 17.3931 4.59903C17.3931 4.88803 17.2761 5.17203 17.0731 5.37503C16.8641 5.58303 16.5881 5.69803 16.3321 5.70003C16.2871 5.69803 16.243 5.69303 16.199 5.68703C15.9451 5.64803 15.6841 5.74503 15.5151 5.94303C15.3471 6.14103 15.2931 6.41203 15.3731 6.65903C15.4811 6.99303 15.5381 7.34103 15.5431 7.68203C15.5431 8.63503 15.1721 9.53003 14.4971 10.204C13.1511 11.551 10.8001 11.552 9.45405 10.203C8.78005 9.53103 8.40805 8.63603 8.40805 7.69303C8.41305 7.34103 8.47005 6.99303 8.57805 6.65903C8.65805 6.41103 8.60405 6.14003 8.43505 5.94303C8.29205 5.77403 8.08305 5.67903 7.86405 5.67903C7.82605 5.67903 7.78905 5.68203 7.75105 5.68703C7.70905 5.69403 7.66505 5.69803 7.65805 5.70003C7.45205 5.70003 7.25005 5.64203 7.07405 5.53203C6.89905 5.42203 6.75905 5.26503 6.66805 5.07803C6.57805 4.89203 6.54305 4.68403 6.56505 4.47903C6.58905 4.27303 6.66905 4.07903 6.79805 3.91703Z" fill="#1B1A16"/>
<path d="M21.4811 9.42003C21.34 9.10003 21.138 8.81603 20.883 8.57803C20.629 8.33903 20.333 8.15603 20.003 8.03403C19.678 7.91403 19.344 7.86103 18.984 7.87603C18.634 7.89203 18.2971 7.97603 17.9821 8.12703C17.6081 8.30603 17.4501 8.75303 17.6281 9.12703C17.8081 9.50103 18.2541 9.65903 18.628 9.48103C18.7621 9.41703 18.904 9.38103 19.052 9.37503C19.2041 9.37203 19.347 9.39203 19.483 9.44203C19.623 9.49403 19.748 9.57003 19.855 9.67203C19.963 9.77403 20.048 9.89203 20.108 10.027C20.1691 10.162 20.2 10.305 20.203 10.454C20.206 10.601 20.18 10.745 20.1241 10.883C20.069 11.019 19.9881 11.142 19.885 11.247C19.781 11.352 19.6581 11.435 19.503 11.499L15.9391 13.086C15.9311 13.09 15.9271 13.097 15.9191 13.1C15.8511 13.133 15.7941 13.177 15.7391 13.228C15.7201 13.245 15.7001 13.259 15.6831 13.278C15.6391 13.328 15.6091 13.384 15.5791 13.444C15.5641 13.473 15.548 13.499 15.5371 13.529C15.5191 13.581 15.515 13.634 15.5091 13.689C15.5041 13.735 15.4971 13.779 15.5011 13.826C15.5021 13.841 15.4961 13.854 15.4981 13.869C15.5261 14.07 15.5391 14.272 15.5411 14.468C15.5411 14.906 15.4391 15.338 15.2831 15.745C14.3241 16.064 13.5721 16.816 13.2521 17.774C12.4331 18.085 11.5121 18.084 10.6941 17.772C10.3741 16.814 9.62205 16.063 8.66405 15.745C8.50805 15.337 8.40605 14.907 8.40705 14.471C8.40805 14.272 8.42105 14.072 8.44805 13.873C8.45005 13.858 8.44405 13.845 8.44505 13.83C8.44905 13.777 8.44205 13.727 8.43505 13.676C8.42905 13.63 8.42605 13.584 8.41205 13.541C8.39705 13.495 8.37205 13.455 8.34905 13.413C8.32605 13.371 8.30505 13.33 8.27405 13.293C8.24405 13.258 8.20705 13.231 8.17005 13.2C8.13005 13.168 8.09305 13.137 8.04705 13.113C8.03305 13.105 8.02505 13.092 8.01005 13.087L4.44605 11.5C4.18105 11.382 3.96905 11.159 3.86605 10.889C3.76105 10.615 3.76905 10.315 3.88705 10.048C4.00805 9.78203 4.23105 9.57103 4.50005 9.46703C4.77705 9.36203 5.07405 9.37003 5.34305 9.48903C5.72005 9.65903 6.16505 9.48803 6.33305 9.10903C6.50105 8.73003 6.33205 8.28703 5.95305 8.11903C5.31905 7.83803 4.61305 7.81803 3.96305 8.06703C3.32505 8.31203 2.79905 8.81103 2.52005 9.43703C2.23805 10.072 2.22005 10.778 2.46805 11.426C2.71305 12.064 3.21205 12.591 3.83805 12.87L6.92505 14.245C6.92205 14.319 6.91005 14.392 6.91005 14.467C6.91005 14.858 6.95605 15.249 7.04505 15.63C5.56505 15.918 4.44305 17.222 4.44305 18.784C4.44205 20.557 5.88505 22 7.65905 22C9.22305 22 10.5261 20.877 10.8131 19.395C11.1951 19.486 11.5871 19.534 11.9791 19.534C12.3691 19.534 12.7581 19.487 13.1391 19.397C13.4261 20.877 14.729 22 16.293 22C18.066 22 19.51 20.557 19.51 18.783C19.51 17.22 18.3881 15.916 16.9071 15.629C16.996 15.247 17.043 14.855 17.043 14.461C17.042 14.388 17.0301 14.316 17.0271 14.244L20.094 12.877C20.416 12.745 20.7031 12.552 20.9501 12.303C21.1961 12.054 21.388 11.763 21.515 11.443C21.646 11.118 21.709 10.776 21.703 10.425C21.697 10.074 21.6221 9.73503 21.4811 9.42003ZM7.65905 20.5C6.71205 20.5 5.94205 19.729 5.94205 18.783C5.94205 17.837 6.71205 17.066 7.65905 17.066C8.60505 17.066 9.37505 17.837 9.37505 18.783C9.37505 19.729 8.60505 20.5 7.65905 20.5ZM18.0101 18.783C18.0101 19.729 17.239 20.5 16.293 20.5C15.347 20.5 14.5761 19.729 14.5761 18.783C14.5761 17.837 15.347 17.066 16.293 17.066C17.239 17.066 18.0101 17.837 18.0101 18.783Z" fill="#1B1A16"/>
<path d="M10.1251 8.12503C10.7094 8.12503 11.1831 7.65134 11.1831 7.06703C11.1831 6.48271 10.7094 6.00903 10.1251 6.00903C9.54073 6.00903 9.06705 6.48271 9.06705 7.06703C9.06705 7.65134 9.54073 8.12503 10.1251 8.12503Z" fill="#1B1A16"/>
<path d="M13.8261 8.12403C14.4104 8.12403 14.8841 7.65034 14.8841 7.06603C14.8841 6.48171 14.4104 6.00803 13.8261 6.00803C13.2417 6.00803 12.7681 6.48171 12.7681 7.06603C12.7681 7.65034 13.2417 8.12403 13.8261 8.12403Z" fill="#1B1A16"/>
</svg>
