<svg width="24" height="24" viewBox="0 0 24 24" fill="none" xmlns="http://www.w3.org/2000/svg">
<path d="M4.59259 2.33381C4.82236 1.98916 5.28801 1.89603 5.63266 2.1258L7.48266 3.35913C7.8273 3.5889 7.92043 4.05455 7.69067 4.39919C7.46091 4.74384 6.99525 4.83697 6.65061 4.60721L4.80061 3.37387C4.45596 3.14411 4.36283 2.67846 4.59259 2.33381Z" fill="#1B1A16"/>
<path fill-rule="evenodd" clip-rule="evenodd" d="M9.72546 2.94202C10.3287 2.33878 11.1469 1.99988 12 1.99988C12.8531 1.99988 13.6713 2.33878 14.2745 2.94202C14.7119 3.37941 15.0103 3.9298 15.1414 4.52458C15.9643 4.64618 16.75 4.94966 17.4409 5.41272C17.5115 5.36608 17.5854 5.32318 17.6627 5.28436C18.3514 4.93853 19.1405 5.0001 19.8268 5.34176C20.5085 5.68113 21.0733 6.28241 21.4297 6.99211C21.7861 7.70181 21.9311 8.51398 21.7962 9.26343C21.6603 10.018 21.2385 10.6877 20.5498 11.0335C19.8612 11.3793 19.0721 11.3177 18.3858 10.9761C17.7041 10.6367 17.1392 10.0354 16.7828 9.32573C16.4264 8.61604 16.2814 7.80387 16.4164 7.05441C16.4437 6.90254 16.4826 6.75411 16.533 6.61106C16.1292 6.35268 15.6835 6.16735 15.2167 6.06305V7.06655C15.2167 7.48076 14.8809 7.81655 14.4667 7.81655H12.7501V8.20727C14.3087 8.37725 15.7718 9.07325 16.8909 10.1923C18.188 11.4895 18.9167 13.2488 18.9167 15.0832C18.9167 15.7734 18.8135 16.453 18.6157 17.1014C18.6068 17.1402 18.5949 17.1779 18.5803 17.2141C18.2463 18.2452 17.6715 19.1933 16.8909 19.974C15.5937 21.2711 13.8345 21.9998 12 21.9998C10.1656 21.9998 8.40635 21.2711 7.10922 19.974C6.32879 19.1936 5.75413 18.2458 5.42013 17.2151C5.40516 17.1782 5.39304 17.1399 5.38405 17.1004C5.18644 16.4523 5.08337 15.7731 5.08337 15.0832C5.08337 13.2488 5.81209 11.4895 7.10922 10.1923C8.22835 9.07322 9.69151 8.3772 11.2501 8.20725V7.81655H9.53333C9.11911 7.81655 8.78333 7.48076 8.78333 7.06655V5.21654C8.78333 4.36343 9.12222 3.54526 9.72546 2.94202ZM17.4167 15.0832C17.4167 15.4556 17.3784 15.824 17.3039 16.1832H6.69623C6.62172 15.824 6.58337 15.4556 6.58337 15.0832C6.58337 13.6466 7.15406 12.2688 8.16988 11.253C9.18437 10.2385 10.5598 9.668 11.9944 9.66651L12.0001 9.66653L12.0058 9.66651C13.4403 9.66804 14.8157 10.2386 15.8302 11.253C16.846 12.2688 17.4167 13.6466 17.4167 15.0832ZM8.16988 18.9133C7.80242 18.5459 7.49321 18.1311 7.24819 17.6832H16.7519C16.5069 18.1311 16.1977 18.5459 15.8302 18.9133C14.8144 19.9292 13.4366 20.4998 12 20.4998C10.5635 20.4998 9.1857 19.9292 8.16988 18.9133ZM12.0052 6.31655L12.0001 6.31653L11.9951 6.31655H10.2833V5.21654C10.2833 4.76126 10.4642 4.32462 10.7861 4.00268C11.1081 3.68074 11.5447 3.49988 12 3.49988C12.4553 3.49988 12.8919 3.68074 13.2139 4.00268C13.5358 4.32462 13.7167 4.76126 13.7167 5.21654V6.31655H12.0052ZM18.0934 6.83119L18.0841 6.84361C17.9988 6.95997 17.9293 7.11664 17.8926 7.32017C17.8227 7.70889 17.8925 8.19302 18.1233 8.65257C18.354 9.11212 18.7007 9.45725 19.0542 9.63327C19.4032 9.80699 19.6884 9.78757 19.8767 9.69301C20.0649 9.59846 20.2508 9.38132 20.3199 8.99768C20.3899 8.60895 20.3201 8.12482 20.0893 7.66527C19.8585 7.20572 19.5119 6.86059 19.1583 6.68457C18.8093 6.51085 18.5242 6.53028 18.3359 6.62483C18.2511 6.66741 18.1668 6.73486 18.0934 6.83119Z" fill="#1B1A16"/>
<path d="M2.75 5.08313C2.33579 5.08313 2 5.41892 2 5.83313C2 6.24734 2.33579 6.58313 2.75 6.58313H6.45C6.86421 6.58313 7.2 6.24734 7.2 5.83313C7.2 5.41892 6.86421 5.08313 6.45 5.08313H2.75Z" fill="#1B1A16"/>
<path d="M7.48266 8.30722C7.8273 8.07746 7.92043 7.61181 7.69067 7.26716C7.46091 6.92251 6.99525 6.82938 6.65061 7.05915L4.80061 8.29248C4.45596 8.52225 4.36283 8.9879 4.59259 9.33254C4.82236 9.67719 5.28801 9.77032 5.63266 9.54056L7.48266 8.30722Z" fill="#1B1A16"/>
</svg>
