<svg width="24" height="24" viewBox="0 0 24 24" fill="none" xmlns="http://www.w3.org/2000/svg">
<path fill-rule="evenodd" clip-rule="evenodd" d="M16.5391 2.6418C17.1483 2.1849 17.9391 1.94995 18.7333 1.94995C19.5274 1.94995 20.3183 2.1849 20.9275 2.6418C21.5408 3.1018 21.9499 3.77934 21.9499 4.54995C21.9499 5.32056 21.5408 5.9981 20.9275 6.4581C20.3183 6.915 19.5274 7.14995 18.7333 7.14995C17.9391 7.14995 17.1483 6.915 16.5391 6.4581C16.1346 6.15475 15.8189 5.75679 15.6508 5.29993H14.55V6.71019C15.6477 7.096 16.6564 7.72495 17.4948 8.56337C18.9654 10.034 19.7916 12.0285 19.7916 14.1083C19.7916 16.188 18.9654 18.1826 17.4948 19.6532C16.0242 21.1238 14.0297 21.9499 11.9499 21.9499C9.8702 21.9499 7.87565 21.1238 6.40505 19.6532C4.93445 18.1826 4.10828 16.188 4.10828 14.1083C4.10828 12.0285 4.93445 10.034 6.40505 8.56337C7.24348 7.72494 8.25223 7.09597 9.34998 6.71016V5.91663H8.86658C8.45236 5.91663 8.11658 5.58084 8.11658 5.16663C8.11658 4.75241 8.45236 4.41663 8.86658 4.41663H9.34998V3.31665C9.34998 2.90244 9.68576 2.56665 10.1 2.56665H13.8C14.2142 2.56665 14.55 2.90244 14.55 3.31665V3.79993H15.6509C15.819 3.34308 16.1346 2.94514 16.5391 2.6418ZM13.05 4.5413V4.06665H10.85V6.3441C11.2123 6.29278 11.5798 6.2666 11.9499 6.2666C12.3201 6.2666 12.6876 6.29278 13.05 6.34411V4.55856L13.0499 4.54993L13.05 4.5413ZM18.7333 3.44995C18.219 3.44995 17.7551 3.60482 17.4391 3.8418C17.1272 4.07569 17.0166 4.33926 17.0166 4.54995C17.0166 4.76064 17.1272 5.02421 17.4391 5.2581C17.7551 5.49508 18.219 5.64995 18.7333 5.64995C19.2475 5.64995 19.7115 5.49508 20.0275 5.2581C20.3393 5.02421 20.4499 4.76064 20.4499 4.54995C20.4499 4.33926 20.3393 4.07569 20.0275 3.8418C19.7115 3.60482 19.2475 3.44995 18.7333 3.44995ZM11.9499 7.7666C10.268 7.7666 8.655 8.43474 7.46571 9.62403C6.27641 10.8133 5.60828 12.4264 5.60828 14.1083C5.60828 15.7902 6.27641 17.4032 7.46571 18.5925C8.655 19.7818 10.268 20.4499 11.9499 20.4499C13.6319 20.4499 15.2449 19.7818 16.4342 18.5925C17.6235 17.4032 18.2916 15.7902 18.2916 14.1083C18.2916 12.4264 17.6235 10.8133 16.4342 9.62403C15.2449 8.43474 13.6319 7.7666 11.9499 7.7666Z" fill="#1B1A16"/>
<path d="M1.96454 3.16959C2.04577 2.76342 2.44089 2.5 2.84706 2.58124L5.93039 3.1979C6.33656 3.27914 6.59998 3.67426 6.51874 4.08043C6.43751 4.4866 6.04239 4.75001 5.63622 4.66878L2.55289 4.05211C2.14672 3.97087 1.8833 3.57576 1.96454 3.16959Z" fill="#1B1A16"/>
<path d="M5.93039 7.13536C6.33656 7.05413 6.59998 6.65901 6.51874 6.25284C6.43751 5.84667 6.04239 5.58326 5.63622 5.66449L2.55289 6.28116C2.14672 6.36239 1.8833 6.75751 1.96454 7.16368C2.04577 7.56985 2.44089 7.83326 2.84706 7.75203L5.93039 7.13536Z" fill="#1B1A16"/>
</svg>
