<svg width="24" height="24" viewBox="0 0 24 24" fill="none" xmlns="http://www.w3.org/2000/svg">
<path fill-rule="evenodd" clip-rule="evenodd" d="M8.14404 8.20044V6.70044C8.14404 6.14815 8.59176 5.70044 9.14404 5.70044H11.144C11.5342 5.70044 11.8722 5.92389 12.037 6.24979C12.8653 6.43131 14.1948 6.85378 15.4594 7.82639C15.8622 7.43253 16.3859 7.1785 16.9553 7.07763C17.8514 6.9189 18.8647 7.13547 19.734 7.74315C21.3121 8.85492 21.829 10.8554 20.881 12.2116C20.4597 12.8143 19.8059 13.1942 19.0772 13.3232C18.1812 13.482 17.1679 13.2654 16.2986 12.6577C15.0691 11.7916 14.4838 10.386 14.7334 9.16598C13.8346 8.4199 12.8634 8.02708 12.144 7.82279V8.20044C12.6963 8.20044 13.144 8.64815 13.144 9.20044V10.8252C15.7921 11.9833 17.644 14.6269 17.644 17.7004C17.644 18.9932 17.3128 20.2032 16.7418 21.265C16.5794 21.567 16.2562 21.7404 15.9133 21.7404H4.38084C4.04011 21.7404 3.71856 21.5692 3.55554 21.27C2.97631 20.207 2.64404 18.9952 2.64404 17.7004C2.64404 14.6269 4.49594 11.9833 7.14404 10.8252V9.20044C7.14404 8.64815 7.59176 8.20044 8.14404 8.20044ZM10.644 7.20044V8.20044H9.64404V7.20044H10.644ZM8.64404 9.70044V10.3507C9.12875 10.2522 9.63039 10.2004 10.144 10.2004C10.6577 10.2004 11.1593 10.2522 11.644 10.3507V9.70044H8.64404ZM10.144 11.7004C13.454 11.7004 16.144 14.3904 16.144 17.7004C16.144 18.5804 15.954 19.4404 15.574 20.2404H4.71404C4.33404 19.4404 4.14404 18.5804 4.14404 17.7004C4.14404 14.3904 6.83404 11.7004 10.144 11.7004ZM18.8751 8.97179C18.3634 8.60544 17.7585 8.45869 17.2169 8.55463C16.9609 8.59998 16.6071 8.7236 16.3819 9.05799C16.1065 9.45209 16.167 9.90852 16.2303 10.1512C16.3587 10.6464 16.6955 11.1148 17.1592 11.4389C17.6709 11.8053 18.2758 11.952 18.8173 11.8561C19.0734 11.8107 19.4174 11.6889 19.6523 11.3527C19.9278 10.9586 19.8673 10.5022 19.804 10.2595C19.6756 9.76431 19.3388 9.29589 18.8751 8.97179Z" fill="#1B1A16"/>
</svg>
