<svg width="24" height="24" viewBox="0 0 24 24" fill="none" xmlns="http://www.w3.org/2000/svg">
<path d="M13.0544 9.91473C13.1853 10.3077 12.9729 10.7324 12.58 10.8634L10.5244 11.5483C10.1314 11.6792 9.70671 11.4668 9.57577 11.0738C9.44483 10.6808 9.65725 10.2561 10.0502 10.1252L12.1058 9.44027C12.4988 9.30934 12.9235 9.52176 13.0544 9.91473Z" fill="#1B1A16"/>
<path fill-rule="evenodd" clip-rule="evenodd" d="M20.8888 7.06359C21.2 7.26796 21.4617 7.54078 21.6531 7.86223C21.8803 8.24363 22.0001 8.67933 22.0001 9.12325V12.6185C22.0001 12.922 21.8172 13.1955 21.5368 13.3115L3.65349 20.7115C3.45359 20.7942 3.22772 20.7866 3.03385 20.6906C2.83999 20.5946 2.69704 20.4195 2.64169 20.2104L2.0278 17.8907C2.01982 17.8622 2.01355 17.8333 2.009 17.8041C1.99251 17.6995 1.99878 17.5954 2.02455 17.4977C2.04521 17.419 2.07896 17.3427 2.12597 17.2722L8.75924 7.32234C8.36839 6.87094 8.15664 6.29028 8.16673 5.691C8.16719 5.37002 8.2304 5.0522 8.35283 4.75542C8.47631 4.45609 8.65762 4.18405 8.88636 3.95487C9.1151 3.72568 9.3868 3.54386 9.68589 3.4198C9.98413 3.2961 10.3038 3.23226 10.6266 3.23189C14.4024 3.20736 18.0545 4.5717 20.8888 7.06359ZM20.0026 8.27949C20.0355 8.30455 20.07 8.32649 20.1056 8.34533C20.2098 8.42154 20.2979 8.51817 20.3644 8.62978C20.4532 8.77897 20.5001 8.9496 20.5001 9.12325V12.1172L3.87237 18.9976L3.6399 18.1192L19.0847 11.4038C19.2791 11.3392 19.4464 11.1957 19.5352 10.9933C19.6415 10.751 19.6094 10.483 19.4735 10.2776C19.3854 10.1431 19.2585 10.0441 19.1146 9.98902C18.9916 9.92909 18.8828 9.84369 18.7955 9.73862C18.7865 9.7265 18.7771 9.71459 18.7673 9.70293C18.7622 9.69626 18.7573 9.68952 18.7524 9.6827C18.6515 9.54138 18.5907 9.37542 18.5763 9.20237C18.562 9.02931 18.5947 8.8556 18.671 8.6996C18.7472 8.5436 18.8643 8.41111 19.0096 8.31614C19.155 8.22118 19.3234 8.16727 19.4969 8.16012C19.6704 8.15297 19.8426 8.19284 19.9953 8.27551L20.0026 8.27949ZM18.3117 6.98536C18.2703 7.00911 18.2295 7.0341 18.1893 7.06032C17.8176 7.30312 17.5184 7.64187 17.3234 8.04073C17.2463 8.19853 17.1865 8.36343 17.1448 8.5325C16.0984 7.93842 14.9664 7.52607 13.9553 7.24405C12.43 6.81864 11.0832 6.66383 10.5516 6.6606C10.3117 6.6491 10.0854 6.54519 9.92032 6.37042C9.75277 6.19307 9.66163 5.95698 9.66657 5.71305L9.66673 5.69643C9.66648 5.56985 9.6912 5.44447 9.73947 5.32745C9.78775 5.21044 9.85862 5.1041 9.94804 5.01451C10.0375 4.92492 10.1437 4.85384 10.2606 4.80535C10.3775 4.75685 10.5028 4.73189 10.6294 4.73189L10.6344 4.73187C13.3741 4.71368 16.0417 5.50569 18.3117 6.98536ZM13.5523 8.6889C14.8756 9.05802 16.3045 9.63794 17.4006 10.5004L8.98181 14.1609V13.5771C8.98181 13.1629 8.64603 12.8271 8.23181 12.8271C7.8176 12.8271 7.48181 13.1629 7.48181 13.5771V14.8131L4.78709 15.9847L10.0447 8.09828C10.1956 8.13343 10.3505 8.15432 10.5075 8.16005C10.5166 8.16038 10.5257 8.16055 10.5349 8.16055C10.886 8.16055 12.1069 8.28575 13.5523 8.6889Z" fill="#1B1A16"/>
</svg>
