<svg width="24" height="24" viewBox="0 0 24 24" fill="none" xmlns="http://www.w3.org/2000/svg">
<path d="M14.307 22H9.68803C8.95903 22 8.38103 21.487 8.14303 20.628L7.52003 18.061C7.46603 17.837 7.51803 17.601 7.66003 17.42C7.80203 17.239 8.01903 17.134 8.24903 17.134H11.247V15.181C10.513 15.192 9.76103 15.135 9.22203 14.62C8.83503 14.25 8.63903 13.718 8.63903 13.036C8.63903 12.622 8.97503 12.286 9.38903 12.286C9.80303 12.286 10.139 12.622 10.139 13.036C10.139 13.281 10.182 13.463 10.258 13.535C10.404 13.676 10.82 13.693 11.247 13.68V12.579C11.197 12.558 11.148 12.536 11.101 12.512C10.825 12.373 10.58 12.166 10.394 11.913C10.341 11.841 10.269 11.785 10.186 11.75C10.102 11.715 10.011 11.703 9.92103 11.718C9.61703 11.767 9.29603 11.74 8.99803 11.643C8.70403 11.548 8.42903 11.381 8.20703 11.16C7.98603 10.942 7.81603 10.667 7.71803 10.368C7.62103 10.075 7.59403 9.75504 7.64103 9.44704C7.65503 9.35704 7.64303 9.26504 7.60803 9.17904C7.57703 9.10004 7.52003 9.02704 7.44703 8.97404C7.19503 8.78804 6.99003 8.54404 6.84903 8.26804C6.70803 7.98804 6.63403 7.67704 6.63403 7.36504C6.63403 7.05304 6.70803 6.74104 6.84703 6.46504C6.98903 6.18704 7.19403 5.94404 7.44203 5.76004C7.52003 5.70304 7.57703 5.63004 7.61203 5.54504C7.64503 5.46504 7.65603 5.37304 7.64203 5.28304C7.59603 4.97504 7.62203 4.65604 7.71803 4.36204C7.81703 4.06404 7.98403 3.79204 8.20203 3.57304C8.42503 3.35004 8.69803 3.18304 8.99303 3.08604C9.28703 2.98904 9.60503 2.96304 9.91503 3.00904C10.006 3.02504 10.097 3.01204 10.18 2.97704C10.263 2.94204 10.335 2.88604 10.389 2.81304C10.571 2.56304 10.816 2.35604 11.096 2.21404C11.646 1.93604 12.341 1.93104 12.897 2.21404C13.173 2.35204 13.419 2.56004 13.605 2.81404C13.657 2.88504 13.729 2.94104 13.813 2.97604C13.896 3.01004 13.988 3.02204 14.078 3.00804C14.386 2.96104 14.704 2.98804 15 3.08404C15.296 3.17804 15.571 3.34604 15.793 3.56704C16.015 3.78804 16.183 4.06204 16.279 4.35904C16.377 4.64704 16.404 4.96804 16.356 5.28104C16.343 5.37004 16.354 5.46404 16.389 5.54904C16.422 5.62804 16.479 5.70104 16.552 5.75504C16.806 5.94304 17.012 6.18704 17.152 6.46304C17.293 6.74204 17.367 7.05304 17.367 7.36304C17.367 7.67304 17.293 7.98404 17.152 8.26304C17.012 8.53904 16.806 8.78404 16.555 8.96904C16.554 8.97004 16.553 8.97004 16.552 8.97104C16.48 9.02404 16.424 9.09604 16.391 9.17804C16.354 9.26504 16.343 9.35704 16.357 9.44804C16.403 9.75404 16.377 10.073 16.281 10.367C16.179 10.669 16.01 10.941 15.792 11.158C15.578 11.374 15.305 11.543 15.006 11.641C14.711 11.738 14.393 11.765 14.084 11.718C13.994 11.705 13.903 11.716 13.821 11.75C13.735 11.785 13.663 11.842 13.609 11.915C13.426 12.164 13.181 12.372 12.903 12.513C12.852 12.538 12.8 12.562 12.747 12.583V13.659C13.305 13.7 13.843 13.845 14.265 14.248C14.692 14.656 14.909 15.257 14.909 16.033C14.909 16.447 14.573 16.783 14.159 16.783C13.745 16.783 13.409 16.447 13.409 16.033C13.409 15.792 13.378 15.474 13.229 15.332C13.131 15.239 12.958 15.189 12.748 15.165V17.134H15.747C15.977 17.134 16.194 17.239 16.337 17.42C16.479 17.601 16.53 17.837 16.476 18.061L15.859 20.605C15.504 21.766 14.82 22 14.307 22ZM14.307 20.502V21.25L14.312 20.5C14.31 20.501 14.309 20.501 14.307 20.502ZM9.20303 18.634L9.59503 20.251C9.64103 20.415 9.70603 20.499 9.72403 20.514L14.3 20.5C14.297 20.486 14.351 20.409 14.412 20.208L14.793 18.634H9.20303ZM9.99703 10.212C10.259 10.212 10.518 10.263 10.76 10.364C11.096 10.503 11.388 10.732 11.604 11.025C11.65 11.088 11.71 11.139 11.778 11.173C11.92 11.245 12.089 11.243 12.225 11.174C12.295 11.138 12.356 11.088 12.401 11.026C12.619 10.731 12.911 10.503 13.247 10.364C13.58 10.225 13.947 10.181 14.309 10.235C14.39 10.248 14.466 10.24 14.538 10.216C14.612 10.192 14.68 10.151 14.731 10.098C14.79 10.039 14.833 9.97004 14.858 9.89404C14.879 9.82804 14.886 9.74804 14.875 9.67004C14.821 9.30604 14.866 8.93804 15.007 8.60404C15.143 8.27204 15.37 7.98104 15.664 7.76504C15.727 7.71804 15.779 7.65704 15.813 7.58804C15.849 7.51804 15.868 7.44004 15.868 7.36304C15.868 7.28604 15.849 7.20904 15.813 7.13804C15.779 7.07004 15.727 7.00904 15.664 6.96104C15.374 6.74804 15.144 6.45704 15.005 6.12204C14.865 5.78304 14.821 5.41704 14.874 5.05904C14.887 4.97904 14.88 4.90004 14.856 4.83004C14.83 4.75004 14.789 4.68304 14.735 4.62904C14.68 4.57504 14.613 4.53404 14.54 4.51004C14.463 4.48504 14.383 4.48104 14.309 4.49104C13.945 4.54404 13.577 4.50104 13.241 4.36204C12.906 4.22404 12.614 3.99504 12.398 3.70104C12.351 3.63704 12.294 3.58804 12.225 3.55404C12.079 3.48004 11.913 3.48204 11.777 3.55204C11.704 3.58904 11.644 3.64004 11.599 3.70004C11.382 3.99504 11.09 4.22404 10.754 4.36304C10.419 4.50304 10.051 4.54804 9.69103 4.49204C9.61203 4.48004 9.53403 4.48804 9.46103 4.51104C9.38603 4.53604 9.32003 4.57704 9.26303 4.63304C9.21003 4.68704 9.16803 4.75504 9.14303 4.83004C9.12003 4.90004 9.11403 4.98004 9.12603 5.05904C9.18003 5.41604 9.13603 5.78304 8.99903 6.12004C8.85503 6.46104 8.62603 6.75204 8.33303 6.96704C8.27403 7.01104 8.22103 7.07304 8.18503 7.14404C8.15203 7.20804 8.13403 7.28604 8.13403 7.36504C8.13403 7.44404 8.15203 7.52104 8.18703 7.58904C8.22103 7.65704 8.27303 7.71904 8.33603 7.76604C8.62603 7.97704 8.85503 8.26804 8.99603 8.60504C9.13603 8.94704 9.18003 9.31404 9.12603 9.67104C9.11403 9.74804 9.12103 9.82704 9.14503 9.90104C9.16903 9.97604 9.21003 10.042 9.26403 10.095C9.32203 10.153 9.38903 10.194 9.46203 10.217C9.53803 10.242 9.61803 10.25 9.69303 10.236C9.79403 10.22 9.89603 10.212 9.99703 10.212Z" fill="#1B1A16"/>
</svg>
