<svg width="24" height="24" viewBox="0 0 24 24" fill="none" xmlns="http://www.w3.org/2000/svg">
<path fill-rule="evenodd" clip-rule="evenodd" d="M11.3833 5.96667C11.2551 5.96667 11.1322 6.0176 11.0416 6.10824C10.9509 6.19888 10.9 6.32182 10.9 6.45001V6.93334H12.4833V6.45001C12.4833 6.32182 12.4324 6.19888 12.3418 6.10824C12.2511 6.0176 12.1282 5.96667 12 5.96667H11.3833ZM13.9833 7.10009V6.45001C13.9833 5.924 13.7744 5.41953 13.4024 5.04758C13.0305 4.67563 12.526 4.46667 12 4.46667H11.3833C10.8573 4.46667 10.3529 4.67563 9.9809 5.04758C9.60896 5.41953 9.4 5.924 9.4 6.45001V7.05727C9.15471 7.14065 8.92336 7.26493 8.71632 7.42654C8.30675 7.74624 8.01582 8.19369 7.88978 8.69774L7.09772 11.8667H5.21667C4.36355 11.8667 3.54538 12.2056 2.94214 12.8088C2.3389 13.4121 2 14.2302 2 15.0833V16.3167C2 16.8427 2.20896 17.3472 2.5809 17.7191C2.95285 18.091 3.45732 18.3 3.98333 18.3L4.61394 18.3C4.71273 18.5419 4.85926 18.7641 5.04757 18.9524C5.41952 19.3244 5.92399 19.5333 6.45 19.5333C6.97601 19.5333 7.48048 19.3244 7.85243 18.9524C8.04074 18.7641 8.18727 18.5419 8.28606 18.3H15.7139C15.8127 18.5419 15.9593 18.7641 16.1476 18.9524C16.5195 19.3244 17.024 19.5333 17.55 19.5333C18.076 19.5333 18.5805 19.3244 18.9524 18.9524C19.1407 18.7641 19.2873 18.5419 19.3861 18.3L20.0167 18.3C20.5427 18.3 21.0471 18.0911 21.4191 17.7191C21.791 17.3472 22 16.8427 22 16.3167V13.85C22 13.324 21.791 12.8195 21.4191 12.4476C21.0471 12.0756 20.5427 11.8667 20.0167 11.8667H18.2503C18.0865 10.6362 17.5229 9.48543 16.6354 8.59795C15.898 7.86059 14.9789 7.34676 13.9833 7.10009ZM13.1312 8.46508C13.1362 8.46578 13.1413 8.46642 13.1464 8.46701C14.0605 8.58369 14.9161 9.00001 15.5747 9.65861C16.1802 10.264 16.5808 11.0359 16.7322 11.8667H8.64386L9.34498 9.06161C9.38987 8.88216 9.49347 8.72278 9.63929 8.60896C9.78513 8.49512 9.96484 8.43331 10.1499 8.43334H12.6167C12.7896 8.43334 12.9614 8.44405 13.1312 8.46508ZM19.3861 16.8L20.0167 16.8C20.1449 16.8 20.2678 16.7491 20.3584 16.6584C20.4491 16.5678 20.5 16.4449 20.5 16.3167V13.85C20.5 13.7218 20.4491 13.5989 20.3584 13.5082C20.2678 13.4176 20.1449 13.3667 20.0167 13.3667H5.21667C4.76138 13.3667 4.32474 13.5475 4.0028 13.8695C3.68086 14.1914 3.5 14.6281 3.5 15.0833V16.3167C3.5 16.4449 3.55092 16.5678 3.64157 16.6584C3.73221 16.7491 3.85515 16.8 3.98333 16.8L4.61394 16.8C4.71273 16.5582 4.85926 16.3359 5.04757 16.1476C5.41952 15.7756 5.92399 15.5667 6.45 15.5667C6.97601 15.5667 7.48048 15.7756 7.85243 16.1476C8.04074 16.3359 8.18727 16.5582 8.28606 16.8H15.7139C15.8127 16.5582 15.9593 16.3359 16.1476 16.1476C16.5195 15.7756 17.024 15.5667 17.55 15.5667C18.076 15.5667 18.5805 15.7756 18.9524 16.1476C19.1407 16.3359 19.2873 16.5582 19.3861 16.8ZM8.16667 15.0833C8.16667 14.6691 8.50245 14.3333 8.91667 14.3333H9.53333C9.94755 14.3333 10.2833 14.6691 10.2833 15.0833C10.2833 15.4976 9.94755 15.8333 9.53333 15.8333H8.91667C8.50245 15.8333 8.16667 15.4976 8.16667 15.0833ZM11.25 15.0833C11.25 14.6691 11.5858 14.3333 12 14.3333H12.6167C13.0309 14.3333 13.3667 14.6691 13.3667 15.0833C13.3667 15.4976 13.0309 15.8333 12.6167 15.8333H12C11.5858 15.8333 11.25 15.4976 11.25 15.0833ZM14.3333 15.0833C14.3333 14.6691 14.6691 14.3333 15.0833 14.3333H15.7C16.1142 14.3333 16.45 14.6691 16.45 15.0833C16.45 15.4976 16.1142 15.8333 15.7 15.8333H15.0833C14.6691 15.8333 14.3333 15.4976 14.3333 15.0833ZM6.45 17.0667C6.32181 17.0667 6.19888 17.1176 6.10823 17.2082C6.01759 17.2989 5.96667 17.4218 5.96667 17.55C5.96667 17.6782 6.01759 17.8011 6.10823 17.8918C6.19888 17.9824 6.32181 18.0333 6.45 18.0333C6.57819 18.0333 6.70113 17.9824 6.79177 17.8918C6.88241 17.8011 6.93333 17.6782 6.93333 17.55C6.93333 17.4218 6.88241 17.2989 6.79177 17.2082C6.70113 17.1176 6.57819 17.0667 6.45 17.0667ZM17.55 17.0667C17.4218 17.0667 17.2989 17.1176 17.2082 17.2082C17.1176 17.2989 17.0667 17.4218 17.0667 17.55C17.0667 17.6782 17.1176 17.8011 17.2082 17.8918C17.2989 17.9824 17.4218 18.0333 17.55 18.0333C17.6782 18.0333 17.8011 17.9824 17.8918 17.8918C17.9824 17.8011 18.0333 17.6782 18.0333 17.55C18.0333 17.4218 17.9824 17.2989 17.8918 17.2082C17.8011 17.1176 17.6782 17.0667 17.55 17.0667Z" fill="#1B1A16"/>
</svg>
