<svg width="24" height="24" viewBox="0 0 24 24" fill="none" xmlns="http://www.w3.org/2000/svg">
<path fill-rule="evenodd" clip-rule="evenodd" d="M5.303 2.21967C5.5959 1.92678 6.07077 1.92678 6.36366 2.21967L7.597 3.453C7.88989 3.7459 7.88989 4.22077 7.597 4.51366C7.3041 4.80656 6.82923 4.80656 6.53634 4.51366L5.303 3.28033C5.01011 2.98744 5.01011 2.51256 5.303 2.21967ZM18.697 2.21967C18.9899 2.51256 18.9899 2.98744 18.697 3.28033L17.4637 4.51366C17.1708 4.80656 16.6959 4.80656 16.403 4.51366C16.1101 4.22077 16.1101 3.7459 16.403 3.453L17.6363 2.21967C17.9292 1.92678 18.4041 1.92678 18.697 2.21967ZM2.88384 4.95146C3.03031 4.56401 3.46314 4.36865 3.85059 4.51512L5.48188 5.13179C5.86933 5.27825 6.06469 5.71108 5.91823 6.09853C5.77176 6.48599 5.33893 6.68135 4.95148 6.53488L3.32019 5.91821C2.93273 5.77175 2.73738 5.33892 2.88384 4.95146ZM21.1162 4.95146C21.2626 5.33892 21.0673 5.77175 20.6798 5.91821L19.0485 6.53488C18.6611 6.68135 18.2283 6.48599 18.0818 6.09853C17.9353 5.71108 18.1307 5.27825 18.5181 5.13179L20.1494 4.51512C20.5369 4.36865 20.9697 4.56401 21.1162 4.95146ZM8.91667 5.96667C8.78848 5.96667 8.66554 6.01759 8.5749 6.10823C8.48426 6.19887 8.43333 6.32181 8.43333 6.45C8.43333 6.57819 8.48426 6.70113 8.5749 6.79177C8.66554 6.88241 8.78848 6.93333 8.91667 6.93333H11.25V5.96667H8.91667ZM8.91667 4.46667C8.39065 4.46667 7.88619 4.67562 7.51424 5.04757C7.14229 5.41952 6.93333 5.92399 6.93333 6.45C6.93333 6.7235 6.98983 6.99118 7.09635 7.23743C7.01556 7.28107 6.93694 7.32922 6.86087 7.38176C6.43775 7.674 6.11368 8.0882 5.93182 8.56921L5.93101 8.57137L4.92347 11.2613L4.87511 11.2128C4.50331 10.8413 3.99854 10.6318 3.47289 10.6317H2.75C2.33579 10.6317 2 10.9675 2 11.3817C2 11.7959 2.33579 12.1317 2.75 12.1317H3.47257C3.47252 12.1317 3.47263 12.1317 3.47257 12.1317C3.60049 12.1318 3.72332 12.1825 3.81386 12.2729C3.81377 12.2728 3.81395 12.273 3.81386 12.2729L4.1565 12.6162L2.65551 14.1172C2.65549 14.1172 2.65553 14.1171 2.65551 14.1172C2.23594 14.5367 2.0001 15.1057 2 15.699V17.55C2 18.076 2.20896 18.5805 2.5809 18.9524C2.76507 19.1366 2.98372 19.2827 3.22434 19.3824C3.22734 19.3836 3.23033 19.3848 3.23333 19.3861L3.23333 20.0167C3.23333 20.5427 3.44229 21.0472 3.81424 21.4192C4.18619 21.7911 4.69065 22.0001 5.21667 22.0001C5.74268 22.0001 6.24715 21.7911 6.61909 21.4192C6.99104 21.0472 7.2 20.5427 7.2 20.0167V19.5333H8.2823C8.29394 19.5336 8.30561 19.5336 8.3173 19.5333H15.6826C15.6943 19.5336 15.706 19.5336 15.7176 19.5333H16.8V20.0167C16.8 20.5427 17.009 21.0472 17.3809 21.4192C17.7529 21.7911 18.2573 22.0001 18.7833 22.0001C19.3093 22.0001 19.8138 21.7911 20.1858 21.4192C20.5577 21.0472 20.7667 20.5427 20.7667 20.0167V19.3861C21.0085 19.2873 21.2308 19.1407 21.4191 18.9524C21.791 18.5805 22 18.076 22 17.55V15.6992C21.9999 15.3887 21.9353 15.0847 21.8136 14.8054C21.805 14.7837 21.7953 14.7625 21.7847 14.7418C21.6759 14.5121 21.5278 14.3004 21.3446 14.1172C21.3445 14.1172 21.3446 14.1172 21.3446 14.1172L19.8435 12.6162L20.1859 12.2732C20.2764 12.1826 20.3992 12.1318 20.5273 12.1317C20.5272 12.1317 20.5273 12.1317 20.5273 12.1317H21.25C21.6642 12.1317 22 11.7959 22 11.3817C22 10.9675 21.6642 10.6317 21.25 10.6317H20.5273C20.0016 10.6318 19.4974 10.8406 19.1256 11.2122L19.0765 11.2613L18.069 8.57137L18.0682 8.56921C17.8863 8.0882 17.5623 7.674 17.1391 7.38176C17.0631 7.32922 16.9844 7.28107 16.9037 7.23743C17.0102 6.99118 17.0667 6.7235 17.0667 6.45C17.0667 5.92399 16.8577 5.41952 16.4858 5.04757C16.1138 4.67562 15.6093 4.46667 15.0833 4.46667H8.91667ZM15.0833 6.93333C15.2115 6.93333 15.3345 6.88241 15.4251 6.79177C15.5157 6.70112 15.5667 6.57819 15.5667 6.45C15.5667 6.32181 15.5157 6.19887 15.4251 6.10823C15.3345 6.01759 15.2115 5.96667 15.0833 5.96667H12.75V6.93333H15.0833ZM8.3 8.43333C8.09053 8.43324 7.88567 8.49695 7.71332 8.61599C7.54124 8.73485 7.40938 8.90322 7.33524 9.09876C7.33512 9.09906 7.33536 9.09845 7.33524 9.09876L6.29848 11.8667H17.7015L16.6651 9.09968C16.665 9.09941 16.6652 9.09995 16.6651 9.09968C16.591 8.9041 16.4588 8.73487 16.2867 8.61599C16.1143 8.49695 15.9098 8.43324 15.7003 8.43333H8.3ZM18.4727 13.3667H5.52733L4.56066 14.3333H5.28893C5.96399 14.3333 6.62195 14.5457 7.16963 14.9404C7.7173 15.3351 8.12691 15.8921 8.34046 16.5325L8.84055 18.0333H15.1594L15.6594 16.5326C15.8729 15.8922 16.2826 15.3351 16.8303 14.9404C17.378 14.5457 18.0359 14.3333 18.711 14.3333H19.4393L18.4727 13.3667ZM20.5 15.8333H18.711C18.3507 15.8333 17.9996 15.9467 17.7073 16.1573C17.415 16.3679 17.1964 16.6652 17.0824 17.007L16.7404 18.0333H20.0167C20.1449 18.0333 20.2678 17.9824 20.3584 17.8918C20.4491 17.8011 20.5 17.6782 20.5 17.55V15.8333ZM18.3 19.5334V20.0167C18.3 20.1449 18.3509 20.2678 18.4416 20.3585C18.5322 20.4491 18.6551 20.5001 18.7833 20.5001C18.9115 20.5001 19.0345 20.4491 19.1251 20.3585C19.2157 20.2678 19.2667 20.1449 19.2667 20.0167V19.5333L18.3 19.5334ZM7.25947 18.0333L6.91749 17.007C6.91747 17.0069 6.91751 17.007 6.91749 17.007C6.80351 16.6653 6.58487 16.3679 6.29264 16.1573C6.00036 15.9467 5.64922 15.8333 5.28893 15.8333H3.5V17.55C3.5 17.6782 3.55092 17.8011 3.64157 17.8918C3.68645 17.9366 3.73973 17.9722 3.79837 17.9965C3.85701 18.0208 3.91986 18.0333 3.98333 18.0333H7.25947ZM5.7 19.5334L4.73333 19.5333V20.0167C4.73333 20.1449 4.78426 20.2678 4.8749 20.3585C4.96554 20.4491 5.08848 20.5001 5.21667 20.5001C5.34485 20.5001 5.46779 20.4491 5.55843 20.3585C5.64908 20.2678 5.7 20.1449 5.7 20.0167V19.5334ZM9.4 16.3167C9.4 15.9025 9.73579 15.5667 10.15 15.5667H13.85C14.2642 15.5667 14.6 15.9025 14.6 16.3167C14.6 16.7309 14.2642 17.0667 13.85 17.0667H10.15C9.73579 17.0667 9.4 16.7309 9.4 16.3167Z" fill="#1B1A16"/>
</svg>
