<svg width="24" height="24" viewBox="0 0 24 24" fill="none" xmlns="http://www.w3.org/2000/svg">
<path fill-rule="evenodd" clip-rule="evenodd" d="M12.6167 6.27502C12.4885 6.27502 12.3655 6.32595 12.2749 6.41659C12.1843 6.50723 12.1333 6.63017 12.1333 6.75836V7.85836H13.1V6.75836C13.1 6.63017 13.0491 6.50723 12.9584 6.41659C12.8678 6.32595 12.7449 6.27502 12.6167 6.27502ZM14.6 7.87754V6.75836C14.6 6.23234 14.391 5.72788 14.0191 5.35593C13.6471 4.98398 13.1427 4.77502 12.6167 4.77502C12.0907 4.77502 11.5862 4.98398 11.2142 5.35593C10.8423 5.72788 10.6333 6.23235 10.6333 6.75836V7.85836H7.82909C7.82902 7.85836 7.82917 7.85836 7.82909 7.85836C7.46078 7.85829 7.09951 7.96078 6.78616 8.15434C6.47275 8.34794 6.21946 8.62501 6.05467 8.95448L4.73496 11.5946C4.06013 11.6968 3.43066 12.012 2.94214 12.5005C2.3389 13.1037 2 13.9219 2 14.775V16.0084C2 16.5344 2.20896 17.0388 2.5809 17.4108C2.95285 17.7827 3.45732 17.9917 3.98333 17.9917L4.61394 17.9917C4.71273 18.2335 4.85926 18.4558 5.04757 18.6441C5.41952 19.0161 5.92399 19.225 6.45 19.225C6.97601 19.225 7.48048 19.0161 7.85243 18.6441C8.04074 18.4558 8.18727 18.2335 8.28606 17.9917H14.4806C14.5794 18.2335 14.7259 18.4558 14.9142 18.6441C15.2862 19.0161 15.7907 19.225 16.3167 19.225C16.8427 19.225 17.3471 19.0161 17.7191 18.6441C17.9074 18.4558 18.0539 18.2335 18.1527 17.9917L20.0167 17.9917C20.5427 17.9917 21.0471 17.7827 21.4191 17.4108C21.791 17.0388 22 16.5344 22 16.0084V14.775C22 13.9219 21.6611 13.1037 21.0579 12.5005C20.4546 11.8973 19.6364 11.5584 18.7833 11.5584L17.3974 11.5584L16.099 8.95523C15.9342 8.62576 15.6805 8.34794 15.3671 8.15434C15.1325 8.00941 14.8711 7.91553 14.6 7.87754ZM15.7211 11.5584L14.7571 9.62548C14.757 9.62536 14.7571 9.6256 14.7571 9.62548C14.7169 9.54535 14.6551 9.4776 14.5788 9.43049C14.5024 9.38331 14.4144 9.35833 14.3246 9.35836H7.82887C7.73909 9.35833 7.65086 9.38331 7.57448 9.43049C7.49811 9.47767 7.43638 9.54519 7.39622 9.62548L6.43004 11.5584H15.7211ZM18.1527 16.4917L20.0167 16.4917C20.1449 16.4917 20.2678 16.4408 20.3584 16.3501C20.4491 16.2595 20.5 16.1365 20.5 16.0084V14.775C20.5 14.3197 20.3191 13.8831 19.9972 13.5612C19.6753 13.2392 19.2386 13.0584 18.7833 13.0584L5.21667 13.0584C4.76138 13.0584 4.32474 13.2392 4.0028 13.5612C3.68086 13.8831 3.5 14.3197 3.5 14.775V16.0084C3.5 16.1365 3.55092 16.2595 3.64157 16.3501C3.73221 16.4408 3.85514 16.4917 3.98333 16.4917L4.61394 16.4917C4.71273 16.2498 4.85926 16.0276 5.04757 15.8393C5.41952 15.4673 5.92399 15.2584 6.45 15.2584C6.97601 15.2584 7.48048 15.4673 7.85243 15.8393C8.04074 16.0276 8.18727 16.2498 8.28606 16.4917H14.4806C14.5794 16.2498 14.7259 16.0276 14.9142 15.8393C15.2862 15.4673 15.7907 15.2584 16.3167 15.2584C16.8427 15.2584 17.3471 15.4673 17.7191 15.8393C17.9074 16.0276 18.0539 16.2498 18.1527 16.4917ZM6.45 16.7584C6.32181 16.7584 6.19888 16.8093 6.10823 16.8999C6.01759 16.9906 5.96667 17.1135 5.96667 17.2417C5.96667 17.3699 6.01759 17.4928 6.10823 17.5835C6.19887 17.6741 6.32181 17.725 6.45 17.725C6.57819 17.725 6.70113 17.6741 6.79177 17.5835C6.88241 17.4928 6.93333 17.3699 6.93333 17.2417C6.93333 17.1135 6.88241 16.9906 6.79177 16.8999C6.70113 16.8093 6.57819 16.7584 6.45 16.7584ZM16.3167 16.7584C16.1885 16.7584 16.0655 16.8093 15.9749 16.8999C15.8843 16.9906 15.8333 17.1135 15.8333 17.2417C15.8333 17.3699 15.8843 17.4928 15.9749 17.5835C16.0655 17.6741 16.1885 17.725 16.3167 17.725C16.4449 17.725 16.5678 17.6741 16.6584 17.5835C16.7491 17.4928 16.8 17.3699 16.8 17.2417C16.8 17.1135 16.7491 16.9906 16.6584 16.8999C16.5678 16.8093 16.4449 16.7584 16.3167 16.7584Z" fill="#1B1A16"/>
</svg>
