<svg width="24" height="24" viewBox="0 0 24 24" fill="none" xmlns="http://www.w3.org/2000/svg">
<path fill-rule="evenodd" clip-rule="evenodd" d="M9.53337 3.5C9.40518 3.5 9.28224 3.55092 9.1916 3.64156C9.10096 3.73221 9.05004 3.85514 9.05004 3.98333V6.93333H14.95V3.98333C14.95 3.85515 14.8991 3.73221 14.8085 3.64156C14.7178 3.55092 14.5949 3.5 14.4667 3.5H9.53337ZM16.45 6.93333V3.98333C16.45 3.45732 16.2411 2.95285 15.8691 2.58091C15.4972 2.20896 14.9927 2 14.4667 2H9.53337C9.00736 2 8.50289 2.20896 8.13094 2.58091C7.75899 2.95285 7.55004 3.45732 7.55004 3.98333V6.93333H7.06671C6.54069 6.93333 6.03622 7.14229 5.66428 7.51424C5.29233 7.88618 5.08337 8.39065 5.08337 8.91667V10.9779C5.08337 10.9779 5.08337 10.9779 5.08337 10.9779C5.08334 11.4004 5.16654 11.8189 5.32825 12.2093C5.48995 12.5996 5.72697 12.9543 6.02578 13.2531C6.02575 13.253 6.0258 13.2531 6.02578 13.2531L7.55004 14.7773V16.8824C7.55004 17.4084 7.75899 17.9128 8.13094 18.2848C8.50289 18.6567 9.00736 18.8657 9.53337 18.8657H11.25V21.25C11.25 21.6642 11.5858 22 12 22C12.4142 22 12.75 21.6642 12.75 21.25V18.8657H14.4667C14.9927 18.8657 15.4972 18.6567 15.8691 18.2848C16.2411 17.9128 16.45 17.4084 16.45 16.8824V14.7773L17.9742 13.2531C17.9742 13.2532 17.9742 13.2531 17.9742 13.2531C18.273 12.9544 18.5101 12.5996 18.6718 12.2093C18.8335 11.8189 18.9167 11.4005 18.9167 10.978C18.9167 10.9779 18.9167 10.978 18.9167 10.978V8.91667C18.9167 8.39065 18.7077 7.88618 18.3358 7.51424C17.9638 7.14229 17.4594 6.93333 16.9334 6.93333H16.45ZM14.4667 17.3657C14.5949 17.3657 14.7178 17.3148 14.8085 17.2241C14.8991 17.1335 14.95 17.0105 14.95 16.8824V14.4667C14.95 14.2678 15.029 14.077 15.1697 13.9363L16.9136 12.1924C17.0731 12.033 17.1997 11.8436 17.286 11.6352C17.3723 11.4269 17.4167 11.2036 17.4167 10.9781V8.91667C17.4167 8.78848 17.3658 8.66554 17.2751 8.5749C17.1845 8.48425 17.0615 8.43333 16.9334 8.43333H7.06671C6.93852 8.43333 6.81558 8.48425 6.72494 8.5749C6.6343 8.66554 6.58337 8.78848 6.58337 8.91667V10.978C6.58335 11.2035 6.62775 11.4269 6.71406 11.6352C6.80036 11.8436 6.92687 12.0329 7.08636 12.1923L8.83037 13.9363C8.97102 14.077 9.05004 14.2678 9.05004 14.4667V16.8824C9.05004 17.0105 9.10096 17.1335 9.1916 17.2241C9.28224 17.3148 9.40518 17.3657 9.53337 17.3657H14.4667ZM10.6334 5.21667C10.6334 4.80245 10.9692 4.46667 11.3834 4.46667H12.6167C13.0309 4.46667 13.3667 4.80245 13.3667 5.21667C13.3667 5.63088 13.0309 5.96667 12.6167 5.96667H11.3834C10.9692 5.96667 10.6334 5.63088 10.6334 5.21667ZM12 9.4C12.1989 9.4 12.3897 9.47902 12.5304 9.61967L13.7637 10.853C14.0566 11.1459 14.0566 11.6208 13.7637 11.9137C13.4708 12.2066 12.9959 12.2066 12.703 11.9137L12 11.2107L11.297 11.9137C11.0041 12.2066 10.5293 12.2066 10.2364 11.9137C9.94348 11.6208 9.94348 11.1459 10.2364 10.853L11.4697 9.61967C11.6104 9.47902 11.8011 9.4 12 9.4Z" fill="#1B1A16"/>
</svg>
