<svg width="24" height="24" viewBox="0 0 24 24" fill="none" xmlns="http://www.w3.org/2000/svg">
<path fill-rule="evenodd" clip-rule="evenodd" d="M8.43341 3.5V8.16667H15.5667V3.5H8.43341ZM17.0667 8.31394V3.36667C17.0667 3.00421 16.9228 2.65659 16.6665 2.40029C16.4102 2.14399 16.0625 2 15.7001 2H8.30007C7.93761 2 7.58999 2.14399 7.33369 2.40029C7.07739 2.65659 6.93341 3.0042 6.93341 3.36667V8.31394C6.69156 8.41273 6.46929 8.55926 6.28098 8.74757C5.90903 9.11952 5.70007 9.62399 5.70007 10.15V15.0833C5.70007 16.2635 6.16891 17.3954 7.00345 18.23C7.65906 18.8856 8.49818 19.3155 9.40007 19.4697V21.25C9.40007 21.6642 9.73586 22 10.1501 22C10.5643 22 10.9001 21.6642 10.9001 21.25V19.5333H13.1001V21.25C13.1001 21.6642 13.4359 22 13.8501 22C14.2643 22 14.6001 21.6642 14.6001 21.25V19.4697C15.502 19.3155 16.3411 18.8856 16.9967 18.23C17.8312 17.3954 18.3001 16.2635 18.3001 15.0833V10.15C18.3001 9.62399 18.0911 9.11952 17.7192 8.74757C17.5309 8.55926 17.3086 8.41273 17.0667 8.31394ZM10.1501 4.46667C10.5643 4.46667 10.9001 4.80245 10.9001 5.21667V6.45C10.9001 6.86421 10.5643 7.2 10.1501 7.2C9.73586 7.2 9.40007 6.86421 9.40007 6.45V5.21667C9.40007 4.80245 9.73586 4.46667 10.1501 4.46667ZM13.8501 4.46667C14.2643 4.46667 14.6001 4.80245 14.6001 5.21667V6.45C14.6001 6.86421 14.2643 7.2 13.8501 7.2C13.4359 7.2 13.1001 6.86421 13.1001 6.45V5.21667C13.1001 4.80245 13.4359 4.46667 13.8501 4.46667ZM7.68341 9.66667C7.55522 9.66667 7.43228 9.71759 7.34164 9.80823C7.251 9.89887 7.20007 10.0218 7.20007 10.15V15.0833C7.20007 15.8657 7.51088 16.6161 8.06411 17.1693C8.61734 17.7225 9.36769 18.0333 10.1501 18.0333H13.8501C14.6325 18.0333 15.3828 17.7225 15.936 17.1693C16.4893 16.6161 16.8001 15.8657 16.8001 15.0833V10.15C16.8001 10.0218 16.7492 9.89887 16.6585 9.80823C16.5679 9.71759 16.4449 9.66667 16.3167 9.66667H7.68341Z" fill="#1B1A16"/>
</svg>
