<svg width="24" height="24" viewBox="0 0 24 24" fill="none" xmlns="http://www.w3.org/2000/svg">
<path fill-rule="evenodd" clip-rule="evenodd" d="M10.7759 3.5C10.1693 3.5 9.67755 3.99175 9.67755 4.59836C9.67755 5.20496 10.1693 5.69671 10.7759 5.69671C11.3825 5.69671 11.8743 5.20496 11.8743 4.59836C11.8743 3.99175 11.3825 3.5 10.7759 3.5ZM8.17968 4.49207C8.23543 3.10632 9.37647 2 10.7759 2C12.1753 2 13.3164 3.10632 13.3721 4.49207C13.8348 4.06688 14.452 3.80729 15.1299 3.80729C16.5649 3.80729 17.7282 4.97062 17.7282 6.40565C17.7282 7.08349 17.4687 7.70071 17.0435 8.16333C18.4292 8.21917 19.5354 9.36017 19.5354 10.7595C19.5354 12.1589 18.4292 13.2999 17.0435 13.3558C17.4687 13.8184 17.7282 14.4356 17.7282 15.1134C17.7282 15.5581 17.6166 15.9767 17.4197 16.3426L17.9618 16.8848C17.9766 16.8377 17.9932 16.7911 18.0115 16.7452C18.1112 16.495 18.2609 16.2677 18.4513 16.0773C18.6417 15.8868 18.869 15.7372 19.1192 15.6375C19.3694 15.5378 19.6373 15.4901 19.9065 15.4974L19.9182 15.4977C20.4544 15.5206 20.9614 15.7482 21.3349 16.1336C21.7078 16.5183 21.9192 17.0312 21.9259 17.5668C21.9259 17.5677 21.926 17.5686 21.926 17.5695L21.9836 20.8639C21.9836 21.1652 21.8638 21.4542 21.6508 21.6673C21.4377 21.8803 21.1487 22 20.8474 22H20.8343L17.5483 21.9424L17.5435 21.9423C17.0071 21.9294 16.496 21.7115 16.1154 21.3333C15.7348 20.955 15.5136 20.4453 15.4974 19.909L15.4973 19.9066C15.49 19.6374 15.5377 19.3695 15.6374 19.1193C15.7371 18.8691 15.8867 18.6418 16.0772 18.4514C16.2676 18.2609 16.4949 18.1113 16.7451 18.0116C16.7993 17.99 16.8543 17.9709 16.9099 17.9542L16.359 17.4033C15.9931 17.6001 15.5745 17.7118 15.1299 17.7118C14.452 17.7118 13.8348 17.4522 13.3721 17.027C13.3164 18.4128 12.1753 19.5191 10.7759 19.5191C9.37647 19.5191 8.23544 18.4128 8.17968 17.027C7.71705 17.4522 7.0998 17.7118 6.42192 17.7118C4.98688 17.7118 3.82356 16.5485 3.82356 15.1134C3.82356 14.4356 4.08311 13.8184 4.50826 13.3558C3.12259 13.2999 2.01636 12.1589 2.01636 10.7595C2.01636 9.36017 3.12259 8.21917 4.50826 8.16333C4.08311 7.70071 3.82356 7.08349 3.82356 6.40565C3.82356 4.97062 4.98688 3.80729 6.42192 3.80729C7.0998 3.80729 7.71704 4.06688 8.17968 4.49207ZM9.01814 6.51194C8.9638 7.86238 7.87879 8.94745 6.52837 9.00187C6.95352 9.46449 7.21307 10.0817 7.21307 10.7595C7.21307 11.4374 6.95352 12.0546 6.52837 12.5172C7.87879 12.5716 8.96381 13.6567 9.01814 15.0072C9.48078 14.582 10.098 14.3224 10.7759 14.3224C11.4538 14.3224 12.071 14.582 12.5337 15.0072C12.588 13.6567 13.673 12.5716 15.0234 12.5172C14.5983 12.0546 14.3387 11.4374 14.3387 10.7595C14.3387 10.0817 14.5983 9.46449 15.0234 9.00187C13.673 8.94745 12.588 7.86238 12.5337 6.51194C12.071 6.93713 11.4538 7.19671 10.7759 7.19671C10.098 7.19671 9.48077 6.93713 9.01814 6.51194ZM15.9292 15.8667C15.9213 15.8741 15.9134 15.8816 15.9057 15.8893C15.898 15.897 15.8905 15.9049 15.8832 15.9128C15.6865 16.0982 15.4215 16.2118 15.1299 16.2118C14.5233 16.2118 14.0315 15.72 14.0315 15.1134C14.0315 14.5068 14.5233 14.0151 15.1299 14.0151C15.7365 14.0151 16.2282 14.5068 16.2282 15.1134C16.2282 15.405 16.1146 15.6701 15.9292 15.8667ZM18.6299 19.3712C18.627 19.3712 18.6241 19.3712 18.6212 19.3712H17.5122L17.4919 19.371C17.4264 19.3692 17.3612 19.3808 17.3003 19.405C17.2395 19.4293 17.1842 19.4657 17.1378 19.512C17.0915 19.5584 17.0551 19.6136 17.0309 19.6745C17.0067 19.7351 16.9951 19.7998 16.9968 19.865C17.0017 20.0172 17.0646 20.1619 17.1727 20.2693C17.2806 20.3765 17.4253 20.4385 17.5774 20.4427C17.578 20.4427 17.5787 20.4427 17.5794 20.4427L20.4769 20.4934L20.4261 17.5911L20.4261 17.5864C20.4243 17.4336 20.3641 17.2872 20.2577 17.1775C20.1528 17.0692 20.0108 17.0047 19.8603 16.9967C19.7967 16.9958 19.7336 17.0074 19.6744 17.0309C19.6136 17.0552 19.5583 17.0916 19.512 17.1379C19.4656 17.1843 19.4292 17.2395 19.405 17.3004C19.3807 17.3613 19.3691 17.4265 19.3709 17.4919L19.3712 17.5122V18.4646C19.4222 18.7047 19.3545 18.965 19.1679 19.1516C19.0195 19.3 18.8244 19.3732 18.6299 19.3712ZM6.42192 5.30729C5.81531 5.30729 5.32356 5.79904 5.32356 6.40565C5.32356 7.01226 5.81531 7.50401 6.42192 7.50401C7.02852 7.50401 7.52027 7.01226 7.52027 6.40565C7.52027 5.79904 7.02852 5.30729 6.42192 5.30729ZM15.1299 5.30729C14.5233 5.30729 14.0315 5.79904 14.0315 6.40565C14.0315 7.01226 14.5233 7.50401 15.1299 7.50401C15.7365 7.50401 16.2282 7.01226 16.2282 6.40565C16.2282 5.79904 15.7365 5.30729 15.1299 5.30729ZM4.61471 9.66119C4.00811 9.66119 3.51636 10.1529 3.51636 10.7595C3.51636 11.3662 4.00811 11.8579 4.61471 11.8579C5.22132 11.8579 5.71307 11.3662 5.71307 10.7595C5.71307 10.1529 5.22132 9.66119 4.61471 9.66119ZM16.9371 9.66119C16.3305 9.66119 15.8387 10.1529 15.8387 10.7595C15.8387 11.3662 16.3305 11.8579 16.9371 11.8579C17.5437 11.8579 18.0354 11.3662 18.0354 10.7595C18.0354 10.1529 17.5437 9.66119 16.9371 9.66119ZM6.42192 14.0151C5.81531 14.0151 5.32356 14.5068 5.32356 15.1134C5.32356 15.72 5.81531 16.2118 6.42192 16.2118C7.02852 16.2118 7.52027 15.72 7.52027 15.1134C7.52027 14.5068 7.02852 14.0151 6.42192 14.0151ZM10.7759 15.8224C10.1693 15.8224 9.67755 16.3141 9.67755 16.9207C9.67755 17.5273 10.1693 18.0191 10.7759 18.0191C11.3825 18.0191 11.8743 17.5273 11.8743 16.9207C11.8743 16.3141 11.3825 15.8224 10.7759 15.8224Z" fill="#1B1A16"/>
</svg>
