<svg width="24" height="24" viewBox="0 0 24 24" fill="none" xmlns="http://www.w3.org/2000/svg">
<path d="M21.8089 12.191C21.8089 11.168 21.1859 10.288 20.2999 9.91002C20.5219 9.53902 20.6559 9.11202 20.6559 8.65002C20.6559 7.28302 19.5439 6.17102 18.1769 6.17102C18.1419 6.17102 18.1099 6.18002 18.0739 6.18102C18.0859 5.92102 18.0659 5.65802 17.9919 5.39702C17.8109 4.76402 17.3999 4.22902 16.8329 3.88902C16.4569 3.66302 16.0209 3.55602 15.5959 3.54602C15.4929 3.25202 15.3359 2.97102 15.1169 2.72102C14.3749 1.87102 13.0319 1.76302 12.0099 2.51402C11.1669 1.84702 9.80992 1.90002 8.95292 2.64902C8.67192 2.89502 8.47892 3.20402 8.36092 3.54402C7.94892 3.55602 7.54092 3.66302 7.16692 3.88802C6.59992 4.22802 6.18792 4.76402 6.00792 5.39602C5.93392 5.65702 5.91392 5.92002 5.92492 6.18002C5.89092 6.17902 5.85792 6.17002 5.82292 6.17002C4.45592 6.17002 3.34392 7.28202 3.34392 8.64902C3.34392 9.11102 3.47892 9.53902 3.69992 9.90902C2.81392 10.287 2.19092 11.167 2.19092 12.19C2.19092 13.227 2.83192 14.114 3.73792 14.483C3.49092 14.869 3.34392 15.323 3.34392 15.813C3.34392 17.18 4.45592 18.292 5.82292 18.292C5.88292 18.292 5.93792 18.278 5.99592 18.274C5.99192 18.333 5.97792 18.387 5.97792 18.447C5.97792 19.815 7.08992 20.927 8.45692 20.927C8.93292 20.927 9.37392 20.785 9.75192 20.552C10.1469 21.405 11.0029 22 11.9999 22C12.9969 22 13.8539 21.405 14.2459 20.555C14.6239 20.788 15.0649 20.93 15.5409 20.93C16.9089 20.93 18.0209 19.818 18.0209 18.45C18.0209 18.39 18.0069 18.336 18.0029 18.277C18.0619 18.281 18.1159 18.295 18.1759 18.295C19.5429 18.295 20.6549 17.183 20.6549 15.816C20.6549 15.326 20.5079 14.872 20.2609 14.486C21.1679 14.115 21.8089 13.228 21.8089 12.191ZM15.7149 15.988C15.6559 15.984 15.6009 15.97 15.5409 15.97C14.5449 15.97 13.6879 16.565 13.2949 17.415C12.9169 17.182 12.4759 17.04 11.9999 17.04C11.5239 17.04 11.0829 17.182 10.7049 17.415C10.3109 16.564 9.45492 15.97 8.45792 15.97C8.39892 15.97 8.34292 15.984 8.28492 15.988C8.28892 15.929 8.30292 15.874 8.30292 15.814C8.30292 14.777 7.66192 13.889 6.75592 13.52C7.00292 13.135 7.14992 12.68 7.14992 12.19C7.14992 11.728 7.01492 11.3 6.79392 10.929C7.67992 10.551 8.30292 9.67102 8.30292 8.64802C8.30292 8.61002 8.29292 8.57402 8.29192 8.53602C8.33792 8.54002 8.38392 8.55602 8.43092 8.55602C8.86292 8.55602 9.29992 8.44302 9.69892 8.20302C9.99592 8.00502 10.2369 7.75802 10.4339 7.48502L11.4699 8.52102C11.6159 8.66702 11.8079 8.74102 11.9999 8.74102C12.1919 8.74102 12.3839 8.66802 12.5299 8.52102L13.5449 7.50602C13.7499 7.79302 14.0079 8.03702 14.3319 8.22202C14.7159 8.45202 15.1399 8.56202 15.5609 8.56202C15.6109 8.56202 15.6589 8.54602 15.7069 8.54302C15.7049 8.57902 15.6959 8.61302 15.6959 8.65002C15.6959 9.67202 16.3189 10.552 17.2049 10.931C16.9829 11.302 16.8489 11.729 16.8489 12.192C16.8489 12.682 16.9959 13.137 17.2429 13.522C16.3379 13.892 15.6969 14.779 15.6969 15.816C15.6969 15.874 15.7109 15.93 15.7149 15.988ZM19.1559 8.64902C19.1559 9.18902 18.7169 9.62802 18.1769 9.62802C17.6369 9.62802 17.1979 9.18902 17.1979 8.64902C17.1979 8.10902 17.6369 7.67002 18.1769 7.67002C18.7169 7.67002 19.1559 8.10902 19.1559 8.64902ZM16.0619 5.17402C16.2969 5.31602 16.4749 5.54602 16.5499 5.80702C16.6219 6.06102 16.5909 6.31902 16.4629 6.53302C16.1709 7.01902 15.5479 7.20302 15.0899 6.92702C14.8669 6.80002 14.7289 6.63702 14.6419 6.40902L15.0829 5.96802C15.3479 5.70302 15.5219 5.38202 15.6269 5.04002C15.7709 5.05402 15.9289 5.09502 16.0619 5.17402ZM9.94092 3.77802C10.1229 3.61902 10.3529 3.53102 10.5889 3.53102C10.8069 3.53102 11.0029 3.60702 11.1399 3.74402L11.4699 4.07302C11.7629 4.36502 12.2359 4.36502 12.5299 4.07302L12.8229 3.77802C13.1939 3.45402 13.7229 3.40402 13.9879 3.70702C14.3049 4.07002 14.3199 4.60802 14.0219 4.90702L11.9999 6.93002L10.0119 4.94402C9.83992 4.74902 9.73892 4.50502 9.73292 4.27502C9.72792 4.07002 9.79792 3.90302 9.94092 3.77802ZM7.93792 5.17402C8.04692 5.10902 8.19792 5.05002 8.37492 5.03902C8.48792 5.36502 8.66392 5.68002 8.91692 5.96802L9.34592 6.39702C9.24892 6.61302 9.09592 6.80302 8.89692 6.93602C8.45092 7.20202 7.82792 7.01802 7.53692 6.53402C7.26992 6.08802 7.45392 5.46502 7.93792 5.17402ZM5.82292 7.67002C6.36292 7.67002 6.80192 8.10902 6.80192 8.64902C6.80192 9.18902 6.36292 9.62902 5.82292 9.62902C5.28292 9.62902 4.84392 9.18902 4.84392 8.64902C4.84392 8.10902 5.28292 7.67002 5.82292 7.67002ZM4.66992 11.211C5.20992 11.211 5.64892 11.65 5.64892 12.191C5.64892 12.731 5.20992 13.17 4.66992 13.17C4.12992 13.17 3.69092 12.731 3.69092 12.191C3.69092 11.65 4.12992 11.211 4.66992 11.211ZM4.84392 15.814C4.84392 15.274 5.28292 14.835 5.82292 14.835C6.36292 14.835 6.80192 15.274 6.80192 15.814C6.80192 16.354 6.36292 16.793 5.82292 16.793C5.28292 16.793 4.84392 16.354 4.84392 15.814ZM8.45792 19.43C7.91792 19.43 7.47892 18.991 7.47892 18.45C7.47892 17.91 7.91792 17.471 8.45792 17.471C8.99792 17.471 9.43692 17.909 9.43692 18.45C9.43792 18.99 8.99892 19.43 8.45792 19.43ZM11.9999 20.5C11.4599 20.5 11.0209 20.061 11.0209 19.521C11.0209 18.981 11.4599 18.541 11.9999 18.541C12.5399 18.541 12.9789 18.98 12.9789 19.52C12.9789 20.06 12.5399 20.5 11.9999 20.5ZM15.5409 19.43C15.0009 19.43 14.5619 18.991 14.5619 18.45C14.5619 17.91 14.9999 17.471 15.5409 17.471C16.0819 17.471 16.5209 17.909 16.5209 18.45C16.5209 18.99 16.0819 19.43 15.5409 19.43ZM18.1769 16.794C17.6369 16.794 17.1979 16.355 17.1979 15.815C17.1979 15.275 17.6369 14.836 18.1769 14.836C18.7169 14.836 19.1559 15.275 19.1559 15.815C19.1559 16.355 18.7169 16.794 18.1769 16.794ZM19.3299 13.17C18.7889 13.17 18.3499 12.731 18.3499 12.191C18.3499 11.65 18.7889 11.211 19.3299 11.211C19.8699 11.211 20.3089 11.65 20.3089 12.191C20.3089 12.73 19.8699 13.17 19.3299 13.17Z" fill="#1B1A16"/>
</svg>
