<svg width="24" height="24" viewBox="0 0 24 24" fill="none" xmlns="http://www.w3.org/2000/svg">
<path d="M12.3461 16.0244C12.682 16.2669 12.7576 16.7357 12.5151 17.0715C12.1036 17.6414 11.5623 18.105 10.936 18.4239C10.5669 18.6119 10.1153 18.4651 9.9273 18.096C9.73932 17.7269 9.88615 17.2753 10.2553 17.0873C10.6692 16.8765 11.027 16.57 11.299 16.1934C11.5415 15.8576 12.0103 15.7819 12.3461 16.0244Z" fill="#1B1A16"/>
<path d="M6.82685 16.5398C6.53186 16.249 6.057 16.2525 5.76622 16.5474C5.47544 16.8424 5.47886 17.3173 5.77385 17.6081C6.27106 18.0982 6.87373 18.4681 7.53581 18.6896C7.92862 18.8211 8.3536 18.6092 8.48502 18.2164C8.61645 17.8235 8.40455 17.3986 8.01174 17.2671C7.5665 17.1182 7.16122 16.8694 6.82685 16.5398Z" fill="#1B1A16"/>
<path d="M5.96031 12.1118C6.33 12.2986 6.47824 12.7497 6.29141 13.1194C6.08057 13.5366 5.9694 13.9971 5.96666 14.4645C5.96423 14.8787 5.62648 15.2125 5.21228 15.2101C4.79807 15.2077 4.46426 14.8699 4.46669 14.4557C4.47079 13.7562 4.63714 13.0672 4.95265 12.4429C5.13948 12.0732 5.59062 11.9249 5.96031 12.1118Z" fill="#1B1A16"/>
<path d="M8.00313 11.6559C8.44655 11.5135 8.91723 11.4772 9.37721 11.5502C9.78631 11.6151 10.1705 11.336 10.2354 10.9269C10.3003 10.5178 10.0212 10.1336 9.61213 10.0687C8.91995 9.95894 8.21165 10.0134 7.54439 10.2278C7.15002 10.3544 6.93302 10.7768 7.0597 11.1712C7.18637 11.5656 7.60876 11.7826 8.00313 11.6559Z" fill="#1B1A16"/>
<path d="M11.4628 11.6836C11.7965 11.4383 12.2659 11.5098 12.5113 11.8435C12.9292 12.4118 13.2022 13.0735 13.3066 13.7711C13.3679 14.1808 13.0855 14.5626 12.6759 14.6239C12.2662 14.6852 11.8844 14.4028 11.8231 13.9932C11.7548 13.5368 11.5763 13.1039 11.3029 12.7322C11.0575 12.3985 11.1291 11.929 11.4628 11.6836Z" fill="#1B1A16"/>
<path fill-rule="evenodd" clip-rule="evenodd" d="M16.9333 9.39352C15.4974 9.39352 14.3333 10.5576 14.3333 11.9935C14.3333 13.4295 15.4974 14.5935 16.9333 14.5935C18.3693 14.5935 19.5333 13.4295 19.5333 11.9935C19.5333 10.5576 18.3693 9.39352 16.9333 9.39352ZM15.8333 11.9935C15.8333 11.386 16.3258 10.8935 16.9333 10.8935C17.5408 10.8935 18.0333 11.386 18.0333 11.9935C18.0333 12.601 17.5408 13.0935 16.9333 13.0935C16.3258 13.0935 15.8333 12.601 15.8333 11.9935Z" fill="#1B1A16"/>
<path d="M14.95 16.3102C14.95 15.8959 15.2858 15.5602 15.7 15.5602H18.1667C18.5809 15.5602 18.9167 15.8959 18.9167 16.3102C18.9167 16.7244 18.5809 17.0602 18.1667 17.0602H15.7C15.2858 17.0602 14.95 16.7244 14.95 16.3102Z" fill="#1B1A16"/>
<path d="M15.7 18.0268C15.2858 18.0268 14.95 18.3626 14.95 18.7768C14.95 19.191 15.2858 19.5268 15.7 19.5268H18.1667C18.5809 19.5268 18.9167 19.191 18.9167 18.7768C18.9167 18.3626 18.5809 18.0268 18.1667 18.0268H15.7Z" fill="#1B1A16"/>
<path fill-rule="evenodd" clip-rule="evenodd" d="M4.8458 2.04148C4.45447 1.90572 4.02717 2.11291 3.89142 2.50425C3.75567 2.89558 3.96286 3.32287 4.35419 3.45863L14.352 6.92685H3.57222C2.70391 6.92685 2 7.63076 2 8.49907V20.4279C2 21.2962 2.70391 22.0001 3.57222 22.0001H20.4278C21.2961 22.0001 22 21.2962 22 20.4279V8.49907C22 7.63076 21.2961 6.92685 20.4278 6.92685H18.9288L4.8458 2.04148ZM18.7867 8.42685C18.7971 8.42707 18.8075 8.42706 18.8178 8.42685H20.4278C20.4677 8.42685 20.5 8.45918 20.5 8.49907V20.4279C20.5 20.4678 20.4677 20.5001 20.4278 20.5001H3.57222C3.53234 20.5001 3.5 20.4678 3.5 20.4279V8.49907C3.5 8.45918 3.53234 8.42685 3.57222 8.42685H18.7867Z" fill="#1B1A16"/>
</svg>
