<svg width="24" height="24" viewBox="0 0 24 24" fill="none" xmlns="http://www.w3.org/2000/svg">
<path d="M12.27 13.386C12.018 13.386 11.772 13.336 11.539 13.24C11.31 13.145 11.101 13.007 10.922 12.828C10.744 12.65 10.606 12.442 10.509 12.21C10.413 11.977 10.364 11.731 10.364 11.48C10.364 11.228 10.413 10.982 10.509 10.751C10.606 10.519 10.744 10.311 10.922 10.133C11.1 9.95503 11.308 9.81703 11.54 9.72003C12.005 9.52803 12.534 9.52803 12.998 9.72003C13.232 9.81803 13.44 9.95603 13.617 10.134C13.794 10.311 13.932 10.518 14.03 10.75C14.127 10.987 14.176 11.231 14.176 11.481C14.176 11.731 14.127 11.975 14.032 12.208C13.932 12.445 13.794 12.652 13.617 12.829C13.439 13.007 13.231 13.146 12.998 13.242C12.767 13.336 12.521 13.386 12.27 13.386ZM12.27 11.073C12.216 11.073 12.164 11.083 12.114 11.104C12.065 11.124 12.02 11.154 11.983 11.191C11.946 11.228 11.916 11.273 11.895 11.323C11.874 11.372 11.864 11.425 11.864 11.478C11.864 11.531 11.874 11.584 11.895 11.634C11.915 11.683 11.945 11.728 11.982 11.765C12.019 11.802 12.063 11.831 12.112 11.851C12.217 11.896 12.324 11.894 12.424 11.852C12.475 11.831 12.52 11.801 12.557 11.764C12.595 11.726 12.625 11.681 12.646 11.63C12.666 11.583 12.676 11.53 12.676 11.476C12.676 11.423 12.665 11.37 12.645 11.319C12.625 11.272 12.595 11.227 12.557 11.189C12.52 11.152 12.474 11.122 12.424 11.101C12.375 11.083 12.323 11.073 12.27 11.073Z" fill="#1B1A16"/>
<path d="M20.348 12.229C20.346 12.229 20.341 12.229 20.339 12.229H16.274C15.953 12.229 15.645 12.114 15.404 11.904C15.165 11.696 15.007 11.408 14.96 11.094C14.903 10.697 14.756 10.312 14.534 9.97803C14.312 9.64603 14.014 9.36203 13.672 9.15603C13.371 8.97403 13.159 8.68903 13.071 8.35103C12.982 8.01103 13.031 7.65603 13.208 7.35103L15.365 3.61703C15.453 3.46203 15.575 3.32403 15.725 3.21303C15.877 3.10203 16.041 3.02703 16.217 2.98703C16.385 2.94803 16.575 2.94203 16.753 2.97503C16.935 3.00803 17.103 3.07703 17.254 3.17803C18.518 4.02203 19.588 5.16403 20.35 6.48003C21.112 7.79703 21.568 9.29503 21.668 10.812C21.682 10.989 21.657 11.17 21.596 11.344C21.535 11.516 21.441 11.672 21.316 11.807C21.195 11.937 21.041 12.046 20.873 12.119C20.711 12.191 20.528 12.229 20.348 12.229ZM16.419 10.729H20.171C20.061 9.54303 19.678 8.31603 19.051 7.23203C18.433 6.16303 17.573 5.22803 16.559 4.52003L14.587 7.96103C15.057 8.27003 15.469 8.67703 15.782 9.14703C16.099 9.62603 16.317 10.169 16.419 10.729Z" fill="#1B1A16"/>
<path d="M8.26504 12.229H4.19304C4.00904 12.229 3.83104 12.192 3.66304 12.119C3.49604 12.046 3.34904 11.943 3.22504 11.81C3.09804 11.673 3.00304 11.517 2.94204 11.345C2.88104 11.176 2.85604 10.995 2.86804 10.812C2.97004 9.29603 3.42604 7.79803 4.18804 6.48103C4.95004 5.16503 6.02104 4.02303 7.28604 3.17803C7.43804 3.07703 7.61104 3.00803 7.78804 2.97603C7.96604 2.94403 8.14704 2.95003 8.32003 2.99003C8.50103 3.03203 8.66404 3.10803 8.81004 3.21603C8.95704 3.32403 9.07804 3.46003 9.17004 3.61803L11.329 7.35503C11.505 7.65803 11.553 8.01303 11.465 8.35203C11.378 8.68903 11.165 8.97603 10.864 9.15603C10.522 9.36203 10.225 9.64703 10.004 9.97903C9.78004 10.317 9.63604 10.691 9.57804 11.092C9.53204 11.408 9.37404 11.696 9.13304 11.905C8.89104 12.114 8.58304 12.229 8.26504 12.229ZM4.37904 10.729H8.11703C8.22004 10.168 8.43804 9.62503 8.75403 9.14903C9.06603 8.68003 9.47603 8.27203 9.94703 7.96103L7.96504 4.53103C6.95704 5.23703 6.10304 6.16703 5.48704 7.23203C4.87004 8.29803 4.48904 9.50303 4.37904 10.729Z" fill="#1B1A16"/>
<path d="M12.269 21.479C10.747 21.479 9.22204 21.123 7.85704 20.448C7.69404 20.367 7.55104 20.256 7.43304 20.115C7.31304 19.972 7.22704 19.814 7.17504 19.641C7.12304 19.467 7.10704 19.287 7.12704 19.107C7.14904 18.92 7.20604 18.749 7.29704 18.591L9.89304 14.096C9.99404 13.922 10.16 13.795 10.354 13.745C10.547 13.692 10.754 13.723 10.928 13.827C11.739 14.314 12.803 14.312 13.611 13.827C13.784 13.724 13.989 13.693 14.185 13.745C14.379 13.795 14.545 13.922 14.646 14.096L17.242 18.592C17.332 18.745 17.391 18.925 17.412 19.106C17.433 19.278 17.418 19.459 17.366 19.636C17.314 19.811 17.227 19.971 17.108 20.114C16.991 20.254 16.846 20.367 16.68 20.449C15.316 21.122 13.791 21.479 12.269 21.479ZM8.68804 19.183C10.919 20.226 13.621 20.225 15.851 19.183L13.693 15.445C12.786 15.779 11.755 15.779 10.847 15.445L8.68804 19.183Z" fill="#1B1A16"/>
</svg>
