<svg width="24" height="24" viewBox="0 0 24 24" fill="none" xmlns="http://www.w3.org/2000/svg">
<path fill-rule="evenodd" clip-rule="evenodd" d="M4.44995 3.55C4.44995 2.69396 5.14391 2 5.99995 2H18C18.856 2 19.55 2.69396 19.55 3.55V19.2C19.55 20.056 18.856 20.75 18 20.75H17.07V21.25C17.07 21.6642 16.7342 22 16.32 22C15.9058 22 15.57 21.6642 15.57 21.25V20.75H8.42V21.25C8.42 21.6642 8.08421 22 7.67 22C7.25579 22 6.92 21.6642 6.92 21.25V20.75H5.99995C5.14391 20.75 4.44995 20.056 4.44995 19.2V3.55ZM5.99995 3.5C5.97234 3.5 5.94995 3.52239 5.94995 3.55V8.15H18.05V3.55C18.05 3.52239 18.0276 3.5 18 3.5H5.99995ZM18.05 9.65H5.94995V19.2C5.94995 19.2276 5.97234 19.25 5.99995 19.25H18C18.0276 19.25 18.05 19.2276 18.05 19.2V9.65ZM7.67004 4.57001C8.08426 4.57001 8.42004 4.90579 8.42004 5.32001V6.32C8.42004 6.73421 8.08426 7.07 7.67004 7.07C7.25583 7.07 6.92004 6.73421 6.92004 6.32V5.32001C6.92004 4.90579 7.25583 4.57001 7.67004 4.57001ZM7.67004 11.99C8.08426 11.99 8.42004 12.3258 8.42004 12.74V16.2C8.42004 16.6142 8.08426 16.95 7.67004 16.95C7.25583 16.95 6.92004 16.6142 6.92004 16.2V12.74C6.92004 12.3258 7.25583 11.99 7.67004 11.99Z" fill="#1B1A16"/>
</svg>
