<svg width="24" height="24" viewBox="0 0 24 24" fill="none" xmlns="http://www.w3.org/2000/svg">
<path d="M20.387 5.20902C19.449 4.33302 18.224 3.85002 16.938 3.84802H12.62H11.387C10.199 3.84802 9.08095 4.31102 8.23995 5.15202C7.39695 5.99302 6.93495 7.11002 6.93495 8.29902V12.143L4.83295 8.29102L5.66695 7.66602C5.99795 7.41702 6.06495 6.94702 5.81695 6.61602C5.56895 6.28502 5.09995 6.21702 4.76695 6.46502L2.29995 8.31602C1.96895 8.56502 1.90195 9.03502 2.14995 9.36602C2.29695 9.56202 2.52295 9.66602 2.75095 9.66602C2.90795 9.66602 3.06495 9.61702 3.20095 9.51602L3.62195 9.20102L6.93495 15.276V18.169C6.93495 18.699 7.14195 19.197 7.51695 19.573C7.88695 19.942 8.39795 20.153 8.91895 20.153H16.321C16.849 20.153 17.346 19.947 17.723 19.572C18.098 19.197 18.305 18.698 18.305 18.169V13.778C19.313 13.494 20.216 12.922 20.881 12.093C21.686 11.092 22.078 9.83502 21.986 8.55302C21.894 7.27102 21.326 6.08302 20.387 5.20902ZM16.805 18.168C16.805 18.297 16.754 18.419 16.663 18.51C16.572 18.601 16.447 18.653 16.32 18.653H8.91795C8.79095 18.653 8.66595 18.601 8.57595 18.511C8.48495 18.419 8.43395 18.298 8.43395 18.168V8.29902C8.43395 7.51002 8.74095 6.77002 9.29795 6.21302C9.85595 5.65502 10.597 5.34802 11.385 5.34802H12.032L12.774 8.32002C12.916 8.87802 13.244 9.38102 13.698 9.73502C14.153 10.089 14.719 10.283 15.297 10.283H16.804L16.805 18.168ZM19.713 11.152C19.336 11.621 18.848 11.969 18.305 12.196V9.53302C18.305 9.11902 17.969 8.78302 17.555 8.78302H15.296C15.053 8.78302 14.814 8.70002 14.621 8.55102C14.429 8.40102 14.289 8.18802 14.229 7.95302L13.579 5.34802H16.936C17.84 5.34902 18.703 5.68902 19.364 6.30602C20.025 6.92202 20.426 7.75802 20.49 8.66002C20.555 9.56302 20.278 10.448 19.713 11.152Z" fill="#1B1A16"/>
</svg>
