<svg width="24" height="24" viewBox="0 0 24 24" fill="none" xmlns="http://www.w3.org/2000/svg">
<path fill-rule="evenodd" clip-rule="evenodd" d="M6.77048 3.5C6.64229 3.5 6.51935 3.55093 6.42872 3.64156C6.33808 3.7322 6.28715 3.85515 6.28715 3.98333V6.41955C7.16202 5.96002 8.1581 5.70001 9.21491 5.70001C9.49122 5.70001 9.76374 5.71783 10.0313 5.75247C10.4421 5.80564 10.732 6.18175 10.6788 6.59254C10.6256 7.00333 10.2495 7.29323 9.83875 7.24006C9.63487 7.21367 9.42667 7.20001 9.21491 7.20001C8.04331 7.20001 6.96965 7.61933 6.13581 8.31607C6.07612 8.39504 6.00116 8.46182 5.91533 8.51203C4.98835 9.388 4.40991 10.629 4.40991 12.005C4.40991 13.3694 4.97855 14.6009 5.89176 15.4756C5.99595 15.5316 6.08538 15.6115 6.1527 15.708C6.98412 16.3963 8.05121 16.81 9.21491 16.81C11.7765 16.81 13.8703 14.8052 14.0122 12.2795C14.0355 11.866 14.3896 11.5496 14.8031 11.5728C15.2167 11.596 15.5331 11.9501 15.5099 12.3637C15.4204 13.9551 14.7412 15.3887 13.6871 16.4493V20.0167C13.6871 20.5426 13.4783 21.0471 13.1063 21.4191C12.7343 21.7911 12.2297 22 11.7038 22H6.77048C6.24452 22 5.74003 21.7911 5.36805 21.4191C4.99609 21.0472 4.78715 20.5426 4.78715 20.0167V16.4937C3.62823 15.3504 2.90991 13.7616 2.90991 12.005C2.90991 10.2484 3.62823 8.65966 4.78715 7.51636V3.98333C4.78715 3.45732 4.99611 2.95285 5.36805 2.58091C5.74 2.20895 6.24448 2 6.77048 2H10.4705C10.8847 2 11.2205 2.33579 11.2205 2.75C11.2205 3.16421 10.8847 3.5 10.4705 3.5H6.77048ZM6.28715 17.5905V20.0167C6.28715 20.1449 6.33809 20.2678 6.42872 20.3585C6.51932 20.4491 6.64225 20.5 6.77048 20.5H11.7038C11.8321 20.5 11.955 20.4491 12.0456 20.3585C12.1362 20.2679 12.1871 20.1449 12.1871 20.0167V17.5669C11.3016 18.0411 10.2897 18.31 9.21491 18.31C8.1581 18.31 7.16202 18.05 6.28715 17.5905ZM11.5109 4.67704C12.8706 3.737 14.4843 3.23345 16.1373 3.23345C17.7903 3.23345 19.4041 3.737 20.7637 4.67704C21.1045 4.9126 21.1897 5.37976 20.9541 5.72047C20.7186 6.06118 20.2514 6.14643 19.9107 5.91087C18.8017 5.14415 17.4855 4.73345 16.1373 4.73345C14.7891 4.73345 13.4729 5.14415 12.3639 5.91087C12.0232 6.14643 11.5561 6.06118 11.3205 5.72047C11.0849 5.37976 11.1702 4.9126 11.5109 4.67704ZM16.1373 7.1885C15.3236 7.1885 14.5276 7.42549 13.8465 7.87048C13.4998 8.09705 13.035 7.99961 12.8085 7.65285C12.5819 7.30609 12.6793 6.84132 13.0261 6.61476C13.9511 6.01035 15.0323 5.6885 16.1373 5.6885C17.2423 5.6885 18.3234 6.01036 19.2485 6.61474C19.5953 6.84129 19.6927 7.30605 19.4662 7.65282C19.2396 7.99959 18.7749 8.09705 18.4281 7.8705C17.7469 7.42548 16.9509 7.1885 16.1373 7.1885ZM15.079 9.82851C15.079 9.24401 15.5528 8.77017 16.1373 8.77017C16.7218 8.77017 17.1956 9.24401 17.1956 9.82851C17.1956 10.413 16.7218 10.8868 16.1373 10.8868C15.5528 10.8868 15.079 10.413 15.079 9.82851Z" fill="#1B1A16"/>
</svg>
