<svg width="24" height="24" viewBox="0 0 24 24" fill="none" xmlns="http://www.w3.org/2000/svg">
<path d="M13.88 12.502C13.478 12.414 13.073 12.662 12.982 13.066C12.781 13.949 12.336 14.754 11.698 15.393C11.058 16.034 10.254 16.478 9.372 16.68C8.489 16.883 7.571 16.832 6.717 16.532C5.864 16.234 5.115 15.703 4.549 14.995C3.985 14.288 3.633 13.439 3.531 12.539C3.43 11.64 3.584 10.734 3.976 9.918C4.368 9.103 4.981 8.418 5.747 7.936C6.512 7.455 7.395 7.2 8.3 7.2C8.714 7.2 9.05 6.864 9.05 6.45C9.05 6.036 8.714 5.7 8.3 5.7C7.265 5.7 6.258 5.968 5.35 6.451V3.983C5.35 3.854 5.4 3.733 5.492 3.641C5.584 3.549 5.705 3.5 5.833 3.5H9.533C9.947 3.5 10.283 3.164 10.283 2.75C10.283 2.336 9.948 2 9.534 2H5.834C5.304 2 4.806 2.207 4.431 2.582C4.056 2.957 3.85 3.455 3.85 3.983V7.561C3.354 8.059 2.932 8.628 2.624 9.268C2.109 10.338 1.907 11.528 2.041 12.707C2.174 13.889 2.636 15.003 3.377 15.931C3.523 16.115 3.687 16.282 3.851 16.447V20.017C3.851 20.546 4.057 21.043 4.433 21.42C4.808 21.794 5.305 22 5.833 22H10.767C11.295 22 11.793 21.794 12.17 21.418C12.544 21.044 12.75 20.546 12.75 20.017V16.461C12.752 16.458 12.756 16.457 12.758 16.454C13.597 15.614 14.18 14.558 14.445 13.4C14.536 12.996 14.283 12.595 13.88 12.502ZM11.25 20.017C11.25 20.146 11.2 20.268 11.11 20.358C11.019 20.449 10.894 20.501 10.767 20.501H5.833C5.706 20.501 5.581 20.449 5.492 20.36C5.4 20.267 5.35 20.146 5.35 20.017V17.564C5.63 17.712 5.919 17.843 6.221 17.949C6.892 18.184 7.595 18.303 8.3 18.303C8.77 18.303 9.241 18.25 9.706 18.145C10.248 18.021 10.765 17.821 11.25 17.563V20.017Z" fill="#1B1A16"/>
<path d="M21.42 2.582C21.052 2.212 20.54 2 20.017 2H12.618C12.088 2 11.59 2.207 11.215 2.582C10.84 2.957 10.634 3.455 10.634 3.984V8.917C10.634 9.439 10.846 9.95 11.215 10.319C11.59 10.694 12.088 10.9 12.618 10.9H20.017C20.54 10.9 21.052 10.688 21.418 10.319C21.788 9.951 22 9.439 22 8.917V3.983C22 3.454 21.794 2.956 21.42 2.582ZM12.275 3.642C12.365 3.552 12.49 3.5 12.617 3.5H20.016C20.144 3.5 20.268 3.551 20.358 3.642C20.361 3.645 20.364 3.648 20.367 3.651L16.569 6.023C16.415 6.12 16.211 6.119 16.056 6.023L12.265 3.651C12.269 3.648 12.272 3.645 12.275 3.642ZM20.357 9.259C20.269 9.349 20.145 9.4 20.017 9.4H12.618C12.491 9.4 12.366 9.348 12.276 9.258C12.186 9.168 12.134 9.043 12.134 8.916V5.337L15.262 7.294C15.578 7.491 15.942 7.595 16.313 7.595C16.685 7.595 17.048 7.491 17.365 7.294L20.5 5.336V8.917C20.5 9.044 20.448 9.168 20.357 9.259Z" fill="#1B1A16"/>
</svg>
