<svg width="24" height="24" viewBox="0 0 24 24" fill="none" xmlns="http://www.w3.org/2000/svg">
<path d="M11.25 8.24998C10.8358 8.24998 10.5 8.58577 10.5 8.99998V12.5C10.5 12.7361 10.6112 12.9583 10.8 13.1L12.8 14.6C13.1314 14.8485 13.6015 14.7814 13.85 14.45C14.0985 14.1186 14.0314 13.6485 13.7 13.4L12 12.125V8.99998C12 8.58577 11.6642 8.24998 11.25 8.24998Z" fill="#1B1A16"/>
<path fill-rule="evenodd" clip-rule="evenodd" d="M14.25 2.24998C14.6075 2.24998 14.9153 2.50233 14.9854 2.8529L15.9081 7.46647C16.884 8.46898 17.539 9.78543 17.7072 11.25H17.75C18.1642 11.25 18.5 11.5858 18.5 12C18.5 12.4142 18.1642 12.75 17.75 12.75H17.7072C17.539 14.2145 16.884 15.531 15.9081 16.5335L14.9854 21.1471C14.9153 21.4977 14.6075 21.75 14.25 21.75H8.24999C7.89248 21.75 7.58467 21.4977 7.51456 21.1471L6.59184 16.5335C5.45203 15.3625 4.75 13.7633 4.75 12C4.75 10.2367 5.45203 8.63744 6.59184 7.46648L7.51456 2.8529C7.58467 2.50233 7.89248 2.24998 8.24999 2.24998H14.25ZM8.38177 17.8346C9.24686 18.2607 10.2205 18.5 11.25 18.5C12.2795 18.5 13.2531 18.2607 14.1182 17.8346L13.6351 20.25H11.377L11.373 20.254L11.3691 20.25H8.86485L8.38177 17.8346ZM11.25 5.49998C12.2795 5.49998 13.2531 5.7393 14.1182 6.16535L13.6351 3.74998H8.86485L8.38177 6.16536C9.24686 5.73931 10.2205 5.49998 11.25 5.49998ZM11.25 6.99998C8.49 6.99998 6.25 9.23998 6.25 12C6.25 14.76 8.49 17 11.25 17C14.01 17 16.25 14.76 16.25 12C16.25 9.23998 14.01 6.99998 11.25 6.99998Z" fill="#1B1A16"/>
</svg>
