<svg width="24" height="24" viewBox="0 0 24 24" fill="none" xmlns="http://www.w3.org/2000/svg">
<path d="M13.557 13.744C13.182 13.561 12.736 13.713 12.552 14.083C12.172 14.85 11.594 15.501 10.878 15.969C10.163 16.437 9.33401 16.705 8.47901 16.746C7.62601 16.789 6.77401 16.598 6.01701 16.2C5.26101 15.804 4.62301 15.209 4.17201 14.481C3.72101 13.755 3.47201 12.919 3.45201 12.065C3.43101 11.21 3.64001 10.364 4.05601 9.61595C4.47101 8.86995 5.08001 8.24595 5.81701 7.81195C6.55401 7.37895 7.39601 7.14995 8.25001 7.14995C8.66401 7.14995 9.00001 6.81395 9.00001 6.39995C9.00001 5.98595 8.66401 5.64995 8.25001 5.64995C7.22001 5.64995 6.20901 5.91495 5.30001 6.39795V3.93295C5.30001 3.80595 5.35201 3.68095 5.44201 3.59095C5.53201 3.50095 5.65601 3.44995 5.78401 3.44995H9.48401C9.89801 3.44995 10.234 3.11395 10.234 2.69995C10.234 2.28595 9.89801 1.94995 9.48401 1.94995H5.78401C5.26201 1.94995 4.75001 2.16095 4.38201 2.53095C4.01201 2.89995 3.80001 3.41095 3.80001 3.93295V7.49695C3.38801 7.90895 3.03001 8.37395 2.74501 8.88695C2.20001 9.86795 1.92501 10.979 1.95201 12.1C1.97901 13.222 2.30601 14.319 2.89701 15.272C3.15201 15.683 3.46101 16.054 3.80001 16.395V19.966C3.80001 20.4949 4.00701 20.993 4.38101 21.367C4.75501 21.742 5.25301 21.948 5.78401 21.948H10.717C11.247 21.948 11.745 21.742 12.119 21.368C12.494 20.993 12.7 20.4949 12.7 19.966V16.392C13.18 15.911 13.592 15.363 13.895 14.748C14.079 14.378 13.928 13.928 13.557 13.744ZM11.059 20.309C10.968 20.4 10.847 20.45 10.717 20.45H5.78401C5.65401 20.45 5.53301 20.4 5.44201 20.309C5.35101 20.217 5.30001 20.0959 5.30001 19.9669V17.517C5.30601 17.521 5.31201 17.525 5.31901 17.529C6.22401 18.005 7.23201 18.252 8.25101 18.252C8.35101 18.252 8.45001 18.25 8.54901 18.245C9.47901 18.201 10.382 17.94 11.199 17.506V19.968C11.2 20.096 11.15 20.217 11.059 20.309Z" fill="#1B1A16"/>
<path d="M21.608 3.74095C21.38 3.28295 21.042 2.88195 20.631 2.58095C20.221 2.27795 19.737 2.07495 19.231 1.99195C18.722 1.90995 18.205 1.94995 17.718 2.10695C17.231 2.26395 16.782 2.53895 16.423 2.89895L16.266 3.05595L16.11 2.89795C15.748 2.53695 15.3 2.26295 14.816 2.10595C14.33 1.94895 13.81 1.90995 13.303 1.99195C12.799 2.07395 12.315 2.27695 11.904 2.57995C11.492 2.88295 11.154 3.28395 10.927 3.73995C10.62 4.35195 10.516 5.03195 10.627 5.70695C10.736 6.38195 11.05 6.99395 11.522 7.46595L15.727 11.853C15.868 12 16.064 12.084 16.268 12.084C16.472 12.084 16.668 12.001 16.809 11.853L21.002 7.47795C21.485 6.99495 21.799 6.38195 21.909 5.70795C22.019 5.03395 21.914 4.35295 21.608 3.74095ZM20.428 5.46595C20.369 5.82795 20.2 6.15695 19.93 6.42795L16.267 10.25L12.593 6.41695C12.334 6.15795 12.165 5.82895 12.107 5.46595C12.048 5.10395 12.104 4.73895 12.269 4.40995C12.391 4.16595 12.572 3.95095 12.793 3.78795C13.018 3.62295 13.271 3.51695 13.544 3.47195C13.636 3.45695 13.73 3.44995 13.822 3.44995C14.004 3.44995 14.183 3.47795 14.356 3.53395C14.616 3.61695 14.856 3.76495 15.05 3.95895L15.737 4.64595C16.03 4.93795 16.504 4.93895 16.798 4.64595L17.486 3.95795C17.678 3.76495 17.919 3.61795 18.18 3.53395C18.441 3.44895 18.722 3.42895 18.991 3.47195C19.263 3.51595 19.522 3.62495 19.743 3.78795C19.964 3.94995 20.145 4.16495 20.267 4.40995C20.431 4.73995 20.486 5.10395 20.428 5.46595Z" fill="#1B1A16"/>
</svg>
