<svg width="24" height="24" viewBox="0 0 24 24" fill="none" xmlns="http://www.w3.org/2000/svg">
<path fill-rule="evenodd" clip-rule="evenodd" d="M10 3.44995C9.82724 3.44995 9.67219 3.51397 9.56647 3.61176C9.46273 3.70773 9.41667 3.8248 9.41667 3.93328V6.12934C10.2297 5.81516 11.107 5.64995 12 5.64995C12.893 5.64995 13.7703 5.81516 14.5833 6.12934V3.93328C14.5833 3.8248 14.5373 3.70773 14.4335 3.61176C14.3278 3.51397 14.1728 3.44995 14 3.44995H10ZM16.0833 6.93281V3.93328C16.0833 3.38757 15.8484 2.87724 15.4521 2.51061C15.0577 2.14581 14.5345 1.94995 14 1.94995H10C9.46552 1.94995 8.94229 2.14581 8.54791 2.51061C8.15156 2.87724 7.91667 3.38757 7.91667 3.93328V6.93281C7.68277 7.09863 7.45932 7.27953 7.24808 7.47493C5.97656 8.65109 5.25 10.2594 5.25 11.95C5.25 13.6405 5.97656 15.2488 7.24808 16.425C7.45933 16.6204 7.68278 16.8013 7.91669 16.9671V19.9666C7.91669 20.5123 8.15158 21.0226 8.54793 21.3893C8.94231 21.7541 9.46554 21.9499 10 21.9499H14C14.5345 21.9499 15.0577 21.7541 15.4521 21.3893C15.8485 21.0226 16.0834 20.5123 16.0834 19.9666V16.9671C16.3172 16.8013 16.5407 16.6204 16.7519 16.425C18.0234 15.2488 18.75 13.6405 18.75 11.95C18.75 10.2594 18.0234 8.65109 16.7519 7.47493C16.5407 7.27953 16.3172 7.09863 16.0833 6.93281ZM14.9194 7.96117C14.9326 7.96995 14.9462 7.97831 14.96 7.98625C15.2362 8.15876 15.4954 8.35599 15.7334 8.57608C16.7123 9.48158 17.25 10.6966 17.25 11.95C17.25 13.2033 16.7123 14.4183 15.7334 15.3238C15.4956 15.5438 15.2366 15.7409 14.9605 15.9133C14.9464 15.9214 14.9325 15.93 14.9189 15.939C14.0648 16.4616 13.0514 16.75 12 16.75C10.9488 16.75 9.93559 16.4618 9.08158 15.9393C9.06771 15.9301 9.05353 15.9213 9.03904 15.913C8.76315 15.7407 8.50429 15.5436 8.26664 15.3238C7.28772 14.4183 6.75 13.2033 6.75 11.95C6.75 10.6966 7.28772 9.48158 8.26664 8.57608C8.50458 8.35599 8.76376 8.15876 9.04002 7.98625C9.05383 7.97831 9.06735 7.96995 9.08059 7.96117C9.93481 7.43836 10.9484 7.14995 12 7.14995C13.0516 7.14995 14.0652 7.43836 14.9194 7.96117ZM9.41669 17.7706V19.9666C9.41669 20.0751 9.46275 20.1921 9.56649 20.2881C9.67221 20.3859 9.82726 20.4499 10 20.4499H14C14.1728 20.4499 14.3278 20.3859 14.4335 20.2881C14.5373 20.1921 14.5834 20.0751 14.5834 19.9666V17.7706C13.7703 18.0847 12.893 18.25 12 18.25C11.107 18.25 10.2298 18.0847 9.41669 17.7706Z" fill="#1B1A16"/>
</svg>
