<svg width="24" height="24" viewBox="0 0 24 24" fill="none" xmlns="http://www.w3.org/2000/svg">
<path fill-rule="evenodd" clip-rule="evenodd" d="M7.31224 2.74235C7.571 3.0658 7.51856 3.53777 7.19511 3.79653L4.26542 6.14028C3.94198 6.39903 3.47001 6.34659 3.21125 6.02314C2.95249 5.6997 3.00493 5.22773 3.32838 4.96897L6.25807 2.62522C6.58152 2.36646 7.05348 2.41891 7.31224 2.74235ZM16.6878 2.74235C16.9466 2.41891 17.4185 2.36646 17.742 2.62522L20.6717 4.96897C20.9951 5.22773 21.0476 5.6997 20.7888 6.02314C20.53 6.34659 20.0581 6.39903 19.7346 6.14028L16.8049 3.79653C16.4815 3.53777 16.4291 3.0658 16.6878 2.74235ZM6.49785 7.0837C7.95712 5.62443 9.93631 4.80462 12 4.80462C14.0637 4.80462 16.0429 5.62443 17.5022 7.0837C18.9615 8.54297 19.7813 10.5222 19.7813 12.5859C19.7813 14.6496 18.9615 16.6288 17.5022 18.088C17.2118 18.3785 16.9007 18.6436 16.5726 18.8819L17.3584 20.4536C17.5436 20.8241 17.3935 21.2746 17.023 21.4598C16.6525 21.6451 16.202 21.4949 16.0168 21.1244L15.2764 19.6437C14.2595 20.1158 13.1427 20.3671 12 20.3671C10.8574 20.3671 9.74077 20.1158 8.72389 19.6438L7.9833 21.1245C7.798 21.4949 7.34748 21.6451 6.97702 21.4598C6.60656 21.2745 6.45646 20.8239 6.64176 20.4535L7.42773 18.8821C7.09946 18.6437 6.78835 18.3785 6.49785 18.088C5.03859 16.6288 4.21878 14.6496 4.21878 12.5859C4.21878 10.5222 5.03859 8.54297 6.49785 7.0837ZM12 6.30462C10.3341 6.30462 8.73648 6.9664 7.55851 8.14436C6.38055 9.32232 5.71878 10.92 5.71878 12.5859C5.71878 14.2518 6.38055 15.8494 7.55851 17.0274C8.73648 18.2054 10.3341 18.8671 12 18.8671C13.6659 18.8671 15.2636 18.2054 16.4415 17.0274C17.6195 15.8494 18.2813 14.2518 18.2813 12.5859C18.2813 10.92 17.6195 9.32232 16.4415 8.14436C15.2636 6.9664 13.6659 6.30462 12 6.30462ZM12 7.73431C12.4142 7.73431 12.75 8.07009 12.75 8.4843L12.7501 12.5859C12.7501 12.7848 12.6711 12.9755 12.5304 13.1162C12.3898 13.2569 12.199 13.3359 12.0001 13.3359H9.35086C8.93664 13.3359 8.60086 13.0001 8.60086 12.5859C8.60086 12.1717 8.93664 11.8359 9.35086 11.8359H11.2501L11.25 8.48432C11.25 8.07011 11.5858 7.73432 12 7.73431Z" fill="#1B1A16"/>
</svg>
