<svg width="24" height="24" viewBox="0 0 24 24" fill="none" xmlns="http://www.w3.org/2000/svg">
<path d="M21.055 2.944C20.448 2.338 19.642 2.002 18.785 2H15.082C14.224 2.002 13.418 2.338 12.812 2.944C12.205 3.549 11.869 4.356 11.867 5.217V9.799L5.763 14.883C5.235 15.323 4.564 15.567 3.876 15.567C3.382 15.567 2.898 15.767 2.547 16.118C2.195 16.473 2 16.943 2 17.443V20.016C2 20.545 2.207 21.043 2.581 21.418C2.955 21.793 3.454 22 3.983 22H4.512C5.537 22 6.537 21.643 7.33 20.994L10.337 18.533C10.657 18.271 10.705 17.799 10.442 17.478C10.18 17.157 9.708 17.11 9.386 17.373L6.38 19.834C5.855 20.264 5.192 20.5 4.513 20.5H3.983C3.854 20.5 3.733 20.449 3.641 20.358C3.55 20.267 3.5 20.146 3.5 20.017V17.444C3.5 17.343 3.54 17.249 3.61 17.177C3.68 17.107 3.777 17.067 3.877 17.067C4.916 17.067 5.927 16.701 6.724 16.036L11.867 11.752V20.942C11.867 21.222 11.975 21.487 12.177 21.691C12.374 21.887 12.647 22.001 12.925 22.001H14.776C15.059 22.001 15.325 21.891 15.529 21.687C15.726 21.487 15.835 21.222 15.835 20.943V15.086C15.835 14.956 15.885 14.835 15.977 14.743C16.067 14.653 16.191 14.601 16.318 14.601H17.551C17.678 14.601 17.803 14.653 17.893 14.743C17.984 14.835 18.035 14.956 18.035 15.086V20.943C18.035 21.219 18.141 21.482 18.349 21.697C18.547 21.892 18.812 22 19.092 22H20.942C21.222 22 21.487 21.892 21.7 21.682C21.894 21.48 22 21.218 22 20.941V5.214C21.997 4.357 21.662 3.551 21.055 2.944ZM20.5 20.5H19.533V15.084C19.533 14.554 19.327 14.056 18.952 13.681C18.583 13.312 18.072 13.1 17.55 13.1H16.317C15.796 13.1 15.285 13.312 14.917 13.68C14.542 14.054 14.335 14.552 14.335 15.084V20.5H13.368V10.155C13.368 10.151 13.368 10.147 13.368 10.144V5.219C13.369 4.76 13.549 4.328 13.873 4.005C14.197 3.681 14.629 3.502 15.085 3.5H18.782C19.24 3.501 19.671 3.681 19.996 4.005C20.32 4.329 20.5 4.76 20.501 5.217L20.5 20.5Z" fill="#1B1A16"/>
<path d="M18.783 5.7H15.084C14.67 5.7 14.334 6.036 14.334 6.45V8.916C14.334 9.33 14.67 9.666 15.084 9.666H18.783C19.197 9.666 19.533 9.33 19.533 8.916V6.45C19.533 6.036 19.197 5.7 18.783 5.7ZM18.033 8.167H15.834V7.2H18.033V8.167Z" fill="#1B1A16"/>
</svg>
