<svg width="24" height="24" viewBox="0 0 24 24" fill="none" xmlns="http://www.w3.org/2000/svg">
<path d="M19.854 8.53C19.579 7.81 19.119 7.168 18.522 6.673C18.09 6.317 17.595 6.048 17.067 5.873V2.75C17.067 2.336 16.731 2 16.317 2C15.903 2 15.567 2.336 15.567 2.75V6.223C15.199 6.79 14.704 7.27 14.114 7.607C12.827 8.341 11.171 8.341 9.886 7.607C9.296 7.27 8.801 6.79 8.432 6.223V2.75C8.432 2.336 8.096 2 7.682 2C7.268 2 6.932 2.336 6.932 2.75V5.873C6.404 6.048 5.908 6.317 5.477 6.674C4.882 7.167 4.421 7.809 4.145 8.53C3.869 9.253 3.783 10.038 3.898 10.801C4.013 11.566 4.325 12.292 4.802 12.904C5.382 13.638 5.7 14.557 5.698 15.493V21.25C5.698 21.664 6.034 22 6.448 22H17.55C17.964 22 18.3 21.664 18.3 21.25V15.493C18.3 14.557 18.618 13.639 19.2 12.9C19.675 12.291 19.986 11.566 20.1 10.801C20.217 10.038 20.131 9.253 19.854 8.53ZM18.618 10.579C18.542 11.088 18.335 11.572 18.02 11.975C17.233 12.974 16.8 14.223 16.8 15.493V20.5H7.199V15.494C7.2 14.223 6.768 12.973 5.983 11.978C5.666 11.572 5.458 11.089 5.382 10.579C5.306 10.071 5.363 9.548 5.547 9.066C5.73 8.585 6.037 8.158 6.434 7.83C6.707 7.603 7.019 7.428 7.352 7.311C7.828 7.96 8.438 8.507 9.142 8.909C10.88 9.902 13.118 9.903 14.859 8.909C15.562 8.507 16.172 7.961 16.648 7.311C16.981 7.428 17.294 7.603 17.567 7.829C17.963 8.159 18.271 8.586 18.455 9.067C18.638 9.548 18.695 10.071 18.618 10.579Z" fill="#1B1A16"/>
</svg>
