<svg width="24" height="24" viewBox="0 0 24 24" fill="none" xmlns="http://www.w3.org/2000/svg">
<path d="M21.771 17.5841L20.309 15.3901C20.127 15.1191 19.881 14.8961 19.596 14.7441C19.309 14.5911 18.986 14.5101 18.659 14.5101H15.997C15.478 14.5101 14.966 14.3721 14.517 14.1131C14.067 13.8511 13.693 13.4751 13.436 13.0241L10.208 7.37506C9.711 6.50506 8.926 5.82206 7.997 5.45006L5.565 4.47806C5.172 4.32106 4.747 4.26106 4.322 4.30706C3.901 4.35206 3.493 4.50106 3.142 4.73906C2.791 4.97606 2.501 5.30006 2.302 5.67506C2.104 6.04706 2 6.46906 2 6.89206V11.5591C2 11.5801 2.011 11.5991 2.012 11.6201C2.014 11.6411 2.007 11.6611 2.01 11.6821L3.097 18.2081C3.17 18.6391 3.397 19.0281 3.738 19.3061C4.059 19.5661 4.459 19.7071 4.874 19.7071C4.897 19.7071 4.921 19.7061 4.944 19.7051C5.381 19.6861 5.795 19.5121 6.111 19.2111C6.428 18.9091 6.624 18.5031 6.662 18.0651L7.033 13.7941L9.66 17.7321C10.065 18.3381 10.62 18.8411 11.263 19.1831C11.907 19.5281 12.633 19.7091 13.362 19.7091H20.632C20.877 19.7091 21.118 19.6431 21.336 19.5141C21.549 19.3861 21.723 19.2021 21.837 18.9871C21.953 18.7701 22.009 18.5251 21.998 18.2741C21.986 18.0241 21.906 17.7851 21.771 17.5841ZM5.078 18.1241C5.025 18.1741 4.955 18.2031 4.884 18.2071C4.813 18.2081 4.739 18.1861 4.684 18.1411C4.627 18.0951 4.589 18.0301 4.577 17.9601L3.636 12.3101L5.457 12.3131C5.524 12.3131 5.589 12.3261 5.655 12.3371L5.169 17.9331C5.163 18.0071 5.13 18.0751 5.078 18.1241ZM13.363 18.2091C12.88 18.2091 12.398 18.0881 11.97 17.8591C11.544 17.6321 11.177 17.2991 10.908 16.8981L7.618 11.9691C7.444 11.7091 7.212 11.4971 6.957 11.3141C6.898 11.2581 6.834 11.2101 6.759 11.1751C6.731 11.1581 6.708 11.1341 6.68 11.1191C6.304 10.9191 5.88 10.8131 5.456 10.8131L3.5 10.8101V6.89206C3.5 6.71206 3.544 6.53406 3.628 6.37506C3.712 6.21706 3.834 6.08106 3.983 5.98006C4.131 5.88006 4.304 5.81606 4.482 5.79706C4.661 5.78006 4.841 5.80406 5.009 5.87106L7.44 6.84306C8.056 7.09006 8.577 7.54306 8.906 8.11806L12.133 13.7661C12.521 14.4461 13.084 15.0131 13.765 15.4091C14.444 15.8021 15.215 16.0091 15.997 16.0091H18.659C18.739 16.0091 18.818 16.0291 18.887 16.0661C18.957 16.1031 19.018 16.1591 19.062 16.2241L20.405 18.2091H13.363Z" fill="#1B1A16"/>
</svg>
