<svg width="24" height="24" viewBox="0 0 24 24" fill="none" xmlns="http://www.w3.org/2000/svg">
<path fill-rule="evenodd" clip-rule="evenodd" d="M2.00239 2.75C2.00239 2.33579 2.33817 2 2.75239 2H3.9854C4.39961 2 4.7354 2.33579 4.7354 2.75C4.7354 3.16421 4.39961 3.5 3.9854 3.5H2.75239C2.33817 3.5 2.00239 3.16421 2.00239 2.75ZM5.70142 2.75C5.70142 2.33579 6.03721 2 6.45142 2H7.68443C8.09865 2 8.43443 2.33579 8.43443 2.75C8.43443 3.16421 8.09865 3.5 7.68443 3.5H6.45142C6.03721 3.5 5.70142 3.16421 5.70142 2.75ZM15.5655 2.75C15.5655 2.33579 15.9013 2 16.3155 2H17.5485C17.9628 2 18.2985 2.33579 18.2985 2.75C18.2985 3.16421 17.9628 3.5 17.5485 3.5H16.3155C15.9013 3.5 15.5655 3.16421 15.5655 2.75ZM19.2646 2.75C19.2646 2.33579 19.6004 2 20.0146 2H21.2476C21.6618 2 21.9976 2.33579 21.9976 2.75C21.9976 3.16421 21.6618 3.5 21.2476 3.5H20.0146C19.6004 3.5 19.2646 3.16421 19.2646 2.75ZM5.21841 3.4155C5.63262 3.4155 5.96841 3.75128 5.96841 4.1655V5.88153H6.44156L6.46162 5.8818C6.86865 5.89269 7.27325 5.81582 7.64793 5.65641C8.01923 5.49844 8.35251 5.26309 8.62555 4.96611C9.0417 4.4818 9.55726 4.0927 10.1372 3.82531C10.7213 3.55603 11.3568 3.41658 12 3.41658C12.6431 3.41658 13.2787 3.55603 13.8627 3.82531C14.4427 4.0927 14.9583 4.48179 15.3744 4.9661C15.6474 5.26308 15.9807 5.49844 16.352 5.65641C16.7267 5.81582 17.1313 5.89269 17.5383 5.8818L17.5584 5.88153H18.0316V4.1655C18.0316 3.75128 18.3673 3.4155 18.7816 3.4155C19.1958 3.4155 19.5316 3.75128 19.5316 4.1655V5.88153H20.0146C20.5405 5.88153 21.0449 6.09045 21.4168 6.46234C21.7887 6.83423 21.9976 7.33861 21.9976 7.86454C21.9976 8.39047 21.7887 8.89486 21.4168 9.26674C21.0449 9.63863 20.5405 9.84756 20.0146 9.84756H17.5584L17.5383 9.84729C17.1313 9.83639 16.7267 9.91326 16.352 10.0727C15.9807 10.2306 15.6474 10.466 15.3744 10.763C14.9583 11.2473 14.4427 11.6364 13.8627 11.9038C13.2787 12.1731 12.6431 12.3125 12 12.3125C11.3568 12.3125 10.7213 12.1731 10.1372 11.9038C9.55726 11.6364 9.0417 11.2473 8.62556 10.763C8.35251 10.466 8.01923 10.2306 7.64793 10.0727C7.27325 9.91326 6.86865 9.83639 6.46162 9.84729L6.44156 9.84756H3.98539C3.45947 9.84756 2.95508 9.63863 2.58319 9.26674C2.2113 8.89486 2.00238 8.39047 2.00238 7.86454C2.00238 7.33861 2.2113 6.83423 2.58319 6.46234C2.95508 6.09045 3.45947 5.88153 3.98539 5.88153H4.46841V4.1655C4.46841 3.75128 4.80419 3.4155 5.21841 3.4155ZM12 4.91658C11.5737 4.91658 11.1524 5.00901 10.7653 5.18751C10.3781 5.366 10.0343 5.62631 9.7574 5.95051C9.75208 5.95673 9.74667 5.96287 9.74115 5.96891C9.32161 6.42881 8.80798 6.79298 8.23516 7.03669C7.66557 7.27902 7.05074 7.39658 6.432 7.38153H3.98539C3.85729 7.38153 3.73443 7.43242 3.64385 7.523C3.55327 7.61358 3.50238 7.73644 3.50238 7.86454C3.50238 7.99264 3.55327 8.1155 3.64385 8.20608C3.73443 8.29667 3.85729 8.34756 3.98539 8.34756H6.432C7.05074 8.3325 7.66557 8.45006 8.23516 8.6924C8.80798 8.9361 9.32161 9.30028 9.74115 9.76017C9.74667 9.76622 9.75208 9.77235 9.7574 9.77858C10.0343 10.1028 10.3781 10.3631 10.7653 10.5416C11.1524 10.7201 11.5737 10.8125 12 10.8125C12.4263 10.8125 12.8476 10.7201 13.2347 10.5416C13.6219 10.3631 13.9657 10.1028 14.2426 9.77858C14.2479 9.77235 14.2533 9.76622 14.2588 9.76017C14.6783 9.30027 15.192 8.9361 15.7648 8.6924C16.3344 8.45006 16.9492 8.3325 17.568 8.34756H20.0146C20.1427 8.34756 20.2655 8.29667 20.3561 8.20608C20.4467 8.1155 20.4976 7.99264 20.4976 7.86454C20.4976 7.73644 20.4467 7.61358 20.3561 7.523C20.2655 7.43242 20.1427 7.38153 20.0146 7.38153H17.568C16.9492 7.39658 16.3344 7.27902 15.7648 7.03669C15.192 6.79298 14.6783 6.42881 14.2588 5.96891C14.2533 5.96287 14.2479 5.95673 14.2426 5.95051C13.9657 5.62631 13.6219 5.366 13.2347 5.18751C12.8476 5.00901 12.4263 4.91658 12 4.91658ZM8.33947 11.1983C8.54119 11.5601 8.41144 12.0169 8.04966 12.2186C7.26351 12.657 6.57615 13.2527 6.03049 13.9685C5.48586 14.683 5.09406 15.5018 4.87942 16.3742C4.86331 16.4455 4.86318 16.5195 4.87908 16.591C4.89522 16.6635 4.92746 16.7314 4.97343 16.7898C5.0194 16.8482 5.07791 16.8955 5.14463 16.9282C5.21069 16.9605 5.28314 16.9778 5.35669 16.9786H6.45141C6.86562 16.9786 7.20141 17.3144 7.20141 17.7286C7.20141 18.1429 6.86562 18.4786 6.45141 18.4786H5.34755C5.04828 18.4764 4.75334 18.4068 4.48459 18.2751C4.21584 18.1434 3.98015 17.953 3.79499 17.7179C3.60982 17.4827 3.47992 17.209 3.4149 16.9168C3.34988 16.6247 3.35141 16.3217 3.41938 16.0302L3.42131 16.0219C3.68478 14.9475 4.16692 13.9389 4.83755 13.0591C5.50819 12.1794 6.35298 11.4473 7.31917 10.9085C7.68095 10.7068 8.13775 10.8366 8.33947 11.1983ZM15.6605 11.1983C15.8622 10.8366 16.319 10.7068 16.6808 10.9085C17.647 11.4473 18.4918 12.1794 19.1624 13.0591C19.833 13.9389 20.3151 14.9475 20.5786 16.0219L20.5806 16.0302C20.6486 16.3217 20.6501 16.6247 20.585 16.9168C20.52 17.209 20.3901 17.4827 20.205 17.7179C20.0198 17.953 19.7841 18.1434 19.5154 18.2751C19.2466 18.4068 18.9517 18.4764 18.6524 18.4786L18.6467 18.4787L17.5485 18.4786C17.1343 18.4786 16.7985 18.1429 16.7985 17.7286C16.7985 17.3144 17.1343 16.9786 17.5485 16.9786H18.6433C18.7168 16.9778 18.7892 16.9605 18.8553 16.9282C18.922 16.8955 18.9805 16.8482 19.0265 16.7898C19.0725 16.7314 19.1047 16.6635 19.1209 16.591C19.1368 16.5195 19.1366 16.4455 19.1205 16.3742C18.9059 15.5018 18.5141 14.683 17.9695 13.9685C17.4238 13.2527 16.7364 12.657 15.9503 12.2186C15.5885 12.0169 15.4588 11.5601 15.6605 11.1983ZM10.5205 13.4669C11.2642 13.4657 11.978 13.7593 12.5056 14.2834L12.5073 14.2851L13.9629 15.7407C13.9632 15.741 13.9636 15.7414 13.9639 15.7417C13.9642 15.7421 13.9646 15.7424 13.9649 15.7427L15.4188 17.1966C15.4191 17.1969 15.4194 17.1972 15.4197 17.1975C15.6816 17.4579 15.8896 17.7674 16.0318 18.1083C16.1741 18.4496 16.2477 18.8156 16.2483 19.1854C16.2489 19.5552 16.1765 19.9215 16.0353 20.2632C15.8941 20.605 15.6868 20.9155 15.4253 21.177C15.1638 21.4385 14.8533 21.6458 14.5116 21.787C14.1698 21.9282 13.8035 22.0006 13.4337 22C13.064 21.9994 12.6979 21.9258 12.3566 21.7834C12.0158 21.6413 11.7064 21.4334 11.446 21.1715C11.4456 21.1712 11.4453 21.1708 11.4449 21.1704L8.53344 18.259L8.5317 18.2572C8.0076 17.7297 7.71399 17.0159 7.71522 16.2722C7.71644 15.5286 8.01239 14.8157 8.53823 14.2899C9.06406 13.7641 9.7769 13.4681 10.5205 13.4669ZM11.581 19.1852L12.509 20.1133C12.6305 20.2356 12.775 20.3327 12.9341 20.399C13.0932 20.4654 13.2638 20.4997 13.4362 20.5C13.6086 20.5003 13.7793 20.4665 13.9387 20.4007C14.098 20.3349 14.2427 20.2382 14.3646 20.1163C14.4865 19.9944 14.5832 19.8497 14.649 19.6903C14.7149 19.531 14.7486 19.3603 14.7483 19.1879C14.748 19.0155 14.7137 18.8449 14.6474 18.6858C14.581 18.5267 14.4839 18.3822 14.3616 18.2607L14.3598 18.259L13.4336 17.3327L11.581 19.1852ZM12.3729 16.272L10.5204 18.1246L9.59585 17.2001C9.59559 17.1998 9.59533 17.1996 9.59508 17.1993C9.35123 16.9534 9.21464 16.621 9.21521 16.2747C9.21578 15.928 9.35375 15.5957 9.59889 15.3506C9.84403 15.1054 10.1763 14.9675 10.523 14.9669C10.8693 14.9663 11.2018 15.1029 11.4476 15.3468C11.4479 15.347 11.4481 15.3473 11.4484 15.3475L12.3729 16.272Z" fill="#1B1A16"/>
</svg>
