<svg width="24" height="24" viewBox="0 0 24 24" fill="none" xmlns="http://www.w3.org/2000/svg">
<path d="M21.851 15.732C21.733 15.399 21.552 15.098 21.316 14.841C21.078 14.58 20.794 14.375 20.473 14.231C17.313 12.792 14.699 10.456 12.912 7.476L12.692 7.109C12.419 6.654 11.984 6.333 11.47 6.204C10.963 6.078 10.415 6.159 9.965 6.429C9.53 6.69 9.014 6.799 8.51 6.739C8.006 6.676 7.532 6.444 7.172 6.084L5.135 4.05C4.882 3.796 4.485 3.758 4.189 3.957C3.965 4.106 2 5.6 2 12C2 12.021 2.011 12.04 2.012 12.061C2.014 12.082 2.007 12.102 2.01 12.123L3.1 18.664C3.172 19.097 3.399 19.487 3.74 19.766C4.062 20.028 4.462 20.169 4.872 20.169C4.897 20.169 4.922 20.169 4.947 20.167C5.385 20.15 5.801 19.975 6.122 19.67C6.438 19.366 6.633 18.958 6.671 18.521L7.029 14.209L10.043 18.735C10.337 19.176 10.74 19.541 11.204 19.789C11.669 20.039 12.196 20.171 12.728 20.171H17.839C18.648 20.17 19.438 19.944 20.121 19.521C20.809 19.097 21.362 18.491 21.725 17.767C21.88 17.454 21.971 17.117 21.994 16.765C22.017 16.412 21.968 16.065 21.851 15.732ZM4.656 5.691L6.112 7.145C6.705 7.74 7.492 8.124 8.328 8.228C9.169 8.329 10.019 8.148 10.739 7.715C10.849 7.649 10.984 7.629 11.107 7.66C11.233 7.692 11.34 7.77 11.407 7.882L11.627 8.248C13.275 10.998 15.578 13.237 18.338 14.812C18.093 15.117 17.817 15.395 17.487 15.609C16.95 15.958 16.33 16.161 15.735 16.196C14.672 16.196 13.831 15.387 12.765 14.364C11.333 12.988 9.55 11.282 6.531 11.255C6.528 11.255 6.526 11.253 6.522 11.253C6.519 11.253 6.516 11.254 6.513 11.254C6.494 11.254 6.479 11.25 6.46 11.25H3.51C3.596 8 4.237 6.399 4.656 5.691ZM5.086 18.585C5.032 18.636 4.963 18.666 4.887 18.669C4.814 18.665 4.743 18.648 4.687 18.603C4.63 18.556 4.592 18.49 4.58 18.418L3.635 12.75H5.645L5.177 18.394C5.17 18.467 5.137 18.536 5.086 18.585ZM20.384 17.096C20.148 17.569 19.784 17.965 19.333 18.243C18.885 18.521 18.368 18.669 17.839 18.67H12.729C12.444 18.67 12.163 18.6 11.913 18.465C11.664 18.332 11.45 18.138 11.292 17.903L7.998 12.958C9.568 13.385 10.664 14.426 11.726 15.446C12.929 16.603 14.067 17.696 15.775 17.696C15.776 17.696 15.777 17.696 15.778 17.696C16.675 17.644 17.549 17.358 18.302 16.869C18.851 16.515 19.324 16.055 19.703 15.523C19.754 15.546 19.803 15.575 19.853 15.598C19.989 15.66 20.108 15.745 20.209 15.856C20.308 15.963 20.387 16.094 20.436 16.232C20.486 16.375 20.506 16.522 20.498 16.67C20.488 16.82 20.449 16.964 20.384 17.096Z" fill="#1B1A16"/>
</svg>
