<svg width="24" height="24" viewBox="0 0 24 24" fill="none" xmlns="http://www.w3.org/2000/svg">
<path fill-rule="evenodd" clip-rule="evenodd" d="M9.19448 4.80556C9.19448 3.25609 10.4506 2 12 2C13.5495 2 14.8056 3.25609 14.8056 4.80556C14.8056 6.35502 13.5495 7.61111 12 7.61111C10.4506 7.61111 9.19448 6.35502 9.19448 4.80556ZM12 3.5C11.279 3.5 10.6945 4.08452 10.6945 4.80556C10.6945 5.52659 11.279 6.11111 12 6.11111C12.7211 6.11111 13.3056 5.52659 13.3056 4.80556C13.3056 4.08452 12.7211 3.5 12 3.5ZM3.84995 6.94335C3.84995 5.62093 4.92198 4.5489 6.2444 4.5489C7.56681 4.5489 8.63884 5.62093 8.63884 6.94335C8.63884 8.26576 7.56681 9.33779 6.2444 9.33779C5.91667 9.33779 5.60433 9.27195 5.31987 9.15278C4.72502 10.229 4.36328 11.4944 4.36328 12.8633C4.36328 17.0536 7.80973 20.5 12 20.5C16.195 20.5 19.6366 17.131 19.6366 12.8633C19.6366 11.5348 19.3185 10.2696 18.6877 9.14961C18.4012 9.27078 18.0862 9.33779 17.7556 9.33779C16.4331 9.33779 15.3612 8.26575 15.3612 6.94335C15.3612 5.62094 16.4331 4.5489 17.7556 4.5489C19.078 4.5489 20.15 5.62094 20.15 6.94335C20.15 7.37787 20.0343 7.78537 19.832 8.13668C20.704 9.5596 21.1366 11.1813 21.1366 12.8633C21.1366 17.969 17.0138 22 12 22C6.9813 22 2.86328 17.882 2.86328 12.8633C2.86328 11.1045 3.36311 9.48818 4.17127 8.14227C3.96693 7.7897 3.84995 7.38018 3.84995 6.94335ZM5.69988 7.65301C5.655 7.59133 5.59993 7.53559 5.53516 7.48842C5.41902 7.33752 5.34995 7.1485 5.34995 6.94335C5.34995 6.44936 5.75041 6.0489 6.2444 6.0489C6.73838 6.0489 7.13884 6.44936 7.13884 6.94335C7.13884 7.43733 6.73838 7.83779 6.2444 7.83779C6.0395 7.83779 5.85069 7.7689 5.69988 7.65301ZM18.4649 7.48833C18.581 7.33744 18.65 7.14846 18.65 6.94335C18.65 6.44935 18.2496 6.0489 17.7556 6.0489C17.2616 6.0489 16.8612 6.44935 16.8612 6.94335C16.8612 7.43734 17.2616 7.83779 17.7556 7.83779C17.9604 7.83779 18.1492 7.76894 18.3 7.65312C18.3449 7.59141 18.4 7.5356 18.4649 7.48833Z" fill="#1B1A16"/>
</svg>
