<svg width="24" height="24" viewBox="0 0 24 24" fill="none" xmlns="http://www.w3.org/2000/svg">
<path d="M19.533 5.185V3.161C19.533 2.854 19.409 2.554 19.193 2.34C18.978 2.124 18.678 2 18.372 2H5.62801C5.31801 2 5.02601 2.121 4.80801 2.339C4.59101 2.554 4.46701 2.854 4.46701 3.161V5.191L4.13901 9.451L3.28601 20.529C3.27201 20.717 3.29701 20.91 3.35801 21.082C3.42101 21.263 3.51801 21.425 3.64501 21.561C3.77201 21.699 3.92601 21.808 4.10001 21.884C4.27401 21.961 4.45901 22 4.64901 22H8.98401C9.31901 22 9.64201 21.877 9.89001 21.656C10.141 21.434 10.301 21.128 10.342 20.793L11.367 12.076C11.385 11.92 11.459 11.777 11.575 11.674C11.808 11.466 12.189 11.466 12.423 11.674C12.539 11.778 12.613 11.92 12.631 12.078L13.656 20.792C13.695 21.128 13.856 21.435 14.106 21.654C14.358 21.877 14.681 22 15.016 22H19.351C19.54 22 19.725 21.962 19.899 21.886C20.077 21.808 20.232 21.697 20.35 21.566C20.479 21.428 20.578 21.267 20.644 21.079C20.705 20.901 20.729 20.71 20.714 20.529L19.533 5.185ZM18.299 8.702C17.416 8.404 16.702 7.315 16.505 5.967H18.089L18.299 8.702ZM5.96701 3.5H18.033V4.467H15.7H8.30001H5.96701V3.5ZM5.91101 5.967H7.49501C7.29801 7.314 6.58301 8.403 5.70101 8.702L5.91101 5.967ZM15.134 20.5L14.122 11.904C14.061 11.382 13.812 10.902 13.421 10.553C12.636 9.853 11.361 9.855 10.579 10.553C10.187 10.902 9.93801 11.381 9.87801 11.902L8.86701 20.5H4.79301L5.58301 10.234C7.33301 10.009 8.73301 8.243 8.99201 5.967H10.633V7.684C10.633 8.044 10.779 8.397 11.033 8.65C11.291 8.908 11.634 9.05 11.999 9.05H12.616C13.03 9.05 13.366 8.714 13.366 8.3C13.366 7.886 13.03 7.55 12.616 7.55H12.132V5.967H15.005C15.257 8.278 16.64 10.02 18.419 10.236L19.217 20.5H15.134Z" fill="#1B1A16"/>
</svg>
