<svg width="24" height="24" viewBox="0 0 24 24" fill="none" xmlns="http://www.w3.org/2000/svg">
<path fill-rule="evenodd" clip-rule="evenodd" d="M5.21788 2C5.63209 2 5.96788 2.33579 5.96788 2.75V4.63521C5.99517 4.6305 6.02261 4.62639 6.05017 4.62292C6.39919 4.57889 6.75337 4.63676 7.07008 4.78936C9.25548 5.76812 11.0052 7.51585 11.9864 9.70048L11.9948 9.71988C11.997 9.72505 11.9991 9.73023 12.0012 9.73541C12.0036 9.72947 12.006 9.72355 12.0085 9.71763L12.0159 9.70067C12.9966 7.51556 14.7465 5.76757 16.9324 4.78931C17.2491 4.63674 17.6032 4.5789 17.9522 4.62292C17.9798 4.6264 18.0072 4.6305 18.0345 4.63522V2.75C18.0345 2.33579 18.3703 2 18.7845 2C19.1988 2 19.5345 2.33579 19.5345 2.75V5.70049C20.2858 6.6595 20.6293 7.86402 20.6726 8.99009C20.7257 10.3701 20.3331 11.8171 19.4637 12.6866C19.0169 13.1334 18.414 13.3756 17.8046 13.4854C17.1892 13.5963 16.5133 13.5828 15.8513 13.4711C14.7148 13.2794 13.5053 12.7769 12.6438 11.9637C12.6133 11.9384 12.5848 11.9108 12.5586 11.881C12.4632 11.786 12.3725 11.687 12.2871 11.584C12.2688 11.5619 12.251 11.5395 12.2338 11.5167H11.7684C11.7514 11.5394 11.7337 11.5617 11.7156 11.5836L11.7153 11.584C11.6279 11.6894 11.535 11.7907 11.4371 11.8877C11.4145 11.9128 11.3902 11.9363 11.3644 11.9581C10.5026 12.7746 9.28995 13.279 8.15073 13.4711C7.48871 13.5828 6.81284 13.5963 6.19747 13.4854C5.58807 13.3756 4.98514 13.1333 4.53847 12.6864C3.66888 11.8166 3.27767 10.3694 3.33134 8.98978C3.37512 7.86428 3.71837 6.66043 4.46788 5.7017V2.75C4.46788 2.33579 4.80366 2 5.21788 2ZM5.05934 7.75239C4.92364 8.16313 4.84752 8.60295 4.83021 9.04809C4.78624 10.1784 5.12634 11.1529 5.59931 11.6259L5.59949 11.6261C5.76127 11.788 6.04325 11.9335 6.46346 12.0092C6.87769 12.0838 7.37611 12.0806 7.90128 11.992C8.29286 11.926 8.67847 11.8165 9.03763 11.6709C8.14673 11.3004 7.34104 10.7363 6.6831 10.011C5.97892 9.38008 5.42745 8.60766 5.05934 7.75239ZM10.6125 10.5378C10.6066 10.553 10.5996 10.5677 10.5915 10.5818C9.50545 10.369 8.51414 9.80773 7.77137 8.978C7.75189 8.95624 7.73115 8.93563 7.70926 8.91628C6.88818 8.19057 6.33305 7.21612 6.12463 6.14743C6.15964 6.12853 6.19802 6.11615 6.23789 6.11112C6.30079 6.10319 6.36463 6.11389 6.4215 6.14191C6.43 6.14609 6.43857 6.15012 6.44722 6.15398C8.29737 6.97972 9.77961 8.45623 10.6126 10.3028C10.633 10.3554 10.6394 10.4125 10.631 10.4683C10.6288 10.4831 10.6256 10.4976 10.6214 10.5118C10.6183 10.5204 10.6153 10.5291 10.6125 10.5378ZM13.3893 10.5385C13.3862 10.5289 13.3829 10.5193 13.3795 10.5099C13.3756 10.4963 13.3725 10.4825 13.3704 10.4685C13.3621 10.413 13.3686 10.3563 13.3892 10.3041C14.2215 8.45664 15.7041 6.97951 17.555 6.15406C17.5637 6.15017 17.5723 6.14612 17.5809 6.14191C17.6378 6.11389 17.7016 6.10319 17.7645 6.11112C17.8041 6.11613 17.8423 6.12839 17.8772 6.14711C17.6691 7.21598 17.1139 8.19058 16.2925 8.91615C16.2706 8.93553 16.2498 8.95619 16.2302 8.978C15.4875 9.80769 14.4963 10.3689 13.4102 10.5817C13.4022 10.5679 13.3952 10.5534 13.3893 10.5385ZM14.9643 11.6708C15.3235 11.8164 15.7092 11.926 16.1008 11.992C16.6259 12.0806 17.1243 12.0838 17.5386 12.0092C17.9588 11.9335 18.241 11.7879 18.4031 11.6259C18.8763 11.1526 19.2172 10.1778 19.1737 9.04778C19.1565 8.60165 19.0802 8.16089 18.9439 7.74939C18.5758 8.60597 18.0237 9.37952 17.3184 10.0111C16.6606 10.7362 15.855 11.3003 14.9643 11.6708ZM3.26 15.5001C3.37043 15.1008 3.78359 14.8667 4.18281 14.9772C6.73276 15.6825 9.35644 16.0872 12.0004 16.1829C14.644 16.0873 17.2674 15.6827 19.817 14.9772C20.2162 14.8667 20.6294 15.1008 20.7399 15.5C20.8503 15.8992 20.6162 16.3124 20.217 16.4228C19.2591 16.6879 18.2912 16.9123 17.3159 17.0956L14.4883 21.6459C14.3514 21.8661 14.1105 22 13.8512 22H10.1512C9.89202 22 9.65118 21.8661 9.51431 21.646L6.68507 17.0957C5.70945 16.9123 4.74119 16.6879 3.7829 16.4229C3.38368 16.3124 3.14957 15.8993 3.26 15.5001ZM8.64522 17.4074L10.5681 20.5H13.4343L15.3561 17.4074C14.2522 17.5515 13.1412 17.6435 12.0269 17.6829C12.0092 17.6835 11.9915 17.6835 11.9738 17.6829C10.8596 17.6434 9.74889 17.5514 8.64522 17.4074Z" fill="#1B1A16"/>
</svg>
