<svg width="24" height="24" viewBox="0 0 24 24" fill="none" xmlns="http://www.w3.org/2000/svg">
<path fill-rule="evenodd" clip-rule="evenodd" d="M10.5614 3.5C10.3242 3.5 10.0967 3.59424 9.92896 3.76198C9.76122 3.92972 9.66699 4.15722 9.66699 4.39444V5.69999H14.3336V4.39444C14.3336 4.15722 14.2394 3.92972 14.0717 3.76198C13.9039 3.59423 13.6764 3.5 13.4392 3.5H10.5614ZM15.8336 5.69999V4.39444C15.8336 3.75939 15.5814 3.15036 15.1323 2.70132C14.6833 2.25227 14.0742 2 13.4392 2H10.5614C9.92638 2 9.31735 2.25227 8.8683 2.70132C8.41926 3.15036 8.16699 3.75939 8.16699 4.39444V5.69999H5.217C4.69099 5.69999 4.18652 5.90895 3.81457 6.28089C3.44263 6.65284 3.23367 7.15731 3.23367 7.68332V10.3613L3.23371 10.3693C3.24036 10.992 3.38266 11.5992 3.64379 12.1515L2.75167 15.909L2.75093 15.9122C2.58092 16.6421 2.57847 17.4011 2.74377 18.1322C2.90907 18.8632 3.23782 19.5473 3.70535 20.1331C4.17288 20.7189 4.76703 21.1912 5.44321 21.5146C6.11882 21.8376 6.85877 22.0035 7.60761 21.9999H16.3924C17.1412 22.0035 17.8812 21.8376 18.5568 21.5146C19.2329 21.1912 19.8271 20.7189 20.2946 20.1331C20.7621 19.5473 21.0909 18.8632 21.2562 18.1322C21.4215 17.4011 21.4191 16.6421 21.249 15.9122L20.3569 12.1514C20.618 11.5991 20.7603 10.9919 20.7669 10.3693L20.767 7.68332C20.767 7.15731 20.558 6.65284 20.1861 6.28089C19.8141 5.90895 19.3096 5.69999 18.7836 5.69999H15.8336ZM15.0836 7.19999C15.0833 7.19999 15.0839 7.19999 15.0836 7.19999H8.91699C8.9167 7.19999 8.91727 7.19999 8.91699 7.19999L5.217 7.19999C5.08881 7.19999 4.96588 7.25091 4.87523 7.34155C4.78459 7.43219 4.73367 7.55513 4.73367 7.68332V10.357C4.74251 11.0918 5.04229 11.7932 5.5674 12.3074C6.09341 12.8225 6.80245 13.1076 7.53861 13.1L7.54635 13.0999L9.51084 13.1C9.63356 12.6926 9.85554 12.3178 10.1618 12.0115C10.6494 11.5239 11.3107 11.25 12.0003 11.25C12.6899 11.25 13.3512 11.5239 13.8388 12.0115C14.1451 12.3178 14.3671 12.6926 14.4898 13.1H16.462C17.1982 13.1076 17.9072 12.8225 18.4332 12.3074C18.9583 11.7932 19.2581 11.0919 19.267 10.3571V7.68332C19.267 7.55513 19.216 7.43219 19.1254 7.34155C19.0347 7.25091 18.9118 7.19999 18.7836 7.19999L15.0836 7.19999ZM14.4898 14.6C14.3671 15.0073 14.1451 15.3821 13.8388 15.6884C13.3512 16.176 12.6899 16.45 12.0003 16.45C11.3108 16.45 10.6494 16.176 10.1618 15.6884C9.85554 15.3821 9.63356 15.0073 9.51083 14.6H7.55001C6.55674 14.6093 5.59575 14.2727 4.82851 13.6551L4.21183 16.2524C4.21171 16.2529 4.2116 16.2534 4.21148 16.2539C4.09321 16.7628 4.09161 17.2918 4.20683 17.8014C4.32217 18.3114 4.55154 18.7887 4.87775 19.1975C5.20395 19.6062 5.6185 19.9357 6.09028 20.1613C6.56206 20.3869 7.07881 20.5027 7.60175 20.5L7.60563 20.4999L16.3943 20.4999L16.3982 20.5C16.9212 20.5027 17.4379 20.3869 17.9097 20.1613C18.3815 19.9357 18.796 19.6062 19.1222 19.1975C19.4484 18.7887 19.6778 18.3114 19.7931 17.8014C19.9084 17.2917 19.9068 16.7627 19.7885 16.2538C19.7884 16.2533 19.7882 16.2529 19.7881 16.2524L19.172 13.6551C18.4048 14.2727 17.4438 14.6093 16.4506 14.6H14.4898ZM12.0003 12.75C11.7086 12.75 11.4288 12.8659 11.2225 13.0722C11.0162 13.2784 10.9003 13.5582 10.9003 13.85C10.9003 14.1417 11.0162 14.4215 11.2225 14.6278C11.4288 14.8341 11.7086 14.95 12.0003 14.95C12.292 14.95 12.5718 14.8341 12.7781 14.6278C12.9844 14.4215 13.1003 14.1417 13.1003 13.85C13.1003 13.5582 12.9844 13.2784 12.7781 13.0722C12.5718 12.8659 12.292 12.75 12.0003 12.75Z" fill="#1B1A16"/>
</svg>
