<svg width="24" height="24" viewBox="0 0 24 24" fill="none" xmlns="http://www.w3.org/2000/svg">
<path fill-rule="evenodd" clip-rule="evenodd" d="M9.13011 3.05262C9.93178 2.37301 10.9486 2 11.9996 2C13.0506 2 14.0674 2.37301 14.8691 3.05262C15.6707 3.73222 16.2052 4.67429 16.3772 5.71108C16.445 6.11971 16.1687 6.50593 15.7601 6.57374C15.3515 6.64155 14.9653 6.36526 14.8975 5.95663C14.7836 5.27031 14.4298 4.64668 13.8991 4.1968C13.3684 3.74692 12.6953 3.5 11.9996 3.5C11.3039 3.5 10.6308 3.74692 10.1001 4.1968C9.5694 4.64668 9.21562 5.27031 9.10173 5.95663C9.03393 6.36526 8.6477 6.64155 8.23908 6.57374C7.83045 6.50593 7.55416 6.11971 7.62197 5.71108C7.79401 4.67429 8.32845 3.73222 9.13011 3.05262ZM19.0266 7.55039C19.406 7.5485 19.774 7.67955 20.0669 7.92083C20.3605 8.16275 20.5598 8.50011 20.63 8.874L20.6311 8.87978L21.9215 16.0631C22.0459 16.7971 22.0076 17.5494 21.8095 18.267C21.6113 18.9846 21.2581 19.65 20.7747 20.2161C20.2913 20.7823 19.6896 21.2354 19.0119 21.5436C18.3354 21.8513 17.5998 22.0069 16.8568 21.9998H7.1419C6.399 22.0066 5.66358 21.8507 4.98734 21.543C4.30991 21.2347 3.70836 20.7815 3.22513 20.2154C2.7419 19.6494 2.38875 18.9841 2.19059 18.2667C1.99243 17.5493 1.95409 16.7971 2.07827 16.0633L2.07954 16.0558L3.3698 8.87399C3.43996 8.50036 3.63905 8.16321 3.93233 7.92132C4.22496 7.67997 4.59285 7.54875 4.97212 7.55039L4.97464 7.5504L4.97023 7.55039H4.97212H19.0266ZM19.0266 7.55039L19.0236 7.5504L19.0287 7.55039H19.0266ZM19.113 9.07847C19.0907 9.06012 19.0627 9.05017 19.0338 9.05037L19.0287 9.05039H4.96583C4.93698 9.05022 4.90899 9.06016 4.88674 9.07852C4.8649 9.09653 4.84994 9.12151 4.84437 9.14924L3.55664 16.3171C3.4698 16.8335 3.49704 17.3626 3.63645 17.8674C3.77619 18.3733 4.02522 18.8424 4.36599 19.2416C4.70675 19.6408 5.13095 19.9603 5.60866 20.1777C6.08638 20.3951 6.60597 20.5051 7.1308 20.4998L7.13833 20.4997L16.8685 20.4998C17.3934 20.5053 17.9131 20.3955 18.3909 20.1782C18.8688 19.9609 19.2931 19.6413 19.6339 19.2421C19.9748 18.8429 20.2239 18.3737 20.3636 17.8678C20.503 17.3629 20.5301 16.8337 20.4432 16.3172L19.1557 9.1508L19.1554 9.14924C19.1498 9.12149 19.1349 9.09649 19.113 9.07847ZM6.93355 12.0002C6.93355 11.586 7.26934 11.2502 7.68355 11.2502H16.3165C16.7307 11.2502 17.0665 11.586 17.0665 12.0002C17.0665 12.4144 16.7307 12.7502 16.3165 12.7502H7.68355C7.26934 12.7502 6.93355 12.4144 6.93355 12.0002Z" fill="#1B1A16"/>
</svg>
