<svg width="24" height="24" viewBox="0 0 24 24" fill="none" xmlns="http://www.w3.org/2000/svg">
<path fill-rule="evenodd" clip-rule="evenodd" d="M3.9832 1.99988C4.39742 1.99988 4.7332 2.33566 4.7332 2.74988V8.47663C4.8648 8.43233 5.00134 8.40176 5.1407 8.38583C5.53635 8.34061 5.93644 8.41555 6.28889 8.60086C7.78412 9.37959 9.05734 10.5038 10.0111 11.8667H13.9888C14.9426 10.5037 16.2159 9.37952 17.7112 8.60078C18.0636 8.41553 18.4636 8.34062 18.8592 8.38583C18.9986 8.40176 19.1352 8.43233 19.2668 8.47663V2.74988C19.2668 2.33566 19.6025 1.99988 20.0168 1.99988C20.431 1.99988 20.7668 2.33566 20.7668 2.74988V9.71156C21.48 10.5901 21.8533 11.5502 21.9641 12.5653C22.1073 13.8778 21.8055 15.2256 21.3529 16.5312L20.1277 21.432C20.0784 21.629 19.9514 21.7976 19.7757 21.8993C19.6 22.0009 19.3905 22.027 19.1952 21.9716C16.8487 21.3053 14.4355 20.9016 12 20.7679C9.56445 20.9016 7.15125 21.3053 4.80475 21.9716C4.60944 22.027 4.39998 22.0009 4.22425 21.8993C4.04852 21.7976 3.92152 21.629 3.87227 21.432L2.64704 16.5312C2.19449 15.2256 1.8927 13.8778 2.0359 12.5653C2.14666 11.5501 2.51992 10.5901 3.2332 9.71155V2.74988C3.2332 2.33566 3.56899 1.99988 3.9832 1.99988ZM4.51165 10.5218C3.89727 11.2229 3.6109 11.9594 3.52705 12.728C3.4268 13.6468 3.61088 14.6614 3.97645 15.7792C4.82866 16.1639 5.76832 16.32 6.70234 16.2294C7.29016 16.1725 7.86141 16.0192 8.39419 15.7786C8.50197 15.6739 8.64108 15.6014 8.79609 15.5763C9.05126 15.4342 9.29546 15.271 9.52597 15.0876C9.53857 15.0776 9.55149 15.068 9.56471 15.0588C9.65602 14.9953 9.72264 14.9022 9.75334 14.7953C9.78404 14.6885 9.77694 14.5742 9.73323 14.472L9.7287 14.4614L9.72879 14.4613C9.53468 13.9871 9.30126 13.5333 9.03225 13.1041C8.98793 13.0523 8.95055 12.9944 8.92153 12.9318C8.0913 11.6723 6.94936 10.6358 5.59458 9.93049L5.59124 9.92875L5.59125 9.92874C5.50526 9.88343 5.4076 9.86509 5.31102 9.87613C5.21445 9.88717 5.12345 9.92706 5.0499 9.99061L5.04978 9.99071C4.87295 10.1434 4.71415 10.298 4.57196 10.4543C4.55321 10.478 4.53307 10.5006 4.51165 10.5218ZM10.8843 13.3667C10.9658 13.538 11.0427 13.712 11.115 13.8883C11.2922 14.3065 11.3204 14.7728 11.1951 15.2094C11.1594 15.3336 11.1119 15.4531 11.0537 15.5667H12.9462C12.888 15.4531 12.8405 15.3336 12.8049 15.2094C12.6795 14.7728 12.7078 14.3065 12.8849 13.8883C12.9572 13.712 13.0341 13.538 13.1156 13.3667H10.8843ZM14.968 13.1036C14.6988 13.533 14.4653 13.987 14.2712 14.4613L14.2668 14.472L14.2667 14.472C14.223 14.5742 14.2159 14.6885 14.2466 14.7953C14.2773 14.9022 14.3439 14.9953 14.4352 15.0588C14.4485 15.068 14.4614 15.0776 14.474 15.0876C14.7045 15.271 14.9487 15.4342 15.2039 15.5763C15.3589 15.6014 15.498 15.6739 15.6058 15.7786C16.1385 16.0192 16.7098 16.1725 17.2976 16.2294C18.2316 16.32 19.1713 16.1639 20.0235 15.7792C20.3891 14.6614 20.5731 13.6468 20.4729 12.728C20.389 11.9594 20.1027 11.2229 19.4882 10.5218C19.4669 10.5005 19.4468 10.478 19.4281 10.4544C19.2859 10.298 19.127 10.1435 18.9502 9.99071L18.9501 9.99061C18.8765 9.92706 18.7855 9.88717 18.6889 9.87613C18.5924 9.86509 18.4947 9.88343 18.4087 9.92874L18.4054 9.9305L18.4054 9.93049C17.0504 10.6359 15.9083 11.6726 15.0781 12.9324C15.0492 12.9945 15.012 13.0521 14.968 13.1036ZM19.5571 17.5299C18.7771 17.7344 17.9634 17.801 17.1529 17.7225C16.3385 17.6435 15.5489 17.4201 14.8198 17.0667H9.18017C8.45104 17.4201 7.66146 17.6435 6.84703 17.7225C6.03659 17.801 5.22282 17.7344 4.44289 17.5299L5.14183 20.3256C7.37273 19.7459 9.65681 19.3914 11.9598 19.2678C11.9866 19.2664 12.0134 19.2664 12.0402 19.2678C14.3431 19.3914 16.6272 19.7459 18.8581 20.3256L19.5571 17.5299Z" fill="#1B1A16"/>
</svg>
