<svg width="24" height="24" viewBox="0 0 24 24" fill="none" xmlns="http://www.w3.org/2000/svg">
<path fill-rule="evenodd" clip-rule="evenodd" d="M2.5809 2.5809C2.95285 2.20896 3.45732 2 3.98333 2H10.15C10.676 2 11.1805 2.20896 11.5524 2.5809C11.9244 2.95285 12.1333 3.45732 12.1333 3.98333V10.15C12.1333 10.9324 12.4441 11.6827 12.9974 12.236C13.5506 12.7892 14.3009 13.1 15.0833 13.1C15.6425 13.1 16.1947 13.1677 16.7289 13.2986C16.7693 13.3054 16.8089 13.3155 16.8475 13.3287C18.0203 13.6381 19.1017 14.2534 19.9742 15.1258C20.9287 16.0804 21.5755 17.2853 21.8505 18.5862C21.8587 18.6166 21.8651 18.6476 21.8695 18.6794C21.9557 19.1167 22 19.5644 22 20.0167C22 20.5427 21.791 21.0471 21.4191 21.4191C21.0471 21.791 20.5427 22 20.0167 22H3.98333C3.45732 22 2.95285 21.791 2.5809 21.4191C2.20896 21.0471 2 20.5427 2 20.0167V3.98333C2 3.45732 2.20896 2.95285 2.5809 2.5809ZM3.5 19.5333V20.0167C3.5 20.1449 3.55092 20.2678 3.64157 20.3584C3.73221 20.4491 3.85514 20.5 3.98333 20.5H20.0167C20.1449 20.5 20.2678 20.4491 20.3584 20.3584C20.4491 20.2678 20.5 20.1449 20.5 20.0167C20.5 19.8547 20.4927 19.6934 20.4784 19.5333H3.5ZM20.1238 18.0333C19.854 17.3477 19.4446 16.7176 18.9135 16.1865C18.2828 15.5558 17.5127 15.0968 16.6755 14.8393C16.4551 14.9698 16.2657 15.1486 16.1223 15.3633C15.9339 15.6456 15.8333 15.9773 15.8333 16.3166V18.0333H20.1238ZM14.3333 18.0333H3.5V3.98333C3.5 3.85515 3.55092 3.73221 3.64157 3.64157C3.73221 3.55092 3.85515 3.5 3.98333 3.5H10.15C10.2782 3.5 10.4011 3.55092 10.4918 3.64157C10.5824 3.73221 10.6333 3.85514 10.6333 3.98333V5.7H8.91667C8.50245 5.7 8.16667 6.03579 8.16667 6.45C8.16667 6.86421 8.50245 7.2 8.91667 7.2H10.6333V9.4L8.91667 9.4C8.50245 9.4 8.16667 9.73579 8.16667 10.15C8.16667 10.5642 8.50245 10.9 8.91667 10.9H10.697C10.8091 11.5558 11.067 12.1783 11.4514 12.7213L10.1927 13.9799C9.89984 14.2728 9.89984 14.7477 10.1927 15.0406C10.4856 15.3335 10.9605 15.3335 11.2534 15.0406L12.512 13.782C13.1917 14.2631 13.996 14.546 14.834 14.593C14.5072 15.108 14.3333 15.7057 14.3333 16.3167C14.3333 16.3166 14.3333 16.3167 14.3333 16.3167V18.0333Z" fill="#1B1A16"/>
</svg>
