<svg width="24" height="24" viewBox="0 0 24 24" fill="none" xmlns="http://www.w3.org/2000/svg">
<path d="M16.316 15.566H7.683C7.269 15.566 6.933 15.902 6.933 16.316C6.933 16.73 7.269 17.066 7.683 17.066H8.166V18.166C8.166 18.58 8.502 18.916 8.916 18.916C9.33 18.916 9.666 18.58 9.666 18.166V17.066H16.316C16.73 17.066 17.066 16.73 17.066 16.316C17.066 15.902 16.73 15.566 16.316 15.566Z" fill="#1B1A16"/>
<path d="M21.058 14.659C20.632 14.233 20.105 13.951 19.534 13.814V9.533C19.534 7.839 18.972 6.234 17.948 4.919C17.942 4.911 17.942 4.901 17.936 4.894C17.922 4.877 17.907 4.862 17.893 4.845C17.767 4.688 17.632 4.537 17.494 4.389C17.445 4.337 17.4 4.282 17.35 4.231C17.342 4.223 17.335 4.214 17.328 4.206C17.143 4.021 16.95 3.849 16.751 3.686C16.726 3.665 16.697 3.648 16.672 3.627C16.484 3.478 16.289 3.337 16.089 3.207C16.034 3.172 15.978 3.141 15.921 3.106C15.744 2.998 15.564 2.895 15.378 2.802C15.353 2.789 15.328 2.772 15.302 2.759C15.264 2.74 15.224 2.728 15.186 2.711C14.991 2.62 14.791 2.537 14.588 2.462C14.547 2.447 14.506 2.432 14.465 2.418C13.681 2.149 12.853 2 12 2C11.149 2 10.323 2.148 9.542 2.417C9.501 2.431 9.46 2.446 9.419 2.461C9.215 2.536 9.015 2.619 8.818 2.71C8.778 2.728 8.737 2.741 8.698 2.76C8.671 2.773 8.645 2.791 8.618 2.805C8.437 2.896 8.259 2.998 8.085 3.104C8.027 3.14 7.968 3.172 7.911 3.209C7.715 3.336 7.525 3.474 7.34 3.62C7.311 3.644 7.279 3.664 7.25 3.688C7.05 3.85 6.857 4.022 6.673 4.207C6.666 4.214 6.66 4.222 6.653 4.228C6.597 4.286 6.545 4.349 6.49 4.408C6.359 4.549 6.231 4.691 6.112 4.839C6.097 4.858 6.079 4.875 6.064 4.894C6.058 4.902 6.058 4.913 6.051 4.921C5.028 6.235 4.467 7.84 4.467 9.533V13.814C3.895 13.95 3.368 14.233 2.943 14.659C2.334 15.267 2 16.074 2 16.934V18.784C2 19.643 2.334 20.451 2.942 21.058C3.55 21.665 4.357 22 5.217 22H18.783C19.642 22 20.45 21.665 21.057 21.058C21.664 20.451 22 19.643 22 18.783V16.933C22 16.074 21.665 15.267 21.058 14.659ZM13.85 8.167C13.436 8.167 13.1 8.503 13.1 8.917V9.4H10.9V8.917C10.9 8.503 10.564 8.167 10.15 8.167C9.736 8.167 9.4 8.502 9.4 8.917V9.353C9.109 9.304 8.829 9.205 8.598 9.018C8.293 8.772 8.081 8.426 7.999 8.043L7.467 5.561C7.486 5.539 7.507 5.518 7.527 5.496C7.763 5.234 8.02 4.991 8.299 4.774C8.332 4.749 8.367 4.724 8.4 4.699C8.689 4.484 8.995 4.293 9.316 4.133C9.362 4.11 9.407 4.09 9.453 4.068C9.607 3.997 9.765 3.93 9.925 3.872C9.959 3.86 9.992 3.848 10.026 3.836C11.283 3.409 12.696 3.404 13.964 3.833C14 3.845 14.035 3.858 14.07 3.871C14.233 3.93 14.392 3.997 14.549 4.07C14.593 4.091 14.638 4.111 14.682 4.133C15.005 4.294 15.313 4.486 15.603 4.702C15.634 4.726 15.667 4.748 15.699 4.773C15.98 4.991 16.24 5.236 16.478 5.5C16.497 5.52 16.515 5.54 16.533 5.561L16.002 8.044C15.92 8.427 15.707 8.773 15.402 9.019C15.172 9.206 14.89 9.304 14.6 9.353V8.917C14.6 8.502 14.264 8.167 13.85 8.167ZM3.5 18.783V16.933C3.5 16.475 3.679 16.043 4.003 15.719C4.14 15.581 4.296 15.47 4.466 15.388V20.327C4.296 20.245 4.14 20.134 4.002 19.996C3.679 19.673 3.5 19.241 3.5 18.783ZM5.967 9.533C5.967 8.812 6.099 8.114 6.34 7.457L6.533 8.358C6.687 9.075 7.086 9.724 7.656 10.185C8.154 10.588 8.765 10.821 9.401 10.876V11.383C9.401 11.797 9.737 12.133 10.151 12.133C10.565 12.133 10.901 11.797 10.901 11.383V10.9H13.101V11.383C13.101 11.797 13.437 12.133 13.851 12.133C14.265 12.133 14.601 11.797 14.601 11.383V10.876C15.236 10.82 15.847 10.587 16.345 10.186C16.916 9.725 17.316 9.076 17.469 8.358L17.661 7.458C17.902 8.115 18.034 8.813 18.034 9.534V20.5H5.967V9.533ZM20.5 18.783C20.5 19.241 20.321 19.673 19.997 19.997C19.859 20.135 19.703 20.246 19.533 20.328V15.389C19.703 15.471 19.859 15.582 19.997 15.72C20.321 16.044 20.5 16.476 20.5 16.934V18.783Z" fill="#1B1A16"/>
</svg>
