<svg width="24" height="24" viewBox="0 0 24 24" fill="none" xmlns="http://www.w3.org/2000/svg">
<path d="M21.42 2.582C21.052 2.212 20.54 2 20.017 2H3.983C3.453 2 2.955 2.207 2.581 2.581C2.207 2.955 2 3.454 2 3.983V20.016C2 20.545 2.207 21.043 2.581 21.418C2.955 21.793 3.454 22 3.983 22H9.187C9.629 22 10.062 21.851 10.407 21.58C10.754 21.309 11.005 20.925 11.106 20.517L12 17.283L12.888 20.5C12.996 20.929 13.247 21.312 13.593 21.581C13.94 21.852 14.373 22 14.813 22H20.017C20.54 22 21.052 21.788 21.419 21.419C21.794 21.044 22 20.546 22 20.017V3.983C22 3.454 21.794 2.956 21.42 2.582ZM3.642 3.642C3.733 3.55 3.854 3.5 3.983 3.5H20.016C20.144 3.5 20.268 3.551 20.358 3.642C20.449 3.733 20.5 3.854 20.5 3.983V6.316H3.5V3.983C3.5 3.854 3.55 3.733 3.642 3.642ZM12 13.529L10.969 12.756C10.758 12.598 10.583 12.389 10.464 12.151C10.345 11.914 10.283 11.649 10.283 11.384V7.816H13.717V11.383C13.717 11.647 13.655 11.913 13.535 12.152C13.417 12.388 13.242 12.598 13.03 12.757L12 13.529ZM9.656 20.135C9.63 20.239 9.57 20.331 9.483 20.399C9.399 20.464 9.294 20.5 9.187 20.5H3.983C3.854 20.5 3.733 20.449 3.641 20.358C3.55 20.267 3.5 20.146 3.5 20.017V7.817H8.783V11.384C8.783 11.881 8.901 12.379 9.122 12.822C9.344 13.266 9.672 13.66 10.069 13.957L11.14 14.761L9.656 20.135ZM20.357 20.359C20.268 20.449 20.144 20.5 20.016 20.5H14.812C14.705 20.5 14.599 20.464 14.513 20.396C14.429 20.332 14.368 20.238 14.337 20.117L12.858 14.76L13.93 13.956C14.327 13.657 14.656 13.265 14.876 12.821C15.099 12.376 15.216 11.879 15.216 11.383V7.816H20.5V20.016C20.5 20.146 20.449 20.267 20.357 20.359Z" fill="#1B1A16"/>
</svg>
