<svg width="24" height="24" viewBox="0 0 24 24" fill="none" xmlns="http://www.w3.org/2000/svg">
<path fill-rule="evenodd" clip-rule="evenodd" d="M10.5339 4.60575C9.48289 4.86906 8.5128 5.41304 7.73379 6.19205C6.60232 7.32352 5.96667 8.85812 5.96667 10.4583L5.96667 14.6416H8.16667V11.4384C8.16666 9.44858 8.72583 7.49885 9.7804 5.81152L10.5339 4.60575ZM12 5.09016L11.0524 6.60648C10.1468 8.05541 9.66666 9.7297 9.66667 11.4383V14.6416H14.3333V11.4383C14.3333 9.7297 13.8532 8.05544 12.9476 6.60651L12 5.09016ZM15.0845 16.1416C15.0841 16.1416 15.0837 16.1416 15.0833 16.1416C15.0829 16.1416 15.0825 16.1416 15.0821 16.1416H12.75V19.5749H15.5667V16.1416H15.0845ZM17.0667 16.1416V19.5749H18.7833C19.2386 19.5749 19.6753 19.3941 19.9972 19.0721C20.3191 18.7502 20.5 18.3135 20.5 17.8583C20.5 17.403 20.3191 16.9663 19.9972 16.6444C19.6753 16.3225 19.2386 16.1416 18.7833 16.1416H17.0667ZM5.21667 21.0749C4.36355 21.0749 3.54538 20.736 2.94214 20.1328C2.3389 19.5295 2 18.7114 2 17.8583C2 17.0051 2.3389 16.187 2.94214 15.5837C3.36527 15.1606 3.89415 14.8675 4.46667 14.7302L4.46667 10.4583C4.46667 8.4603 5.26035 6.54416 6.67313 5.13139C8.0859 3.71861 10.002 2.92493 12 2.92493C13.998 2.92493 15.9141 3.71862 17.3269 5.13139C18.7396 6.54416 19.5333 8.4603 19.5333 10.4583L19.5333 14.7302C20.1058 14.8675 20.6347 15.1606 21.0579 15.5837C21.6611 16.187 22 17.0051 22 17.8583C22 18.7114 21.6611 19.5295 21.0579 20.1328C20.4546 20.736 19.6364 21.0749 18.7833 21.0749H5.21667ZM18.0333 14.6416L18.0333 10.4583C18.0333 8.85812 17.3977 7.32352 16.2662 6.19205C15.4872 5.41304 14.5171 4.86906 13.4661 4.60575L14.2196 5.81152C14.2196 5.81151 14.2196 5.81153 14.2196 5.81152C15.2742 7.49884 15.8333 9.44859 15.8333 11.4384V14.6416H18.0333ZM8.43333 19.5749H11.25V16.1416H8.91787C8.91747 16.1416 8.91707 16.1416 8.91667 16.1416C8.91626 16.1416 8.91586 16.1416 8.91546 16.1416H8.43333V19.5749ZM6.93333 16.1416V19.5749H5.21667C4.76138 19.5749 4.32474 19.3941 4.0028 19.0721C3.68086 18.7502 3.5 18.3135 3.5 17.8583C3.5 17.403 3.68086 16.9663 4.0028 16.6444C4.32474 16.3225 4.76138 16.1416 5.21667 16.1416H6.93333Z" fill="#1B1A16"/>
</svg>
