<svg width="24" height="24" viewBox="0 0 24 24" fill="none" xmlns="http://www.w3.org/2000/svg">
<path fill-rule="evenodd" clip-rule="evenodd" d="M6.65606 2.64527C7.05433 2.75908 7.28493 3.17421 7.17111 3.57248L4.91857 11.4549C6.70406 11.7161 8.29018 12.2184 9.59303 13.1438C10.5984 13.858 11.4023 14.8005 12 16.0121C12.5977 14.8005 13.4016 13.858 14.407 13.1438C15.7096 12.2185 17.2955 11.7162 19.0807 11.455L16.8288 3.57242C16.7151 3.17414 16.9457 2.75903 17.344 2.64525C17.7423 2.53148 18.1574 2.76211 18.2711 3.16039L20.6399 11.4521C20.8985 11.5377 21.1367 11.6757 21.3398 11.8575C21.5475 12.0436 21.7137 12.2713 21.8275 12.5259C21.9412 12.7805 22 13.0562 22 13.3351V15.6998C22 17.2071 21.4012 18.6527 20.3354 19.7186C19.2711 20.7829 17.8281 21.3815 16.3231 21.3832C15.3156 21.3993 14.3223 21.144 13.4474 20.6441C12.8996 20.3311 12.411 19.9294 12 19.4578C11.589 19.9294 11.1004 20.3311 10.5527 20.6441C9.67772 21.144 8.68441 21.3993 7.67692 21.3832L7.68333 21.3832L7.67047 21.3831L7.67692 21.3832C6.17192 21.3815 4.72893 20.7829 3.66461 19.7186C2.59878 18.6527 2 17.2071 2 15.6998V13.3352C1.99999 13.0563 2.05878 12.7805 2.17254 12.5259C2.2863 12.2713 2.45248 12.0436 2.66023 11.8575C2.86303 11.6759 3.10098 11.5381 3.35923 11.4524L5.72885 3.16033C5.84266 2.76206 6.25779 2.53146 6.65606 2.64527ZM3.83587 12.8747C3.90059 12.854 3.96895 12.8471 4.0365 12.8546L4.03756 12.8547C5.99275 13.0683 7.54343 13.5279 8.72439 14.3667C9.82378 15.1476 10.6656 16.3022 11.1889 18.0542C10.8355 18.5834 10.3633 19.0246 9.80844 19.3417C9.16587 19.7089 8.43617 19.8959 7.6962 19.8832H7.68333C6.57384 19.8832 5.5098 19.4424 4.72527 18.6579C3.94074 17.8734 3.5 16.8093 3.5 15.6998V13.3351C3.5 13.2671 3.51432 13.1999 3.54205 13.1378C3.56977 13.0758 3.61027 13.0203 3.6609 12.975C3.71153 12.9296 3.77115 12.8955 3.83587 12.8747ZM19.9635 12.8546C20.031 12.8471 20.0994 12.854 20.1641 12.8747C20.2289 12.8955 20.2885 12.9296 20.3391 12.975C20.3897 13.0203 20.4302 13.0758 20.458 13.1378C20.4857 13.1999 20.5 13.2671 20.5 13.3351V15.6998C20.5 16.8093 20.0593 17.8734 19.2747 18.6579C18.4902 19.4424 17.4262 19.8831 16.3167 19.8831L16.3038 19.8833C15.5638 19.896 14.8341 19.7089 14.1916 19.3417C13.6367 19.0246 13.1645 18.5834 12.8111 18.0542C13.3344 16.3022 14.1762 15.1476 15.2756 14.3667C16.4566 13.5279 18.0072 13.0683 19.9624 12.8547L19.9635 12.8546Z" fill="#1B1A16"/>
</svg>
