<svg width="24" height="24" viewBox="0 0 24 24" fill="none" xmlns="http://www.w3.org/2000/svg">
<path d="M21.909 18.29C21.804 18.014 21.607 17.775 21.357 17.619C21.322 17.598 21.286 17.579 21.249 17.563L16.861 15.732L14.519 11.049C14.415 10.84 14.217 10.691 13.988 10.648C13.758 10.606 13.52 10.67 13.346 10.827L9.11397 14.638L7.62497 12.407C7.43197 12.117 7.16897 11.883 6.87797 11.692C6.84497 11.668 6.81597 11.641 6.77897 11.623C6.74697 11.604 6.71997 11.576 6.68797 11.559C6.46097 11.438 6.21597 11.364 5.96497 11.314V6.49804L10.241 5.96304C10.652 5.91204 10.943 5.53704 10.892 5.12604C10.841 4.71504 10.468 4.42604 10.055 4.47504L5.34897 5.06304L3.08497 3.93104C2.71597 3.74604 2.26497 3.89604 2.07897 4.26604C1.89397 4.63704 2.04397 5.08704 2.41497 5.27304L4.46697 6.29904V11.252H2.74997C2.72797 11.252 2.70897 11.263 2.68797 11.265C2.66697 11.266 2.64797 11.259 2.62697 11.263C2.59697 11.268 2.57397 11.286 2.54497 11.294C2.49597 11.308 2.44897 11.324 2.40497 11.347C2.36197 11.37 2.32497 11.396 2.28697 11.426C2.24997 11.456 2.21597 11.487 2.18397 11.523C2.15297 11.56 2.12797 11.599 2.10397 11.641C2.08097 11.683 2.06097 11.723 2.04497 11.769C2.02897 11.817 2.02197 11.865 2.01597 11.916C2.01397 11.945 1.99997 11.971 1.99997 12.001C1.99997 12.022 2.01097 12.041 2.01197 12.062C2.01397 12.083 2.00697 12.103 2.00997 12.124L3.09697 18.648C3.16997 19.08 3.39797 19.47 3.73697 19.745C4.05797 20.006 4.45797 20.147 4.86697 20.147C4.89197 20.147 4.91697 20.147 4.94197 20.145C5.37997 20.128 5.79497 19.953 6.11197 19.651C6.42897 19.349 6.62497 18.943 6.66397 18.505L7.03597 14.223L8.29997 16.119C8.32497 16.17 8.35797 16.218 8.39597 16.263L9.66697 18.169C10.072 18.774 10.626 19.276 11.27 19.62C11.913 19.964 12.637 20.145 13.362 20.145C13.364 20.145 13.367 20.145 13.369 20.145H20.625C20.629 20.145 20.632 20.145 20.635 20.145C20.927 20.145 21.217 20.048 21.458 19.869C21.691 19.691 21.864 19.439 21.945 19.163C22.029 18.876 22.017 18.564 21.909 18.29ZM5.07697 18.565C5.02397 18.615 4.95597 18.644 4.88097 18.647C4.82197 18.651 4.73997 18.626 4.68197 18.58C4.62597 18.535 4.58797 18.471 4.57697 18.4L3.63597 12.752H5.46497C5.46597 12.751 5.46597 12.751 5.46697 12.751C5.52997 12.751 5.59297 12.764 5.65597 12.774L5.16997 18.375C5.16297 18.447 5.12997 18.515 5.07697 18.565ZM13.368 18.646C12.869 18.67 12.404 18.527 11.977 18.298C11.55 18.069 11.183 17.736 10.915 17.336L9.95597 15.898L13.619 12.601L15.645 16.653C15.725 16.813 15.861 16.94 16.027 17.009L19.947 18.645L13.368 18.646Z" fill="#1B1A16"/>
</svg>
