<svg width="24" height="24" viewBox="0 0 24 24" fill="none" xmlns="http://www.w3.org/2000/svg">
<path d="M21.42 14.299C21.233 14.111 21.009 13.971 20.767 13.878V10.149C20.767 9.303 20.424 8.474 19.825 7.874C19.218 7.267 18.41 6.933 17.551 6.933H15.218V5.217C15.218 4.357 14.883 3.55 14.276 2.943C13.062 1.727 10.943 1.728 9.727 2.943C9.118 3.549 8.783 4.357 8.783 5.217V6.934H6.45C5.592 6.934 4.784 7.268 4.176 7.875C3.577 8.474 3.234 9.303 3.234 10.149V13.875C2.993 13.969 2.77 14.109 2.583 14.297C2.212 14.665 2 15.177 2 15.7C2 16.114 2.336 16.45 2.75 16.45C3.164 16.45 3.5 16.114 3.5 15.7C3.5 15.572 3.551 15.448 3.642 15.358C3.825 15.176 4.142 15.175 4.327 15.359C4.416 15.448 4.468 15.572 4.468 15.7C4.468 16.114 4.804 16.45 5.218 16.45C5.632 16.45 5.968 16.114 5.968 15.7C5.968 15.177 5.756 14.665 5.387 14.298C5.199 14.11 4.975 13.969 4.735 13.875V10.149C4.735 9.697 4.918 9.255 5.237 8.936C5.561 8.612 5.992 8.434 6.45 8.434H6.647C6.383 9.401 6.271 10.392 6.317 11.375C6.306 12.364 6.415 13.354 6.644 14.329C6.75 14.756 7 15.141 7.347 15.412C7.408 15.46 7.484 15.482 7.55 15.522V20.5H6.45C6.036 20.5 5.7 20.836 5.7 21.25C5.7 21.664 6.036 22 6.45 22H10.151C10.512 22 10.865 21.854 11.119 21.598C11.375 21.339 11.517 20.996 11.517 20.633V15.834H12.484V20.633C12.484 20.996 12.626 21.339 12.882 21.598C13.135 21.854 13.488 22 13.85 22H17.55C17.964 22 18.3 21.664 18.3 21.25C18.3 20.836 17.964 20.5 17.55 20.5H16.45V15.522C16.515 15.482 16.592 15.46 16.652 15.412C16.999 15.141 17.249 14.756 17.356 14.32C17.584 13.358 17.694 12.367 17.682 11.418C17.73 10.403 17.617 9.403 17.352 8.433H17.549C18.001 8.433 18.445 8.616 18.763 8.934C19.082 9.254 19.266 9.697 19.266 10.148V13.877C19.025 13.97 18.801 14.109 18.615 14.296C18.245 14.664 18.033 15.176 18.033 15.699C18.033 16.113 18.369 16.449 18.783 16.449C19.197 16.449 19.533 16.113 19.533 15.699C19.533 15.571 19.584 15.447 19.675 15.357C19.858 15.176 20.177 15.173 20.36 15.358C20.45 15.447 20.501 15.571 20.501 15.699C20.501 16.113 20.837 16.449 21.251 16.449C21.665 16.449 22 16.114 22 15.7C22 15.177 21.788 14.665 21.42 14.299ZM8.569 14.334C8.462 14.334 8.356 14.298 8.272 14.232C8.185 14.164 8.126 14.072 8.102 13.976C7.903 13.129 7.807 12.26 7.816 11.349C7.771 10.353 7.903 9.374 8.21 8.434H15.79C16.098 9.376 16.23 10.36 16.184 11.392C16.193 12.262 16.097 13.132 15.9 13.968C15.874 14.072 15.814 14.164 15.727 14.233C15.643 14.298 15.538 14.335 15.43 14.335H8.569V14.334ZM10.283 5.217C10.283 4.759 10.462 4.327 10.786 4.003C11.434 3.355 12.565 3.354 13.214 4.003C13.538 4.327 13.717 4.758 13.717 5.216V6.933H10.283V5.217ZM10.053 20.5H9.05V15.834H10.022L10.053 20.5ZM13.983 15.834H14.95V20.5H13.983V15.834Z" fill="#1B1A16"/>
<path d="M11.383 10.017H9.533C9.119 10.017 8.783 10.353 8.783 10.767C8.783 11.181 9.119 11.517 9.533 11.517H11.383C11.797 11.517 12.133 11.181 12.133 10.767C12.133 10.353 11.797 10.017 11.383 10.017Z" fill="#1B1A16"/>
<path d="M14.158 11.517C14.7429 11.517 15.217 11.0429 15.217 10.458C15.217 9.87313 14.7429 9.399 14.158 9.399C13.5731 9.399 13.099 9.87313 13.099 10.458C13.099 11.0429 13.5731 11.517 14.158 11.517Z" fill="#1B1A16"/>
</svg>
