<svg width="24" height="24" viewBox="0 0 24 24" fill="none" xmlns="http://www.w3.org/2000/svg">
<path d="M15.6137 8.3863C15.9066 8.67919 15.9066 9.15406 15.6137 9.44696L15.219 9.84162L15.6137 10.2363C15.9066 10.5292 15.9066 11.0041 15.6137 11.2969C15.3208 11.5898 14.846 11.5898 14.5531 11.2969L14.1584 10.9023L13.0607 11.9999L13.4554 12.3946C13.7483 12.6875 13.7483 13.1624 13.4554 13.4553C13.1625 13.7482 12.6876 13.7482 12.3947 13.4553L12.0001 13.0606L10.9024 14.1583L11.2971 14.5529C11.59 14.8458 11.59 15.3207 11.2971 15.6136C11.0042 15.9065 10.5293 15.9065 10.2364 15.6136L9.84174 15.2189L9.44708 15.6136C9.15418 15.9065 8.67931 15.9065 8.38642 15.6136C8.09352 15.3207 8.09352 14.8458 8.38642 14.5529L8.78108 14.1583L8.38642 13.7636C8.09352 13.4707 8.09352 12.9958 8.38642 12.7029C8.67931 12.4101 9.15418 12.4101 9.44708 12.7029L9.84174 13.0976L10.9394 11.9999L10.5447 11.6053C10.2519 11.3124 10.2519 10.8375 10.5447 10.5446C10.8376 10.2517 11.3125 10.2517 11.6054 10.5446L12.0001 10.9393L13.0977 9.84162L12.7031 9.44696C12.4102 9.15406 12.4102 8.67919 12.7031 8.3863C12.996 8.0934 13.4708 8.0934 13.7637 8.3863L14.1584 8.78096L14.5531 8.3863C14.8459 8.0934 15.3208 8.0934 15.6137 8.3863Z" fill="#1B1A16"/>
<path fill-rule="evenodd" clip-rule="evenodd" d="M18.6716 2.0005C19.1128 1.98411 19.5526 2.05893 19.9636 2.22029C20.3746 2.38164 20.7478 2.62606 21.06 2.93826C21.3722 3.25046 21.6166 3.62371 21.778 4.03468C21.9394 4.44566 22.0142 4.8855 21.9978 5.32671C21.8818 8.39483 21.1275 13.7536 17.4423 17.4397C13.7573 21.1256 8.39671 21.8841 5.32871 21.9993C4.88751 22.0157 4.44737 21.9409 4.03639 21.7796C3.62542 21.6182 3.25217 21.3738 2.93997 21.0616C2.62777 20.7494 2.38335 20.3761 2.222 19.9652C2.06064 19.5542 1.98582 19.1144 2.00221 18.6731C2.11826 15.6042 2.87695 10.2493 6.56167 6.56197C10.2468 2.87426 15.6083 2.11736 18.6716 2.0005ZM14.1712 4.13185C11.9022 4.70138 9.49894 5.74469 7.6227 7.62226C5.74589 9.5004 4.70252 11.9032 4.133 14.1722L9.83013 19.8693C12.1005 19.2999 14.5047 18.2564 16.3815 16.3791C18.2581 14.5021 19.3001 12.0989 19.8685 9.82914L14.1712 4.13185ZM15.9331 3.77241L20.2271 8.06642C20.3905 7.04075 20.468 6.08502 20.4988 5.27052C20.5075 5.0357 20.4676 4.80161 20.3818 4.58288C20.2958 4.36399 20.1656 4.1652 19.9994 3.99892C19.8331 3.83264 19.6343 3.70247 19.4154 3.61653C19.1966 3.53063 18.9625 3.49078 18.7276 3.49946C17.9142 3.5305 16.9588 3.60847 15.9331 3.77241ZM3.50117 18.7291C3.53197 17.9148 3.60982 16.9594 3.77362 15.9341L8.06793 20.2284C7.04231 20.3921 6.08676 20.4698 5.27272 20.5004C5.03773 20.5091 4.80347 20.4693 4.58459 20.3833C4.3657 20.2974 4.1669 20.1672 4.00063 20.0009C3.83435 19.8347 3.70417 19.6359 3.61824 19.417C3.53233 19.1982 3.49248 18.964 3.50117 18.7291Z" fill="#1B1A16"/>
</svg>
