<svg width="24" height="24" viewBox="0 0 24 24" fill="none" xmlns="http://www.w3.org/2000/svg">
<path d="M21.25 10.633C20.462 10.633 19.722 10.326 19.164 9.769C18.606 9.212 18.3 8.471 18.3 7.684V3.367C18.3 3.003 18.158 2.66 17.901 2.402C17.646 2.146 17.294 2 16.934 2H15.022C14.708 2 14.401 2.109 14.156 2.309C13.91 2.51 13.742 2.79 13.683 3.094C13.605 3.481 13.393 3.832 13.085 4.082C12.476 4.581 11.525 4.582 10.914 4.082C10.608 3.832 10.396 3.481 10.318 3.094C10.256 2.786 10.087 2.508 9.844 2.309C9.6 2.109 9.293 2 8.979 2H7.067C6.706 2 6.354 2.146 6.101 2.4C5.842 2.659 5.7 3.002 5.7 3.367V7.684C5.7 8.471 5.393 9.212 4.836 9.77C4.279 10.327 3.538 10.634 2.75 10.634C2.336 10.634 2 10.97 2 11.384V20.017C2 20.546 2.207 21.044 2.581 21.419C2.955 21.794 3.454 22 3.983 22H20.016C20.539 22 21.051 21.788 21.418 21.419C21.794 21.044 22 20.546 22 20.017V11.384C22 10.969 21.664 10.633 21.25 10.633ZM3.5 14.6H6.933V16.8H3.5V14.6ZM8.433 14.6H15.566V16.8H8.433V14.6ZM17.066 14.6H20.5V16.8H17.066V14.6ZM5.896 10.83C6.737 9.989 7.2 8.872 7.2 7.684V3.5H8.871C9.035 4.183 9.42 4.798 9.964 5.243C11.11 6.18 12.895 6.178 14.034 5.244C14.58 4.799 14.966 4.183 15.129 3.5H16.8V7.684C16.8 8.872 17.263 9.99 18.104 10.83C18.765 11.491 19.597 11.918 20.5 12.071V13.1H17.066V12.618C17.066 12.204 16.73 11.868 16.316 11.868C15.902 11.868 15.566 12.204 15.566 12.618V13.1H8.433V12.618C8.433 12.204 8.097 11.868 7.683 11.868C7.269 11.868 6.933 12.204 6.933 12.618V13.1H3.5V12.071C4.403 11.918 5.236 11.491 5.896 10.83ZM20.357 20.359C20.268 20.449 20.144 20.5 20.016 20.5H3.983C3.854 20.5 3.733 20.449 3.641 20.358C3.55 20.267 3.5 20.146 3.5 20.017V18.3H6.933V18.783C6.933 19.197 7.269 19.533 7.683 19.533C8.097 19.533 8.433 19.197 8.433 18.783V18.3H15.566V18.783C15.566 19.197 15.902 19.533 16.316 19.533C16.73 19.533 17.066 19.197 17.066 18.783V18.3H20.5V20.017C20.5 20.146 20.449 20.267 20.357 20.359Z" fill="#1B1A16"/>
</svg>
