<svg width="24" height="24" viewBox="0 0 24 24" fill="none" xmlns="http://www.w3.org/2000/svg">
<path d="M10.042 3.429C9.61695 2.975 9.11296 2.619 8.54295 2.373C7.97396 2.125 7.36996 2 6.74795 2H6.51295C5.30895 2 4.17595 2.469 3.32395 3.321C2.47195 4.173 2.00195 5.306 2.00195 6.511V17.741C2.00095 18.851 2.42495 19.903 3.19595 20.702C3.96795 21.501 5.00495 21.961 6.11395 21.998L6.25595 22C7.31295 22 8.32696 21.608 9.11196 20.898C9.93496 20.152 10.428 19.13 10.5 18.024L11.248 6.81C11.289 6.19 11.204 5.58 10.996 4.994C10.788 4.409 10.466 3.882 10.042 3.429ZM4.38395 4.382C4.95295 3.813 5.70895 3.5 6.51295 3.5H6.74695C7.16195 3.5 7.56495 3.583 7.94595 3.749C8.32595 3.914 8.66195 4.15 8.94595 4.454C9.22895 4.757 9.44395 5.108 9.58295 5.498C9.72195 5.89 9.77895 6.298 9.75096 6.711L9.60495 8.91L7.01595 5.955C6.87395 5.792 6.66695 5.699 6.45195 5.699H6.44795C6.22995 5.7 6.02395 5.796 5.88195 5.961L3.50195 8.737V6.511C3.50195 5.707 3.81495 4.951 4.38395 4.382ZM9.00295 17.926C8.95695 18.643 8.63695 19.304 8.10495 19.787C7.59695 20.247 6.93995 20.5 6.25595 20.5L6.16395 20.498C5.44495 20.475 4.77395 20.177 4.27495 19.66C3.77595 19.142 3.50095 18.462 3.50195 17.742V11.042L6.45795 7.594L9.46395 11.024L9.00295 17.926Z" fill="#1B1A16"/>
<path d="M20.677 3.321C19.825 2.469 18.691 2 17.486 2H17.252C16.631 2 16.027 2.125 15.458 2.372C14.887 2.619 14.383 2.975 13.958 3.429C13.532 3.885 13.211 4.412 13.005 4.993C12.796 5.577 12.71 6.189 12.752 6.81L13.5 18.023C13.571 19.13 14.064 20.152 14.888 20.898C15.672 21.608 16.687 22 17.744 22L17.886 21.998C18.995 21.961 20.032 21.5 20.803 20.702C21.575 19.904 21.999 18.852 21.998 17.742V6.511C21.998 5.306 21.529 4.173 20.677 3.321ZM14.418 5.497C14.556 5.109 14.77 4.758 15.054 4.454C15.337 4.151 15.673 3.914 16.055 3.749C16.435 3.584 16.838 3.5 17.252 3.5H17.486C18.291 3.5 19.048 3.813 19.616 4.382C20.184 4.951 20.498 5.707 20.498 6.511V8.738L18.118 5.962C17.976 5.797 17.77 5.701 17.553 5.7H17.549C17.333 5.7 17.127 5.793 16.985 5.956L14.395 8.912L14.249 6.712C14.221 6.296 14.277 5.889 14.418 5.497ZM19.725 19.66C19.225 20.177 18.554 20.474 17.835 20.498L17.744 20.5C17.059 20.5 16.402 20.247 15.895 19.787C15.362 19.304 15.042 18.643 14.996 17.925L14.536 11.027L17.543 7.595L20.498 11.043V17.744C20.499 18.462 20.225 19.143 19.725 19.66Z" fill="#1B1A16"/>
</svg>
