<svg width="24" height="24" viewBox="0 0 24 24" fill="none" xmlns="http://www.w3.org/2000/svg">
<path fill-rule="evenodd" clip-rule="evenodd" d="M6.45013 3.5C6.32194 3.5 6.199 3.55092 6.10836 3.64156C6.01772 3.73221 5.9668 3.85514 5.9668 3.98333C5.9668 4.11152 6.01772 4.23446 6.10836 4.3251C6.19902 4.41576 6.32193 4.46667 6.45009 4.46667H17.5501C17.6783 4.46667 17.8012 4.41573 17.8919 4.3251C17.9825 4.23446 18.0334 4.11152 18.0334 3.98333C18.0334 3.85515 17.9825 3.73221 17.8919 3.64156C17.8012 3.55092 17.6783 3.5 17.5501 3.5H6.45013ZM5.0477 2.58091C5.41965 2.20896 5.92411 2 6.45013 2H17.5501C18.0761 2 18.5806 2.20896 18.9525 2.58091C19.3245 2.95285 19.5334 3.45732 19.5334 3.98333C19.5334 4.50935 19.3245 5.01381 18.9525 5.38576C18.749 5.58925 18.5059 5.74394 18.2412 5.84234L17.7375 10.8807C17.9731 11.0109 18.18 11.1877 18.3453 11.4009C18.5309 11.6401 18.6593 11.9185 18.7206 12.215C18.7819 12.5115 18.7745 12.818 18.699 13.1112C18.2929 14.682 17.3477 16.061 16.0287 17.0059C15.7604 17.1983 15.5533 17.4641 15.4322 17.7713C15.3111 18.0786 15.2812 18.4142 15.3461 18.738L15.8189 21.103C15.8629 21.3233 15.8059 21.5518 15.6634 21.7255C15.521 21.8993 15.3081 22 15.0834 22H8.91679C8.69193 22 8.47893 21.8991 8.33648 21.7251C8.19403 21.5511 8.13716 21.3224 8.18154 21.102L8.65746 18.738C8.72226 18.4143 8.69239 18.0785 8.57134 17.7713C8.45033 17.4643 8.24337 17.1986 7.97526 17.0062C6.65493 16.0619 5.7085 14.6836 5.30147 13.1122L5.30119 13.1112C5.22571 12.818 5.21835 12.5115 5.27966 12.215C5.34096 11.9185 5.46932 11.6401 5.6549 11.4009C5.82025 11.1878 6.02712 11.0109 6.26261 10.8808L5.7589 5.84232C5.49428 5.74393 5.25117 5.58923 5.0477 5.38576C4.67575 5.01381 4.4668 4.50935 4.4668 3.98333C4.4668 3.45732 4.67575 2.95285 5.0477 2.58091ZM7.27881 5.96667L7.74535 10.6333H16.2548L16.7213 5.96667H7.27881ZM16.8282 12.1359C16.8115 12.1342 16.7947 12.1333 16.7779 12.1333H7.22301C7.20608 12.1333 7.18852 12.1342 7.17176 12.1359C7.16499 12.1369 7.15819 12.1377 7.15136 12.1385C7.10222 12.1458 7.05435 12.1606 7.00948 12.1825C6.94321 12.2149 6.88524 12.2621 6.84002 12.3204C6.79479 12.3787 6.76351 12.4465 6.74857 12.5188C6.73366 12.5909 6.73542 12.6654 6.75372 12.7368C7.07266 13.9674 7.81401 15.0469 8.84818 15.7863L8.84909 15.787C9.35188 16.1476 9.73999 16.6457 9.96687 17.2213C10.1938 17.797 10.2498 18.4259 10.1282 19.0326L9.83283 20.5H14.1686L13.8753 19.0326C13.7537 18.4259 13.8098 17.797 14.0366 17.2213C14.2635 16.6457 14.6516 16.1476 15.1544 15.787C16.1877 15.0469 16.9285 13.967 17.2466 12.7365C17.265 12.665 17.2666 12.591 17.2517 12.5188C17.2367 12.4465 17.2054 12.3787 17.1602 12.3204C17.115 12.2621 17.057 12.2149 16.9907 12.1825C16.9459 12.1606 16.8982 12.1458 16.8491 12.1385C16.8421 12.1378 16.8351 12.1369 16.8282 12.1359Z" fill="#1B1A16"/>
</svg>
