<svg width="24" height="24" viewBox="0 0 24 24" fill="none" xmlns="http://www.w3.org/2000/svg">
<path fill-rule="evenodd" clip-rule="evenodd" d="M21.738 2.18052C22.0526 2.45006 22.089 2.92353 21.8195 3.23805L18.9871 6.54318C18.8093 6.75071 18.5904 6.91948 18.3445 7.03849C18.0984 7.15754 17.8304 7.22444 17.5572 7.235C17.2841 7.24555 17.0117 7.19953 16.7572 7.09981C16.5027 7.0001 16.2715 6.84886 16.0782 6.65557L15.1697 5.74701C14.8768 5.45412 14.8768 4.97924 15.1697 4.68635C15.4626 4.39346 15.9374 4.39346 16.2303 4.68635L17.1389 5.59491C17.186 5.64201 17.2423 5.67887 17.3043 5.70317C17.3664 5.72747 17.4328 5.73869 17.4993 5.73611C17.5659 5.73354 17.6312 5.71724 17.6912 5.68823C17.7511 5.65921 17.8044 5.61812 17.8478 5.56752L20.6805 2.26198C20.95 1.94746 21.4235 1.91099 21.738 2.18052ZM8.42036 2.2214C8.77322 2.07524 9.15141 2.00001 9.53333 2.00001C9.91526 2.00001 10.2934 2.07524 10.6463 2.2214C10.9992 2.36756 11.3198 2.58178 11.5898 2.85185C11.8599 3.12191 12.0741 3.44252 12.2203 3.79538C12.3664 4.14823 12.4417 4.52642 12.4417 4.90835C12.4417 5.29028 12.3664 5.66846 12.2203 6.02132C12.0741 6.37418 11.8599 6.69479 11.5898 6.96485C11.3198 7.23492 10.9992 7.44914 10.6463 7.5953C10.5376 7.64034 10.4264 7.67864 10.3135 7.71009C10.545 7.80914 10.7565 7.95181 10.936 8.13147L15.2527 12.4481C15.4368 12.6324 15.583 12.8512 15.6826 13.0918C15.7823 13.3325 15.8335 13.5904 15.8334 13.8509C15.8334 14.053 15.8024 14.2536 15.742 14.4458C15.8756 14.4928 16.0044 14.5542 16.126 14.6293C16.4394 14.8229 16.6927 15.1 16.8575 15.4295L19.6022 20.9187C19.7874 21.2892 19.6372 21.7397 19.2667 21.925C18.8963 22.1102 18.4458 21.96 18.2605 21.5895L15.516 16.1005C15.4758 16.0202 15.4141 15.9526 15.3377 15.9055C15.2613 15.8583 15.1733 15.8333 15.0836 15.8334H13.8952C13.88 15.8337 13.8648 15.8339 13.8495 15.8339C13.8346 15.8339 13.8197 15.8337 13.8048 15.8334H10.2668C9.85254 15.8334 9.51675 15.4976 9.51675 15.0834C9.51675 14.6691 9.85254 14.3334 10.2668 14.3334H11.527L9.98993 12.7978C9.69689 12.5051 9.69665 12.0302 9.9894 11.7372C10.2821 11.4441 10.757 11.4439 11.0501 11.7366L13.5077 14.1918C13.5526 14.2367 13.6062 14.2727 13.6649 14.297C13.7167 14.3185 13.7718 14.3308 13.8277 14.3334H13.8723C13.9281 14.3308 13.9832 14.3185 14.0349 14.2971C14.0936 14.2728 14.1469 14.2372 14.1918 14.1924C14.2367 14.1475 14.2723 14.0942 14.2966 14.0355C14.3209 13.9769 14.3334 13.914 14.3334 13.8505C14.3334 13.7871 14.321 13.7242 14.2967 13.6655C14.2724 13.6069 14.2368 13.5536 14.1919 13.5087L9.87538 9.19213C9.81044 9.12713 9.72806 9.08172 9.63839 9.06172C9.54871 9.04172 9.4552 9.04769 9.3688 9.07893C9.2824 9.11018 9.20669 9.16541 9.15055 9.23814C9.09445 9.31083 9.06021 9.39799 9.05185 9.48943L8.43518 16.2728C8.42909 16.3397 8.437 16.4072 8.45843 16.4709C8.47985 16.5345 8.51432 16.593 8.55961 16.6426C8.6049 16.6922 8.66004 16.7318 8.7215 16.7589C8.78266 16.7859 8.84873 16.7999 8.91556 16.8L8.91657 16.8L13.85 16.8L13.8512 16.8H14.3211C14.6053 16.8 14.865 16.9606 14.992 17.2147L16.8371 20.9065C17.0223 21.277 16.872 21.7275 16.5015 21.9127C16.131 22.0979 15.6805 21.9476 15.4953 21.5771L14.2936 19.1726C14.072 19.7386 13.7347 20.2586 13.2966 20.6966C12.4621 21.5312 11.3302 22 10.15 22C9.73579 22 9.4 21.6642 9.4 21.25C9.4 20.8358 9.73579 20.5 10.15 20.5C10.9324 20.5 11.6827 20.1892 12.236 19.636C12.6087 19.2633 12.8713 18.8012 13.0031 18.3L8.91675 18.3L8.91456 18.3H6.45C6.03579 18.3 5.7 17.9642 5.7 17.55V16.45H3.5V21.25C3.5 21.6642 3.16421 22 2.75 22C2.33579 22 2 21.6642 2 21.25V13.2334C2 12.7073 2.20896 12.2029 2.5809 11.8309C2.95285 11.459 3.45732 11.25 3.98333 11.25H5.21667C5.74268 11.25 6.24715 11.459 6.61909 11.8309C6.99104 12.2029 7.2 12.7073 7.2 13.2334V13.2917L7.55801 9.35363C7.59222 8.97817 7.73276 8.62008 7.96312 8.32163C8.17028 8.05322 8.44239 7.84292 8.75296 7.71003C8.64011 7.6786 8.52904 7.64031 8.42036 7.5953C8.06751 7.44914 7.7469 7.23492 7.47683 6.96485C7.20677 6.69479 6.99254 6.37418 6.84638 6.02132C6.70023 5.66846 6.625 5.29028 6.625 4.90835C6.625 4.52642 6.70023 4.14823 6.84638 3.79538C6.99254 3.44252 7.20677 3.12191 7.47683 2.85185C7.7469 2.58178 8.06751 2.36756 8.42036 2.2214ZM5.7 14.95V13.2334C5.7 13.1052 5.64908 12.9822 5.55843 12.8916C5.46779 12.8009 5.34486 12.75 5.21667 12.75H3.98333C3.85514 12.75 3.73221 12.8009 3.64157 12.8916C3.55092 12.9822 3.5 13.1052 3.5 13.2334V14.95H5.7ZM9.53333 3.50001C9.34839 3.50001 9.16526 3.53644 8.99439 3.60722C8.82352 3.67799 8.66827 3.78173 8.53749 3.91251C8.40672 4.04328 8.30298 4.19853 8.2322 4.3694C8.16143 4.54027 8.125 4.7234 8.125 4.90835C8.125 5.09329 8.16143 5.27643 8.2322 5.4473C8.30298 5.61816 8.40672 5.77342 8.53749 5.90419C8.66827 6.03497 8.82352 6.1387 8.99439 6.20948C9.16525 6.28026 9.34839 6.31668 9.53333 6.31668C9.71828 6.31668 9.90141 6.28026 10.0723 6.20948C10.2431 6.1387 10.3984 6.03497 10.5292 5.90419C10.66 5.77342 10.7637 5.61816 10.8345 5.4473C10.9052 5.27643 10.9417 5.09329 10.9417 4.90835C10.9417 4.7234 10.9052 4.54027 10.8345 4.3694C10.7637 4.19853 10.66 4.04328 10.5292 3.91251C10.3984 3.78173 10.2431 3.67799 10.0723 3.60722C9.90141 3.53644 9.71828 3.50001 9.53333 3.50001Z" fill="#1B1A16"/>
</svg>
