<svg width="24" height="24" viewBox="0 0 24 24" fill="none" xmlns="http://www.w3.org/2000/svg">
<path fill-rule="evenodd" clip-rule="evenodd" d="M14.914 2.58087C15.2859 2.20895 15.7904 2 16.3164 2H18.7828C19.3088 2 19.8132 2.20895 20.1852 2.58087C20.5571 2.9528 20.766 3.45724 20.766 3.98322V11.3826C20.766 11.9086 20.5571 12.413 20.1852 12.7849C19.9804 12.9897 19.7354 13.1451 19.4689 13.2434C19.3797 13.6928 19.1951 14.1205 18.9247 14.4963C18.5353 15.0375 17.9875 15.4441 17.3572 15.6603C17.2706 15.6965 17.1966 15.7577 17.1446 15.8362C17.0904 15.9181 17.0629 16.0149 17.0659 16.1131C17.0662 16.1208 17.0663 16.1285 17.0663 16.1362V21.25C17.0663 21.6642 16.7305 22 16.3163 22H8.30034C8.07087 22 7.85403 21.8949 7.71179 21.7149C7.56956 21.5348 7.51759 21.2995 7.57074 21.0763L8.05637 19.0366C7.04771 18.4168 6.19679 17.5664 5.57572 16.5519C4.95737 15.542 4.58737 14.403 4.49199 13.2283C4.24064 13.1295 4.00967 12.9795 3.815 12.7849C3.44308 12.4129 3.23413 11.9085 3.23413 11.3825C3.23413 10.8565 3.44308 10.3521 3.815 9.98017C4.18693 9.60824 4.69137 9.39929 5.21735 9.39929H14.3331V3.98322C14.3331 3.45724 14.5421 2.9528 14.914 2.58087ZM5.21735 11.8657H14.3331V10.8993H5.21735C5.0892 10.8993 4.96629 10.9502 4.87566 11.0408C4.78504 11.1314 4.73413 11.2544 4.73413 11.3825C4.73413 11.5107 4.78504 11.6336 4.87566 11.7242C4.96629 11.8148 5.0892 11.8657 5.21735 11.8657ZM18.7828 11.8658H15.8331V10.1493L15.8331 10.1453V3.98322C15.8331 3.85507 15.884 3.73216 15.9747 3.64153C16.0653 3.55091 16.1882 3.5 16.3164 3.5H18.7828C18.911 3.5 19.0339 3.55091 19.1245 3.64153C19.2151 3.73216 19.266 3.85507 19.266 3.98322V11.3826C19.266 11.5107 19.2151 11.6336 19.1245 11.7243C19.0339 11.8149 18.911 11.8658 18.7828 11.8658ZM6.85499 15.7687C6.40563 15.0347 6.12003 14.2157 6.01393 13.3674H17.8579C17.8152 13.4554 17.7648 13.54 17.7071 13.6202C17.4969 13.9123 17.2003 14.131 16.8591 14.2453C16.8479 14.249 16.8369 14.253 16.8259 14.2573C16.445 14.4052 16.1194 14.6675 15.8939 15.0082C15.6707 15.3452 15.5565 15.7425 15.5663 16.1464V20.5H9.24988L9.64656 18.8339C9.72672 18.4973 9.56612 18.1495 9.25786 17.9922C8.26727 17.4867 7.43569 16.7172 6.85499 15.7687Z" fill="#1B1A16"/>
</svg>
