<svg width="24" height="24" viewBox="0 0 24 24" fill="none" xmlns="http://www.w3.org/2000/svg">
<path fill-rule="evenodd" clip-rule="evenodd" d="M16.187 2.62067C16.5483 2.25929 17.0385 2.05627 17.5495 2.05627H20.016C20.527 2.05627 21.0172 2.25929 21.3785 2.62067C21.7399 2.98205 21.9429 3.47218 21.9429 3.98325V11.3826C21.9429 11.8937 21.7399 12.3838 21.3785 12.7452C21.1722 12.9515 20.9239 13.1062 20.6536 13.201C20.5688 13.6553 20.385 14.0878 20.1123 14.4668C19.7294 14.9989 19.1906 15.3987 18.5706 15.6109C18.4732 15.6513 18.3899 15.7198 18.3315 15.8078C18.2708 15.8992 18.2399 16.0071 18.243 16.1167L18.2433 16.1363V21.25C18.2433 21.6332 17.9327 21.9438 17.5496 21.9438H9.53364C9.32134 21.9438 9.12073 21.8466 8.98917 21.68C8.8576 21.5133 8.80957 21.2957 8.8588 21.0891L9.35371 19.0131C8.33744 18.3962 7.48051 17.5443 6.85699 16.5259C6.23648 15.5124 5.86794 14.368 5.77832 13.1885C5.52147 13.0929 5.28548 12.9426 5.08795 12.7451C4.72658 12.3837 4.52356 11.8936 4.52356 11.3825C4.52356 10.8715 4.72658 10.3813 5.08795 10.02C5.44933 9.65859 5.93946 9.45557 6.45053 9.45557H15.6226V3.98325C15.6226 3.47218 15.8256 2.98205 16.187 2.62067ZM17.5495 3.44377C17.4065 3.44377 17.2692 3.50061 17.1681 3.60178C17.0669 3.70295 17.0101 3.84017 17.0101 3.98325V11.9221H20.016C20.159 11.9221 20.2963 11.8652 20.3974 11.7641C20.4986 11.6629 20.5554 11.5257 20.5554 11.3826V3.98325C20.5554 3.84017 20.4986 3.70295 20.3974 3.60178C20.2963 3.50061 20.159 3.44377 20.016 3.44377H17.5495ZM6.45053 10.8431C6.30745 10.8431 6.17024 10.8999 6.06907 11.0011C5.9679 11.1022 5.91106 11.2395 5.91106 11.3825C5.91106 11.5256 5.9679 11.6628 6.06907 11.764C6.17024 11.8652 6.30745 11.922 6.45053 11.922H15.6225V10.8431H6.45053ZM8.04032 15.8014C7.57561 15.0424 7.28442 14.1932 7.18384 13.3145H19.1785C19.1275 13.4346 19.0631 13.5493 18.986 13.6564C18.769 13.9581 18.4626 14.1839 18.1102 14.302C18.0999 14.3054 18.0896 14.3091 18.0795 14.3131C17.7103 14.4564 17.3946 14.7105 17.1755 15.0404C16.9585 15.3673 16.847 15.7528 16.8558 16.145V20.5563H10.4122L10.8251 18.8244C10.8993 18.513 10.7508 18.1911 10.4656 18.0456C9.46576 17.5354 8.62643 16.7587 8.04032 15.8014Z" fill="#1B1A16"/>
<path d="M8.94077 5.52996C8.96558 5.9123 8.67574 6.24236 8.2934 6.26717C7.76811 6.30125 7.27323 6.52556 6.90136 6.89812C6.52949 7.27068 6.3061 7.76597 6.27299 8.29132C6.24889 8.67371 5.91937 8.96416 5.53698 8.94006C5.15459 8.91596 4.86414 8.58644 4.88824 8.20405C4.94257 7.34199 5.30913 6.52926 5.91934 5.91792C6.52956 5.30657 7.34161 4.93851 8.20356 4.88258C8.58591 4.85778 8.91597 5.14762 8.94077 5.52996Z" fill="#1B1A16"/>
<path d="M7.87731 3.44116C8.25811 3.39878 8.53244 3.05572 8.49006 2.67492C8.44767 2.29413 8.10461 2.01979 7.72382 2.06218C6.27744 2.22318 4.92888 2.8715 3.89982 3.90056C2.87076 4.92962 2.22245 6.27818 2.06145 7.72456C2.01906 8.10536 2.2934 8.44841 2.67419 8.4908C3.05499 8.53319 3.39804 8.25885 3.44043 7.87806C3.56659 6.74471 4.07459 5.68801 4.88093 4.88167C5.68728 4.07532 6.74397 3.56732 7.87731 3.44116Z" fill="#1B1A16"/>
</svg>
