<svg width="24" height="24" viewBox="0 0 24 24" fill="none" xmlns="http://www.w3.org/2000/svg">
<path fill-rule="evenodd" clip-rule="evenodd" d="M2.75 2C2.33579 2 2 2.33579 2 2.75C2 3.16421 2.33579 3.5 2.75 3.5H7.68333C7.81152 3.5 7.93446 3.55092 8.0251 3.64157C8.11574 3.73221 8.16667 3.85515 8.16667 3.98333V7.68333C8.16667 8.20935 8.37562 8.71381 8.74757 9.08576C9.11952 9.45771 9.62399 9.66667 10.15 9.66667H18.7833C19.3093 9.66667 19.8138 9.45771 20.1858 9.08576C20.5577 8.71382 20.7667 8.20935 20.7667 7.68333V5.21667C20.7667 4.69065 20.5577 4.18618 20.1858 3.81424C19.8138 3.44229 19.3093 3.23333 18.7833 3.23333H16.326C16.3229 3.2333 16.3198 3.23328 16.3167 3.23328C16.3135 3.23328 16.3104 3.2333 16.3073 3.23333H12.626L12.6167 3.23328L12.6074 3.23333H9.51939C9.4206 2.99149 9.27407 2.76921 9.08576 2.5809C8.71381 2.20896 8.20935 2 7.68333 2H2.75ZM15.5667 4.73333H13.3667V8.16667H15.5667V4.73333ZM17.0667 8.16667H18.7833C18.9115 8.16667 19.0345 8.11574 19.1251 8.0251C19.2157 7.93446 19.2667 7.81152 19.2667 7.68333V5.21667C19.2667 5.08848 19.2157 4.96554 19.1251 4.8749C19.0345 4.78426 18.9115 4.73333 18.7833 4.73333H17.0667V8.16667ZM9.66667 4.73333H11.8667V8.16667H10.15C10.0218 8.16667 9.89887 8.11574 9.80823 8.0251C9.71759 7.93446 9.66667 7.81152 9.66667 7.68333V4.73333Z" fill="#1B1A16"/>
<path d="M11.8667 13.85C11.8667 13.4358 12.2025 13.1 12.6167 13.1H16.3167C16.7309 13.1 17.0667 13.4358 17.0667 13.85C17.0667 14.2642 16.7309 14.6 16.3167 14.6H12.6167C12.2025 14.6 11.8667 14.2642 11.8667 13.85Z" fill="#1B1A16"/>
<path fill-rule="evenodd" clip-rule="evenodd" d="M6.93335 12.2055C6.93335 11.3372 7.63726 10.6333 8.50557 10.6333H20.4278C21.2961 10.6333 22 11.3372 22 12.2055V19.1944C22 20.0627 21.2961 20.7666 20.4278 20.7666H19.5333V21.2501C19.5333 21.6643 19.1975 22.0001 18.7833 22.0001C18.3691 22.0001 18.0333 21.6643 18.0333 21.2501V20.7666H10.9V21.2501C10.9 21.6643 10.5642 22.0001 10.15 22.0001C9.73581 22.0001 9.40002 21.6643 9.40002 21.2501V20.7666H8.50557C7.63726 20.7666 6.93335 20.0627 6.93335 19.1944V12.2055ZM8.50557 12.1333C8.46568 12.1333 8.43335 12.1656 8.43335 12.2055V19.1944C8.43335 19.2343 8.46568 19.2666 8.50557 19.2666H20.4278C20.4677 19.2666 20.5 19.2343 20.5 19.1944V12.2055C20.5 12.1656 20.4677 12.1333 20.4278 12.1333H8.50557Z" fill="#1B1A16"/>
</svg>
