<svg width="24" height="24" viewBox="0 0 24 24" fill="none" xmlns="http://www.w3.org/2000/svg">
<path fill-rule="evenodd" clip-rule="evenodd" d="M2 5.83337C2 5.41916 2.33579 5.08337 2.75 5.08337H21.25C21.6642 5.08337 22 5.41916 22 5.83337V9.53339C22 10.0594 21.791 10.5639 21.4191 10.9358C21.0471 11.3078 20.5427 11.5167 20.0167 11.5167H10.15C9.62399 11.5167 9.11952 11.3078 8.74757 10.9358C8.37562 10.5639 8.16667 10.0594 8.16667 9.53339V6.58337H2.75C2.33579 6.58337 2 6.24759 2 5.83337ZM9.66667 6.58337V9.53339C9.66667 9.66158 9.71759 9.78451 9.80823 9.87516C9.89887 9.9658 10.0218 10.0167 10.15 10.0167H20.0167C20.1449 10.0167 20.2678 9.9658 20.3584 9.87516C20.4491 9.78451 20.5 9.66157 20.5 9.53339V6.58337H9.66667Z" fill="#1B1A16"/>
<path fill-rule="evenodd" clip-rule="evenodd" d="M14.344 13.8996C14.5716 13.7783 14.8255 13.7149 15.0833 13.7149C15.3412 13.7149 15.5951 13.7783 15.8226 13.8996C16.0502 14.0208 16.2445 14.1962 16.3883 14.4102C16.4001 14.4278 16.4112 14.446 16.4216 14.4645L17.2909 16.031C17.422 15.8512 17.5931 15.7033 17.7914 15.5993C18.0309 15.4736 18.3005 15.4173 18.5701 15.4362C18.806 15.4458 19.0361 15.514 19.2393 15.6348C19.4492 15.7595 19.6234 15.9361 19.7454 16.1475L19.7502 16.1558L20.671 17.8003C20.8734 18.1617 20.7445 18.6187 20.3831 18.8211C20.0217 19.0235 19.5647 18.8946 19.3623 18.5332L18.4783 16.9547C18.4691 16.9685 18.4594 16.9821 18.4492 16.9953C18.3024 17.1866 18.1101 17.3383 17.8899 17.4365C17.6748 17.5324 17.4397 17.5744 17.2049 17.559C16.9688 17.5488 16.7388 17.4802 16.5355 17.3594C16.3273 17.2357 16.1538 17.0611 16.0313 16.8521L16.0227 16.8369L15.1339 15.2356C15.129 15.2308 15.1234 15.2266 15.1173 15.2234C15.1068 15.2178 15.0952 15.2149 15.0833 15.2149C15.0715 15.2149 15.0598 15.2178 15.0494 15.2234C15.0432 15.2266 15.0376 15.2308 15.0327 15.2356L14.144 16.8369L14.1353 16.8521C14.0129 17.0611 13.8394 17.2357 13.6311 17.3594C13.4278 17.4802 13.1978 17.5488 12.9617 17.559C12.7269 17.5744 12.4918 17.5324 12.2768 17.4365C12.0565 17.3383 11.8643 17.1866 11.7174 16.9953C11.7073 16.9821 11.6976 16.9685 11.6883 16.9547L10.8044 18.5332C10.602 18.8946 10.145 19.0235 9.78355 18.8211C9.42214 18.6187 9.29323 18.1617 9.49562 17.8003L10.4212 16.1475C10.5432 15.936 10.7175 15.7595 10.9274 15.6348C11.1307 15.514 11.3607 15.4458 11.5968 15.4362C11.8662 15.4173 12.1358 15.4737 12.3753 15.5993C12.5736 15.7033 12.7446 15.8512 12.8758 16.031L13.7451 14.4645C13.7554 14.446 13.7665 14.4278 13.7784 14.4102C13.9222 14.1962 14.1165 14.0208 14.344 13.8996ZM17.2694 16.0604C17.2692 16.0604 17.2696 16.0604 17.2694 16.0604V16.0604Z" fill="#1B1A16"/>
</svg>
