<svg width="24" height="24" viewBox="0 0 24 24" fill="none" xmlns="http://www.w3.org/2000/svg">
<path d="M21.965 17.991C21.959 17.966 21.966 17.94 21.957 17.916L19.423 10.774L20.512 4.319C20.563 4.034 20.549 3.746 20.471 3.457C20.395 3.183 20.258 2.922 20.075 2.705C19.889 2.485 19.654 2.304 19.393 2.184C19.129 2.062 18.849 2 18.559 2H5.442C5.155 2 4.866 2.064 4.609 2.184C4.348 2.304 4.112 2.484 3.928 2.704C3.743 2.921 3.605 3.183 3.529 3.46C3.453 3.738 3.439 4.034 3.487 4.314L4.575 10.765L2.043 17.916C2.034 17.94 2.042 17.966 2.035 17.991C2.021 18.049 2 18.104 2 18.166V18.783C2 19.642 2.334 20.45 2.942 21.057C3.55 21.664 4.357 22 5.217 22H18.783C19.642 22 20.45 21.665 21.057 21.058C21.664 20.451 22 19.643 22 18.783V18.166C22 18.104 21.979 18.049 21.965 17.991ZM4.976 3.856C4.995 3.789 5.028 3.725 5.074 3.671C5.12 3.617 5.175 3.575 5.24 3.545C5.302 3.516 5.372 3.5 5.442 3.5H18.559C18.629 3.5 18.698 3.515 18.763 3.546C18.825 3.575 18.882 3.618 18.927 3.671C18.973 3.725 19.007 3.79 19.025 3.854C19.044 3.924 19.047 3.993 19.035 4.065L18.12 9.488C17.936 9.432 17.744 9.4 17.55 9.4H6.45C6.256 9.4 6.065 9.432 5.881 9.487L4.965 4.062C4.954 3.994 4.957 3.924 4.976 3.856ZM6.017 11.167C6.058 11.086 6.12 11.019 6.194 10.972C6.272 10.925 6.36 10.9 6.45 10.9H17.55C17.64 10.9 17.729 10.925 17.804 10.971C17.889 11.023 17.947 11.082 17.947 11.082L20.189 17.416H3.81L6.017 11.167ZM19.997 19.997C19.673 20.321 19.241 20.5 18.783 20.5H5.217C4.759 20.5 4.327 20.321 4.003 19.997C3.71 19.704 3.536 19.324 3.505 18.916H20.495C20.464 19.324 20.29 19.704 19.997 19.997Z" fill="#1B1A16"/>
<path d="M17.052 12.47C16.982 12.12 16.674 11.867 16.317 11.867H7.683C7.326 11.867 7.017 12.119 6.948 12.47L6.331 15.553C6.287 15.774 6.344 16.002 6.486 16.176C6.628 16.35 6.841 16.45 7.066 16.45H16.933C16.94 16.45 16.948 16.451 16.953 16.45C17.368 16.45 17.703 16.114 17.703 15.7C17.703 15.589 17.68 15.483 17.636 15.388L17.052 12.47ZM7.981 14.95L8.297 13.367H15.701L16.017 14.95H7.981Z" fill="#1B1A16"/>
</svg>
