<svg width="24" height="24" viewBox="0 0 24 24" fill="none" xmlns="http://www.w3.org/2000/svg">
<path fill-rule="evenodd" clip-rule="evenodd" d="M15.7 2C11.64 2 5.61355 3.60326 3.43018 4.23292L3.428 4.23355C3.01603 4.35371 2.65415 4.60424 2.39667 4.94755C2.13919 5.29086 2 5.70841 2 6.13755V10.4624C2 10.8916 2.13919 11.3091 2.39667 11.6524C2.65415 11.9957 3.01603 12.2463 3.428 12.3664L3.43231 12.3677C5.12477 12.8503 9.05575 13.9075 12.6277 14.3727L12.1754 18.4294C12.1255 18.8806 12.1716 19.3372 12.3107 19.7693C12.4499 20.2013 12.6789 20.5991 12.9827 20.9363C13.2865 21.2736 13.6583 21.5427 14.0735 21.726C14.4881 21.909 14.9366 22.0023 15.3897 21.9999H16.3331C17.1862 21.9999 18.0044 21.661 18.6076 21.0578C19.2108 20.4545 19.5497 19.6364 19.5497 18.7833V13.2869C19.7614 13.1235 19.9636 12.9459 20.1548 12.7548C21.3363 11.5733 22 9.97085 22 8.29999C22 6.62913 21.3363 5.0267 20.1548 3.84522C19.1519 2.84239 17.8458 2.21256 16.452 2.04502C16.4185 2.03892 16.3843 2.03504 16.3494 2.03354C16.1346 2.01129 15.9179 2 15.7 2ZM14.6608 13.0666C14.9624 13.0837 15.2645 13.0943 15.5667 13.0985V3.50061C13.213 3.52211 10.1362 4.10399 7.61108 4.69459V11.9028C9.82458 12.4212 12.4575 12.9332 14.6608 13.0666ZM6.11108 11.5361V5.06118C5.18715 5.29649 4.40262 5.51362 3.84715 5.6738C3.74711 5.70318 3.65924 5.76412 3.59667 5.84755C3.53392 5.93121 3.5 6.03297 3.5 6.13755V10.4624C3.5 10.567 3.53392 10.6688 3.59667 10.7524C3.65907 10.8356 3.74663 10.8965 3.84634 10.9259C4.40674 11.0857 5.19072 11.3019 6.11108 11.5361ZM14.1191 14.5337C14.3018 14.5477 14.4847 14.5596 14.6678 14.5692C15.0228 14.5892 15.3679 14.6 15.7 14.6L15.7074 14.6C16.5137 14.6027 17.3086 14.4494 18.0497 14.1529V18.7833C18.0497 19.2385 17.8689 19.6752 17.5469 19.9971C17.225 20.319 16.7884 20.4999 16.3331 20.4999L15.3875 20.4999L15.383 20.4999C15.1407 20.5014 14.9009 20.4516 14.6793 20.3538C14.4577 20.2559 14.2593 20.1123 14.0971 19.9323C13.935 19.7523 13.8128 19.5401 13.7385 19.3095C13.6643 19.079 13.6397 18.8351 13.6663 18.5944L14.1191 14.5337ZM17.0667 12.9013C17.8256 12.6759 18.5241 12.2641 19.0941 11.6941C19.9943 10.7939 20.5 9.57302 20.5 8.29999C20.5 7.02695 19.9943 5.80606 19.0941 4.90588C18.5241 4.33592 17.8256 3.9241 17.0667 3.69866V12.9013Z" fill="#1B1A16"/>
</svg>
