<svg width="24" height="24" viewBox="0 0 24 24" fill="none" xmlns="http://www.w3.org/2000/svg">
<path d="M21.54 3.69401C21.243 3.39701 20.849 3.23401 20.428 3.23401H3.572C3.152 3.23401 2.757 3.39801 2.46 3.69401C2.163 3.99001 2 4.38601 2 4.80601V6.45001V18.783C2 19.312 2.207 19.81 2.581 20.185C2.955 20.56 3.454 20.766 3.983 20.766H8.999C8.999 20.766 9.006 20.766 9.008 20.766C9.334 20.766 9.65 20.649 9.894 20.437C10.142 20.225 10.306 19.931 10.355 19.608L11.32 13.333C11.345 13.171 11.427 13.022 11.552 12.915C11.8 12.702 12.197 12.7 12.448 12.917C12.572 13.023 12.655 13.171 12.679 13.333L13.642 19.604C13.69 19.925 13.852 20.22 14.105 20.44C14.353 20.651 14.668 20.767 14.994 20.767H20.016C20.539 20.767 21.051 20.555 21.418 20.186C21.794 19.811 22 19.312 22 18.783V6.45001V4.80601C22 4.38501 21.837 3.99001 21.54 3.69401ZM3.5 4.80601L3.572 4.73401H20.427L20.5 4.80601V5.70001H3.5V4.80601ZM3.642 19.125C3.55 19.033 3.5 18.912 3.5 18.783V7.20001H4.467V19.266H3.983C3.854 19.267 3.733 19.216 3.642 19.125ZM14.162 13.105C14.083 12.588 13.82 12.116 13.425 11.778C12.635 11.098 11.368 11.097 10.576 11.777C10.18 12.117 9.918 12.589 9.838 13.104L8.92 19.267H5.967V7.20001H9.726L8.822 9.91301C8.691 10.306 8.903 10.731 9.296 10.862C9.375 10.888 9.455 10.9 9.533 10.9C9.847 10.9 10.14 10.701 10.244 10.387L11.307 7.20001H12.692L13.754 10.387C13.859 10.701 14.151 10.9 14.466 10.9C14.544 10.9 14.624 10.888 14.703 10.861C15.096 10.73 15.308 10.305 15.178 9.91201L14.274 7.20001H18.033V19.266H15.108L14.162 13.105ZM20.5 18.783C20.5 18.912 20.449 19.033 20.357 19.126C20.268 19.216 20.144 19.267 20.016 19.267H19.533V7.20001H20.5V18.783Z" fill="#1B1A16"/>
</svg>
