<svg width="24" height="24" viewBox="0 0 24 24" fill="none" xmlns="http://www.w3.org/2000/svg">
<path fill-rule="evenodd" clip-rule="evenodd" d="M4.60788 2.00008H19.4325C19.778 1.99642 20.112 2.12459 20.3664 2.35865C20.6219 2.59367 20.7776 2.91757 20.8017 3.26378L20.8019 3.26656L21.9928 19.3971L21.9931 19.4005C22.0199 19.7394 21.9193 20.0763 21.711 20.3451C21.5026 20.6139 21.2015 20.7953 20.8666 20.854L20.8633 20.8545L14.5885 21.9812C14.2298 22.041 13.8621 21.9571 13.5648 21.7477L13.5628 21.7463C13.4138 21.6406 13.2879 21.5058 13.1925 21.3501C13.0986 21.1967 13.0363 21.0262 13.0093 20.8485L11.9996 14.7346L10.99 20.8404C10.9629 21.0181 10.9006 21.1886 10.8068 21.3419C10.7114 21.4976 10.5855 21.6324 10.4365 21.7381L10.4345 21.7395C10.1372 21.9489 9.76946 22.0327 9.41083 21.973L9.40158 21.9714L3.13527 20.8462L3.13238 20.8457C2.80062 20.7874 2.50206 20.6086 2.29406 20.3435C2.08546 20.0777 1.98274 19.7441 2.00573 19.407L2.00615 19.4009L2.66986 10.711C2.65224 10.5955 2.66225 10.481 2.69553 10.3748L3.0784 5.3618C3.06906 5.31451 3.06416 5.26563 3.06416 5.2156C3.06416 5.12552 3.08004 5.03915 3.10916 4.95913L3.23846 3.26656L3.23873 3.26265C3.2631 2.91686 3.41879 2.59342 3.67397 2.35865C3.92838 2.1246 4.26239 1.99642 4.60788 2.00008ZM4.53666 5.9656L4.27205 9.43014C4.72656 9.16029 5.12881 8.80492 5.45479 8.38005C5.98847 7.68446 6.2893 6.83967 6.3166 5.9656H4.53666ZM7.06337 4.4656H4.65122L4.72496 3.50008H19.3151L19.3864 4.4656H16.9819C16.9745 4.46549 16.9672 4.46549 16.9599 4.4656H7.0753C7.07133 4.46557 7.06736 4.46557 7.06337 4.4656ZM7.81714 5.9656C7.78946 7.1699 7.37954 8.33557 6.64487 9.29313C5.99752 10.1369 5.12884 10.7789 4.14061 11.1512L3.51139 19.3898L9.5308 20.4706L10.544 14.3429C10.598 13.9967 10.7736 13.6811 11.0394 13.4527C11.3066 13.223 11.6473 13.0967 11.9996 13.0967C12.352 13.0967 12.6927 13.223 12.9599 13.4527C13.2257 13.6811 13.4013 13.9968 13.4553 14.3429L14.4685 20.4788L20.4888 19.3978L19.8806 11.1594C18.8833 10.7883 18.0066 10.1431 17.3545 9.29313C16.6198 8.33557 16.2099 7.1699 16.1822 5.9656H13.9825V9.53024C13.9825 9.94445 13.6467 10.2802 13.2325 10.2802C12.8182 10.2802 12.4825 9.94445 12.4825 9.53024V5.9656H11.5169V9.53024C11.5169 9.94445 11.1812 10.2802 10.7669 10.2802C10.3527 10.2802 10.0169 9.94445 10.0169 9.53024V5.9656H7.81714ZM17.6828 5.9656C17.7101 6.83967 18.0109 7.68446 18.5446 8.38005C18.8769 8.81325 19.2886 9.17419 19.7541 9.4459L19.4971 5.9656H17.6828Z" fill="#1B1A16"/>
</svg>
