<svg width="24" height="24" viewBox="0 0 24 24" fill="none" xmlns="http://www.w3.org/2000/svg">
<path fill-rule="evenodd" clip-rule="evenodd" d="M8.8534 3.30338C9.68794 2.46884 10.8198 2 12 2C13.1802 2 14.3121 2.46884 15.1467 3.30338C15.9812 4.13791 16.45 5.26979 16.45 6.45V11.3448C16.6435 11.4521 16.8228 11.5865 16.982 11.7458C17.4311 12.1948 17.6834 12.8038 17.6834 13.4389C17.6834 13.7064 17.6386 13.9693 17.5532 14.2175C17.7739 14.1321 17.9767 14.0011 18.1472 13.8305C18.4692 13.5086 18.65 13.072 18.65 12.6167V10.4889H18.1667C17.7525 10.4889 17.4167 10.1531 17.4167 9.7389C17.4167 9.32468 17.7525 8.9889 18.1667 8.9889H20.6334C21.0476 8.9889 21.3834 9.32468 21.3834 9.7389C21.3834 10.1531 21.0476 10.4889 20.6334 10.4889H20.15V12.6167C20.15 13.4698 19.8111 14.288 19.2079 14.8912C18.6046 15.4944 17.7865 15.8333 16.9334 15.8333H15.7C15.6495 15.8333 15.6001 15.8283 15.5523 15.8188C15.4653 15.8284 15.3773 15.8333 15.2889 15.8333H12.75V16.8218C13.8129 16.9176 14.838 17.2852 15.7243 17.895C16.8248 18.6523 17.653 19.743 18.0868 21.0064C18.2213 21.3982 18.0127 21.8248 17.621 21.9593C17.2292 22.0939 16.8026 21.8853 16.6681 21.4935C16.3386 20.5341 15.7097 19.7058 14.874 19.1308C14.2385 18.6935 13.5089 18.4202 12.75 18.3299V21.25C12.75 21.6642 12.4142 22 12 22C11.5858 22 11.25 21.6642 11.25 21.25V18.329C10.4908 18.4187 9.76078 18.6917 9.12502 19.1291C8.28926 19.7042 7.66074 20.5329 7.33237 21.4928C7.1983 21.8847 6.7719 22.0937 6.37998 21.9596C5.98807 21.8255 5.77905 21.3991 5.91312 21.0072C6.34571 19.7427 7.17373 18.6509 8.27474 17.8934C9.16125 17.2834 10.1869 16.9161 11.25 16.8212V15.8333H8.71114C8.62272 15.8333 8.5348 15.8284 8.44775 15.8188C8.39999 15.8283 8.35059 15.8333 8.30003 15.8333H7.0667C6.21358 15.8333 5.39541 15.4944 4.79217 14.8912C4.18893 14.288 3.85003 13.4698 3.85003 12.6167V10.4889H3.3667C2.95249 10.4889 2.6167 10.1531 2.6167 9.7389C2.6167 9.32468 2.95249 8.9889 3.3667 8.9889H5.83336C6.24758 8.9889 6.58336 9.32468 6.58336 9.7389C6.58336 10.1531 6.24758 10.4889 5.83336 10.4889H5.35003V12.6167C5.35003 13.072 5.53089 13.5086 5.85283 13.8305C6.0234 14.0011 6.22616 14.1321 6.44684 14.2175C6.36146 13.9693 6.3167 13.7064 6.3167 13.4389C6.3167 12.8038 6.56897 12.1948 7.01801 11.7458C7.17723 11.5865 7.35656 11.4521 7.55003 11.3448V6.45C7.55003 5.26979 8.01887 4.13791 8.8534 3.30338ZM9.05003 11.0444H14.95V6.45C14.95 5.66761 14.6392 4.91727 14.086 4.36403C13.5328 3.8108 12.7824 3.5 12 3.5C11.2176 3.5 10.4673 3.8108 9.91406 4.36403C9.36083 4.91727 9.05003 5.66761 9.05003 6.45V11.0444ZM8.71114 12.5444C8.47392 12.5444 8.24641 12.6387 8.07867 12.8064C7.91093 12.9742 7.8167 13.2017 7.8167 13.4389C7.8167 13.6761 7.91093 13.9036 8.07867 14.0713C8.24641 14.2391 8.47392 14.3333 8.71114 14.3333H15.2889C15.5261 14.3333 15.7536 14.2391 15.9214 14.0713C16.0891 13.9036 16.1834 13.6761 16.1834 13.4389C16.1834 13.2017 16.0891 12.9742 15.9214 12.8064C15.7536 12.6387 15.5261 12.5444 15.2889 12.5444H8.71114Z" fill="#1B1A16"/>
</svg>
