<svg width="24" height="24" viewBox="0 0 24 24" fill="none" xmlns="http://www.w3.org/2000/svg">
<path fill-rule="evenodd" clip-rule="evenodd" d="M4.52306 2.46445C4.63877 2.18342 4.91265 2 5.21658 2H7.68324C8.79139 2 9.67285 2.88605 10.194 3.90838C10.7398 4.97899 11.0223 6.41592 10.8485 7.98464L10.8482 7.98701C10.8007 8.40332 10.8431 8.82496 10.9723 9.22353C11.1015 9.6221 11.3147 9.98834 11.5975 10.2976C11.8802 10.6068 12.2259 10.8518 12.6114 11.0162C12.9968 11.1805 13.413 11.2603 13.8318 11.2502L13.8499 11.25H18.7832C19.0098 11.25 19.2242 11.3524 19.3666 11.5286C19.509 11.7048 19.5641 11.9359 19.5165 12.1574C19.2408 13.4423 18.5099 14.5842 17.4586 15.3727C17.2267 15.5466 16.9827 15.7007 16.7291 15.8343L18.4538 21.0087C18.5848 21.4017 18.3725 21.8264 17.9795 21.9574C17.6467 22.0683 17.2912 21.933 17.1105 21.6503L12.0024 19.6666L6.90143 21.6496C6.72175 21.9355 6.36405 22.073 6.02939 21.9615C5.63643 21.8305 5.42406 21.4057 5.55505 21.0128L7.39452 15.4944C7.25808 15.3868 7.12739 15.2707 7.00328 15.1466C6.16875 14.3121 5.69991 13.1802 5.69991 12V5.27086C5.58484 4.5172 5.23047 3.81999 4.68849 3.28256C4.47268 3.06857 4.40735 2.74548 4.52306 2.46445ZM7.54359 19.7906L9.93143 18.8623L8.09122 18.1477L7.54359 19.7906ZM14.0731 18.8616L16.4669 19.7912L15.918 18.1444L14.0731 18.8616ZM15.443 16.7197L12.0021 18.0573L8.56613 16.7229L8.73418 16.2188C9.18631 16.3705 9.66401 16.45 10.1499 16.45H13.8238C14.3281 16.484 14.8307 16.4474 15.3179 16.3442L15.443 16.7197ZM15.7211 14.6532C15.6662 14.6586 15.611 14.6702 15.5565 14.6883C15.4876 14.7113 15.4243 14.7433 15.3673 14.7826C14.8983 14.9292 14.4022 14.9881 13.9041 14.952C13.8861 14.9507 13.868 14.95 13.8499 14.95H10.1499C9.36752 14.95 8.61718 14.6392 8.06394 14.086C7.51071 13.5327 7.19991 12.7824 7.19991 12V5.21667C7.19991 5.18224 7.19754 5.14784 7.19281 5.11374C7.11432 4.54725 6.94091 4.00217 6.68332 3.5H7.68324C7.94409 3.5 8.43163 3.75396 8.85766 4.58965C9.25896 5.37684 9.50186 6.5155 9.35773 7.81835C9.2862 8.44723 9.35021 9.08414 9.54545 9.68622C9.74082 10.2887 10.063 10.8423 10.4904 11.3097C10.9178 11.7772 11.4404 12.1476 12.0231 12.396C12.6028 12.6432 13.2285 12.7638 13.8585 12.75H17.7358C17.4633 13.3066 17.0615 13.7954 16.5586 14.1727C16.2982 14.3679 16.0167 14.5288 15.7211 14.6532Z" fill="#1B1A16"/>
</svg>
