<svg width="24" height="24" viewBox="0 0 24 24" fill="none" xmlns="http://www.w3.org/2000/svg">
<path fill-rule="evenodd" clip-rule="evenodd" d="M9.94447 3.5C9.70725 3.5 9.47975 3.59424 9.31201 3.76198C9.14427 3.92972 9.05003 4.15722 9.05003 4.39444V14.3333H14.95V4.39444C14.95 4.15722 14.8558 3.92972 14.688 3.76198C14.5203 3.59424 14.2928 3.5 14.0556 3.5H9.94447ZM16.45 14.3333V4.39444C16.45 3.7594 16.1978 3.15036 15.7487 2.70132C15.2997 2.25227 14.6906 2 14.0556 2H9.94447C9.30943 2 8.70039 2.25227 8.25135 2.70132C7.8023 3.15036 7.55003 3.7594 7.55003 4.39444V14.3333H7.0667C6.65248 14.3333 6.3167 14.6691 6.3167 15.0833C6.3167 15.1901 6.32201 15.2964 6.33249 15.4017C6.15605 15.3183 5.99349 15.2045 5.85283 15.0639C5.53089 14.7419 5.35003 14.3053 5.35003 13.85V12.1333H5.83336C6.24758 12.1333 6.58336 11.7975 6.58336 11.3833C6.58336 10.9691 6.24758 10.6333 5.83336 10.6333H3.3667C2.95249 10.6333 2.6167 10.9691 2.6167 11.3833C2.6167 11.7975 2.95249 12.1333 3.3667 12.1333H3.85003V13.85C3.85003 14.7031 4.18893 15.5213 4.79217 16.1245C5.37976 16.7121 6.17127 17.0489 7.00036 17.066C7.08013 17.1679 7.16638 17.2654 7.25884 17.3579C7.86208 17.9611 8.68025 18.3 9.53336 18.3H11.25V20.5H8.30003C7.88582 20.5 7.55003 20.8358 7.55003 21.25C7.55003 21.6642 7.88582 22 8.30003 22H15.7C16.1142 22 16.45 21.6642 16.45 21.25C16.45 20.8358 16.1142 20.5 15.7 20.5H12.75V18.3H14.4667C15.3198 18.3 16.138 17.9611 16.7412 17.3579C16.8337 17.2654 16.9199 17.1679 16.9997 17.066C17.8288 17.0489 18.6203 16.7121 19.2078 16.1245C19.8111 15.5213 20.15 14.7031 20.15 13.85V12.1333H20.6334C21.0476 12.1333 21.3834 11.7975 21.3834 11.3833C21.3834 10.9691 21.0476 10.6333 20.6334 10.6333H18.1667C17.7525 10.6333 17.4167 10.9691 17.4167 11.3833C17.4167 11.7975 17.7525 12.1333 18.1667 12.1333H18.65V13.85C18.65 14.3053 18.4691 14.7419 18.1472 15.0639C18.0065 15.2045 17.844 15.3182 17.6676 15.4017C17.678 15.2964 17.6834 15.1901 17.6834 15.0833C17.6834 14.8844 17.6043 14.6937 17.4637 14.553C17.323 14.4123 17.1323 14.3333 16.9334 14.3333H16.45ZM16.0109 15.8333C15.9281 16.0037 15.817 16.1607 15.6806 16.2972C15.3586 16.6191 14.922 16.8 14.4667 16.8H9.53336C9.07807 16.8 8.64143 16.6191 8.3195 16.2972C8.22459 16.2023 8.14195 16.0974 8.07259 15.985C8.05801 15.9555 8.04155 15.9271 8.02337 15.9C8.01149 15.878 8.0001 15.8558 7.9892 15.8333H16.0109Z" fill="#1B1A16"/>
</svg>
