<svg width="24" height="24" viewBox="0 0 24 24" fill="none" xmlns="http://www.w3.org/2000/svg">
<path fill-rule="evenodd" clip-rule="evenodd" d="M10.1501 3.5C10.0219 3.5 9.89895 3.55092 9.8083 3.64157C9.71766 3.73221 9.66674 3.85515 9.66674 3.98333V5.7H14.3334V3.98333C14.3334 3.85514 14.2825 3.73221 14.1918 3.64157C14.1012 3.55092 13.9783 3.5 13.8501 3.5H10.1501ZM15.8334 5.7879V3.98333C15.8334 3.45732 15.6244 2.95285 15.2525 2.5809C14.8806 2.20896 14.3761 2 13.8501 2H10.1501C9.62406 2 9.11959 2.20896 8.74764 2.5809C8.3757 2.95285 8.16674 3.45732 8.16674 3.98333V5.7879C6.75197 6.12579 5.70007 7.39839 5.70007 8.91667V15.0833C5.70007 16.6016 6.75197 17.8742 8.16674 18.2121V20.0167C8.16674 20.5427 8.3757 21.0471 8.74764 21.4191C9.11959 21.791 9.62406 22 10.1501 22H13.8501C14.3761 22 14.8806 21.791 15.2525 21.4191C15.6244 21.0471 15.8334 20.5427 15.8334 20.0167V18.2121C17.2482 17.8742 18.3001 16.6016 18.3001 15.0833V8.91667C18.3001 7.39839 17.2482 6.12579 15.8334 5.7879ZM14.3334 18.3H9.66674V20.0167C9.66674 20.1449 9.71766 20.2678 9.8083 20.3584C9.89895 20.4491 10.0219 20.5 10.1501 20.5H13.8501C13.9783 20.5 14.1012 20.4491 14.1918 20.3584C14.2825 20.2678 14.3334 20.1449 14.3334 20.0167V18.3ZM8.91674 7.2C7.96865 7.2 7.20007 7.96858 7.20007 8.91667V15.0833C7.20007 16.0314 7.96865 16.8 8.91674 16.8H15.0834C16.0315 16.8 16.8001 16.0314 16.8001 15.0833V8.91667C16.8001 7.96858 16.0315 7.2 15.0834 7.2H8.91674Z" fill="#1B1A16"/>
</svg>
