<svg width="24" height="24" viewBox="0 0 24 24" fill="none" xmlns="http://www.w3.org/2000/svg">
<path fill-rule="evenodd" clip-rule="evenodd" d="M8.9168 3.5C8.78861 3.5 8.66568 3.55092 8.57503 3.64157C8.48439 3.73221 8.43347 3.85515 8.43347 3.98333V4.46667H15.5668V3.98333C15.5668 3.85515 15.5159 3.73221 15.4252 3.64157C15.3346 3.55092 15.2117 3.5 15.0835 3.5H8.9168ZM17.0668 4.55457V3.98333C17.0668 3.45732 16.8579 2.95285 16.4859 2.5809C16.114 2.20896 15.6095 2 15.0835 2H8.9168C8.39079 2 7.88632 2.20896 7.51437 2.5809C7.14243 2.95285 6.93347 3.45732 6.93347 3.98333L6.93347 4.55457C5.51869 4.89246 4.4668 6.16505 4.4668 7.68333V16.3167C4.4668 17.8349 5.51869 19.1075 6.93347 19.4454L6.93347 20.0167C6.93347 20.5427 7.14243 21.0471 7.51437 21.4191C7.88632 21.791 8.39079 22 8.9168 22H15.0835C15.6095 22 16.114 21.791 16.4859 21.4191C16.8579 21.0471 17.0668 20.5427 17.0668 20.0167V19.4454C18.4816 19.1075 19.5335 17.8349 19.5335 16.3167V7.68333C19.5335 6.16505 18.4816 4.89246 17.0668 4.55457ZM15.5668 19.5333H8.43347V20.0167C8.43347 20.1449 8.48439 20.2678 8.57503 20.3584C8.66568 20.4491 8.78862 20.5 8.9168 20.5H15.0835C15.2117 20.5 15.3346 20.4491 15.4252 20.3584C15.5159 20.2678 15.5668 20.1449 15.5668 20.0167V19.5333ZM7.68347 5.96667C6.73538 5.96667 5.9668 6.73525 5.9668 7.68333V16.3167C5.9668 17.2648 6.73537 18.0333 7.68347 18.0333H16.3168C17.2649 18.0333 18.0335 17.2648 18.0335 16.3167V7.68333C18.0335 6.73525 17.2649 5.96667 16.3168 5.96667H7.68347ZM14.4668 8.16667C14.881 8.16667 15.2168 8.50245 15.2168 8.91667V14.3333H16.3168C16.731 14.3333 17.0668 14.6691 17.0668 15.0833C17.0668 15.4975 16.731 15.8333 16.3168 15.8333H12.0013C12.0009 15.8333 12.0005 15.8333 12.0001 15.8333C11.9997 15.8333 11.9993 15.8333 11.9989 15.8333H7.68347C7.26925 15.8333 6.93347 15.4975 6.93347 15.0833C6.93347 14.6691 7.26925 14.3333 7.68347 14.3333H8.78347V10.15C8.78347 9.73579 9.11926 9.4 9.53347 9.4C9.94768 9.4 10.2835 9.73579 10.2835 10.15V14.3333H11.2501V12C11.2501 11.5858 11.5859 11.25 12.0001 11.25C12.4144 11.25 12.7501 11.5858 12.7501 12V14.3333H13.7168V8.91667C13.7168 8.50245 14.0526 8.16667 14.4668 8.16667Z" fill="#1B1A16"/>
</svg>
16"/>
</svg>
