<svg width="24" height="24" viewBox="0 0 24 24" fill="none" xmlns="http://www.w3.org/2000/svg">
<path fill-rule="evenodd" clip-rule="evenodd" d="M11.9973 9.34193C10.9685 8.31311 9.30044 8.31311 8.27162 9.34193C7.2455 10.368 7.2428 12.03 8.26351 13.0595L10.9357 15.8875C11.5135 16.499 12.4865 16.499 13.0643 15.8875L15.7365 13.0595C16.7572 12.03 16.7545 10.368 15.7284 9.34193C14.6996 8.31311 13.0315 8.31311 12.0027 9.34193L12 9.34461L11.9973 9.34193ZM9.33228 10.4026C9.77532 9.95955 10.4936 9.95955 10.9367 10.4026L11.4697 10.9356C11.7626 11.2285 12.2374 11.2285 12.5303 10.9356L13.0633 10.4026C13.5064 9.95955 14.2247 9.95955 14.6677 10.4026C15.1108 10.8456 15.1108 11.5639 14.6677 12.007L14.6602 12.0146L14.6529 12.0222L12 14.8298L9.34709 12.0222C9.34222 12.017 9.33729 12.012 9.33228 12.007C8.88924 11.5639 8.88924 10.8456 9.33228 10.4026Z" fill="#1B1A16"/>
<path fill-rule="evenodd" clip-rule="evenodd" d="M6.75 3.75V4.54148C5.33114 4.77952 4.25 6.0135 4.25 7.5V16.5C4.25 17.9865 5.33114 19.2205 6.75 19.4585V20.25C6.75 21.2165 7.5335 22 8.5 22H15.5C16.4665 22 17.25 21.2165 17.25 20.25V19.4585C18.6689 19.2205 19.75 17.9865 19.75 16.5V7.5C19.75 6.0135 18.6689 4.77952 17.25 4.54148V3.75C17.25 2.7835 16.4665 2 15.5 2H8.5C7.5335 2 6.75 2.7835 6.75 3.75ZM8.5 3.5C8.36193 3.5 8.25 3.61193 8.25 3.75V4.5H15.75V3.75C15.75 3.61193 15.6381 3.5 15.5 3.5H8.5ZM15.75 19.5H8.25V20.25C8.25 20.3881 8.36193 20.5 8.5 20.5H15.5C15.6381 20.5 15.75 20.3881 15.75 20.25V19.5ZM5.75 7.5C5.75 6.67157 6.42157 6 7.25 6H16.75C17.5784 6 18.25 6.67157 18.25 7.5V16.5C18.25 17.3284 17.5784 18 16.75 18H7.25C6.42157 18 5.75 17.3284 5.75 16.5V7.5Z" fill="#1B1A16"/>
</svg>
