<svg width="24" height="24" viewBox="0 0 24 24" fill="none" xmlns="http://www.w3.org/2000/svg">
<path d="M21.544 13.68C21.321 13.373 21.026 13.121 20.693 12.952C20.356 12.779 19.984 12.697 19.6 12.689H16.693C16.279 12.689 15.943 13.025 15.943 13.439C15.943 13.853 16.279 14.189 16.693 14.189H19.603C19.774 14.219 19.885 14.222 20.011 14.288C20.135 14.35 20.245 14.445 20.328 14.56C20.41 14.672 20.465 14.807 20.486 14.948C20.507 15.09 20.495 15.232 20.447 15.376C20.119 16.398 19.585 17.321 18.858 18.116C18.199 18.835 17.385 19.423 16.498 19.834C15.344 19.277 14.321 18.47 13.512 17.475C14.173 16.885 14.598 16.037 14.598 15.083V8.91704C14.598 7.96404 14.173 7.11504 13.512 6.52604C14.322 5.53004 15.345 4.72204 16.5 4.16604C17.396 4.57904 18.19 5.15304 18.86 5.88504C19.577 6.66704 20.127 7.61504 20.453 8.63504C20.498 8.76904 20.51 8.91304 20.489 9.05104C20.468 9.19304 20.412 9.32704 20.329 9.44204C20.248 9.55604 20.138 9.65004 20.013 9.71404C19.885 9.77804 19.726 9.81504 19.603 9.81204H16.693C16.279 9.81204 15.943 10.148 15.943 10.562C15.943 10.976 16.279 11.312 16.693 11.312H19.602H19.606C19.981 11.312 20.357 11.222 20.695 11.05C21.033 10.877 21.328 10.623 21.548 10.318C21.768 10.013 21.914 9.65404 21.973 9.27804C22.03 8.90304 21.996 8.51604 21.88 8.16804C21.491 6.95304 20.829 5.81304 19.967 4.87204C19.093 3.91704 18.045 3.17904 16.853 2.67704C16.76 2.63804 16.662 2.61804 16.562 2.61804H16.415H16.414H16.412H8.453C8.345 2.61804 8.237 2.64104 8.139 2.68704C6.582 3.40704 5.231 4.51404 4.2 5.88104C2.926 6.30904 2 7.50004 2 8.91704V15.083C2 16.499 2.926 17.69 4.2 18.119C5.23 19.485 6.58 20.593 8.138 21.313C8.237 21.359 8.344 21.382 8.453 21.382H16.411H16.558C16.658 21.382 16.757 21.362 16.849 21.323C18.026 20.827 19.103 20.068 19.965 19.128C20.839 18.171 21.482 17.062 21.871 15.845C21.992 15.489 22.026 15.101 21.969 14.723C21.913 14.348 21.767 13.987 21.544 13.68ZM8.622 4.11804H13.787C13.183 4.61504 12.635 5.18204 12.157 5.80604C11.908 5.74404 11.652 5.70204 11.384 5.70204H6.368C7.036 5.06504 7.789 4.52104 8.622 4.11804ZM3.5 8.91704C3.5 7.97104 4.27 7.20104 5.216 7.20104H11.382C12.328 7.20104 13.098 7.97104 13.098 8.91704V15.083C13.098 16.029 12.328 16.799 11.382 16.799H5.216C4.27 16.799 3.5 16.029 3.5 15.083V8.91704ZM8.622 19.883C7.788 19.479 7.035 18.935 6.368 18.299H11.383C11.651 18.299 11.907 18.256 12.156 18.195C12.635 18.819 13.183 19.385 13.789 19.883H8.622Z" fill="#1B1A16"/>
</svg>
