<svg width="24" height="24" viewBox="0 0 24 24" fill="none" xmlns="http://www.w3.org/2000/svg">
<path fill-rule="evenodd" clip-rule="evenodd" d="M9.74005 2.046C9.10005 2.171 8.51505 2.688 8.27305 3.343C8.19205 3.561 8.18405 3.67 8.16905 4.682L8.15405 5.784L7.87305 5.88C7.44205 6.03502 7.04754 6.27704 6.71405 6.591C6.25605 7.023 5.97305 7.499 5.79105 8.14L5.70105 8.46V15.54L5.79105 15.86C5.96205 16.462 6.20105 16.883 6.61605 17.314C6.99205 17.704 7.44605 17.991 7.92705 18.141L8.15405 18.213L8.16905 19.316C8.18405 20.33 8.19205 20.439 8.27305 20.657C8.51705 21.317 9.08605 21.817 9.75205 21.956C10.043 22.017 13.957 22.017 14.248 21.956C14.5837 21.8807 14.895 21.7223 15.1534 21.4953C15.4118 21.2683 15.6091 20.9801 15.727 20.657C15.8081 20.439 15.816 20.33 15.831 19.316L15.846 18.213L16.073 18.141C16.5723 17.9792 17.023 17.6949 17.3841 17.314C17.7991 16.884 18.0421 16.452 18.2111 15.844C18.293 15.55 18.296 15.444 18.31 12.75C18.323 10.467 18.3161 9.957 18.2731 9.945C18.1692 9.92144 18.0649 9.90043 17.96 9.882C17.6123 9.81017 17.2736 9.70017 16.9501 9.554L16.8 9.478V12.371C16.8 15.468 16.7991 15.49 16.5961 15.887C16.4402 16.1519 16.2261 16.378 15.97 16.548C15.8375 16.6197 15.6986 16.6789 15.555 16.725C15.326 16.796 15.133 16.8 12 16.8C8.86705 16.8 8.67405 16.796 8.44505 16.725C8.30155 16.6789 8.16262 16.6197 8.03005 16.548C7.77396 16.378 7.5599 16.1519 7.40405 15.887C7.19905 15.487 7.20005 15.499 7.20005 12C7.20005 8.499 7.19905 8.514 7.40405 8.112C7.52205 7.881 7.84205 7.553 8.07305 7.428C8.49305 7.199 8.48105 7.2 11.629 7.2H14.522L14.463 7.086C14.304 6.779 14.08 6.04 14.08 5.823V5.72H9.68005V3.792L9.81605 3.656L9.95205 3.52H11.988C13.673 3.52 14.038 3.53 14.101 3.576C14.174 3.629 14.186 3.613 14.302 3.303C14.37 3.122 14.5111 2.815 14.614 2.62C14.7181 2.426 14.787 2.251 14.769 2.233C14.6831 2.18291 14.5923 2.14169 14.498 2.11C14.2631 2.021 14.232 2.02 12.1 2.014C10.83 2.01 9.85805 2.023 9.74005 2.046ZM14.32 19.257V20.194L14.217 20.316C14.149 20.3908 14.063 20.447 13.967 20.479C13.769 20.534 10.231 20.534 10.033 20.479C9.93714 20.447 9.85107 20.3908 9.78305 20.316L9.68005 20.194V18.32H14.32V19.257Z" fill="#1B1A16"/>
<path d="M15 5C15 2.79086 16.7909 1 19 1C21.2091 1 23 2.79086 23 5C23 7.20914 21.2091 9 19 9C16.7909 9 15 7.20914 15 5Z" fill="#D3273E"/>
</svg>
909 1 19 1C21.2091 1 23 2.79086 23 5C23 7.20914 21.2091 9 19 9C16.7909 9 15 7.20914 15 5Z" fill="#D3273E"/>
</svg>
