<svg width="24" height="24" viewBox="0 0 24 24" fill="none" xmlns="http://www.w3.org/2000/svg">
<path d="M17.066 4.564V3.983C17.066 3.452 16.859 2.953 16.486 2.582C16.118 2.212 15.607 2 15.084 2H8.91698C8.38698 2 7.88898 2.207 7.51398 2.582C7.13998 2.957 6.93398 3.455 6.93398 3.984V4.565C5.52198 4.905 4.46698 6.17 4.46698 7.685V16.318C4.46698 17.832 5.52198 19.097 6.93398 19.437V20.018C6.93398 20.547 7.13998 21.045 7.51498 21.42C7.88998 21.795 8.38698 22 8.91698 22H15.084C15.607 22 16.118 21.788 16.484 21.42C16.859 21.046 17.066 20.548 17.066 20.017V19.436C18.477 19.096 19.533 17.831 19.533 16.317V7.684C19.533 6.169 18.478 4.904 17.066 4.564ZM8.43398 3.983C8.43398 3.854 8.48398 3.733 8.57498 3.641C8.66498 3.552 8.78998 3.5 8.91698 3.5H15.084C15.211 3.5 15.335 3.551 15.426 3.643C15.517 3.733 15.567 3.854 15.567 3.984V4.467H8.43398V3.983ZM15.566 20.017C15.566 20.147 15.516 20.267 15.423 20.36C15.334 20.45 15.21 20.501 15.083 20.501H8.91698C8.78998 20.501 8.66498 20.449 8.57498 20.36C8.48398 20.268 8.43298 20.146 8.43298 20.017V19.534H15.566V20.017ZM18.033 16.316C18.033 17.262 17.262 18.033 16.316 18.033H7.68398C6.73698 18.033 5.96698 17.262 5.96698 16.316V7.684C5.96698 6.737 6.73698 5.967 7.68398 5.967H16.317C17.263 5.967 18.034 6.737 18.034 7.684L18.033 16.316Z" fill="#1B1A16"/>
<path d="M15.646 10.7L10.887 8.32C10.686 8.22 10.471 8.123 10.171 8.169C9.92598 8.179 9.68398 8.254 9.47398 8.384C9.26398 8.513 9.08898 8.696 8.96598 8.915C8.84798 9.129 8.78398 9.373 8.78298 9.621V14.382C8.78398 14.627 8.84698 14.87 8.96998 15.092C9.09098 15.306 9.26398 15.487 9.47598 15.618C9.68698 15.748 9.92898 15.821 10.169 15.831C10.181 15.832 10.228 15.833 10.24 15.833C10.461 15.833 10.683 15.781 10.888 15.681L15.646 13.3C15.888 13.179 16.09 12.994 16.235 12.764C16.375 12.534 16.45 12.27 16.45 12C16.45 11.73 16.375 11.466 16.232 11.234C16.089 11.004 15.886 10.819 15.646 10.7ZM10.282 14.307L10.217 9.662L14.975 11.958L10.282 14.307Z" fill="#1B1A16"/>
</svg>
