<svg width="24" height="24" viewBox="0 0 24 24" fill="none" xmlns="http://www.w3.org/2000/svg">
<path d="M16.933 5.699H16.334L15.994 3.652C15.916 3.191 15.676 2.77 15.317 2.467C14.96 2.166 14.506 2 14.038 2H9.96198C9.49398 2 9.03898 2.166 8.68198 2.468C8.32498 2.77 8.08398 3.19 8.00498 3.655L7.66498 5.699H7.06698C5.97298 5.699 5.08398 6.589 5.08398 7.682V16.314C5.08398 17.408 5.97398 18.297 7.06698 18.297H7.66498L8.00498 20.343C8.08298 20.806 8.32198 21.227 8.67998 21.531C9.03898 21.833 9.49398 22 9.96198 22H14.038C14.507 22 14.962 21.833 15.318 21.531C15.677 21.228 15.918 20.806 15.995 20.343L16.335 18.298H16.933C18.027 18.298 18.916 17.408 18.916 16.315V7.683C18.916 6.589 18.026 5.699 16.933 5.699ZM9.48398 3.903C9.50398 3.79 9.56198 3.687 9.64898 3.614C9.73598 3.541 9.84798 3.5 9.96198 3.5H14.038C14.152 3.5 14.263 3.541 14.35 3.614C14.437 3.688 14.496 3.79 14.514 3.901L14.814 5.699H9.18598L9.48398 3.903ZM14.515 20.097C14.496 20.209 14.439 20.312 14.351 20.386C14.264 20.459 14.153 20.5 14.039 20.5H9.96198C9.84798 20.5 9.73598 20.459 9.64898 20.386C9.56198 20.312 9.50398 20.209 9.48498 20.097L9.18598 18.298H14.815L14.515 20.097ZM17.416 16.314C17.416 16.581 17.199 16.797 16.933 16.797H15.7H8.29998H7.06698C6.79998 16.797 6.58398 16.58 6.58398 16.314V7.683C6.58398 7.416 6.80098 7.2 7.06698 7.2H8.29698C8.29798 7.2 8.29798 7.2 8.29898 7.2H15.698C15.706 7.201 15.714 7.2 15.718 7.2C15.719 7.2 15.72 7.2 15.72 7.2H16.932C17.199 7.2 17.415 7.417 17.415 7.683L17.416 16.314Z" fill="#1B1A16"/>
</svg>
