<svg width="24" height="24" viewBox="0 0 24 24" fill="none" xmlns="http://www.w3.org/2000/svg">
<path fill-rule="evenodd" clip-rule="evenodd" d="M8.9168 3.5C8.78861 3.5 8.66568 3.55092 8.57503 3.64157C8.48439 3.73221 8.43347 3.85515 8.43347 3.98333V4.46667H15.5668V3.98333C15.5668 3.85515 15.5159 3.73221 15.4252 3.64157C15.3346 3.55092 15.2117 3.5 15.0835 3.5H8.9168ZM17.0668 4.55457V3.98333C17.0668 3.45732 16.8579 2.95285 16.4859 2.5809C16.114 2.20896 15.6095 2 15.0835 2H8.9168C8.39079 2 7.88632 2.20896 7.51437 2.5809C7.14243 2.95285 6.93347 3.45732 6.93347 3.98333L6.93347 4.55457C5.51869 4.89246 4.4668 6.16505 4.4668 7.68333V16.3167C4.4668 17.8349 5.51869 19.1075 6.93347 19.4454L6.93347 20.0167C6.93347 20.5427 7.14243 21.0471 7.51437 21.4191C7.88632 21.791 8.39079 22 8.9168 22H15.0835C15.6095 22 16.114 21.791 16.4859 21.4191C16.8579 21.0471 17.0668 20.5427 17.0668 20.0167V19.4454C18.4816 19.1075 19.5335 17.8349 19.5335 16.3167V7.68333C19.5335 6.16505 18.4816 4.89246 17.0668 4.55457ZM15.5668 19.5333H8.43347V20.0167C8.43347 20.1449 8.48439 20.2678 8.57503 20.3584C8.66568 20.4491 8.78862 20.5 8.9168 20.5H15.0835C15.2117 20.5 15.3346 20.4491 15.4252 20.3584C15.5159 20.2678 15.5668 20.1449 15.5668 20.0167V19.5333ZM7.68347 5.96667C6.73538 5.96667 5.9668 6.73525 5.9668 7.68333V16.3167C5.9668 17.2648 6.73537 18.0333 7.68347 18.0333H16.3168C17.2649 18.0333 18.0335 17.2648 18.0335 16.3167V7.68333C18.0335 6.73525 17.2649 5.96667 16.3168 5.96667H7.68347ZM13.3689 7.60942C13.6613 7.53628 13.9665 7.53074 14.2613 7.59323C14.5562 7.65571 14.8329 7.78458 15.0705 7.97004C15.3081 8.1555 15.5003 8.39268 15.6325 8.66354C15.7647 8.93441 15.8334 9.23185 15.8335 9.53325L15.8335 13.5038C15.8335 14.5992 14.9455 15.4872 13.8501 15.4872C12.7548 15.4872 11.8668 14.5992 11.8668 13.5038C11.8668 12.4085 12.7548 11.5205 13.8501 11.5205C14.0169 11.5205 14.1788 11.5411 14.3335 11.5798L14.3335 9.53342C14.3335 9.53339 14.3335 9.53344 14.3335 9.53342C14.3335 9.45999 14.3167 9.38745 14.2845 9.32147C14.2523 9.25546 14.2054 9.19766 14.1475 9.15247C14.0896 9.10727 14.0222 9.07586 13.9503 9.06064C13.8785 9.04541 13.8041 9.04676 13.7329 9.06458L11.2662 9.68125C11.1616 9.7074 11.0688 9.76775 11.0025 9.85269C10.9362 9.93762 10.9002 10.0423 10.9001 10.15C10.9001 10.15 10.9001 10.15 10.9001 10.15V14.7372C10.9001 15.8325 10.0122 16.7205 8.9168 16.7205C7.82144 16.7205 6.93347 15.8325 6.93347 14.7372C6.93347 13.6418 7.82144 12.7538 8.9168 12.7538C9.08352 12.7538 9.24543 12.7744 9.40014 12.8132V10.15C9.40019 9.70777 9.54803 9.27816 9.82018 8.92959C10.0923 8.58102 10.4732 8.3334 10.9022 8.22608L13.3689 7.60942ZM9.40014 14.7372C9.40014 14.4702 9.18374 14.2538 8.9168 14.2538C8.64986 14.2538 8.43347 14.4702 8.43347 14.7372C8.43347 15.0041 8.64986 15.2205 8.9168 15.2205C9.18374 15.2205 9.40014 15.0041 9.40014 14.7372ZM14.3335 13.5038C14.3335 13.2369 14.1171 13.0205 13.8501 13.0205C13.5832 13.0205 13.3668 13.2369 13.3668 13.5038C13.3668 13.7708 13.5832 13.9872 13.8501 13.9872C14.1171 13.9872 14.3335 13.7708 14.3335 13.5038Z" fill="#1B1A16"/>
</svg>
6"/>
</svg>
