<svg width="24" height="24" viewBox="0 0 24 24" fill="none" xmlns="http://www.w3.org/2000/svg">
<path fill-rule="evenodd" clip-rule="evenodd" d="M8.91674 3.5C8.78855 3.5 8.66561 3.55092 8.57497 3.64157C8.48433 3.73221 8.43341 3.85515 8.43341 3.98333V4.46667H15.5668V3.98333C15.5668 3.85515 15.5158 3.73221 15.4252 3.64157C15.3345 3.55092 15.2116 3.5 15.0834 3.5H8.91674ZM17.0668 4.55457V3.98333C17.0668 3.45732 16.8578 2.95285 16.4858 2.5809C16.1139 2.20896 15.6094 2 15.0834 2H8.91674C8.39073 2 7.88626 2.20896 7.51431 2.5809C7.14236 2.95285 6.93341 3.45732 6.93341 3.98333L6.93341 4.55457C5.51863 4.89246 4.46674 6.16505 4.46674 7.68333V16.3167C4.46674 17.8349 5.51863 19.1075 6.93341 19.4454L6.93341 20.0167C6.93341 20.5427 7.14236 21.0471 7.51431 21.4191C7.88626 21.791 8.39073 22 8.91674 22H15.0834C15.6094 22 16.1139 21.791 16.4858 21.4191C16.8578 21.0471 17.0668 20.5427 17.0668 20.0167V19.4454C18.4815 19.1075 19.5334 17.8349 19.5334 16.3167V7.68333C19.5334 6.16505 18.4815 4.89246 17.0668 4.55457ZM15.5668 19.5333H8.43341V20.0167C8.43341 20.1449 8.48433 20.2678 8.57497 20.3584C8.66562 20.4491 8.78856 20.5 8.91674 20.5H15.0834C15.2116 20.5 15.3345 20.4491 15.4252 20.3584C15.5158 20.2678 15.5668 20.1449 15.5668 20.0167V19.5333ZM7.68341 5.96667C6.73531 5.96667 5.96674 6.73525 5.96674 7.68333V16.3167C5.96674 17.2648 6.73531 18.0333 7.68341 18.0333H16.3168C17.2648 18.0333 18.0334 17.2648 18.0334 16.3167V7.68333C18.0334 6.73525 17.2648 5.96667 16.3168 5.96667H7.68341ZM8.98917 8.71669C9.27691 8.59342 9.58668 8.52986 9.89971 8.52986C10.2127 8.52986 10.5225 8.59342 10.8102 8.71669C11.097 8.83956 11.356 9.0192 11.5715 9.24477L12.0001 9.68786L12.4286 9.24477C12.6442 9.0192 12.9031 8.83956 13.1899 8.71669C13.4776 8.59342 13.7874 8.52986 14.1004 8.52986C14.4135 8.52986 14.7233 8.59342 15.011 8.71669C15.2985 8.83987 15.558 9.0201 15.7739 9.24648C16.2079 9.70109 16.4501 10.3055 16.4501 10.934C16.4501 11.5625 16.2079 12.1669 15.7739 12.6215L15.7706 12.625L12.8851 15.609C12.7711 15.728 12.6342 15.8228 12.4827 15.8876C12.3302 15.9529 12.166 15.9866 12.0001 15.9866C11.8342 15.9866 11.67 15.9529 11.5175 15.8876C11.366 15.8228 11.2291 15.728 11.1151 15.609L8.22626 12.6215C7.79223 12.1669 7.55007 11.5625 7.55007 10.934C7.55007 10.3055 7.79218 9.70126 8.22609 9.24667M9.89971 10.0299C9.78975 10.0299 9.68094 10.0522 9.57986 10.0955C9.47879 10.1388 9.38756 10.2022 9.3117 10.2818C9.14408 10.4573 9.05007 10.6913 9.05007 10.934C9.05007 11.176 9.14308 11.4088 9.30981 11.5842L12.0001 14.3664L14.6904 11.5842C14.8571 11.4088 14.9501 11.176 14.9501 10.934C14.9501 10.6913 14.8566 10.4578 14.6889 10.2823C14.6131 10.2027 14.5214 10.1388 14.4203 10.0955C14.3192 10.0522 14.2104 10.0299 14.1004 10.0299C13.9905 10.0299 13.8817 10.0522 13.7806 10.0955C13.6795 10.1388 13.5883 10.2022 13.5124 10.2818L13.5086 10.2858L12.5392 11.2881C12.3979 11.4342 12.2033 11.5167 12.0001 11.5167C11.7968 11.5167 11.6023 11.4342 11.461 11.2881L10.4877 10.2818C10.4118 10.2022 10.3206 10.1388 10.2196 10.0955C10.1185 10.0522 10.0097 10.0299 9.89971 10.0299ZM8.98917 8.71669C8.70165 8.83987 8.44194 9.02029 8.22609 9.24667L8.98917 8.71669Z" fill="#1B1A16"/>
</svg>
