<svg width="24" height="24" viewBox="0 0 24 24" fill="none" xmlns="http://www.w3.org/2000/svg">
<path fill-rule="evenodd" clip-rule="evenodd" d="M19 8C20.66 8 22 9.34 22 11C22 11.88 21.61 12.67 21 13.22V18C21 18.5523 20.5523 19 20 19H17.75V19.25C17.75 19.6642 17.4142 20 17 20C16.5858 20 16.25 19.6642 16.25 19.25V19H7.75V19.25C7.75 19.6642 7.41421 20 7 20C6.58579 20 6.25 19.6642 6.25 19.25V19H4C3.44772 19 3 18.5523 3 18V13.22C2.39 12.67 2 11.89 2 11C2 9.34 3.34 8 5 8V5C5 4.44772 5.44772 4 6 4H18C18.5523 4 19 4.44772 19 5V8ZM6.5 8.39985C7.39749 8.91766 8 9.88689 8 11V14H16V11C16 9.88689 16.6025 8.91766 17.5 8.39985V5.5H6.5V8.39985ZM20.5 11C20.5 10.17 19.83 9.5 19 9.5C18.17 9.5 17.5 10.17 17.5 11V14.5C17.5 15.0523 17.0523 15.5 16.5 15.5H7.5C6.94772 15.5 6.5 15.0523 6.5 14.5V11C6.5 10.17 5.83 9.5 5 9.5C4.17 9.5 3.5 10.17 3.5 11C3.5 11.42 3.68 11.81 4 12.11L4.5 12.56V17.51H19.5V12.56L20 12.11C20.32 11.81 20.5 11.42 20.5 11Z" fill="#1B1A16"/>
</svg>
