<svg width="24" height="24" viewBox="0 0 24 24" fill="none" xmlns="http://www.w3.org/2000/svg">
<path d="M10.15 9.09167C9.62395 9.09167 9.11948 9.30063 8.74753 9.67258C8.37558 10.0445 8.16663 10.549 8.16663 11.075V12.3083C8.16663 12.7226 8.50241 13.0583 8.91663 13.0583C9.33084 13.0583 9.66663 12.7226 9.66663 12.3083V11.075C9.66663 10.9468 9.71755 10.8239 9.80819 10.7332C9.89883 10.6426 10.0218 10.5917 10.15 10.5917H13.85C13.9781 10.5917 14.1011 10.6426 14.1917 10.7332C14.2824 10.8239 14.3333 10.9468 14.3333 11.075V12.3083C14.3333 12.7226 14.6691 13.0583 15.0833 13.0583C15.4975 13.0583 15.8333 12.7226 15.8333 12.3083V11.075C15.8333 10.549 15.6243 10.0445 15.2524 9.67258C14.8804 9.30063 14.376 9.09167 13.85 9.09167H10.15Z" fill="#1B1A16"/>
<path fill-rule="evenodd" clip-rule="evenodd" d="M15.4352 3.54163C16.2036 3.54146 16.9468 3.81641 17.5301 4.31672C18.1134 4.81707 18.4984 5.50975 18.6152 6.26936L18.6172 6.28375L19.1603 10.3361C19.2396 10.3288 19.3196 10.3251 19.4 10.3251C20.0896 10.3251 20.7509 10.599 21.2385 11.0866C21.7261 11.5742 22 12.2355 22 12.9251C21.9983 14.5952 21.334 16.1972 20.1531 17.3782C19.7838 17.7475 19.3733 18.0663 18.9325 18.3301L19.4541 19.3728C19.6395 19.7433 19.4894 20.1938 19.1189 20.3791C18.7485 20.5644 18.2979 20.4143 18.1126 20.0439L17.5615 18.9423C16.9643 19.1275 16.3375 19.2244 15.7008 19.2251H8.3C7.66311 19.2244 7.03612 19.1274 6.43861 18.9422L5.88747 20.0439C5.70216 20.4143 5.25163 20.5644 4.88118 20.3791C4.51073 20.1938 4.36065 19.7433 4.54596 19.3728L5.0676 18.3301C4.62672 18.0663 4.21623 17.7475 3.84691 17.3782C2.66595 16.1972 2.00173 14.596 2 12.9259C2 12.2363 2.27393 11.5742 2.76152 11.0866C3.24912 10.599 3.91044 10.3251 4.6 10.3251C4.68115 10.3251 4.7619 10.3289 4.84203 10.3364L5.38509 6.28375L5.38716 6.26936C5.50395 5.50993 5.88872 4.8174 6.47185 4.31706C7.05498 3.81673 7.79794 3.54166 8.5663 3.54163H15.4352ZM18.905 11.9428C18.891 11.9508 18.8768 11.9583 18.8623 11.9655C18.7751 12.0143 18.6941 12.0753 18.6222 12.1473C18.4159 12.3535 18.3 12.6333 18.3 12.9251C18.2994 13.6143 18.0253 14.2757 17.538 14.7631C17.0507 15.2504 16.3899 15.5245 15.7007 15.5251H8.3C7.6108 15.5245 6.94934 15.2504 6.462 14.7631C5.97467 14.2757 5.70061 13.6149 5.7 12.9257C5.7 12.634 5.58411 12.3535 5.37782 12.1473C5.17153 11.941 4.89174 11.8251 4.6 11.8251C4.30826 11.8251 4.02847 11.941 3.82218 12.1473C3.61597 12.3535 3.50009 12.6331 3.5 12.9247C3.50143 14.1974 4.00764 15.4176 4.90757 16.3175C5.8075 17.2174 7.02765 17.7236 8.30033 17.7251L15.6992 17.7251C16.9719 17.7236 18.1925 17.2174 19.0924 16.3175C19.9924 15.4175 20.4986 14.1972 20.5 12.9245C20.4998 12.6329 20.384 12.3534 20.1778 12.1473C19.9715 11.941 19.6917 11.8251 19.4 11.8251C19.2264 11.8251 19.0571 11.8661 18.905 11.9428ZM17.1316 6.49082L17.7271 10.9347C17.67 10.9828 17.6147 11.0334 17.5615 11.0866C17.0741 11.574 16.8002 12.2351 16.8 12.9244C16.7997 13.2162 16.6837 13.4961 16.4773 13.7024C16.271 13.9087 15.9911 14.0248 15.6993 14.0251L8.30043 14.0251C8.00868 14.0248 7.72897 13.9087 7.52266 13.7024C7.3163 13.4961 7.20026 13.2162 7.2 12.9244C7.19982 12.2351 6.92591 11.574 6.43848 11.0866C6.38594 11.0341 6.3314 10.984 6.27501 10.9365L6.87075 6.49083C6.93427 6.0881 7.13908 5.72104 7.44861 5.45546C7.7598 5.18845 8.15633 5.04165 8.56637 5.04163L15.4354 5.04163C15.8455 5.04151 16.2422 5.18825 16.5535 5.45527C16.8632 5.72087 17.068 6.08799 17.1316 6.49082Z" fill="#1B1A16"/>
</svg>
