<svg width="24" height="24" viewBox="0 0 24 24" fill="none" xmlns="http://www.w3.org/2000/svg">
<path fill-rule="evenodd" clip-rule="evenodd" d="M12.0933 2.42522C12.3219 2.19662 12.6675 2 13.0758 2H19.6536C20.062 2 20.4075 2.19662 20.6361 2.42522C20.8647 2.65381 21.0614 2.9994 21.0614 3.40777V7.52559L21.9024 9.43677C21.9118 9.45801 21.9201 9.47967 21.9275 9.50169C22.1049 10.034 21.9162 10.5088 21.8045 10.732C21.7906 10.7599 21.775 10.7868 21.7578 10.8127C21.6343 10.9979 21.4713 11.1813 21.241 11.3092C21.0057 11.4399 20.7675 11.4755 20.5582 11.4755H12.1715C11.9622 11.4755 11.724 11.4399 11.4887 11.3092C11.2584 11.1813 11.0954 10.9979 10.9719 10.8127C10.9547 10.7868 10.939 10.7599 10.9251 10.732C10.8135 10.5088 10.6248 10.034 10.8022 9.50169C10.8096 9.4797 10.8179 9.45806 10.8272 9.43684L11.668 7.52563V3.40777C11.668 2.9994 11.8647 2.65381 12.0933 2.42522ZM12.9075 8.43331L12.2319 9.96881C12.2324 9.9709 12.2329 9.97314 12.2335 9.97552H20.4962C20.4968 9.97314 20.4973 9.97091 20.4977 9.96882L19.822 8.43331H12.9075ZM19.5614 6.93331V3.5H13.168V6.93331H19.5614ZM3.36141 12.629C2.58114 12.8977 2 13.6517 2 14.5077V17.3855C2 18.9382 3.03125 20.1923 4.46666 20.519V21.25C4.46666 21.6642 4.80245 22 5.21666 22C5.63088 22 5.96666 21.6642 5.96666 21.25V20.6022H18.0333V21.25C18.0333 21.6642 18.3691 22 18.7833 22C19.1975 22 19.5333 21.6642 19.5333 21.25V20.5169C20.9641 20.1871 21.991 18.935 21.991 17.3855V14.545C22.0401 14.0016 21.8848 13.4826 21.5172 13.0965C21.1451 12.7056 20.6262 12.5244 20.0905 12.5244C19.0185 12.5244 18.1077 13.4361 18.1077 14.5077V15.6488H12.75V13.6855C12.75 13.2713 12.4142 12.9355 12 12.9355C11.5858 12.9355 11.25 13.2713 11.25 13.6855V15.6488H5.96547V14.5077C5.96547 13.7494 5.50947 13.0712 4.86299 12.7395C5.11137 11.3577 6.30714 10.3245 7.76559 10.3245H8.99892C9.41313 10.3245 9.74892 9.98866 9.74892 9.57445C9.74892 9.16024 9.41313 8.82445 8.99892 8.82445H7.76559C5.51518 8.82445 3.67119 10.4685 3.36141 12.629ZM18.7823 19.1021C19.7615 19.0988 20.491 18.3672 20.491 17.3855V14.5077C20.491 14.4801 20.4925 14.4524 20.4956 14.4249C20.5156 14.2448 20.4638 14.1654 20.4307 14.1307C20.3919 14.0899 20.2944 14.0244 20.0905 14.0244C19.8476 14.0244 19.6077 14.2639 19.6077 14.5077V15.7411C19.6077 16.421 19.0859 17.1488 18.2003 17.1488H5.87294C5.19241 17.1488 4.46547 16.6262 4.46547 15.7411V14.5077C4.46547 14.2638 4.22564 14.0244 3.98274 14.0244C3.73983 14.0244 3.5 14.2638 3.5 14.5077V17.3855C3.5 18.3685 4.2316 19.1008 5.2128 19.1022L5.21666 19.1021L5.22085 19.1022H18.7756C18.7778 19.1022 18.7801 19.1022 18.7823 19.1021Z" fill="#1B1A16"/>
</svg>
