<svg width="24" height="24" viewBox="0 0 24 24" fill="none" xmlns="http://www.w3.org/2000/svg">
<path fill-rule="evenodd" clip-rule="evenodd" d="M8.79905 3.84985L15.1998 3.84985C15.1998 3.84985 15.1999 3.84985 15.1998 3.84985C15.6918 3.84977 16.1664 4.0325 16.5311 4.36257C16.8959 4.69265 17.125 5.14652 17.1739 5.63602C17.1739 5.63597 17.1739 5.63607 17.1739 5.63602L18.1337 15.2307L19.9026 14.9586C19.9404 14.9528 19.9785 14.9499 20.0167 14.9499C20.5427 14.9499 21.0471 15.1588 21.4191 15.5308C21.791 15.9027 22 16.4072 22 16.9332C22 17.4592 21.791 17.9637 21.4191 18.3356C21.0623 18.6924 20.5835 18.8993 20.0807 18.9155L12.114 20.1411C12.0385 20.1528 11.9615 20.1528 11.886 20.1411L3.91926 18.9155C3.4165 18.8993 2.93772 18.6924 2.5809 18.3356C2.20896 17.9637 2 17.4592 2 16.9332C2 16.4072 2.20896 15.9027 2.5809 15.5308C2.95285 15.1588 3.45732 14.9499 3.98333 14.9499C4.02151 14.9499 4.05964 14.9528 4.09738 14.9586L5.86625 15.2307L6.826 5.63618C6.826 5.63623 6.82601 5.63613 6.826 5.63618C6.87489 5.14689 7.10379 4.69306 7.46829 4.36301C7.83282 4.03293 8.30728 3.85004 8.79905 3.84985ZM7.35088 15.4591L12 16.1744L16.649 15.4591L16.378 12.7499H7.6219L7.35088 15.4591ZM7.77194 11.2499H16.228L15.6814 5.78533C15.6694 5.66602 15.6136 5.55525 15.5247 5.4748C15.4358 5.39435 15.3202 5.34982 15.2003 5.34985H8.79934C8.6796 5.34997 8.56387 5.39453 8.47511 5.47491C8.38627 5.55535 8.33049 5.66593 8.31858 5.78518L7.77194 11.2499ZM3.93913 16.4519C3.82716 16.4622 3.72173 16.5113 3.64157 16.5914C3.55092 16.6821 3.5 16.805 3.5 16.9332C3.5 17.0614 3.55092 17.1843 3.64157 17.275C3.73221 17.3656 3.85515 17.4165 3.98333 17.4165C4.02151 17.4165 4.05964 17.4194 4.09738 17.4252L12 18.641L19.9026 17.4252C19.9404 17.4194 19.9785 17.4165 20.0167 17.4165C20.1449 17.4165 20.2678 17.3656 20.3584 17.275C20.4491 17.1843 20.5 17.0614 20.5 16.9332C20.5 16.805 20.4491 16.6821 20.3584 16.5914C20.2783 16.5113 20.1728 16.4622 20.0609 16.4519L12.114 17.6745C12.0385 17.6861 11.9615 17.6861 11.886 17.6745L3.93913 16.4519Z" fill="#1B1A16"/>
</svg>
