<svg width="24" height="24" viewBox="0 0 24 24" fill="none" xmlns="http://www.w3.org/2000/svg">
<path fill-rule="evenodd" clip-rule="evenodd" d="M8.76891 6.31653C8.76883 6.31653 8.76899 6.31653 8.76891 6.31653H14.4667C14.8809 6.31653 15.2167 6.65231 15.2167 7.06653C15.2167 7.48074 14.8809 7.81653 14.4667 7.81653H8.76867C8.65255 7.81646 8.53997 7.85891 8.45302 7.93587C8.36607 8.01284 8.31031 8.11897 8.29629 8.23424L8.29596 8.23692L7.76368 12.4832H13.941C13.9553 11.8348 14.0665 11.1905 14.2722 10.5722C14.5644 9.69407 15.0406 8.88841 15.6689 8.20902C16.2086 7.59381 16.8864 7.11516 17.6469 6.81232C18.4108 6.50808 19.2362 6.39002 20.0548 6.4679C20.4102 6.50171 20.6925 6.78133 20.7297 7.13638C20.8264 8.05892 20.7246 8.99147 20.4313 9.87146C20.1393 10.7475 19.6641 11.5514 19.0374 12.2295C18.4991 12.8468 17.8218 13.3276 17.0614 13.6321C16.3084 13.9336 15.4952 14.0538 14.6876 13.9832H7.57565L7.29988 16.1832H16.7004L16.6085 15.4475C16.5571 15.0365 16.8486 14.6617 17.2596 14.6103C17.6707 14.5589 18.0455 14.8505 18.0969 15.2615L18.2121 16.1832H21.25C21.6642 16.1832 22 16.5189 22 16.9332C22 17.3474 21.6642 17.6832 21.25 17.6832H2.75C2.33579 17.6832 2 17.3474 2 16.9332C2 16.5189 2.33579 16.1832 2.75 16.1832H5.78814L6.16079 13.2103C6.16225 13.1618 6.16831 13.1144 6.17855 13.0687L6.80727 8.05303C6.80733 8.05253 6.80739 8.05203 6.80746 8.05152C6.86607 7.57292 7.09775 7.13227 7.45883 6.81267C7.82018 6.49283 8.28636 6.31635 8.76891 6.31653ZM15.4413 12.4903C15.8048 12.4602 16.163 12.376 16.5038 12.2396C17.0465 12.0222 17.5295 11.6785 17.9127 11.237C17.9181 11.2307 17.9237 11.2245 17.9293 11.2184C18.4147 10.6952 18.7826 10.0742 19.0083 9.39711C19.1637 8.93098 19.2492 8.44568 19.2631 7.95693C18.9002 7.9867 18.5424 8.07025 18.2019 8.20588C17.6591 8.42205 17.1755 8.7643 16.7911 9.20435C16.7862 9.21002 16.7811 9.21562 16.776 9.22114C16.2897 9.74521 15.9212 10.3674 15.6955 11.0458C15.5399 11.5133 15.4546 12.0001 15.4413 12.4903Z" fill="#1B1A16"/>
</svg>
