<svg width="24" height="24" viewBox="0 0 24 24" fill="none" xmlns="http://www.w3.org/2000/svg">
<path d="M21.531 15.133C21.262 14.664 20.885 14.256 20.439 13.951C20.098 13.716 19.631 13.805 19.397 14.147C19.164 14.489 19.251 14.956 19.593 15.189C19.853 15.367 20.072 15.605 20.229 15.877C20.386 16.151 20.48 16.462 20.5 16.724C20.5 18.411 17.01 20.29 12 20.29C6.99 20.29 3.5 18.41 3.498 16.775C3.52 16.456 3.612 16.154 3.77 15.877C3.927 15.604 4.146 15.366 4.406 15.189C4.748 14.956 4.836 14.49 4.603 14.147C4.369 13.804 3.903 13.716 3.561 13.951C3.115 14.255 2.738 14.664 2.469 15.133C2.201 15.601 2.039 16.133 2 16.725C2 19.566 6.393 21.791 12 21.791C17.607 21.791 22 19.565 21.998 16.674C21.962 16.137 21.801 15.604 21.531 15.133Z" fill="#1B1A16"/>
<path d="M6.45 17.475C6.864 17.475 7.2 17.139 7.2 16.725V15.77C8.337 16.446 10.034 16.862 12 16.862C13.966 16.862 15.663 16.446 16.799 15.77V16.724C16.799 17.138 17.135 17.474 17.549 17.474C17.963 17.474 18.299 17.138 18.299 16.724V13.024C18.299 12.61 17.963 12.274 17.549 12.274C17.135 12.274 16.799 12.61 16.799 13.024V13.645C16.799 14.329 14.885 15.362 12 15.362C9.115 15.362 7.2 14.329 7.2 13.645V10.559C7.2 9.66402 7.45 8.78902 7.921 8.03002C8.393 7.27002 9.066 6.65802 9.867 6.26002C10.238 6.07602 10.389 5.62602 10.205 5.25502C10.021 4.88302 9.573 4.73202 9.2 4.91602C8.148 5.43802 7.266 6.24002 6.646 7.23802C6.028 8.23502 5.7 9.38302 5.7 10.558V16.725C5.7 17.139 6.036 17.475 6.45 17.475Z" fill="#1B1A16"/>
<path d="M12.543 8.40702C12.731 8.50102 13.049 8.65702 13.094 8.69102C13.132 8.80002 13.111 9.16802 13.098 9.38802C13.06 10.04 13.007 10.933 13.722 11.352C13.898 11.454 14.094 11.506 14.304 11.506C14.807 11.506 15.259 11.21 15.697 10.923C15.889 10.797 16.213 10.586 16.301 10.567C16.422 10.586 16.744 10.797 16.938 10.923C17.376 11.21 17.828 11.506 18.331 11.506C18.542 11.506 18.737 11.454 18.913 11.353C19.629 10.939 19.576 10.045 19.537 9.39202C19.524 9.17202 19.503 8.80302 19.514 8.74002C19.588 8.65802 19.905 8.50102 20.093 8.40802C20.69 8.11202 21.507 7.70702 21.507 6.85902C21.507 6.01102 20.69 5.60602 20.094 5.31102C19.905 5.21702 19.588 5.06002 19.542 5.02502C19.503 4.91502 19.524 4.54702 19.537 4.32702C19.576 3.67502 19.628 2.78302 18.914 2.36402C18.738 2.26202 18.542 2.21002 18.331 2.21002C17.829 2.21002 17.376 2.50602 16.939 2.79202C16.746 2.91802 16.422 3.13002 16.333 3.14802C16.213 3.12902 15.89 2.91802 15.697 2.79202C15.259 2.50602 14.807 2.21002 14.304 2.21002C14.094 2.21002 13.898 2.26202 13.723 2.36302C13.007 2.77702 13.06 3.67202 13.098 4.32602C13.111 4.54602 13.132 4.91402 13.123 4.97602C13.048 5.05902 12.731 5.21502 12.543 5.30902C11.945 5.60502 11.128 6.01002 11.128 6.85802C11.128 7.70602 11.946 8.11102 12.543 8.40702ZM13.208 6.65302C13.673 6.42302 14.154 6.18402 14.403 5.75302C14.658 5.31202 14.626 4.76602 14.594 4.23802C14.588 4.13102 14.579 3.98902 14.577 3.85802C14.681 3.92102 14.79 3.99302 14.873 4.04702C15.324 4.34202 15.791 4.64702 16.315 4.64702C16.84 4.64702 17.306 4.34202 17.757 4.04702C17.841 3.99202 17.951 3.92002 18.055 3.85602C18.052 3.98702 18.043 4.13002 18.037 4.23802C18.006 4.76602 17.974 5.31202 18.229 5.75302C18.478 6.18502 18.958 6.42302 19.424 6.65302C19.535 6.70902 19.689 6.78502 19.818 6.85802C19.689 6.93102 19.536 7.00702 19.423 7.06302C18.957 7.29402 18.476 7.53202 18.229 7.96202C17.973 8.40402 18.005 8.95102 18.037 9.48002C18.043 9.58602 18.052 9.72802 18.055 9.85802C17.95 9.79502 17.841 9.72302 17.757 9.66802C17.307 9.37302 16.84 9.06702 16.315 9.06702C15.79 9.06702 15.324 9.37302 14.873 9.66802C14.789 9.72302 14.68 9.79502 14.577 9.85802C14.579 9.72602 14.588 9.58302 14.594 9.47602C14.625 8.94902 14.657 8.40402 14.403 7.96102C14.153 7.53002 13.673 7.29302 13.208 7.06202C13.096 7.00602 12.941 6.93002 12.812 6.85702C12.941 6.78502 13.096 6.70902 13.208 6.65302Z" fill="#1B1A16"/>
</svg>
