<svg width="24" height="24" viewBox="0 0 24 24" fill="none" xmlns="http://www.w3.org/2000/svg">
<path d="M21.25 13.717C20.836 13.717 20.5 14.053 20.5 14.467C20.5 14.925 20.321 15.357 19.997 15.681C19.796 15.882 19.551 16.02 19.285 16.101C18.002 12.49 17.996 10.597 18.003 9.45502C18.009 8.37702 18.014 7.52502 16.714 6.76002C16.233 6.47702 15.682 6.32402 15.082 6.31702C14.537 6.31702 13.997 6.45702 13.52 6.72202L12.833 7.10402C12.324 7.38702 11.676 7.38702 11.165 7.10402L10.479 6.72302C10.003 6.45802 9.463 6.31802 8.878 6.31802H8.877C8.318 6.32402 7.768 6.47702 7.286 6.76002C5.988 7.52402 5.992 8.37802 5.997 9.45902C6.002 10.601 5.996 12.496 4.714 16.101C4.449 16.02 4.204 15.882 4.003 15.681C3.679 15.356 3.5 14.925 3.5 14.467C3.5 14.053 3.164 13.717 2.75 13.717C2.336 13.717 2 14.053 2 14.467C2 15.326 2.334 16.134 2.942 16.741C3.55 17.348 4.357 17.683 5.217 17.683H18.783C19.642 17.683 20.45 17.348 21.057 16.741C21.664 16.134 22 15.326 22 14.467C22 14.053 21.664 13.717 21.25 13.717ZM6.283 16.184C7.512 12.589 7.503 10.65 7.497 9.45202C7.492 8.44002 7.492 8.37902 8.046 8.05402C8.303 7.90302 8.597 7.82102 8.917 7.81702C9.208 7.81702 9.496 7.89202 9.751 8.03302L10.438 8.41402C11.393 8.94302 12.611 8.94302 13.563 8.41402L14.25 8.03302C14.505 7.89102 14.792 7.81702 15.104 7.81702C15.404 7.82102 15.698 7.90202 15.954 8.05302C16.51 8.38002 16.509 8.44002 16.504 9.44702C16.497 10.645 16.486 12.582 17.718 16.184H6.283Z" fill="#1B1A16"/>
</svg>
