<svg width="24" height="24" viewBox="0 0 24 24" fill="none" xmlns="http://www.w3.org/2000/svg">
<path d="M9.40742 2.41454C9.22213 2.04408 8.7716 1.89397 8.40114 2.07927C8.03068 2.26456 7.88058 2.71509 8.06587 3.08555C8.27204 3.49774 8.25836 3.79112 8.17472 4.05702C8.08098 4.35501 7.89967 4.63073 7.64766 5.01397L7.58128 5.11502C7.32591 5.50448 6.98982 6.02933 6.89508 6.65811C6.79209 7.34157 6.98303 8.03352 7.5198 8.74981C7.7682 9.08128 8.23828 9.14862 8.56974 8.90022C8.90121 8.65182 8.96855 8.18174 8.72015 7.85028C8.37304 7.38708 8.34681 7.09083 8.37833 6.88161C8.4181 6.61771 8.5682 6.34542 8.83566 5.93753C8.85998 5.90044 8.88556 5.86186 8.91207 5.82187C9.14299 5.47357 9.44477 5.01838 9.60559 4.50713C9.80302 3.87953 9.79202 3.18347 9.40742 2.41454Z" fill="#1B1A16"/>
<path d="M12.1011 2.07927C12.4715 1.89397 12.9221 2.04408 13.1074 2.41454C13.492 3.18347 13.503 3.87953 13.3055 4.50713C13.1447 5.01838 12.8429 5.47357 12.612 5.82187C12.5855 5.86186 12.5599 5.90044 12.5356 5.93753C12.2682 6.34542 12.118 6.61771 12.0783 6.88161C12.0468 7.09083 12.073 7.38708 12.4201 7.85028C12.6685 8.18174 12.6012 8.65182 12.2697 8.90022C11.9382 9.14862 11.4682 9.08128 11.2198 8.74981C10.683 8.03352 10.492 7.34157 10.595 6.65811C10.6898 6.02933 11.0259 5.50448 11.2812 5.11502L11.3476 5.01397C11.5996 4.63073 11.7809 4.35501 11.8747 4.05702C11.9583 3.79112 11.972 3.49774 11.7658 3.08555C11.5805 2.71509 11.7306 2.26456 12.1011 2.07927Z" fill="#1B1A16"/>
<path d="M15.801 2.07927C16.1715 1.89397 16.622 2.04408 16.8073 2.41454C17.1919 3.18347 17.2029 3.87953 17.0055 4.50713C16.8447 5.01838 16.5429 5.47357 16.312 5.82187C16.2855 5.86186 16.2599 5.90044 16.2356 5.93753C15.9681 6.34542 15.818 6.61771 15.7782 6.88161C15.7467 7.09083 15.7729 7.38708 16.1201 7.85028C16.3685 8.18174 16.3011 8.65182 15.9696 8.90022C15.6382 9.14862 15.1681 9.08128 14.9197 8.74981C14.3829 8.03352 14.192 7.34157 14.295 6.65811C14.3897 6.02933 14.7258 5.50448 14.9812 5.11502L15.0476 5.01397C15.2996 4.63073 15.4809 4.35501 15.5746 4.05702C15.6583 3.79112 15.6719 3.49774 15.4658 3.08555C15.2805 2.71509 15.4306 2.26456 15.801 2.07927Z" fill="#1B1A16"/>
<path fill-rule="evenodd" clip-rule="evenodd" d="M5.26602 10.1478C7.08201 9.66355 9.50355 9.40002 12 9.40002C14.4964 9.40002 16.918 9.66355 18.734 10.1478C19.6376 10.3888 20.3988 10.686 20.9519 11.0421C21.4713 11.3766 22 11.8928 22 12.6167C22 17.8478 17.473 22 12 22C6.52691 22 2 17.8469 2 12.6167C2 11.8928 2.52865 11.3766 3.04813 11.0421C3.60123 10.686 4.36237 10.3888 5.26602 10.1478ZM3.76476 14.5717C4.69842 17.9536 7.99769 20.5 12 20.5C16.0025 20.5 19.3018 17.954 20.2353 14.5716C19.8001 14.765 19.2945 14.9361 18.734 15.0856C16.918 15.5698 14.4964 15.8334 12 15.8334C9.50355 15.8334 7.08201 15.5698 5.26602 15.0856C4.70557 14.9361 4.19994 14.765 3.76476 14.5717ZM12 10.9C9.58994 10.9 7.30594 11.1563 5.65251 11.5972C4.82144 11.8188 4.22795 12.0665 3.8601 12.3034C3.60841 12.4654 3.53077 12.5748 3.50787 12.6167C3.53077 12.6586 3.60841 12.768 3.8601 12.93C4.22795 13.1668 4.82144 13.4146 5.65251 13.6362C7.30594 14.0771 9.58994 14.3334 12 14.3334C14.4101 14.3334 16.6941 14.0771 18.3475 13.6362C19.1786 13.4146 19.7721 13.1668 20.1399 12.93C20.3916 12.768 20.4692 12.6586 20.4921 12.6167C20.4692 12.5748 20.3916 12.4654 20.1399 12.3034C19.7721 12.0665 19.1786 11.8188 18.3475 11.5972C16.6941 11.1563 14.4101 10.9 12 10.9Z" fill="#1B1A16"/>
</svg>
