<svg width="24" height="24" viewBox="0 0 24 24" fill="none" xmlns="http://www.w3.org/2000/svg">
<path fill-rule="evenodd" clip-rule="evenodd" d="M8.84082 3.84998L8.84267 3.84998L15.1592 3.84998C16.1806 3.85251 17.1702 4.20501 17.9632 4.84874C18.7542 5.49092 19.3019 6.38423 19.5154 7.38038L21.9806 17.997C22.0323 18.2198 21.9795 18.4541 21.8373 18.6332C21.695 18.8123 21.4787 18.9166 21.25 18.9166H18.7833C18.4541 18.9166 18.1633 18.7019 18.0665 18.3872L17.0667 15.1378V16.9321C17.0667 16.9325 17.0667 16.9329 17.0667 16.9333C17.0667 16.9337 17.0667 16.9341 17.0667 16.9345V18.1666C17.0667 18.6927 16.8577 19.1971 16.4858 19.5691C16.1138 19.941 15.6094 20.15 15.0833 20.15H8.91667C8.39066 20.15 7.88619 19.941 7.51424 19.5691C7.1423 19.1971 6.93334 18.6927 6.93334 18.1666V16.9341C6.93334 16.9338 6.93334 16.9344 6.93334 16.9341C6.93334 16.9338 6.93334 16.9327 6.93334 16.9324V15.1378L5.93351 18.3872C5.83668 18.7019 5.54593 18.9166 5.21667 18.9166H2.75001C2.52127 18.9166 2.30504 18.8123 2.16276 18.6332C2.02048 18.4541 1.96771 18.2198 2.01944 17.997L4.4846 7.3804C4.6981 6.38425 5.24576 5.49093 6.03684 4.84874C6.82981 4.20501 7.81946 3.85251 8.84082 3.84998ZM8.43334 17.6833V18.1666C8.43334 18.2948 8.48426 18.4178 8.5749 18.5084C8.66555 18.5991 8.78849 18.65 8.91667 18.65H15.0833C15.2115 18.65 15.3345 18.5991 15.4251 18.5084C15.5158 18.4178 15.5667 18.2948 15.5667 18.1666V17.6833H8.43334ZM15.5667 16.1833H8.43334V10.15C8.43334 9.77883 8.16188 9.4635 7.79486 9.40832C7.42784 9.35313 7.07565 9.57468 6.96651 9.92941L4.66274 17.4166H3.69411L5.94724 7.71317L5.95028 7.6995C6.09135 7.03598 6.45557 6.44085 6.98223 6.01331C7.34156 5.72161 7.76169 5.51995 8.20783 5.42072C8.28023 5.73002 8.40028 6.10709 8.6008 6.48974C8.848 6.96148 9.22471 7.45471 9.79448 7.82857C10.3691 8.20558 11.0978 8.43327 12.0001 8.43327C12.9023 8.43327 13.631 8.20558 14.2056 7.82857C14.7754 7.45471 15.1521 6.96147 15.3993 6.48973C15.5998 6.10708 15.7198 5.73002 15.7922 5.42072C16.2383 5.51996 16.6585 5.72162 17.0178 6.01331C17.5444 6.44085 17.9087 7.03598 18.0497 7.6995L20.3059 17.4166H19.3373L17.0335 9.92941C16.9244 9.57468 16.5722 9.35313 16.2052 9.40832C15.8381 9.4635 15.5667 9.77883 15.5667 10.15V16.1833ZM14.256 5.34998H9.744C9.79083 5.4936 9.85139 5.64458 9.92943 5.79351C10.0862 6.09259 10.3061 6.37018 10.6174 6.57444C10.9239 6.77555 11.3606 6.93327 12.0001 6.93327C12.6395 6.93327 13.0762 6.77555 13.3827 6.57445C13.694 6.37019 13.9139 6.0926 14.0706 5.79353C14.1487 5.64459 14.2092 5.49361 14.256 5.34998Z" fill="#1B1A16"/>
</svg>
