<svg width="24" height="24" viewBox="0 0 24 24" fill="none" xmlns="http://www.w3.org/2000/svg">
<path fill-rule="evenodd" clip-rule="evenodd" d="M3.75 4C3.75 2.89543 4.64543 2 5.75 2H18.25C19.3546 2 20.25 2.89543 20.25 4V20C20.25 21.1046 19.3546 22 18.25 22H5.75C4.64543 22 3.75 21.1046 3.75 20V4ZM5.75 3.5C5.47386 3.5 5.25 3.72386 5.25 4V17.25H18.75V4C18.75 3.72386 18.5261 3.5 18.25 3.5H5.75ZM18.75 18.75H5.25V20C5.25 20.2761 5.47386 20.5 5.75 20.5H18.25C18.5261 20.5 18.75 20.2761 18.75 20V18.75Z" fill="#1B1A16"/>
<path fill-rule="evenodd" clip-rule="evenodd" d="M7.25 6C7.25 5.58579 7.58579 5.25 8 5.25H10.5C10.9142 5.25 11.25 5.58579 11.25 6V8.5C11.25 8.91421 10.9142 9.25 10.5 9.25H8C7.58579 9.25 7.25 8.91421 7.25 8.5V6ZM8.75 6.75V7.75H9.75V6.75H8.75Z" fill="#1B1A16"/>
<path fill-rule="evenodd" clip-rule="evenodd" d="M12.6 6C12.6 5.58579 12.9358 5.25 13.35 5.25H15.85C16.2642 5.25 16.6 5.58579 16.6 6V8.5C16.6 8.91421 16.2642 9.25 15.85 9.25H13.35C12.9358 9.25 12.6 8.91421 12.6 8.5V6ZM14.1 6.75V7.75H15.1V6.75H14.1Z" fill="#1B1A16"/>
<path fill-rule="evenodd" clip-rule="evenodd" d="M7.25 11.4C7.25 10.9858 7.58579 10.65 8 10.65H10.5C10.9142 10.65 11.25 10.9858 11.25 11.4V13.9C11.25 14.3142 10.9142 14.65 10.5 14.65H8C7.58579 14.65 7.25 14.3142 7.25 13.9V11.4ZM8.75 12.15V13.15H9.75V12.15H8.75Z" fill="#1B1A16"/>
</svg>
