<svg width="24" height="24" viewBox="0 0 24 24" fill="none" xmlns="http://www.w3.org/2000/svg">
<path d="M13.886 9.26293C13.886 9.84784 13.3942 10.322 12.7875 10.322C12.1809 10.322 11.6891 9.84784 11.6891 9.26293C11.6891 8.67802 12.1809 8.20386 12.7875 8.20386C13.3942 8.20386 13.886 8.67802 13.886 9.26293Z" fill="#1B1A16"/>
<path d="M9.87049 10.7487C10.0037 10.6966 10.1463 10.6704 10.2901 10.6717C10.5796 10.6717 10.8574 10.7819 11.0631 10.9784C11.2688 11.1749 11.3859 11.4417 11.3886 11.7208C11.3886 12.0017 11.2728 12.2711 11.0668 12.4697C10.8608 12.6683 10.5814 12.7799 10.2901 12.7799C10.1454 12.7812 10.002 12.7547 9.86809 12.702C9.73419 12.6492 9.6125 12.5713 9.51023 12.4727C9.40795 12.3741 9.32712 12.2568 9.27241 12.1277C9.2177 11.9986 9.19019 11.8603 9.19158 11.7208C9.19157 11.5822 9.22012 11.445 9.27545 11.317C9.33077 11.1891 9.41188 11.073 9.51402 10.9755C9.61616 10.8779 9.73728 10.8008 9.87049 10.7487Z" fill="#1B1A16"/>
<path d="M10.8704 13.7291C10.59 13.7444 10.3263 13.8627 10.1335 14.0597C9.94079 14.2567 9.83366 14.5173 9.83411 14.7881C9.83366 15.0589 9.94079 15.3196 10.1335 15.5166C10.3263 15.7136 10.59 15.8319 10.8704 15.8472C11.1617 15.8472 11.4411 15.7356 11.6471 15.537C11.8531 15.3384 11.9688 15.069 11.9688 14.7881C11.9688 14.5073 11.8531 14.2379 11.6471 14.0393C11.4411 13.8406 11.1617 13.7291 10.8704 13.7291Z" fill="#1B1A16"/>
<path d="M14.5283 12.3202C14.5283 12.9052 14.0365 13.3793 13.4299 13.3793C12.8232 13.3793 12.3314 12.9052 12.3314 12.3202C12.3314 11.7353 12.8232 11.2612 13.4299 11.2612C14.0365 11.2612 14.5283 11.7353 14.5283 12.3202Z" fill="#1B1A16"/>
<path d="M15.2464 9.09598C15.4407 8.90861 15.7044 8.80334 15.9792 8.80334C16.2608 8.80045 16.5326 8.90294 16.7374 9.08927C16.9423 9.2756 17.0643 9.53125 17.0777 9.80247C17.0791 9.94192 17.0516 10.0802 16.9969 10.2093C16.9422 10.3384 16.8613 10.4557 16.7591 10.5543C16.6568 10.6529 16.5351 10.7309 16.4012 10.7836C16.2673 10.8364 16.1238 10.8629 15.9792 10.8615C15.6979 10.8486 15.4327 10.7311 15.2394 10.5335C15.0462 10.336 14.9399 10.074 14.9429 9.80247C14.9429 9.53748 15.0521 9.28336 15.2464 9.09598Z" fill="#1B1A16"/>
<path fill-rule="evenodd" clip-rule="evenodd" d="M7.92745 22.0018H8.10366C8.86445 21.9827 9.60003 21.7347 10.2073 21.2924L10.2902 21.2225L10.5857 20.9556C10.6244 20.9468 10.6623 20.9351 10.6993 20.9205C10.8091 20.8771 10.9069 20.8094 10.9846 20.7229L21.3472 10.5518C21.5318 10.3759 21.6764 10.165 21.772 9.93236C21.8752 9.69858 21.9281 9.44706 21.9275 9.19301C21.927 8.94229 21.8741 8.69425 21.772 8.46365C21.6702 8.2264 21.5185 8.01208 21.3265 7.8342L20.6425 7.20475C19.8911 6.50652 19.0221 5.95302 18.0819 5.56186C18.1409 5.20728 18.1349 4.84344 18.0622 4.48712C17.935 3.86381 17.6089 3.29441 17.1295 2.85855C16.4558 2.28517 15.5823 1.97827 14.6839 1.9993C13.7849 2.03365 12.9315 2.38989 12.2902 2.99843C12.0817 3.20101 11.8974 3.42556 11.741 3.66784C11.2607 3.49793 10.7489 3.42647 10.2383 3.45803C9.40704 3.532 8.62931 3.88571 8.04142 4.45715C7.6542 4.8141 7.35653 5.25148 7.17099 5.73603C6.82068 5.73836 6.47223 5.78539 6.13473 5.87591C5.57816 6.03375 5.06735 6.31423 4.64256 6.69519C4.03347 7.23413 3.66247 7.97814 3.60629 8.77337C3.56502 9.24547 3.63585 9.72043 3.8135 10.1622C3.57363 10.2924 3.35093 10.4501 3.15027 10.6317C2.81757 10.9075 2.54916 11.248 2.3627 11.6309C2.17371 12.0292 2.07477 12.4617 2.07251 12.8998C2.07477 13.3378 2.17371 13.7703 2.3627 14.1686C2.45911 14.3813 2.5808 14.5825 2.72536 14.7681C2.51752 15.2407 2.4356 15.7559 2.48704 16.2668C2.5688 16.9936 2.91378 17.6693 3.4612 18.1751C3.82881 18.5017 4.268 18.7441 4.74616 18.8845C4.74419 19.1608 4.77899 19.4361 4.84976 19.7038C5.00282 20.2566 5.3112 20.7579 5.74094 21.1525C6.3501 21.6645 7.12034 21.9636 7.92745 22.0018ZM16.5593 5.0848C16.561 4.97532 16.5508 4.86542 16.5285 4.75689C16.4642 4.44691 16.3011 4.16399 16.0621 3.9476C15.6923 3.63002 15.21 3.46187 14.7151 3.47801C14.2087 3.49329 13.7272 3.69325 13.3679 4.03752C13.1226 4.25959 12.9468 4.54338 12.8601 4.8568C12.8341 4.94299 12.7928 5.02388 12.7382 5.09595C13.3232 4.96563 13.925 4.89381 14.5346 4.88427C15.221 4.87353 15.9003 4.94205 16.5593 5.0848ZM11.821 5.35272C10.5794 5.7737 9.44261 6.4678 8.50787 7.39458C7.63144 8.1306 6.92531 9.03608 6.43534 10.0523C5.95033 11.0615 5.68916 12.1573 5.66851 13.2694C5.64591 14.3812 5.8574 15.4859 6.29024 16.5166C6.72961 17.5507 7.38579 18.4861 8.21769 19.2642L9.17231 20.1608C8.81796 20.3703 8.40596 20.4724 7.98969 20.4531C7.54367 20.4347 7.11682 20.2729 6.77721 19.9935C6.56672 19.7966 6.41616 19.5478 6.34193 19.2742C6.26426 19.0028 6.26426 18.7163 6.34193 18.4449C6.37794 18.3357 6.38642 18.2198 6.3666 18.1069C6.34677 17.9939 6.29922 17.8872 6.22795 17.7955C6.15985 17.7014 6.07031 17.6236 5.9661 17.5682C5.8619 17.5127 5.74585 17.4811 5.62696 17.4758C5.20627 17.4633 4.80474 17.3035 4.49747 17.0261C4.20654 16.7668 4.03174 16.4085 4.01033 16.027C3.97812 15.674 4.0733 15.3211 4.27977 15.0279C4.39133 14.8762 4.4405 14.6899 4.41752 14.5052C4.39454 14.3206 4.30105 14.1507 4.15542 14.0288C3.98278 13.8761 3.84218 13.693 3.74101 13.4892C3.64635 13.2813 3.59695 13.0569 3.59592 12.8298C3.59695 12.6028 3.64635 12.3783 3.74101 12.1704C3.84497 11.9601 3.99311 11.7729 4.17616 11.6209C4.43369 11.3878 4.74694 11.2196 5.08808 11.1313C5.21305 11.0994 5.32782 11.0379 5.42191 10.9524C5.516 10.8669 5.58647 10.7601 5.62696 10.6417C5.66726 10.522 5.67603 10.3945 5.65252 10.2706C5.629 10.1468 5.57393 10.0306 5.49224 9.93236C5.22051 9.60534 5.08724 9.19127 5.1192 8.77337C5.16099 8.3493 5.36838 7.95641 5.69945 7.67434C5.94624 7.45043 6.24463 7.28608 6.57 7.19475C6.90985 7.11015 7.26642 7.11015 7.60627 7.19475C7.71202 7.21339 7.82057 7.21151 7.92555 7.1892C8.03053 7.1669 8.1298 7.12463 8.21763 7.06487C8.30481 7.00369 8.37823 6.92611 8.43344 6.83681C8.48865 6.74752 8.52458 6.64836 8.53894 6.54532C8.58641 6.12715 8.78433 5.73825 9.09844 5.44628C9.43659 5.13591 9.87633 4.94868 10.342 4.91675C10.8098 4.88002 11.2758 5.00389 11.658 5.26644C11.7087 5.30152 11.7635 5.33044 11.821 5.35272ZM14.684 6.39546C12.7374 6.43645 10.8819 7.19855 9.50265 8.52359C8.7962 9.13443 8.22822 9.87934 7.83427 10.7117C7.44298 11.5339 7.23137 12.4249 7.21254 13.3294C7.19231 14.2361 7.36511 15.1372 7.7203 15.9771C8.0632 16.8332 8.58524 17.612 9.25395 18.2651L10.2902 19.2642L20.114 9.60265C20.1566 9.56818 20.1888 9.52332 20.2073 9.47276C20.2181 9.41999 20.2181 9.36567 20.2073 9.3129C20.2171 9.26339 20.2171 9.21254 20.2073 9.16303C20.1862 9.11088 20.1545 9.06332 20.114 9.02316L19.4301 8.4037C18.1787 7.1652 16.4766 6.44493 14.684 6.39546Z" fill="#1B1A16"/>
</svg>
