<svg width="24" height="24" viewBox="0 0 24 24" fill="none" xmlns="http://www.w3.org/2000/svg">
<path fill-rule="evenodd" clip-rule="evenodd" d="M5.83333 3.5C5.21449 3.5 4.621 3.74583 4.18342 4.18342C3.74583 4.621 3.5 5.21449 3.5 5.83333V15.1253C4.16572 14.6145 4.98503 14.3333 5.83333 14.3333C6.68164 14.3333 7.50095 14.6145 8.16667 15.1253V6.45086V6.44915V5.83333C8.16667 5.2145 7.92083 4.621 7.48325 4.18342C7.04566 3.74583 6.45217 3.5 5.83333 3.5ZM9.66435 5.7C9.63068 4.73175 9.23131 3.81016 8.54391 3.12276C7.82502 2.40387 6.85 2 5.83333 2C4.81667 2 3.84165 2.40387 3.12276 3.12276C2.40387 3.84165 2 4.81667 2 5.83333V18.1667C2 19.1833 2.40387 20.1584 3.12276 20.8772C3.84165 21.5961 4.81667 22 5.83333 22L20.0167 22C20.5427 22 21.0471 21.791 21.4191 21.4191C21.791 21.0471 22 20.5427 22 20.0167V7.68333C22 7.15732 21.791 6.65285 21.4191 6.2809C21.0471 5.90896 20.5427 5.7 20.0167 5.7H9.66435ZM9.66667 7.2V18.1667C9.66667 19.015 9.38548 19.8343 8.87473 20.5L20.0167 20.5C20.1449 20.5 20.2678 20.4491 20.3584 20.3584C20.4491 20.2678 20.5 20.1449 20.5 20.0167V7.68333C20.5 7.55515 20.4491 7.43221 20.3584 7.34157C20.2678 7.25092 20.1449 7.2 20.0167 7.2H9.66667ZM5.83333 20.5C6.45217 20.5 7.04566 20.2542 7.48325 19.8166C7.92083 19.379 8.16667 18.7855 8.16667 18.1667C8.16667 17.5478 7.92083 16.9543 7.48325 16.5167C7.04566 16.0792 6.45217 15.8333 5.83333 15.8333C5.21449 15.8333 4.621 16.0792 4.18342 16.5167C3.74583 16.9543 3.5 17.5478 3.5 18.1667C3.5 18.7855 3.74583 19.379 4.18342 19.8166C4.621 20.2542 5.21449 20.5 5.83333 20.5ZM13.85 8.16667C14.2642 8.16667 14.6 8.50245 14.6 8.91667V10.15C14.6 10.5642 14.2642 10.9 13.85 10.9C13.4358 10.9 13.1 10.5642 13.1 10.15V8.91667C13.1 8.50245 13.4358 8.16667 13.85 8.16667ZM18.7833 8.16667C19.1975 8.16667 19.5333 8.50245 19.5333 8.91667V10.15C19.5333 10.5642 19.1975 10.9 18.7833 10.9C18.3691 10.9 18.0333 10.5642 18.0333 10.15V8.91667C18.0333 8.50245 18.3691 8.16667 18.7833 8.16667ZM11.3833 9.4C11.7975 9.4 12.1333 9.73579 12.1333 10.15V11.3833C12.1333 11.7975 11.7975 12.1333 11.3833 12.1333C10.9691 12.1333 10.6333 11.7975 10.6333 11.3833V10.15C10.6333 9.73579 10.9691 9.4 11.3833 9.4ZM16.3167 9.4C16.7309 9.4 17.0667 9.73579 17.0667 10.15V11.3833C17.0667 11.7975 16.7309 12.1333 16.3167 12.1333C15.9025 12.1333 15.5667 11.7975 15.5667 11.3833V10.15C15.5667 9.73579 15.9025 9.4 16.3167 9.4ZM13.85 11.8667C14.2642 11.8667 14.6 12.2025 14.6 12.6167V13.85C14.6 14.2642 14.2642 14.6 13.85 14.6C13.4358 14.6 13.1 14.2642 13.1 13.85V12.6167C13.1 12.2025 13.4358 11.8667 13.85 11.8667ZM18.7833 11.8667C19.1975 11.8667 19.5333 12.2025 19.5333 12.6167V13.85C19.5333 14.2642 19.1975 14.6 18.7833 14.6C18.3691 14.6 18.0333 14.2642 18.0333 13.85V12.6167C18.0333 12.2025 18.3691 11.8667 18.7833 11.8667ZM11.3833 13.1C11.7975 13.1 12.1333 13.4358 12.1333 13.85V15.0833C12.1333 15.4975 11.7975 15.8333 11.3833 15.8333C10.9691 15.8333 10.6333 15.4975 10.6333 15.0833V13.85C10.6333 13.4358 10.9691 13.1 11.3833 13.1ZM16.3167 13.1C16.7309 13.1 17.0667 13.4358 17.0667 13.85V15.0833C17.0667 15.4975 16.7309 15.8333 16.3167 15.8333C15.9025 15.8333 15.5667 15.4975 15.5667 15.0833V13.85C15.5667 13.4358 15.9025 13.1 16.3167 13.1ZM13.85 15.5667C14.2642 15.5667 14.6 15.9025 14.6 16.3167V17.55C14.6 17.9642 14.2642 18.3 13.85 18.3C13.4358 18.3 13.1 17.9642 13.1 17.55V16.3167C13.1 15.9025 13.4358 15.5667 13.85 15.5667ZM18.7833 15.5667C19.1975 15.5667 19.5333 15.9025 19.5333 16.3167V17.55C19.5333 17.9642 19.1975 18.3 18.7833 18.3C18.3691 18.3 18.0333 17.9642 18.0333 17.55V16.3167C18.0333 15.9025 18.3691 15.5667 18.7833 15.5667ZM11.3833 16.8C11.7975 16.8 12.1333 17.1358 12.1333 17.55V18.7833C12.1333 19.1975 11.7975 19.5333 11.3833 19.5333C10.9691 19.5333 10.6333 19.1975 10.6333 18.7833V17.55C10.6333 17.1358 10.9691 16.8 11.3833 16.8ZM16.3167 16.8C16.7309 16.8 17.0667 17.1358 17.0667 17.55V18.7833C17.0667 19.1975 16.7309 19.5333 16.3167 19.5333C15.9025 19.5333 15.5667 19.1975 15.5667 18.7833V17.55C15.5667 17.1358 15.9025 16.8 16.3167 16.8ZM5.08498 17.4183C5.28346 17.2198 5.55265 17.1083 5.83333 17.1083C6.04265 17.1083 6.24726 17.1704 6.42131 17.2867C6.59536 17.403 6.731 17.5683 6.81111 17.7617C6.89121 17.955 6.91217 18.1678 6.87133 18.3731C6.8305 18.5784 6.7297 18.767 6.58169 18.915C6.43367 19.063 6.24509 19.1638 6.0398 19.2047C5.83451 19.2455 5.62171 19.2245 5.42833 19.1444C5.23495 19.0643 5.06966 18.9287 4.95336 18.7546C4.83707 18.5806 4.775 18.376 4.775 18.1667C4.775 17.886 4.8865 17.6168 5.08498 17.4183Z" fill="#1B1A16"/>
</svg>
