<svg width="24" height="24" viewBox="0 0 24 24" fill="none" xmlns="http://www.w3.org/2000/svg">
<path fill-rule="evenodd" clip-rule="evenodd" d="M5.21667 5.96664C5.08848 5.96664 4.96554 6.01757 4.8749 6.10821C4.78426 6.19885 4.73333 6.32179 4.73333 6.44997V12.6166C4.73333 14.0532 5.30402 15.431 6.31984 16.4468C7.33566 17.4626 8.71341 18.0333 10.15 18.0333C11.5866 18.0333 12.9643 17.4626 13.9802 16.4468C14.996 15.431 15.5667 14.0532 15.5667 12.6166V6.44997C15.5667 6.32179 15.5157 6.19885 15.4251 6.10821C15.3345 6.01757 15.2115 5.96664 15.0833 5.96664H5.21667ZM14.4512 18.0333C14.6566 17.8702 14.8535 17.6947 15.0408 17.5074C15.8586 16.6896 16.4505 15.6882 16.7762 14.6H17.55L17.5522 14.6C18.7308 14.5966 19.8601 14.1269 20.6935 13.2935C21.5269 12.4601 21.9966 11.3307 22 10.1521V10.1478C21.9966 8.96921 21.5269 7.83986 20.6935 7.00646C19.8601 6.17306 18.7308 5.70337 17.5522 5.69997L16.9194 5.69997C16.8206 5.45813 16.6741 5.23586 16.4858 5.04755C16.1138 4.6756 15.6093 4.46664 15.0833 4.46664H5.21667C4.69065 4.46664 4.18619 4.6756 3.81424 5.04755C3.44229 5.41949 3.23333 5.92396 3.23333 6.44997V12.6166C3.23333 14.451 3.96205 16.2103 5.25918 17.5074C5.44647 17.6947 5.6434 17.8702 5.84879 18.0333H2.75C2.33579 18.0333 2 18.3691 2 18.7833C2 19.1975 2.33579 19.5333 2.75 19.5333H21.25C21.6642 19.5333 22 19.1975 22 18.7833C22 18.3691 21.6642 18.0333 21.25 18.0333H14.4512ZM17.0667 7.19997V12.6166C17.0667 12.7784 17.061 12.9396 17.0498 13.1H17.5489C18.3308 13.0974 19.08 12.7857 19.6329 12.2328C20.1855 11.6802 20.4972 10.9315 20.5 10.15C20.4972 9.36848 20.1855 8.61976 19.6329 8.06712C19.0799 7.51421 18.3308 7.20249 17.5489 7.19997H17.0667Z" fill="#1B1A16"/>
</svg>
