<svg width="24" height="24" viewBox="0 0 24 24" fill="none" xmlns="http://www.w3.org/2000/svg">
<path fill-rule="evenodd" clip-rule="evenodd" d="M4 4.09998C3.72386 4.09998 3.5 4.32383 3.5 4.59998V18.1479C3.5 19.1144 4.2835 19.8979 5.25 19.8979H13.8C14.7665 19.8979 15.55 19.1144 15.55 18.1479V4.59997C15.55 4.32383 15.3261 4.09998 15.05 4.09998H4ZM2 4.59998C2 3.49541 2.89543 2.59998 4 2.59998H15.05C16.1546 2.59998 17.05 3.4954 17.05 4.59997V5.11653C19.8199 5.3332 22 7.64949 22 10.475C22 13.3005 19.8199 15.6168 17.05 15.8334V18.1479C17.05 19.9429 15.5949 21.3979 13.8 21.3979H5.25C3.45508 21.3979 2 19.9429 2 18.1479V4.59998ZM17.05 14.3269C18.9902 14.1153 20.5 12.4715 20.5 10.475C20.5 8.4785 18.9902 6.83466 17.05 6.62302V14.3269Z" fill="#1B1A16"/>
</svg>
