<svg width="24" height="24" viewBox="0 0 24 24" fill="none" xmlns="http://www.w3.org/2000/svg">
<path fill-rule="evenodd" clip-rule="evenodd" d="M7.04187 17.5H3.75C2.64543 17.5 1.75 16.6046 1.75 15.5V5.5C1.75 4.39543 2.64543 3.5 3.75 3.5H20C21.1046 3.5 22 4.39543 22 5.5V15.5C22 16.6046 21.1046 17.5 20 17.5H16.7341C17.4033 17.9206 18.0804 18.4401 18.7604 19.0716C19.0639 19.3534 19.0815 19.828 18.7996 20.1315C18.5178 20.435 18.0432 20.4526 17.7397 20.1708C15.0937 17.7138 12.6579 17.2623 10.7151 17.5977C8.7274 17.941 7.15029 19.1274 6.32256 20.1056C6.055 20.4218 5.58176 20.4613 5.26556 20.1937C4.94935 19.9261 4.90992 19.4529 5.17748 19.1367C5.63206 18.5995 6.26388 18.0162 7.04187 17.5ZM3.25 5.5C3.25 5.22386 3.47386 5 3.75 5H20C20.2761 5 20.5 5.22386 20.5 5.5V15.5C20.5 15.7761 20.2761 16 20 16H11.8961C11.8664 15.9998 11.8367 15.9998 11.8071 16H3.75C3.47386 16 3.25 15.7761 3.25 15.5V5.5Z" fill="#1B1A16"/>
</svg>
