<svg width="24" height="24" viewBox="0 0 24 24" fill="none" xmlns="http://www.w3.org/2000/svg">
<path fill-rule="evenodd" clip-rule="evenodd" d="M2 5C2 4.17157 2.67157 3.5 3.5 3.5H20.5C21.3284 3.5 22 4.17157 22 5V15.9C22 16.7284 21.3284 17.4 20.5 17.4H12.75V18.95H15.7C16.1142 18.95 16.45 19.2858 16.45 19.7C16.45 20.1142 16.1142 20.45 15.7 20.45H8.3C7.88579 20.45 7.55 20.1142 7.55 19.7C7.55 19.2858 7.88579 18.95 8.3 18.95H11.25V17.4H3.5C2.67157 17.4 2 16.7284 2 15.9V5ZM20.5 5H3.5V15.9H20.5V5Z" fill="#1B1A16"/>
</svg>
