<svg width="24" height="24" viewBox="0 0 24 24" fill="none" xmlns="http://www.w3.org/2000/svg">
<path fill-rule="evenodd" clip-rule="evenodd" d="M4.39444 4.52779C3.90421 4.52779 3.5 4.932 3.5 5.42223V15.2889C3.5 15.7791 3.90421 16.1833 4.39444 16.1833H10.3383C10.3494 16.1831 10.3605 16.1831 10.3716 16.1833H13.6284C13.6396 16.1831 13.6507 16.1831 13.6617 16.1833H19.6056C20.0958 16.1833 20.5 15.7791 20.5 15.2889V5.42223C20.5 4.932 20.0958 4.52779 19.6056 4.52779H4.39444ZM14.6051 17.6833H19.6056C20.9242 17.6833 22 16.6076 22 15.2889V5.42223C22 4.10357 20.9242 3.02779 19.6056 3.02779H4.39444C3.07579 3.02779 2 4.10357 2 5.42223V15.2889C2 16.6076 3.07579 17.6833 4.39444 17.6833H9.39497L8.94776 19.4722H7.06667C6.65245 19.4722 6.31667 19.808 6.31667 20.2222C6.31667 20.6364 6.65245 20.9722 7.06667 20.9722H9.5167C9.5282 20.9725 9.53967 20.9725 9.5511 20.9722H14.449C14.4604 20.9725 14.4719 20.9725 14.4834 20.9722H16.9333C17.3475 20.9722 17.6833 20.6364 17.6833 20.2222C17.6833 19.808 17.3475 19.4722 16.9333 19.4722H15.0523L14.6051 17.6833ZM13.0589 17.6833H10.9411L10.4939 19.4722H13.5062L13.0589 17.6833ZM5.33 9.32776C5.33 7.77829 6.58609 6.5222 8.13555 6.5222C9.68502 6.5222 10.9411 7.77829 10.9411 9.32776C10.9411 10.3479 10.3966 11.2409 9.58232 11.732C10.2553 11.9914 10.8621 12.4172 11.3273 12.9406C11.6025 13.2502 11.5746 13.7242 11.265 13.9994C10.9554 14.2746 10.4814 14.2467 10.2062 13.9371C9.67339 13.3377 8.88327 12.9555 8.13563 12.9555C7.35971 12.9555 6.51776 13.3577 6.09654 13.8993C5.84224 14.2263 5.37103 14.2852 5.04407 14.0309C4.71711 13.7766 4.65821 13.3054 4.91251 12.9784C5.34749 12.4191 5.98347 11.9856 6.67983 11.7266C5.87053 11.2344 5.33 10.3442 5.33 9.32776ZM8.13555 8.0222C7.41452 8.0222 6.83 8.60672 6.83 9.32776C6.83 10.0488 7.41452 10.6333 8.13555 10.6333C8.85659 10.6333 9.44111 10.0488 9.44111 9.32776C9.44111 8.60672 8.85659 8.0222 8.13555 8.0222ZM13.0588 9.32776C13.0588 7.77831 14.3148 6.5222 15.8644 6.5222C17.4138 6.5222 18.6699 7.77829 18.6699 9.32776C18.6699 10.3479 18.1254 11.2409 17.3111 11.732C17.9841 11.9913 18.5909 12.4172 19.0561 12.9406C19.3313 13.2502 19.3034 13.7242 18.9938 13.9994C18.6842 14.2746 18.2102 14.2467 17.935 13.9371C17.4022 13.3377 16.6121 12.9555 15.8644 12.9555C15.0885 12.9555 14.2466 13.3577 13.8253 13.8993C13.571 14.2263 13.0998 14.2852 12.7729 14.0309C12.4459 13.7766 12.387 13.3054 12.6413 12.9784C13.0763 12.4192 13.7123 11.9856 14.4086 11.7266C13.5993 11.2344 13.0588 10.3442 13.0588 9.32776ZM15.8644 8.0222C15.1433 8.0222 14.5588 8.6067 14.5588 9.32776C14.5588 10.0488 15.1433 10.6333 15.8644 10.6333C16.5854 10.6333 17.1699 10.0488 17.1699 9.32776C17.1699 8.60672 16.5854 8.0222 15.8644 8.0222Z" fill="#1B1A16"/>
</svg>
1B1A16"/>
</svg>
