<svg width="24" height="24" viewBox="0 0 24 24" fill="none" xmlns="http://www.w3.org/2000/svg">
<path fill-rule="evenodd" clip-rule="evenodd" d="M15.3607 2.75003C15.3607 2.33582 15.6965 2.00003 16.1107 2.00003H20.4274C20.8416 2.00003 21.1774 2.33582 21.1774 2.75003V5.28892H21.2504C21.6646 5.28892 22.0004 5.62471 22.0004 6.03892V11.1778C22.0004 12.0309 21.6615 12.8491 21.0583 13.4523C20.455 14.0556 19.6369 14.3945 18.7838 14.3945H17.756C16.9029 14.3945 16.0847 14.0556 15.4815 13.4523C14.8782 12.8491 14.5393 12.0309 14.5393 11.1778V6.03892C14.5393 5.62471 14.8751 5.28892 15.2893 5.28892H15.3607V2.75003ZM16.8607 5.28892H19.6774V3.50003H16.8607V5.28892ZM16.0393 6.78892V11.1778C16.0393 11.6331 16.2202 12.0697 16.5421 12.3917C16.8641 12.7136 17.3007 12.8945 17.756 12.8945H18.7838C19.239 12.8945 19.6757 12.7136 19.9976 12.3917C20.3196 12.0697 20.5004 11.6331 20.5004 11.1778V6.78892H16.0393ZM3.57185 7.8167C3.5527 7.8167 3.53433 7.82431 3.52079 7.83785C3.50724 7.85139 3.49963 7.86976 3.49963 7.88892V18.3723C3.49963 18.3914 3.50724 18.4098 3.52079 18.4233C3.53433 18.4369 3.5527 18.4445 3.57185 18.4445H7.25668C7.26716 18.4443 7.27766 18.4443 7.28817 18.4445H16.7111C16.7216 18.4443 16.7321 18.4443 16.7425 18.4445H20.4274C20.4465 18.4445 20.4649 18.4369 20.4784 18.4233C20.492 18.4098 20.4996 18.3914 20.4996 18.3723V15.5101C20.4996 15.0959 20.8354 14.7601 21.2496 14.7601C21.6638 14.7601 21.9996 15.0959 21.9996 15.5101V18.3723C21.9996 18.7892 21.834 19.1891 21.5391 19.484C21.2443 19.7788 20.8444 19.9445 20.4274 19.9445H17.9409L18.426 20.9146C18.6112 21.2851 18.4611 21.7356 18.0906 21.9208C17.7201 22.1061 17.2696 21.9559 17.0843 21.5854L16.2639 19.9445H7.73537L6.91489 21.5854C6.72965 21.9559 6.27914 22.1061 5.90866 21.9208C5.53818 21.7356 5.38801 21.2851 5.57325 20.9146L6.05832 19.9445H3.57185C3.15487 19.9445 2.75497 19.7788 2.46013 19.484C2.16528 19.1891 1.99963 18.7892 1.99963 18.3723V7.88892C1.99963 7.47194 2.16528 7.07204 2.46013 6.77719C2.75497 6.48234 3.15488 6.3167 3.57185 6.3167H12.7807C13.1949 6.3167 13.5307 6.65248 13.5307 7.0667C13.5307 7.48091 13.1949 7.8167 12.7807 7.8167H3.57185Z" fill="#1B1A16"/>
</svg>
</svg>
