<svg width="24" height="24" viewBox="0 0 24 24" fill="none" xmlns="http://www.w3.org/2000/svg">
<path fill-rule="evenodd" clip-rule="evenodd" d="M3.45009 3.35375C2.68982 3.23047 2 3.81743 2 4.58764V16.9124C2 17.6826 2.68982 18.2696 3.45009 18.1463L7.63806 17.4672C8.01619 17.4058 8.39528 17.3526 8.77509 17.3073L8.28941 19.25H7C6.58579 19.25 6.25 19.5858 6.25 20C6.25 20.4142 6.58579 20.75 7 20.75H17C17.4142 20.75 17.75 20.4142 17.75 20C17.75 19.5858 17.4142 19.25 17 19.25H15.7106L15.2249 17.3073C15.6047 17.3526 15.9838 17.4058 16.3619 17.4672L20.5499 18.1463C21.3102 18.2696 22 17.6826 22 16.9124V4.58764C22 3.81743 21.3102 3.23047 20.5499 3.35375L16.3619 4.03288C13.4728 4.50139 10.5271 4.50139 7.63806 4.03288L3.45009 3.35375ZM3.5 16.6186V4.88144L7.39795 5.51354C10.4461 6.00783 13.5539 6.00783 16.602 5.51354L20.5 4.88144V16.6186L16.602 15.9865C13.5539 15.4922 10.4461 15.4922 7.39795 15.9865L3.5 16.6186ZM14.1644 19.25L13.6433 17.1654C12.5488 17.0993 11.4512 17.0993 10.3567 17.1654L9.83558 19.25H14.1644Z" fill="#1B1A16"/>
</svg>
