<svg width="24" height="24" viewBox="0 0 24 24" fill="none" xmlns="http://www.w3.org/2000/svg">
<path fill-rule="evenodd" clip-rule="evenodd" d="M16.2111 10.0364C16.0482 8.67576 16.0293 7.57626 16.0293 7.57626C16.0293 7.57626 15.5796 7.02394 14.9497 7.03482C14.8498 7.03655 14.7399 7.04844 14.6307 7.09034C14.3959 7.17028 14.1222 7.35396 13.8442 7.54041C13.4629 7.79628 13.0737 8.05737 12.7672 8.06266L12.7572 8.06284C12.0871 8.06441 10.8676 6.9453 10.8348 6.20576C10.8172 5.81064 11.1075 5.41607 11.3651 5.06607C11.5831 4.76982 11.7777 4.5055 11.742 4.29981C11.6008 3.45569 11.2917 3.18313 10.7725 2.91732C10.2636 2.65677 9.61859 2.88663 9.26078 3.33259C8.77655 3.93613 8.1255 4.53073 7.41498 5.17965C6.13188 6.35151 4.65482 7.70051 3.61589 9.5992C3.44382 9.91366 3.47461 10.2972 3.68868 10.5847C5.28883 12.7338 8.70818 16.4507 11.5549 18.9452C13.2711 20.4458 16.7747 21.2054 17.5446 21.1921C19.6843 21.1552 20.5131 19.3406 20.4946 18.2707C20.4853 17.7323 19.9337 17.1854 19.2469 16.5046C18.5691 15.8328 17.7597 15.0304 17.21 13.9768C17.1749 13.9097 17.1409 13.8404 17.108 13.7692L17.1313 13.7551C17.4848 13.5391 17.5962 13.0774 17.3802 12.724C17.2183 12.4592 16.9185 12.3302 16.6297 12.3731C16.5638 12.1166 16.5051 11.8534 16.4528 11.5886C16.4688 11.5758 16.4846 11.5623 16.5002 11.5481C16.7275 11.3419 16.8395 11.0592 16.8344 10.7628C16.8281 10.3962 16.5598 10.0957 16.2111 10.0364ZM9.3459 6.28148C9.32934 5.90171 9.40362 5.57038 9.51843 5.26835C9.35211 5.43068 9.17879 5.59313 9.00302 5.75788C8.81498 5.93412 8.62411 6.11303 8.43603 6.2972L8.40942 6.32163C7.94831 6.74505 7.46664 7.18735 6.99629 7.66545C7.05718 7.86764 7.12138 8.08186 7.12967 8.11354C7.17381 8.28222 7.27017 8.5225 7.43261 8.83479C7.7552 9.45496 8.28128 10.2515 8.95534 11.1453C10.2995 12.9278 12.1682 15.0134 13.987 16.7126C14.4982 17.1857 15.353 17.6268 16.2687 17.9495C17.1875 18.2732 18.0396 18.4332 18.497 18.4253C18.6471 18.4227 18.7449 18.4086 18.8047 18.3948C18.8054 18.3704 18.8056 18.3394 18.8049 18.2999C18.8044 18.2679 18.8058 18.2363 18.8092 18.2053C18.644 18.0227 18.4243 17.8028 18.2372 17.6155L18.1922 17.5704C17.4595 16.8429 16.5436 15.9286 15.8817 14.6699C15.7877 14.4885 15.7001 14.2965 15.6186 14.0961C15.3964 14.078 15.1921 14.0364 15.017 13.9883C14.7406 13.9123 14.5079 13.813 14.3443 13.7331C14.2618 13.6928 14.1948 13.6565 14.1464 13.629C13.7571 13.4074 13.4646 12.7223 13.8825 12.3851C14.1889 12.138 14.5596 12.1382 14.8886 12.3254C14.9127 12.3392 14.9515 12.3603 15.0023 12.3851C15.0325 12.3999 15.0663 12.4156 15.1031 12.4315C15.0558 12.2309 15.0124 12.0287 14.9726 11.8268C14.9488 11.8234 14.9256 11.8199 14.9029 11.8163C14.5968 11.7681 14.2989 11.6948 14.0832 11.6358C13.9739 11.6059 13.8824 11.5788 13.8176 11.559C13.5728 11.4944 13.1132 11.2076 13.2329 10.5769C13.3631 10.1838 13.7873 9.97057 14.1804 10.1007L14.1832 10.1016L14.1974 10.1061C14.2105 10.1103 14.2307 10.1167 14.2571 10.1248C14.3098 10.141 14.3865 10.1637 14.4788 10.1889C14.5537 10.2094 14.6369 10.231 14.7245 10.2518C14.6615 9.73654 14.6191 9.25783 14.5911 8.85128C14.087 9.20004 13.5131 9.56 12.8032 9.57227C11.2631 9.57886 9.41197 7.79057 9.3459 6.28148ZM15.4383 19.2418C14.5393 18.8951 13.6152 18.413 12.9665 17.812L12.9642 17.8099C11.0831 16.0526 9.15553 13.9021 7.7577 12.0485C7.06063 11.1241 6.47923 10.2524 6.10187 9.52699C6.00383 9.33851 5.91558 9.1524 5.84166 8.97178C5.58869 9.29745 5.34914 9.64064 5.12957 10.0048C6.7356 12.0774 9.92575 15.5328 12.5458 17.8279C13.2409 18.4378 14.4007 18.9195 15.4383 19.2418Z" fill="#1B1A16"/>
</svg>
