<svg width="24" height="24" viewBox="0 0 24 24" fill="none" xmlns="http://www.w3.org/2000/svg">
<path d="M21.938 18.486C21.879 18.093 21.774 17.71 21.576 17.364C21.299 16.878 20.896 16.471 20.345 16.152L16.987 14.624C16.985 14.623 16.982 14.621 16.979 14.62L11.079 11.934C10.847 11.83 10.577 11.849 10.363 11.986C10.148 12.124 10.019 12.361 10.018 12.616C10.018 13.185 9.809 13.734 9.43 14.161C9.052 14.587 8.532 14.859 7.966 14.93C7.395 14.996 6.829 14.858 6.36 14.534C5.891 14.21 5.556 13.728 5.419 13.176C5.327 12.804 5.109 12.469 4.809 12.235C4.142 11.71 3.107 11.779 2.514 12.377C2.187 12.7 2 13.15 2 13.611V20.016C2 20.545 2.207 21.043 2.581 21.418C2.955 21.793 3.454 22 3.983 22H20.016C20.539 22 21.051 21.788 21.418 21.419C21.794 21.044 22 20.546 22 20.017V18.961C22 18.925 21.987 18.89 21.986 18.854C21.988 18.829 22 18.808 22 18.783C22 18.678 21.978 18.578 21.938 18.486ZM3.573 13.438C3.618 13.392 3.679 13.368 3.744 13.368C3.794 13.368 3.842 13.384 3.883 13.416C3.922 13.446 3.95 13.49 3.962 13.539C4.189 14.447 4.737 15.24 5.508 15.771C6.278 16.301 7.207 16.538 8.146 16.418C9.076 16.304 9.93 15.856 10.55 15.156C10.924 14.734 11.197 14.24 11.356 13.709L12.862 14.394L12.087 15.17C11.794 15.463 11.794 15.938 12.087 16.231C12.233 16.377 12.425 16.451 12.617 16.451C12.809 16.451 13.001 16.378 13.147 16.231L14.32 15.057L15.406 15.55L14.553 16.404C14.26 16.697 14.26 17.173 14.553 17.465C14.699 17.611 14.892 17.685 15.083 17.685C15.275 17.685 15.467 17.612 15.613 17.465L16.862 16.214L19.652 17.483C19.882 17.618 20.069 17.811 20.214 18.035H3.5V13.613C3.5 13.547 3.525 13.484 3.573 13.438ZM20.357 20.359C20.268 20.449 20.144 20.5 20.016 20.5H3.983C3.854 20.5 3.733 20.449 3.641 20.358C3.55 20.267 3.5 20.146 3.5 20.017V19.534H20.5V20.017C20.5 20.146 20.449 20.267 20.357 20.359Z" fill="#1B1A16"/>
<path d="M21.42 2.582C21.052 2.212 20.54 2 20.017 2H3.983C3.453 2 2.955 2.207 2.581 2.581C2.207 2.955 2 3.454 2 3.983V5.039C2 5.076 2.013 5.11 2.014 5.147C2.012 5.171 2 5.192 2 5.217C2 5.322 2.023 5.423 2.062 5.513C2.121 5.905 2.227 6.29 2.424 6.635C2.701 7.12 3.103 7.527 3.655 7.848L12.922 12.066C13.021 12.111 13.127 12.133 13.233 12.133C13.375 12.133 13.515 12.093 13.638 12.014C13.853 11.876 13.983 11.639 13.983 11.384C13.984 10.814 14.192 10.265 14.57 9.839C14.949 9.412 15.469 9.14 16.036 9.071C16.612 9.002 17.173 9.143 17.64 9.465C18.11 9.789 18.445 10.272 18.582 10.825C18.675 11.197 18.893 11.531 19.192 11.765C19.857 12.288 20.887 12.222 21.488 11.621C21.818 11.293 22 10.855 22 10.389V3.983C22 3.454 21.794 2.956 21.42 2.582ZM3.642 3.642C3.733 3.55 3.854 3.5 3.983 3.5H20.016C20.144 3.5 20.268 3.551 20.358 3.642C20.449 3.733 20.5 3.854 20.5 3.983V4.466H3.5V3.983C3.5 3.854 3.55 3.733 3.642 3.642ZM20.429 10.562C20.348 10.644 20.211 10.659 20.118 10.585C20.078 10.554 20.051 10.511 20.038 10.462C19.812 9.554 19.264 8.761 18.491 8.23C17.848 7.788 17.097 7.554 16.318 7.554C16.164 7.554 16.008 7.564 15.854 7.582C14.925 7.695 14.071 8.143 13.448 8.844C13.074 9.266 12.802 9.761 12.643 10.291L11.137 9.606L11.913 8.83C12.206 8.537 12.206 8.062 11.913 7.769C11.62 7.476 11.145 7.476 10.852 7.769L9.679 8.943L8.594 8.45L9.447 7.597C9.74 7.304 9.74 6.829 9.447 6.536C9.154 6.243 8.679 6.243 8.386 6.536L7.136 7.787L4.347 6.519C4.116 6.383 3.929 6.19 3.784 5.967H20.5V10.389C20.5 10.455 20.475 10.516 20.429 10.562Z" fill="#1B1A16"/>
</svg>
