<svg width="24" height="24" viewBox="0 0 24 24" fill="none" xmlns="http://www.w3.org/2000/svg">
<path fill-rule="evenodd" clip-rule="evenodd" d="M2.25 12C2.25 6.61522 6.61522 2.25 12 2.25C17.3848 2.25 21.75 6.61522 21.75 12C21.75 17.3848 17.3848 21.75 12 21.75C6.61522 21.75 2.25 17.3848 2.25 12ZM12 3.75C10.1243 3.75 8.39486 4.37594 7.00907 5.43034C8.59035 7.1634 9.55468 9.46909 9.55468 12C9.55468 14.5309 8.59035 16.8366 7.00907 18.5697C8.39486 19.6241 10.1243 20.25 12 20.25C13.8791 20.25 15.6116 19.6217 16.9986 18.5638C15.4205 16.8314 14.4584 14.5281 14.4584 12C14.4584 9.47194 15.4205 7.16861 16.9986 5.43621C15.6116 4.37827 13.8791 3.75 12 3.75ZM18.1042 6.45002C16.771 7.91544 15.9584 9.86282 15.9584 12C15.9584 14.1372 16.771 16.0846 18.1042 17.55C19.4373 16.0846 20.25 14.1372 20.25 12C20.25 9.86282 19.4373 7.91544 18.1042 6.45002ZM3.75 12C3.75 9.85933 4.56531 7.90908 5.90234 6.44285C7.23937 7.90908 8.05468 9.85933 8.05468 12C8.05468 14.1407 7.23937 16.0909 5.90234 17.5572C4.56531 16.0909 3.75 14.1407 3.75 12Z" fill="#1B1A16"/>
</svg>
