<svg width="24" height="24" viewBox="0 0 24 24" fill="none" xmlns="http://www.w3.org/2000/svg">
<path fill-rule="evenodd" clip-rule="evenodd" d="M13.8734 2.00035C13.8581 1.99988 13.8428 1.99988 13.8275 2.00035C12.1186 2.05266 10.4996 2.77855 9.32378 4.01973C8.15 5.25871 7.51279 6.91081 7.5504 8.61686V10.9527C7.40904 11.1683 7.27909 11.3907 7.16092 11.6189C7.14519 11.6455 7.13105 11.6732 7.11864 11.7018C6.8942 12.1486 6.71462 12.617 6.58279 13.1H5.11117C4.6179 13.0999 4.13552 13.2461 3.72534 13.5201C3.31511 13.7941 2.99537 14.1837 2.80657 14.6394C2.61777 15.0952 2.56838 15.5968 2.66465 16.0806C2.76092 16.5644 2.99858 17.0089 3.34743 17.3577L6.34634 20.3566C6.41589 20.7564 6.60707 21.1283 6.89792 21.4191C7.26987 21.7911 7.77434 22 8.30035 22H19.4004C19.9264 22 20.4309 21.7911 20.8028 21.4191C21.1748 21.0472 21.3837 20.5427 21.3837 20.0167V15.0834C21.3837 13.8979 21.1043 12.7412 20.5819 11.7014C20.5696 11.6731 20.5556 11.6456 20.54 11.6192C20.4218 11.391 20.2918 11.1686 20.1504 10.9529V8.61686C20.1881 6.91082 19.5508 5.25871 18.3771 4.01973C17.2012 2.77855 15.5823 2.05266 13.8734 2.00035ZM18.6504 9.27727V8.60833L18.6506 8.59075C18.6814 7.27736 18.1917 6.00507 17.2881 5.05135C16.3899 4.10318 15.1551 3.54636 13.8504 3.5004C12.5457 3.54636 11.311 4.10318 10.4127 5.05135C9.50918 6.00507 9.0194 7.27736 9.0502 8.59075L9.0504 8.60833V9.27719C9.91411 8.56312 10.9228 8.05378 12.0001 7.78079C11.913 7.55512 11.8671 7.31328 11.8671 7.06671C11.8671 6.54069 12.076 6.03623 12.448 5.66428C12.8199 5.29233 13.3244 5.08337 13.8504 5.08337C14.3764 5.08337 14.8809 5.29233 15.2528 5.66428C15.6248 6.03623 15.8337 6.54069 15.8337 7.06671C15.8337 7.31328 15.7878 7.55513 15.7007 7.78081C16.7781 8.05381 17.7867 8.56317 18.6504 9.27727ZM13.8504 6.58337C13.7222 6.58337 13.5993 6.6343 13.5086 6.72494C13.418 6.81558 13.3671 6.93852 13.3671 7.06671C13.3671 7.19489 13.418 7.31783 13.5086 7.40847C13.5993 7.49912 13.7222 7.55004 13.8504 7.55004C13.9786 7.55004 14.1015 7.49912 14.1922 7.40847C14.2828 7.31783 14.3337 7.19489 14.3337 7.06671C14.3337 6.93852 14.2828 6.81558 14.1922 6.72494C14.1015 6.6343 13.9786 6.58337 13.8504 6.58337ZM9.58414 10.8172C10.7156 9.6857 12.2502 9.05005 13.8504 9.05005C15.4505 9.05005 16.9851 9.6857 18.1166 10.8172C18.255 10.9556 18.3861 11.1001 18.5094 11.25H9.19133C9.31467 11.1001 9.4457 10.9556 9.58414 10.8172ZM8.2865 12.75C7.97954 13.4819 7.81702 14.2743 7.81702 15.0834V20.0066L7.81706 20.023C7.81869 20.1489 7.86942 20.2693 7.95858 20.3585C8.04923 20.4491 8.17216 20.5 8.30035 20.5H19.4004C19.5286 20.5 19.6515 20.4491 19.7422 20.3585C19.8328 20.2678 19.8837 20.1449 19.8837 20.0167V15.0834C19.8837 14.2743 19.7212 13.4819 19.4142 12.75H8.2865ZM6.31702 18.2059V15.0834C6.31702 14.9216 6.32222 14.7604 6.33253 14.6H5.11101C4.9144 14.5999 4.72203 14.6582 4.55854 14.7674C4.39505 14.8766 4.26762 15.0319 4.19237 15.2135C4.11712 15.3952 4.09744 15.595 4.13581 15.7879C4.17418 15.9807 4.26888 16.1578 4.40792 16.2968L6.31702 18.2059Z" fill="#1B1A16"/>
</svg>
