<svg width="24" height="24" viewBox="0 0 24 24" fill="none" xmlns="http://www.w3.org/2000/svg">
<path d="M10.1501 17.066C11.0091 17.066 11.8171 16.731 12.4251 16.124C13.0241 15.526 13.3671 14.697 13.3671 13.85C13.3671 12.992 13.0321 12.183 12.4251 11.576C11.2111 10.36 9.09113 10.36 7.87613 11.576C7.26913 12.183 6.93413 12.991 6.93413 13.85C6.93413 14.698 7.27713 15.527 7.87613 16.124C8.48313 16.731 9.29113 17.066 10.1501 17.066ZM8.93613 12.637C9.26013 12.312 9.69113 12.134 10.1501 12.134C10.6091 12.134 11.0401 12.313 11.3641 12.637C11.6881 12.961 11.8671 13.392 11.8671 13.85C11.8671 14.302 11.6841 14.745 11.3641 15.064C10.7161 15.712 9.58413 15.712 8.93613 15.064C8.61713 14.745 8.43413 14.302 8.43413 13.85C8.43413 13.392 8.61213 12.96 8.93613 12.637Z" fill="#1B1A16"/>
<path d="M21.8141 10.639C21.6131 9.921 21.2501 9.245 20.7631 8.684C20.2761 8.121 19.6591 7.664 18.9801 7.365C18.2971 7.064 17.5301 6.917 16.8031 6.934C16.2981 6.947 15.7951 7.043 15.3151 7.205C14.0961 5.035 12.5861 3.634 10.9191 3.31V2.75C10.9191 2.336 10.5831 2 10.1691 2C9.75513 2 9.41913 2.336 9.41913 2.75V3.31C7.54513 3.666 5.83113 5.352 4.50613 8.167H2.75013C2.50913 8.167 2.28213 8.283 2.14113 8.479C2.00013 8.674 1.96213 8.926 2.03913 9.154L3.08013 12.266C2.55613 14.385 2.23713 16.556 2.10613 18.734C2.10513 18.752 2.09613 18.765 2.09613 18.783C2.09613 18.793 2.10113 18.802 2.10213 18.811C2.08013 19.191 2.05113 19.571 2.04113 19.951C2.03213 20.219 2.07713 20.48 2.17313 20.73C2.27013 20.98 2.41313 21.205 2.59913 21.397C2.78513 21.588 3.00413 21.739 3.25013 21.842C3.49713 21.947 3.75713 22 4.02413 22H16.3161C16.5841 22 16.8441 21.947 17.0901 21.843C17.3351 21.739 17.5551 21.589 17.7411 21.396C17.9271 21.204 18.0701 20.98 18.1661 20.731C18.2631 20.481 18.3071 20.218 18.2981 19.953C18.2861 19.566 18.2601 19.19 18.2371 18.811C18.2381 18.801 18.2431 18.793 18.2431 18.784C18.2431 18.767 18.2351 18.754 18.2331 18.738C18.1961 18.123 18.1461 17.519 18.0831 16.927C18.5571 16.816 19.0181 16.644 19.4401 16.404C20.0851 16.037 20.6521 15.52 21.0811 14.909C21.5091 14.299 21.8011 13.589 21.9261 12.856C22.0521 12.122 22.0141 11.356 21.8141 10.639ZM10.1691 4.733C11.6401 4.733 13.0311 6.023 14.1571 8.166H6.18513C7.35113 5.971 8.77113 4.733 10.1691 4.733ZM14.8391 9.667C15.7531 11.933 16.4121 14.825 16.6801 18.034H3.64913C3.80713 16.14 4.12013 14.26 4.58713 12.42C4.62213 12.281 4.61713 12.134 4.57113 11.998L3.79113 9.666L14.8391 9.667ZM16.7691 20.189C16.7451 20.251 16.7101 20.305 16.6651 20.352C16.6191 20.4 16.5661 20.436 16.5081 20.461C16.4471 20.486 16.3841 20.499 16.3181 20.499H4.02413C3.95913 20.499 3.89513 20.486 3.83513 20.461C3.77513 20.436 3.72013 20.398 3.67613 20.353C3.63213 20.307 3.59513 20.25 3.57213 20.189C3.54913 20.129 3.53813 20.064 3.54013 19.995C3.54413 19.841 3.55913 19.687 3.56513 19.533H16.7741C16.7811 19.69 16.7941 19.844 16.7981 20.002C16.8021 20.066 16.7911 20.131 16.7691 20.189ZM20.4481 12.604C20.3601 13.119 20.1541 13.619 19.8531 14.048C19.5511 14.478 19.1521 14.842 18.6991 15.099C18.4451 15.244 18.1711 15.348 17.8891 15.427C17.5021 12.856 16.8681 10.57 16.0451 8.687C16.0301 8.645 16.0151 8.606 15.9931 8.567C16.2701 8.491 16.5551 8.442 16.8411 8.434C17.3601 8.419 17.8951 8.525 18.3741 8.737C18.8521 8.948 19.2851 9.269 19.6301 9.666C19.9721 10.061 20.2271 10.537 20.3681 11.041C20.5101 11.546 20.5371 12.086 20.4481 12.604Z" fill="#1B1A16"/>
</svg>
