<svg width="24" height="24" viewBox="0 0 24 24" fill="none" xmlns="http://www.w3.org/2000/svg">
<path fill-rule="evenodd" clip-rule="evenodd" d="M11.9729 5.067C11.3983 5.067 10.9325 5.53277 10.9325 6.10733C10.9325 6.68189 11.3983 7.14766 11.9729 7.14766C12.5474 7.14766 13.0132 6.68189 13.0132 6.10733C13.0132 5.53277 12.5474 5.067 11.9729 5.067ZM9.43254 6.10733C9.43254 4.70435 10.5699 3.567 11.9729 3.567C13.3758 3.567 14.5132 4.70435 14.5132 6.10733C14.5132 6.60661 14.3692 7.07225 14.1204 7.46496C16.2887 8.06914 18.0676 9.5884 18.9704 11.5747H20.165C21.1784 11.5747 22 12.3962 22 13.4097V15.9596C22 16.3738 21.6642 16.7096 21.25 16.7096C20.8358 16.7096 20.5 16.3738 20.5 15.9596V13.4097C20.5 13.2247 20.35 13.0747 20.165 13.0747H19.4614C19.5606 13.5506 19.6128 14.0436 19.6128 14.549C19.6128 16.7958 18.5757 18.9262 16.9281 20.2821C16.7939 20.3926 16.6254 20.453 16.4515 20.453H7.60247C7.42861 20.453 7.26014 20.3926 7.12589 20.2821C5.57118 19.0026 4.56007 17.0335 4.45103 14.9277L2.23966 12.8743C1.93613 12.5924 1.91856 12.1179 2.20041 11.8143C2.48226 11.5108 2.95681 11.4932 3.26034 11.7751L4.60375 13.0225C5.17759 10.371 7.21624 8.25781 9.84214 7.49108C9.58306 7.09296 9.43254 6.61772 9.43254 6.10733ZM17.2735 11.5747C16.2191 9.848 14.2734 8.68023 12.027 8.68023C9.78063 8.68023 7.83492 9.848 6.78057 11.5747H17.2735ZM6.13546 13.0747H17.9186C18.0454 13.5465 18.1128 14.0406 18.1128 14.549C18.1128 16.2527 17.3618 17.8754 16.1728 18.953H7.88124C6.69221 17.8754 5.94122 16.2527 5.94122 14.549C5.94122 14.0406 6.00862 13.5465 6.13546 13.0747Z" fill="#1B1A16"/>
</svg>
