<svg width="24" height="24" viewBox="0 0 24 24" fill="none" xmlns="http://www.w3.org/2000/svg">
<path fill-rule="evenodd" clip-rule="evenodd" d="M12.9961 2.19803C12.5211 2.0012 11.9984 1.94965 11.4941 2.04988C10.9897 2.1501 10.5265 2.39761 10.1628 2.76112C9.79915 3.12462 9.55143 3.58778 9.45098 4.09206C9.35053 4.59633 9.40185 5.11907 9.59846 5.59418C9.79507 6.06928 10.1281 6.47543 10.5556 6.76126C10.6887 6.85028 10.8291 6.92638 10.9748 6.98898C9.47066 7.14473 7.68668 7.63123 6.15839 8.495C4.26086 9.56746 2.6167 11.3143 2.6167 13.85C2.6167 14.376 2.82566 14.8805 3.1976 15.2524C3.56955 15.6244 4.07402 15.8333 4.60003 15.8333H5.08337V21.25C5.08337 21.6642 5.41916 22 5.83337 22H18.1667C18.5809 22 18.9167 21.6642 18.9167 21.25V15.8333H19.4C19.926 15.8333 20.4305 15.6244 20.8024 15.2524C21.1744 14.8805 21.3833 14.376 21.3833 13.85C21.3833 11.3143 19.7392 9.56746 17.8416 8.495C16.219 7.57793 14.3082 7.08613 12.7501 6.96391V6.45C12.7501 6.03592 12.4145 5.70018 12.0004 5.7C11.7828 5.6999 11.5702 5.63531 11.3894 5.51438C11.2086 5.39345 11.0677 5.22162 10.9845 5.02061C10.9013 4.81961 10.8796 4.59845 10.9221 4.3851C10.9646 4.17175 11.0694 3.9758 11.2232 3.82201C11.3771 3.66822 11.5731 3.56351 11.7865 3.5211C11.9998 3.4787 12.221 3.50051 12.4219 3.58378C12.6229 3.66705 12.7947 3.80804 12.9155 3.98892C13.0364 4.16981 13.1009 4.38246 13.1009 4.6C13.1009 5.01421 13.4367 5.35 13.8509 5.35C14.2651 5.35 14.6009 5.01421 14.6009 4.6C14.6009 4.08582 14.4484 3.58318 14.1628 3.15564C13.8771 2.7281 13.4711 2.39485 12.9961 2.19803ZM6.89644 9.80086C5.24794 10.7326 4.1167 12.0691 4.1167 13.85C4.1167 13.9782 4.16762 14.1011 4.25826 14.1918C4.34891 14.2824 4.47184 14.3333 4.60003 14.3333H5.08337V13.85C5.08337 13.324 5.29233 12.8196 5.66428 12.4476C6.03622 12.0757 6.54069 11.8667 7.0667 11.8667H16.9333C17.4594 11.8667 17.9638 12.0757 18.3358 12.4476C18.7077 12.8196 18.9167 13.324 18.9167 13.85V14.3333H19.4C19.5282 14.3333 19.6511 14.2824 19.7418 14.1918C19.8324 14.1011 19.8833 13.9782 19.8833 13.85C19.8833 12.0691 18.7521 10.7326 17.1036 9.80086C15.4518 8.86733 13.4223 8.43335 12 8.43335C10.5777 8.43335 8.54818 8.86733 6.89644 9.80086ZM17.4167 15.0833L17.4167 15.0787V13.85C17.4167 13.7218 17.3658 13.5989 17.2751 13.5083C17.1845 13.4176 17.0615 13.3667 16.9333 13.3667H7.0667C6.93852 13.3667 6.81558 13.4176 6.72494 13.5083C6.6343 13.5989 6.58337 13.7218 6.58337 13.85V20.5H17.4167V15.088L17.4167 15.0833Z" fill="#1B1A16"/>
</svg>
