<svg width="24" height="24" viewBox="0 0 24 24" fill="none" xmlns="http://www.w3.org/2000/svg">
<path fill-rule="evenodd" clip-rule="evenodd" d="M16.2991 2.00413C17.0874 2.0007 17.8495 2.28685 18.4408 2.8083C18.7514 3.08229 18.7811 3.55623 18.5072 3.86688C18.2332 4.17754 17.7592 4.20727 17.4486 3.93329C17.1369 3.65839 16.7362 3.50602 16.321 3.50412C16.3196 3.50412 16.3181 3.50413 16.3167 3.50413H16.3028L16.3002 3.50413C15.8449 3.50413 15.4083 3.68499 15.0864 4.00693C14.7644 4.32887 14.5836 4.7655 14.5836 5.22079V5.70412H18.18C18.4758 4.98058 19.1867 4.47079 20.0167 4.47079C21.112 4.47079 22 5.35875 22 6.45412C22 7.54948 21.112 8.43745 20.0167 8.43745C19.1867 8.43745 18.4758 7.92765 18.18 7.20412H14.5836V11.8472C14.5943 11.8978 14.6 11.9503 14.6 12.0041V15.5708H17.5336C17.6617 15.5708 17.7847 15.5198 17.8753 15.4292C17.966 15.3386 18.0169 15.2156 18.0169 15.0874V9.53744C18.0169 9.12323 18.3527 8.78744 18.7669 8.78744C19.1811 8.78744 19.5169 9.12323 19.5169 9.53744V15.0874C19.5169 15.6134 19.3079 16.1179 18.936 16.4899C18.564 16.8618 18.0596 17.0708 17.5336 17.0708H14.6V20.0125C14.6 20.5385 14.391 21.043 14.0191 21.4149C13.6471 21.7869 13.1427 21.9959 12.6167 21.9959H5.83335C5.30962 21.9959 4.80715 21.7887 4.43558 21.4196C4.06401 21.0505 3.85351 20.5495 3.85002 20.0257L3.85 20.0207V7.20412H2.75C2.33579 7.20412 2 6.86833 2 6.45412C2 6.0399 2.33579 5.70412 2.75 5.70412H3.85V5.22079C3.85 4.36767 4.1889 3.5495 4.79214 2.94626C5.39538 2.34302 6.21355 2.00413 7.06667 2.00413H16.2991ZM13.5799 3.50413H7.06667C6.61138 3.50413 6.17474 3.68499 5.8528 4.00693C5.53086 4.32886 5.35 4.7655 5.35 5.22079V13.1041H13.0836V5.22079C13.0836 4.60837 13.2582 4.01395 13.5799 3.50413ZM13.0836 14.6041H5.35V16.393H13.087C13.0847 16.3692 13.0836 16.3451 13.0836 16.3208V14.6041ZM13.1 17.893H5.35V20.0177C5.35135 20.1446 5.40259 20.2659 5.49268 20.3554C5.58323 20.4454 5.70568 20.4959 5.83333 20.4959H12.6167C12.7449 20.4959 12.8678 20.4449 12.9584 20.3543C13.0491 20.2636 13.1 20.1407 13.1 20.0125V17.893ZM20.0167 5.97079C19.7497 5.97079 19.5333 6.18718 19.5333 6.45412C19.5333 6.72105 19.7497 6.93745 20.0167 6.93745C20.2836 6.93745 20.5 6.72105 20.5 6.45412C20.5 6.18718 20.2836 5.97079 20.0167 5.97079Z" fill="#1B1A16"/>
</svg>
