<svg width="24" height="24" viewBox="0 0 24 24" fill="none" xmlns="http://www.w3.org/2000/svg">
<path fill-rule="evenodd" clip-rule="evenodd" d="M13.1879 15.565C13.5258 14.1511 14.7976 13.1 16.315 13.1C18.0906 13.1 19.53 14.5394 19.53 16.315C19.53 18.0906 18.0906 19.53 16.315 19.53C14.7976 19.53 13.5258 18.4788 13.1879 17.065H12.6C12.1858 17.065 11.85 16.7292 11.85 16.315C11.85 15.9008 12.1858 15.565 12.6 15.565H13.1879ZM16.315 14.6C15.3678 14.6 14.6 15.3678 14.6 16.315C14.6 17.2621 15.3678 18.03 16.315 18.03C17.2622 18.03 18.03 17.2621 18.03 16.315C18.03 15.3678 17.2622 14.6 16.315 14.6Z" fill="#1B1A16"/>
<path fill-rule="evenodd" clip-rule="evenodd" d="M8.1 2C6.66406 2 5.5 3.16406 5.5 4.6C5.5 5.77519 6.27969 6.76828 7.35 7.09019V9.49172C6.18359 9.7751 5.26335 10.6878 4.96919 11.85H3.95C2.87304 11.85 2 12.723 2 13.8V15.95C2 17.0269 2.87305 17.9 3.95 17.9H4.87V20C4.87 21.1046 5.76543 22 6.87 22H20C21.1046 22 22 21.1046 22 20V12.65C22 11.1239 20.9482 9.84352 19.53 9.49417V7.11017C20.6361 6.81125 21.45 5.80067 21.45 4.6C21.45 3.16406 20.2859 2 18.85 2H8.1ZM4.87 16.4V13.35H3.95C3.70147 13.35 3.5 13.5514 3.5 13.8V15.95C3.5 16.1985 3.70147 16.4 3.95 16.4H4.87ZM18.03 9.39996V6.45C18.03 6.03579 18.3658 5.7 18.78 5.7H18.85C19.4575 5.7 19.95 5.20751 19.95 4.6C19.95 3.99249 19.4575 3.5 18.85 3.5H8.1C7.49249 3.5 7 3.99249 7 4.6C7 5.20751 7.49249 5.7 8.1 5.7C8.51421 5.7 8.85 6.03579 8.85 6.45V9.39996H18.03ZM6.37 12.65C6.37 11.6835 7.1535 10.9 8.12 10.9H18.75C19.7165 10.9 20.5 11.6835 20.5 12.65V20C20.5 20.2761 20.2761 20.5 20 20.5H6.87C6.59385 20.5 6.37 20.2761 6.37 20V12.65Z" fill="#1B1A16"/>
</svg>
