<svg width="24" height="24" viewBox="0 0 24 24" fill="none" xmlns="http://www.w3.org/2000/svg">
<path fill-rule="evenodd" clip-rule="evenodd" d="M21.764 2.20385C22.0656 2.48774 22.08 2.96239 21.7961 3.26403L9.44048 16.3919C9.56408 16.4759 9.68038 16.5719 9.78757 16.6791C10.156 17.0475 10.3919 17.5236 10.4648 18.0333H12.2056C12.7316 18.0333 13.236 18.2423 13.608 18.6142C13.9799 18.9862 14.1889 19.4907 14.1889 20.0167C14.1889 20.5427 13.9799 21.0472 13.608 21.4191C13.236 21.791 12.7316 22 12.2056 22H3.98333C3.45732 22 2.95285 21.791 2.5809 21.4191C2.20896 21.0472 2 20.5427 2 20.0167C2 19.4907 2.20896 18.9862 2.5809 18.6142C2.95285 18.2423 3.45732 18.0333 3.98333 18.0333H5.72409C5.79697 17.5236 6.03292 17.0475 6.40131 16.6791C6.76752 16.3129 7.24013 16.0776 7.74647 16.0032L20.7038 2.23598C20.9877 1.93435 21.4624 1.91996 21.764 2.20385ZM8.09444 17.4778C7.85722 17.4778 7.62972 17.572 7.46197 17.7398C7.29423 17.9075 7.2 18.135 7.2 18.3722V18.7833C7.2 19.1975 6.86421 19.5333 6.45 19.5333H3.98333C3.85515 19.5333 3.73221 19.5843 3.64157 19.6749C3.55092 19.7655 3.5 19.8885 3.5 20.0167C3.5 20.1449 3.55092 20.2678 3.64157 20.3584C3.73221 20.4491 3.85514 20.5 3.98333 20.5H12.2056C12.3337 20.5 12.4567 20.4491 12.5473 20.3584C12.638 20.2678 12.6889 20.1449 12.6889 20.0167C12.6889 19.8885 12.638 19.7655 12.5473 19.6749C12.4567 19.5843 12.3337 19.5333 12.2056 19.5333H9.73888C9.32467 19.5333 8.98888 19.1975 8.98888 18.7833V18.3722C8.98888 18.135 8.89465 17.9075 8.72691 17.7398C8.55917 17.572 8.33166 17.4778 8.09444 17.4778ZM14.7444 19.1944C14.7444 18.7802 15.0802 18.4444 15.4944 18.4444H16.7278C17.142 18.4444 17.4778 18.7802 17.4778 19.1944C17.4778 19.6087 17.142 19.9444 16.7278 19.9444H15.4944C15.0802 19.9444 14.7444 19.6087 14.7444 19.1944ZM18.0333 19.1944C18.0333 18.7802 18.3691 18.4444 18.7833 18.4444H19.1944C19.6086 18.4444 19.9444 18.7802 19.9444 19.1944C19.9444 19.6087 19.6086 19.9444 19.1944 19.9444H18.7833C18.3691 19.9444 18.0333 19.6087 18.0333 19.1944ZM14.7444 21.25C14.7444 20.8358 15.0802 20.5 15.4944 20.5H18.7833C19.1975 20.5 19.5333 20.8358 19.5333 21.25C19.5333 21.6642 19.1975 22 18.7833 22H15.4944C15.0802 22 14.7444 21.6642 14.7444 21.25ZM20.0889 21.25C20.0889 20.8358 20.4247 20.5 20.8389 20.5H21.25C21.6642 20.5 22 20.8358 22 21.25C22 21.6642 21.6642 22 21.25 22H20.8389C20.4247 22 20.0889 21.6642 20.0889 21.25Z" fill="#1B1A16"/>
</svg>
