<svg width="24" height="24" viewBox="0 0 24 24" fill="none" xmlns="http://www.w3.org/2000/svg">
<path fill-rule="evenodd" clip-rule="evenodd" d="M9.53275 2C9.94696 2 10.2827 2.33579 10.2827 2.75V4.47502C10.5476 4.49935 10.8056 4.57651 11.0411 4.70263C11.3305 4.85753 11.5771 5.08148 11.7591 5.35459L11.9994 5.71471L12.2392 5.35517C12.4213 5.08179 12.668 4.85764 12.9576 4.70263C13.1932 4.5765 13.4512 4.49933 13.7161 4.47501V2.75C13.7161 2.33579 14.0519 2 14.4661 2C14.8803 2 15.2161 2.33579 15.2161 2.75V4.78836C15.6132 4.99457 15.9566 5.29115 16.2183 5.65432C16.4832 6.02186 16.657 6.44708 16.7254 6.89495C16.7937 7.34281 16.7547 7.80052 16.6115 8.23035L16.0115 10.0305L18.7259 19.1751C18.8287 19.5445 18.7913 19.939 18.621 20.2826C18.4506 20.6262 18.1593 20.8947 17.803 21.0366C17.7909 21.0414 17.7786 21.046 17.7661 21.0502C14.0265 22.3166 9.97397 22.3166 6.23435 21.0502C6.22237 21.0461 6.21051 21.0417 6.19875 21.0371C5.84166 20.8957 5.54962 20.627 5.37903 20.2828C5.20844 19.9387 5.17139 19.5436 5.27503 19.1738L5.2781 19.1628L6.08189 16.4537C6.08461 16.4438 6.08755 16.4339 6.0907 16.424L7.98733 10.0308L7.38724 8.23048C7.24405 7.80064 7.20498 7.34281 7.27335 6.89495C7.34171 6.44708 7.51551 6.02186 7.78041 5.65432C8.04219 5.29113 8.38553 4.99453 8.78275 4.78831V2.75C8.78275 2.33579 9.11853 2 9.53275 2ZM9.28627 10.9263L7.72562 16.187C10.4998 17.1119 13.5001 17.1118 16.2742 16.1867L14.7127 10.9263C12.9217 11.2848 11.0773 11.2848 9.28627 10.9263ZM14.6373 9.40953L15.1884 7.75626C15.2565 7.55188 15.2751 7.33425 15.2426 7.12129C15.2101 6.90833 15.1274 6.70615 15.0015 6.53138C14.8755 6.35662 14.7098 6.21429 14.5181 6.11611C14.3263 6.01792 14.114 5.9667 13.8986 5.96666C13.8173 5.96664 13.7372 5.9867 13.6655 6.02505C13.5939 6.06341 13.5328 6.11887 13.4878 6.18652L13.1364 6.71315C13.0116 6.90032 12.8425 7.05379 12.6442 7.15994C12.4458 7.26608 12.2243 7.32162 11.9994 7.32162C11.7744 7.32162 11.5529 7.26608 11.3545 7.15994C11.1563 7.05382 10.9872 6.90041 10.8624 6.71331C10.8624 6.71326 10.8625 6.71337 10.8624 6.71331L10.5113 6.18709C10.4663 6.11945 10.4048 6.06341 10.3332 6.02505C10.2615 5.9867 10.1815 5.96664 10.1003 5.96666C9.88484 5.9667 9.67242 6.01792 9.48067 6.11611C9.28892 6.21429 9.12324 6.35662 8.99728 6.53138C8.87132 6.70615 8.78868 6.90833 8.75617 7.12129C8.72367 7.3342 8.74221 7.55179 8.81026 7.75614C8.81025 7.75609 8.81028 7.75618 8.81026 7.75614L9.36139 9.40953C11.0994 9.7904 12.8994 9.7904 14.6373 9.40953ZM16.7012 17.6254C13.6483 18.6322 10.3518 18.6323 7.29879 17.6258L6.71881 19.5808C6.716 19.5928 6.71745 19.6055 6.72296 19.6166C6.72763 19.626 6.73496 19.6338 6.74397 19.639C10.1538 20.7869 13.8457 20.787 17.2556 19.6394C17.2648 19.634 17.2722 19.626 17.277 19.6163C17.2827 19.605 17.2842 19.5921 17.2814 19.5798L16.7012 17.6254ZM11.8885 5.88081C11.8885 5.88083 11.8886 5.8808 11.8885 5.88081V5.88081Z" fill="#1B1A16"/>
</svg>
