<svg width="24" height="24" viewBox="0 0 24 24" fill="none" xmlns="http://www.w3.org/2000/svg">
<path d="M21.986 14.072C21.923 13.223 21.645 12.396 21.184 11.679C20.723 10.962 20.085 10.367 19.34 9.95602C18.594 9.54502 17.749 9.32502 16.827 9.31902H12.73V8.83802C12.731 8.25002 12.618 7.67601 12.394 7.13401C12.169 6.59001 11.845 6.10301 11.43 5.69001C11.015 5.27401 10.529 4.95001 9.98497 4.72601C9.44597 4.50301 8.87597 4.39001 8.29197 4.39001C8.28897 4.39001 8.28597 4.39001 8.28297 4.39001H7.05097C6.63697 4.39001 6.30097 4.72601 6.30097 5.14001C6.30097 5.55401 6.63697 5.89001 7.05097 5.89001H8.28497C8.67597 5.85001 9.05397 5.96401 9.41297 6.11301C9.77297 6.26201 10.095 6.47601 10.37 6.75201C10.644 7.02601 10.859 7.34801 11.008 7.70901C11.156 8.06801 11.231 8.44702 11.23 8.83802V9.32001H7.12997C6.27597 9.32201 5.42797 9.54001 4.67797 9.95001C3.92797 10.36 3.28597 10.956 2.82297 11.675C2.35997 12.392 2.07997 13.222 2.01497 14.076C1.94997 14.927 2.10097 15.79 2.45097 16.57C2.80097 17.35 3.34497 18.037 4.02397 18.554C4.70297 19.073 5.50797 19.416 6.35397 19.549C6.61597 19.59 6.87997 19.61 7.14397 19.61C7.73597 19.61 8.31797 19.509 8.87597 19.31C9.57197 19.062 10.21 18.664 10.739 18.148H13.291C13.818 18.658 14.455 19.053 15.152 19.3C15.957 19.583 16.82 19.663 17.665 19.53C18.509 19.396 19.311 19.052 19.983 18.536C20.662 18.018 21.203 17.334 21.55 16.557C21.898 15.78 22.05 14.921 21.986 14.072ZM20.181 15.945C19.935 16.495 19.552 16.978 19.072 17.346C18.595 17.711 18.028 17.953 17.43 18.048C16.829 18.144 16.219 18.087 15.652 17.886C15.082 17.684 14.567 17.341 14.165 16.895C14.023 16.738 13.82 16.648 13.608 16.648H10.42C10.207 16.648 10.004 16.739 9.86197 16.897C9.45697 17.348 8.94197 17.694 8.37197 17.898C7.80097 18.101 7.18597 18.163 6.58497 18.067C5.98597 17.973 5.41597 17.73 4.93397 17.362C4.45297 16.995 4.06697 16.509 3.81897 15.957C3.57097 15.403 3.46397 14.792 3.50997 14.188C3.55597 13.584 3.75397 12.996 4.08197 12.487C4.40997 11.978 4.86497 11.555 5.39597 11.265C5.92697 10.974 6.52797 10.82 7.13197 10.818H16.888C17.491 10.822 18.088 10.978 18.617 11.269C19.144 11.56 19.596 11.981 19.923 12.489C20.249 12.997 20.445 13.583 20.49 14.184C20.535 14.785 20.429 15.394 20.181 15.945Z" fill="#1B1A16"/>
<path d="M8.60397 13.715H7.88297V13.002C7.88297 12.588 7.54697 12.252 7.13297 12.252C6.71897 12.252 6.38297 12.588 6.38297 13.002V13.715H5.66997C5.25597 13.715 4.91997 14.051 4.91997 14.465C4.91997 14.879 5.25597 15.215 5.66997 15.215H6.38197V15.928C6.38197 16.342 6.71797 16.678 7.13197 16.678C7.54597 16.678 7.88197 16.342 7.88197 15.928V15.215H8.60297C9.01697 15.215 9.35297 14.879 9.35297 14.465C9.35297 14.051 9.01797 13.715 8.60397 13.715Z" fill="#1B1A16"/>
<path d="M15.584 14.389C15 14.39 14.525 14.864 14.525 15.448C14.525 16.032 15 16.506 15.583 16.507C16.167 16.506 16.642 16.032 16.642 15.448C16.642 14.864 16.168 14.39 15.584 14.389Z" fill="#1B1A16"/>
<path d="M17.834 14.311C18.4183 14.311 18.892 13.8373 18.892 13.253C18.892 12.6687 18.4183 12.195 17.834 12.195C17.2497 12.195 16.776 12.6687 16.776 13.253C16.776 13.8373 17.2497 14.311 17.834 14.311Z" fill="#1B1A16"/>
</svg>
