<svg width="24" height="24" viewBox="0 0 24 24" fill="none" xmlns="http://www.w3.org/2000/svg">
<path fill-rule="evenodd" clip-rule="evenodd" d="M8.23954 3.33061C9.30379 2.46969 10.6312 2 12.0001 2C13.369 2 14.6964 2.46969 15.7606 3.33061C16.0827 3.59113 16.1325 4.06337 15.872 4.38541C15.6115 4.70744 15.1393 4.75732 14.8172 4.49681C14.02 3.85186 13.0255 3.5 12.0001 3.5C10.9746 3.5 9.9802 3.85186 9.18294 4.49681C8.86091 4.75732 8.38866 4.70744 8.12815 4.38541C7.86763 4.06337 7.91751 3.59113 8.23954 3.33061ZM12.0001 6.37793C11.4735 6.37793 10.9628 6.55852 10.5534 6.88956C10.2312 7.14996 9.759 7.09993 9.49859 6.77781C9.23819 6.45569 9.28822 5.98345 9.61034 5.72305C10.2868 5.17623 11.1303 4.87793 12.0001 4.87793C12.8699 4.87793 13.7134 5.17623 14.3898 5.72305C14.7119 5.98345 14.7619 6.45569 14.5015 6.77781C14.2411 7.09993 13.7689 7.14996 13.4468 6.88956C13.0373 6.55852 12.5266 6.37793 12.0001 6.37793ZM3.50024 10.7669C3.50024 10.2729 3.90069 9.87244 4.39466 9.87244H19.6055C20.0995 9.87244 20.5 10.2729 20.5 10.7669V19.6056C20.5 20.0996 20.0995 20.5 19.6055 20.5H4.39466C3.90069 20.5 3.50024 20.0996 3.50024 19.6056V10.7669ZM4.39466 8.37244C3.07226 8.37244 2.00024 9.44445 2.00024 10.7669V19.6056C2.00024 20.928 3.07226 22 4.39466 22H19.6055C20.9279 22 22 20.928 22 19.6056V10.7669C22 9.44445 20.9279 8.37244 19.6055 8.37244H4.39466ZM5.70013 18.3723C5.70013 17.9581 6.03592 17.6223 6.45013 17.6223H7.68345C8.09766 17.6223 8.43345 17.9581 8.43345 18.3723C8.43345 18.7865 8.09766 19.1223 7.68345 19.1223H6.45013C6.03592 19.1223 5.70013 18.7865 5.70013 18.3723ZM11.3834 17.6223C10.9692 17.6223 10.6334 17.9581 10.6334 18.3723C10.6334 18.7865 10.9692 19.1223 11.3834 19.1223H12.6167C13.031 19.1223 13.3667 18.7865 13.3667 18.3723C13.3667 17.9581 13.031 17.6223 12.6167 17.6223H11.3834ZM15.5667 18.3723C15.5667 17.9581 15.9025 17.6223 16.3167 17.6223H17.55C17.9642 17.6223 18.3 17.9581 18.3 18.3723C18.3 18.7865 17.9642 19.1223 17.55 19.1223H16.3167C15.9025 19.1223 15.5667 18.7865 15.5667 18.3723ZM5.55573 14.0557C5.55573 13.5617 5.95617 13.1613 6.45014 13.1613C6.94412 13.1613 7.34456 13.5617 7.34456 14.0557C7.34456 14.5496 6.94412 14.9501 6.45014 14.9501C5.95617 14.9501 5.55573 14.5496 5.55573 14.0557ZM6.45014 11.6613C5.12774 11.6613 4.05573 12.7333 4.05573 14.0557C4.05573 15.3781 5.12774 16.4501 6.45014 16.4501C7.77255 16.4501 8.84456 15.3781 8.84456 14.0557C8.84456 12.7333 7.77255 11.6613 6.45014 11.6613ZM17.55 13.1613C17.056 13.1613 16.6556 13.5617 16.6556 14.0557C16.6556 14.5496 17.056 14.9501 17.55 14.9501C18.044 14.9501 18.4444 14.5496 18.4444 14.0557C18.4444 13.5617 18.044 13.1613 17.55 13.1613ZM15.1556 14.0557C15.1556 12.7333 16.2276 11.6613 17.55 11.6613C18.8724 11.6613 19.9444 12.7333 19.9444 14.0557C19.9444 15.3781 18.8724 16.4501 17.55 16.4501C16.2276 16.4501 15.1556 15.3781 15.1556 14.0557ZM10.9001 12.4112C10.9001 12.3713 10.9324 12.339 10.9723 12.339H13.0278C13.0677 12.339 13.1 12.3713 13.1 12.4112V15.2889C13.1 15.3288 13.0677 15.3611 13.0278 15.3611H10.9723C10.9324 15.3611 10.9001 15.3288 10.9001 15.2889V12.4112ZM10.9723 10.839C10.104 10.839 9.40009 11.5429 9.40009 12.4112V15.2889C9.40009 16.1572 10.104 16.8611 10.9723 16.8611H13.0278C13.8961 16.8611 14.6 16.1572 14.6 15.2889V12.4112C14.6 11.5429 13.8961 10.839 13.0278 10.839H10.9723Z" fill="#1B1A16"/>
</svg>
