<svg width="24" height="24" viewBox="0 0 24 24" fill="none" xmlns="http://www.w3.org/2000/svg">
<path d="M8.7547 9.25C8.7547 8.83579 8.41891 8.5 8.0047 8.5C7.59049 8.5 7.2547 8.83579 7.2547 9.25V9.75H6.7547C6.34049 9.75 6.0047 10.0858 6.0047 10.5C6.0047 10.9142 6.34049 11.25 6.7547 11.25H7.2547V11.75C7.2547 12.1642 7.59049 12.5 8.0047 12.5C8.41891 12.5 8.7547 12.1642 8.7547 11.75V11.25H9.2547C9.66891 11.25 10.0047 10.9142 10.0047 10.5C10.0047 10.0858 9.66891 9.75 9.2547 9.75H8.7547V9.25Z" fill="#1B1A16"/>
<path fill-rule="evenodd" clip-rule="evenodd" d="M14.25 10.5C14.25 9.53 15.03 8.75 16 8.75C16.97 8.75 17.75 9.53 17.75 10.5C17.75 11.47 16.97 12.25 16 12.25C15.03 12.25 14.25 11.47 14.25 10.5ZM16.25 10.5C16.25 10.36 16.14 10.25 16 10.25C15.86 10.25 15.75 10.36 15.75 10.5C15.75 10.64 15.86 10.75 16 10.75C16.14 10.75 16.25 10.64 16.25 10.5Z" fill="#1B1A16"/>
<path fill-rule="evenodd" clip-rule="evenodd" d="M7.99997 4.30493C6.93732 4.30493 5.73452 5.03797 4.71237 6.65402C3.68268 8.28199 2.76323 10.9022 2.25576 14.9619C2.12784 15.9853 2.085 16.8065 2.12104 17.4515C2.15598 18.0768 2.26878 18.6269 2.53008 19.0336C2.66851 19.2491 2.85582 19.435 3.09933 19.5558C3.34313 19.6767 3.59706 19.7093 3.83271 19.6898C4.27439 19.6532 4.68702 19.4313 5.02098 19.2018C5.70474 18.7319 6.43362 17.961 7.04435 17.2724C7.30393 16.9798 7.53929 16.7058 7.74962 16.461C8.06822 16.0902 8.3295 15.7861 8.53038 15.5852C8.53217 15.5836 8.55274 15.5652 8.60593 15.5358C8.66161 15.5051 8.73939 15.4699 8.84274 15.4329C9.05084 15.3583 9.32623 15.2893 9.65973 15.2313C10.3255 15.1156 11.1558 15.0549 12 15.0549C12.8442 15.0549 13.6745 15.1156 14.3402 15.2313C14.6737 15.2893 14.9491 15.3583 15.1572 15.4329C15.2606 15.4699 15.3383 15.5051 15.394 15.5358C15.4472 15.5652 15.4679 15.5837 15.4696 15.5853C15.6705 15.7861 15.9317 16.0901 16.2503 16.461C16.4606 16.7058 16.696 16.9798 16.9556 17.2724C17.5663 17.961 18.2952 18.7319 18.979 19.2018C19.3129 19.4313 19.7256 19.6532 20.1672 19.6898C20.4029 19.7093 20.6568 19.6767 20.9006 19.5558C21.1441 19.435 21.3314 19.2491 21.4699 19.0336C21.7312 18.6269 21.844 18.0768 21.8789 17.4515C21.9149 16.8065 21.8721 15.9853 21.7442 14.9619C21.2367 10.9022 20.3173 8.28199 19.2876 6.65402C18.2654 5.03797 17.0626 4.30493 16 4.30493C15.3792 4.30493 14.8881 4.4419 14.4583 4.6948C14.0711 4.92267 13.7621 5.23193 13.4975 5.49676L13.4696 5.5246C13.1421 5.85212 12.6011 6.05493 12 6.05493C11.3988 6.05493 10.8578 5.85212 10.5303 5.5246L10.5025 5.49676C10.2378 5.23192 9.92881 4.92266 9.5416 4.6948C9.11185 4.4419 8.62073 4.30493 7.99997 4.30493ZM3.74418 15.148C4.23672 11.2077 5.11227 8.82787 5.98007 7.45584C6.85542 6.0719 7.65263 5.80493 7.99997 5.80493C8.37922 5.80493 8.6031 5.88296 8.78084 5.98756C8.98748 6.10916 9.17041 6.28603 9.46964 6.58526C10.1421 7.25774 11.1011 7.55493 12 7.55493C12.8988 7.55493 13.8578 7.25774 14.5303 6.58526C14.8295 6.28603 15.0125 6.10916 15.2191 5.98756C15.3968 5.88296 15.6207 5.80493 16 5.80493C16.3473 5.80493 17.1445 6.0719 18.0199 7.45584C18.8877 8.82787 19.7632 11.2077 20.2558 15.148C20.3778 16.1246 20.4103 16.8474 20.3812 17.3678C20.3552 17.8341 20.2825 18.0741 20.2306 18.1814C20.155 18.158 20.023 18.0992 19.8285 17.9656C19.3135 17.6117 18.693 16.9707 18.0778 16.2771C17.8691 16.0419 17.6566 15.7949 17.4526 15.558C17.0964 15.1441 16.7666 14.7609 16.5303 14.5246C16.289 14.2833 15.9629 14.1281 15.663 14.0207C15.3477 13.9078 14.9825 13.8205 14.5972 13.7535C13.8255 13.6193 12.9058 13.5549 12 13.5549C11.0942 13.5549 10.1745 13.6193 9.40272 13.7535C9.01746 13.8205 8.65223 13.9078 8.3369 14.0207C8.03709 14.1281 7.71091 14.2833 7.46964 14.5246C7.23339 14.7609 6.90356 15.1441 6.54732 15.5579C6.34339 15.7949 6.1308 16.0419 5.92216 16.2771C5.30695 16.9707 4.68646 17.6117 4.17146 17.9656C3.97694 18.0992 3.8449 18.158 3.76929 18.1814C3.71747 18.0741 3.64476 17.8341 3.61871 17.3678C3.58963 16.8474 3.62211 16.1246 3.74418 15.148Z" fill="#1B1A16"/>
</svg>
