<svg width="24" height="24" viewBox="0 0 24 24" fill="none" xmlns="http://www.w3.org/2000/svg">
<path fill-rule="evenodd" clip-rule="evenodd" d="M12 2C12.4142 2 12.75 2.33579 12.75 2.75V5.90552H19.6056C20.928 5.90552 22 6.97755 22 8.29996V19.6055C22 20.9279 20.928 22 19.6056 22H15.9097C15.9083 22 15.9069 22 15.9056 22H8.09444C8.09305 22 8.09165 22 8.09025 22H4.39444C3.07203 22 2 20.9279 2 19.6055V8.29996C2 6.97755 3.07203 5.90552 4.39444 5.90552H11.25V2.75C11.25 2.33579 11.5858 2 12 2ZM8.84444 20.5H15.1556V16.9333C15.1556 16.9141 15.1479 16.8958 15.1344 16.8822C15.1209 16.8687 15.1025 16.8611 15.0833 16.8611H8.91666C8.89751 16.8611 8.87914 16.8687 8.8656 16.8822C8.85205 16.8958 8.84444 16.9142 8.84444 16.9333V20.5ZM16.6556 20.5V16.9333C16.6556 16.5163 16.4899 16.1164 16.1951 15.8216C15.9002 15.5267 15.5003 15.3611 15.0833 15.3611H8.91666C8.49969 15.3611 8.09978 15.5267 7.80493 15.8216C7.51009 16.1164 7.34444 16.5163 7.34444 16.9333V20.5H4.39444C3.90046 20.5 3.5 20.0995 3.5 19.6055V8.29996C3.5 7.80597 3.90046 7.40552 4.39444 7.40552H11.9924L12 7.40556L12.0076 7.40552H19.6056C20.0995 7.40552 20.5 7.80597 20.5 8.29996V19.6055C20.5 20.0995 20.0995 20.5 19.6056 20.5H16.6556ZM7.13892 9.8387C6.56666 10.1171 6.17226 10.7041 6.17226 11.3833C6.17226 12.3314 6.94084 13.1 7.88893 13.1C8.83702 13.1 9.6056 12.3314 9.6056 11.3833C9.6056 10.7041 9.21119 10.1171 8.63892 9.83869V10.9722C8.63892 11.3864 8.30313 11.7222 7.88892 11.7222C7.4747 11.7222 7.13892 11.3864 7.13892 10.9722V9.8387ZM7.88892 8.16663C6.11241 8.16663 4.67226 9.60678 4.67226 11.3833C4.67226 13.1598 6.11241 14.6 7.88893 14.6C9.66544 14.6 11.1056 13.1598 11.1056 11.3833C11.1056 9.60678 9.66544 8.16663 7.88893 8.16663H7.88892ZM16.8611 10.9722V9.83869C17.4334 10.1171 17.8278 10.7041 17.8278 11.3833C17.8278 12.3314 17.0592 13.1 16.1111 13.1C15.163 13.1 14.3944 12.3314 14.3944 11.3833C14.3944 10.7041 14.7888 10.1171 15.3611 9.8387V10.9722C15.3611 11.3864 15.6969 11.7222 16.1111 11.7222C16.5253 11.7222 16.8611 11.3864 16.8611 10.9722ZM12.8944 11.3833C12.8944 9.60678 14.3346 8.16663 16.1111 8.16663C17.8876 8.16663 19.3278 9.60678 19.3278 11.3833C19.3278 13.1598 17.8876 14.6 16.1111 14.6C14.3346 14.6 12.8944 13.1598 12.8944 11.3833ZM5.04273 15.194C4.64978 15.063 4.22504 15.2754 4.09405 15.6683C3.96306 16.0613 4.17543 16.486 4.56839 16.617L5.80172 17.0281C6.19468 17.1591 6.61942 16.9468 6.75041 16.5538C6.88139 16.1608 6.66902 15.7361 6.27607 15.6051L5.04273 15.194ZM5.04273 17.6607C4.64978 17.5297 4.22504 17.7421 4.09405 18.135C3.96306 18.528 4.17543 18.9527 4.56839 19.0837L5.80172 19.4948C6.19468 19.6258 6.61942 19.4134 6.75041 19.0205C6.88139 18.6275 6.66902 18.2028 6.27607 18.0718L5.04273 17.6607ZM19.906 15.6683C20.037 16.0613 19.8246 16.486 19.4316 16.617L18.1983 17.0281C17.8054 17.1591 17.3806 16.9468 17.2496 16.5538C17.1186 16.1608 17.331 15.7361 17.724 15.6051L18.9573 15.194C19.3503 15.063 19.775 15.2754 19.906 15.6683ZM19.4316 19.0837C19.8246 18.9527 20.037 18.528 19.906 18.135C19.775 17.7421 19.3503 17.5297 18.9573 17.6607L17.724 18.0718C17.331 18.2028 17.1186 18.6275 17.2496 19.0205C17.3806 19.4134 17.8054 19.6258 18.1983 19.4948L19.4316 19.0837Z" fill="#1B1A16"/>
</svg>
