<svg width="24" height="24" viewBox="0 0 24 24" fill="none" xmlns="http://www.w3.org/2000/svg">
<path fill-rule="evenodd" clip-rule="evenodd" d="M6.31986 2.74471C6.31986 2.33396 6.65284 2.00098 7.06359 2.00098H8.29759C9.60678 2.00098 10.7265 2.72627 11.4923 3.66848C12.2319 4.57839 12.7092 5.76717 12.7415 6.93697H17.5526C18.7317 6.93697 19.8625 7.40538 20.6962 8.23909C21.5299 9.07278 21.9983 10.2035 21.9983 11.3825L22 18.6259C21.9993 19.118 21.8909 19.6041 21.6824 20.05C21.4741 20.496 21.1707 20.891 20.7935 21.2073C20.4164 21.5236 19.9746 21.7538 19.4991 21.8814C19.0237 22.009 18.5262 22.0311 18.0414 21.9462L18.0238 21.9429C17.4686 21.8319 16.9487 21.5874 16.5091 21.2305C16.0789 20.8812 15.7381 20.4345 15.515 19.9274L13.968 17.0625H10.0323L8.42962 20.0466C8.09763 20.7604 7.52647 21.336 6.81469 21.6735C6.09516 22.0146 5.27815 22.0905 4.50802 21.8875C4.49996 21.8854 4.49193 21.8832 4.48395 21.8808C3.75204 21.6613 3.11257 21.2073 2.66394 20.5889C2.21722 19.9729 1.98434 19.2278 2.00082 18.4673V11.3827C2.00082 10.2037 2.4692 9.07285 3.30294 8.23911C4.13669 7.40537 5.26748 6.93697 6.44657 6.93697H11.2532C11.2206 6.13768 10.8827 5.27675 10.3381 4.6067C9.76405 3.90048 9.03274 3.48843 8.29759 3.48843H7.06359C6.65284 3.48843 6.31986 3.15546 6.31986 2.74471ZM11.9934 8.42443H6.44657C5.66198 8.42443 4.90953 8.73611 4.35473 9.2909C3.79995 9.84568 3.48828 10.5982 3.48828 11.3827V18.4758L3.48805 18.494C3.47736 18.9318 3.61084 19.3609 3.86801 19.7155C4.12271 20.0666 4.4847 20.3252 4.89916 20.4523C5.32635 20.5619 5.77862 20.5185 6.17745 20.3294C6.58001 20.1385 6.90214 19.8116 7.08693 19.4062C7.09363 19.3915 7.10081 19.377 7.10845 19.3628L8.93231 15.9669C9.0619 15.7256 9.31363 15.575 9.58752 15.575H14.4117C14.6849 15.575 14.9362 15.7249 15.0661 15.9654L16.839 19.2486C16.8497 19.2685 16.8595 19.2888 16.8684 19.3095C16.996 19.608 17.1945 19.871 17.4467 20.0758C17.6965 20.2785 17.9915 20.4181 18.3067 20.4826C18.5752 20.5283 18.8503 20.5154 19.1135 20.4448C19.3794 20.3734 19.6265 20.2447 19.8374 20.0677C20.0484 19.8909 20.2183 19.6698 20.3348 19.4204C20.4514 19.1711 20.5121 18.899 20.5125 18.6238L20.5109 11.3829C20.5109 10.5983 20.1992 9.84571 19.6445 9.29092C19.0896 8.7361 18.3372 8.42443 17.5526 8.42443H12.0057C12.0037 8.42445 12.0016 8.42446 11.9996 8.42446C11.9975 8.42446 11.9955 8.42445 11.9934 8.42443ZM17.1174 11.0742C17.1174 10.4933 17.5884 10.022 18.1696 10.022C18.7512 10.022 19.2218 10.4936 19.2218 11.0742C19.2218 11.6549 18.7513 12.1265 18.1696 12.1265C17.5882 12.1265 17.1174 11.6551 17.1174 11.0742ZM6.44653 10.6391C6.85728 10.6391 7.19026 10.972 7.19026 11.3828V11.873H7.68054C8.09129 11.873 8.42427 12.206 8.42427 12.6167C8.42427 13.0275 8.09129 13.3605 7.68054 13.3605H7.19026V13.8507C7.19026 14.2615 6.85728 14.5945 6.44653 14.5945C6.03578 14.5945 5.7028 14.2615 5.7028 13.8507V13.3605H5.21254C4.80179 13.3605 4.46881 13.0275 4.46881 12.6167C4.46881 12.206 4.80179 11.873 5.21254 11.873H5.7028V11.3828C5.7028 10.972 6.03578 10.6391 6.44653 10.6391ZM15.2664 12.9253C15.2664 12.3444 15.7372 11.873 16.3186 11.873C16.8997 11.873 17.3709 12.3441 17.3709 12.9253C17.3709 13.5065 16.8996 13.9775 16.3186 13.9775C15.7373 13.9775 15.2664 13.5062 15.2664 12.9253Z" fill="#1B1A16"/>
</svg>
