<svg width="24" height="24" viewBox="0 0 24 24" fill="none" xmlns="http://www.w3.org/2000/svg">
<path fill-rule="evenodd" clip-rule="evenodd" d="M3.98333 5.96667C3.7164 5.96667 3.5 6.18307 3.5 6.45001V17.55C3.5 17.8169 3.7164 18.0333 3.98333 18.0333H20.0167C20.2836 18.0333 20.5 17.8169 20.5 17.55V6.45001C20.5 6.18307 20.2836 5.96667 20.0167 5.96667H3.98333ZM2 6.45001C2 5.35464 2.88797 4.46667 3.98333 4.46667H20.0167C21.112 4.46667 22 5.35464 22 6.45001V17.55C22 18.6454 21.112 19.5333 20.0167 19.5333H3.98333C2.88797 19.5333 2 18.6454 2 17.55V6.45001ZM5.21667 8.78345C5.63088 8.78345 5.96667 9.11923 5.96667 9.53345V11.1793C6.01799 11.8194 6.18263 12.4421 6.45 13.0194C6.71736 12.4421 6.88201 11.8194 6.93333 11.1793V9.53345C6.93333 9.11923 7.26912 8.78345 7.68333 8.78345C8.09755 8.78345 8.43333 9.11923 8.43333 9.53345V11.2083C8.43333 11.2271 8.43263 11.2458 8.43123 11.2645C8.3316 12.5908 7.85117 13.8601 7.04765 14.9199C6.90586 15.1069 6.6847 15.2168 6.45 15.2168C6.2153 15.2168 5.99414 15.1069 5.85235 14.9199C5.04883 13.8601 4.5684 12.5908 4.46877 11.2645C4.46737 11.2458 4.46667 11.2271 4.46667 11.2083V9.53345C4.46667 9.11923 4.80245 8.78345 5.21667 8.78345ZM10.15 8.78345C10.5642 8.78345 10.9 9.11923 10.9 9.53345V14.4668C10.9 14.881 10.5642 15.2168 10.15 15.2168C9.73579 15.2168 9.4 14.881 9.4 14.4668V9.53345C9.4 9.11923 9.73579 8.78345 10.15 8.78345ZM11.7587 9.2921C12.0843 8.96642 12.5261 8.78345 12.9867 8.78345H13.9733C14.3875 8.78345 14.7233 9.11923 14.7233 9.53345C14.7233 9.94766 14.3875 10.2834 13.9733 10.2834H12.9867C12.9239 10.2834 12.8637 10.3084 12.8193 10.3528C12.7749 10.3971 12.75 10.4573 12.75 10.5201C12.75 10.8394 12.9051 11.0014 13.4367 11.4001C13.4529 11.4123 13.4695 11.4247 13.4866 11.4374C13.9498 11.7833 14.7233 12.3607 14.7233 13.4801C14.7233 13.9407 14.5404 14.3824 14.2147 14.7081C13.889 15.0338 13.4473 15.2168 12.9867 15.2168H12C11.5858 15.2168 11.25 14.881 11.25 14.4668C11.25 14.0526 11.5858 13.7168 12 13.7168H12.9867C13.0494 13.7168 13.1096 13.6918 13.154 13.6475C13.1984 13.6031 13.2233 13.5429 13.2233 13.4801C13.2233 13.1608 13.0683 12.9988 12.5367 12.6001C12.5205 12.588 12.5038 12.5755 12.4867 12.5628C12.0235 12.217 11.25 11.6395 11.25 10.5201C11.25 10.0595 11.433 9.61779 11.7587 9.2921ZM16.1476 9.36435C16.5195 8.9924 17.024 8.78345 17.55 8.78345C18.076 8.78345 18.5805 8.9924 18.9524 9.36435C19.3244 9.7363 19.5333 10.2408 19.5333 10.7668V14.4668C19.5333 14.881 19.1975 15.2168 18.7833 15.2168C18.3691 15.2168 18.0333 14.881 18.0333 14.4668V13.3668H17.0667V14.4668C17.0667 14.881 16.7309 15.2168 16.3167 15.2168C15.9025 15.2168 15.5667 14.881 15.5667 14.4668V10.7668C15.5667 10.2408 15.7756 9.7363 16.1476 9.36435ZM17.0667 11.8668H18.0333V10.7668C18.0333 10.6386 17.9824 10.5157 17.8918 10.425C17.8011 10.3344 17.6782 10.2834 17.55 10.2834C17.4218 10.2834 17.2989 10.3344 17.2082 10.425C17.1176 10.5157 17.0667 10.6386 17.0667 10.7668V11.8668Z" fill="#1B1A16"/>
</svg>
