<svg width="24" height="24" viewBox="0 0 24 24" fill="none" xmlns="http://www.w3.org/2000/svg">
<path fill-rule="evenodd" clip-rule="evenodd" d="M8.11033 8.17386C8.50016 8.31387 8.70269 8.74339 8.56268 9.13323L6.36241 15.2596C6.25544 15.5575 5.97303 15.7561 5.65656 15.7561H5.19776C4.84996 15.7561 4.5478 15.517 4.46784 15.1785L3.15716 9.62972H2.75C2.33579 9.62972 2 9.29393 2 8.87972C2 8.46551 2.33579 8.12972 2.75 8.12972H3.75064C4.09844 8.12972 4.40061 8.36883 4.48056 8.70731L5.5285 13.1438L7.15097 8.62622C7.29097 8.23638 7.7205 8.03386 8.11033 8.17386ZM10.7691 8.15555C11.1691 8.26313 11.4061 8.6746 11.2985 9.0746L9.65081 15.201C9.54323 15.601 9.13176 15.8381 8.73176 15.7305C8.33176 15.6229 8.09471 15.2114 8.20229 14.8114L9.85002 8.68501C9.95761 8.28502 10.3691 8.04797 10.7691 8.15555ZM19.0993 8.55751C19.2237 8.29625 19.4872 8.12981 19.7766 8.12981H20.3686C20.7423 8.12981 21.0589 8.4049 21.1112 8.77492L21.6716 12.743C21.6743 12.7581 21.6764 12.7734 21.6781 12.7889L21.9926 15.0156C22.0506 15.4258 21.765 15.8052 21.3549 15.8631C20.9447 15.9211 20.5653 15.6355 20.5074 15.2254L20.2809 13.6217H18.3505L17.5382 15.3285C17.3602 15.7025 16.9127 15.8614 16.5387 15.6834C16.1647 15.5054 16.0058 15.0579 16.1837 14.6839L19.0993 8.55751ZM19.0643 12.1217H20.069L19.8391 10.4938L19.0643 12.1217ZM15.7998 8.37812C15.8 8.37817 15.8002 8.37821 15.6556 9.11415L15.7998 8.37812C16.2062 8.45795 16.4714 8.85224 16.3916 9.25869C16.3118 9.66466 15.9185 9.92928 15.5125 9.85037C15.5122 9.8503 15.5118 9.85023 15.5114 9.85016L15.4991 9.84791C15.4872 9.8458 15.4678 9.84248 15.4419 9.83842C15.39 9.83028 15.3125 9.81929 15.2166 9.80913C15.0225 9.78855 14.7653 9.77267 14.4992 9.78692C13.8858 9.81975 13.5765 9.98765 13.4812 10.1713C13.3572 10.4112 13.3705 10.545 13.3922 10.6235C13.4206 10.7262 13.501 10.8598 13.6825 11.0314C13.8648 11.2038 14.0936 11.3643 14.3589 11.5454C14.3768 11.5576 14.395 11.57 14.4137 11.5827C14.6405 11.7371 14.9233 11.9297 15.1305 12.1345C15.4252 12.4258 15.6522 12.831 15.756 13.2637C15.8609 13.7009 15.8535 14.2304 15.5816 14.7181C15.0118 15.74 13.6423 16.0646 11.6779 15.7466C11.269 15.6804 10.9912 15.2952 11.0574 14.8864C11.1236 14.4775 11.5087 14.1997 11.9176 14.2659C13.793 14.5694 14.2078 14.1019 14.2715 13.9876C14.3163 13.9072 14.338 13.7828 14.2974 13.6137C14.2558 13.4402 14.1627 13.287 14.076 13.2013C13.9721 13.0986 13.7987 12.9792 13.5132 12.7843C13.2585 12.6104 12.9334 12.3874 12.652 12.1214C12.3699 11.8547 12.0769 11.495 11.9465 11.0234C11.8093 10.5276 11.8783 10.0058 12.1485 9.48273C12.6504 8.51295 13.7616 8.32424 14.419 8.28906C14.7885 8.26928 15.1295 8.29148 15.3748 8.31749C15.4986 8.33062 15.6011 8.34505 15.6742 8.3565C15.7108 8.36224 15.7402 8.36726 15.7615 8.37105L15.7873 8.37574L15.7954 8.37727L15.7982 8.37782L15.7998 8.37812Z" fill="#1B1A16"/>
</svg>
