<svg width="24" height="24" viewBox="0 0 24 24" fill="none" xmlns="http://www.w3.org/2000/svg">
<path fill-rule="evenodd" clip-rule="evenodd" d="M18.8381 3.5C18.7987 3.5 18.7601 3.51145 18.7271 3.53294C18.7024 3.54901 18.6817 3.57019 18.6661 3.5949L18.161 5.27806H19.5148L19.0101 3.59487C18.9945 3.57017 18.9737 3.54901 18.949 3.53294C18.916 3.51144 18.8775 3.5 18.8381 3.5ZM21.2309 5.77829L20.4284 3.10236C20.4194 3.07242 20.4085 3.04308 20.3959 3.0145C20.2624 2.71266 20.0442 2.45609 19.7676 2.27598C19.491 2.09588 19.1681 2 18.8381 2C18.508 2 18.1851 2.09588 17.9086 2.27598C17.632 2.45609 17.4137 2.71266 17.2803 3.0145C17.2676 3.04304 17.2568 3.07235 17.2478 3.10224L16.4418 5.78829C16.4365 5.80406 16.4317 5.82006 16.4274 5.83628L15.8726 7.68543C15.7535 8.08216 15.9786 8.50029 16.3753 8.61934C16.7721 8.73839 17.1902 8.51328 17.3093 8.11654L17.7109 6.77806H19.9647L20.366 8.11643C20.485 8.51318 20.9031 8.73836 21.2999 8.61938C21.6966 8.50039 21.9218 8.0823 21.8028 7.68555L21.2514 5.84677C21.2456 5.82349 21.2387 5.80065 21.2309 5.77829ZM14.0179 6.79534C12.4992 6.06069 10.771 5.8817 9.13401 6.2895C7.49697 6.6973 6.0547 7.66608 5.05809 9.02732C4.06148 10.3886 3.57361 12.0561 3.67935 13.7398C3.78509 15.4236 4.47775 17.017 5.63682 18.2428C6.7959 19.4687 8.34804 20.2494 10.0232 20.4492C11.6984 20.649 13.3906 20.2552 14.8055 19.3364C16.2204 18.4175 17.2684 17.0317 17.7671 15.42C18.2659 13.8084 18.1839 12.0729 17.5354 10.5154C17.3761 10.133 17.5571 9.69397 17.9394 9.53475C18.3218 9.37552 18.7609 9.55643 18.9201 9.93882C19.7035 11.8202 19.8026 13.9166 19.2001 15.8635C18.5976 17.8103 17.3316 19.4844 15.6225 20.5943C13.9134 21.7043 11.8692 22.18 9.8456 21.9387C7.82199 21.6973 5.94703 20.7542 4.54689 19.2734C3.14675 17.7926 2.31003 15.8678 2.1823 13.8339C2.05457 11.7999 2.64391 9.78556 3.84779 8.14122C5.05168 6.49687 6.79392 5.3266 8.77142 4.83398C10.7489 4.34137 12.8366 4.55759 14.6711 5.44503C15.044 5.6254 15.2001 6.0739 15.0197 6.44678C14.8393 6.81966 14.3908 6.97571 14.0179 6.79534ZM6.10961 13.1228C7.33782 13.1507 8.3453 13.7919 9.05034 14.6923C9.76835 15.6092 10.1993 16.8154 10.3116 18.0236C10.4953 18.0451 10.6823 18.0562 10.8718 18.0562C11.0616 18.0562 11.2489 18.0451 11.4329 18.0235C11.5454 16.8151 11.9769 15.6089 12.6955 14.692C13.4004 13.7926 14.4072 13.1518 15.634 13.1229C15.6237 12.8261 15.5863 12.5361 15.5241 12.2555C13.9807 12.0615 12.4275 11.9548 10.8718 11.9362C9.31614 11.9549 7.76288 12.0615 6.2195 12.2556C6.15734 12.5362 6.1199 12.8261 6.10961 13.1228ZM6.89304 10.6679C8.2118 10.5292 9.53655 10.4518 10.863 10.4362H10.8806C12.207 10.4518 13.5318 10.5291 14.8505 10.6679C13.9979 9.37732 12.5343 8.52595 10.8718 8.52595C9.20928 8.52595 7.74561 9.37736 6.89304 10.6679ZM15.4429 14.6414C14.8276 14.7235 14.3026 15.0731 13.8761 15.6173C13.4694 16.1363 13.1719 16.8164 13.0192 17.5461C14.1804 16.9589 15.0686 15.9103 15.4429 14.6414ZM8.72554 17.5466C8.57309 16.8166 8.2758 16.1361 7.86932 15.617C7.44259 15.0721 6.91697 14.7222 6.3006 14.641C6.67491 15.9105 7.56366 16.9595 8.72554 17.5466ZM4.60669 13.2911C4.60669 9.83094 7.41168 7.02595 10.8718 7.02595C14.3319 7.02595 17.1369 9.83094 17.1369 13.2911C17.1369 16.7512 14.3319 19.5562 10.8718 19.5562C7.41168 19.5562 4.60669 16.7512 4.60669 13.2911Z" fill="#1B1A16"/>
</svg>
