<svg width="24" height="24" viewBox="0 0 24 24" fill="none" xmlns="http://www.w3.org/2000/svg">
<path fill-rule="evenodd" clip-rule="evenodd" d="M12 11.25C11.4155 11.25 10.9417 11.7238 10.9417 12.3083C10.9417 12.8928 11.4155 13.3667 12 13.3667C12.5845 13.3667 13.0583 12.8928 13.0583 12.3083C13.0583 11.7238 12.5845 11.25 12 11.25Z" fill="#1B1A16"/>
<path fill-rule="evenodd" clip-rule="evenodd" d="M4.46667 12C4.46667 7.83946 7.83946 4.46667 12 4.46667C16.1605 4.46667 19.5333 7.83945 19.5333 12C19.5333 12.4524 19.4935 12.8954 19.417 13.3258C19.416 13.333 19.4148 13.3401 19.4135 13.3472L19.4098 13.3658C18.7673 16.8743 15.6941 19.5333 12 19.5333C8.3065 19.5333 5.23383 16.8752 4.59052 13.3677L4.5865 13.3472C4.58508 13.3394 4.58379 13.3317 4.58262 13.3239C4.50642 12.8941 4.46667 12.4517 4.46667 12ZM18.0333 12C18.0333 12.1273 18.0294 12.2537 18.0216 12.379C16.6517 12.2972 15.3665 12.6763 14.4235 13.6025C13.4199 14.5882 12.9225 16.0765 13.0156 17.9482C12.6854 18.0042 12.3461 18.0333 12 18.0333C11.6539 18.0333 11.3146 18.0042 10.9844 17.9482C11.0774 16.0765 10.5801 14.5881 9.5765 13.6025C8.63344 12.6763 7.34832 12.2972 5.97838 12.379C5.97061 12.2537 5.96667 12.1273 5.96667 12C5.96667 11.7577 5.98095 11.5187 6.00873 11.2838C7.94145 10.6437 9.96238 10.306 11.9999 10.2834C14.0375 10.3062 16.0585 10.6439 17.9913 11.2839C18.0191 11.5187 18.0333 11.7577 18.0333 12ZM17.7386 13.8681C17.2142 15.4799 16.0296 16.7939 14.504 17.4908C14.5068 16.1336 14.9124 15.2248 15.4745 14.6727C16.014 14.1428 16.7899 13.8508 17.7386 13.8681ZM8.52544 14.6727C9.08759 15.2248 9.49316 16.1336 9.49598 17.4908C7.97038 16.7939 6.78579 15.4799 6.26144 13.8681C7.21011 13.8508 7.98595 14.1428 8.52544 14.6727ZM6.47459 9.57322C8.26904 9.06945 10.124 8.80333 11.992 8.78338L12.0081 8.78338C13.876 8.80352 15.731 9.06968 17.5255 9.57336C16.5914 7.44961 14.4689 5.96667 12 5.96667C9.53115 5.96667 7.40865 7.44955 6.47459 9.57322Z" fill="#1B1A16"/>
<path fill-rule="evenodd" clip-rule="evenodd" d="M2 12C2 6.47716 6.47716 2 12 2C17.5228 2 22 6.47716 22 12C22 17.5228 17.5228 22 12 22C6.47716 22 2 17.5228 2 12ZM12 3.5C7.30558 3.5 3.5 7.30558 3.5 12C3.5 16.6944 7.30558 20.5 12 20.5C16.6944 20.5 20.5 16.6944 20.5 12C20.5 7.30558 16.6944 3.5 12 3.5Z" fill="#1B1A16"/>
</svg>
