<svg width="24" height="24" viewBox="0 0 24 24" fill="none" xmlns="http://www.w3.org/2000/svg">
<path fill-rule="evenodd" clip-rule="evenodd" d="M16.5501 6.99997C16.867 7.13174 17.2068 7.19971 17.5501 7.19997C17.8933 7.19945 18.233 7.13149 18.5501 6.99997C18.8648 6.87163 19.1505 6.68117 19.39 6.43997C19.6289 6.19648 19.822 5.91193 19.96 5.59997C20.0873 5.28204 20.1519 4.94245 20.15 4.59997C20.154 4.2573 20.0893 3.9173 19.96 3.59997C19.8284 3.28154 19.6347 2.99257 19.39 2.74997C19.1505 2.50877 18.8648 2.31831 18.5501 2.18997C18.2333 2.0574 17.8934 1.98914 17.5501 1.98914C17.2067 1.98914 16.8668 2.0574 16.5501 2.18997C16.2353 2.31831 15.9495 2.50877 15.71 2.74997C15.4622 2.99002 15.2681 3.27967 15.14 3.59997C15.0072 3.91659 14.9393 4.25662 14.9401 4.59997C14.9416 4.94308 15.0095 5.28265 15.14 5.59997C15.2706 5.916 15.4645 6.2019 15.71 6.43997C15.9495 6.68117 16.2353 6.87163 16.5501 6.99997ZM17.14 3.57997C17.2707 3.5285 17.4097 3.50138 17.5501 3.49997V3.46997C17.6988 3.4809 17.8443 3.51815 17.98 3.57997C18.1099 3.63873 18.2283 3.71997 18.33 3.81997C18.4324 3.92339 18.514 4.04563 18.5701 4.17997C18.6267 4.31257 18.654 4.45584 18.65 4.59997C18.654 4.7441 18.6267 4.88738 18.5701 5.01997C18.514 5.15431 18.4324 5.27655 18.33 5.37997C18.2283 5.47997 18.1099 5.56122 17.98 5.61997C17.7072 5.72955 17.4028 5.72955 17.13 5.61997C16.9984 5.55897 16.877 5.47802 16.77 5.37997C16.6683 5.27794 16.5899 5.15514 16.54 5.01997C16.48 4.88815 16.4492 4.74483 16.45 4.59997C16.4492 4.4551 16.48 4.3118 16.54 4.17997C16.5888 4.04187 16.6713 3.91813 16.78 3.81997C16.8835 3.71753 17.0057 3.63604 17.14 3.57997Z" fill="#1B1A16"/>
<path fill-rule="evenodd" clip-rule="evenodd" d="M3.5 17.07H20.5V21.25C20.5026 21.4481 20.5824 21.6374 20.7225 21.7775C20.8626 21.9176 21.0519 21.9974 21.25 22C21.4489 22 21.6397 21.921 21.7804 21.7803C21.921 21.6397 22 21.4489 22 21.25V9.74001C22.0011 9.53369 21.9609 9.32924 21.882 9.13863C21.803 8.94802 21.6867 8.77511 21.54 8.63002C21.3956 8.4824 21.2229 8.36554 21.0321 8.28649C20.8413 8.20743 20.6365 8.16781 20.4301 8.17001H16.9452L16.94 8.16999C16.9329 8.16989 16.9257 8.1699 16.9186 8.17001H12.0314C12.0243 8.1699 12.0171 8.16989 12.01 8.16999L12.0048 8.17001H7.07629L7.07007 8.16998L7.06385 8.17001H3.57996C3.37212 8.16873 3.16614 8.20874 2.97388 8.2877C2.78162 8.36666 2.6069 8.48302 2.45996 8.63002C2.16735 8.92561 2.00225 9.32408 2 9.74001V21.25C2.00259 21.4481 2.08244 21.6374 2.22253 21.7775C2.36263 21.9176 2.55189 21.9974 2.75 22C2.94891 22 3.13974 21.921 3.2804 21.7803C3.42105 21.6397 3.5 21.4489 3.5 21.25V17.07ZM16.19 9.67001H12.76V11.87H16.19V9.67001ZM16.19 13.37H12.76V15.57H16.19V13.37ZM17.69 15.57V13.37H20.51V15.57H17.69ZM17.69 11.87V9.67001H20.4401L20.51 9.74001V11.87H17.69ZM7.82007 9.67001H11.26V11.87H7.82007V9.67001ZM7.82007 13.37H11.26V15.57H7.82007V13.37ZM6.32007 9.67001H3.58997C3.58059 9.66556 3.57044 9.66326 3.56006 9.66326C3.54968 9.66326 3.5394 9.66556 3.53003 9.67001L3.52256 11.87H6.32007V9.67001ZM6.32007 13.37H3.51747L3.51001 15.57H6.32007V13.37Z" fill="#1B1A16"/>
</svg>
