<svg width="24" height="24" viewBox="0 0 24 24" fill="none" xmlns="http://www.w3.org/2000/svg">
<path fill-rule="evenodd" clip-rule="evenodd" d="M15.731 2.01113C16.1391 2.08221 16.4122 2.47064 16.3412 2.87871L15.7475 6.28694C15.9142 6.42143 16.0757 6.5626 16.2316 6.71017L18.3346 4.60712C18.6275 4.31423 19.1024 4.31423 19.3953 4.60712C19.6882 4.90001 19.6882 5.37489 19.3953 5.66778L17.2923 7.7708C17.4397 7.92644 17.5808 8.08769 17.7152 8.25412L21.1229 7.66113C21.531 7.59012 21.9194 7.86337 21.9904 8.27145C22.0614 8.67953 21.7881 9.06791 21.3801 9.13892L18.6084 9.62123C18.7541 9.90234 18.8836 10.1925 18.9961 10.4903C18.9992 10.4986 19.0022 10.5068 19.005 10.5152C19.2574 11.2621 19.2276 12.0755 18.9213 12.8019C18.621 13.5139 18.0755 14.094 17.3844 14.4375L17.3228 14.4765C17.2595 14.5164 17.1664 14.5752 17.0465 14.6506C16.8067 14.8015 16.4598 15.0191 16.031 15.2864C15.5358 15.5951 14.9312 15.9702 14.2558 16.3853C14.1989 16.4329 14.1366 16.4707 14.0711 16.4988C13.63 16.7695 13.1612 17.0558 12.6751 17.3506C10.0588 18.9372 6.90767 20.7907 4.85129 21.8021L4.84352 21.8059C4.4725 21.9831 4.05563 22.0409 3.65038 21.9713C3.24513 21.9018 2.8714 21.7084 2.58066 21.4176C2.28991 21.1269 2.09646 20.7531 2.02693 20.3479C1.9574 19.9426 2.01521 19.5258 2.19241 19.1548L2.19604 19.1472C2.84749 17.8215 3.84844 16.0417 4.90226 14.2435C4.9102 14.2289 4.91865 14.2145 4.92764 14.2003C5.50127 13.2221 6.08984 12.2395 6.64562 11.3227C7.44133 10.0101 8.17458 8.82449 8.70886 7.96711C8.97604 7.53837 9.19356 7.19155 9.34437 6.95178C9.41977 6.83189 9.47851 6.73876 9.51844 6.67552L9.55727 6.61408C9.90147 5.92036 10.4845 5.37334 11.1999 5.07417C11.9299 4.76891 12.7467 4.74305 13.4946 5.00151L13.5144 5.00869C13.8112 5.1207 14.1002 5.24966 14.3803 5.39464L14.8634 2.6213C14.9345 2.21323 15.3229 1.94005 15.731 2.01113ZM13.8812 14.8544L11.5146 12.4878C11.2217 12.1949 10.7468 12.1949 10.4539 12.4878C10.161 12.7807 10.161 13.2556 10.4539 13.5485L12.5664 15.661C12.3479 15.7943 12.1245 15.9302 11.8973 16.068C9.27789 17.6565 6.18295 19.475 4.19399 20.4538C4.10364 20.4961 4.00244 20.5098 3.90403 20.4929C3.80451 20.4759 3.71272 20.4284 3.64132 20.357C3.56991 20.2855 3.5224 20.1938 3.50533 20.0942C3.48843 19.9958 3.50215 19.8945 3.54457 19.8042C4.07802 18.7192 4.86107 17.3056 5.72034 15.8196L7.38943 17.4887C7.68233 17.7816 8.1572 17.7816 8.45009 17.4887C8.74299 17.1958 8.74299 16.721 8.45009 16.4281L6.50295 14.4809C6.97991 13.673 7.46396 12.8663 7.92834 12.1003C8.72005 10.7942 9.44993 9.61411 9.98191 8.76043C10.1153 8.54642 10.2362 8.35296 10.3425 8.18323L12.6424 10.4832C12.9353 10.7761 13.4102 10.7761 13.7031 10.4832C13.996 10.1903 13.996 9.71544 13.7031 9.42255L11.1689 6.88835C11.3369 6.70352 11.5445 6.55595 11.7786 6.45805C12.1656 6.29621 12.5983 6.28136 12.9953 6.41605C13.5248 6.61696 14.0243 6.8841 14.4825 7.2096C14.4907 7.2157 14.499 7.22164 14.5074 7.22742C14.9279 7.52906 15.3132 7.88005 15.6545 8.27426C15.678 8.30137 15.7034 8.32677 15.7305 8.35025C16.1234 8.69052 16.4734 9.07446 16.7744 9.49334C16.7807 9.50252 16.7871 9.51153 16.7937 9.52039C17.1194 9.97844 17.3867 10.4778 17.5879 11.0071C17.7187 11.4035 17.7015 11.8341 17.5391 12.2191C17.3752 12.6078 17.0746 12.9231 16.6941 13.1053C16.6675 13.1181 16.6413 13.1326 16.6163 13.1485L16.5217 13.2083C16.4592 13.2478 16.3668 13.3061 16.2477 13.381C16.0094 13.5309 15.6643 13.7474 15.2375 14.0135C14.8472 14.2568 14.3887 14.5414 13.8812 14.8544Z" fill="#1B1A16"/>
</svg>
